<?xml version="1.0"?>
<svg width="4435" height="4415" version="1.1" xmlns="http://www.w3.org/2000/svg" >
<defs>
<style type="text/css"><![CDATA[
.m {stroke:rgb(255,0,0);stroke-width:5.543750;}
.v {stroke:rgb(0,0,255);stroke-width:5.543750;}
.b {stroke:rgb(0,0,0);stroke-width:11.087500;fill:white}
.n {stroke:rgb(128,128,128);stroke-width:5.543750}
.t {stroke:rgb(0,128,0);stroke-width:5.543750;}
.c {stroke:rgb(128,128,128);stroke-width:5.543750;stroke-dasharray:44.350000, 44.350000;}
]]></style>
</defs>
<path fill="none" style="stroke:black;stroke-width:11.087500;" d=" M 2626.44 1420.14 L 2626.44 1553.47 M 2626.44 1420.14 L 2415.63 1486.8 M 2626.44 1553.47 L 2626.44 1420.14 M 2415.62 1486.8 L 2626.44 1420.14 M 2626.44 1286.8 L 2415.62 1353.47 M 2204.8 1420.14 L 2415.62 1486.8 M 2415.62 1353.47 L 2204.8 1420.14 M 2837.26 1220.14 L 2626.44 1286.8 M 479.135 3521.26 L 344.978 3345.51 M 134.159 3278.84 L 268.317 3454.6 M 344.978 3345.51 L 134.159 3278.84 M 134.157 3278.84 L 344.976 3345.51 M 421.637 3236.41 L 210.818 3169.75 M 555.794 3412.17 L 421.637 3236.41 M 344.976 3345.51 L 479.133 3521.26 M 210.818 3169.75 L 0 3103.08 M 0 3103.08 L 134.157 3278.84 M 421.639 3236.42 L 555.796 3412.17 M 632.458 3303.08 L 421.639 3236.42 M 268.317 3454.6 L 402.474 3630.36 M 2356.38 2037.77 L 2347.67 1816.83 M 2213.52 1641.07 L 2222.23 1862.01 M 2347.67 1816.83 L 2338.96 1595.89 M 2338.96 1595.89 L 2347.67 1816.83 M 2481.83 1992.59 L 2473.12 1771.65 M 2347.67 1816.83 L 2356.39 2037.77 M 2204.8 1420.14 L 2213.52 1641.07 M 2473.12 1771.65 L 2481.83 1992.59 M 2222.23 1862.01 L 2230.94 2082.95 M 2549.78 1662.56 L 2473.12 1771.65 M 2473.12 1771.65 L 2549.78 1662.56 M 2415.63 1486.8 L 2338.96 1595.89 M 2549.78 1662.56 L 2626.44 1553.47 M 2626.44 1553.47 L 2549.78 1662.56 M 2683.94 1838.32 L 2760.6 1729.23 M 2338.96 1595.89 L 2415.62 1486.8 M 2415.62 1486.8 L 2204.8 1420.14 M 2760.6 1729.23 L 2837.26 1620.14 M 2607.28 1947.41 L 2683.94 1838.32 M 1511.37 3006.91 L 1385.92 3052.09 M 1385.92 3052.09 L 1511.37 3006.91 M 1502.66 2785.98 L 1377.21 2831.16 M 1511.37 3006.91 L 1636.81 2961.73 M 1636.81 2961.73 L 1511.37 3006.91 M 1520.08 3227.85 L 1645.53 3182.67 M 1377.21 2831.16 L 1502.66 2785.98 M 1645.53 3182.67 L 1770.97 3137.49 M 1394.63 3273.03 L 1520.08 3227.85 M 1137.41 3202.71 L 1257.31 3016.93 M 1248.6 2795.99 L 1128.7 2981.77 M 1257.31 3016.93 L 1377.21 2831.16 M 1377.21 2831.16 L 1257.31 3016.93 M 1266.02 3237.87 L 1385.92 3052.09 M 1257.31 3016.93 L 1137.41 3202.71 M 1368.5 2610.22 L 1248.6 2795.99 M 1385.92 3052.09 L 1266.02 3237.87 M 1128.7 2981.77 L 1008.79 3167.55 M 1790.14 2610.22 L 1790.14 2743.55 M 1790.14 2743.55 L 1790.14 2610.22 M 1579.32 2543.55 L 1579.32 2676.89 M 1790.14 2476.89 L 1579.32 2543.55 M 1790.14 2610.22 L 1790.14 2476.89 M 1790.14 2476.89 L 1790.14 2610.22 M 2000.96 2676.89 L 2000.96 2543.55 M 1579.32 2676.89 L 1579.32 2543.55 M 1579.32 2543.55 L 1368.5 2610.22 M 2000.96 2543.55 L 2000.96 2410.22 M 2000.96 2410.22 L 1790.14 2476.89 M 1713.48 2852.64 L 1636.81 2961.73 M 1636.81 2961.73 L 1713.48 2852.64 M 1847.63 3028.4 L 1924.29 2919.31 M 1924.29 2919.31 L 2000.96 2810.22 M 1770.97 3137.49 L 1847.63 3028.4 M 2837.26 1353.47 L 3048.08 1420.14 M 3048.08 1420.14 L 3258.9 1353.47 M 3258.9 1353.47 L 3048.08 1286.8 M 3258.9 1353.47 L 3048.08 1420.14 M 3048.08 1553.47 L 3258.9 1486.8 M 2837.26 1486.8 L 3048.08 1553.47 M 3048.08 1420.14 L 2837.26 1353.47 M 3258.9 1486.8 L 3469.72 1420.14 M 3469.72 1420.14 L 3258.9 1353.47 M 2837.26 1620.14 L 3048.08 1553.47 M 3048.08 1553.47 L 2837.26 1486.8 M 3124.74 1177.71 L 3201.4 1068.62 M 2211.77 4198.1 L 2288.44 4307.19 M 2499.25 4240.52 L 2422.59 4131.43 M 2365.1 4416.28 L 2499.25 4240.52 M 2288.44 4307.19 L 2365.1 4416.28 M 3048.08 1286.8 L 3124.74 1177.71 M 2422.59 4131.43 L 2499.25 4240.52 M 2499.25 4240.52 L 2633.41 4064.76 M 3326.85 1023.44 L 3452.29 978.262 M 2211.77 3931.43 L 2211.77 4064.77 M 2422.59 4131.43 L 2422.59 3998.1 M 2211.77 4064.77 L 2211.77 4198.1 M 3201.4 1068.62 L 3326.85 1023.44 M 3318.13 802.505 L 3192.69 847.684 M 2422.59 3998.1 L 2422.59 4131.43 M 3192.69 847.684 L 3067.24 892.863 M 3443.58 757.326 L 3318.13 802.505 M 2154.28 3646.58 L 2288.44 3822.34 M 2499.25 3889.01 L 2365.1 3713.25 M 2288.44 3822.34 L 2422.59 3998.1 M 2422.59 3998.1 L 2288.44 3822.34 M 2077.62 3755.67 L 2211.77 3931.43 M 2288.44 3822.34 L 2154.28 3646.58 M 2633.41 4064.76 L 2499.25 3889.01 M 3452.29 978.262 L 3572.19 792.487 M 2365.1 3713.25 L 2230.94 3537.49 M 4224.92 333.333 L 4435.74 266.666 M 4224.92 200 L 4014.1 266.667 M 4014.1 266.667 L 4224.92 200 M 4224.92 66.6666 L 4014.1 133.333 M 4224.92 200 L 4435.74 133.333 M 4435.74 266.666 L 4435.74 133.333 M 4435.74 133.333 L 4224.92 200 M 4014.1 133.333 L 3803.29 200 M 4435.74 0 L 4224.92 66.6666 M 4435.74 133.333 L 4435.74 0 M 4435.74 266.666 L 4224.92 333.333 M 4435.74 400 L 4435.74 266.666 M 3572.19 792.487 L 3692.1 606.712 M 3683.38 385.775 L 3563.48 571.551 M 3692.1 606.712 L 3812 420.937 M 1809.3 3404.16 L 1943.46 3579.92 M 2154.28 3646.58 L 2020.12 3470.83 M 1943.46 3579.92 L 2077.62 3755.67 M 3803.29 200 L 3683.38 385.775 M 2020.12 3470.82 L 2154.28 3646.58 M 3563.48 571.551 L 3443.58 757.326 M 2020.12 3337.49 L 2020.12 3470.82 M 2020.12 3470.83 L 2020.12 3337.49 M 1809.3 3270.83 L 1809.3 3404.16 M 2020.12 3337.49 L 2020.12 3204.16 M 2020.12 3204.16 L 2020.12 3337.49 M 2230.94 3404.16 L 2230.94 3270.82 M 3812 420.937 L 3937.44 375.757 M 2230.94 3270.82 L 2230.94 3137.49 M 2230.94 3537.49 L 2230.94 3404.16 M 2020.12 3204.16 L 2154.28 3028.4 M 1943.46 3095.07 L 1809.3 3270.83 M 3937.44 375.757 L 4148.26 442.424 M 4148.26 442.424 L 4359.08 509.091 M 2077.62 2919.31 L 1943.46 3095.07 M 4359.08 509.091 L 4435.74 400 M 2154.28 3028.4 L 2020.12 3204.16 M 2211.77 2610.22 L 2000.96 2676.89 M 2000.96 2543.55 L 2000.96 2676.89 M 2000.96 2676.89 L 2211.77 2610.22 M 2000.96 2410.22 L 2000.96 2543.55 M 2211.77 2743.55 L 2077.62 2919.31 M 2288.44 2852.64 L 2422.59 2676.89 M 2422.59 2676.89 L 2288.44 2852.64 M 2365.1 2961.73 L 2499.25 2785.98 M 2288.44 2852.64 L 2154.28 3028.4 M 2154.28 3028.4 L 2288.44 2852.64 M 2499.25 2785.98 L 2633.41 2610.22 M 2230.94 3137.49 L 2365.1 2961.73 M 2000.96 2810.22 L 2077.62 2919.31 M 2077.62 2919.31 L 2211.77 2743.55 M 2481.83 1992.59 L 2490.54 2213.52 M 2624.7 2389.28 L 2615.99 2168.35 M 2490.54 2213.52 L 2499.25 2434.46 M 2499.25 2434.46 L 2490.54 2213.53 M 2356.39 2037.77 L 2365.1 2258.7 M 2490.54 2213.53 L 2481.83 1992.59 M 2633.41 2610.22 L 2624.7 2389.28 M 2365.1 2258.7 L 2356.38 2037.77 M 2615.99 2168.35 L 2607.28 1947.41 M 2288.44 2367.79 L 2365.1 2258.7 M 2365.1 2258.7 L 2288.44 2367.79 M 2422.59 2543.55 L 2499.25 2434.46 M 2288.44 2367.79 L 2211.77 2476.89 M 2211.77 2476.89 L 2288.44 2367.79 M 2154.28 2192.04 L 2077.62 2301.13 M 2499.25 2434.46 L 2422.59 2543.55 M 2077.62 2301.13 L 2000.96 2410.22 M 2230.94 2082.95 L 2154.28 2192.04 M 766.613 3478.84 L 555.794 3412.17 M 689.952 3587.93 L 900.77 3654.6 M 900.772 3654.6 L 689.954 3587.93 M 613.292 3697.02 L 824.111 3763.69 M 689.954 3587.93 L 479.135 3521.26 M 479.133 3521.26 L 689.952 3587.93 M 824.111 3763.69 L 1034.93 3830.36 M 402.474 3630.36 L 613.292 3697.02 M 555.796 3412.17 L 766.615 3478.84 M 892.061 3433.66 L 1017.51 3388.48 M 1017.5 3388.48 L 892.059 3433.66 M 900.77 3654.6 L 1026.22 3609.42 M 892.059 3433.66 L 766.613 3478.84 M 766.615 3478.84 L 892.061 3433.66 M 883.349 3212.72 L 757.903 3257.9 M 1026.22 3609.42 L 900.772 3654.6 M 757.903 3257.9 L 632.458 3303.08 M 1008.79 3167.55 L 883.349 3212.72 M 1266.02 3237.87 L 1146.12 3423.64 M 1154.83 3644.58 L 1274.73 3458.8 M 1146.12 3423.64 L 1026.22 3609.42 M 1026.22 3609.42 L 1146.12 3423.64 M 1137.41 3202.71 L 1017.5 3388.48 M 1146.12 3423.64 L 1266.02 3237.87 M 1034.93 3830.36 L 1154.83 3644.58 M 1017.51 3388.48 L 1137.41 3202.71 M 1274.73 3458.8 L 1394.63 3273.03 M 2703.1 1044.38 L 2913.92 1111.05 M 2568.94 868.621 L 2703.1 1044.38 M 2779.76 935.288 L 2568.94 868.621 M 2568.94 868.621 L 2779.76 935.288 M 2856.42 826.197 L 2645.61 759.53 M 2779.76 935.288 L 2990.58 1001.95 M 2990.58 1001.95 L 2779.76 935.288 M 2645.61 759.53 L 2434.79 692.864 M 2434.79 692.864 L 2568.94 868.621 M 3067.24 892.863 L 2856.42 826.197 M 2913.92 1111.05 L 2703.1 1044.38 M 2703.1 1044.38 L 2837.26 1220.14" />
<path fill="none" class="c" d=" M 2211.77 2743.55 L 2422.59 2676.89 M 2422.59 2676.89 L 2633.41 2610.22 M 2000.96 2676.89 L 2000.96 2810.22 M 2000.96 2810.22 L 2211.77 2743.55 M 2633.41 2610.22 L 2422.59 2543.55 M 1790.14 2743.55 L 2000.96 2810.22 M 2422.59 2543.55 L 2211.77 2476.89 M 2077.62 2919.31 L 2154.28 3028.4 M 2154.28 3028.4 L 2230.94 3137.49 M 2633.41 2610.22 L 2499.25 2434.46 M 2020.12 3204.16 L 2230.94 3137.49 M 2211.77 2476.89 L 2000.96 2410.22 M 1790.14 2743.55 L 1579.32 2676.89 M 1636.81 2961.73 L 1770.97 3137.49 M 1809.3 3270.83 L 2020.12 3204.16 M 2499.25 2434.46 L 2365.1 2258.7 M 1368.5 2610.22 L 1502.66 2785.98 M 1579.32 2676.89 L 1368.5 2610.22 M 2481.83 1992.59 L 2356.39 2037.77 M 2365.1 2258.7 L 2230.94 2082.95 M 2607.28 1947.41 L 2481.83 1992.59 M 2607.28 1947.41 L 2473.12 1771.65 M 1368.5 2610.22 L 1377.21 2831.16 M 1502.66 2785.98 L 1636.81 2961.73 M 2020.12 3470.82 L 2230.94 3537.49 M 2356.38 2037.77 L 2230.94 2082.95 M 1385.92 3052.09 L 1394.63 3273.03 M 1266.02 3237.87 L 1394.63 3273.03 M 2154.28 3646.58 L 2230.94 3537.49 M 1809.3 3404.16 L 2020.12 3470.83 M 2473.12 1771.65 L 2338.96 1595.89 M 2338.96 1595.89 L 2204.8 1420.14 M 2626.44 1553.47 L 2415.63 1486.8 M 2077.62 3755.67 L 2154.28 3646.58 M 1026.22 3609.42 L 1034.93 3830.36 M 2837.26 1620.14 L 2626.44 1553.47 M 2837.26 1620.14 L 2837.26 1486.8 M 1377.21 2831.16 L 1385.92 3052.09 M 1137.41 3202.71 L 1266.02 3237.87 M 1008.79 3167.55 L 1137.41 3202.71 M 2422.59 3998.1 L 2633.41 4064.76 M 900.772 3654.6 L 1034.93 3830.36 M 1008.79 3167.55 L 1017.51 3388.48 M 2422.59 4131.43 L 2633.41 4064.76 M 2837.26 1486.8 L 2837.26 1353.47 M 2211.77 3931.43 L 2422.59 3998.1 M 479.135 3521.26 L 402.474 3630.36 M 1017.5 3388.48 L 1026.22 3609.42 M 2837.26 1353.47 L 2837.26 1220.14 M 3048.08 1286.8 L 2837.26 1220.14 M 2913.92 1111.05 L 2837.26 1220.14 M 2211.77 4198.1 L 2422.59 4131.43 M 766.613 3478.84 L 900.77 3654.6 M 632.458 3303.08 L 766.615 3478.84 M 2990.58 1001.95 L 2913.92 1111.05 M 632.458 3303.08 L 555.796 3412.17 M 3201.4 1068.62 L 3067.24 892.863 M 3067.24 892.863 L 2990.58 1001.95 M 555.794 3412.17 L 479.133 3521.26 M 3452.29 978.262 L 3443.58 757.326 M 3572.19 792.487 L 3443.58 757.326 M 3812 420.937 L 3803.29 200 M 3937.44 375.757 L 3803.29 200 M 4014.1 266.667 L 3803.29 200 M 4224.92 333.333 L 4014.1 266.667 M 4435.74 400 L 4224.92 333.333" />
<line x1="2282.046837" y1="2543.552373" x2="2352.319688" y2="2610.219040" class="t" />
<line x1="2282.046837" y1="2676.885707" x2="2352.319688" y2="2610.219040" class="t" />
<line x1="2141.501156" y1="2676.885707" x2="2282.046837" y2="2676.885707" class="t" />
<line x1="2307.600646" y1="2757.693802" x2="2282.046837" y2="2676.885707" class="t" />
<line x1="2071.228326" y1="2743.552373" x2="2141.501156" y2="2676.885707" class="t" />
<line x1="2492.865369" y1="2610.219040" x2="2352.319688" y2="2610.219040" class="t" />
<line x1="2518.419083" y1="2691.027053" x2="2492.865369" y2="2610.219040" class="t" />
<line x1="1930.682667" y1="2743.552373" x2="2071.228326" y2="2743.552373" class="t" />
<line x1="2096.782079" y1="2824.360508" x2="2071.228326" y2="2743.552373" class="t" />
<line x1="2192.608809" y1="2838.502005" x2="2307.600646" y2="2757.693802" class="t" />
<line x1="2403.427121" y1="2771.835079" x2="2518.419083" y2="2691.027053" class="t" />
<line x1="2518.419083" y1="2529.411027" x2="2492.865369" y2="2610.219040" class="t" />
<line x1="1860.409837" y1="2676.885707" x2="1930.682667" y2="2743.552373" class="t" />
<line x1="1905.128914" y1="2824.360508" x2="1930.682667" y2="2743.552373" class="t" />
<line x1="1809.302331" y1="2838.501976" x2="1905.128914" y2="2824.360508" class="t" />
<line x1="2141.501156" y1="2543.552373" x2="2282.046837" y2="2543.552373" class="t" />
<line x1="2307.600646" y1="2462.744279" x2="2282.046837" y2="2543.552373" class="t" />
<line x1="2173.443594" y1="2933.451516" x2="2192.608809" y2="2838.502005" class="t" />
<line x1="2384.261741" y1="2866.784572" x2="2403.427121" y2="2771.835079" class="t" />
<line x1="2269.269779" y1="2947.592597" x2="2384.261741" y2="2866.784572" class="t" />
<line x1="2250.104416" y1="3042.542078" x2="2269.269779" y2="2947.592597" class="t" />
<line x1="2058.451774" y1="3014.259708" x2="2173.443594" y2="2933.451516" class="t" />
<line x1="2135.112471" y1="3123.350091" x2="2250.104416" y2="3042.542078" class="t" />
<line x1="2585.787982" y1="2477.987698" x2="2518.419083" y2="2529.411027" class="t" />
<line x1="2403.427268" y1="2448.602972" x2="2307.600646" y2="2462.744279" class="t" />
<line x1="1930.682667" y1="2610.219040" x2="1860.409837" y2="2676.885707" class="t" />
<line x1="1860.409837" y1="2543.552373" x2="1930.682667" y2="2610.219040" class="t" />
<line x1="1694.310369" y1="2757.693950" x2="1809.302331" y2="2838.501976" class="t" />
<line x1="1828.467694" y1="2933.451457" x2="1809.302331" y2="2838.501976" class="t" />
<line x1="1732.641111" y1="2947.592924" x2="1828.467694" y2="2933.451457" class="t" />
<line x1="2039.286559" y1="3109.209219" x2="2058.451774" y2="3014.259708" class="t" />
<line x1="2160.666224" y1="3204.158226" x2="2135.112471" y2="3123.350091" class="t" />
<line x1="2071.228326" y1="2610.219040" x2="2141.501156" y2="2543.552373" class="t" />
<line x1="2071.228326" y1="2476.885707" x2="2141.501156" y2="2543.552373" class="t" />
<line x1="2096.782079" y1="2396.077572" x2="2071.228326" y2="2476.885707" class="t" />
<line x1="2538.164929" y1="2345.756335" x2="2585.787982" y2="2477.987698" class="t" />
<line x1="2384.262036" y1="2353.653449" x2="2403.427268" y2="2448.602972" class="t" />
<line x1="2192.608662" y1="2381.936105" x2="2096.782079" y2="2396.077572" class="t" />
<line x1="1930.682667" y1="2476.885707" x2="1860.409837" y2="2543.552373" class="t" />
<line x1="1751.806473" y1="3042.542405" x2="1732.641111" y2="2947.592924" class="t" />
<line x1="1719.864052" y1="2676.885816" x2="1694.310369" y2="2757.693950" class="t" />
<line x1="1598.483769" y1="2771.835406" x2="1694.310369" y2="2757.693950" class="t" />
<line x1="1684.437474" y1="3093.965812" x2="1751.806473" y2="3042.542405" class="t" />
<line x1="2090.393394" y1="3270.824892" x2="2160.666224" y2="3204.158226" class="t" />
<line x1="1924.294722" y1="3190.017423" x2="2039.286559" y2="3109.209219" class="t" />
<line x1="1949.848531" y1="3270.825517" x2="1924.294722" y2="3190.017423" class="t" />
<line x1="2577.076238" y1="2257.051048" x2="2538.164929" y2="2345.756335" class="t" />
<line x1="2451.631139" y1="2302.230212" x2="2384.262036" y2="2353.653449" class="t" />
<line x1="2173.443299" y1="2286.986624" x2="2192.608662" y2="2381.936105" class="t" />
<line x1="2269.269882" y1="2272.845156" x2="2173.443299" y2="2286.986624" class="t" />
<line x1="1597.903111" y1="3050.439737" x2="1684.437474" y2="3093.965812" class="t" />
<line x1="1649.591098" y1="2610.219258" x2="1719.864052" y2="2676.885816" class="t" />
<line x1="1719.863845" y1="2543.552483" x2="1649.591098" y2="2610.219258" class="t" />
<line x1="1617.649148" y1="2866.784899" x2="1598.483769" y2="2771.835406" class="t" />
<line x1="1483.491806" y1="2691.027381" x2="1598.483769" y2="2771.835406" class="t" />
<line x1="1416.122907" y1="2742.450710" x2="1483.491806" y2="2691.027381" class="t" />
<line x1="1509.045521" y1="2610.219367" x2="1483.491806" y2="2691.027381" class="t" />
<line x1="1879.575680" y1="3337.492184" x2="1949.848531" y2="3270.825517" class="t" />
<line x1="2160.666224" y1="3337.491559" x2="2090.393394" y2="3270.824892" class="t" />
<line x1="2090.393394" y1="3404.158226" x2="2160.666224" y2="3337.491559" class="t" />
<line x1="2529.453184" y1="2124.819685" x2="2577.076238" y2="2257.051048" class="t" />
<line x1="2404.008496" y1="2169.998702" x2="2451.631139" y2="2302.230212" class="t" />
<line x1="2442.920088" y1="2081.293555" x2="2404.008496" y2="2169.998702" class="t" />
<line x1="2395.297452" y1="1949.062065" x2="2442.920088" y2="2081.293555" class="t" />
<line x1="2568.364500" y1="2036.114418" x2="2529.453184" y2="2124.819685" class="t" />
<line x1="2250.104519" y1="2177.895675" x2="2269.269882" y2="2272.845156" class="t" />
<line x1="2317.473519" y1="2126.472268" x2="2250.104519" y2="2177.895675" class="t" />
<line x1="2434.209043" y1="1860.356918" x2="2395.297452" y2="1949.062065" class="t" />
<line x1="2520.741454" y1="1903.883075" x2="2568.364500" y2="2036.114418" class="t" />
<line x1="2588.110454" y1="1852.459669" x2="2520.741454" y2="1903.883075" class="t" />
<line x1="1558.991795" y1="3139.145005" x2="1597.903111" y2="3050.439737" class="t" />
<line x1="1472.457432" y1="3095.618930" x2="1558.991795" y2="3139.145005" class="t" />
<line x1="1331.436565" y1="2745.789993" x2="1416.122907" y2="2742.450710" class="t" />
<line x1="1294.373264" y1="2881.360639" x2="1331.436565" y2="2745.789993" class="t" />
<line x1="1550.280125" y1="2918.208241" x2="1617.649148" y2="2866.784899" class="t" />
<line x1="2160.666224" y1="3470.824892" x2="2090.393394" y2="3404.158226" class="t" />
<line x1="1949.848531" y1="3404.158851" x2="1879.575680" y2="3337.492184" class="t" />
<line x1="2135.112471" y1="3551.633027" x2="2160.666224" y2="3470.824892" class="t" />
<line x1="2269.850473" y1="1994.240926" x2="2317.473519" y2="2126.472268" class="t" />
<line x1="2386.586400" y1="1728.125407" x2="2434.209043" y2="1860.356918" class="t" />
<line x1="2308.761789" y1="1905.535658" x2="2269.850473" y2="1994.240926" class="t" />
<line x1="2568.945091" y1="1757.510188" x2="2588.110454" y2="1852.459669" class="t" />
<line x1="2664.771674" y1="1743.368720" x2="2568.945091" y2="1757.510188" class="t" />
<line x1="1433.546116" y1="3184.324198" x2="1472.457432" y2="3095.618930" class="t" />
<line x1="1463.745823" y1="2874.682012" x2="1550.280125" y2="2918.208241" class="t" />
<line x1="1348.859647" y1="3187.663487" x2="1433.546116" y2="3184.324198" class="t" />
<line x1="1211.534810" y1="2931.565306" x2="1294.373264" y2="2881.360639" class="t" />
<line x1="1311.796352" y1="3323.234112" x2="1348.859647" y2="3187.663487" class="t" />
<line x1="2250.104416" y1="3632.441040" x2="2135.112471" y2="3551.633027" class="t" />
<line x1="1924.294722" y1="3484.966945" x2="1949.848531" y2="3404.158851" class="t" />
<line x1="1228.957903" y1="3373.438759" x2="1311.796352" y2="3323.234112" class="t" />
<line x1="2261.138736" y1="1773.304296" x2="2308.761789" y2="1905.535658" class="t" />
<line x1="2300.050045" y1="1684.599008" x2="2261.138736" y2="1773.304296" class="t" />
<line x1="2252.426991" y1="1552.367646" x2="2300.050045" y2="1684.599008" class="t" />
<line x1="2453.955504" y1="1676.702171" x2="2386.586400" y2="1728.125407" class="t" />
<line x1="2319.795890" y1="1500.944317" x2="2252.426991" y2="1552.367646" class="t" />
<line x1="2434.790271" y1="1581.752648" x2="2453.955504" y2="1676.702171" class="t" />
<line x1="2530.616893" y1="1567.611341" x2="2434.790271" y2="1581.752648" class="t" />
<line x1="2556.170702" y1="1486.803246" x2="2530.616893" y2="1567.611341" class="t" />
<line x1="2645.606312" y1="1648.419239" x2="2664.771674" y2="1743.368720" class="t" />
<line x1="2741.432894" y1="1634.277771" x2="2645.606312" y2="1648.419239" class="t" />
<line x1="1424.834376" y1="2963.387239" x2="1463.745823" y2="2874.682012" class="t" />
<line x1="1174.471509" y1="3067.135952" x2="1211.534810" y2="2931.565306" class="t" />
<line x1="2269.269779" y1="3727.390521" x2="2250.104416" y2="3632.441040" class="t" />
<line x1="2039.286559" y1="3565.775149" x2="1924.294722" y2="3484.966945" class="t" />
<line x1="2058.451774" y1="3660.724660" x2="2039.286559" y2="3565.775149" class="t" />
<line x1="2173.443594" y1="3741.532852" x2="2058.451774" y2="3660.724660" class="t" />
<line x1="1191.894602" y1="3509.009405" x2="1228.957903" y2="3373.438759" class="t" />
<line x1="1109.056148" y1="3559.214072" x2="1191.894602" y2="3509.009405" class="t" />
<line x1="1071.992847" y1="3694.784718" x2="1109.056148" y2="3559.214072" class="t" />
<line x1="987.306505" y1="3698.124001" x2="1071.992847" y2="3694.784718" class="t" />
<line x1="2766.986647" y1="1553.469637" x2="2741.432894" y2="1634.277771" class="t" />
<line x1="2907.532307" y1="1553.469637" x2="2766.986647" y2="1553.469637" class="t" />
<line x1="1340.147920" y1="2966.726329" x2="1424.834376" y2="2963.387239" class="t" />
<line x1="1091.633061" y1="3117.340599" x2="1174.471509" y2="3067.135952" class="t" />
<line x1="1303.084198" y1="3102.296860" x2="1340.147920" y2="2966.726329" class="t" />
<line x1="1220.245594" y1="3152.501250" x2="1303.084198" y2="3102.296860" class="t" />
<line x1="1183.181877" y1="3288.071760" x2="1220.245594" y2="3152.501250" class="t" />
<line x1="1054.569765" y1="3252.911225" x2="1091.633061" y2="3117.340599" class="t" />
<line x1="2384.261741" y1="3808.198546" x2="2269.269779" y2="3727.390521" class="t" />
<line x1="2403.427121" y1="3903.148040" x2="2384.261741" y2="3808.198546" class="t" />
<line x1="2518.419083" y1="3983.956065" x2="2403.427121" y2="3903.148040" class="t" />
<line x1="2192.608809" y1="3836.482362" x2="2173.443594" y2="3741.532852" class="t" />
<line x1="2492.865369" y1="4064.764078" x2="2518.419083" y2="3983.956065" class="t" />
<line x1="919.937606" y1="3749.547330" x2="987.306505" y2="3698.124001" class="t" />
<line x1="1100.343273" y1="3338.276150" x2="1183.181877" y2="3288.071760" class="t" />
<line x1="969.883296" y1="3256.250513" x2="1054.569765" y2="3252.911225" class="t" />
<line x1="2696.713817" y1="1486.802970" x2="2766.986647" y2="1553.469637" class="t" />
<line x1="2518.419083" y1="4145.572091" x2="2492.865369" y2="4064.764078" class="t" />
<line x1="2307.600646" y1="3917.290566" x2="2192.608809" y2="3836.482362" class="t" />
<line x1="804.945644" y1="3668.739305" x2="919.937606" y2="3749.547330" class="t" />
<line x1="930.971980" y1="3344.955781" x2="969.883296" y2="3256.250513" class="t" />
<line x1="1063.279551" y1="3473.846681" x2="1100.343273" y2="3338.276150" class="t" />
<line x1="2766.986647" y1="1420.136304" x2="2696.713817" y2="1486.802970" class="t" />
<line x1="2696.713817" y1="1353.469637" x2="2766.986647" y2="1420.136304" class="t" />
<line x1="2907.532307" y1="1420.136304" x2="2766.986647" y2="1420.136304" class="t" />
<line x1="2977.805137" y1="1486.802970" x2="2907.532307" y2="1420.136304" class="t" />
<line x1="2282.046837" y1="3998.098661" x2="2307.600646" y2="3917.290566" class="t" />
<line x1="709.119044" y1="3682.880761" x2="804.945644" y2="3668.739305" class="t" />
<line x1="594.127081" y1="3602.072735" x2="709.119044" y2="3682.880761" class="t" />
<line x1="498.300499" y1="3616.214203" x2="594.127081" y2="3602.072735" class="t" />
<line x1="383.308553" y1="3535.406190" x2="498.300499" y2="3616.214203" class="t" />
<line x1="844.437617" y1="3301.429706" x2="930.971980" y2="3344.955781" class="t" />
<line x1="805.526301" y1="3390.134974" x2="844.437617" y2="3301.429706" class="t" />
<line x1="978.593095" y1="3477.185771" x2="1063.279551" y2="3473.846681" class="t" />
<line x1="2556.168136" y1="1353.469637" x2="2696.713817" y2="1353.469637" class="t" />
<line x1="2766.986647" y1="1286.802970" x2="2696.713817" y2="1353.469637" class="t" />
<line x1="2907.532307" y1="1286.802970" x2="2766.986647" y2="1286.802970" class="t" />
<line x1="364.143191" y1="3440.456709" x2="383.308553" y2="3535.406190" class="t" />
<line x1="3118.350817" y1="1486.802970" x2="2977.805137" y2="1486.802970" class="t" />
<line x1="2977.805137" y1="1353.469637" x2="2907.532307" y2="1286.802970" class="t" />
<line x1="2933.086060" y1="1205.994836" x2="2907.532307" y2="1286.802970" class="t" />
<line x1="3028.912642" y1="1191.853368" x2="2933.086060" y2="1205.994836" class="t" />
<line x1="2818.094114" y1="1125.186823" x2="2933.086060" y2="1205.994836" class="t" />
<line x1="2352.319688" y1="4064.765328" x2="2282.046837" y2="3998.098661" class="t" />
<line x1="2282.046837" y1="4131.431994" x2="2352.319688" y2="4064.765328" class="t" />
<line x1="2307.600646" y1="4212.240089" x2="2282.046837" y2="4131.431994" class="t" />
<line x1="939.681648" y1="3565.890998" x2="978.593095" y2="3477.185771" class="t" />
<line x1="853.147346" y1="3522.364770" x2="939.681648" y2="3565.890998" class="t" />
<line x1="785.778323" y1="3573.788111" x2="853.147346" y2="3522.364770" class="t" />
<line x1="718.991939" y1="3346.608899" x2="805.526301" y2="3390.134974" class="t" />
<line x1="651.622939" y1="3398.032306" x2="718.991939" y2="3346.608899" class="t" />
<line x1="2485.895285" y1="1420.136304" x2="2556.168136" y2="1353.469637" class="t" />
<line x1="249.151228" y1="3359.648684" x2="364.143191" y2="3440.456709" class="t" />
<line x1="3118.350817" y1="1353.469637" x2="2977.805137" y2="1353.469637" class="t" />
<line x1="3188.623668" y1="1420.136304" x2="3118.350817" y2="1486.802970" class="t" />
<line x1="2403.427268" y1="4226.381396" x2="2307.600646" y2="4212.240089" class="t" />
<line x1="2384.262036" y1="4321.330919" x2="2403.427268" y2="4226.381396" class="t" />
<line x1="3009.747280" y1="1096.903887" x2="3028.912642" y2="1191.853368" class="t" />
<line x1="3105.573862" y1="1082.762419" x2="3009.747280" y2="1096.903887" class="t" />
<line x1="2894.755335" y1="1016.095874" x2="3009.747280" y2="1096.903887" class="t" />
<line x1="670.786361" y1="3492.980086" x2="785.778323" y2="3573.788111" class="t" />
<line x1="536.630994" y1="3317.224292" x2="651.622939" y2="3398.032306" class="t" />
<line x1="2798.928752" y1="1030.237342" x2="2894.755335" y2="1016.095874" class="t" />
<line x1="2345.349605" y1="1420.136304" x2="2485.895285" y2="1420.136304" class="t" />
<line x1="3329.169349" y1="1420.136304" x2="3188.623668" y2="1420.136304" class="t" />
<line x1="3086.408500" y1="987.812938" x2="3105.573862" y2="1082.762419" class="t" />
<line x1="3153.777500" y1="936.389532" x2="3086.408500" y2="987.812938" class="t" />
<line x1="2971.416555" y1="907.004925" x2="3086.408500" y2="987.812938" class="t" />
<line x1="3240.311862" y1="979.915607" x2="3153.777500" y2="936.389532" class="t" />
<line x1="574.959778" y1="3507.121553" x2="670.786361" y2="3492.980086" class="t" />
<line x1="459.967833" y1="3426.313540" x2="574.959778" y2="3507.121553" class="t" />
<line x1="2683.936789" y1="949.429316" x2="2798.928752" y2="1030.237342" class="t" />
<line x1="2875.589972" y1="921.146393" x2="2971.416555" y2="907.004925" class="t" />
<line x1="440.802470" y1="3331.364059" x2="459.967833" y2="3426.313540" class="t" />
<line x1="3279.223178" y1="891.210339" x2="3240.311862" y2="979.915607" class="t" />
<line x1="3365.757541" y1="934.736413" x2="3279.223178" y2="891.210339" class="t" />
<line x1="2760.598010" y1="840.338367" x2="2875.589972" y2="921.146393" class="t" />
<line x1="325.810508" y1="3250.556034" x2="440.802470" y2="3331.364059" class="t" />
<line x1="3404.668857" y1="846.031146" x2="3365.757541" y2="934.736413" class="t" />
<line x1="3489.355326" y1="842.691857" x2="3404.668857" y2="846.031146" class="t" />
<line x1="3526.418622" y1="707.121231" x2="3489.355326" y2="842.691857" class="t" />
<line x1="3609.257070" y1="656.916585" x2="3526.418622" y2="707.121231" class="t" />
<line x1="2664.771410" y1="854.479823" x2="2760.598010" y2="840.338367" class="t" />
<line x1="229.983908" y1="3264.697490" x2="325.810508" y2="3250.556034" class="t" />
<line x1="3646.320371" y1="521.345939" x2="3609.257070" y2="656.916585" class="t" />
<line x1="3729.158825" y1="471.141272" x2="3646.320371" y2="521.345939" class="t" />
<line x1="3766.222126" y1="335.570626" x2="3729.158825" y2="471.141272" class="t" />
<line x1="3850.908468" y1="332.231342" x2="3766.222126" y2="335.570626" class="t" />
<line x1="3918.277367" y1="280.808013" x2="3850.908468" y2="332.231342" class="t" />
<line x1="3943.831082" y1="200.000000" x2="3918.277367" y2="280.808013" class="t" />
<line x1="4033.269330" y1="361.616039" x2="3918.277367" y2="280.808013" class="t" />
<line x1="2549.779447" y1="773.671798" x2="2664.771410" y2="854.479823" class="t" />
<line x1="114.991945" y1="3183.889464" x2="229.983908" y2="3264.697490" class="t" />
<line x1="4084.376763" y1="200.000000" x2="3943.831082" y2="200.000000" class="t" />
<line x1="4129.095930" y1="347.474583" x2="4033.269330" y2="361.616039" class="t" />
<line x1="4154.649614" y1="266.666448" x2="4129.095930" y2="347.474583" class="t" />
<line x1="4244.087892" y1="428.282608" x2="4129.095930" y2="347.474583" class="t" />
<line x1="4339.914475" y1="414.141140" x2="4244.087892" y2="428.282608" class="t" />
<line x1="4365.468228" y1="333.333006" x2="4339.914475" y2="414.141140" class="t" />
<line x1="4295.195294" y1="266.666230" x2="4154.649614" y2="266.666448" class="t" />
<line x1="4154.649614" y1="133.333333" x2="4084.376763" y2="200.000000" class="t" />
<line x1="4295.195294" y1="133.333333" x2="4154.649614" y2="133.333333" class="t" />
<line x1="4365.468124" y1="66.666667" x2="4295.195294" y2="133.333333" class="t" />
<line x1="4365.468021" y1="199.999455" x2="4295.195294" y2="266.666230" class="t" />
</svg>
