<?xml version="1.0"?>
<svg width="1125" height="814" version="1.1" xmlns="http://www.w3.org/2000/svg" >
<defs>
<style type="text/css"><![CDATA[
.m {stroke:rgb(255,0,0);stroke-width:1.406250;}
.v {stroke:rgb(0,0,255);stroke-width:1.406250;}
.b {stroke:rgb(0,0,0);stroke-width:2.812500;fill:white}
.n {stroke:rgb(128,128,128);stroke-width:1.406250}
.t {stroke:rgb(0,128,0);stroke-width:1.406250;}
.c {stroke:rgb(128,128,128);stroke-width:1.406250;stroke-dasharray:11.250000, 11.250000;}
]]></style>
</defs>
<path fill="none" style="stroke:black;stroke-width:2.812500;" d=" M 833.339 328.635 L 881.121 288.233 M 881.121 288.233 L 855.64 306.554 M 809.544 349.098 L 888.996 300.038 M 888.996 300.038 L 833.339 328.635 M 784.372 367.842 L 898.006 319.201 M 898.006 319.201 L 809.544 349.098 M 757.948 384.774 L 906.044 346.056 M 906.044 346.056 L 784.372 367.842 M 730.402 399.812 L 910.96 380.422 M 910.96 380.422 L 757.948 384.774 M 701.869 412.88 L 910.686 421.602 M 910.686 421.602 L 730.402 399.812 M 672.489 423.915 L 903.351 468.43 M 903.351 468.43 L 701.869 412.88 M 642.408 432.863 L 887.385 519.301 M 887.385 519.301 L 672.489 423.915 M 611.773 439.679 L 861.609 572.276 M 861.609 572.276 L 642.408 432.863 M 580.736 444.329 L 825.306 625.161 M 825.306 625.161 L 611.773 439.679 M 549.449 446.792 L 778.275 675.615 M 778.275 675.615 L 580.736 444.329 M 518.067 447.054 L 720.831 721.291 M 720.831 721.291 L 549.449 446.792 M 486.743 445.114 L 653.829 759.924 M 653.829 759.924 L 518.067 447.054 M 455.633 440.983 L 578.598 789.477 M 578.598 789.477 L 486.743 445.114 M 424.888 434.679 L 496.911 808.222 M 496.911 808.222 L 455.633 440.983 M 394.662 426.235 L 410.897 814.845 M 410.897 814.845 L 424.888 434.679 M 365.102 415.692 L 322.915 808.509 M 322.915 808.509 L 394.662 426.235 M 336.355 403.102 L 235.496 788.904 M 235.496 788.904 L 365.102 415.692 M 308.561 388.527 L 151.158 756.256 M 151.158 756.256 L 336.355 403.102 M 281.858 372.038 L 72.3501 711.335 M 72.3501 711.335 L 308.561 388.527 M 1.28608 655.402 L 281.858 372.038 M 256.377 353.718 L 228.344 339.608 M 228.344 339.608 L 198.448 330.058 M 198.448 330.058 L 167.427 325.302 M 167.427 325.302 L 136.044 325.458 M 136.044 325.458 L 105.071 330.52 M 105.071 330.52 L 75.2718 340.366 M 75.2718 340.366 L 47.3799 354.752 M 47.3799 354.752 L 22.0815 373.325 M 22.0815 373.325 L 0 395.626 M 0 395.626 L 1.28608 655.402 M 1125.08 208.055 L 1095.45 197.713 M 876.338 282.963 L 1125.08 208.055 M 1095.45 197.713 L 1064.57 192.133 M 1064.57 192.133 L 1033.19 191.454 M 1033.19 191.454 L 1002.1 195.691 M 1002.1 195.691 L 972.045 204.741 M 972.045 204.741 L 943.78 218.38 M 943.78 218.38 L 917.997 236.272 M 917.997 236.272 L 895.33 257.978 M 855.64 306.554 L 876.338 282.963 M 895.33 257.978 L 912.523 231.723 M 912.523 231.723 L 927.833 204.327 M 927.833 204.327 L 941.183 175.925 M 941.183 175.925 L 952.509 146.656 M 952.509 146.656 L 961.754 116.665 M 961.754 116.665 L 968.873 86.0993 M 968.873 86.0993 L 973.831 55.1096 M 973.831 55.1096 L 976.603 23.8487 M 976.603 23.8487 L 530.026 0 M 100.306 123.859 L 110.051 153.691 M 530.026 0 L 100.306 123.859 M 110.051 153.691 L 121.864 182.767 M 121.864 182.767 L 135.686 210.942 M 135.686 210.942 L 151.451 238.079 M 151.451 238.079 L 169.081 264.043 M 169.081 264.043 L 188.488 288.707 M 188.488 288.707 L 209.576 311.949 M 209.576 311.949 L 232.243 333.655 M 232.243 333.655 L 256.377 353.718" />
<path fill="none" class="c" d=" M 549.449 446.792 L 580.736 444.329 M 530.026 0 L 549.449 446.792 M 580.736 444.329 L 530.026 0 M 611.773 439.679 L 530.026 0 M 642.408 432.863 L 530.026 0 M 672.489 423.915 L 530.026 0 M 701.869 412.88 L 530.026 0 M 730.402 399.812 L 530.026 0 M 757.948 384.774 L 530.026 0 M 784.372 367.842 L 530.026 0 M 809.544 349.098 L 530.026 0 M 833.339 328.635 L 530.026 0 M 833.339 328.635 L 855.64 306.554 M 518.067 447.054 L 549.449 446.792 M 530.026 0 L 518.067 447.054 M 580.736 444.329 L 611.773 439.679 M 611.773 439.679 L 642.408 432.863 M 642.408 432.863 L 672.489 423.915 M 672.489 423.915 L 701.869 412.88 M 701.869 412.88 L 730.402 399.812 M 730.402 399.812 L 757.948 384.774 M 757.948 384.774 L 784.372 367.842 M 784.372 367.842 L 809.544 349.098 M 809.544 349.098 L 833.339 328.635 M 855.64 306.554 L 530.026 0 M 876.338 282.963 L 530.026 0 M 876.338 282.963 L 895.33 257.978 M 895.33 257.978 L 530.026 0 M 912.523 231.723 L 530.026 0 M 927.833 204.327 L 530.026 0 M 941.183 175.925 L 530.026 0 M 952.509 146.656 L 530.026 0 M 961.754 116.665 L 530.026 0 M 968.873 86.0993 L 530.026 0 M 973.831 55.1096 L 530.026 0 M 486.743 445.114 L 518.067 447.054 M 530.026 0 L 486.743 445.114 M 455.633 440.983 L 486.743 445.114 M 530.026 0 L 455.633 440.983 M 424.888 434.679 L 455.633 440.983 M 530.026 0 L 424.888 434.679 M 394.662 426.235 L 424.888 434.679 M 530.026 0 L 394.662 426.235 M 365.102 415.692 L 394.662 426.235 M 530.026 0 L 365.102 415.692 M 336.355 403.102 L 365.102 415.692 M 530.026 0 L 336.355 403.102 M 308.561 388.527 L 336.355 403.102 M 530.026 0 L 308.561 388.527 M 281.858 372.038 L 308.561 388.527 M 530.026 0 L 281.858 372.038 M 256.377 353.718 L 281.858 372.038 M 530.026 0 L 256.377 353.718 M 530.026 0 L 232.243 333.655 M 530.026 0 L 209.576 311.949 M 530.026 0 L 188.488 288.707 M 530.026 0 L 169.081 264.043 M 530.026 0 L 151.451 238.079 M 530.026 0 L 135.686 210.942 M 530.026 0 L 121.864 182.767 M 530.026 0 L 110.051 153.691" />
<line x1="636.153447" y1="522.245276" x2="553.403691" y2="297.040262" class="t" />
<line x1="532.513872" y1="297.948411" x2="553.403691" y2="297.040262" class="t" />
<line x1="574.178365" y1="294.669304" x2="553.403691" y2="297.040262" class="t" />
<line x1="594.735600" y1="290.847209" x2="574.178365" y2="294.669304" class="t" />
<line x1="614.974167" y1="285.592749" x2="594.735600" y2="290.847209" class="t" />
<line x1="634.794441" y1="278.931847" x2="614.974167" y2="285.592749" class="t" />
<line x1="654.098745" y1="270.897298" x2="634.794441" y2="278.931847" class="t" />
<line x1="672.792000" y1="261.528695" x2="654.098745" y2="270.897298" class="t" />
<line x1="690.782195" y1="250.872150" x2="672.792000" y2="261.528695" class="t" />
<line x1="707.980728" y1="238.980077" x2="690.782195" y2="250.872150" class="t" />
<line x1="724.302856" y1="225.911156" x2="707.980728" y2="238.980077" class="t" />
<line x1="739.668224" y1="211.729769" x2="724.302856" y2="225.911156" class="t" />
<line x1="856.700047" y1="307.807523" x2="739.668224" y2="211.729769" class="t" />
<line x1="596.115596" y1="538.378623" x2="532.513872" y2="297.948411" class="t" />
<line x1="511.611816" y1="297.389280" x2="532.513872" y2="297.948411" class="t" />
<line x1="672.605174" y1="503.056396" x2="574.178365" y2="294.669304" class="t" />
<line x1="705.263429" y1="481.605919" x2="594.735600" y2="290.847209" class="t" />
<line x1="734.093899" y1="458.693022" x2="614.974167" y2="285.592749" class="t" />
<line x1="759.236105" y1="435.075022" x2="634.794441" y2="278.931847" class="t" />
<line x1="780.985503" y1="411.431167" x2="654.098745" y2="270.897298" class="t" />
<line x1="799.770065" y1="388.336038" x2="672.792000" y2="261.528695" class="t" />
<line x1="816.121697" y1="366.224236" x2="690.782195" y2="250.872150" class="t" />
<line x1="830.640949" y1="345.380345" x2="707.980728" y2="238.980077" class="t" />
<line x1="843.959527" y1="325.923930" x2="724.302856" y2="225.911156" class="t" />
<line x1="754.001209" y1="196.505629" x2="739.668224" y2="211.729769" class="t" />
<line x1="767.231224" y1="180.313707" x2="754.001209" y2="196.505629" class="t" />
<line x1="896.554923" y1="259.071202" x2="767.231224" y2="180.313707" class="t" />
<line x1="779.293028" y1="163.233879" x2="767.231224" y2="180.313707" class="t" />
<line x1="790.127273" y1="145.350145" x2="779.293028" y2="163.233879" class="t" />
<line x1="799.680626" y1="126.750593" x2="790.127273" y2="145.350145" class="t" />
<line x1="807.906016" y1="107.526866" x2="799.680626" y2="126.750593" class="t" />
<line x1="814.762954" y1="87.773540" x2="807.906016" y2="107.526866" class="t" />
<line x1="820.217639" y1="67.588017" x2="814.762954" y2="87.773540" class="t" />
<line x1="824.243237" y1="47.069641" x2="820.217639" y2="67.588017" class="t" />
<line x1="826.819896" y1="26.319458" x2="824.243237" y2="47.069641" class="t" />
<line x1="552.879567" y1="550.697283" x2="511.611816" y2="297.389280" class="t" />
<line x1="490.800448" y1="295.365616" x2="511.611816" y2="297.389280" class="t" />
<line x1="912.705014" y1="245.871674" x2="896.554923" y2="259.071202" class="t" />
<line x1="506.991311" y1="558.524516" x2="490.800448" y2="295.365616" class="t" />
<line x1="470.182237" y1="291.887334" x2="490.800448" y2="295.365616" class="t" />
<line x1="930.721145" y1="235.361050" x2="912.705014" y2="245.871674" class="t" />
<line x1="459.143918" y1="561.294695" x2="470.182237" y2="291.887334" class="t" />
<line x1="449.858748" y1="286.971613" x2="470.182237" y2="291.887334" class="t" />
<line x1="950.159655" y1="227.798159" x2="930.721145" y2="235.361050" class="t" />
<line x1="410.149187" y1="558.586486" x2="449.858748" y2="286.971613" class="t" />
<line x1="429.930015" y1="280.642653" x2="449.858748" y2="286.971613" class="t" />
<line x1="970.542007" y1="223.369239" x2="950.159655" y2="227.798159" class="t" />
<line x1="360.893242" y1="550.145662" x2="429.930015" y2="280.642653" class="t" />
<line x1="410.494252" y1="272.931645" x2="429.930015" y2="280.642653" class="t" />
<line x1="991.366198" y1="222.183344" x2="970.542007" y2="223.369239" class="t" />
<line x1="312.317584" y1="535.899591" x2="410.494252" y2="272.931645" class="t" />
<line x1="391.647126" y1="263.876540" x2="410.494252" y2="272.931645" class="t" />
<line x1="1012.119529" y1="224.269651" x2="991.366198" y2="222.183344" class="t" />
<line x1="265.357850" y1="515.961851" x2="391.647126" y2="263.876540" class="t" />
<line x1="373.481425" y1="253.521882" x2="391.647126" y2="263.876540" class="t" />
<line x1="1032.290973" y1="229.576840" x2="1012.119529" y2="224.269651" class="t" />
<line x1="220.922879" y1="490.633401" x2="373.481425" y2="253.521882" class="t" />
<line x1="356.086715" y1="241.918738" x2="373.481425" y2="253.521882" class="t" />
<line x1="179.840158" y1="460.386039" x2="356.086715" y2="241.918738" class="t" />
<line x1="339.548588" y1="229.124237" x2="356.086715" y2="241.918738" class="t" />
<line x1="162.002115" y1="449.575968" x2="179.840158" y2="460.386039" class="t" />
<line x1="142.692642" y1="441.689447" x2="162.002115" y2="449.575968" class="t" />
<line x1="122.387160" y1="436.920730" x2="142.692642" y2="441.689447" class="t" />
<line x1="101.585624" y1="435.387190" x2="122.387160" y2="436.920730" class="t" />
<line x1="80.800357" y1="437.126622" x2="101.585624" y2="435.387190" class="t" />
<line x1="60.543063" y1="442.096154" x2="80.800357" y2="437.126622" class="t" />
<line x1="41.312593" y1="450.173406" x2="60.543063" y2="442.096154" class="t" />
<line x1="23.582491" y1="461.159550" x2="41.312593" y2="450.173406" class="t" />
<line x1="7.789204" y1="474.784087" x2="23.582491" y2="461.159550" class="t" />
<line x1="323.948487" y1="215.201386" x2="339.548588" y2="229.124237" class="t" />
<line x1="309.363261" y1="200.218726" x2="323.948487" y2="215.201386" class="t" />
<line x1="295.864683" y1="184.250011" x2="309.363261" y2="200.218726" class="t" />
<line x1="283.519318" y1="167.373972" x2="295.864683" y2="184.250011" class="t" />
<line x1="272.387891" y1="149.673655" x2="283.519318" y2="167.373972" class="t" />
<line x1="262.525248" y1="131.236273" x2="272.387891" y2="149.673655" class="t" />
<line x1="253.979985" y1="112.152611" x2="262.525248" y2="131.236273" class="t" />
<line x1="246.794115" y1="92.516549" x2="253.979985" y2="112.152611" class="t" />
</svg>
