<?xml version="1.0"?>
<svg width="787" height="1233" version="1.1" xmlns="http://www.w3.org/2000/svg" >
<defs>
<style type="text/css"><![CDATA[
.m {stroke:rgb(255,0,0);stroke-width:1.541250;}
.v {stroke:rgb(0,0,255);stroke-width:1.541250;}
.b {stroke:rgb(0,0,0);stroke-width:3.082500;fill:white}
.n {stroke:rgb(128,128,128);stroke-width:1.541250}
.t {stroke:rgb(0,128,0);stroke-width:1.541250;}
.c {stroke:rgb(128,128,128);stroke-width:1.541250;stroke-dasharray:7.870000, 7.870000;}
]]></style>
</defs>
<path fill="none" style="stroke:black;stroke-width:3.082500;" d=" M 486.297 914.363 L 493.623 883.846 M 493.623 883.846 L 496.085 852.56 M 496.085 852.56 L 493.623 821.273 M 493.623 821.273 L 486.297 790.756 M 486.297 790.756 L 474.287 761.761 M 474.287 761.761 L 457.889 735.003 M 437.507 711.138 L 413.642 690.756 M 327.372 655.022 L 296.085 652.56 M 296.085 652.56 L 264.798 655.022 M 264.798 655.022 L 234.282 662.348 M 234.282 662.348 L 205.287 674.358 M 205.287 674.358 L 486.297 914.363 M 375.92 1129.14 L 392.852 1155.56 M 610.232 843.366 L 375.92 1129.14 M 392.852 1155.56 L 413.709 1179.01 M 413.709 1179.01 L 437.978 1198.91 M 437.978 1198.91 L 465.061 1214.77 M 465.061 1214.77 L 494.291 1226.19 M 494.291 1226.19 L 524.949 1232.91 M 524.949 1232.91 L 556.279 1234.74 M 556.279 1234.74 L 587.51 1231.65 M 587.51 1231.65 L 617.873 1223.71 M 617.873 1223.71 L 646.621 1211.12 M 646.621 1211.12 L 673.045 1194.19 M 673.045 1194.19 L 696.495 1173.33 M 696.495 1173.33 L 716.394 1149.06 M 716.394 1149.06 L 732.251 1121.98 M 732.251 1121.98 L 743.676 1092.75 M 743.676 1092.75 L 750.388 1062.09 M 750.388 1062.09 L 752.221 1030.76 M 752.221 1030.76 L 749.131 999.532 M 749.131 999.532 L 741.193 969.169 M 741.193 969.169 L 728.603 940.421 M 728.603 940.421 L 711.671 913.997 M 711.671 913.997 L 690.813 890.547 M 690.813 890.547 L 666.544 870.648 M 666.544 870.648 L 639.462 854.791 M 581.875 829.919 L 610.232 843.366 M 639.462 854.791 L 669.421 864.138 M 669.421 864.138 L 699.962 871.361 M 699.962 871.361 L 787.553 432.809 M 59.9462 0 L 45.1828 27.6942 M 446.962 224.095 L 59.9462 0 M 45.1828 27.6942 L 32.398 56.3558 M 32.398 56.3558 L 21.6547 85.8434 M 21.6547 85.8434 L 13.006 116.012 M 13.006 116.012 L 6.49435 146.712 M 6.49435 146.712 L 2.15193 177.794 M 2.15193 177.794 L 0 209.104 M 0 209.104 L 0.0491986 240.488 M 0.0491986 240.488 L 2.29929 271.79 M 2.29929 271.79 L 6.73927 302.859 M 6.73927 302.859 L 13.3471 333.539 M 13.3471 333.539 L 22.0904 363.68 M 22.0904 363.68 L 32.9261 393.134 M 32.9261 393.134 L 45.8007 421.755 M 45.8007 421.755 L 60.651 449.403 M 60.651 449.403 L 77.4036 475.941 M 77.4036 475.941 L 95.9762 501.239 M 95.9762 501.239 L 116.277 525.172 M 116.277 525.172 L 138.207 547.623 M 138.207 547.623 L 161.657 568.48 M 161.657 568.48 L 186.512 587.641 M 186.512 587.641 L 212.65 605.012 M 212.65 605.012 L 239.942 620.507 M 239.942 620.507 L 268.253 634.05 M 268.253 634.05 L 297.444 645.574 M 297.444 645.574 L 327.372 655.022 M 357.889 662.348 L 446.962 224.095 M 386.883 674.358 L 543.423 255.437 M 543.423 255.437 L 357.889 662.348 M 413.642 690.756 L 633.788 301.48 M 633.788 301.48 L 386.883 674.358 M 418.848 685.903 L 437.507 711.138 M 787.553 432.809 L 418.848 685.903 M 457.889 735.003 L 479.894 757.379 M 479.894 757.379 L 503.415 778.157 M 503.415 778.157 L 528.334 797.234 M 528.334 797.234 L 554.531 814.516 M 554.531 814.516 L 581.875 829.919" />
<path fill="none" class="c" d=" M 457.889 735.003 L 437.507 711.138 M 413.642 690.756 L 386.883 674.358 M 386.883 674.358 L 357.889 662.348 M 357.889 662.348 L 327.372 655.022 M 446.962 224.095 L 327.372 655.022 M 787.553 432.809 L 437.507 711.138 M 457.889 735.003 L 787.553 432.809 M 479.894 757.379 L 787.553 432.809 M 503.415 778.157 L 787.553 432.809 M 528.334 797.234 L 787.553 432.809 M 554.531 814.516 L 787.553 432.809 M 581.875 829.919 L 787.553 432.809 M 610.232 843.366 L 787.553 432.809 M 610.232 843.366 L 639.462 854.791 M 639.462 854.791 L 787.553 432.809 M 669.421 864.138 L 787.553 432.809 M 446.962 224.095 L 297.444 645.574 M 446.962 224.095 L 268.253 634.05 M 446.962 224.095 L 239.942 620.507 M 446.962 224.095 L 212.65 605.012 M 446.962 224.095 L 186.512 587.641 M 446.962 224.095 L 161.657 568.48 M 446.962 224.095 L 138.207 547.623 M 446.962 224.095 L 116.277 525.172 M 446.962 224.095 L 95.9762 501.239 M 446.962 224.095 L 77.4036 475.941 M 446.962 224.095 L 60.651 449.403 M 446.962 224.095 L 45.8007 421.755 M 446.962 224.095 L 32.9261 393.134 M 446.962 224.095 L 22.0904 363.68 M 446.962 224.095 L 13.3471 333.539 M 446.962 224.095 L 6.73927 302.859 M 446.962 224.095 L 2.29929 271.79 M 446.962 224.095 L 0.0491986 240.488 M 446.962 224.095 L 0 209.104 M 446.962 224.095 L 2.15193 177.794 M 446.962 224.095 L 6.49435 146.712 M 446.962 224.095 L 13.006 116.012 M 446.962 224.095 L 21.6547 85.8434 M 446.962 224.095 L 32.398 56.3558 M 446.962 224.095 L 45.1828 27.6942" />
<line x1="472.823894" y1="803.709052" x2="460.563894" y2="786.834652" class="t" />
<line x1="445.815094" y1="772.085852" x2="460.563894" y2="786.834652" class="t" />
<line x1="560.982804" y1="626.316551" x2="460.563894" y2="786.834652" class="t" />
<line x1="428.940628" y1="759.825852" x2="445.815094" y2="772.085852" class="t" />
<line x1="410.356094" y1="750.356519" x2="428.940628" y2="759.825852" class="t" />
<line x1="478.104529" y1="555.531638" x2="428.940628" y2="759.825852" class="t" />
<line x1="390.519028" y1="743.911119" x2="410.356094" y2="750.356519" class="t" />
<line x1="429.398095" y1="530.714336" x2="410.356094" y2="750.356519" class="t" />
<line x1="369.917894" y1="740.648252" x2="390.519028" y2="743.911119" class="t" />
<line x1="377.407611" y1="513.821771" x2="390.519028" y2="743.911119" class="t" />
<line x1="349.059961" y1="740.648252" x2="369.917894" y2="740.648252" class="t" />
<line x1="328.458828" y1="743.911119" x2="349.059961" y2="740.648252" class="t" />
<line x1="308.621761" y1="750.356519" x2="328.458828" y2="743.911119" class="t" />
<line x1="357.259560" y1="508.230298" x2="377.407611" y2="513.821771" class="t" />
<line x1="547.969448" y1="609.950040" x2="560.982804" y2="626.316551" class="t" />
<line x1="575.111911" y1="641.730079" x2="560.982804" y2="626.316551" class="t" />
<line x1="590.287228" y1="656.114754" x2="575.111911" y2="641.730079" class="t" />
<line x1="606.434079" y1="669.399713" x2="590.287228" y2="656.114754" class="t" />
<line x1="623.472825" y1="681.519518" x2="606.434079" y2="669.399713" class="t" />
<line x1="641.319542" y1="692.414516" x2="623.472825" y2="681.519518" class="t" />
<line x1="659.886473" y1="702.031062" x2="641.319542" y2="692.414516" class="t" />
<line x1="482.293228" y1="822.293585" x2="472.823894" y2="803.709052" class="t" />
<line x1="679.082185" y1="710.321795" x2="659.886473" y2="702.031062" class="t" />
<line x1="638.745921" y1="856.268183" x2="679.082185" y2="710.321795" class="t" />
<line x1="698.811991" y1="717.245840" x2="679.082185" y2="710.321795" class="t" />
<line x1="718.978851" y1="722.769117" x2="698.811991" y2="717.245840" class="t" />
<line x1="337.553245" y1="501.239562" x2="357.259560" y2="508.230298" class="t" />
<line x1="488.738628" y1="842.130719" x2="482.293228" y2="822.293585" class="t" />
<line x1="655.863175" y1="868.186764" x2="638.745921" y2="856.268183" class="t" />
<line x1="318.385741" y1="492.884002" x2="337.553245" y2="501.239562" class="t" />
<line x1="492.001494" y1="862.731852" x2="488.738628" y2="842.130719" class="t" />
<line x1="670.905249" y1="882.636339" x2="655.863175" y2="868.186764" class="t" />
<line x1="299.851436" y1="483.204758" x2="318.385741" y2="492.884002" class="t" />
<line x1="492.001561" y1="883.589719" x2="492.001494" y2="862.731852" class="t" />
<line x1="683.501721" y1="899.261076" x2="670.905249" y2="882.636339" class="t" />
<line x1="282.041604" y1="472.249441" x2="299.851436" y2="483.204758" class="t" />
<line x1="693.342440" y1="917.651722" x2="683.501721" y2="899.261076" class="t" />
<line x1="265.043960" y1="460.072060" x2="282.041604" y2="472.249441" class="t" />
<line x1="700.185061" y1="937.355321" x2="693.342440" y2="917.651722" class="t" />
<line x1="248.942166" y1="446.732555" x2="265.043960" y2="460.072060" class="t" />
<line x1="703.861137" y1="957.886758" x2="700.185061" y2="937.355321" class="t" />
<line x1="233.815577" y1="432.296669" x2="248.942166" y2="446.732555" class="t" />
<line x1="704.280097" y1="978.740483" x2="703.861137" y2="957.886758" class="t" />
<line x1="219.738649" y1="416.835453" x2="233.815577" y2="432.296669" class="t" />
<line x1="701.431623" y1="999.403000" x2="704.280097" y2="978.740483" class="t" />
<line x1="206.780700" y1="400.424994" x2="219.738649" y2="416.835453" class="t" />
<line x1="695.385912" y1="1019.365597" x2="701.431623" y2="999.403000" class="t" />
<line x1="195.005614" y1="383.146214" x2="206.780700" y2="400.424994" class="t" />
<line x1="686.291851" y1="1038.136584" x2="695.385912" y2="1019.365597" class="t" />
<line x1="184.471318" y1="365.084168" x2="195.005614" y2="383.146214" class="t" />
<line x1="674.373270" y1="1055.253838" x2="686.291851" y2="1038.136584" class="t" />
<line x1="175.229689" y1="346.327803" x2="184.471318" y2="365.084168" class="t" />
<line x1="659.923695" y1="1070.295912" x2="674.373270" y2="1055.253838" class="t" />
<line x1="167.326270" y1="326.969474" x2="175.229689" y2="346.327803" class="t" />
<line x1="643.298958" y1="1082.892384" x2="659.923695" y2="1070.295912" class="t" />
<line x1="160.799943" y1="307.104466" x2="167.326270" y2="326.969474" class="t" />
<line x1="624.908312" y1="1092.733103" x2="643.298958" y2="1082.892384" class="t" />
<line x1="155.682899" y1="286.830725" x2="160.799943" y2="307.104466" class="t" />
<line x1="605.204713" y1="1099.575724" x2="624.908312" y2="1092.733103" class="t" />
<line x1="152.000292" y1="266.248007" x2="155.682899" y2="286.830725" class="t" />
<line x1="584.673275" y1="1103.251734" x2="605.204713" y2="1099.575724" class="t" />
<line x1="149.770268" y1="245.457726" x2="152.000292" y2="266.248007" class="t" />
<line x1="563.819550" y1="1103.670693" x2="584.673275" y2="1103.251734" class="t" />
<line x1="149.003837" y1="224.562266" x2="149.770268" y2="245.457726" class="t" />
<line x1="543.157034" y1="1100.822286" x2="563.819550" y2="1103.670693" class="t" />
<line x1="149.704746" y1="203.664410" x2="149.003837" y2="224.562266" class="t" />
<line x1="523.194437" y1="1094.776575" x2="543.157034" y2="1100.822286" class="t" />
<line x1="151.869529" y1="182.867227" x2="149.704746" y2="203.664410" class="t" />
<line x1="504.423449" y1="1085.682448" x2="523.194437" y2="1094.776575" class="t" />
<line x1="155.487561" y1="162.273074" x2="151.869529" y2="182.867227" class="t" />
<line x1="487.306194" y1="1073.763866" x2="504.423449" y2="1085.682448" class="t" />
<line x1="160.541024" y1="141.983380" x2="155.487561" y2="162.273074" class="t" />
<line x1="472.264121" y1="1059.314291" x2="487.306194" y2="1073.763866" class="t" />
<line x1="167.005005" y1="122.098062" x2="160.541024" y2="141.983380" class="t" />
<line x1="459.667649" y1="1042.689554" x2="472.264121" y2="1059.314291" class="t" />
<line x1="174.847702" y1="102.714987" x2="167.005005" y2="122.098062" class="t" />
<line x1="184.030455" y1="83.929733" x2="174.847702" y2="102.714987" class="t" />
</svg>
