<?xml version="1.0"?>
<svg width="821" height="935" version="1.1" xmlns="http://www.w3.org/2000/svg" >
<defs>
<style type="text/css"><![CDATA[
.m {stroke:rgb(255,0,0);stroke-width:1.168750;}
.v {stroke:rgb(0,0,255);stroke-width:1.168750;}
.b {stroke:rgb(0,0,0);stroke-width:2.337500;fill:white}
.n {stroke:rgb(128,128,128);stroke-width:1.168750}
.t {stroke:rgb(0,128,0);stroke-width:1.168750;}
.c {stroke:rgb(128,128,128);stroke-width:1.168750;stroke-dasharray:8.210000, 8.210000;}
]]></style>
</defs>
<path fill="none" style="stroke:black;stroke-width:2.337500;" d=" M 705.234 409.161 L 749.33 364.765 M 749.33 364.765 L 725.535 385.228 M 683.304 431.611 L 758.199 375.842 M 758.199 375.842 L 705.234 409.161 M 659.854 452.469 L 768.839 394.15 M 768.839 394.15 L 683.304 431.611 M 634.999 471.63 L 779.177 420.207 M 779.177 420.207 L 659.854 452.469 M 608.861 489.001 L 787.056 454.017 M 787.056 454.017 L 634.999 471.63 M 581.57 504.496 L 790.356 495.065 M 790.356 495.065 L 608.861 489.001 M 553.259 518.039 L 787.112 542.352 M 787.112 542.352 L 581.57 504.496 M 524.067 529.563 L 775.621 594.417 M 775.621 594.417 L 553.259 518.039 M 494.14 539.012 L 754.539 649.429 M 754.539 649.429 L 524.067 529.563 M 722.962 705.265 L 494.14 539.012 M 463.623 546.338 L 434.628 558.348 M 434.628 558.348 L 407.869 574.745 M 407.869 574.745 L 384.005 595.127 M 384.005 595.127 L 363.622 618.991 M 363.622 618.991 L 347.224 645.75 M 347.224 645.75 L 335.214 674.744 M 335.214 674.744 L 327.887 705.261 M 327.887 705.261 L 325.424 736.548 M 325.424 736.548 L 327.886 767.835 M 327.886 767.835 L 335.212 798.351 M 335.212 798.351 L 347.222 827.346 M 347.222 827.346 L 363.62 854.105 M 363.62 854.105 L 384.001 877.97 M 384.001 877.97 L 407.865 898.352 M 407.865 898.352 L 434.624 914.75 M 434.624 914.75 L 463.619 926.761 M 463.619 926.761 L 494.135 934.087 M 494.135 934.087 L 525.422 936.55 M 525.422 936.55 L 556.709 934.088 M 556.709 934.088 L 587.226 926.762 M 587.226 926.762 L 616.22 914.753 M 616.22 914.753 L 642.98 898.355 M 642.98 898.355 L 666.844 877.973 M 666.844 877.973 L 687.227 854.109 M 687.227 854.109 L 703.625 827.35 M 703.625 827.35 L 715.635 798.356 M 715.635 798.356 L 722.962 705.265 M 805.691 289.737 L 781.558 309.8 M 744.107 359.929 L 805.691 289.737 M 781.558 309.8 L 760.86 333.391 M 725.535 385.228 L 744.107 359.929 M 760.86 333.391 L 775.71 305.743 M 775.71 305.743 L 788.584 277.122 M 788.584 277.122 L 799.42 247.668 M 799.42 247.668 L 808.163 217.527 M 808.163 217.527 L 814.771 186.847 M 814.771 186.847 L 819.21 155.779 M 819.21 155.779 L 821.46 124.476 M 821.46 124.476 L 821.509 93.0922 M 821.509 93.0922 L 819.357 61.7823 M 819.357 61.7823 L 815.015 30.7005 M 815.015 30.7005 L 808.503 0 M 808.503 0 L 374.547 108.085 M 0 352.451 L 18.0604 378.117 M 374.547 108.085 L 0 352.451 M 18.0604 378.117 L 37.8762 402.454 M 37.8762 402.454 L 59.3501 425.34 M 59.3501 425.34 L 82.3762 446.665 M 82.3762 446.665 L 106.841 466.322 M 106.841 466.322 L 132.624 484.215 M 132.624 484.215 L 159.599 500.255 M 159.599 500.255 L 187.632 514.365 M 187.632 514.365 L 216.586 526.473 M 216.586 526.473 L 246.318 536.521 M 246.318 536.521 L 276.681 544.459 M 276.681 544.459 L 307.526 550.248 M 307.526 550.248 L 338.701 553.86 M 338.701 553.86 L 370.053 555.276 M 370.053 555.276 L 401.426 554.49 M 401.426 554.49 L 432.668 551.506 M 432.668 551.506 L 463.623 546.338" />
<path fill="none" class="c" d=" M 463.623 546.338 L 494.14 539.012 M 374.547 108.085 L 463.623 546.338 M 494.14 539.012 L 374.547 108.085 M 524.067 529.563 L 374.547 108.085 M 553.259 518.039 L 374.547 108.085 M 581.57 504.496 L 374.547 108.085 M 608.861 489.001 L 374.547 108.085 M 634.999 471.63 L 374.547 108.085 M 659.854 452.469 L 374.547 108.085 M 683.304 431.611 L 374.547 108.085 M 705.234 409.161 L 374.547 108.085 M 705.234 409.161 L 725.535 385.228 M 374.547 108.085 L 432.668 551.506 M 494.14 539.012 L 524.067 529.563 M 524.067 529.563 L 553.259 518.039 M 553.259 518.039 L 581.57 504.496 M 581.57 504.496 L 608.861 489.001 M 608.861 489.001 L 634.999 471.63 M 634.999 471.63 L 659.854 452.469 M 659.854 452.469 L 683.304 431.611 M 683.304 431.611 L 705.234 409.161 M 725.535 385.228 L 374.547 108.085 M 744.107 359.929 L 374.547 108.085 M 744.107 359.929 L 760.86 333.391 M 760.86 333.391 L 374.547 108.085 M 775.71 305.743 L 374.547 108.085 M 788.584 277.122 L 374.547 108.085 M 799.42 247.668 L 374.547 108.085 M 808.163 217.527 L 374.547 108.085 M 814.771 186.847 L 374.547 108.085 M 819.21 155.779 L 374.547 108.085 M 821.46 124.476 L 374.547 108.085 M 821.509 93.0922 L 374.547 108.085 M 819.357 61.7823 L 374.547 108.085 M 815.015 30.7005 L 374.547 108.085 M 374.547 108.085 L 401.426 554.49 M 374.547 108.085 L 370.053 555.276 M 374.547 108.085 L 338.701 553.86 M 374.547 108.085 L 307.526 550.248 M 374.547 108.085 L 276.681 544.459 M 374.547 108.085 L 246.318 536.521 M 374.547 108.085 L 216.586 526.473 M 374.547 108.085 L 187.632 514.365 M 374.547 108.085 L 159.599 500.255 M 374.547 108.085 L 132.624 484.215 M 374.547 108.085 L 106.841 466.322 M 374.547 108.085 L 82.3762 446.665 M 374.547 108.085 L 59.3501 425.34 M 374.547 108.085 L 37.8762 402.454 M 374.547 108.085 L 18.0604 378.117" />
<line x1="560.241786" y1="596.871742" x2="444.103363" y2="397.811742" class="t" />
<line x1="423.612794" y1="401.976488" x2="444.103363" y2="397.811742" class="t" />
<line x1="464.251390" y1="392.220200" x2="444.103363" y2="397.811742" class="t" />
<line x1="483.957656" y1="385.229349" x2="464.251390" y2="392.220200" class="t" />
<line x1="503.125163" y1="376.873659" x2="483.957656" y2="385.229349" class="t" />
<line x1="521.659447" y1="367.194276" x2="503.125163" y2="376.873659" class="t" />
<line x1="539.469225" y1="356.238897" x2="521.659447" y2="367.194276" class="t" />
<line x1="556.466832" y1="344.061441" x2="539.469225" y2="356.238897" class="t" />
<line x1="572.568550" y1="330.721816" x2="556.466832" y2="344.061441" class="t" />
<line x1="587.695047" y1="316.285832" x2="572.568550" y2="330.721816" class="t" />
<line x1="601.771859" y1="300.824601" x2="587.695047" y2="316.285832" class="t" />
<line x1="726.699418" y1="386.384447" x2="601.771859" y2="300.824601" class="t" />
<line x1="540.404656" y1="603.316995" x2="560.241786" y2="596.871742" class="t" />
<line x1="521.819992" y1="612.786083" x2="540.404656" y2="603.316995" class="t" />
<line x1="504.945415" y1="625.045841" x2="521.819992" y2="612.786083" class="t" />
<line x1="490.196439" y1="639.794403" x2="504.945415" y2="625.045841" class="t" />
<line x1="477.936290" y1="656.668700" x2="490.196439" y2="639.794403" class="t" />
<line x1="468.466797" y1="675.253147" x2="477.936290" y2="656.668700" class="t" />
<line x1="462.021104" y1="695.090164" x2="468.466797" y2="675.253147" class="t" />
<line x1="458.757942" y1="715.691250" x2="462.021104" y2="695.090164" class="t" />
<line x1="458.757664" y1="736.549178" x2="458.757942" y2="715.691250" class="t" />
<line x1="462.020342" y1="757.150412" x2="458.757664" y2="736.549178" class="t" />
<line x1="468.465595" y1="776.987541" x2="462.020342" y2="757.150412" class="t" />
<line x1="477.934682" y1="795.572206" x2="468.465595" y2="776.987541" class="t" />
<line x1="490.194441" y1="812.446782" x2="477.934682" y2="795.572206" class="t" />
<line x1="504.943062" y1="827.195729" x2="490.194441" y2="812.446782" class="t" />
<line x1="521.817389" y1="839.455937" x2="504.943062" y2="827.195729" class="t" />
<line x1="540.401837" y1="848.925430" x2="521.817389" y2="839.455937" class="t" />
<line x1="560.238854" y1="855.371122" x2="540.401837" y2="848.925430" class="t" />
<line x1="580.839940" y1="858.634284" x2="560.238854" y2="855.371122" class="t" />
<line x1="601.697837" y1="858.634504" x2="580.839940" y2="858.634284" class="t" />
<line x1="622.299071" y1="855.371826" x2="601.697837" y2="858.634504" class="t" />
<line x1="642.136231" y1="848.926632" x2="622.299071" y2="855.371826" class="t" />
<line x1="660.720896" y1="839.457544" x2="642.136231" y2="848.926632" class="t" />
<line x1="677.595442" y1="827.197727" x2="660.720896" y2="839.457544" class="t" />
<line x1="692.344388" y1="812.449105" x2="677.595442" y2="827.197727" class="t" />
<line x1="704.604597" y1="795.574778" x2="692.344388" y2="812.449105" class="t" />
<line x1="714.074089" y1="776.990331" x2="704.604597" y2="795.574778" class="t" />
<line x1="402.880579" y1="404.693936" x2="423.612794" y2="401.976488" class="t" />
<line x1="590.915475" y1="572.668243" x2="464.251390" y2="392.220200" class="t" />
<line x1="617.648915" y1="547.339997" x2="483.957656" y2="385.229349" class="t" />
<line x1="640.646819" y1="521.629360" x2="503.125163" y2="376.873659" class="t" />
<line x1="660.262470" y1="496.187378" x2="521.659447" y2="367.194276" class="t" />
<line x1="676.972083" y1="471.549326" x2="539.469225" y2="356.238897" class="t" />
<line x1="691.343273" y1="448.102012" x2="556.466832" y2="344.061441" class="t" />
<line x1="703.999018" y1="426.076831" x2="572.568550" y2="330.721816" class="t" />
<line x1="715.579017" y1="405.538082" x2="587.695047" y2="316.285832" class="t" />
<line x1="614.729696" y1="284.414137" x2="601.771859" y2="300.824601" class="t" />
<line x1="626.504744" y1="267.135251" x2="614.729696" y2="284.414137" class="t" />
<line x1="762.174840" y1="334.373538" x2="626.504744" y2="267.135251" class="t" />
<line x1="637.038940" y1="249.073181" x2="626.504744" y2="267.135251" class="t" />
<line x1="646.280447" y1="230.316760" x2="637.038940" y2="249.073181" class="t" />
<line x1="654.183778" y1="210.958370" x2="646.280447" y2="230.316760" class="t" />
<line x1="660.709994" y1="191.093395" x2="654.183778" y2="210.958370" class="t" />
<line x1="665.826962" y1="170.819567" x2="660.709994" y2="191.093395" class="t" />
<line x1="669.509463" y1="150.236853" x2="665.826962" y2="170.819567" class="t" />
<line x1="671.739383" y1="129.446551" x2="669.509463" y2="150.236853" class="t" />
<line x1="672.505716" y1="108.551049" x2="671.739383" y2="129.446551" class="t" />
<line x1="671.804688" y1="87.653258" x2="672.505716" y2="108.551049" class="t" />
<line x1="669.639778" y1="66.856027" x2="671.804688" y2="87.653258" class="t" />
<line x1="666.021655" y1="46.261930" x2="669.639778" y2="66.856027" class="t" />
<line x1="382.008849" y1="405.950700" x2="402.880579" y2="404.693936" class="t" />
<line x1="777.118616" y1="319.822369" x2="762.174840" y2="334.373538" class="t" />
<line x1="361.100379" y1="405.740586" x2="382.008849" y2="405.950700" class="t" />
<line x1="340.258112" y1="404.064579" x2="361.100379" y2="405.740586" class="t" />
<line x1="319.584722" y1="400.930982" x2="340.258112" y2="404.064579" class="t" />
<line x1="299.181963" y1="396.355221" x2="319.584722" y2="400.930982" class="t" />
<line x1="279.150388" y1="390.359847" x2="299.181963" y2="396.355221" class="t" />
<line x1="259.588595" y1="382.974367" x2="279.150388" y2="390.359847" class="t" />
<line x1="240.592886" y1="374.235106" x2="259.588595" y2="382.974367" class="t" />
<line x1="222.256923" y1="364.185165" x2="240.592886" y2="374.235106" class="t" />
<line x1="204.670930" y1="352.874030" x2="222.256923" y2="364.185165" class="t" />
<line x1="187.921512" y1="340.357403" x2="204.670930" y2="352.874030" class="t" />
<line x1="172.091176" y1="326.696899" x2="187.921512" y2="340.357403" class="t" />
<line x1="157.257822" y1="311.959765" x2="172.091176" y2="326.696899" class="t" />
<line x1="143.494599" y1="296.218659" x2="157.257822" y2="311.959765" class="t" />
<line x1="130.869208" y1="279.551045" x2="143.494599" y2="296.218659" class="t" />
</svg>
