<?xml version="1.0"?>
<svg width="1118" height="1504" version="1.1" xmlns="http://www.w3.org/2000/svg" >
<defs>
<style type="text/css"><![CDATA[
.m {stroke:rgb(255,0,0);stroke-width:1.880000;}
.v {stroke:rgb(0,0,255);stroke-width:1.880000;}
.b {stroke:rgb(0,0,0);stroke-width:3.760000;fill:white}
.n {stroke:rgb(128,128,128);stroke-width:1.880000}
.t {stroke:rgb(0,128,0);stroke-width:1.880000;}
.c {stroke:rgb(128,128,128);stroke-width:1.880000;stroke-dasharray:11.180000, 11.180000;}
]]></style>
</defs>
<path fill="none" style="stroke:black;stroke-width:3.760000;" d=" M 868.384 787.776 L 721.609 744.316 M 729.557 852.263 L 806.917 927.967 M 915.011 933.575 L 868.384 787.776 M 802.157 492.26 L 920.651 395.355 M 720.823 362.583 L 655.383 448.8 M 663.33 556.747 L 802.157 492.26 M 702.212 657.761 L 816.4 555.818 M 816.4 555.818 L 663.33 556.747 M 721.609 744.316 L 568.949 733.077 M 635.176 1028.59 L 768.439 953.277 M 768.439 953.277 L 729.557 852.263 M 929.552 1085.96 L 915.011 933.575 M 806.917 927.967 L 776.684 1078.02 M 883.274 198.878 L 826.93 341.205 M 920.651 395.355 L 1015.81 275.458 M 679.053 343.18 L 611.513 154.929 M 611.513 154.929 L 536.197 288.192 M 818.998 188.337 L 720.823 362.583 M 826.93 341.205 L 818.998 188.337 M 536.197 288.192 L 502.723 437.561 M 655.383 448.8 L 679.053 343.18 M 502.723 437.561 L 513.961 590.221 M 568.949 733.077 L 702.212 657.761 M 427.528 874.498 L 580.188 885.737 M 419.581 766.551 L 427.528 874.498 M 485.808 1062.07 L 635.176 1028.59 M 580.188 885.737 L 446.925 961.053 M 899.318 1236.01 L 929.552 1085.96 M 776.684 1078.02 L 791.225 1230.41 M 1015.81 275.458 L 1072.16 133.131 M 1072.16 133.131 L 978.437 78.9812 M 904.426 0 L 778.606 87.182 M 778.606 87.182 L 883.274 198.878 M 978.437 78.9812 L 904.426 0 M 46.988 958.113 L 0 1103.8 M 0 1103.8 L 184.219 1025.93 M 1118.79 1493.36 L 984.626 1419.67 M 919.186 1505.88 L 1118.79 1493.36 M 187.799 795.329 L 56.1977 873.512 M 56.1977 873.512 L 245.866 936.961 M 245.866 936.961 L 46.988 958.113 M 513.961 590.221 L 419.581 766.551 M 350.949 911.011 L 187.799 795.329 M 446.925 961.053 L 350.949 911.011 M 332.737 1063 L 485.808 1062.07 M 791.225 1230.41 L 837.852 1376.2 M 976.679 1311.72 L 899.318 1236.01 M 984.626 1419.67 L 976.679 1311.72 M 837.852 1376.2 L 919.186 1505.88 M 184.219 1025.93 L 332.737 1063" />
<path fill="none" class="c" d=" M 580.188 885.737 L 729.557 852.263 M 568.949 733.077 L 580.188 885.737 M 568.949 733.077 L 419.581 766.551 M 568.949 733.077 L 513.961 590.221 M 729.557 852.263 L 721.609 744.316 M 580.188 885.737 L 635.176 1028.59 M 702.212 657.761 L 663.33 556.747 M 663.33 556.747 L 513.961 590.221 M 446.925 961.053 L 485.808 1062.07 M 446.925 961.053 L 332.737 1063 M 729.557 852.263 L 868.384 787.776 M 806.917 927.967 L 868.384 787.776 M 806.917 927.967 L 915.011 933.575 M 663.33 556.747 L 655.383 448.8 M 655.383 448.8 L 502.723 437.561 M 350.949 911.011 L 332.737 1063 M 350.949 911.011 L 245.866 936.961 M 245.866 936.961 L 332.737 1063 M 802.157 492.26 L 655.383 448.8 M 776.684 1078.02 L 929.552 1085.96 M 679.053 343.18 L 536.197 288.192 M 791.225 1230.41 L 899.318 1236.01 M 187.799 795.329 L 245.866 936.961 M 837.852 1376.2 L 899.318 1236.01 M 837.852 1376.2 L 976.679 1311.72 M 837.852 1376.2 L 984.626 1419.67 M 919.186 1505.88 L 984.626 1419.67 M 245.866 936.961 L 184.219 1025.93 M 802.157 492.26 L 720.823 362.583 M 46.988 958.113 L 184.219 1025.93 M 802.157 492.26 L 826.93 341.205 M 826.93 341.205 L 720.823 362.583 M 920.651 395.355 L 826.93 341.205 M 1015.81 275.458 L 883.274 198.878 M 978.437 78.9812 L 883.274 198.878" />
<line x1="692.727813" y1="897.092374" x2="626.231252" y2="823.692281" class="t" />
<line x1="525.554990" y1="831.104081" x2="626.231252" y2="823.692281" class="t" />
<line x1="673.371714" y1="776.551810" x2="626.231252" y2="823.692281" class="t" />
<line x1="661.267630" y1="955.869093" x2="692.727813" y2="897.092374" class="t" />
<line x1="472.019210" y1="791.375409" x2="525.554990" y2="831.104081" class="t" />
<line x1="500.830416" y1="696.616332" x2="472.019210" y2="791.375409" class="t" />
<line x1="595.040889" y1="660.353027" x2="500.830416" y2="696.616332" class="t" />
<line x1="773.183173" y1="794.784945" x2="673.371714" y2="776.551810" class="t" />
<line x1="567.057193" y1="992.132491" x2="661.267630" y2="955.869093" class="t" />
<line x1="626.501131" y1="601.576339" x2="595.040889" y2="660.353027" class="t" />
<line x1="727.314152" y1="590.108550" x2="626.501131" y2="601.576339" class="t" />
<line x1="560.004642" y1="528.176181" x2="626.501131" y2="601.576339" class="t" />
<line x1="504.306922" y1="969.619178" x2="567.057193" y2="992.132491" class="t" />
<line x1="421.823232" y1="1028.705693" x2="504.306922" y2="969.619178" class="t" />
<line x1="376.870291" y1="978.353411" x2="421.823232" y2="1028.705693" class="t" />
<line x1="801.619070" y1="856.001928" x2="773.183173" y2="794.784945" class="t" />
<line x1="863.437207" y1="883.106074" x2="801.619070" y2="856.001928" class="t" />
<line x1="832.870665" y1="979.855551" x2="863.437207" y2="883.106074" class="t" />
<line x1="873.748854" y1="1032.518829" x2="832.870665" y2="979.855551" class="t" />
<line x1="607.145150" y1="481.035756" x2="560.004642" y2="528.176181" class="t" />
<line x1="706.956592" y1="499.268991" x2="607.145150" y2="481.035756" class="t" />
<line x1="564.767519" y1="391.517576" x2="607.145150" y2="481.035756" class="t" />
<line x1="309.850699" y1="970.322783" x2="376.870291" y2="978.353411" class="t" />
<line x1="261.538058" y1="881.100228" x2="309.850699" y2="970.322783" class="t" />
<line x1="254.274232" y1="1008.629121" x2="309.850699" y2="970.322783" class="t" />
<line x1="726.120963" y1="434.547714" x2="706.956592" y2="499.268991" class="t" />
<line x1="868.518009" y1="1133.331936" x2="873.748854" y2="1032.518829" class="t" />
<line x1="623.544256" y1="360.057428" x2="564.767519" y2="391.517576" class="t" />
<line x1="608.920932" y1="262.100679" x2="623.544256" y2="360.057428" class="t" />
<line x1="822.408976" y1="1181.481747" x2="868.518009" y2="1133.331936" class="t" />
<line x1="842.798339" y1="1280.875150" x2="822.408976" y2="1181.481747" class="t" />
<line x1="163.287726" y1="868.600683" x2="261.538058" y2="881.100228" class="t" />
<line x1="904.616497" y1="1307.979293" x2="842.798339" y2="1280.875150" class="t" />
<line x1="933.052396" y1="1369.196255" x2="904.616497" y2="1307.979293" class="t" />
<line x1="913.888095" y1="1433.917571" x2="933.052396" y2="1369.196255" class="t" />
<line x1="1007.535311" y1="1472.968491" x2="913.888095" y2="1433.917571" class="t" />
<line x1="159.024590" y1="973.667996" x2="254.274232" y2="1008.629121" class="t" />
<line x1="783.303361" y1="398.682793" x2="726.120963" y2="434.547714" class="t" />
<line x1="77.069124" y1="1029.279774" x2="159.024590" y2="973.667996" class="t" />
<line x1="849.912556" y1="409.606707" x2="783.303361" y2="398.682793" class="t" />
<line x1="788.917177" y1="297.375045" x2="783.303361" y2="398.682793" class="t" />
<line x1="921.131727" y1="337.339113" x2="849.912556" y2="409.606707" class="t" />
<line x1="908.672746" y1="271.846979" x2="921.131727" y2="337.339113" class="t" />
<line x1="959.175204" y1="184.439071" x2="908.672746" y2="271.846979" class="t" />
<line x1="1022.136652" y1="162.523282" x2="959.175204" y2="184.439071" class="t" />
<line x1="922.045706" y1="92.619855" x2="959.175204" y2="184.439071" class="t" />
<line x1="855.435087" y1="95.353454" x2="922.045706" y2="92.619855" class="t" />
</svg>
