<?xml version="1.0"?>
<svg width="160" height="1679" version="1.1" xmlns="http://www.w3.org/2000/svg" >
<defs>
<style type="text/css"><![CDATA[
.m {stroke:rgb(255,0,0);stroke-width:2.098750;}
.v {stroke:rgb(0,0,255);stroke-width:2.098750;}
.b {stroke:rgb(0,0,0);stroke-width:4.197500;fill:white}
.n {stroke:rgb(128,128,128);stroke-width:2.098750}
.t {stroke:rgb(0,128,0);stroke-width:2.098750;}
.c {stroke:rgb(128,128,128);stroke-width:2.098750;stroke-dasharray:1.600000, 1.600000;}
]]></style>
</defs>
<path fill="none" style="stroke:black;stroke-width:4.197500;" d=" M 40 1640 L 80 1640 M 80 40 L 40 3.55271e-013 M 40 3.55271e-013 L 40 40 M 120 0 L 80 40 M 120 40 L 160 0 M 160 0 L 120 0 M 160 80 L 120 40 M 120 80 L 160 120 M 160 120 L 160 80 M 160 120 L 120 80 M 120 120 L 160 160 M 160 160 L 160 120 M 160 160 L 120 120 M 120 160 L 160 200 M 160 200 L 160 160 M 160 200 L 120 160 M 120 200 L 160 240 M 160 240 L 160 200 M 160 240 L 120 200 M 120 240 L 160 280 M 160 280 L 160 240 M 160 280 L 120 240 M 120 280 L 160 320 M 160 320 L 160 280 M 160 320 L 120 280 M 120 320 L 160 360 M 160 360 L 160 320 M 160 360 L 120 320 M 120 360 L 160 400 M 160 400 L 160 360 M 160 400 L 120 360 M 120 400 L 160 440 M 160 440 L 160 400 M 160 440 L 120 400 M 120 440 L 160 480 M 160 480 L 160 440 M 160 480 L 120 440 M 120 480 L 160 520 M 160 520 L 160 480 M 160 520 L 120 480 M 120 520 L 160 560 M 160 560 L 160 520 M 160 560 L 120 520 M 120 560 L 160 600 M 160 600 L 160 560 M 160 600 L 120 560 M 120 600 L 160 640 M 160 640 L 160 600 M 160 640 L 120 600 M 120 640 L 160 680 M 160 680 L 160 640 M 160 680 L 120 640 M 120 680 L 160 720 M 160 720 L 160 680 M 160 720 L 120 680 M 120 720 L 160 760 M 160 760 L 160 720 M 160 760 L 120 720 M 120 760 L 160 800 M 160 800 L 160 760 M 160 800 L 120 760 M 120 800 L 160 840 M 160 840 L 160 800 M 160 840 L 120 800 M 120 840 L 160 880 M 160 880 L 160 840 M 160 880 L 120 840 M 120 880 L 160 920 M 160 920 L 160 880 M 160 920 L 120 880 M 120 920 L 160 960 M 160 960 L 160 920 M 160 960 L 120 920 M 120 960 L 160 1000 M 160 1000 L 160 960 M 160 1000 L 120 960 M 120 1000 L 160 1040 M 160 1040 L 160 1000 M 160 1040 L 120 1000 M 120 1040 L 160 1080 M 160 1080 L 160 1040 M 160 1080 L 120 1040 M 120 1080 L 160 1120 M 160 1120 L 160 1080 M 160 1120 L 120 1080 M 120 1120 L 160 1160 M 160 1160 L 160 1120 M 160 1160 L 120 1120 M 120 1160 L 160 1200 M 160 1200 L 160 1160 M 160 1200 L 120 1160 M 120 1200 L 160 1240 M 160 1240 L 160 1200 M 160 1240 L 120 1200 M 120 1240 L 160 1280 M 160 1280 L 160 1240 M 160 1280 L 120 1240 M 120 1280 L 160 1320 M 160 1320 L 160 1280 M 160 1320 L 120 1280 M 120 1320 L 160 1360 M 160 1360 L 160 1320 M 160 1360 L 120 1320 M 120 1360 L 160 1400 M 160 1400 L 160 1360 M 160 1400 L 120 1360 M 120 1400 L 160 1440 M 160 1440 L 160 1400 M 160 1440 L 120 1400 M 120 1440 L 160 1480 M 160 1480 L 160 1440 M 160 1480 L 120 1440 M 120 1480 L 160 1520 M 160 1520 L 160 1480 M 160 1520 L 120 1480 M 120 1520 L 160 1560 M 160 1560 L 160 1520 M 160 1560 L 120 1520 M 120 1560 L 160 1600 M 160 1600 L 160 1560 M 160 1600 L 120 1560 M 120 1600 L 160 1640 M 160 1640 L 160 1600 M 120 1640 L 160 1640 M 160 1640 L 120 1600 M 80 1680 L 120 1680 M 120 1680 L 120 1640 M 80 1640 L 80 1680 M 120 1640 L 80 1600 M 80 1600 L 120 1640 M 120 1600 L 80 1560 M 80 1560 L 120 1600 M 120 1560 L 80 1520 M 80 1520 L 120 1560 M 120 1520 L 80 1480 M 80 1480 L 120 1520 M 120 1480 L 80 1440 M 80 1440 L 120 1480 M 120 1440 L 80 1400 M 80 1400 L 120 1440 M 120 1400 L 80 1360 M 80 1360 L 120 1400 M 120 1360 L 80 1320 M 80 1320 L 120 1360 M 120 1320 L 80 1280 M 80 1280 L 120 1320 M 120 1280 L 80 1240 M 80 1240 L 120 1280 M 120 1240 L 80 1200 M 80 1200 L 120 1240 M 120 1200 L 80 1160 M 80 1160 L 120 1200 M 120 1160 L 80 1120 M 80 1120 L 120 1160 M 120 1120 L 80 1080 M 80 1080 L 120 1120 M 120 1080 L 80 1040 M 80 1040 L 120 1080 M 120 1040 L 80 1000 M 80 1000 L 120 1040 M 120 1000 L 80 960 M 80 960 L 120 1000 M 120 960 L 80 920 M 80 920 L 120 960 M 120 920 L 80 880 M 80 880 L 120 920 M 120 880 L 80 840 M 80 840 L 120 880 M 120 840 L 80 800 M 80 800 L 120 840 M 120 800 L 80 760 M 80 760 L 120 800 M 120 760 L 80 720 M 80 720 L 120 760 M 120 720 L 80 680 M 80 680 L 120 720 M 120 680 L 80 640 M 80 640 L 120 680 M 120 640 L 80 600 M 80 600 L 120 640 M 120 600 L 80 560 M 80 560 L 120 600 M 120 560 L 80 520 M 80 520 L 120 560 M 120 520 L 80 480 M 80 480 L 120 520 M 120 480 L 80 440 M 80 440 L 120 480 M 120 440 L 80 400 M 80 400 L 120 440 M 120 400 L 80 360 M 80 360 L 120 400 M 120 360 L 80 320 M 80 320 L 120 360 M 120 320 L 80 280 M 80 280 L 120 320 M 120 280 L 80 240 M 80 240 L 120 280 M 120 240 L 80 200 M 80 200 L 120 240 M 120 200 L 80 160 M 80 160 L 120 200 M 120 160 L 80 120 M 80 120 L 120 160 M 120 120 L 80 79.9998 M 80 79.9998 L 120 120 M 1.33227e-013 1600 L 1.22125e-013 1640 M 1.22125e-013 1640 L 40 1640 M 40 1600 L 1.33227e-013 1600 M 9.99201e-014 1560 L 1.33227e-013 1600 M 1.33227e-013 1600 L 40 1600 M 40 1560 L 9.99201e-014 1560 M 1.22125e-013 1520 L 9.99201e-014 1560 M 9.99201e-014 1560 L 40 1560 M 40 1520 L 1.22125e-013 1520 M 9.99201e-014 1480 L 1.22125e-013 1520 M 1.22125e-013 1520 L 40 1520 M 40 1480 L 9.99201e-014 1480 M 1.33227e-013 1440 L 9.99201e-014 1480 M 9.99201e-014 1480 L 40 1480 M 40 1440 L 1.33227e-013 1440 M 9.99201e-014 1400 L 1.33227e-013 1440 M 1.33227e-013 1440 L 40 1440 M 40 1400 L 9.99201e-014 1400 M 9.99201e-014 1360 L 9.99201e-014 1400 M 9.99201e-014 1400 L 40 1400 M 40 1360 L 9.99201e-014 1360 M 1.22125e-013 1320 L 9.99201e-014 1360 M 9.99201e-014 1360 L 40 1360 M 40 1320 L 1.22125e-013 1320 M 6.66134e-014 1280 L 1.22125e-013 1320 M 1.22125e-013 1320 L 40 1320 M 40 1280 L 6.66134e-014 1280 M 7.77156e-014 1240 L 6.66134e-014 1280 M 6.66134e-014 1280 L 40 1280 M 40 1240 L 7.77156e-014 1240 M 7.77156e-014 1200 L 7.77156e-014 1240 M 7.77156e-014 1240 L 40 1240 M 40 1200 L 7.77156e-014 1200 M 8.88178e-014 1160 L 7.77156e-014 1200 M 7.77156e-014 1200 L 40 1200 M 40 1160 L 8.88178e-014 1160 M 7.77156e-014 1120 L 8.88178e-014 1160 M 8.88178e-014 1160 L 40 1160 M 40 1120 L 7.77156e-014 1120 M 9.99201e-014 1080 L 7.77156e-014 1120 M 7.77156e-014 1120 L 40 1120 M 40 1080 L 9.99201e-014 1080 M 7.77156e-014 1040 L 9.99201e-014 1080 M 9.99201e-014 1080 L 40 1080 M 40 1040 L 7.77156e-014 1040 M 8.88178e-014 1000 L 7.77156e-014 1040 M 7.77156e-014 1040 L 40 1040 M 40 1000 L 8.88178e-014 1000 M 7.77156e-014 960 L 8.88178e-014 1000 M 8.88178e-014 1000 L 40 1000 M 40 960 L 7.77156e-014 960 M 2.22045e-014 920 L 7.77156e-014 960 M 7.77156e-014 960 L 40 960 M 40 920 L 2.22045e-014 920 M 6.66134e-014 880 L 2.22045e-014 920 M 2.22045e-014 920 L 40 920 M 40 880 L 6.66134e-014 880 M 7.77156e-014 840 L 6.66134e-014 880 M 6.66134e-014 880 L 40 880 M 40 840 L 7.77156e-014 840 M 0 800 L 7.77156e-014 840 M 7.77156e-014 840 L 40 840 M 40 800 L 0 800 M 1.11022e-014 760 L 0 800 M 0 800 L 40 800 M 40 760 L 1.11022e-014 760 M 5.55112e-014 720 L 1.11022e-014 760 M 1.11022e-014 760 L 40 760 M 40 720 L 5.55112e-014 720 M 3.33067e-014 680 L 5.55112e-014 720 M 5.55112e-014 720 L 40 720 M 40 680 L 3.33067e-014 680 M 3.33067e-014 640 L 3.33067e-014 680 M 3.33067e-014 680 L 40 680 M 40 640 L 3.33067e-014 640 M 4.44089e-014 600 L 3.33067e-014 640 M 3.33067e-014 640 L 40 640 M 40 600 L 4.44089e-014 600 M 5.55112e-014 560 L 4.44089e-014 600 M 4.44089e-014 600 L 40 600 M 40 560 L 5.55112e-014 560 M 9.99201e-014 520 L 5.55112e-014 560 M 5.55112e-014 560 L 40 560 M 40 520 L 9.99201e-014 520 M 7.77156e-014 480 L 9.99201e-014 520 M 9.99201e-014 520 L 40 520 M 40 480 L 7.77156e-014 480 M 8.88178e-014 440 L 7.77156e-014 480 M 7.77156e-014 480 L 40 480 M 40 440 L 8.88178e-014 440 M 7.77156e-014 400 L 8.88178e-014 440 M 8.88178e-014 440 L 40 440 M 40 400 L 7.77156e-014 400 M 5.55112e-014 360 L 7.77156e-014 400 M 7.77156e-014 400 L 40 400 M 40 360 L 5.55112e-014 360 M 7.77156e-014 320 L 5.55112e-014 360 M 5.55112e-014 360 L 40 360 M 40 320 L 7.77156e-014 320 M 7.77156e-014 280 L 7.77156e-014 320 M 7.77156e-014 320 L 40 320 M 40 280 L 7.77156e-014 280 M 9.99201e-014 240 L 7.77156e-014 280 M 7.77156e-014 280 L 40 280 M 40 240 L 9.99201e-014 240 M 1.22125e-013 200 L 9.99201e-014 240 M 9.99201e-014 240 L 40 240 M 40 200 L 1.22125e-013 200 M 1.22125e-013 160 L 1.22125e-013 200 M 1.22125e-013 200 L 40 200 M 40 160 L 1.22125e-013 160 M 1.22125e-013 120 L 1.22125e-013 160 M 1.22125e-013 160 L 40 160 M 40 120 L 1.22125e-013 120 M 1.22125e-013 80 L 1.22125e-013 120 M 1.22125e-013 120 L 40 120 M 40 79.9998 L 1.22125e-013 80 M 1.22125e-013 40 L 1.22125e-013 80 M 1.22125e-013 80 L 40 79.9998 M 40 40 L 1.22125e-013 40" />
<path fill="none" class="c" d=" M 40 800 L 40 840 M 80 840 L 80 800 M 40 760 L 40 800 M 80 800 L 80 760 M 40 720 L 40 760 M 80 760 L 80 720 M 40 680 L 40 720 M 80 720 L 80 680 M 40 640 L 40 680 M 80 680 L 80 640 M 40 600 L 40 640 M 80 640 L 80 600 M 40 560 L 40 600 M 80 600 L 80 560 M 40 520 L 40 560 M 80 560 L 80 520 M 40 480 L 40 520 M 80 520 L 80 480 M 40 440 L 40 480 M 80 480 L 80 440 M 40 400 L 40 440 M 80 440 L 80 400 M 40 360 L 40 400 M 80 400 L 80 360 M 40 320 L 40 360 M 80 360 L 80 320 M 40 280 L 40 320 M 80 320 L 80 280 M 40 240 L 40 280 M 80 280 L 80 240 M 40 200 L 40 240 M 80 240 L 80 200 M 40 160 L 40 200 M 80 200 L 80 160 M 40 120 L 40 160 M 80 160 L 80 120 M 40 79.9998 L 40 120 M 80 120 L 80 79.9998 M 40 40 L 40 79.9998 M 80 40 L 40 40 M 80 79.9998 L 80 40 M 120 40 L 80 40 M 120 80 L 120 40 M 80 880 L 80 840 M 120 40 L 120 0 M 120 880 L 120 840 M 120 840 L 120 800 M 120 800 L 120 760 M 120 760 L 120 720 M 120 720 L 120 680 M 120 680 L 120 640 M 120 640 L 120 600 M 120 600 L 120 560 M 120 560 L 120 520 M 120 520 L 120 480 M 120 480 L 120 440 M 120 440 L 120 400 M 120 400 L 120 360 M 120 360 L 120 320 M 120 320 L 120 280 M 120 280 L 120 240 M 120 240 L 120 200 M 120 200 L 120 160 M 120 160 L 120 120 M 120 120 L 120 80 M 40 840 L 40 880 M 120 920 L 120 880 M 80 920 L 80 880 M 40 880 L 40 920 M 120 960 L 120 920 M 80 960 L 80 920 M 40 920 L 40 960 M 120 1000 L 120 960 M 80 1000 L 80 960 M 40 960 L 40 1000 M 120 1040 L 120 1000 M 80 1040 L 80 1000 M 40 1000 L 40 1040 M 120 1080 L 120 1040 M 80 1080 L 80 1040 M 40 1040 L 40 1080 M 120 1120 L 120 1080 M 80 1120 L 80 1080 M 40 1080 L 40 1120 M 120 1160 L 120 1120 M 80 1160 L 80 1120 M 40 1120 L 40 1160 M 120 1200 L 120 1160 M 80 1200 L 80 1160 M 40 1160 L 40 1200 M 120 1240 L 120 1200 M 80 1240 L 80 1200 M 40 1200 L 40 1240 M 120 1280 L 120 1240 M 80 1280 L 80 1240 M 40 1240 L 40 1280 M 120 1320 L 120 1280 M 80 1320 L 80 1280 M 40 1280 L 40 1320 M 120 1360 L 120 1320 M 80 1360 L 80 1320 M 40 1320 L 40 1360 M 120 1400 L 120 1360 M 80 1400 L 80 1360 M 40 1360 L 40 1400 M 120 1440 L 120 1400 M 80 1440 L 80 1400 M 40 1400 L 40 1440 M 120 1480 L 120 1440 M 80 1480 L 80 1440 M 40 1440 L 40 1480 M 120 1520 L 120 1480 M 80 1520 L 80 1480 M 40 1480 L 40 1520 M 120 1560 L 120 1520 M 80 1560 L 80 1520 M 40 1520 L 40 1560 M 120 1600 L 120 1560 M 80 1600 L 80 1560 M 40 1560 L 40 1600 M 120 1640 L 120 1600 M 80 1640 L 80 1600 M 80 1640 L 120 1640 M 40 1600 L 40 1640" />
<line x1="53.333333" y1="826.666467" x2="66.666667" y2="813.333133" class="t" />
<line x1="26.666667" y1="813.333267" x2="53.333333" y2="826.666467" class="t" />
<line x1="53.333333" y1="786.666467" x2="66.666667" y2="813.333133" class="t" />
<line x1="93.333333" y1="826.666600" x2="66.666667" y2="813.333133" class="t" />
<line x1="66.666667" y1="773.333133" x2="53.333333" y2="786.666467" class="t" />
<line x1="26.666667" y1="773.333267" x2="53.333333" y2="786.666467" class="t" />
<line x1="53.333333" y1="746.666467" x2="66.666667" y2="773.333133" class="t" />
<line x1="93.333333" y1="786.666600" x2="66.666667" y2="773.333133" class="t" />
<line x1="66.666667" y1="733.333133" x2="53.333333" y2="746.666467" class="t" />
<line x1="26.666667" y1="733.333267" x2="53.333333" y2="746.666467" class="t" />
<line x1="53.333333" y1="706.666467" x2="66.666667" y2="733.333133" class="t" />
<line x1="93.333333" y1="746.666600" x2="66.666667" y2="733.333133" class="t" />
<line x1="66.666667" y1="693.333133" x2="53.333333" y2="706.666467" class="t" />
<line x1="26.666667" y1="693.333267" x2="53.333333" y2="706.666467" class="t" />
<line x1="53.333333" y1="666.666467" x2="66.666667" y2="693.333133" class="t" />
<line x1="93.333333" y1="706.666600" x2="66.666667" y2="693.333133" class="t" />
<line x1="66.666667" y1="653.333133" x2="53.333333" y2="666.666467" class="t" />
<line x1="26.666667" y1="653.333267" x2="53.333333" y2="666.666467" class="t" />
<line x1="53.333333" y1="626.666467" x2="66.666667" y2="653.333133" class="t" />
<line x1="93.333333" y1="666.666600" x2="66.666667" y2="653.333133" class="t" />
<line x1="66.666667" y1="613.333133" x2="53.333333" y2="626.666467" class="t" />
<line x1="26.666667" y1="613.333267" x2="53.333333" y2="626.666467" class="t" />
<line x1="53.333333" y1="586.666467" x2="66.666667" y2="613.333133" class="t" />
<line x1="93.333333" y1="626.666600" x2="66.666667" y2="613.333133" class="t" />
<line x1="66.666667" y1="573.333133" x2="53.333333" y2="586.666467" class="t" />
<line x1="26.666667" y1="573.333267" x2="53.333333" y2="586.666467" class="t" />
<line x1="53.333333" y1="546.666467" x2="66.666667" y2="573.333133" class="t" />
<line x1="93.333333" y1="586.666600" x2="66.666667" y2="573.333133" class="t" />
<line x1="66.666667" y1="533.333133" x2="53.333333" y2="546.666467" class="t" />
<line x1="26.666667" y1="533.333267" x2="53.333333" y2="546.666467" class="t" />
<line x1="53.333333" y1="506.666467" x2="66.666667" y2="533.333133" class="t" />
<line x1="93.333333" y1="546.666600" x2="66.666667" y2="533.333133" class="t" />
<line x1="66.666667" y1="493.333133" x2="53.333333" y2="506.666467" class="t" />
<line x1="26.666667" y1="493.333267" x2="53.333333" y2="506.666467" class="t" />
<line x1="53.333333" y1="466.666467" x2="66.666667" y2="493.333133" class="t" />
<line x1="93.333333" y1="506.666600" x2="66.666667" y2="493.333133" class="t" />
<line x1="66.666667" y1="453.333133" x2="53.333333" y2="466.666467" class="t" />
<line x1="26.666667" y1="453.333200" x2="53.333333" y2="466.666467" class="t" />
<line x1="53.333333" y1="426.666467" x2="66.666667" y2="453.333133" class="t" />
<line x1="93.333333" y1="466.666600" x2="66.666667" y2="453.333133" class="t" />
<line x1="66.666667" y1="413.333133" x2="53.333333" y2="426.666467" class="t" />
<line x1="26.666667" y1="413.333200" x2="53.333333" y2="426.666467" class="t" />
<line x1="53.333333" y1="386.666467" x2="66.666667" y2="413.333133" class="t" />
<line x1="93.333333" y1="426.666533" x2="66.666667" y2="413.333133" class="t" />
<line x1="66.666667" y1="373.333133" x2="53.333333" y2="386.666467" class="t" />
<line x1="26.666667" y1="373.333200" x2="53.333333" y2="386.666467" class="t" />
<line x1="53.333333" y1="346.666467" x2="66.666667" y2="373.333133" class="t" />
<line x1="93.333333" y1="386.666533" x2="66.666667" y2="373.333133" class="t" />
<line x1="66.666667" y1="333.333133" x2="53.333333" y2="346.666467" class="t" />
<line x1="26.666667" y1="333.333200" x2="53.333333" y2="346.666467" class="t" />
<line x1="53.333333" y1="306.666467" x2="66.666667" y2="333.333133" class="t" />
<line x1="93.333333" y1="346.666533" x2="66.666667" y2="333.333133" class="t" />
<line x1="66.666667" y1="293.333133" x2="53.333333" y2="306.666467" class="t" />
<line x1="26.666667" y1="293.333200" x2="53.333333" y2="306.666467" class="t" />
<line x1="53.333333" y1="266.666467" x2="66.666667" y2="293.333133" class="t" />
<line x1="93.333333" y1="306.666533" x2="66.666667" y2="293.333133" class="t" />
<line x1="66.666667" y1="253.333133" x2="53.333333" y2="266.666467" class="t" />
<line x1="26.666667" y1="253.333200" x2="53.333333" y2="266.666467" class="t" />
<line x1="53.333333" y1="226.666467" x2="66.666667" y2="253.333133" class="t" />
<line x1="93.333333" y1="266.666533" x2="66.666667" y2="253.333133" class="t" />
<line x1="66.666667" y1="213.333133" x2="53.333333" y2="226.666467" class="t" />
<line x1="26.666667" y1="213.333200" x2="53.333333" y2="226.666467" class="t" />
<line x1="53.333333" y1="186.666467" x2="66.666667" y2="213.333133" class="t" />
<line x1="93.333333" y1="226.666533" x2="66.666667" y2="213.333133" class="t" />
<line x1="66.666667" y1="173.333133" x2="53.333333" y2="186.666467" class="t" />
<line x1="26.666667" y1="173.333200" x2="53.333333" y2="186.666467" class="t" />
<line x1="53.333333" y1="146.666467" x2="66.666667" y2="173.333133" class="t" />
<line x1="93.333333" y1="186.666533" x2="66.666667" y2="173.333133" class="t" />
<line x1="66.666667" y1="133.333133" x2="53.333333" y2="146.666467" class="t" />
<line x1="26.666667" y1="133.333200" x2="53.333333" y2="146.666467" class="t" />
<line x1="53.333333" y1="106.666467" x2="66.666667" y2="133.333133" class="t" />
<line x1="93.333333" y1="146.666533" x2="66.666667" y2="133.333133" class="t" />
<line x1="66.666667" y1="93.333133" x2="53.333333" y2="106.666467" class="t" />
<line x1="26.666667" y1="93.333200" x2="53.333333" y2="106.666467" class="t" />
<line x1="53.333333" y1="66.666533" x2="66.666667" y2="93.333133" class="t" />
<line x1="93.333333" y1="106.666533" x2="66.666667" y2="93.333133" class="t" />
<line x1="66.666667" y1="53.333267" x2="53.333333" y2="66.666533" class="t" />
<line x1="26.666667" y1="53.333267" x2="53.333333" y2="66.666533" class="t" />
<line x1="53.333333" y1="26.666667" x2="66.666667" y2="53.333267" class="t" />
<line x1="93.333333" y1="66.666600" x2="66.666667" y2="53.333267" class="t" />
<line x1="106.666667" y1="853.333400" x2="93.333333" y2="826.666600" class="t" />
<line x1="106.666667" y1="813.333400" x2="93.333333" y2="786.666600" class="t" />
<line x1="106.666667" y1="773.333400" x2="93.333333" y2="746.666600" class="t" />
<line x1="106.666667" y1="733.333400" x2="93.333333" y2="706.666600" class="t" />
<line x1="106.666667" y1="693.333400" x2="93.333333" y2="666.666600" class="t" />
<line x1="106.666667" y1="653.333400" x2="93.333333" y2="626.666600" class="t" />
<line x1="106.666667" y1="613.333400" x2="93.333333" y2="586.666600" class="t" />
<line x1="106.666667" y1="573.333400" x2="93.333333" y2="546.666600" class="t" />
<line x1="106.666667" y1="533.333400" x2="93.333333" y2="506.666600" class="t" />
<line x1="106.666667" y1="493.333400" x2="93.333333" y2="466.666600" class="t" />
<line x1="106.666667" y1="453.333333" x2="93.333333" y2="426.666533" class="t" />
<line x1="106.666667" y1="413.333267" x2="93.333333" y2="386.666533" class="t" />
<line x1="106.666667" y1="373.333267" x2="93.333333" y2="346.666533" class="t" />
<line x1="106.666667" y1="333.333267" x2="93.333333" y2="306.666533" class="t" />
<line x1="106.666667" y1="293.333267" x2="93.333333" y2="266.666533" class="t" />
<line x1="106.666667" y1="253.333267" x2="93.333333" y2="226.666533" class="t" />
<line x1="106.666667" y1="213.333267" x2="93.333333" y2="186.666533" class="t" />
<line x1="106.666667" y1="173.333267" x2="93.333333" y2="146.666533" class="t" />
<line x1="106.666667" y1="133.333267" x2="93.333333" y2="106.666533" class="t" />
<line x1="106.666667" y1="93.333267" x2="93.333333" y2="66.666600" class="t" />
<line x1="106.666667" y1="53.333333" x2="93.333333" y2="66.666600" class="t" />
<line x1="106.666667" y1="26.666667" x2="106.666667" y2="53.333333" class="t" />
<line x1="133.333333" y1="66.666667" x2="106.666667" y2="53.333333" class="t" />
<line x1="13.333333" y1="826.666733" x2="26.666667" y2="813.333267" class="t" />
<line x1="13.333333" y1="786.666733" x2="26.666667" y2="773.333267" class="t" />
<line x1="13.333333" y1="746.666733" x2="26.666667" y2="733.333267" class="t" />
<line x1="13.333333" y1="706.666733" x2="26.666667" y2="693.333267" class="t" />
<line x1="13.333333" y1="666.666733" x2="26.666667" y2="653.333267" class="t" />
<line x1="13.333333" y1="626.666733" x2="26.666667" y2="613.333267" class="t" />
<line x1="13.333333" y1="586.666733" x2="26.666667" y2="573.333267" class="t" />
<line x1="13.333333" y1="546.666733" x2="26.666667" y2="533.333267" class="t" />
<line x1="13.333333" y1="506.666733" x2="26.666667" y2="493.333267" class="t" />
<line x1="13.333333" y1="466.666667" x2="26.666667" y2="453.333200" class="t" />
<line x1="13.333333" y1="426.666600" x2="26.666667" y2="413.333200" class="t" />
<line x1="13.333333" y1="386.666600" x2="26.666667" y2="373.333200" class="t" />
<line x1="13.333333" y1="346.666600" x2="26.666667" y2="333.333200" class="t" />
<line x1="13.333333" y1="306.666600" x2="26.666667" y2="293.333200" class="t" />
<line x1="13.333333" y1="266.666600" x2="26.666667" y2="253.333200" class="t" />
<line x1="13.333333" y1="226.666600" x2="26.666667" y2="213.333200" class="t" />
<line x1="13.333333" y1="186.666600" x2="26.666667" y2="173.333200" class="t" />
<line x1="13.333333" y1="146.666600" x2="26.666667" y2="133.333200" class="t" />
<line x1="13.333333" y1="106.666600" x2="26.666667" y2="93.333200" class="t" />
<line x1="13.333333" y1="66.666600" x2="26.666667" y2="53.333267" class="t" />
<line x1="66.666667" y1="853.333133" x2="53.333333" y2="826.666467" class="t" />
<line x1="93.333333" y1="866.666600" x2="66.666667" y2="853.333133" class="t" />
<line x1="133.333333" y1="13.333333" x2="106.666667" y2="26.666667" class="t" />
<line x1="146.666667" y1="93.333333" x2="133.333333" y2="66.666667" class="t" />
<line x1="106.666667" y1="893.333400" x2="93.333333" y2="866.666600" class="t" />
<line x1="133.333333" y1="866.666867" x2="106.666667" y2="853.333400" class="t" />
<line x1="133.333333" y1="826.666867" x2="106.666667" y2="813.333400" class="t" />
<line x1="133.333333" y1="786.666867" x2="106.666667" y2="773.333400" class="t" />
<line x1="133.333333" y1="746.666867" x2="106.666667" y2="733.333400" class="t" />
<line x1="133.333333" y1="706.666867" x2="106.666667" y2="693.333400" class="t" />
<line x1="133.333333" y1="666.666867" x2="106.666667" y2="653.333400" class="t" />
<line x1="133.333333" y1="626.666867" x2="106.666667" y2="613.333400" class="t" />
<line x1="133.333333" y1="586.666867" x2="106.666667" y2="573.333400" class="t" />
<line x1="133.333333" y1="546.666867" x2="106.666667" y2="533.333400" class="t" />
<line x1="133.333333" y1="506.666867" x2="106.666667" y2="493.333400" class="t" />
<line x1="133.333333" y1="466.666800" x2="106.666667" y2="453.333333" class="t" />
<line x1="133.333333" y1="426.666667" x2="106.666667" y2="413.333267" class="t" />
<line x1="133.333333" y1="386.666667" x2="106.666667" y2="373.333267" class="t" />
<line x1="133.333333" y1="346.666667" x2="106.666667" y2="333.333267" class="t" />
<line x1="133.333333" y1="306.666667" x2="106.666667" y2="293.333267" class="t" />
<line x1="133.333333" y1="266.666667" x2="106.666667" y2="253.333267" class="t" />
<line x1="133.333333" y1="226.666667" x2="106.666667" y2="213.333267" class="t" />
<line x1="133.333333" y1="186.666667" x2="106.666667" y2="173.333267" class="t" />
<line x1="133.333333" y1="146.666667" x2="106.666667" y2="133.333267" class="t" />
<line x1="133.333333" y1="106.666667" x2="106.666667" y2="93.333267" class="t" />
<line x1="53.333333" y1="866.666467" x2="66.666667" y2="853.333133" class="t" />
<line x1="26.666667" y1="853.333267" x2="53.333333" y2="866.666467" class="t" />
<line x1="146.666667" y1="133.333333" x2="133.333333" y2="106.666667" class="t" />
<line x1="146.666667" y1="173.333333" x2="133.333333" y2="146.666667" class="t" />
<line x1="146.666667" y1="213.333333" x2="133.333333" y2="186.666667" class="t" />
<line x1="146.666667" y1="253.333333" x2="133.333333" y2="226.666667" class="t" />
<line x1="146.666667" y1="293.333333" x2="133.333333" y2="266.666667" class="t" />
<line x1="146.666667" y1="333.333333" x2="133.333333" y2="306.666667" class="t" />
<line x1="146.666667" y1="373.333333" x2="133.333333" y2="346.666667" class="t" />
<line x1="146.666667" y1="413.333333" x2="133.333333" y2="386.666667" class="t" />
<line x1="146.666667" y1="453.333400" x2="133.333333" y2="426.666667" class="t" />
<line x1="146.666667" y1="493.333533" x2="133.333333" y2="466.666800" class="t" />
<line x1="146.666667" y1="533.333533" x2="133.333333" y2="506.666867" class="t" />
<line x1="146.666667" y1="573.333533" x2="133.333333" y2="546.666867" class="t" />
<line x1="146.666667" y1="613.333533" x2="133.333333" y2="586.666867" class="t" />
<line x1="146.666667" y1="653.333533" x2="133.333333" y2="626.666867" class="t" />
<line x1="146.666667" y1="693.333533" x2="133.333333" y2="666.666867" class="t" />
<line x1="146.666667" y1="733.333533" x2="133.333333" y2="706.666867" class="t" />
<line x1="146.666667" y1="773.333533" x2="133.333333" y2="746.666867" class="t" />
<line x1="146.666667" y1="813.333533" x2="133.333333" y2="786.666867" class="t" />
<line x1="146.666667" y1="853.333533" x2="133.333333" y2="826.666867" class="t" />
<line x1="146.666667" y1="893.333533" x2="133.333333" y2="866.666867" class="t" />
<line x1="133.333333" y1="906.666867" x2="106.666667" y2="893.333400" class="t" />
<line x1="13.333333" y1="866.666733" x2="26.666667" y2="853.333267" class="t" />
<line x1="66.666667" y1="893.333133" x2="53.333333" y2="866.666467" class="t" />
<line x1="93.333333" y1="906.666600" x2="66.666667" y2="893.333133" class="t" />
<line x1="146.666667" y1="933.333533" x2="133.333333" y2="906.666867" class="t" />
<line x1="106.666667" y1="933.333400" x2="93.333333" y2="906.666600" class="t" />
<line x1="53.333333" y1="906.666467" x2="66.666667" y2="893.333133" class="t" />
<line x1="26.666667" y1="893.333267" x2="53.333333" y2="906.666467" class="t" />
<line x1="133.333333" y1="946.666867" x2="106.666667" y2="933.333400" class="t" />
<line x1="13.333333" y1="906.666733" x2="26.666667" y2="893.333267" class="t" />
<line x1="66.666667" y1="933.333133" x2="53.333333" y2="906.666467" class="t" />
<line x1="93.333333" y1="946.666600" x2="66.666667" y2="933.333133" class="t" />
<line x1="146.666667" y1="973.333533" x2="133.333333" y2="946.666867" class="t" />
<line x1="106.666667" y1="973.333400" x2="93.333333" y2="946.666600" class="t" />
<line x1="53.333333" y1="946.666467" x2="66.666667" y2="933.333133" class="t" />
<line x1="26.666667" y1="933.333267" x2="53.333333" y2="946.666467" class="t" />
<line x1="133.333333" y1="986.666867" x2="106.666667" y2="973.333400" class="t" />
<line x1="13.333333" y1="946.666733" x2="26.666667" y2="933.333267" class="t" />
<line x1="66.666667" y1="973.333133" x2="53.333333" y2="946.666467" class="t" />
<line x1="93.333333" y1="986.666600" x2="66.666667" y2="973.333133" class="t" />
<line x1="146.666667" y1="1013.333533" x2="133.333333" y2="986.666867" class="t" />
<line x1="106.666667" y1="1013.333400" x2="93.333333" y2="986.666600" class="t" />
<line x1="53.333333" y1="986.666467" x2="66.666667" y2="973.333133" class="t" />
<line x1="26.666667" y1="973.333267" x2="53.333333" y2="986.666467" class="t" />
<line x1="133.333333" y1="1026.666867" x2="106.666667" y2="1013.333400" class="t" />
<line x1="13.333333" y1="986.666733" x2="26.666667" y2="973.333267" class="t" />
<line x1="66.666667" y1="1013.333133" x2="53.333333" y2="986.666467" class="t" />
<line x1="93.333333" y1="1026.666600" x2="66.666667" y2="1013.333133" class="t" />
<line x1="146.666667" y1="1053.333533" x2="133.333333" y2="1026.666867" class="t" />
<line x1="106.666667" y1="1053.333400" x2="93.333333" y2="1026.666600" class="t" />
<line x1="53.333333" y1="1026.666467" x2="66.666667" y2="1013.333133" class="t" />
<line x1="26.666667" y1="1013.333267" x2="53.333333" y2="1026.666467" class="t" />
<line x1="133.333333" y1="1066.666867" x2="106.666667" y2="1053.333400" class="t" />
<line x1="13.333333" y1="1026.666733" x2="26.666667" y2="1013.333267" class="t" />
<line x1="66.666667" y1="1053.333133" x2="53.333333" y2="1026.666467" class="t" />
<line x1="93.333333" y1="1066.666600" x2="66.666667" y2="1053.333133" class="t" />
<line x1="146.666667" y1="1093.333533" x2="133.333333" y2="1066.666867" class="t" />
<line x1="106.666667" y1="1093.333400" x2="93.333333" y2="1066.666600" class="t" />
<line x1="53.333333" y1="1066.666467" x2="66.666667" y2="1053.333133" class="t" />
<line x1="26.666667" y1="1053.333267" x2="53.333333" y2="1066.666467" class="t" />
<line x1="133.333333" y1="1106.666867" x2="106.666667" y2="1093.333400" class="t" />
<line x1="13.333333" y1="1066.666733" x2="26.666667" y2="1053.333267" class="t" />
<line x1="66.666667" y1="1093.333133" x2="53.333333" y2="1066.666467" class="t" />
<line x1="93.333333" y1="1106.666600" x2="66.666667" y2="1093.333133" class="t" />
<line x1="146.666667" y1="1133.333533" x2="133.333333" y2="1106.666867" class="t" />
<line x1="106.666667" y1="1133.333400" x2="93.333333" y2="1106.666600" class="t" />
<line x1="53.333333" y1="1106.666467" x2="66.666667" y2="1093.333133" class="t" />
<line x1="26.666667" y1="1093.333267" x2="53.333333" y2="1106.666467" class="t" />
<line x1="133.333333" y1="1146.666867" x2="106.666667" y2="1133.333400" class="t" />
<line x1="13.333333" y1="1106.666733" x2="26.666667" y2="1093.333267" class="t" />
<line x1="66.666667" y1="1133.333133" x2="53.333333" y2="1106.666467" class="t" />
<line x1="93.333333" y1="1146.666600" x2="66.666667" y2="1133.333133" class="t" />
<line x1="146.666667" y1="1173.333533" x2="133.333333" y2="1146.666867" class="t" />
<line x1="106.666667" y1="1173.333400" x2="93.333333" y2="1146.666600" class="t" />
<line x1="53.333333" y1="1146.666467" x2="66.666667" y2="1133.333133" class="t" />
<line x1="26.666667" y1="1133.333267" x2="53.333333" y2="1146.666467" class="t" />
<line x1="133.333333" y1="1186.666867" x2="106.666667" y2="1173.333400" class="t" />
<line x1="13.333333" y1="1146.666733" x2="26.666667" y2="1133.333267" class="t" />
<line x1="66.666667" y1="1173.333133" x2="53.333333" y2="1146.666467" class="t" />
<line x1="93.333333" y1="1186.666600" x2="66.666667" y2="1173.333133" class="t" />
<line x1="146.666667" y1="1213.333533" x2="133.333333" y2="1186.666867" class="t" />
<line x1="106.666667" y1="1213.333400" x2="93.333333" y2="1186.666600" class="t" />
<line x1="53.333333" y1="1186.666467" x2="66.666667" y2="1173.333133" class="t" />
<line x1="26.666667" y1="1173.333267" x2="53.333333" y2="1186.666467" class="t" />
<line x1="133.333333" y1="1226.666867" x2="106.666667" y2="1213.333400" class="t" />
<line x1="13.333333" y1="1186.666733" x2="26.666667" y2="1173.333267" class="t" />
<line x1="66.666667" y1="1213.333200" x2="53.333333" y2="1186.666467" class="t" />
<line x1="93.333333" y1="1226.666667" x2="66.666667" y2="1213.333200" class="t" />
<line x1="146.666667" y1="1253.333533" x2="133.333333" y2="1226.666867" class="t" />
<line x1="106.666667" y1="1253.333467" x2="93.333333" y2="1226.666667" class="t" />
<line x1="53.333333" y1="1226.666600" x2="66.666667" y2="1213.333200" class="t" />
<line x1="26.666667" y1="1213.333333" x2="53.333333" y2="1226.666600" class="t" />
<line x1="133.333333" y1="1266.666867" x2="106.666667" y2="1253.333467" class="t" />
<line x1="13.333333" y1="1226.666800" x2="26.666667" y2="1213.333333" class="t" />
<line x1="66.666667" y1="1253.333333" x2="53.333333" y2="1226.666600" class="t" />
<line x1="93.333333" y1="1266.666733" x2="66.666667" y2="1253.333333" class="t" />
<line x1="146.666667" y1="1293.333533" x2="133.333333" y2="1266.666867" class="t" />
<line x1="106.666667" y1="1293.333467" x2="93.333333" y2="1266.666733" class="t" />
<line x1="53.333333" y1="1266.666667" x2="66.666667" y2="1253.333333" class="t" />
<line x1="26.666667" y1="1253.333400" x2="53.333333" y2="1266.666667" class="t" />
<line x1="133.333333" y1="1306.666867" x2="106.666667" y2="1293.333467" class="t" />
<line x1="13.333333" y1="1266.666800" x2="26.666667" y2="1253.333400" class="t" />
<line x1="66.666667" y1="1293.333333" x2="53.333333" y2="1266.666667" class="t" />
<line x1="93.333333" y1="1306.666733" x2="66.666667" y2="1293.333333" class="t" />
<line x1="146.666667" y1="1333.333533" x2="133.333333" y2="1306.666867" class="t" />
<line x1="106.666667" y1="1333.333467" x2="93.333333" y2="1306.666733" class="t" />
<line x1="53.333333" y1="1306.666667" x2="66.666667" y2="1293.333333" class="t" />
<line x1="26.666667" y1="1293.333400" x2="53.333333" y2="1306.666667" class="t" />
<line x1="133.333333" y1="1346.666867" x2="106.666667" y2="1333.333467" class="t" />
<line x1="13.333333" y1="1306.666800" x2="26.666667" y2="1293.333400" class="t" />
<line x1="66.666667" y1="1333.333333" x2="53.333333" y2="1306.666667" class="t" />
<line x1="93.333333" y1="1346.666733" x2="66.666667" y2="1333.333333" class="t" />
<line x1="146.666667" y1="1373.333533" x2="133.333333" y2="1346.666867" class="t" />
<line x1="106.666667" y1="1373.333467" x2="93.333333" y2="1346.666733" class="t" />
<line x1="53.333333" y1="1346.666667" x2="66.666667" y2="1333.333333" class="t" />
<line x1="26.666667" y1="1333.333400" x2="53.333333" y2="1346.666667" class="t" />
<line x1="133.333333" y1="1386.666867" x2="106.666667" y2="1373.333467" class="t" />
<line x1="13.333333" y1="1346.666800" x2="26.666667" y2="1333.333400" class="t" />
<line x1="66.666667" y1="1373.333333" x2="53.333333" y2="1346.666667" class="t" />
<line x1="93.333333" y1="1386.666733" x2="66.666667" y2="1373.333333" class="t" />
<line x1="146.666667" y1="1413.333533" x2="133.333333" y2="1386.666867" class="t" />
<line x1="106.666667" y1="1413.333467" x2="93.333333" y2="1386.666733" class="t" />
<line x1="53.333333" y1="1386.666667" x2="66.666667" y2="1373.333333" class="t" />
<line x1="26.666667" y1="1373.333400" x2="53.333333" y2="1386.666667" class="t" />
<line x1="133.333333" y1="1426.666867" x2="106.666667" y2="1413.333467" class="t" />
<line x1="13.333333" y1="1386.666800" x2="26.666667" y2="1373.333400" class="t" />
<line x1="66.666667" y1="1413.333333" x2="53.333333" y2="1386.666667" class="t" />
<line x1="93.333333" y1="1426.666733" x2="66.666667" y2="1413.333333" class="t" />
<line x1="146.666667" y1="1453.333533" x2="133.333333" y2="1426.666867" class="t" />
<line x1="106.666667" y1="1453.333467" x2="93.333333" y2="1426.666733" class="t" />
<line x1="53.333333" y1="1426.666667" x2="66.666667" y2="1413.333333" class="t" />
<line x1="26.666667" y1="1413.333400" x2="53.333333" y2="1426.666667" class="t" />
<line x1="133.333333" y1="1466.666867" x2="106.666667" y2="1453.333467" class="t" />
<line x1="13.333333" y1="1426.666800" x2="26.666667" y2="1413.333400" class="t" />
<line x1="66.666667" y1="1453.333333" x2="53.333333" y2="1426.666667" class="t" />
<line x1="93.333333" y1="1466.666733" x2="66.666667" y2="1453.333333" class="t" />
<line x1="146.666667" y1="1493.333533" x2="133.333333" y2="1466.666867" class="t" />
<line x1="106.666667" y1="1493.333467" x2="93.333333" y2="1466.666733" class="t" />
<line x1="53.333333" y1="1466.666667" x2="66.666667" y2="1453.333333" class="t" />
<line x1="26.666667" y1="1453.333400" x2="53.333333" y2="1466.666667" class="t" />
<line x1="133.333333" y1="1506.666867" x2="106.666667" y2="1493.333467" class="t" />
<line x1="13.333333" y1="1466.666800" x2="26.666667" y2="1453.333400" class="t" />
<line x1="66.666667" y1="1493.333333" x2="53.333333" y2="1466.666667" class="t" />
<line x1="93.333333" y1="1506.666733" x2="66.666667" y2="1493.333333" class="t" />
<line x1="146.666667" y1="1533.333533" x2="133.333333" y2="1506.666867" class="t" />
<line x1="106.666667" y1="1533.333467" x2="93.333333" y2="1506.666733" class="t" />
<line x1="53.333333" y1="1506.666667" x2="66.666667" y2="1493.333333" class="t" />
<line x1="26.666667" y1="1493.333400" x2="53.333333" y2="1506.666667" class="t" />
<line x1="133.333333" y1="1546.666867" x2="106.666667" y2="1533.333467" class="t" />
<line x1="13.333333" y1="1506.666800" x2="26.666667" y2="1493.333400" class="t" />
<line x1="66.666667" y1="1533.333333" x2="53.333333" y2="1506.666667" class="t" />
<line x1="93.333333" y1="1546.666733" x2="66.666667" y2="1533.333333" class="t" />
<line x1="146.666667" y1="1573.333533" x2="133.333333" y2="1546.666867" class="t" />
<line x1="106.666667" y1="1573.333467" x2="93.333333" y2="1546.666733" class="t" />
<line x1="53.333333" y1="1546.666667" x2="66.666667" y2="1533.333333" class="t" />
<line x1="26.666667" y1="1533.333400" x2="53.333333" y2="1546.666667" class="t" />
<line x1="133.333333" y1="1586.666867" x2="106.666667" y2="1573.333467" class="t" />
<line x1="13.333333" y1="1546.666800" x2="26.666667" y2="1533.333400" class="t" />
<line x1="66.666667" y1="1573.333333" x2="53.333333" y2="1546.666667" class="t" />
<line x1="93.333333" y1="1586.666733" x2="66.666667" y2="1573.333333" class="t" />
<line x1="146.666667" y1="1613.333467" x2="133.333333" y2="1586.666867" class="t" />
<line x1="106.666667" y1="1613.333400" x2="93.333333" y2="1586.666733" class="t" />
<line x1="53.333333" y1="1586.666667" x2="66.666667" y2="1573.333333" class="t" />
<line x1="26.666667" y1="1573.333400" x2="53.333333" y2="1586.666667" class="t" />
<line x1="133.333333" y1="1626.666733" x2="106.666667" y2="1613.333400" class="t" />
<line x1="13.333333" y1="1586.666800" x2="26.666667" y2="1573.333400" class="t" />
<line x1="66.666667" y1="1613.333333" x2="53.333333" y2="1586.666667" class="t" />
<line x1="93.333333" y1="1626.666667" x2="66.666667" y2="1613.333333" class="t" />
<line x1="93.333333" y1="1653.333333" x2="93.333333" y2="1626.666667" class="t" />
<line x1="53.333333" y1="1626.666667" x2="66.666667" y2="1613.333333" class="t" />
<line x1="26.666667" y1="1613.333400" x2="53.333333" y2="1626.666667" class="t" />
<line x1="106.666667" y1="1666.666667" x2="93.333333" y2="1653.333333" class="t" />
<line x1="13.333333" y1="1626.666733" x2="26.666667" y2="1613.333400" class="t" />
</svg>
