<?xml version="1.0"?>
<svg width="2560" height="199" version="1.1" xmlns="http://www.w3.org/2000/svg" >
<defs>
<style type="text/css"><![CDATA[
.m {stroke:rgb(255,0,0);stroke-width:3.200000;}
.v {stroke:rgb(0,0,255);stroke-width:3.200000;}
.b {stroke:rgb(0,0,0);stroke-width:6.400000;fill:white}
.n {stroke:rgb(128,128,128);stroke-width:3.200000}
.t {stroke:rgb(0,128,0);stroke-width:3.200000;}
.c {stroke:rgb(128,128,128);stroke-width:3.200000;stroke-dasharray:25.600000, 25.600000;}
]]></style>
</defs>
<path fill="none" style="stroke:black;stroke-width:6.400000;" d=" M 2520 120 L 2560 160 M 2560 160 L 2560 120 M 2480 160 L 2520 120 M 2480 120 L 2440 160 M 2440 160 L 2480 160 M 2440 160 L 2480 120 M 2440 120 L 2400 160 M 2400 160 L 2440 160 M 2400 160 L 2440 120 M 2400 120 L 2360 160 M 2360 160 L 2400 160 M 2360 160 L 2400 120 M 2360 120 L 2320 160 M 2320 160 L 2360 160 M 2320 160 L 2360 120 M 2320 120 L 2280 160 M 2280 160 L 2320 160 M 2280 160 L 2320 120 M 2280 120 L 2240 160 M 2240 160 L 2280 160 M 2240 160 L 2280 120 M 2240 120 L 2200 160 M 2200 160 L 2240 160 M 2200 160 L 2240 120 M 2200 120 L 2160 160 M 2160 160 L 2200 160 M 2160 160 L 2200 120 M 2160 120 L 2120 160 M 2120 160 L 2160 160 M 2120 160 L 2160 120 M 2120 120 L 2080 160 M 2080 160 L 2120 160 M 2080 160 L 2120 120 M 2080 120 L 2040 160 M 2040 160 L 2080 160 M 2040 160 L 2080 120 M 2040 120 L 2000 160 M 2000 160 L 2040 160 M 2000 160 L 2040 120 M 2000 120 L 1960 160 M 1960 160 L 2000 160 M 1960 160 L 2000 120 M 1960 120 L 1920 160 M 1920 160 L 1960 160 M 1920 160 L 1960 120 M 1920 120 L 1880 160 M 1880 160 L 1920 160 M 1880 160 L 1920 120 M 1880 120 L 1840 160 M 1840 160 L 1880 160 M 1840 160 L 1880 120 M 1840 120 L 1800 160 M 1800 160 L 1840 160 M 1800 160 L 1840 120 M 1800 120 L 1760 160 M 1760 160 L 1800 120 M 1760 120 L 1720 160 M 1720 160 L 1760 120 M 1720 120 L 1680 160 M 1680 160 L 1720 120 M 880 160 L 920 160 M 920 120 L 880 120 M 840 160 L 880 160 M 880 120 L 840 120 M 800 160 L 840 160 M 840 120 L 800 120 M 760 160 L 800 160 M 800 120 L 760 120 M 720 160 L 760 160 M 760 120 L 720 120 M 680 160 L 720 160 M 720 120 L 680 120 M 640 160 L 680 160 M 680 120 L 640 120 M 600 160 L 640 160 M 640 120 L 600 120 M 560 160 L 600 160 M 600 120 L 560 120 M 520 160 L 560 160 M 560 120 L 520 120 M 480 160 L 520 160 M 520 120 L 480 120 M 440 160 L 480 160 M 480 120 L 440 120 M 400 160 L 440 160 M 440 120 L 400 120 M 360 160 L 400 160 M 400 120 L 360 120 M 320 160 L 360 160 M 360 120 L 320 120 M 280 160 L 320 160 M 320 120 L 280 120 M 240 160 L 280 160 M 280 120 L 240 120 M 200 160 L 240 160 M 240 120 L 200 120 M 160 160 L 200 160 M 200 120 L 160 120 M 120 160 L 160 160 M 160 120 L 120 120 M 80 160 L 120 160 M 120 120 L 80 120 M 40 160 L 80 160 M 80 120 L 40 120 M 40 120 L 0 160 M 0 160 L 40 160 M 1800 39.9998 L 1760 79.9998 M 1800 79.9998 L 1840 39.9998 M 1840 39.9998 L 1800 39.9998 M 1840 39.9998 L 1800 79.9998 M 1840 79.9998 L 1880 39.9998 M 1880 39.9998 L 1840 39.9998 M 1880 39.9998 L 1840 79.9998 M 1880 79.9998 L 1920 39.9998 M 1920 39.9998 L 1880 39.9998 M 1920 39.9998 L 1880 79.9998 M 1920 79.9998 L 1960 39.9998 M 1960 39.9998 L 1920 39.9998 M 1960 39.9998 L 1920 79.9998 M 1960 79.9998 L 2000 39.9998 M 2000 39.9998 L 1960 39.9998 M 2000 39.9998 L 1960 79.9998 M 2000 79.9998 L 2040 39.9998 M 2040 39.9998 L 2000 39.9998 M 2040 39.9998 L 2000 79.9998 M 2040 79.9998 L 2080 39.9998 M 2080 39.9998 L 2040 39.9998 M 2080 39.9998 L 2040 79.9998 M 2080 79.9998 L 2120 39.9998 M 2120 39.9998 L 2080 39.9998 M 2120 39.9998 L 2080 79.9998 M 2120 79.9998 L 2160 39.9998 M 2160 39.9998 L 2120 39.9998 M 2160 39.9998 L 2120 79.9998 M 2160 79.9998 L 2200 39.9998 M 2200 39.9998 L 2160 39.9998 M 2200 39.9998 L 2160 79.9998 M 2200 79.9998 L 2240 39.9998 M 2240 39.9998 L 2200 39.9998 M 2240 39.9998 L 2200 79.9998 M 2240 79.9998 L 2280 39.9998 M 2280 39.9998 L 2240 39.9998 M 2280 39.9998 L 2240 79.9998 M 2280 79.9998 L 2320 39.9998 M 2320 39.9998 L 2280 39.9998 M 2320 39.9998 L 2280 79.9998 M 2320 79.9998 L 2360 39.9998 M 2360 39.9998 L 2320 39.9998 M 2360 39.9998 L 2320 79.9998 M 2360 79.9998 L 2400 39.9998 M 2400 39.9998 L 2360 39.9998 M 2400 39.9998 L 2360 79.9998 M 2400 79.9998 L 2440 39.9998 M 2440 39.9998 L 2400 39.9998 M 2440 39.9998 L 2400 79.9998 M 2440 79.9998 L 2480 39.9998 M 2480 39.9998 L 2440 39.9998 M 2480 39.9998 L 2440 79.9998 M 2480 79.9998 L 2520 39.9998 M 2520 39.9998 L 2480 39.9998 M 2520 39.9998 L 2480 79.9998 M 2520 79.9998 L 2560 39.9998 M 2560 120 L 2520 79.9998 M 1760 79.9998 L 1720 79.9998 M 1720 79.9998 L 1680 79.9998 M 1680 79.9998 L 1680 120 M 1680 120 L 1680 79.9998 M 1680 79.9998 L 1640 79.9998 M 1640 79.9998 L 1640 120 M 1640 120 L 1640 79.9998 M 1640 79.9998 L 1600 79.9998 M 1600 79.9998 L 1600 120 M 1600 120 L 1600 79.9998 M 1600 79.9998 L 1560 79.9998 M 1560 79.9998 L 1560 120 M 1560 120 L 1560 79.9998 M 1560 79.9998 L 1520 79.9998 M 1520 79.9998 L 1520 120 M 1520 120 L 1520 79.9998 M 1520 79.9998 L 1480 79.9998 M 1480 79.9998 L 1480 120 M 1480 120 L 1480 79.9998 M 1480 79.9998 L 1440 79.9998 M 1440 79.9998 L 1440 120 M 1440 120 L 1440 79.9998 M 1440 79.9998 L 1400 79.9998 M 1400 79.9998 L 1400 120 M 1400 120 L 1400 79.9998 M 1400 79.9998 L 1360 79.9998 M 1360 79.9998 L 1360 120 M 1360 120 L 1360 79.9998 M 1360 79.9998 L 1320 79.9998 M 1320 79.9998 L 1320 120 M 1320 120 L 1320 79.9998 M 1320 79.9998 L 1280 79.9998 M 1280 79.9998 L 1280 120 M 1280 120 L 1280 79.9998 M 1280 79.9998 L 1240 79.9998 M 1240 79.9998 L 1240 120 M 1240 120 L 1240 79.9998 M 1240 79.9998 L 1200 79.9998 M 1200 79.9998 L 1200 120 M 1200 120 L 1200 79.9998 M 1200 79.9998 L 1160 79.9998 M 1160 79.9998 L 1160 120 M 1160 120 L 1160 79.9998 M 1160 79.9998 L 1120 79.9998 M 1120 79.9998 L 1120 120 M 1120 120 L 1120 79.9998 M 1120 79.9998 L 1080 79.9998 M 1080 79.9998 L 1080 120 M 1080 120 L 1080 79.9998 M 1080 79.9998 L 1040 79.9998 M 1040 79.9998 L 1040 120 M 1040 120 L 1040 79.9998 M 1040 79.9998 L 1000 79.9998 M 1000 79.9998 L 1000 120 M 1000 120 L 1000 79.9998 M 1000 79.9998 L 960 79.9998 M 960 79.9998 L 960 120 M 960 120 L 960 79.9998 M 960 79.9998 L 920 79.9998 M 920 79.9998 L 920 120 M 2560 39.9998 L 2520 0 M 2520 0 L 2520 39.9998 M 2520 160 L 2480 160 M 2480 200 L 2520 160 M 2440 200 L 2480 200 M 2480 160 L 2440 160 M 2400 200 L 2440 200 M 2440 160 L 2400 160 M 2360 200 L 2400 200 M 2400 160 L 2360 160 M 2320 200 L 2360 200 M 2360 160 L 2320 160 M 2280 200 L 2320 200 M 2320 160 L 2280 160 M 2240 200 L 2280 200 M 2280 160 L 2240 160 M 2200 200 L 2240 200 M 2240 160 L 2200 160 M 2160 200 L 2200 200 M 2200 160 L 2160 160 M 2120 200 L 2160 200 M 2160 160 L 2120 160 M 2080 200 L 2120 200 M 2120 160 L 2080 160 M 2040 200 L 2080 200 M 2080 160 L 2040 160 M 2000 200 L 2040 200 M 2040 160 L 2000 160 M 1960 200 L 2000 200 M 2000 160 L 1960 160 M 1920 200 L 1960 200 M 1960 160 L 1920 160 M 1880 200 L 1920 200 M 1920 160 L 1880 160 M 1840 200 L 1880 200 M 1880 160 L 1840 160 M 1800 200 L 1840 200 M 1840 160 L 1800 160 M 1760 200 L 1800 200 M 1760 160 L 1720 200 M 1720 200 L 1760 200 M 1720 200 L 1760 160 M 1720 160 L 1680 200 M 1680 200 L 1720 200 M 1680 200 L 1720 160 M 1680 160 L 1640 200 M 1640 200 L 1680 200 M 1640 200 L 1680 160 M 1640 160 L 1600 200 M 1600 200 L 1640 200 M 1600 200 L 1640 160 M 1600 160 L 1560 200 M 1560 200 L 1600 200 M 1560 200 L 1600 160 M 1560 160 L 1520 200 M 1520 200 L 1560 200 M 1520 200 L 1560 160 M 1520 160 L 1480 200 M 1480 200 L 1520 200 M 1480 200 L 1520 160 M 1480 160 L 1440 200 M 1440 200 L 1480 200 M 1440 200 L 1480 160 M 1440 160 L 1400 200 M 1400 200 L 1440 200 M 1400 200 L 1440 160 M 1400 160 L 1360 200 M 1360 200 L 1400 200 M 1360 200 L 1400 160 M 1360 160 L 1320 200 M 1320 200 L 1360 200 M 1320 200 L 1360 160 M 1320 160 L 1280 200 M 1280 200 L 1320 200 M 1280 200 L 1320 160 M 1280 160 L 1240 200 M 1240 200 L 1280 200 M 1240 200 L 1280 160 M 1240 160 L 1200 200 M 1200 200 L 1240 200 M 1200 200 L 1240 160 M 1200 160 L 1160 200 M 1160 200 L 1200 200 M 1160 200 L 1200 160 M 1160 160 L 1120 200 M 1120 200 L 1160 200 M 1120 200 L 1160 160 M 1120 160 L 1080 200 M 1080 200 L 1120 200 M 1080 200 L 1120 160 M 1080 160 L 1040 200 M 1040 200 L 1080 200 M 1040 200 L 1080 160 M 1040 160 L 1000 200 M 1000 200 L 1040 200 M 1000 200 L 1040 160 M 1000 160 L 960 200 M 960 200 L 1000 200 M 960 200 L 1000 160 M 960 160 L 920 200 M 920 200 L 960 200 M 920 160 L 920 200 M 920 200 L 960 160" />
<path fill="none" class="c" d=" M 1720 120 L 1760 120 M 1680 120 L 1720 120 M 1680 160 L 1720 160 M 1640 160 L 1680 160 M 1680 120 L 1640 120 M 1600 160 L 1640 160 M 1640 120 L 1600 120 M 1560 160 L 1600 160 M 1600 120 L 1560 120 M 1520 160 L 1560 160 M 1560 120 L 1520 120 M 1480 160 L 1520 160 M 1520 120 L 1480 120 M 1440 160 L 1480 160 M 1480 120 L 1440 120 M 1400 160 L 1440 160 M 1440 120 L 1400 120 M 1360 160 L 1400 160 M 1400 120 L 1360 120 M 1320 160 L 1360 160 M 1360 120 L 1320 120 M 1280 160 L 1320 160 M 1320 120 L 1280 120 M 1240 160 L 1280 160 M 1280 120 L 1240 120 M 1200 160 L 1240 160 M 1240 120 L 1200 120 M 1160 160 L 1200 160 M 1200 120 L 1160 120 M 1120 160 L 1160 160 M 1160 120 L 1120 120 M 1080 160 L 1120 160 M 1120 120 L 1080 120 M 1040 160 L 1080 160 M 1080 120 L 1040 120 M 1000 160 L 1040 160 M 1040 120 L 1000 120 M 960 160 L 1000 160 M 1000 120 L 960 120 M 920 160 L 960 160 M 920 120 L 920 160 M 960 120 L 920 120 M 880 120 L 880 160 M 1800 79.9998 L 1760 79.9998 M 1760 120 L 1800 120 M 1720 160 L 1760 160 M 1840 79.9998 L 1800 79.9998 M 1800 120 L 1840 120 M 1760 160 L 1800 160 M 1880 79.9998 L 1840 79.9998 M 1840 120 L 1880 120 M 1920 79.9998 L 1880 79.9998 M 1880 120 L 1920 120 M 1960 79.9998 L 1920 79.9998 M 1920 120 L 1960 120 M 2000 79.9998 L 1960 79.9998 M 1960 120 L 2000 120 M 2040 79.9998 L 2000 79.9998 M 2000 120 L 2040 120 M 2080 79.9998 L 2040 79.9998 M 2040 120 L 2080 120 M 2120 79.9998 L 2080 79.9998 M 2080 120 L 2120 120 M 2160 79.9998 L 2120 79.9998 M 2120 120 L 2160 120 M 2200 79.9998 L 2160 79.9998 M 2160 120 L 2200 120 M 2240 79.9998 L 2200 79.9998 M 2200 120 L 2240 120 M 2280 79.9998 L 2240 79.9998 M 2240 120 L 2280 120 M 2320 79.9998 L 2280 79.9998 M 2280 120 L 2320 120 M 2360 79.9998 L 2320 79.9998 M 2320 120 L 2360 120 M 2400 79.9998 L 2360 79.9998 M 2360 120 L 2400 120 M 2440 79.9998 L 2400 79.9998 M 2400 120 L 2440 120 M 2480 79.9998 L 2440 79.9998 M 2440 120 L 2480 120 M 2520 79.9998 L 2480 79.9998 M 2520 79.9998 L 2520 39.9998 M 2560 39.9998 L 2520 39.9998 M 2520 120 L 2520 79.9998 M 2480 120 L 2520 120 M 2520 120 L 2560 120" />
<line x1="1773.333600" y1="93.333133" x2="1746.666800" y2="106.666467" class="t" />
<line x1="1733.333333" y1="133.333133" x2="1746.666800" y2="106.666467" class="t" />
<line x1="1733.333600" y1="93.333133" x2="1746.666800" y2="106.666467" class="t" />
<line x1="1706.666800" y1="106.666467" x2="1733.333600" y2="93.333133" class="t" />
<line x1="1693.333333" y1="133.333133" x2="1706.666800" y2="106.666467" class="t" />
<line x1="1693.333600" y1="93.333133" x2="1706.666800" y2="106.666467" class="t" />
<line x1="1706.666667" y1="146.666467" x2="1733.333333" y2="133.333133" class="t" />
<line x1="1693.333467" y1="173.333133" x2="1706.666667" y2="146.666467" class="t" />
<line x1="1666.666667" y1="146.666467" x2="1693.333333" y2="133.333133" class="t" />
<line x1="1653.333333" y1="133.333133" x2="1666.666667" y2="146.666467" class="t" />
<line x1="1653.333467" y1="173.333133" x2="1666.666667" y2="146.666467" class="t" />
<line x1="1626.666667" y1="146.666467" x2="1653.333333" y2="133.333133" class="t" />
<line x1="1666.666800" y1="106.666467" x2="1653.333333" y2="133.333133" class="t" />
<line x1="1613.333333" y1="133.333133" x2="1626.666667" y2="146.666467" class="t" />
<line x1="1613.333467" y1="173.333133" x2="1626.666667" y2="146.666467" class="t" />
<line x1="1586.666667" y1="146.666467" x2="1613.333333" y2="133.333133" class="t" />
<line x1="1626.666800" y1="106.666467" x2="1613.333333" y2="133.333133" class="t" />
<line x1="1573.333333" y1="133.333133" x2="1586.666667" y2="146.666467" class="t" />
<line x1="1573.333467" y1="173.333133" x2="1586.666667" y2="146.666467" class="t" />
<line x1="1546.666667" y1="146.666467" x2="1573.333333" y2="133.333133" class="t" />
<line x1="1586.666800" y1="106.666467" x2="1573.333333" y2="133.333133" class="t" />
<line x1="1533.333333" y1="133.333133" x2="1546.666667" y2="146.666467" class="t" />
<line x1="1533.333467" y1="173.333133" x2="1546.666667" y2="146.666467" class="t" />
<line x1="1506.666667" y1="146.666467" x2="1533.333333" y2="133.333133" class="t" />
<line x1="1546.666800" y1="106.666467" x2="1533.333333" y2="133.333133" class="t" />
<line x1="1493.333333" y1="133.333133" x2="1506.666667" y2="146.666467" class="t" />
<line x1="1493.333467" y1="173.333133" x2="1506.666667" y2="146.666467" class="t" />
<line x1="1466.666667" y1="146.666467" x2="1493.333333" y2="133.333133" class="t" />
<line x1="1506.666800" y1="106.666467" x2="1493.333333" y2="133.333133" class="t" />
<line x1="1453.333333" y1="133.333133" x2="1466.666667" y2="146.666467" class="t" />
<line x1="1453.333467" y1="173.333133" x2="1466.666667" y2="146.666467" class="t" />
<line x1="1426.666667" y1="146.666467" x2="1453.333333" y2="133.333133" class="t" />
<line x1="1466.666800" y1="106.666467" x2="1453.333333" y2="133.333133" class="t" />
<line x1="1413.333333" y1="133.333133" x2="1426.666667" y2="146.666467" class="t" />
<line x1="1413.333467" y1="173.333133" x2="1426.666667" y2="146.666467" class="t" />
<line x1="1386.666667" y1="146.666467" x2="1413.333333" y2="133.333133" class="t" />
<line x1="1426.666800" y1="106.666467" x2="1413.333333" y2="133.333133" class="t" />
<line x1="1373.333333" y1="133.333133" x2="1386.666667" y2="146.666467" class="t" />
<line x1="1373.333467" y1="173.333133" x2="1386.666667" y2="146.666467" class="t" />
<line x1="1346.666667" y1="146.666467" x2="1373.333333" y2="133.333133" class="t" />
<line x1="1386.666800" y1="106.666467" x2="1373.333333" y2="133.333133" class="t" />
<line x1="1333.333333" y1="133.333133" x2="1346.666667" y2="146.666467" class="t" />
<line x1="1333.333400" y1="173.333133" x2="1346.666667" y2="146.666467" class="t" />
<line x1="1306.666667" y1="146.666467" x2="1333.333333" y2="133.333133" class="t" />
<line x1="1346.666800" y1="106.666467" x2="1333.333333" y2="133.333133" class="t" />
<line x1="1293.333333" y1="133.333133" x2="1306.666667" y2="146.666467" class="t" />
<line x1="1293.333400" y1="173.333133" x2="1306.666667" y2="146.666467" class="t" />
<line x1="1266.666667" y1="146.666467" x2="1293.333333" y2="133.333133" class="t" />
<line x1="1306.666733" y1="106.666467" x2="1293.333333" y2="133.333133" class="t" />
<line x1="1253.333333" y1="133.333133" x2="1266.666667" y2="146.666467" class="t" />
<line x1="1253.333400" y1="173.333133" x2="1266.666667" y2="146.666467" class="t" />
<line x1="1226.666667" y1="146.666467" x2="1253.333333" y2="133.333133" class="t" />
<line x1="1266.666733" y1="106.666467" x2="1253.333333" y2="133.333133" class="t" />
<line x1="1213.333333" y1="133.333133" x2="1226.666667" y2="146.666467" class="t" />
<line x1="1213.333400" y1="173.333133" x2="1226.666667" y2="146.666467" class="t" />
<line x1="1186.666667" y1="146.666467" x2="1213.333333" y2="133.333133" class="t" />
<line x1="1226.666733" y1="106.666467" x2="1213.333333" y2="133.333133" class="t" />
<line x1="1173.333333" y1="133.333133" x2="1186.666667" y2="146.666467" class="t" />
<line x1="1173.333400" y1="173.333133" x2="1186.666667" y2="146.666467" class="t" />
<line x1="1146.666667" y1="146.666467" x2="1173.333333" y2="133.333133" class="t" />
<line x1="1186.666733" y1="106.666467" x2="1173.333333" y2="133.333133" class="t" />
<line x1="1133.333333" y1="133.333133" x2="1146.666667" y2="146.666467" class="t" />
<line x1="1133.333400" y1="173.333133" x2="1146.666667" y2="146.666467" class="t" />
<line x1="1106.666667" y1="146.666467" x2="1133.333333" y2="133.333133" class="t" />
<line x1="1146.666733" y1="106.666467" x2="1133.333333" y2="133.333133" class="t" />
<line x1="1093.333333" y1="133.333133" x2="1106.666667" y2="146.666467" class="t" />
<line x1="1093.333400" y1="173.333133" x2="1106.666667" y2="146.666467" class="t" />
<line x1="1066.666667" y1="146.666467" x2="1093.333333" y2="133.333133" class="t" />
<line x1="1106.666733" y1="106.666467" x2="1093.333333" y2="133.333133" class="t" />
<line x1="1053.333333" y1="133.333133" x2="1066.666667" y2="146.666467" class="t" />
<line x1="1053.333400" y1="173.333133" x2="1066.666667" y2="146.666467" class="t" />
<line x1="1026.666667" y1="146.666467" x2="1053.333333" y2="133.333133" class="t" />
<line x1="1066.666733" y1="106.666467" x2="1053.333333" y2="133.333133" class="t" />
<line x1="1013.333333" y1="133.333133" x2="1026.666667" y2="146.666467" class="t" />
<line x1="1013.333400" y1="173.333133" x2="1026.666667" y2="146.666467" class="t" />
<line x1="986.666667" y1="146.666467" x2="1013.333333" y2="133.333133" class="t" />
<line x1="1026.666733" y1="106.666467" x2="1013.333333" y2="133.333133" class="t" />
<line x1="973.333333" y1="133.333133" x2="986.666667" y2="146.666467" class="t" />
<line x1="973.333400" y1="173.333133" x2="986.666667" y2="146.666467" class="t" />
<line x1="946.666733" y1="146.666467" x2="973.333333" y2="133.333133" class="t" />
<line x1="986.666733" y1="106.666467" x2="973.333333" y2="133.333133" class="t" />
<line x1="933.333467" y1="133.333133" x2="946.666733" y2="146.666467" class="t" />
<line x1="933.333467" y1="173.333133" x2="946.666733" y2="146.666467" class="t" />
<line x1="906.666867" y1="146.666467" x2="933.333467" y2="133.333133" class="t" />
<line x1="946.666800" y1="106.666467" x2="933.333467" y2="133.333133" class="t" />
<line x1="893.333533" y1="133.333133" x2="906.666867" y2="146.666467" class="t" />
<line x1="866.666867" y1="146.666467" x2="893.333533" y2="133.333133" class="t" />
<line x1="853.333533" y1="133.333133" x2="866.666867" y2="146.666467" class="t" />
<line x1="826.666867" y1="146.666467" x2="853.333533" y2="133.333133" class="t" />
<line x1="813.333533" y1="133.333133" x2="826.666867" y2="146.666467" class="t" />
<line x1="786.666867" y1="146.666467" x2="813.333533" y2="133.333133" class="t" />
<line x1="773.333533" y1="133.333133" x2="786.666867" y2="146.666467" class="t" />
<line x1="746.666867" y1="146.666467" x2="773.333533" y2="133.333133" class="t" />
<line x1="733.333533" y1="133.333133" x2="746.666867" y2="146.666467" class="t" />
<line x1="706.666867" y1="146.666467" x2="733.333533" y2="133.333133" class="t" />
<line x1="693.333533" y1="133.333133" x2="706.666867" y2="146.666467" class="t" />
<line x1="666.666867" y1="146.666467" x2="693.333533" y2="133.333133" class="t" />
<line x1="653.333533" y1="133.333133" x2="666.666867" y2="146.666467" class="t" />
<line x1="626.666867" y1="146.666467" x2="653.333533" y2="133.333133" class="t" />
<line x1="613.333533" y1="133.333133" x2="626.666867" y2="146.666467" class="t" />
<line x1="586.666867" y1="146.666467" x2="613.333533" y2="133.333133" class="t" />
<line x1="573.333533" y1="133.333133" x2="586.666867" y2="146.666467" class="t" />
<line x1="546.666867" y1="146.666467" x2="573.333533" y2="133.333133" class="t" />
<line x1="533.333533" y1="133.333133" x2="546.666867" y2="146.666467" class="t" />
<line x1="506.666867" y1="146.666467" x2="533.333533" y2="133.333133" class="t" />
<line x1="493.333533" y1="133.333133" x2="506.666867" y2="146.666467" class="t" />
<line x1="466.666800" y1="146.666467" x2="493.333533" y2="133.333133" class="t" />
<line x1="453.333400" y1="133.333133" x2="466.666800" y2="146.666467" class="t" />
<line x1="426.666667" y1="146.666467" x2="453.333400" y2="133.333133" class="t" />
<line x1="413.333333" y1="133.333133" x2="426.666667" y2="146.666467" class="t" />
<line x1="386.666667" y1="146.666467" x2="413.333333" y2="133.333133" class="t" />
<line x1="373.333333" y1="133.333133" x2="386.666667" y2="146.666467" class="t" />
<line x1="346.666667" y1="146.666467" x2="373.333333" y2="133.333133" class="t" />
<line x1="333.333333" y1="133.333133" x2="346.666667" y2="146.666467" class="t" />
<line x1="306.666667" y1="146.666467" x2="333.333333" y2="133.333133" class="t" />
<line x1="293.333333" y1="133.333133" x2="306.666667" y2="146.666467" class="t" />
<line x1="266.666667" y1="146.666467" x2="293.333333" y2="133.333133" class="t" />
<line x1="253.333333" y1="133.333133" x2="266.666667" y2="146.666467" class="t" />
<line x1="226.666667" y1="146.666467" x2="253.333333" y2="133.333133" class="t" />
<line x1="213.333333" y1="133.333133" x2="226.666667" y2="146.666467" class="t" />
<line x1="186.666667" y1="146.666467" x2="213.333333" y2="133.333133" class="t" />
<line x1="173.333333" y1="133.333133" x2="186.666667" y2="146.666467" class="t" />
<line x1="146.666667" y1="146.666467" x2="173.333333" y2="133.333133" class="t" />
<line x1="133.333333" y1="133.333133" x2="146.666667" y2="146.666467" class="t" />
<line x1="106.666667" y1="146.666467" x2="133.333333" y2="133.333133" class="t" />
<line x1="93.333333" y1="133.333133" x2="106.666667" y2="146.666467" class="t" />
<line x1="66.666667" y1="146.666467" x2="93.333333" y2="133.333133" class="t" />
<line x1="53.333333" y1="133.333133" x2="66.666667" y2="146.666467" class="t" />
<line x1="26.666667" y1="146.666467" x2="53.333333" y2="133.333133" class="t" />
<line x1="1786.666800" y1="106.666467" x2="1773.333600" y2="93.333133" class="t" />
<line x1="1786.667067" y1="66.666467" x2="1773.333600" y2="93.333133" class="t" />
<line x1="1653.333600" y1="93.333133" x2="1666.666800" y2="106.666467" class="t" />
<line x1="1613.333600" y1="93.333133" x2="1626.666800" y2="106.666467" class="t" />
<line x1="1573.333600" y1="93.333133" x2="1586.666800" y2="106.666467" class="t" />
<line x1="1533.333600" y1="93.333133" x2="1546.666800" y2="106.666467" class="t" />
<line x1="1493.333600" y1="93.333133" x2="1506.666800" y2="106.666467" class="t" />
<line x1="1453.333600" y1="93.333133" x2="1466.666800" y2="106.666467" class="t" />
<line x1="1413.333600" y1="93.333133" x2="1426.666800" y2="106.666467" class="t" />
<line x1="1373.333600" y1="93.333133" x2="1386.666800" y2="106.666467" class="t" />
<line x1="1333.333533" y1="93.333133" x2="1346.666800" y2="106.666467" class="t" />
<line x1="1293.333467" y1="93.333133" x2="1306.666733" y2="106.666467" class="t" />
<line x1="1253.333467" y1="93.333133" x2="1266.666733" y2="106.666467" class="t" />
<line x1="1213.333467" y1="93.333133" x2="1226.666733" y2="106.666467" class="t" />
<line x1="1173.333467" y1="93.333133" x2="1186.666733" y2="106.666467" class="t" />
<line x1="1133.333467" y1="93.333133" x2="1146.666733" y2="106.666467" class="t" />
<line x1="1093.333467" y1="93.333133" x2="1106.666733" y2="106.666467" class="t" />
<line x1="1053.333467" y1="93.333133" x2="1066.666733" y2="106.666467" class="t" />
<line x1="1013.333467" y1="93.333133" x2="1026.666733" y2="106.666467" class="t" />
<line x1="973.333467" y1="93.333133" x2="986.666733" y2="106.666467" class="t" />
<line x1="933.333533" y1="93.333133" x2="946.666800" y2="106.666467" class="t" />
<line x1="1666.666933" y1="186.666467" x2="1693.333467" y2="173.333133" class="t" />
<line x1="1626.666933" y1="186.666467" x2="1653.333467" y2="173.333133" class="t" />
<line x1="1586.666933" y1="186.666467" x2="1613.333467" y2="173.333133" class="t" />
<line x1="1546.666933" y1="186.666467" x2="1573.333467" y2="173.333133" class="t" />
<line x1="1506.666933" y1="186.666467" x2="1533.333467" y2="173.333133" class="t" />
<line x1="1466.666933" y1="186.666467" x2="1493.333467" y2="173.333133" class="t" />
<line x1="1426.666933" y1="186.666467" x2="1453.333467" y2="173.333133" class="t" />
<line x1="1386.666933" y1="186.666467" x2="1413.333467" y2="173.333133" class="t" />
<line x1="1346.666867" y1="186.666467" x2="1373.333467" y2="173.333133" class="t" />
<line x1="1306.666800" y1="186.666467" x2="1333.333400" y2="173.333133" class="t" />
<line x1="1266.666800" y1="186.666467" x2="1293.333400" y2="173.333133" class="t" />
<line x1="1226.666800" y1="186.666467" x2="1253.333400" y2="173.333133" class="t" />
<line x1="1186.666800" y1="186.666467" x2="1213.333400" y2="173.333133" class="t" />
<line x1="1146.666800" y1="186.666467" x2="1173.333400" y2="173.333133" class="t" />
<line x1="1106.666800" y1="186.666467" x2="1133.333400" y2="173.333133" class="t" />
<line x1="1066.666800" y1="186.666467" x2="1093.333400" y2="173.333133" class="t" />
<line x1="1026.666800" y1="186.666467" x2="1053.333400" y2="173.333133" class="t" />
<line x1="986.666800" y1="186.666467" x2="1013.333400" y2="173.333133" class="t" />
<line x1="946.666800" y1="186.666467" x2="973.333400" y2="173.333133" class="t" />
<line x1="1813.333733" y1="53.333133" x2="1786.667067" y2="66.666467" class="t" />
<line x1="1813.333600" y1="93.333133" x2="1786.666800" y2="106.666467" class="t" />
<line x1="1773.333333" y1="133.333133" x2="1786.666800" y2="106.666467" class="t" />
<line x1="1746.666667" y1="146.666467" x2="1773.333333" y2="133.333133" class="t" />
<line x1="1733.333467" y1="173.333133" x2="1746.666667" y2="146.666467" class="t" />
<line x1="1826.666800" y1="106.666467" x2="1813.333600" y2="93.333133" class="t" />
<line x1="1826.667067" y1="66.666467" x2="1813.333600" y2="93.333133" class="t" />
<line x1="1706.666933" y1="186.666467" x2="1733.333467" y2="173.333133" class="t" />
<line x1="1853.333733" y1="53.333133" x2="1826.667067" y2="66.666467" class="t" />
<line x1="1853.333600" y1="93.333133" x2="1826.666800" y2="106.666467" class="t" />
<line x1="1813.333333" y1="133.333133" x2="1826.666800" y2="106.666467" class="t" />
<line x1="1786.666667" y1="146.666467" x2="1813.333333" y2="133.333133" class="t" />
<line x1="1773.333467" y1="173.333133" x2="1786.666667" y2="146.666467" class="t" />
<line x1="1866.666800" y1="106.666467" x2="1853.333600" y2="93.333133" class="t" />
<line x1="1866.667067" y1="66.666467" x2="1853.333600" y2="93.333133" class="t" />
<line x1="1786.666933" y1="186.666467" x2="1773.333467" y2="173.333133" class="t" />
<line x1="1746.666933" y1="186.666467" x2="1773.333467" y2="173.333133" class="t" />
<line x1="1893.333733" y1="53.333133" x2="1866.667067" y2="66.666467" class="t" />
<line x1="1893.333600" y1="93.333133" x2="1866.666800" y2="106.666467" class="t" />
<line x1="1853.333333" y1="133.333133" x2="1866.666800" y2="106.666467" class="t" />
<line x1="1813.333467" y1="173.333133" x2="1786.666933" y2="186.666467" class="t" />
<line x1="1826.666667" y1="146.666467" x2="1853.333333" y2="133.333133" class="t" />
<line x1="1906.666800" y1="106.666467" x2="1893.333600" y2="93.333133" class="t" />
<line x1="1906.667067" y1="66.666467" x2="1893.333600" y2="93.333133" class="t" />
<line x1="1826.666933" y1="186.666467" x2="1813.333467" y2="173.333133" class="t" />
<line x1="1933.333733" y1="53.333133" x2="1906.667067" y2="66.666467" class="t" />
<line x1="1933.333600" y1="93.333133" x2="1906.666800" y2="106.666467" class="t" />
<line x1="1893.333333" y1="133.333133" x2="1906.666800" y2="106.666467" class="t" />
<line x1="1853.333467" y1="173.333133" x2="1826.666933" y2="186.666467" class="t" />
<line x1="1866.666667" y1="146.666467" x2="1893.333333" y2="133.333133" class="t" />
<line x1="1946.666800" y1="106.666467" x2="1933.333600" y2="93.333133" class="t" />
<line x1="1946.667067" y1="66.666467" x2="1933.333600" y2="93.333133" class="t" />
<line x1="1866.666933" y1="186.666467" x2="1853.333467" y2="173.333133" class="t" />
<line x1="1973.333733" y1="53.333133" x2="1946.667067" y2="66.666467" class="t" />
<line x1="1973.333600" y1="93.333133" x2="1946.666800" y2="106.666467" class="t" />
<line x1="1933.333333" y1="133.333133" x2="1946.666800" y2="106.666467" class="t" />
<line x1="1893.333467" y1="173.333133" x2="1866.666933" y2="186.666467" class="t" />
<line x1="1906.666667" y1="146.666467" x2="1933.333333" y2="133.333133" class="t" />
<line x1="1986.666800" y1="106.666467" x2="1973.333600" y2="93.333133" class="t" />
<line x1="1986.667067" y1="66.666467" x2="1973.333600" y2="93.333133" class="t" />
<line x1="1906.666933" y1="186.666467" x2="1893.333467" y2="173.333133" class="t" />
<line x1="2013.333733" y1="53.333133" x2="1986.667067" y2="66.666467" class="t" />
<line x1="2013.333600" y1="93.333133" x2="1986.666800" y2="106.666467" class="t" />
<line x1="1973.333333" y1="133.333133" x2="1986.666800" y2="106.666467" class="t" />
<line x1="1933.333467" y1="173.333133" x2="1906.666933" y2="186.666467" class="t" />
<line x1="1946.666667" y1="146.666467" x2="1973.333333" y2="133.333133" class="t" />
<line x1="2026.666800" y1="106.666467" x2="2013.333600" y2="93.333133" class="t" />
<line x1="2026.667067" y1="66.666467" x2="2013.333600" y2="93.333133" class="t" />
<line x1="1946.666933" y1="186.666467" x2="1933.333467" y2="173.333133" class="t" />
<line x1="2053.333733" y1="53.333133" x2="2026.667067" y2="66.666467" class="t" />
<line x1="2053.333600" y1="93.333133" x2="2026.666800" y2="106.666467" class="t" />
<line x1="2013.333333" y1="133.333133" x2="2026.666800" y2="106.666467" class="t" />
<line x1="1973.333467" y1="173.333133" x2="1946.666933" y2="186.666467" class="t" />
<line x1="1986.666667" y1="146.666467" x2="2013.333333" y2="133.333133" class="t" />
<line x1="2066.666800" y1="106.666467" x2="2053.333600" y2="93.333133" class="t" />
<line x1="2066.667067" y1="66.666467" x2="2053.333600" y2="93.333133" class="t" />
<line x1="1986.666933" y1="186.666467" x2="1973.333467" y2="173.333133" class="t" />
<line x1="2093.333733" y1="53.333133" x2="2066.667067" y2="66.666467" class="t" />
<line x1="2093.333600" y1="93.333133" x2="2066.666800" y2="106.666467" class="t" />
<line x1="2053.333333" y1="133.333133" x2="2066.666800" y2="106.666467" class="t" />
<line x1="2013.333467" y1="173.333133" x2="1986.666933" y2="186.666467" class="t" />
<line x1="2026.666667" y1="146.666467" x2="2053.333333" y2="133.333133" class="t" />
<line x1="2106.666867" y1="106.666467" x2="2093.333600" y2="93.333133" class="t" />
<line x1="2106.667067" y1="66.666467" x2="2093.333600" y2="93.333133" class="t" />
<line x1="2026.666933" y1="186.666467" x2="2013.333467" y2="173.333133" class="t" />
<line x1="2133.333733" y1="53.333133" x2="2106.667067" y2="66.666467" class="t" />
<line x1="2133.333667" y1="93.333133" x2="2106.666867" y2="106.666467" class="t" />
<line x1="2093.333400" y1="133.333133" x2="2106.666867" y2="106.666467" class="t" />
<line x1="2053.333467" y1="173.333133" x2="2026.666933" y2="186.666467" class="t" />
<line x1="2066.666667" y1="146.666467" x2="2093.333400" y2="133.333133" class="t" />
<line x1="2146.666933" y1="106.666467" x2="2133.333667" y2="93.333133" class="t" />
<line x1="2146.667067" y1="66.666467" x2="2133.333667" y2="93.333133" class="t" />
<line x1="2066.666933" y1="186.666467" x2="2053.333467" y2="173.333133" class="t" />
<line x1="2173.333733" y1="53.333133" x2="2146.667067" y2="66.666467" class="t" />
<line x1="2173.333667" y1="93.333133" x2="2146.666933" y2="106.666467" class="t" />
<line x1="2133.333533" y1="133.333133" x2="2146.666933" y2="106.666467" class="t" />
<line x1="2093.333533" y1="173.333133" x2="2066.666933" y2="186.666467" class="t" />
<line x1="2106.666800" y1="146.666467" x2="2133.333533" y2="133.333133" class="t" />
<line x1="2186.666933" y1="106.666467" x2="2173.333667" y2="93.333133" class="t" />
<line x1="2186.667067" y1="66.666467" x2="2173.333667" y2="93.333133" class="t" />
<line x1="2106.667000" y1="186.666467" x2="2093.333533" y2="173.333133" class="t" />
<line x1="2213.333733" y1="53.333133" x2="2186.667067" y2="66.666467" class="t" />
<line x1="2213.333667" y1="93.333133" x2="2186.666933" y2="106.666467" class="t" />
<line x1="2173.333533" y1="133.333133" x2="2186.666933" y2="106.666467" class="t" />
<line x1="2133.333600" y1="173.333133" x2="2106.667000" y2="186.666467" class="t" />
<line x1="2146.666867" y1="146.666467" x2="2173.333533" y2="133.333133" class="t" />
<line x1="2226.666933" y1="106.666467" x2="2213.333667" y2="93.333133" class="t" />
<line x1="2226.667067" y1="66.666467" x2="2213.333667" y2="93.333133" class="t" />
<line x1="2146.667000" y1="186.666467" x2="2133.333600" y2="173.333133" class="t" />
<line x1="2253.333733" y1="53.333133" x2="2226.667067" y2="66.666467" class="t" />
<line x1="2253.333667" y1="93.333133" x2="2226.666933" y2="106.666467" class="t" />
<line x1="2213.333533" y1="133.333133" x2="2226.666933" y2="106.666467" class="t" />
<line x1="2173.333600" y1="173.333133" x2="2146.667000" y2="186.666467" class="t" />
<line x1="2186.666867" y1="146.666467" x2="2213.333533" y2="133.333133" class="t" />
<line x1="2266.666933" y1="106.666467" x2="2253.333667" y2="93.333133" class="t" />
<line x1="2266.667067" y1="66.666467" x2="2253.333667" y2="93.333133" class="t" />
<line x1="2186.667000" y1="186.666467" x2="2173.333600" y2="173.333133" class="t" />
<line x1="2293.333733" y1="53.333133" x2="2266.667067" y2="66.666467" class="t" />
<line x1="2293.333667" y1="93.333133" x2="2266.666933" y2="106.666467" class="t" />
<line x1="2253.333533" y1="133.333133" x2="2266.666933" y2="106.666467" class="t" />
<line x1="2213.333600" y1="173.333133" x2="2186.667000" y2="186.666467" class="t" />
<line x1="2226.666867" y1="146.666467" x2="2253.333533" y2="133.333133" class="t" />
<line x1="2306.666933" y1="106.666467" x2="2293.333667" y2="93.333133" class="t" />
<line x1="2306.667067" y1="66.666467" x2="2293.333667" y2="93.333133" class="t" />
<line x1="2226.667000" y1="186.666467" x2="2213.333600" y2="173.333133" class="t" />
<line x1="2333.333733" y1="53.333133" x2="2306.667067" y2="66.666467" class="t" />
<line x1="2333.333667" y1="93.333133" x2="2306.666933" y2="106.666467" class="t" />
<line x1="2293.333533" y1="133.333133" x2="2306.666933" y2="106.666467" class="t" />
<line x1="2253.333600" y1="173.333133" x2="2226.667000" y2="186.666467" class="t" />
<line x1="2266.666867" y1="146.666467" x2="2293.333533" y2="133.333133" class="t" />
<line x1="2346.666933" y1="106.666467" x2="2333.333667" y2="93.333133" class="t" />
<line x1="2346.667067" y1="66.666467" x2="2333.333667" y2="93.333133" class="t" />
<line x1="2266.667000" y1="186.666467" x2="2253.333600" y2="173.333133" class="t" />
<line x1="2373.333733" y1="53.333133" x2="2346.667067" y2="66.666467" class="t" />
<line x1="2373.333667" y1="93.333133" x2="2346.666933" y2="106.666467" class="t" />
<line x1="2333.333533" y1="133.333133" x2="2346.666933" y2="106.666467" class="t" />
<line x1="2293.333600" y1="173.333133" x2="2266.667000" y2="186.666467" class="t" />
<line x1="2306.666867" y1="146.666467" x2="2333.333533" y2="133.333133" class="t" />
<line x1="2386.666933" y1="106.666467" x2="2373.333667" y2="93.333133" class="t" />
<line x1="2386.667067" y1="66.666467" x2="2373.333667" y2="93.333133" class="t" />
<line x1="2306.667000" y1="186.666467" x2="2293.333600" y2="173.333133" class="t" />
<line x1="2413.333733" y1="53.333133" x2="2386.667067" y2="66.666467" class="t" />
<line x1="2413.333667" y1="93.333133" x2="2386.666933" y2="106.666467" class="t" />
<line x1="2373.333533" y1="133.333133" x2="2386.666933" y2="106.666467" class="t" />
<line x1="2333.333600" y1="173.333133" x2="2306.667000" y2="186.666467" class="t" />
<line x1="2346.666867" y1="146.666467" x2="2373.333533" y2="133.333133" class="t" />
<line x1="2426.666933" y1="106.666467" x2="2413.333667" y2="93.333133" class="t" />
<line x1="2426.667067" y1="66.666467" x2="2413.333667" y2="93.333133" class="t" />
<line x1="2346.667000" y1="186.666467" x2="2333.333600" y2="173.333133" class="t" />
<line x1="2453.333733" y1="53.333133" x2="2426.667067" y2="66.666467" class="t" />
<line x1="2453.333667" y1="93.333133" x2="2426.666933" y2="106.666467" class="t" />
<line x1="2413.333533" y1="133.333133" x2="2426.666933" y2="106.666467" class="t" />
<line x1="2373.333600" y1="173.333133" x2="2346.667000" y2="186.666467" class="t" />
<line x1="2386.666867" y1="146.666467" x2="2413.333533" y2="133.333133" class="t" />
<line x1="2466.666933" y1="106.666467" x2="2453.333667" y2="93.333133" class="t" />
<line x1="2466.667067" y1="66.666467" x2="2453.333667" y2="93.333133" class="t" />
<line x1="2386.667000" y1="186.666467" x2="2373.333600" y2="173.333133" class="t" />
<line x1="2493.333667" y1="53.333133" x2="2466.667067" y2="66.666467" class="t" />
<line x1="2493.333600" y1="93.333133" x2="2466.666933" y2="106.666467" class="t" />
<line x1="2453.333533" y1="133.333133" x2="2466.666933" y2="106.666467" class="t" />
<line x1="2413.333600" y1="173.333133" x2="2386.667000" y2="186.666467" class="t" />
<line x1="2426.666867" y1="146.666467" x2="2453.333533" y2="133.333133" class="t" />
<line x1="2506.666867" y1="106.666467" x2="2493.333600" y2="93.333133" class="t" />
<line x1="2506.666933" y1="66.666467" x2="2493.333600" y2="93.333133" class="t" />
<line x1="2426.667000" y1="186.666467" x2="2413.333600" y2="173.333133" class="t" />
<line x1="2533.333533" y1="53.333133" x2="2506.666933" y2="66.666467" class="t" />
<line x1="2533.333533" y1="26.666533" x2="2533.333533" y2="53.333133" class="t" />
<line x1="2533.333533" y1="106.666467" x2="2506.666867" y2="106.666467" class="t" />
<line x1="2493.333533" y1="133.333133" x2="2506.666867" y2="106.666467" class="t" />
<line x1="2453.333600" y1="173.333133" x2="2426.667000" y2="186.666467" class="t" />
<line x1="2546.666867" y1="133.333133" x2="2533.333533" y2="106.666467" class="t" />
<line x1="2466.666867" y1="146.666467" x2="2493.333533" y2="133.333133" class="t" />
<line x1="2466.667000" y1="186.666467" x2="2453.333600" y2="173.333133" class="t" />
<line x1="2493.333600" y1="173.333133" x2="2466.667000" y2="186.666467" class="t" />
</svg>
