<?xml version="1.0"?>
<svg width="1680" height="160" version="1.1" xmlns="http://www.w3.org/2000/svg" >
<defs>
<style type="text/css"><![CDATA[
.m {stroke:rgb(255,0,0);stroke-width:2.100000;}
.v {stroke:rgb(0,0,255);stroke-width:2.100000;}
.b {stroke:rgb(0,0,0);stroke-width:4.200000;fill:white}
.n {stroke:rgb(128,128,128);stroke-width:2.100000}
.t {stroke:rgb(0,128,0);stroke-width:2.100000;}
.c {stroke:rgb(128,128,128);stroke-width:2.100000;stroke-dasharray:16.800000, 16.800000;}
]]></style>
</defs>
<path fill="none" style="stroke:black;stroke-width:4.200000;" d=" M 1640 120 L 1640 80 M 1600 80 L 1600 120 M 1600 120 L 1600 80 M 1560 80 L 1560 120 M 1560 120 L 1560 80 M 1520 80 L 1520 120 M 1520 120 L 1520 80 M 1480 80 L 1480 120 M 1480 120 L 1480 80 M 1440 80 L 1440 120 M 1440 120 L 1440 80 M 1400 80 L 1400 120 M 1400 120 L 1400 80 M 1360 80 L 1360 120 M 1360 120 L 1360 80 M 1320 80 L 1320 120 M 1320 120 L 1320 80 M 1280 80 L 1280 120 M 1280 120 L 1280 80 M 1240 80 L 1240 120 M 1240 120 L 1240 80 M 1200 80 L 1200 120 M 1200 120 L 1200 80 M 1160 80 L 1160 120 M 1160 120 L 1160 80 M 1120 80 L 1120 120 M 1120 120 L 1120 80 M 1080 80 L 1080 120 M 1080 120 L 1080 80 M 1040 80 L 1040 120 M 1040 120 L 1040 80 M 1000 80 L 1000 120 M 1000 120 L 1000 80 M 960 80 L 960 120 M 960 120 L 960 80 M 920 80 L 920 120 M 920 120 L 920 80 M 880 80 L 880 120 M 880 120 L 880 80 M 840 80 L 840 120 M 840 120 L 840 80 M 800 80 L 800 120 M 800 120 L 800 80 M 760 80 L 760 120 M 760 120 L 760 80 M 720 80 L 720 120 M 720 120 L 720 80 M 680 80 L 680 120 M 680 120 L 680 80 M 640 80 L 640 120 M 640 120 L 640 80 M 600 80 L 600 120 M 600 120 L 600 80 M 560 80 L 560 120 M 560 120 L 560 80 M 520 80 L 520 120 M 520 120 L 520 80 M 480 80 L 480 120 M 480 120 L 480 80 M 440 80 L 440 120 M 440 120 L 440 80 M 400 80 L 400 120 M 400 120 L 400 80 M 360 80 L 360 120 M 360 120 L 360 80 M 320 80 L 320 120 M 320 120 L 320 80 M 280 80 L 280 120 M 280 120 L 280 80 M 240 80 L 240 120 M 240 120 L 240 80 M 200 80 L 200 120 M 200 120 L 200 80 M 160 80 L 160 120 M 160 120 L 160 80 M 120 80 L 120 120 M 120 120 L 120 80 M 79.9998 80 L 79.9998 120 M 79.9998 120 L 79.9998 80 M 40 80 L 40 120 M 0 80 L 40 80 M 0 40 L 0 80 M 40 40 L 0 40 M 40 0 L 40 40 M 80 0 L 40 0 M 80 40 L 80 0 M 80 0 L 80 40 M 120 5.55112e-015 L 80 0 M 120 40 L 120 5.55112e-015 M 120 5.55112e-015 L 120 40 M 160 0 L 120 5.55112e-015 M 160 40 L 160 0 M 160 0 L 160 40 M 200 1.11022e-014 L 160 0 M 200 40 L 200 1.11022e-014 M 200 1.11022e-014 L 200 40 M 240 0 L 200 1.11022e-014 M 240 40 L 240 0 M 240 0 L 240 40 M 280 5.55112e-015 L 240 0 M 280 40 L 280 5.55112e-015 M 280 5.55112e-015 L 280 40 M 320 1.11022e-014 L 280 5.55112e-015 M 320 40 L 320 1.11022e-014 M 320 1.11022e-014 L 320 40 M 360 0 L 320 1.11022e-014 M 360 40 L 360 0 M 360 0 L 360 40 M 400 0 L 360 0 M 400 40 L 400 0 M 400 0 L 400 40 M 440 0 L 400 0 M 440 40 L 440 0 M 440 0 L 440 40 M 480 1.66533e-014 L 440 0 M 480 40 L 480 1.66533e-014 M 480 1.66533e-014 L 480 40 M 520 3.33067e-014 L 480 1.66533e-014 M 520 40 L 520 3.33067e-014 M 520 3.33067e-014 L 520 40 M 560 3.33067e-014 L 520 3.33067e-014 M 560 40 L 560 3.33067e-014 M 560 3.33067e-014 L 560 40 M 600 2.22045e-014 L 560 3.33067e-014 M 600 40 L 600 2.22045e-014 M 600 2.22045e-014 L 600 40 M 640 5.55112e-015 L 600 2.22045e-014 M 640 40 L 640 5.55112e-015 M 640 5.55112e-015 L 640 40 M 680 1.66533e-014 L 640 5.55112e-015 M 680 40 L 680 1.66533e-014 M 680 1.66533e-014 L 680 40 M 720 1.11022e-014 L 680 1.66533e-014 M 720 40 L 720 1.11022e-014 M 720 1.11022e-014 L 720 40 M 760 2.22045e-014 L 720 1.11022e-014 M 760 40 L 760 2.22045e-014 M 760 2.22045e-014 L 760 40 M 800 1.66533e-014 L 760 2.22045e-014 M 800 40 L 800 1.66533e-014 M 800 1.66533e-014 L 800 40 M 840 2.22045e-014 L 800 1.66533e-014 M 840 40 L 840 2.22045e-014 M 840 2.22045e-014 L 840 40 M 880 2.22045e-014 L 840 2.22045e-014 M 880 40 L 880 2.22045e-014 M 880 2.22045e-014 L 880 40 M 920 1.11022e-014 L 880 2.22045e-014 M 920 40 L 920 1.11022e-014 M 920 1.11022e-014 L 920 40 M 960 2.22045e-014 L 920 1.11022e-014 M 960 40 L 960 2.22045e-014 M 960 2.22045e-014 L 960 40 M 1000 1.66533e-014 L 960 2.22045e-014 M 1000 40 L 1000 1.66533e-014 M 1000 1.66533e-014 L 1000 40 M 1040 1.66533e-014 L 1000 1.66533e-014 M 1040 40 L 1040 1.66533e-014 M 1040 1.66533e-014 L 1040 40 M 1080 2.77556e-014 L 1040 1.66533e-014 M 1080 40 L 1080 2.77556e-014 M 1080 2.77556e-014 L 1080 40 M 1120 2.77556e-014 L 1080 2.77556e-014 M 1120 40 L 1120 2.77556e-014 M 1120 2.77556e-014 L 1120 40 M 1160 3.33067e-014 L 1120 2.77556e-014 M 1160 40 L 1160 3.33067e-014 M 1160 3.33067e-014 L 1160 40 M 1200 3.33067e-014 L 1160 3.33067e-014 M 1200 40 L 1200 3.33067e-014 M 1200 3.33067e-014 L 1200 40 M 1240 1.66533e-014 L 1200 3.33067e-014 M 1240 40 L 1240 1.66533e-014 M 1240 1.66533e-014 L 1240 40 M 1280 2.22045e-014 L 1240 1.66533e-014 M 1280 40 L 1280 2.22045e-014 M 1280 2.22045e-014 L 1280 40 M 1320 1.11022e-014 L 1280 2.22045e-014 M 1320 40 L 1320 1.11022e-014 M 1320 1.11022e-014 L 1320 40 M 1360 1.11022e-014 L 1320 1.11022e-014 M 1360 40 L 1360 1.11022e-014 M 1360 1.11022e-014 L 1360 40 M 1400 5.55112e-015 L 1360 1.11022e-014 M 1400 40 L 1400 5.55112e-015 M 1400 5.55112e-015 L 1400 40 M 1440 0 L 1400 5.55112e-015 M 1440 40 L 1440 0 M 1440 0 L 1440 40 M 1480 2.77556e-014 L 1440 0 M 1480 40 L 1480 2.77556e-014 M 1480 2.77556e-014 L 1480 40 M 1520 0 L 1480 2.77556e-014 M 1520 40 L 1520 0 M 1520 0 L 1520 40 M 1560 1.11022e-014 L 1520 0 M 1560 40 L 1560 1.11022e-014 M 1560 1.11022e-014 L 1560 40 M 1600 0 L 1560 1.11022e-014 M 1600 40 L 1600 0 M 1600 0 L 1600 40 M 1640 2.22045e-014 L 1600 0 M 1640 40 L 1640 2.22045e-014 M 1680 80 L 1680 40 M 1680 40 L 1640 40 M 1640 80 L 1680 80 M 1600 160 L 1640 160 M 1640 160 L 1640 120 M 1600 120 L 1600 160 M 1560 160 L 1600 160 M 1600 160 L 1600 120 M 1560 120 L 1560 160 M 1520 160 L 1560 160 M 1560 160 L 1560 120 M 1520 120 L 1520 160 M 1480 160 L 1520 160 M 1520 160 L 1520 120 M 1480 120 L 1480 160 M 1440 160 L 1480 160 M 1480 160 L 1480 120 M 1440 120 L 1440 160 M 1400 160 L 1440 160 M 1440 160 L 1440 120 M 1400 120 L 1400 160 M 1360 160 L 1400 160 M 1400 160 L 1400 120 M 1360 120 L 1360 160 M 1320 160 L 1360 160 M 1360 160 L 1360 120 M 1320 120 L 1320 160 M 1280 160 L 1320 160 M 1320 160 L 1320 120 M 1280 120 L 1280 160 M 1240 160 L 1280 160 M 1280 160 L 1280 120 M 1240 120 L 1240 160 M 1200 160 L 1240 160 M 1240 160 L 1240 120 M 1200 120 L 1200 160 M 1160 160 L 1200 160 M 1200 160 L 1200 120 M 1160 120 L 1160 160 M 1120 160 L 1160 160 M 1160 160 L 1160 120 M 1120 120 L 1120 160 M 1080 160 L 1120 160 M 1120 160 L 1120 120 M 1080 120 L 1080 160 M 1040 160 L 1080 160 M 1080 160 L 1080 120 M 1040 120 L 1040 160 M 1000 160 L 1040 160 M 1040 160 L 1040 120 M 1000 120 L 1000 160 M 960 160 L 1000 160 M 1000 160 L 1000 120 M 960 120 L 960 160 M 920 160 L 960 160 M 960 160 L 960 120 M 920 120 L 920 160 M 880 160 L 920 160 M 920 160 L 920 120 M 880 120 L 880 160 M 840 160 L 880 160 M 880 160 L 880 120 M 840 120 L 840 160 M 800 160 L 840 160 M 840 160 L 840 120 M 800 120 L 800 160 M 760 160 L 800 160 M 800 160 L 800 120 M 760 120 L 760 160 M 720 160 L 760 160 M 760 160 L 760 120 M 720 120 L 720 160 M 680 160 L 720 160 M 720 160 L 720 120 M 680 120 L 680 160 M 640 160 L 680 160 M 680 160 L 680 120 M 640 120 L 640 160 M 600 160 L 640 160 M 640 160 L 640 120 M 600 120 L 600 160 M 560 160 L 600 160 M 600 160 L 600 120 M 560 120 L 560 160 M 520 160 L 560 160 M 560 160 L 560 120 M 520 120 L 520 160 M 480 160 L 520 160 M 520 160 L 520 120 M 480 120 L 480 160 M 440 160 L 480 160 M 480 160 L 480 120 M 440 120 L 440 160 M 400 160 L 440 160 M 440 160 L 440 120 M 400 120 L 400 160 M 360 160 L 400 160 M 400 160 L 400 120 M 360 120 L 360 160 M 320 160 L 360 160 M 360 160 L 360 120 M 320 120 L 320 160 M 280 160 L 320 160 M 320 160 L 320 120 M 280 120 L 280 160 M 240 160 L 280 160 M 280 160 L 280 120 M 240 120 L 240 160 M 200 160 L 240 160 M 240 160 L 240 120 M 200 120 L 200 160 M 160 160 L 200 160 M 200 160 L 200 120 M 160 120 L 160 160 M 120 160 L 160 160 M 160 160 L 160 120 M 120 120 L 120 160 M 80 160 L 120 160 M 120 160 L 120 120 M 79.9998 120 L 80 160 M 40 160 L 80 160 M 80 160 L 79.9998 120 M 40 120 L 40 160" />
<path fill="none" class="c" d=" M 880 40 L 840 40 M 800 80 L 840 80 M 840 40 L 800 40 M 760 80 L 800 80 M 800 40 L 760 40 M 720 80 L 760 80 M 760 40 L 720 40 M 680 80 L 720 80 M 720 40 L 680 40 M 640 80 L 680 80 M 680 40 L 640 40 M 600 80 L 640 80 M 640 40 L 600 40 M 560 80 L 600 80 M 600 40 L 560 40 M 520 80 L 560 80 M 560 40 L 520 40 M 480 80 L 520 80 M 520 40 L 480 40 M 440 80 L 480 80 M 480 40 L 440 40 M 400 80 L 440 80 M 440 40 L 400 40 M 360 80 L 400 80 M 400 40 L 360 40 M 320 80 L 360 80 M 360 40 L 320 40 M 280 80 L 320 80 M 320 40 L 280 40 M 240 80 L 280 80 M 280 40 L 240 40 M 200 80 L 240 80 M 240 40 L 200 40 M 160 80 L 200 80 M 200 40 L 160 40 M 120 80 L 160 80 M 160 40 L 120 40 M 79.9998 80 L 120 80 M 120 40 L 80 40 M 40 80 L 79.9998 80 M 40 40 L 40 80 M 80 40 L 40 40 M 840 80 L 880 80 M 800 120 L 840 120 M 760 120 L 800 120 M 720 120 L 760 120 M 680 120 L 720 120 M 640 120 L 680 120 M 600 120 L 640 120 M 560 120 L 600 120 M 520 120 L 560 120 M 480 120 L 520 120 M 440 120 L 480 120 M 400 120 L 440 120 M 360 120 L 400 120 M 320 120 L 360 120 M 280 120 L 320 120 M 240 120 L 280 120 M 200 120 L 240 120 M 160 120 L 200 120 M 120 120 L 160 120 M 79.9998 120 L 120 120 M 40 120 L 79.9998 120 M 920 40 L 880 40 M 840 120 L 880 120 M 880 80 L 920 80 M 960 40 L 920 40 M 880 120 L 920 120 M 920 80 L 960 80 M 1000 40 L 960 40 M 920 120 L 960 120 M 960 80 L 1000 80 M 1040 40 L 1000 40 M 960 120 L 1000 120 M 1000 80 L 1040 80 M 1080 40 L 1040 40 M 1000 120 L 1040 120 M 1040 80 L 1080 80 M 1120 40 L 1080 40 M 1040 120 L 1080 120 M 1080 80 L 1120 80 M 1160 40 L 1120 40 M 1080 120 L 1120 120 M 1120 80 L 1160 80 M 1200 40 L 1160 40 M 1120 120 L 1160 120 M 1160 80 L 1200 80 M 1240 40 L 1200 40 M 1160 120 L 1200 120 M 1200 80 L 1240 80 M 1280 40 L 1240 40 M 1200 120 L 1240 120 M 1240 80 L 1280 80 M 1320 40 L 1280 40 M 1240 120 L 1280 120 M 1280 80 L 1320 80 M 1360 40 L 1320 40 M 1280 120 L 1320 120 M 1320 80 L 1360 80 M 1400 40 L 1360 40 M 1320 120 L 1360 120 M 1360 80 L 1400 80 M 1440 40 L 1400 40 M 1360 120 L 1400 120 M 1400 80 L 1440 80 M 1480 40 L 1440 40 M 1400 120 L 1440 120 M 1440 80 L 1480 80 M 1520 40 L 1480 40 M 1440 120 L 1480 120 M 1480 80 L 1520 80 M 1560 40 L 1520 40 M 1480 120 L 1520 120 M 1520 80 L 1560 80 M 1600 40 L 1560 40 M 1520 120 L 1560 120 M 1560 80 L 1600 80 M 1640 40 L 1600 40 M 1600 80 L 1640 80 M 1560 120 L 1600 120 M 1640 80 L 1640 40 M 1600 120 L 1640 120" />
<line x1="866.666600" y1="66.666667" x2="853.333400" y2="53.333333" class="t" />
<line x1="866.666867" y1="26.666667" x2="853.333400" y2="53.333333" class="t" />
<line x1="826.666600" y1="66.666667" x2="853.333400" y2="53.333333" class="t" />
<line x1="813.333133" y1="93.333333" x2="826.666600" y2="66.666667" class="t" />
<line x1="813.333400" y1="53.333333" x2="826.666600" y2="66.666667" class="t" />
<line x1="826.666867" y1="26.666667" x2="813.333400" y2="53.333333" class="t" />
<line x1="786.666600" y1="66.666667" x2="813.333400" y2="53.333333" class="t" />
<line x1="773.333133" y1="93.333333" x2="786.666600" y2="66.666667" class="t" />
<line x1="773.333400" y1="53.333333" x2="786.666600" y2="66.666667" class="t" />
<line x1="786.666867" y1="26.666667" x2="773.333400" y2="53.333333" class="t" />
<line x1="746.666600" y1="66.666667" x2="773.333400" y2="53.333333" class="t" />
<line x1="733.333133" y1="93.333333" x2="746.666600" y2="66.666667" class="t" />
<line x1="733.333400" y1="53.333333" x2="746.666600" y2="66.666667" class="t" />
<line x1="746.666867" y1="26.666667" x2="733.333400" y2="53.333333" class="t" />
<line x1="706.666600" y1="66.666667" x2="733.333400" y2="53.333333" class="t" />
<line x1="693.333133" y1="93.333333" x2="706.666600" y2="66.666667" class="t" />
<line x1="693.333400" y1="53.333333" x2="706.666600" y2="66.666667" class="t" />
<line x1="706.666867" y1="26.666667" x2="693.333400" y2="53.333333" class="t" />
<line x1="666.666600" y1="66.666667" x2="693.333400" y2="53.333333" class="t" />
<line x1="653.333133" y1="93.333333" x2="666.666600" y2="66.666667" class="t" />
<line x1="653.333400" y1="53.333333" x2="666.666600" y2="66.666667" class="t" />
<line x1="666.666867" y1="26.666667" x2="653.333400" y2="53.333333" class="t" />
<line x1="626.666600" y1="66.666667" x2="653.333400" y2="53.333333" class="t" />
<line x1="613.333133" y1="93.333333" x2="626.666600" y2="66.666667" class="t" />
<line x1="613.333400" y1="53.333333" x2="626.666600" y2="66.666667" class="t" />
<line x1="626.666867" y1="26.666667" x2="613.333400" y2="53.333333" class="t" />
<line x1="586.666600" y1="66.666667" x2="613.333400" y2="53.333333" class="t" />
<line x1="573.333133" y1="93.333333" x2="586.666600" y2="66.666667" class="t" />
<line x1="573.333400" y1="53.333333" x2="586.666600" y2="66.666667" class="t" />
<line x1="586.666867" y1="26.666667" x2="573.333400" y2="53.333333" class="t" />
<line x1="546.666600" y1="66.666667" x2="573.333400" y2="53.333333" class="t" />
<line x1="533.333133" y1="93.333333" x2="546.666600" y2="66.666667" class="t" />
<line x1="533.333400" y1="53.333333" x2="546.666600" y2="66.666667" class="t" />
<line x1="546.666867" y1="26.666667" x2="533.333400" y2="53.333333" class="t" />
<line x1="506.666600" y1="66.666667" x2="533.333400" y2="53.333333" class="t" />
<line x1="493.333133" y1="93.333333" x2="506.666600" y2="66.666667" class="t" />
<line x1="493.333400" y1="53.333333" x2="506.666600" y2="66.666667" class="t" />
<line x1="506.666867" y1="26.666667" x2="493.333400" y2="53.333333" class="t" />
<line x1="466.666600" y1="66.666667" x2="493.333400" y2="53.333333" class="t" />
<line x1="453.333133" y1="93.333333" x2="466.666600" y2="66.666667" class="t" />
<line x1="453.333333" y1="53.333333" x2="466.666600" y2="66.666667" class="t" />
<line x1="466.666800" y1="26.666667" x2="453.333333" y2="53.333333" class="t" />
<line x1="426.666533" y1="66.666667" x2="453.333333" y2="53.333333" class="t" />
<line x1="413.333133" y1="93.333333" x2="426.666533" y2="66.666667" class="t" />
<line x1="413.333267" y1="53.333333" x2="426.666533" y2="66.666667" class="t" />
<line x1="426.666667" y1="26.666667" x2="413.333267" y2="53.333333" class="t" />
<line x1="386.666533" y1="66.666667" x2="413.333267" y2="53.333333" class="t" />
<line x1="373.333133" y1="93.333333" x2="386.666533" y2="66.666667" class="t" />
<line x1="373.333267" y1="53.333333" x2="386.666533" y2="66.666667" class="t" />
<line x1="386.666667" y1="26.666667" x2="373.333267" y2="53.333333" class="t" />
<line x1="346.666533" y1="66.666667" x2="373.333267" y2="53.333333" class="t" />
<line x1="333.333133" y1="93.333333" x2="346.666533" y2="66.666667" class="t" />
<line x1="333.333267" y1="53.333333" x2="346.666533" y2="66.666667" class="t" />
<line x1="346.666667" y1="26.666667" x2="333.333267" y2="53.333333" class="t" />
<line x1="306.666533" y1="66.666667" x2="333.333267" y2="53.333333" class="t" />
<line x1="293.333133" y1="93.333333" x2="306.666533" y2="66.666667" class="t" />
<line x1="293.333267" y1="53.333333" x2="306.666533" y2="66.666667" class="t" />
<line x1="306.666667" y1="26.666667" x2="293.333267" y2="53.333333" class="t" />
<line x1="266.666533" y1="66.666667" x2="293.333267" y2="53.333333" class="t" />
<line x1="253.333133" y1="93.333333" x2="266.666533" y2="66.666667" class="t" />
<line x1="253.333267" y1="53.333333" x2="266.666533" y2="66.666667" class="t" />
<line x1="266.666667" y1="26.666667" x2="253.333267" y2="53.333333" class="t" />
<line x1="226.666533" y1="66.666667" x2="253.333267" y2="53.333333" class="t" />
<line x1="213.333133" y1="93.333333" x2="226.666533" y2="66.666667" class="t" />
<line x1="213.333267" y1="53.333333" x2="226.666533" y2="66.666667" class="t" />
<line x1="226.666667" y1="26.666667" x2="213.333267" y2="53.333333" class="t" />
<line x1="186.666533" y1="66.666667" x2="213.333267" y2="53.333333" class="t" />
<line x1="173.333133" y1="93.333333" x2="186.666533" y2="66.666667" class="t" />
<line x1="173.333267" y1="53.333333" x2="186.666533" y2="66.666667" class="t" />
<line x1="186.666667" y1="26.666667" x2="173.333267" y2="53.333333" class="t" />
<line x1="146.666533" y1="66.666667" x2="173.333267" y2="53.333333" class="t" />
<line x1="133.333133" y1="93.333333" x2="146.666533" y2="66.666667" class="t" />
<line x1="133.333267" y1="53.333333" x2="146.666533" y2="66.666667" class="t" />
<line x1="146.666667" y1="26.666667" x2="133.333267" y2="53.333333" class="t" />
<line x1="106.666533" y1="66.666667" x2="133.333267" y2="53.333333" class="t" />
<line x1="93.333133" y1="93.333333" x2="106.666533" y2="66.666667" class="t" />
<line x1="93.333267" y1="53.333333" x2="106.666533" y2="66.666667" class="t" />
<line x1="106.666667" y1="26.666667" x2="93.333267" y2="53.333333" class="t" />
<line x1="66.666600" y1="66.666667" x2="93.333267" y2="53.333333" class="t" />
<line x1="53.333267" y1="93.333333" x2="66.666600" y2="66.666667" class="t" />
<line x1="53.333333" y1="53.333333" x2="66.666600" y2="66.666667" class="t" />
<line x1="26.666667" y1="53.333333" x2="53.333333" y2="53.333333" class="t" />
<line x1="66.666667" y1="26.666667" x2="53.333333" y2="53.333333" class="t" />
<line x1="826.666467" y1="106.666667" x2="813.333133" y2="93.333333" class="t" />
<line x1="786.666467" y1="106.666667" x2="773.333133" y2="93.333333" class="t" />
<line x1="746.666467" y1="106.666667" x2="733.333133" y2="93.333333" class="t" />
<line x1="706.666467" y1="106.666667" x2="693.333133" y2="93.333333" class="t" />
<line x1="666.666467" y1="106.666667" x2="653.333133" y2="93.333333" class="t" />
<line x1="626.666467" y1="106.666667" x2="613.333133" y2="93.333333" class="t" />
<line x1="586.666467" y1="106.666667" x2="573.333133" y2="93.333333" class="t" />
<line x1="546.666467" y1="106.666667" x2="533.333133" y2="93.333333" class="t" />
<line x1="506.666467" y1="106.666667" x2="493.333133" y2="93.333333" class="t" />
<line x1="466.666467" y1="106.666667" x2="453.333133" y2="93.333333" class="t" />
<line x1="426.666467" y1="106.666667" x2="413.333133" y2="93.333333" class="t" />
<line x1="386.666467" y1="106.666667" x2="373.333133" y2="93.333333" class="t" />
<line x1="346.666467" y1="106.666667" x2="333.333133" y2="93.333333" class="t" />
<line x1="306.666467" y1="106.666667" x2="293.333133" y2="93.333333" class="t" />
<line x1="266.666467" y1="106.666667" x2="253.333133" y2="93.333333" class="t" />
<line x1="226.666467" y1="106.666667" x2="213.333133" y2="93.333333" class="t" />
<line x1="186.666467" y1="106.666667" x2="173.333133" y2="93.333333" class="t" />
<line x1="146.666467" y1="106.666667" x2="133.333133" y2="93.333333" class="t" />
<line x1="106.666467" y1="106.666667" x2="93.333133" y2="93.333333" class="t" />
<line x1="66.666533" y1="106.666667" x2="53.333267" y2="93.333333" class="t" />
<line x1="13.333333" y1="66.666667" x2="26.666667" y2="53.333333" class="t" />
<line x1="53.333333" y1="13.333333" x2="66.666667" y2="26.666667" class="t" />
<line x1="93.333333" y1="13.333333" x2="106.666667" y2="26.666667" class="t" />
<line x1="133.333333" y1="13.333333" x2="146.666667" y2="26.666667" class="t" />
<line x1="173.333333" y1="13.333333" x2="186.666667" y2="26.666667" class="t" />
<line x1="213.333333" y1="13.333333" x2="226.666667" y2="26.666667" class="t" />
<line x1="253.333333" y1="13.333333" x2="266.666667" y2="26.666667" class="t" />
<line x1="293.333333" y1="13.333333" x2="306.666667" y2="26.666667" class="t" />
<line x1="333.333333" y1="13.333333" x2="346.666667" y2="26.666667" class="t" />
<line x1="373.333333" y1="13.333333" x2="386.666667" y2="26.666667" class="t" />
<line x1="413.333333" y1="13.333333" x2="426.666667" y2="26.666667" class="t" />
<line x1="453.333400" y1="13.333333" x2="466.666800" y2="26.666667" class="t" />
<line x1="493.333533" y1="13.333333" x2="506.666867" y2="26.666667" class="t" />
<line x1="533.333533" y1="13.333333" x2="546.666867" y2="26.666667" class="t" />
<line x1="573.333533" y1="13.333333" x2="586.666867" y2="26.666667" class="t" />
<line x1="613.333533" y1="13.333333" x2="626.666867" y2="26.666667" class="t" />
<line x1="653.333533" y1="13.333333" x2="666.666867" y2="26.666667" class="t" />
<line x1="693.333533" y1="13.333333" x2="706.666867" y2="26.666667" class="t" />
<line x1="733.333533" y1="13.333333" x2="746.666867" y2="26.666667" class="t" />
<line x1="773.333533" y1="13.333333" x2="786.666867" y2="26.666667" class="t" />
<line x1="813.333533" y1="13.333333" x2="826.666867" y2="26.666667" class="t" />
<line x1="853.333533" y1="13.333333" x2="866.666867" y2="26.666667" class="t" />
<line x1="893.333400" y1="53.333333" x2="866.666600" y2="66.666667" class="t" />
<line x1="853.333133" y1="93.333333" x2="866.666600" y2="66.666667" class="t" />
<line x1="866.666467" y1="106.666667" x2="853.333133" y2="93.333333" class="t" />
<line x1="813.333267" y1="133.333333" x2="826.666467" y2="106.666667" class="t" />
<line x1="773.333267" y1="133.333333" x2="786.666467" y2="106.666667" class="t" />
<line x1="733.333267" y1="133.333333" x2="746.666467" y2="106.666667" class="t" />
<line x1="693.333267" y1="133.333333" x2="706.666467" y2="106.666667" class="t" />
<line x1="653.333267" y1="133.333333" x2="666.666467" y2="106.666667" class="t" />
<line x1="613.333267" y1="133.333333" x2="626.666467" y2="106.666667" class="t" />
<line x1="573.333267" y1="133.333333" x2="586.666467" y2="106.666667" class="t" />
<line x1="533.333267" y1="133.333333" x2="546.666467" y2="106.666667" class="t" />
<line x1="493.333267" y1="133.333333" x2="506.666467" y2="106.666667" class="t" />
<line x1="453.333200" y1="133.333333" x2="466.666467" y2="106.666667" class="t" />
<line x1="413.333200" y1="133.333333" x2="426.666467" y2="106.666667" class="t" />
<line x1="373.333200" y1="133.333333" x2="386.666467" y2="106.666667" class="t" />
<line x1="333.333200" y1="133.333333" x2="346.666467" y2="106.666667" class="t" />
<line x1="293.333200" y1="133.333333" x2="306.666467" y2="106.666667" class="t" />
<line x1="253.333200" y1="133.333333" x2="266.666467" y2="106.666667" class="t" />
<line x1="213.333200" y1="133.333333" x2="226.666467" y2="106.666667" class="t" />
<line x1="173.333200" y1="133.333333" x2="186.666467" y2="106.666667" class="t" />
<line x1="133.333200" y1="133.333333" x2="146.666467" y2="106.666667" class="t" />
<line x1="93.333200" y1="133.333333" x2="106.666467" y2="106.666667" class="t" />
<line x1="53.333267" y1="133.333333" x2="66.666533" y2="106.666667" class="t" />
<line x1="906.666600" y1="66.666667" x2="893.333400" y2="53.333333" class="t" />
<line x1="906.666867" y1="26.666667" x2="893.333400" y2="53.333333" class="t" />
<line x1="826.666733" y1="146.666667" x2="813.333267" y2="133.333333" class="t" />
<line x1="786.666733" y1="146.666667" x2="773.333267" y2="133.333333" class="t" />
<line x1="746.666733" y1="146.666667" x2="733.333267" y2="133.333333" class="t" />
<line x1="706.666733" y1="146.666667" x2="693.333267" y2="133.333333" class="t" />
<line x1="666.666733" y1="146.666667" x2="653.333267" y2="133.333333" class="t" />
<line x1="626.666733" y1="146.666667" x2="613.333267" y2="133.333333" class="t" />
<line x1="586.666733" y1="146.666667" x2="573.333267" y2="133.333333" class="t" />
<line x1="546.666733" y1="146.666667" x2="533.333267" y2="133.333333" class="t" />
<line x1="506.666733" y1="146.666667" x2="493.333267" y2="133.333333" class="t" />
<line x1="466.666667" y1="146.666667" x2="453.333200" y2="133.333333" class="t" />
<line x1="426.666600" y1="146.666667" x2="413.333200" y2="133.333333" class="t" />
<line x1="386.666600" y1="146.666667" x2="373.333200" y2="133.333333" class="t" />
<line x1="346.666600" y1="146.666667" x2="333.333200" y2="133.333333" class="t" />
<line x1="306.666600" y1="146.666667" x2="293.333200" y2="133.333333" class="t" />
<line x1="266.666600" y1="146.666667" x2="253.333200" y2="133.333333" class="t" />
<line x1="226.666600" y1="146.666667" x2="213.333200" y2="133.333333" class="t" />
<line x1="186.666600" y1="146.666667" x2="173.333200" y2="133.333333" class="t" />
<line x1="146.666600" y1="146.666667" x2="133.333200" y2="133.333333" class="t" />
<line x1="106.666600" y1="146.666667" x2="93.333200" y2="133.333333" class="t" />
<line x1="66.666600" y1="146.666667" x2="53.333267" y2="133.333333" class="t" />
<line x1="853.333267" y1="133.333333" x2="866.666467" y2="106.666667" class="t" />
<line x1="893.333533" y1="13.333333" x2="906.666867" y2="26.666667" class="t" />
<line x1="933.333400" y1="53.333333" x2="906.666600" y2="66.666667" class="t" />
<line x1="893.333133" y1="93.333333" x2="906.666600" y2="66.666667" class="t" />
<line x1="866.666733" y1="146.666667" x2="853.333267" y2="133.333333" class="t" />
<line x1="906.666467" y1="106.666667" x2="893.333133" y2="93.333333" class="t" />
<line x1="946.666600" y1="66.666667" x2="933.333400" y2="53.333333" class="t" />
<line x1="946.666867" y1="26.666667" x2="933.333400" y2="53.333333" class="t" />
<line x1="893.333267" y1="133.333333" x2="906.666467" y2="106.666667" class="t" />
<line x1="933.333533" y1="13.333333" x2="946.666867" y2="26.666667" class="t" />
<line x1="973.333400" y1="53.333333" x2="946.666600" y2="66.666667" class="t" />
<line x1="933.333133" y1="93.333333" x2="946.666600" y2="66.666667" class="t" />
<line x1="906.666733" y1="146.666667" x2="893.333267" y2="133.333333" class="t" />
<line x1="946.666467" y1="106.666667" x2="933.333133" y2="93.333333" class="t" />
<line x1="986.666600" y1="66.666667" x2="973.333400" y2="53.333333" class="t" />
<line x1="986.666867" y1="26.666667" x2="973.333400" y2="53.333333" class="t" />
<line x1="933.333267" y1="133.333333" x2="946.666467" y2="106.666667" class="t" />
<line x1="973.333533" y1="13.333333" x2="986.666867" y2="26.666667" class="t" />
<line x1="1013.333400" y1="53.333333" x2="986.666600" y2="66.666667" class="t" />
<line x1="973.333133" y1="93.333333" x2="986.666600" y2="66.666667" class="t" />
<line x1="946.666733" y1="146.666667" x2="933.333267" y2="133.333333" class="t" />
<line x1="986.666467" y1="106.666667" x2="973.333133" y2="93.333333" class="t" />
<line x1="1026.666600" y1="66.666667" x2="1013.333400" y2="53.333333" class="t" />
<line x1="1026.666867" y1="26.666667" x2="1013.333400" y2="53.333333" class="t" />
<line x1="973.333267" y1="133.333333" x2="986.666467" y2="106.666667" class="t" />
<line x1="1013.333533" y1="13.333333" x2="1026.666867" y2="26.666667" class="t" />
<line x1="1053.333400" y1="53.333333" x2="1026.666600" y2="66.666667" class="t" />
<line x1="1013.333133" y1="93.333333" x2="1026.666600" y2="66.666667" class="t" />
<line x1="986.666733" y1="146.666667" x2="973.333267" y2="133.333333" class="t" />
<line x1="1026.666467" y1="106.666667" x2="1013.333133" y2="93.333333" class="t" />
<line x1="1066.666600" y1="66.666667" x2="1053.333400" y2="53.333333" class="t" />
<line x1="1066.666867" y1="26.666667" x2="1053.333400" y2="53.333333" class="t" />
<line x1="1013.333267" y1="133.333333" x2="1026.666467" y2="106.666667" class="t" />
<line x1="1053.333533" y1="13.333333" x2="1066.666867" y2="26.666667" class="t" />
<line x1="1093.333400" y1="53.333333" x2="1066.666600" y2="66.666667" class="t" />
<line x1="1053.333133" y1="93.333333" x2="1066.666600" y2="66.666667" class="t" />
<line x1="1026.666733" y1="146.666667" x2="1013.333267" y2="133.333333" class="t" />
<line x1="1066.666467" y1="106.666667" x2="1053.333133" y2="93.333333" class="t" />
<line x1="1106.666600" y1="66.666667" x2="1093.333400" y2="53.333333" class="t" />
<line x1="1106.666867" y1="26.666667" x2="1093.333400" y2="53.333333" class="t" />
<line x1="1053.333267" y1="133.333333" x2="1066.666467" y2="106.666667" class="t" />
<line x1="1093.333533" y1="13.333333" x2="1106.666867" y2="26.666667" class="t" />
<line x1="1133.333400" y1="53.333333" x2="1106.666600" y2="66.666667" class="t" />
<line x1="1093.333133" y1="93.333333" x2="1106.666600" y2="66.666667" class="t" />
<line x1="1066.666733" y1="146.666667" x2="1053.333267" y2="133.333333" class="t" />
<line x1="1106.666467" y1="106.666667" x2="1093.333133" y2="93.333333" class="t" />
<line x1="1146.666600" y1="66.666667" x2="1133.333400" y2="53.333333" class="t" />
<line x1="1146.666867" y1="26.666667" x2="1133.333400" y2="53.333333" class="t" />
<line x1="1093.333267" y1="133.333333" x2="1106.666467" y2="106.666667" class="t" />
<line x1="1133.333533" y1="13.333333" x2="1146.666867" y2="26.666667" class="t" />
<line x1="1173.333400" y1="53.333333" x2="1146.666600" y2="66.666667" class="t" />
<line x1="1133.333133" y1="93.333333" x2="1146.666600" y2="66.666667" class="t" />
<line x1="1106.666733" y1="146.666667" x2="1093.333267" y2="133.333333" class="t" />
<line x1="1146.666467" y1="106.666667" x2="1133.333133" y2="93.333333" class="t" />
<line x1="1186.666600" y1="66.666667" x2="1173.333400" y2="53.333333" class="t" />
<line x1="1186.666867" y1="26.666667" x2="1173.333400" y2="53.333333" class="t" />
<line x1="1133.333267" y1="133.333333" x2="1146.666467" y2="106.666667" class="t" />
<line x1="1173.333533" y1="13.333333" x2="1186.666867" y2="26.666667" class="t" />
<line x1="1213.333400" y1="53.333333" x2="1186.666600" y2="66.666667" class="t" />
<line x1="1173.333133" y1="93.333333" x2="1186.666600" y2="66.666667" class="t" />
<line x1="1146.666733" y1="146.666667" x2="1133.333267" y2="133.333333" class="t" />
<line x1="1186.666467" y1="106.666667" x2="1173.333133" y2="93.333333" class="t" />
<line x1="1226.666667" y1="66.666667" x2="1213.333400" y2="53.333333" class="t" />
<line x1="1226.666867" y1="26.666667" x2="1213.333400" y2="53.333333" class="t" />
<line x1="1173.333267" y1="133.333333" x2="1186.666467" y2="106.666667" class="t" />
<line x1="1213.333533" y1="13.333333" x2="1226.666867" y2="26.666667" class="t" />
<line x1="1253.333467" y1="53.333333" x2="1226.666667" y2="66.666667" class="t" />
<line x1="1213.333200" y1="93.333333" x2="1226.666667" y2="66.666667" class="t" />
<line x1="1186.666733" y1="146.666667" x2="1173.333267" y2="133.333333" class="t" />
<line x1="1226.666600" y1="106.666667" x2="1213.333200" y2="93.333333" class="t" />
<line x1="1266.666733" y1="66.666667" x2="1253.333467" y2="53.333333" class="t" />
<line x1="1266.666867" y1="26.666667" x2="1253.333467" y2="53.333333" class="t" />
<line x1="1213.333333" y1="133.333333" x2="1226.666600" y2="106.666667" class="t" />
<line x1="1253.333533" y1="13.333333" x2="1266.666867" y2="26.666667" class="t" />
<line x1="1293.333467" y1="53.333333" x2="1266.666733" y2="66.666667" class="t" />
<line x1="1253.333333" y1="93.333333" x2="1266.666733" y2="66.666667" class="t" />
<line x1="1226.666800" y1="146.666667" x2="1213.333333" y2="133.333333" class="t" />
<line x1="1266.666667" y1="106.666667" x2="1253.333333" y2="93.333333" class="t" />
<line x1="1306.666733" y1="66.666667" x2="1293.333467" y2="53.333333" class="t" />
<line x1="1306.666867" y1="26.666667" x2="1293.333467" y2="53.333333" class="t" />
<line x1="1253.333400" y1="133.333333" x2="1266.666667" y2="106.666667" class="t" />
<line x1="1293.333533" y1="13.333333" x2="1306.666867" y2="26.666667" class="t" />
<line x1="1333.333467" y1="53.333333" x2="1306.666733" y2="66.666667" class="t" />
<line x1="1293.333333" y1="93.333333" x2="1306.666733" y2="66.666667" class="t" />
<line x1="1266.666800" y1="146.666667" x2="1253.333400" y2="133.333333" class="t" />
<line x1="1306.666667" y1="106.666667" x2="1293.333333" y2="93.333333" class="t" />
<line x1="1346.666733" y1="66.666667" x2="1333.333467" y2="53.333333" class="t" />
<line x1="1346.666867" y1="26.666667" x2="1333.333467" y2="53.333333" class="t" />
<line x1="1293.333400" y1="133.333333" x2="1306.666667" y2="106.666667" class="t" />
<line x1="1333.333533" y1="13.333333" x2="1346.666867" y2="26.666667" class="t" />
<line x1="1373.333467" y1="53.333333" x2="1346.666733" y2="66.666667" class="t" />
<line x1="1333.333333" y1="93.333333" x2="1346.666733" y2="66.666667" class="t" />
<line x1="1306.666800" y1="146.666667" x2="1293.333400" y2="133.333333" class="t" />
<line x1="1346.666667" y1="106.666667" x2="1333.333333" y2="93.333333" class="t" />
<line x1="1386.666733" y1="66.666667" x2="1373.333467" y2="53.333333" class="t" />
<line x1="1386.666867" y1="26.666667" x2="1373.333467" y2="53.333333" class="t" />
<line x1="1333.333400" y1="133.333333" x2="1346.666667" y2="106.666667" class="t" />
<line x1="1373.333533" y1="13.333333" x2="1386.666867" y2="26.666667" class="t" />
<line x1="1413.333467" y1="53.333333" x2="1386.666733" y2="66.666667" class="t" />
<line x1="1373.333333" y1="93.333333" x2="1386.666733" y2="66.666667" class="t" />
<line x1="1346.666800" y1="146.666667" x2="1333.333400" y2="133.333333" class="t" />
<line x1="1386.666667" y1="106.666667" x2="1373.333333" y2="93.333333" class="t" />
<line x1="1426.666733" y1="66.666667" x2="1413.333467" y2="53.333333" class="t" />
<line x1="1426.666867" y1="26.666667" x2="1413.333467" y2="53.333333" class="t" />
<line x1="1373.333400" y1="133.333333" x2="1386.666667" y2="106.666667" class="t" />
<line x1="1413.333533" y1="13.333333" x2="1426.666867" y2="26.666667" class="t" />
<line x1="1453.333467" y1="53.333333" x2="1426.666733" y2="66.666667" class="t" />
<line x1="1413.333333" y1="93.333333" x2="1426.666733" y2="66.666667" class="t" />
<line x1="1386.666800" y1="146.666667" x2="1373.333400" y2="133.333333" class="t" />
<line x1="1426.666667" y1="106.666667" x2="1413.333333" y2="93.333333" class="t" />
<line x1="1466.666733" y1="66.666667" x2="1453.333467" y2="53.333333" class="t" />
<line x1="1466.666867" y1="26.666667" x2="1453.333467" y2="53.333333" class="t" />
<line x1="1413.333400" y1="133.333333" x2="1426.666667" y2="106.666667" class="t" />
<line x1="1453.333533" y1="13.333333" x2="1466.666867" y2="26.666667" class="t" />
<line x1="1493.333467" y1="53.333333" x2="1466.666733" y2="66.666667" class="t" />
<line x1="1453.333333" y1="93.333333" x2="1466.666733" y2="66.666667" class="t" />
<line x1="1426.666800" y1="146.666667" x2="1413.333400" y2="133.333333" class="t" />
<line x1="1466.666667" y1="106.666667" x2="1453.333333" y2="93.333333" class="t" />
<line x1="1506.666733" y1="66.666667" x2="1493.333467" y2="53.333333" class="t" />
<line x1="1506.666867" y1="26.666667" x2="1493.333467" y2="53.333333" class="t" />
<line x1="1453.333400" y1="133.333333" x2="1466.666667" y2="106.666667" class="t" />
<line x1="1493.333533" y1="13.333333" x2="1506.666867" y2="26.666667" class="t" />
<line x1="1533.333467" y1="53.333333" x2="1506.666733" y2="66.666667" class="t" />
<line x1="1493.333333" y1="93.333333" x2="1506.666733" y2="66.666667" class="t" />
<line x1="1466.666800" y1="146.666667" x2="1453.333400" y2="133.333333" class="t" />
<line x1="1506.666667" y1="106.666667" x2="1493.333333" y2="93.333333" class="t" />
<line x1="1546.666733" y1="66.666667" x2="1533.333467" y2="53.333333" class="t" />
<line x1="1546.666867" y1="26.666667" x2="1533.333467" y2="53.333333" class="t" />
<line x1="1493.333400" y1="133.333333" x2="1506.666667" y2="106.666667" class="t" />
<line x1="1533.333533" y1="13.333333" x2="1546.666867" y2="26.666667" class="t" />
<line x1="1573.333467" y1="53.333333" x2="1546.666733" y2="66.666667" class="t" />
<line x1="1533.333333" y1="93.333333" x2="1546.666733" y2="66.666667" class="t" />
<line x1="1506.666800" y1="146.666667" x2="1493.333400" y2="133.333333" class="t" />
<line x1="1546.666667" y1="106.666667" x2="1533.333333" y2="93.333333" class="t" />
<line x1="1586.666733" y1="66.666667" x2="1573.333467" y2="53.333333" class="t" />
<line x1="1586.666867" y1="26.666667" x2="1573.333467" y2="53.333333" class="t" />
<line x1="1533.333400" y1="133.333333" x2="1546.666667" y2="106.666667" class="t" />
<line x1="1573.333533" y1="13.333333" x2="1586.666867" y2="26.666667" class="t" />
<line x1="1613.333400" y1="53.333333" x2="1586.666733" y2="66.666667" class="t" />
<line x1="1573.333333" y1="93.333333" x2="1586.666733" y2="66.666667" class="t" />
<line x1="1546.666800" y1="146.666667" x2="1533.333400" y2="133.333333" class="t" />
<line x1="1586.666667" y1="106.666667" x2="1573.333333" y2="93.333333" class="t" />
<line x1="1626.666667" y1="66.666667" x2="1613.333400" y2="53.333333" class="t" />
<line x1="1626.666733" y1="26.666667" x2="1613.333400" y2="53.333333" class="t" />
<line x1="1613.333333" y1="93.333333" x2="1626.666667" y2="66.666667" class="t" />
<line x1="1573.333400" y1="133.333333" x2="1586.666667" y2="106.666667" class="t" />
<line x1="1613.333467" y1="13.333333" x2="1626.666733" y2="26.666667" class="t" />
<line x1="1653.333333" y1="66.666667" x2="1626.666667" y2="66.666667" class="t" />
<line x1="1586.666800" y1="146.666667" x2="1573.333400" y2="133.333333" class="t" />
<line x1="1626.666667" y1="106.666667" x2="1613.333333" y2="93.333333" class="t" />
<line x1="1613.333400" y1="133.333333" x2="1626.666667" y2="106.666667" class="t" />
<line x1="1666.666667" y1="53.333333" x2="1653.333333" y2="66.666667" class="t" />
<line x1="1626.666733" y1="146.666667" x2="1613.333400" y2="133.333333" class="t" />
</svg>
