<?xml version="1.0"?>
<svg width="1041" height="1296" version="1.1" xmlns="http://www.w3.org/2000/svg" >
<defs>
<style type="text/css"><![CDATA[
.m {stroke:rgb(255,0,0);stroke-width:1.620000;}
.v {stroke:rgb(0,0,255);stroke-width:1.620000;}
.b {stroke:rgb(0,0,0);stroke-width:3.240000;fill:white}
.n {stroke:rgb(128,128,128);stroke-width:1.620000}
.t {stroke:rgb(0,128,0);stroke-width:1.620000;}
.c {stroke:rgb(128,128,128);stroke-width:1.620000;stroke-dasharray:10.410000, 10.410000;}
]]></style>
</defs>
<path fill="none" style="stroke:black;stroke-width:3.240000;" d=" M 631.829 1116.15 L 605.713 1093.97 M 605.713 1093.97 L 632.001 1115.95 M 612.738 1125.49 L 595.642 1095.79 M 595.998 1095.16 L 614.234 1124.17 M 595.642 1095.79 L 586.093 1093.64 M 557.898 1113.11 L 574.607 1122.84 M 586.093 1093.64 L 577.635 1088.71 M 544.889 1098.81 L 557.898 1113.11 M 577.635 1088.71 L 571.049 1081.47 M 536.783 1081.25 L 544.889 1098.81 M 571.049 1081.47 L 566.946 1072.58 M 565.705 1062.87 L 534.331 1062.07 M 567.301 1052.73 L 537.468 1042.99 M 534.331 1062.07 L 565.713 1062.39 M 572.416 1039.27 L 545.728 1022.76 M 538.173 1040.56 L 568.591 1048.28 M 580.565 1027.4 L 558.533 1005.05 M 546.987 1020.56 L 574.72 1035.25 M 558.533 1005.05 L 588.752 1021.21 M 828.1 780.216 L 826.793 814.458 M 826.793 814.458 L 836.796 784.711 M 592.291 987.125 L 574.033 993.491 M 588.752 1021.21 L 597.995 1017.99 M 611.619 986.545 L 592.291 987.125 M 597.995 1017.99 L 607.779 1017.69 M 630.227 991.803 L 611.619 986.545 M 607.779 1017.69 L 617.199 1020.35 M 646.393 1002.41 L 630.227 991.803 M 617.199 1020.35 L 625.382 1025.73 M 658.62 1017.39 L 646.393 1002.41 M 631.572 1033.31 L 658.62 1017.39 M 625.382 1025.73 L 631.572 1033.31 M 828.224 729.545 L 809.666 704.236 M 795.993 717.908 L 821.302 736.466 M 876.65 679.743 L 857.477 654.897 M 844.144 668.901 L 869.9 686.832 M 941.052 602.521 L 919.046 580.145 M 907.482 595.643 L 935.198 610.367 M 646.269 1102.9 L 614.588 1089.84 M 646.369 1102.65 L 621.76 1083.18 M 614.588 1089.84 L 646.369 1102.65 M 646.294 1145.7 L 612.738 1125.49 M 614.234 1124.17 L 648.836 1142.53 M 648.836 1142.53 L 631.829 1116.15 M 619.397 1156.46 L 593.468 1127.1 M 593.468 1127.1 L 619.844 1156.06 M 587.663 1160.61 L 573.426 1124.12 M 574.607 1122.84 L 591.055 1158.39 M 573.426 1124.12 L 557.183 1113.63 M 518.066 1115.66 L 536.525 1137.25 M 557.183 1113.63 L 544.618 1098.93 M 506.555 1089.69 L 518.066 1115.66 M 544.618 1098.93 L 536.783 1081.25 M 502.953 1061.51 L 506.555 1089.69 M 537.468 1042.99 L 507.561 1033.48 M 545.728 1022.76 L 518.914 1006.45 M 507.815 1032.6 L 538.173 1040.56 M 519.368 1005.66 L 546.987 1020.56 M 536.331 982.871 L 574.262 992.639 M 574.033 993.491 L 536.331 982.871 M 585.166 955.018 L 558.714 965.378 M 574.262 992.639 L 592.267 985.588 M 613.475 952.657 L 585.166 955.018 M 592.267 985.588 L 611.536 983.98 M 641.278 958.491 L 613.475 952.657 M 611.536 983.98 L 630.461 987.952 M 666.25 972.034 L 641.278 958.491 M 630.461 987.952 L 647.459 997.17 M 686.305 992.153 L 666.25 972.034 M 661.11 1010.86 L 686.305 992.153 M 647.459 997.17 L 661.11 1010.86 M 809.666 704.236 L 790.915 679.07 M 770.828 699.157 L 795.993 717.908 M 857.477 654.897 L 838.113 630.199 M 818.525 650.773 L 844.144 668.901 M 919.046 580.145 L 896.87 557.938 M 879.881 580.706 L 907.482 595.643 M 971.24 498.572 L 946.568 479.174 M 932.422 503.81 L 971.24 498.572 M 670.575 1122.75 L 646.269 1102.9 M 632.001 1115.95 L 670.575 1122.75 M 660.416 1175.09 L 619.397 1156.46 M 619.844 1156.06 L 661.539 1173.13 M 661.539 1173.13 L 646.294 1145.7 M 619.761 1192.22 L 587.663 1160.61 M 591.055 1158.39 L 625.688 1187.21 M 582.103 1192.14 L 560.388 1152.66 M 560.388 1152.66 L 582.986 1191.64 M 510.757 1160.94 L 539.734 1183.59 M 539.734 1183.59 L 533.21 1139.01 M 536.525 1137.25 L 547.03 1181.06 M 488.799 1131.43 L 510.757 1160.94 M 533.21 1139.01 L 516.251 1116.22 M 475.424 1097.17 L 488.799 1131.43 M 516.251 1116.22 L 505.92 1089.76 M 471.583 1060.59 L 475.424 1097.17 M 505.92 1089.76 L 502.953 1061.51 M 507.561 1033.48 L 477.549 1024.3 M 518.914 1006.45 L 491.919 990.445 M 477.549 1024.3 L 507.815 1032.6 M 491.919 990.445 L 519.368 1005.66 M 513.365 959.232 L 558.391 960.791 M 558.714 965.378 L 513.88 960.941 M 573.796 918.454 L 540.837 934.776 M 558.391 960.791 L 583.848 948.184 M 609.898 911.426 L 573.796 918.454 M 583.848 948.184 L 611.733 942.756 M 646.574 914.194 L 609.898 911.426 M 611.733 942.756 L 640.06 944.894 M 681.213 926.559 L 646.574 914.194 M 640.06 944.894 L 666.815 954.444 M 711.351 947.642 L 681.213 926.559 M 690.092 970.728 L 711.351 947.642 M 666.815 954.444 L 690.092 970.728 M 790.915 679.07 L 771.882 654.117 M 745.874 680.124 L 770.828 699.157 M 838.113 630.199 L 818.473 605.72 M 793.112 632.358 L 818.525 650.773 M 896.87 557.938 L 874.445 535.983 M 852.449 565.461 L 879.881 580.706 M 946.568 479.174 L 921.68 460.056 M 903.365 491.951 L 932.422 503.81 M 666.155 1213.67 L 619.761 1192.22 M 625.688 1187.21 L 674.204 1203.29 M 674.204 1203.29 L 660.416 1175.09 M 620.425 1225.96 L 582.103 1192.14 M 582.986 1191.64 L 623.001 1223.44 M 956.409 356.43 L 1007.52 356.32 M 547.03 1181.06 L 576.279 1222.98 M 480.456 1183.09 L 511.916 1214.2 M 511.916 1214.2 L 505.021 1163.56 M 1007.52 356.32 L 1041.11 341.345 M 1041.11 341.345 L 991.422 329.379 M 505.021 1163.56 L 485.719 1132.25 M 443.568 1103.34 L 457.235 1145.43 M 485.719 1132.25 L 474.358 1097.27 M 440.229 1059.22 L 443.568 1103.34 M 474.358 1097.27 L 471.583 1060.59 M 447.406 1015.56 L 440.229 1059.22 M 464.693 974.834 L 513.365 959.232 M 513.88 960.941 L 464.693 974.834 M 488.967 936.357 L 539.531 928.893 M 540.837 934.776 L 489.857 938.44 M 557.125 880.907 L 519.724 904.549 M 539.531 928.893 L 570.619 909.241 M 599.051 866.768 L 557.125 880.907 M 570.619 909.241 L 605.471 897.488 M 643.131 862.933 L 599.051 866.768 M 605.471 897.488 L 642.113 894.3 M 686.869 869.619 L 643.131 862.933 M 642.113 894.3 L 678.47 899.858 M 727.79 886.448 L 686.869 869.619 M 712.486 913.847 L 727.79 886.448 M 678.47 899.858 L 712.486 913.847 M 771.882 654.117 L 752.487 629.443 M 721.201 660.73 L 745.874 680.124 M 818.473 605.72 L 798.479 581.53 M 767.97 613.576 L 793.112 632.358 M 874.445 535.983 L 851.703 514.355 M 825.242 549.817 L 852.449 565.461 M 921.68 460.056 L 896.517 441.302 M 874.484 479.672 L 903.365 491.951 M 875.542 415.35 L 926.85 391.014 M 926.85 391.014 L 901.82 372.081 M 623.001 1223.44 L 676.159 1243.41 M 676.159 1243.41 L 666.155 1213.67 M 901.82 372.081 L 956.409 356.43 M 576.279 1222.98 L 621.503 1257.32 M 621.503 1257.32 L 620.425 1225.96 M 933.865 331.132 L 989.933 322.117 M 991.422 329.379 L 934.797 333.673 M 455.553 1202.19 L 490.283 1239.02 M 490.283 1239.02 L 480.456 1183.09 M 989.933 322.117 L 1027.93 299.444 M 1027.93 299.444 L 971.196 296.94 M 438.579 1202.45 L 448.15 1146.47 M 457.235 1145.43 L 455.553 1202.19 M 448.15 1146.47 L 438.96 1103.19 M 438.96 1103.19 L 438.708 1058.95 M 417.421 1006.3 L 407.47 1055.94 M 438.708 1058.95 L 447.406 1015.56 M 437.2 959.7 L 488.967 936.357 M 489.857 938.44 L 437.2 959.7 M 499.496 880.554 L 464.307 916.946 M 541.316 852.026 L 499.496 880.554 M 519.724 904.549 L 556.276 879.615 M 588.039 832.541 L 541.316 852.026 M 556.276 879.615 L 597.114 862.584 M 637.736 822.902 L 588.039 832.541 M 597.114 862.584 L 640.551 854.16 M 688.356 823.509 L 637.736 822.902 M 640.551 854.16 L 684.794 854.69 M 737.808 834.335 L 688.356 823.509 M 728.017 864.152 L 737.808 834.335 M 684.794 854.69 L 728.017 864.152 M 752.487 629.443 L 732.665 605.111 M 696.869 640.907 L 721.201 660.73 M 798.479 581.53 L 778.066 557.693 M 743.159 594.356 L 767.97 613.576 M 851.703 514.355 L 828.587 493.128 M 798.313 533.701 L 825.242 549.817 M 896.517 441.302 L 871.029 422.989 M 845.821 466.89 L 874.484 479.672 M 847.476 401.306 L 875.542 415.35 M 876.418 353.652 L 933.865 331.132 M 934.797 333.673 L 876.418 353.652 M 909.567 307.013 L 968.505 288.746 M 971.196 296.94 L 910.847 309.799 M 410.957 1217.35 L 441.344 1264.09 M 441.344 1264.09 L 438.579 1202.45 M 968.505 288.746 L 1008.23 257.37 M 1008.23 257.37 L 947.106 265.79 M 408.519 1217.01 L 418.272 1156.08 M 418.272 1156.08 L 410.957 1217.35 M 385.89 1164.26 L 407.757 1106.56 M 407.757 1106.56 L 388.208 1165.08 M 370.369 1106.23 L 405.498 1055.5 M 407.47 1055.94 L 376.494 1109.3 M 405.498 1055.5 L 417.421 1006.3 M 476.391 856.437 L 439.264 898.031 M 464.307 916.946 L 498.017 879.18 M 519.799 821.448 L 476.391 856.437 M 498.017 879.18 L 537.431 847.41 M 568.327 793.999 L 519.799 821.448 M 537.431 847.41 L 581.494 822.487 M 620.679 774.823 L 568.327 793.999 M 581.494 822.487 L 629.029 805.076 M 675.456 764.433 L 620.679 774.823 M 629.029 805.076 L 678.765 795.642 M 731.194 763.107 L 675.456 764.433 M 729.374 794.437 L 731.194 763.107 M 678.765 795.642 L 729.374 794.437 M 732.665 605.111 L 712.362 581.18 M 672.938 620.604 L 696.869 640.907 M 778.066 557.693 L 757.181 534.267 M 718.737 574.647 L 743.159 594.356 M 828.587 493.128 L 805.052 472.367 M 771.71 517.052 L 798.313 533.701 M 871.029 422.989 L 845.182 405.189 M 817.419 453.539 L 845.821 466.89 M 819.725 386.649 L 847.476 401.306 M 850.617 335.784 L 909.567 307.013 M 910.847 309.799 L 850.617 335.784 M 879.928 278.684 L 938.155 248.474 M 947.106 265.79 L 885.14 287.31 M 380.029 1230.17 L 408.178 1282.6 M 408.178 1282.6 L 408.519 1217.01 M 938.155 248.474 L 974.67 206.343 M 974.67 206.343 L 913.251 229.377 M 372.296 1228.43 L 385.89 1164.26 M 388.208 1165.08 L 380.029 1230.17 M 341.707 1165.23 L 370.369 1106.23 M 376.494 1109.3 L 355.327 1171.39 M 336.604 1104.17 L 374.495 1050.63 M 374.495 1050.63 L 338.988 1105.78 M 341.517 1043.1 L 387.626 996.44 M 387.626 996.44 L 343.607 1045.07 M 409.41 945.118 L 381.306 931.149 M 381.946 929.93 L 409.41 945.118 M 451.457 833.578 L 413.812 879.669 M 439.264 898.031 L 474.532 854.849 M 494.34 792.315 L 451.457 833.578 M 474.532 854.849 L 514.707 816.192 M 541.848 756.474 L 494.34 792.315 M 514.707 816.192 L 559.215 782.614 M 593.298 726.567 L 541.848 756.474 M 559.215 782.614 L 607.417 754.595 M 647.955 703.024 L 593.298 726.567 M 607.417 754.595 L 658.623 732.539 M 705.033 686.181 L 647.955 703.024 M 712.097 716.76 L 705.033 686.181 M 658.623 732.539 L 712.097 716.76 M 712.362 581.18 L 691.538 557.7 M 649.458 599.781 L 672.938 620.604 M 757.181 534.267 L 735.788 511.305 M 694.753 554.406 L 718.737 574.647 M 805.052 472.367 L 781.068 452.126 M 745.478 499.822 L 771.71 517.052 M 845.182 405.189 L 818.951 387.96 M 789.316 439.568 L 817.419 453.539 M 792.324 371.349 L 819.725 386.649 M 822.525 315.668 L 879.928 278.684 M 885.14 287.31 L 824.406 318.524 M 847.299 253.857 L 901.849 212.782 M 913.251 229.377 L 853.301 262.072 M 342.562 1238.47 L 364.461 1296.26 M 364.461 1296.26 L 372.296 1228.43 M 901.849 212.782 L 931.483 161.173 M 931.483 161.173 L 874.08 198.158 M 317.753 1229.18 L 341.707 1165.23 M 355.327 1171.39 L 342.562 1238.47 M 302.551 1163.36 L 336.604 1104.17 M 338.988 1105.78 L 310.43 1167.81 M 298.275 1095.95 L 341.517 1043.1 M 343.607 1045.07 L 305.324 1101.62 M 308.807 1033.23 L 358.055 985.93 M 358.055 985.93 L 311.071 1035.48 M 381.306 931.149 L 352.884 917.84 M 354.844 914.104 L 381.946 929.93 M 413.812 879.669 L 449.262 831.869 M 465.093 765.444 L 424.753 812.266 M 449.262 831.869 L 488.106 786.783 M 508.744 721.691 L 465.093 765.444 M 488.106 786.783 L 530.137 744.653 M 555.471 681.241 L 508.744 721.691 M 530.137 744.653 L 575.131 705.703 M 605.026 644.309 L 555.471 681.241 M 575.131 705.703 L 622.848 670.141 M 657.144 611.092 L 605.026 644.309 M 673.034 638.156 L 657.144 611.092 M 622.848 670.141 L 673.034 638.156 M 691.538 557.7 L 670.172 534.713 M 626.47 578.414 L 649.458 599.781 M 735.788 511.305 L 713.864 488.849 M 671.248 533.61 L 694.753 554.406 M 781.068 452.126 L 756.617 432.451 M 719.656 481.985 L 745.478 499.822 M 818.951 387.96 L 792.324 371.349 M 761.548 424.944 L 789.316 439.568 M 765.302 355.388 L 822.525 315.668 M 824.406 318.524 L 765.302 355.388 M 793.127 297.648 L 847.299 253.857 M 853.301 262.072 L 795.12 300.375 M 806.753 226.333 L 853.067 174.302 M 874.08 198.158 L 818.85 240.606 M 286.638 1233.28 L 295.575 1295.21 M 295.575 1295.21 L 317.753 1229.18 M 853.067 174.302 L 870.416 114.984 M 870.416 114.984 L 822.839 165.863 M 269.911 1224.9 L 302.551 1163.36 M 310.43 1167.81 L 286.638 1233.28 M 256.046 1151.34 L 298.275 1095.95 M 305.324 1101.62 L 271.184 1162.34 M 260.259 1083.19 L 308.807 1033.23 M 311.071 1035.48 L 267.494 1089.83 M 276.673 1021.01 L 328.737 974.731 M 328.737 974.731 L 278.978 1023.48 M 352.884 917.84 L 324.148 905.225 M 387.938 861.908 L 361.641 844.779 M 328.135 897.626 L 354.844 914.104 M 362.502 843.524 L 387.938 861.908 M 438.273 743.933 L 399.777 793.264 M 424.753 812.266 L 462.776 763.543 M 477.969 695.562 L 438.273 743.933 M 462.776 763.543 L 501.982 715.768 M 518.839 648.18 L 477.969 695.562 M 501.982 715.768 L 542.35 668.969 M 560.861 601.816 L 518.839 648.18 M 542.35 668.969 L 583.855 623.175 M 604.008 556.497 L 560.861 601.816 M 583.855 623.175 L 626.47 578.414 M 670.172 534.713 L 648.255 512.25 M 713.864 488.849 L 691.402 466.931 M 648.255 512.25 L 671.248 533.61 M 756.617 432.451 L 731.696 413.376 M 694.275 463.526 L 719.656 481.985 M 734.142 409.652 L 761.548 424.944 M 795.12 300.375 L 737.896 340.095 M 737.896 340.095 L 793.127 297.648 M 818.85 240.606 L 764.678 284.396 M 759.177 277.213 L 806.753 226.333 M 822.839 165.863 L 776.526 217.894 M 764.571 206.135 L 800.881 146.689 M 800.881 146.689 L 804.412 84.2149 M 804.412 84.2149 L 769.572 144.534 M 238.544 1223.87 L 235.771 1285.62 M 235.771 1285.62 L 269.911 1224.9 M 271.184 1162.34 L 238.544 1223.87 M 212.469 1205.69 L 256.046 1151.34 M 267.494 1089.83 L 225.265 1145.22 M 210.5 1131.93 L 260.259 1083.19 M 278.978 1023.48 L 230.43 1073.43 M 223.488 1065.99 L 276.673 1021.01 M 299.7 962.825 L 270.379 951.635 M 270.963 950.209 L 299.7 962.825 M 324.148 905.225 L 295.11 893.318 M 301.838 880.497 L 328.135 897.626 M 361.641 844.779 L 334.932 828.301 M 337.526 824.521 L 362.502 843.524 M 399.777 793.264 L 374.341 774.88 M 367.241 760.728 L 416.572 722.232 M 348.239 735.752 L 367.241 760.728 M 416.572 722.232 L 464.943 682.536 M 444.737 658.522 L 396.962 697.729 M 464.943 682.536 L 512.325 641.665 M 491.536 618.155 L 444.737 658.522 M 512.325 641.665 L 558.689 599.644 M 537.33 576.65 L 491.536 618.155 M 558.689 599.644 L 604.008 556.497 M 582.091 534.035 L 537.33 576.65 M 625.792 490.333 L 582.091 534.035 M 691.402 466.931 L 668.408 445.572 M 669.354 444.451 L 694.275 463.526 M 731.696 413.376 L 706.315 394.917 M 707.12 393.691 L 734.142 409.652 M 764.678 284.396 L 710.128 325.472 M 708.567 323.055 L 759.177 277.213 M 776.526 217.894 L 729.397 267.309 M 724.273 261.261 L 764.571 206.135 M 769.572 144.534 L 733.404 202.455 M 731.08 200.76 L 761.858 139.804 M 761.858 139.804 L 756.756 78.212 M 756.756 78.212 L 730.508 141.252 M 182.023 1198.07 L 165.485 1255.24 M 165.485 1255.24 L 212.469 1205.69 M 225.265 1145.22 L 182.023 1198.07 M 157.93 1175.51 L 210.5 1131.93 M 230.43 1073.43 L 181.182 1120.73 M 167.878 1105.62 L 223.488 1065.99 M 247.635 1009.1 L 195.066 1052.68 M 193.015 1050.08 L 247.635 1009.1 M 270.379 951.635 L 240.795 941.159 M 242.541 936.9 L 270.963 950.209 M 295.11 893.318 L 265.793 882.12 M 275.964 862.736 L 301.838 880.497 M 334.932 828.301 L 307.83 812.475 M 313.017 804.919 L 337.526 824.521 M 374.341 774.88 L 348.467 757.118 M 329.847 710.322 L 348.239 735.752 M 396.962 697.729 L 376.764 673.709 M 370.52 661.542 L 426.313 634.956 M 358.063 632.736 L 370.52 661.542 M 411.787 607.136 L 358.063 632.736 M 426.313 634.956 L 480.016 604.369 M 463.499 577.684 L 411.787 607.136 M 480.016 604.369 L 531.345 569.944 M 512.923 544.535 L 463.499 577.684 M 531.345 569.944 L 580.023 531.864 M 559.796 507.868 L 512.923 544.535 M 580.023 531.864 L 625.792 490.333 M 603.868 467.877 L 559.796 507.868 M 668.408 445.572 L 644.903 424.776 M 644.903 424.776 L 669.354 444.451 M 706.315 394.917 L 680.493 377.08 M 680.493 377.08 L 707.12 393.691 M 729.397 267.309 L 679.879 310.33 M 678.526 308.274 L 724.273 261.261 M 733.404 202.455 L 693.604 254.598 M 693.604 254.598 L 731.08 200.76 M 730.508 141.252 L 699.736 199.183 M 693.725 195.889 L 717.119 134.606 M 717.119 134.606 L 702.221 76.9895 M 702.221 76.9895 L 686.319 140.629 M 129.827 1161.55 L 102.066 1209.9 M 102.066 1209.9 L 157.93 1175.51 M 181.182 1120.73 L 129.827 1161.55 M 109.653 1135.83 L 167.878 1105.62 M 195.066 1052.68 L 140.869 1089.64 M 135.549 1081.72 L 193.015 1050.08 M 218.895 996.494 L 165.622 1034.77 M 163.892 1032.24 L 218.895 996.494 M 240.795 941.159 L 210.975 931.377 M 214.438 922.931 L 242.541 936.9 M 265.793 882.12 L 236.221 871.609 M 250.512 844.374 L 275.964 862.736 M 307.83 812.475 L 280.366 797.287 M 288.974 784.748 L 313.017 804.919 M 348.467 757.118 L 322.185 739.966 M 312.056 684.469 L 329.847 710.322 M 376.764 673.709 L 356.009 650.168 M 339.834 595.597 L 398.026 583.137 M 335.112 564.571 L 339.834 595.597 M 389.63 552.897 L 335.112 564.571 M 398.026 583.137 L 454.312 563.811 M 442.361 534.791 L 389.63 552.897 M 454.312 563.811 L 507.884 537.896 M 492.551 510.513 L 442.361 534.791 M 507.884 537.896 L 557.976 505.765 M 539.48 480.41 L 492.551 510.513 M 557.976 505.765 L 603.868 467.877 M 582.475 444.915 L 539.48 480.41 M 620.919 404.535 L 582.475 444.915 M 710.128 325.472 L 654.262 359.85 M 654.262 359.85 L 708.567 323.055 M 662.798 248.609 L 649.107 297.346 M 699.736 199.183 L 662.798 248.609 M 660.844 248.101 L 693.725 195.889 M 686.319 140.629 L 662.383 197.502 M 662.383 197.502 L 684.032 139.72 M 684.032 139.72 L 665.608 87.0986 M 665.608 87.0986 L 653.663 147.635 M 85.1732 1116.2 L 50.3744 1152.96 M 50.3744 1152.96 L 109.653 1135.83 M 140.869 1089.64 L 85.1732 1116.2 M 76.7084 1100.29 L 135.549 1081.72 M 165.622 1034.77 L 110.594 1062.68 M 106.564 1055.06 L 163.892 1032.24 M 190.457 983.219 L 137.614 1015.08 M 515.036 42.5128 L 470.314 0 M 470.314 0 L 465.728 31.0467 M 162.318 969.323 L 190.457 983.219 M 210.975 931.377 L 180.947 922.252 M 186.648 908.349 L 214.438 922.931 M 236.221 871.609 L 206.427 861.75 M 225.469 825.459 L 250.512 844.374 M 280.366 797.287 L 252.576 782.705 M 265.378 764.056 L 288.974 784.748 M 322.185 739.966 L 295.533 723.394 M 294.835 658.232 L 312.056 684.469 M 356.009 650.168 L 334.744 627.087 M 319.588 516.908 L 375.266 519.817 M 323.782 485.806 L 319.588 516.908 M 374.336 488.447 L 323.782 485.806 M 375.266 519.817 L 430.673 513.615 M 424.645 482.816 L 374.336 488.447 M 430.673 513.615 L 484.33 498.469 M 473.364 469.064 L 424.645 482.816 M 484.33 498.469 L 534.803 474.783 M 519.192 447.557 L 473.364 469.064 M 534.803 474.783 L 580.741 443.191 M 560.904 418.872 L 519.192 447.557 M 580.741 443.191 L 620.919 404.535 M 597.384 383.774 L 560.904 418.872 M 679.879 310.33 L 627.659 343.201 M 627.659 343.201 L 678.526 308.274 M 649.107 297.346 L 660.844 248.101 M 629.734 243.965 L 619.476 287.006 M 631.079 199.739 L 629.734 243.965 M 623.458 156.154 L 631.079 199.739 M 653.663 147.635 L 635.043 100.561 M 635.043 100.561 L 623.458 156.154 M 55.6475 1077.03 L 19.9969 1103.23 M 19.9969 1103.23 L 76.7084 1100.29 M 110.594 1062.68 L 55.6475 1077.03 M 50.2181 1062.13 L 106.564 1055.06 M 137.614 1015.08 L 83.8609 1033.39 M 545.039 90.7269 L 515.036 42.5128 M 465.728 31.0467 L 504.858 72.2005 M 492.334 77.8205 L 447.352 43.1583 M 447.352 43.1583 L 448.21 74.5302 M 134.461 954.869 L 162.318 969.323 M 180.947 922.252 L 150.743 913.728 M 159.154 893.215 L 186.648 908.349 M 206.427 861.75 L 176.441 852.486 M 200.808 806.048 L 225.469 825.459 M 252.576 782.705 L 224.501 768.68 M 242.2 742.897 L 265.378 764.056 M 295.533 723.394 L 268.557 707.357 M 278.14 631.657 L 294.835 658.232 M 313.022 604.435 L 278.14 631.657 M 334.744 627.087 L 313.022 604.435 M 318.401 445.383 L 366.888 459.932 M 330.427 416.395 L 318.401 445.383 M 372.807 429.112 L 330.427 416.395 M 366.888 459.932 L 417.316 464.379 M 416.882 432.999 L 372.807 429.112 M 417.316 464.379 L 467.601 458.542 M 460.834 427.896 L 416.882 432.999 M 467.601 458.542 L 515.668 442.66 M 502.846 414.015 L 460.834 427.896 M 515.668 442.66 L 559.533 417.389 M 541.185 391.928 L 502.846 414.015 M 559.533 417.389 L 597.384 383.774 M 619.476 287.006 L 628.224 243.633 M 596.94 241.131 L 589.668 277.185 M 628.224 243.633 L 626.48 199.421 M 595.49 204.38 L 596.94 241.131 M 626.48 199.421 L 614.341 156.872 M 585.4 169.011 L 595.49 204.38 M 614.341 156.872 L 592.495 118.395 M 592.495 118.395 L 585.4 169.011 M 32.8173 1036.01 L 0 1052.62 M 0 1052.62 L 50.2181 1062.13 M 83.8609 1033.39 L 32.8173 1036.01 M 557.419 140.316 L 545.039 90.7269 M 504.858 72.2005 L 528.602 117.461 M 521.288 119.939 L 492.334 77.8205 M 448.21 74.5302 L 486.294 108.617 M 479.158 111.678 L 437.475 82.1004 M 437.475 82.1004 L 442.406 113.094 M 106.86 939.931 L 134.461 954.869 M 150.743 913.728 L 120.395 905.732 M 131.929 877.604 L 159.154 893.215 M 176.441 852.486 L 146.299 843.748 M 176.49 786.21 L 200.808 806.048 M 224.501 768.68 L 196.185 755.147 M 219.395 721.336 L 242.2 742.897 M 268.557 707.357 L 241.304 691.794 M 305.73 318.579 L 328.637 356.435 M 334.323 305.642 L 305.73 318.579 M 328.637 356.435 L 353.364 337.109 M 332.346 394.181 L 371.871 414.068 M 349.686 368.023 L 332.346 394.181 M 382.541 384.554 L 349.686 368.023 M 371.871 414.068 L 414.975 424.055 M 418.372 392.856 L 382.541 384.554 M 414.975 424.055 L 459.219 423.578 M 455.15 392.459 L 418.372 392.856 M 459.219 423.578 L 502.098 412.663 M 490.793 383.386 L 455.15 392.459 M 502.098 412.663 L 541.185 391.928 M 574.268 362.547 L 523.285 366.15 M 523.19 364.367 L 574.268 362.547 M 600.729 327.085 L 573.522 311.441 M 574.085 310.501 L 600.729 327.085 M 589.668 277.185 L 595.889 240.935 M 595.889 240.935 L 592.304 204.33 M 561.757 211.528 L 564.526 239.8 M 592.304 204.33 L 579.169 169.975 M 551.612 184.993 L 561.757 211.528 M 579.169 169.975 L 557.419 140.316 M 534.813 162.084 L 551.612 184.993 M 528.602 117.461 L 534.813 162.084 M 531.486 163.823 L 521.288 119.939 M 486.294 108.617 L 507.731 148.244 M 503.84 149.369 L 479.158 111.678 M 442.406 113.094 L 476.174 142.919 M 475.628 143.172 L 440.756 114.646 M 440.756 114.646 L 447.303 145.339 M 120.395 905.732 L 79.4801 924.593 M 79.4801 924.593 L 106.86 939.931 M 443.946 147.623 L 401.492 132.541 M 401.492 132.541 L 418.015 159.223 M 104.933 861.599 L 131.929 877.604 M 146.299 843.748 L 116.032 835.449 M 152.463 766.02 L 176.49 786.21 M 196.185 755.147 L 167.675 742.028 M 196.905 699.447 L 219.395 721.336 M 241.304 691.794 L 213.827 676.629 M 363.101 293.121 L 334.323 305.642 M 353.364 337.109 L 377.808 317.425 M 352.477 358.049 L 383.192 378.283 M 373.084 334.378 L 352.477 358.049 M 396.807 350.006 L 373.084 334.378 M 383.192 378.283 L 418.163 389.676 M 423.817 358.806 L 396.807 350.006 M 418.163 389.676 L 454.901 391.419 M 452.193 360.152 L 423.817 358.806 M 454.901 391.419 L 490.793 383.386 M 479.916 353.948 L 452.193 360.152 M 523.285 366.15 L 479.916 353.948 M 480.69 349.415 L 523.19 364.367 M 551.526 340.919 L 506.586 337.736 M 506.698 336.43 L 551.526 340.919 M 573.522 311.441 L 546.091 296.195 M 547.685 293.531 L 574.085 310.501 M 529.881 258.076 L 559.721 267.799 M 564.526 239.8 L 561.121 211.597 M 530.835 219.822 L 533.152 239.018 M 561.121 211.597 L 549.793 185.546 M 523.124 202.089 L 530.835 219.822 M 549.793 185.546 L 531.486 163.823 M 510.663 187.303 L 523.124 202.089 M 507.731 148.244 L 510.663 187.303 M 509.161 188.175 L 503.84 149.369 M 476.174 142.919 L 492.372 178.582 M 492.372 178.582 L 475.628 143.172 M 447.303 145.339 L 473.475 174.481 M 471.658 175.304 L 443.946 147.623 M 418.015 159.223 L 452.487 177.822 M 452.263 177.966 L 417.37 160.169 M 417.37 160.169 L 434.799 186.268 M 78.1195 845.29 L 104.933 861.599 M 116.032 835.449 L 85.6744 827.491 M 128.665 745.561 L 152.463 766.02 M 167.675 742.028 L 139.019 729.23 M 174.664 677.305 L 196.905 699.447 M 213.827 676.629 L 186.182 661.773 M 392.018 280.925 L 363.101 293.121 M 402.028 297.468 L 392.018 280.925 M 377.808 317.425 L 398.852 336.508 M 416.352 310.457 L 402.028 297.468 M 398.852 336.508 L 424.475 348.775 M 433.793 318.807 L 416.352 310.457 M 424.475 348.775 L 452.536 353.201 M 452.893 321.819 L 433.793 318.807 M 452.536 353.201 L 480.69 349.415 M 472.057 319.243 L 452.893 321.819 M 506.586 337.736 L 472.057 319.243 M 473.169 316.181 L 506.698 336.43 M 529.102 318.963 L 491.181 309.15 M 491.412 308.299 L 529.102 318.963 M 546.091 296.195 L 518.489 281.259 M 521.478 276.265 L 547.685 293.531 M 559.721 267.799 L 529.67 258.75 M 500.117 248.125 L 529.881 258.076 M 533.152 239.018 L 530.54 219.859 M 500.451 228.778 L 501.773 238.477 M 530.54 219.859 L 522.289 202.372 M 496.274 219.926 L 500.451 228.778 M 522.289 202.372 L 509.161 188.175 M 489.628 212.739 L 496.274 219.926 M 481.129 207.883 L 489.628 212.739 M 473.475 174.481 L 481.129 207.883 M 480.604 208.383 L 471.658 175.304 M 452.487 177.822 L 470.964 206.68 M 470.964 206.68 L 452.263 177.966 M 434.799 186.268 L 461.269 208.03 M 461.269 208.03 L 434.631 186.474 M 434.631 186.474 L 452.461 212.301 M 85.6744 827.491 L 51.4318 828.777 M 51.4318 828.777 L 78.1195 845.29 M 452.461 212.301 L 420.478 200.001 M 420.478 200.001 L 445.398 219.078 M 105.025 724.92 L 128.665 745.561 M 139.019 729.23 L 110.266 716.652 M 152.593 654.993 L 174.664 677.305 M 186.182 661.773 L 158.424 647.131 M 397.963 270.679 L 405.774 288.367 M 428.266 262.515 L 397.963 270.679 M 432.221 271.469 L 428.266 262.515 M 405.774 288.367 L 418.543 302.888 M 438.685 278.82 L 432.221 271.469 M 418.543 302.888 L 435.087 312.897 M 447.06 283.887 L 438.685 278.82 M 435.087 312.897 L 453.875 317.47 M 456.571 286.202 L 447.06 283.887 M 453.875 317.47 L 473.169 316.181 M 466.338 285.549 L 456.571 286.202 M 491.181 309.15 L 466.338 285.549 M 467.479 283.775 L 491.412 308.299 M 506.925 296.757 L 476.726 280.564 M 476.978 280.102 L 506.925 296.757 M 518.489 281.259 L 490.774 266.535 M 495.403 258.799 L 521.478 276.265 M 529.67 258.75 L 499.551 249.933 M 586.387 1093.3 L 595.998 1095.16 M 577.816 1088.58 L 586.387 1093.3 M 571.118 1081.44 L 577.816 1088.58 M 566.946 1072.58 L 571.118 1081.44 M 597.075 1063.8 L 565.705 1062.87 M 597.096 1062.59 L 567.301 1052.73 M 565.713 1062.39 L 597.096 1062.59 M 599.039 1055.89 L 572.416 1039.27 M 568.591 1048.28 L 599.039 1055.89 M 602.509 1049.84 L 580.565 1027.4 M 574.72 1035.25 L 602.509 1049.84 M 836.796 784.711 L 846.683 754.925 M 821.213 773.261 L 828.1 780.216 M 816.803 764.521 L 821.213 773.261 M 815.3 754.849 L 816.803 764.521 M 816.85 745.184 L 815.3 754.849 M 821.302 736.466 L 816.85 745.184 M 846.683 754.925 L 828.224 729.545 M 895.727 704.663 L 876.65 679.743 M 869.9 686.832 L 895.727 704.663 M 962.97 624.983 L 941.052 602.521 M 935.198 610.367 L 962.97 624.983 M 621.76 1083.18 L 597.075 1063.8 M 470.392 238.058 L 500.117 248.125 M 501.773 238.477 L 500.375 228.789 M 500.375 228.789 L 496.061 220.002 M 496.061 220.002 L 489.25 212.972 M 489.25 212.972 L 480.604 208.383 M 445.398 219.078 L 470.392 238.058 M 110.266 716.652 L 81.4643 704.187 M 81.4643 704.187 L 105.025 724.92 M 158.424 647.131 L 130.609 632.596 M 130.609 632.596 L 152.593 654.993 M 431.07 258.583 L 434.327 267.814 M 461.932 252.886 L 431.07 258.583 M 434.327 267.814 L 440.269 275.593 M 440.269 275.593 L 448.318 281.163 M 448.318 281.163 L 457.692 283.982 M 457.692 283.982 L 467.479 283.775 M 476.726 280.564 L 461.932 252.886 M 484.92 274.38 L 462.828 252.09 M 462.828 252.09 L 476.978 280.102 M 490.774 266.535 L 463.002 251.919 M 463.002 251.919 L 484.92 274.38 M 469.397 241.232 L 495.403 258.799 M 499.551 249.933 L 469.397 241.232" />
<path fill="none" class="c" d=" M 604.008 556.497 L 626.47 578.414 M 626.47 578.414 L 670.172 534.713 M 649.458 599.781 L 691.538 557.7 M 560.861 601.816 L 583.855 623.175 M 648.255 512.25 L 604.008 556.497 M 582.091 534.035 L 604.008 556.497 M 648.255 512.25 L 625.792 490.333 M 648.255 512.25 L 691.402 466.931 M 668.408 445.572 L 625.792 490.333 M 603.868 467.877 L 625.792 490.333 M 644.903 424.776 L 603.868 467.877 M 582.475 444.915 L 603.868 467.877 M 644.903 424.776 L 620.919 404.535 M 644.903 424.776 L 680.493 377.08 M 680.493 377.08 L 654.262 359.85 M 654.262 359.85 L 620.919 404.535 M 680.493 377.08 L 710.128 325.472 M 597.384 383.774 L 620.919 404.535 M 654.262 359.85 L 627.659 343.201 M 627.659 343.201 L 597.384 383.774 M 654.262 359.85 L 679.879 310.33 M 574.268 362.547 L 597.384 383.774 M 627.659 343.201 L 600.729 327.085 M 600.729 327.085 L 574.268 362.547 M 627.659 343.201 L 649.107 297.346 M 649.107 297.346 L 619.476 287.006 M 619.476 287.006 L 600.729 327.085 M 551.526 340.919 L 574.268 362.547 M 573.522 311.441 L 551.526 340.919 M 619.476 287.006 L 589.668 277.185 M 589.668 277.185 L 574.085 310.501 M 529.102 318.963 L 551.526 340.919 M 546.091 296.195 L 529.102 318.963 M 589.668 277.185 L 559.721 267.799 M 559.721 267.799 L 547.685 293.531 M 506.925 296.757 L 529.102 318.963 M 518.489 281.259 L 506.925 296.757 M 529.67 258.75 L 521.478 276.265 M 484.92 274.38 L 506.925 296.757 M 490.774 266.535 L 484.92 274.38 M 499.551 249.933 L 495.403 258.799 M 672.938 620.604 L 712.362 581.18 M 518.839 648.18 L 542.35 668.969 M 671.248 533.61 L 713.864 488.849 M 737.896 340.095 L 710.128 325.472 M 708.567 323.055 L 679.879 310.33 M 678.526 308.274 L 649.107 297.346 M 660.844 248.101 L 629.734 243.965 M 660.844 248.101 L 662.383 197.502 M 662.383 197.502 L 631.079 199.739 M 662.383 197.502 L 653.663 147.635 M 653.663 147.635 L 623.458 156.154 M 574.268 362.547 L 541.185 391.928 M 628.224 243.633 L 596.94 241.131 M 626.48 199.421 L 595.49 204.38 M 614.341 156.872 L 585.4 169.011 M 523.285 366.15 L 541.185 391.928 M 551.526 340.919 L 523.19 364.367 M 595.889 240.935 L 564.526 239.8 M 564.526 239.8 L 559.721 267.799 M 592.304 204.33 L 561.757 211.528 M 579.169 169.975 L 551.612 184.993 M 557.419 140.316 L 534.813 162.084 M 557.419 140.316 L 528.602 117.461 M 506.586 337.736 L 523.19 364.367 M 529.102 318.963 L 506.698 336.43 M 564.526 239.8 L 533.152 239.018 M 533.152 239.018 L 529.881 258.076 M 561.121 211.597 L 530.835 219.822 M 549.793 185.546 L 523.124 202.089 M 531.486 163.823 L 510.663 187.303 M 531.486 163.823 L 507.731 148.244 M 491.181 309.15 L 506.698 336.43 M 506.925 296.757 L 491.412 308.299 M 533.152 239.018 L 501.773 238.477 M 501.773 238.477 L 500.117 248.125 M 530.54 219.859 L 500.451 228.778 M 522.289 202.372 L 496.274 219.926 M 509.161 188.175 L 489.628 212.739 M 509.161 188.175 L 492.372 178.582 M 492.372 178.582 L 481.129 207.883 M 492.372 178.582 L 473.475 174.481 M 476.726 280.564 L 491.412 308.299 M 484.92 274.38 L 476.978 280.102 M 501.773 238.477 L 470.392 238.058 M 500.375 228.789 L 470.392 238.058 M 496.061 220.002 L 470.392 238.058 M 489.25 212.972 L 470.392 238.058 M 480.604 208.383 L 470.392 238.058 M 480.604 208.383 L 470.964 206.68 M 470.964 206.68 L 470.392 238.058 M 470.964 206.68 L 461.269 208.03 M 461.269 208.03 L 470.392 238.058 M 461.269 208.03 L 452.461 212.301 M 452.461 212.301 L 470.392 238.058 M 452.461 212.301 L 445.398 219.078 M 696.869 640.907 L 732.665 605.111 M 694.753 554.406 L 735.788 511.305 M 477.969 695.562 L 501.982 715.768 M 537.33 576.65 L 558.689 599.644 M 737.896 340.095 L 764.678 284.396 M 559.796 507.868 L 580.023 531.864 M 669.354 444.451 L 706.315 394.917 M 707.12 393.691 L 737.896 340.095 M 708.567 323.055 L 729.397 267.309 M 539.48 480.41 L 557.976 505.765 M 678.526 308.274 L 693.604 254.598 M 693.604 254.598 L 662.798 248.609 M 693.604 254.598 L 699.736 199.183 M 693.725 195.889 L 662.383 197.502 M 693.725 195.889 L 686.319 140.629 M 684.032 139.72 L 653.663 147.635 M 560.904 418.872 L 580.741 443.191 M 541.185 391.928 L 559.533 417.389 M 545.039 90.7269 L 528.602 117.461 M 545.039 90.7269 L 504.858 72.2005 M 523.285 366.15 L 490.793 383.386 M 521.288 119.939 L 507.731 148.244 M 521.288 119.939 L 486.294 108.617 M 479.916 353.948 L 490.793 383.386 M 506.586 337.736 L 480.69 349.415 M 503.84 149.369 L 492.372 178.582 M 503.84 149.369 L 476.174 142.919 M 475.628 143.172 L 473.475 174.481 M 475.628 143.172 L 447.303 145.339 M 472.057 319.243 L 480.69 349.415 M 491.181 309.15 L 473.169 316.181 M 471.658 175.304 L 470.964 206.68 M 471.658 175.304 L 452.487 177.822 M 452.263 177.966 L 461.269 208.03 M 452.263 177.966 L 434.799 186.268 M 466.338 285.549 L 473.169 316.181 M 476.726 280.564 L 467.479 283.775 M 461.932 252.886 L 467.479 283.775 M 721.201 660.73 L 752.487 629.443 M 718.737 574.647 L 757.181 534.267 M 438.273 743.933 L 462.776 763.543 M 793.127 297.648 L 764.678 284.396 M 793.127 297.648 L 818.85 240.606 M 765.302 355.388 L 737.896 340.095 M 759.177 277.213 L 729.397 267.309 M 759.177 277.213 L 776.526 217.894 M 724.273 261.261 L 693.604 254.598 M 724.273 261.261 L 733.404 202.455 M 731.08 200.76 L 699.736 199.183 M 731.08 200.76 L 730.508 141.252 M 717.119 134.606 L 686.319 140.629 M 515.036 42.5128 L 504.858 72.2005 M 515.036 42.5128 L 465.728 31.0467 M 492.334 77.8205 L 486.294 108.617 M 492.334 77.8205 L 448.21 74.5302 M 490.793 383.386 L 502.098 412.663 M 479.158 111.678 L 476.174 142.919 M 479.158 111.678 L 442.406 113.094 M 443.946 147.623 L 452.487 177.822 M 443.946 147.623 L 418.015 159.223 M 461.932 252.886 L 457.692 283.982 M 745.874 680.124 L 771.882 654.117 M 743.159 594.356 L 778.066 557.693 M 847.299 253.857 L 818.85 240.606 M 847.299 253.857 L 874.08 198.158 M 399.777 793.264 L 424.753 812.266 M 399.777 793.264 L 362.502 843.524 M 765.302 355.388 L 795.12 300.375 M 806.753 226.333 L 776.526 217.894 M 806.753 226.333 L 822.839 165.863 M 374.341 774.88 L 337.526 824.521 M 491.536 618.155 L 512.325 641.665 M 694.275 463.526 L 731.696 413.376 M 734.142 409.652 L 765.302 355.388 M 764.571 206.135 L 733.404 202.455 M 764.571 206.135 L 769.572 144.534 M 761.858 139.804 L 730.508 141.252 M 348.467 757.118 L 313.017 804.919 M 512.923 544.535 L 531.345 569.944 M 322.185 739.966 L 288.974 784.748 M 492.551 510.513 L 507.884 537.896 M 295.533 723.394 L 265.378 764.056 M 519.192 447.557 L 534.803 474.783 M 268.557 707.357 L 242.2 742.897 M 502.846 414.015 L 515.668 442.66 M 241.304 691.794 L 219.395 721.336 M 213.827 676.629 L 196.905 699.447 M 452.193 360.152 L 454.901 391.419 M 186.182 661.773 L 174.664 677.305 M 452.893 321.819 L 452.536 353.201 M 158.424 647.131 L 152.593 654.993 M 456.571 286.202 L 453.875 317.47 M 461.932 252.886 L 448.318 281.163 M 770.828 699.157 L 790.915 679.07 M 767.97 613.576 L 798.479 581.53 M 901.849 212.782 L 874.08 198.158 M 387.938 861.908 L 424.753 812.266 M 822.525 315.668 L 795.12 300.375 M 822.525 315.668 L 853.301 262.072 M 853.067 174.302 L 822.839 165.863 M 719.656 481.985 L 756.617 432.451 M 792.324 371.349 L 765.302 355.388 M 761.548 424.944 L 792.324 371.349 M 800.881 146.689 L 769.572 144.534 M 455.15 392.459 L 459.219 423.578 M 461.932 252.886 L 440.269 275.593 M 795.993 717.908 L 809.666 704.236 M 793.112 632.358 L 818.473 605.72 M 879.928 278.684 L 853.301 262.072 M 879.928 278.684 L 913.251 229.377 M 387.938 861.908 L 413.812 879.669 M 387.938 861.908 L 354.844 914.104 M 449.262 831.869 L 424.753 812.266 M 745.478 499.822 L 781.068 452.126 M 789.316 439.568 L 818.951 387.96 M 792.324 371.349 L 824.406 318.524 M 444.737 658.522 L 464.943 682.536 M 463.499 577.684 L 480.016 604.369 M 442.361 534.791 L 454.312 563.811 M 473.364 469.064 L 484.33 498.469 M 460.834 427.896 L 467.601 458.542 M 423.817 358.806 L 418.163 389.676 M 433.793 318.807 L 424.475 348.775 M 447.06 283.887 L 435.087 312.897 M 461.932 252.886 L 434.327 267.814 M 821.302 736.466 L 828.224 729.545 M 818.525 650.773 L 838.113 630.199 M 938.155 248.474 L 913.251 229.377 M 381.946 929.93 L 413.812 879.669 M 771.71 517.052 L 805.052 472.367 M 817.419 453.539 L 845.182 405.189 M 850.617 335.784 L 824.406 318.524 M 819.725 386.649 L 850.617 335.784 M 850.617 335.784 L 885.14 287.31 M 488.106 786.783 L 465.093 765.444 M 361.641 844.779 L 328.135 897.626 M 334.932 828.301 L 301.838 880.497 M 307.83 812.475 L 275.964 862.736 M 280.366 797.287 L 250.512 844.374 M 252.576 782.705 L 225.469 825.459 M 224.501 768.68 L 200.808 806.048 M 196.185 755.147 L 176.49 786.21 M 418.372 392.856 L 414.975 424.055 M 167.675 742.028 L 152.463 766.02 M 139.019 729.23 L 128.665 745.561 M 110.266 716.652 L 105.025 724.92 M 821.302 736.466 L 846.683 754.925 M 844.144 668.901 L 857.477 654.897 M 409.41 945.118 L 439.264 898.031 M 798.313 533.701 L 828.587 493.128 M 845.821 466.89 L 871.029 422.989 M 876.418 353.652 L 850.617 335.784 M 847.476 401.306 L 876.418 353.652 M 909.567 307.013 L 885.14 287.31 M 876.418 353.652 L 910.847 309.799 M 909.567 307.013 L 947.106 265.79 M 439.264 898.031 L 413.812 879.669 M 530.137 744.653 L 508.744 721.691 M 396.962 697.729 L 416.572 722.232 M 411.787 607.136 L 426.313 634.956 M 389.63 552.897 L 398.026 583.137 M 424.645 482.816 L 430.673 513.615 M 416.882 432.999 L 417.316 464.379 M 396.807 350.006 L 383.192 378.283 M 416.352 310.457 L 398.852 336.508 M 438.685 278.82 L 418.543 302.888 M 816.85 745.184 L 846.683 754.925 M 869.9 686.832 L 876.65 679.743 M 825.242 549.817 L 851.703 514.355 M 874.484 479.672 L 896.517 441.302 M 901.82 372.081 L 876.418 353.652 M 875.542 415.35 L 901.82 372.081 M 933.865 331.132 L 910.847 309.799 M 901.82 372.081 L 934.797 333.673 M 968.505 288.746 L 947.106 265.79 M 933.865 331.132 L 971.196 296.94 M 409.41 945.118 L 437.2 959.7 M 409.41 945.118 L 387.626 996.44 M 464.307 916.946 L 439.264 898.031 M 437.2 959.7 L 464.307 916.946 M 358.055 985.93 L 387.626 996.44 M 474.532 854.849 L 451.457 833.578 M 575.131 705.703 L 555.471 681.241 M 396.962 697.729 L 348.239 735.752 M 376.764 673.709 L 329.847 710.322 M 356.009 650.168 L 312.056 684.469 M 334.744 627.087 L 294.835 658.232 M 382.541 384.554 L 371.871 414.068 M 815.3 754.849 L 846.683 754.925 M 852.449 565.461 L 874.445 535.983 M 903.365 491.951 L 921.68 460.056 M 956.409 356.43 L 934.797 333.673 M 989.933 322.117 L 971.196 296.94 M 956.409 356.43 L 991.422 329.379 M 417.421 1006.3 L 437.2 959.7 M 488.967 936.357 L 464.307 916.946 M 488.967 936.357 L 519.724 904.549 M 387.626 996.44 L 417.421 1006.3 M 498.017 879.18 L 476.391 856.437 M 358.055 985.93 L 341.517 1043.1 M 381.306 931.149 L 358.055 985.93 M 514.707 816.192 L 494.34 792.315 M 311.071 1035.48 L 341.517 1043.1 M 328.737 974.731 L 358.055 985.93 M 622.848 670.141 L 605.026 644.309 M 374.336 488.447 L 375.266 519.817 M 372.807 429.112 L 366.888 459.932 M 402.028 297.468 L 377.808 317.425 M 432.221 271.469 L 405.774 288.367 M 816.803 764.521 L 846.683 754.925 M 879.881 580.706 L 896.87 557.938 M 932.422 503.81 L 946.568 479.174 M 1007.52 356.32 L 991.422 329.379 M 447.406 1015.56 L 464.693 974.834 M 539.531 928.893 L 519.724 904.549 M 464.693 974.834 L 437.2 959.7 M 417.421 1006.3 L 447.406 1015.56 M 464.693 974.834 L 489.857 938.44 M 519.724 904.549 L 499.496 880.554 M 387.626 996.44 L 374.495 1050.63 M 374.495 1050.63 L 405.498 1055.5 M 537.431 847.41 L 519.799 821.448 M 343.607 1045.07 L 374.495 1050.63 M 559.215 782.614 L 541.848 756.474 M 311.071 1035.48 L 298.275 1095.95 M 328.737 974.731 L 308.807 1033.23 M 352.884 917.84 L 328.737 974.731 M 267.494 1089.83 L 298.275 1095.95 M 278.978 1023.48 L 308.807 1033.23 M 299.7 962.825 L 328.737 974.731 M 821.213 773.261 L 846.683 754.925 M 907.482 595.643 L 919.046 580.145 M 447.406 1015.56 L 477.549 1024.3 M 491.919 990.445 L 464.693 974.834 M 477.549 1024.3 L 491.919 990.445 M 513.365 959.232 L 489.857 938.44 M 491.919 990.445 L 513.88 960.941 M 513.365 959.232 L 540.837 934.776 M 570.619 909.241 L 557.125 880.907 M 407.47 1055.94 L 438.708 1058.95 M 556.276 879.615 L 541.316 852.026 M 374.495 1050.63 L 370.369 1106.23 M 581.494 822.487 L 568.327 793.999 M 343.607 1045.07 L 336.604 1104.17 M 338.988 1105.78 L 370.369 1106.23 M 607.417 754.595 L 593.298 726.567 M 305.324 1101.62 L 336.604 1104.17 M 267.494 1089.83 L 256.046 1151.34 M 278.978 1023.48 L 260.259 1083.19 M 299.7 962.825 L 276.673 1021.01 M 324.148 905.225 L 299.7 962.825 M 225.265 1145.22 L 256.046 1151.34 M 230.43 1073.43 L 260.259 1083.19 M 247.635 1009.1 L 276.673 1021.01 M 270.379 951.635 L 247.635 1009.1 M 295.11 893.318 L 270.963 950.209 M 218.895 996.494 L 247.635 1009.1 M 240.795 941.159 L 218.895 996.494 M 265.793 882.12 L 242.541 936.9 M 190.457 983.219 L 218.895 996.494 M 210.975 931.377 L 190.457 983.219 M 236.221 871.609 L 214.438 922.931 M 180.947 922.252 L 162.318 969.323 M 206.427 861.75 L 186.648 908.349 M 150.743 913.728 L 134.461 954.869 M 176.441 852.486 L 159.154 893.215 M 120.395 905.732 L 106.86 939.931 M 146.299 843.748 L 131.929 877.604 M 116.032 835.449 L 104.933 861.599 M 85.6744 827.491 L 78.1195 845.29 M 363.101 293.121 L 377.808 317.425 M 828.1 780.216 L 846.683 754.925 M 935.198 610.367 L 941.052 602.521 M 471.583 1060.59 L 477.549 1024.3 M 507.815 1032.6 L 518.914 1006.45 M 536.331 982.871 L 513.88 960.941 M 519.368 1005.66 L 536.331 982.871 M 558.391 960.791 L 540.837 934.776 M 536.331 982.871 L 558.714 965.378 M 440.229 1059.22 L 471.583 1060.59 M 605.471 897.488 L 599.051 866.768 M 407.47 1055.94 L 407.757 1106.56 M 407.757 1106.56 L 438.96 1103.19 M 597.114 862.584 L 588.039 832.541 M 376.494 1109.3 L 407.757 1106.56 M 629.029 805.076 L 620.679 774.823 M 338.988 1105.78 L 341.707 1165.23 M 658.623 732.539 L 647.955 703.024 M 305.324 1101.62 L 302.551 1163.36 M 310.43 1167.81 L 341.707 1165.23 M 271.184 1162.34 L 302.551 1163.36 M 225.265 1145.22 L 212.469 1205.69 M 230.43 1073.43 L 210.5 1131.93 M 247.635 1009.1 L 223.488 1065.99 M 182.023 1198.07 L 212.469 1205.69 M 181.182 1120.73 L 210.5 1131.93 M 195.066 1052.68 L 223.488 1065.99 M 218.895 996.494 L 193.015 1050.08 M 165.622 1034.77 L 193.015 1050.08 M 190.457 983.219 L 163.892 1032.24 M 137.614 1015.08 L 163.892 1032.24 M 828.1 780.216 L 836.796 784.711 M 502.953 1061.51 L 507.561 1033.48 M 538.173 1040.56 L 545.728 1022.76 M 558.533 1005.05 L 536.331 982.871 M 546.987 1020.56 L 558.533 1005.05 M 574.262 992.639 L 558.714 965.378 M 558.533 1005.05 L 574.033 993.491 M 471.583 1060.59 L 502.953 1061.51 M 583.848 948.184 L 573.796 918.454 M 443.568 1103.34 L 474.358 1097.27 M 642.113 894.3 L 643.131 862.933 M 407.757 1106.56 L 418.272 1156.08 M 418.272 1156.08 L 448.15 1146.47 M 640.551 854.16 L 637.736 822.902 M 376.494 1109.3 L 385.89 1164.26 M 388.208 1165.08 L 418.272 1156.08 M 678.765 795.642 L 675.456 764.433 M 355.327 1171.39 L 385.89 1164.26 M 310.43 1167.81 L 317.753 1229.18 M 271.184 1162.34 L 269.911 1224.9 M 286.638 1233.28 L 317.753 1229.18 M 238.544 1223.87 L 269.911 1224.9 M 181.182 1120.73 L 157.93 1175.51 M 195.066 1052.68 L 167.878 1105.62 M 129.827 1161.55 L 157.93 1175.51 M 140.869 1089.64 L 167.878 1105.62 M 165.622 1034.77 L 135.549 1081.72 M 110.594 1062.68 L 135.549 1081.72 M 137.614 1015.08 L 106.564 1055.06 M 83.8609 1033.39 L 106.564 1055.06 M 334.323 305.642 L 353.364 337.109 M 568.591 1048.28 L 572.416 1039.27 M 574.72 1035.25 L 580.565 1027.4 M 588.752 1021.21 L 574.033 993.491 M 502.953 1061.51 L 534.331 1062.07 M 534.331 1062.07 L 537.468 1042.99 M 592.267 985.588 L 585.166 955.018 M 475.424 1097.17 L 505.92 1089.76 M 611.733 942.756 L 609.898 911.426 M 457.235 1145.43 L 485.719 1132.25 M 678.47 899.858 L 686.869 869.619 M 418.272 1156.08 L 438.579 1202.45 M 684.794 854.69 L 688.356 823.509 M 388.208 1165.08 L 408.519 1217.01 M 410.957 1217.35 L 438.579 1202.45 M 355.327 1171.39 L 372.296 1228.43 M 380.029 1230.17 L 408.519 1217.01 M 342.562 1238.47 L 372.296 1228.43 M 140.869 1089.64 L 109.653 1135.83 M 85.1732 1116.2 L 109.653 1135.83 M 110.594 1062.68 L 76.7084 1100.29 M 55.6475 1077.03 L 76.7084 1100.29 M 83.8609 1033.39 L 50.2181 1062.13 M 32.8173 1036.01 L 50.2181 1062.13 M 536.783 1081.25 L 534.331 1062.07 M 565.713 1062.39 L 567.301 1052.73 M 597.995 1017.99 L 592.291 987.125 M 506.555 1089.69 L 536.783 1081.25 M 611.536 983.98 L 613.475 952.657 M 488.799 1131.43 L 516.251 1116.22 M 640.06 944.894 L 646.574 914.194 M 457.235 1145.43 L 480.456 1183.09 M 480.456 1183.09 L 505.021 1163.56 M 455.553 1202.19 L 480.456 1183.09 M 566.946 1072.58 L 565.705 1062.87 M 536.783 1081.25 L 566.946 1072.58 M 607.779 1017.69 L 611.619 986.545 M 518.066 1115.66 L 544.618 1098.93 M 630.461 987.952 L 641.278 958.491 M 510.757 1160.94 L 533.21 1139.01 M 666.815 954.444 L 681.213 926.559 M 566.946 1072.58 L 597.075 1063.8 M 544.889 1098.81 L 571.049 1081.47 M 617.199 1020.35 L 630.227 991.803 M 536.525 1137.25 L 557.183 1113.63 M 647.459 997.17 L 666.25 972.034 M 571.118 1081.44 L 597.075 1063.8 M 557.898 1113.11 L 577.635 1088.71 M 625.382 1025.73 L 646.393 1002.41 M 536.525 1137.25 L 560.388 1152.66 M 560.388 1152.66 L 573.426 1124.12 M 547.03 1181.06 L 560.388 1152.66 M 577.816 1088.58 L 597.075 1063.8 M 574.607 1122.84 L 586.093 1093.64 M 560.388 1152.66 L 587.663 1160.61 M 547.03 1181.06 L 582.103 1192.14 M 582.986 1191.64 L 587.663 1160.61 M 576.279 1222.98 L 582.103 1192.14 M 586.387 1093.3 L 597.075 1063.8 M 574.607 1122.84 L 593.468 1127.1 M 593.468 1127.1 L 595.642 1095.79 M 591.055 1158.39 L 593.468 1127.1 M 582.986 1191.64 L 619.761 1192.22 M 576.279 1222.98 L 620.425 1225.96 M 623.001 1223.44 L 619.761 1192.22 M 595.998 1095.16 L 597.075 1063.8 M 593.468 1127.1 L 612.738 1125.49 M 595.998 1095.16 L 605.713 1093.97 M 591.055 1158.39 L 619.397 1156.46 M 619.844 1156.06 L 612.738 1125.49 M 625.688 1187.21 L 619.397 1156.46 M 623.001 1223.44 L 666.155 1213.67 M 605.713 1093.97 L 597.075 1063.8 M 614.234 1124.17 L 605.713 1093.97 M 614.234 1124.17 L 631.829 1116.15 M 619.844 1156.06 L 646.294 1145.7 M 625.688 1187.21 L 660.416 1175.09 M 605.713 1093.97 L 614.588 1089.84 M 614.588 1089.84 L 597.075 1063.8 M 614.588 1089.84 L 621.76 1083.18 M 632.001 1115.95 L 614.588 1089.84 M 632.001 1115.95 L 646.269 1102.9" />
</svg>
