<?xml version="1.0"?>
<svg width="1252" height="1205" version="1.1" xmlns="http://www.w3.org/2000/svg" >
<defs>
<style type="text/css"><![CDATA[
.m {stroke:rgb(255,0,0);stroke-width:1.565000;}
.v {stroke:rgb(0,0,255);stroke-width:1.565000;}
.b {stroke:rgb(0,0,0);stroke-width:3.130000;fill:white}
.n {stroke:rgb(128,128,128);stroke-width:1.565000}
.t {stroke:rgb(0,128,0);stroke-width:1.565000;}
.c {stroke:rgb(128,128,128);stroke-width:1.565000;stroke-dasharray:12.520000, 12.520000;}
]]></style>
</defs>
<path fill="none" style="stroke:black;stroke-width:3.130000;" d=" M 163.61 506.679 L 196.765 498.024 M 196.765 498.024 L 163.678 506.937 M 166.919 485.686 L 201.05 488.729 M 201.363 489.382 L 167.14 487.668 M 201.05 488.729 L 208.295 482.146 M 208.528 447.88 L 190.969 455.978 M 208.295 482.146 L 217.184 478.046 M 227.71 445.436 L 208.528 447.88 M 217.184 478.046 L 226.894 476.809 M 246.738 448.873 L 227.71 445.436 M 226.894 476.809 L 236.527 478.549 M 245.191 483.105 L 263.853 457.873 M 253.886 490.887 L 278.555 471.486 M 264.428 458.282 L 246.735 484.202 M 282.38 475.871 L 259.813 497.68 M 293.546 491.658 L 268.814 515.376 M 268.453 514.993 L 293.546 491.658 M 300.468 510.461 L 270.345 526.796 M 269.01 525.162 L 299.73 509.979 M 296.852 548.512 L 301.588 529.765 M 270.345 526.796 L 267.947 536.287 M 286.698 564.968 L 296.852 548.512 M 267.947 536.287 L 262.807 544.617 M 272.066 577.609 L 286.698 564.968 M 262.807 544.617 L 255.4 551.016 M 254.31 585.266 L 272.066 577.609 M 255.4 551.016 L 246.411 554.892 M 235.073 587.229 L 254.31 585.266 M 236.673 555.886 L 235.073 587.229 M 246.411 554.892 L 236.673 555.886 M 524.755 939.349 L 552.795 925.253 M 541.583 909.499 L 519.079 931.374 M 576.559 1006.2 L 603.495 990.092 M 591.163 975.199 L 570.316 998.658 M 656.43 1046.75 L 645.635 1079.27 M 645.635 1079.27 L 670.453 1060.06 M 196.394 517.358 L 174.813 543.975 M 174.813 543.975 L 200.657 526.17 M 166.177 526.111 L 195.053 507.662 M 166.321 526.335 L 196.394 517.358 M 195.053 507.662 L 166.321 526.335 M 131.115 501.572 L 166.919 485.686 M 167.14 487.668 L 132.249 505.47 M 132.249 505.47 L 163.61 506.679 M 137.735 473.366 L 176.658 468.981 M 176.658 468.981 L 137.807 473.963 M 152.551 444.999 L 190.604 454.281 M 190.969 455.978 L 152.418 449.047 M 201.025 416.523 L 174.708 427.221 M 190.604 454.281 L 208.517 446.999 M 229.302 413.799 L 201.025 416.523 M 208.517 446.999 L 227.765 445.145 M 257.177 419.276 L 229.302 413.799 M 227.765 445.145 L 246.738 448.873 M 263.853 457.873 L 282.32 432.498 M 278.555 471.486 L 303.074 451.896 M 282.32 432.498 L 264.428 458.282 M 305.115 454.236 L 282.38 475.871 M 321.519 477.429 L 300.468 510.461 M 299.73 509.979 L 321.519 477.429 M 332.414 504.644 L 304.157 531.768 M 301.588 529.765 L 331.207 504.134 M 330.42 560.828 L 335.52 532.881 M 304.157 531.768 L 300.685 550.79 M 317.54 586.148 L 330.42 560.828 M 300.685 550.79 L 291.918 568.025 M 297.956 606.726 L 317.54 586.148 M 291.918 568.025 L 278.587 582.032 M 273.304 620.843 L 297.956 606.726 M 278.587 582.032 L 261.808 591.641 M 245.644 627.32 L 273.304 620.843 M 242.98 596.049 L 245.644 627.32 M 261.808 591.641 L 242.98 596.049 M 552.795 925.253 L 580.726 910.942 M 564.254 887.797 L 541.583 909.499 M 603.495 990.092 L 630.307 973.781 M 612.19 951.9 L 591.163 975.199 M 670.453 1060.06 L 695.124 1040.66 M 674.521 1021.1 L 656.43 1046.75 M 721.018 1106.57 L 745.204 1086.57 M 724.128 1067.53 L 721.018 1106.57 M 135.97 534.622 L 166.177 526.111 M 163.678 506.937 L 135.97 534.622 M 98.9352 496.265 L 137.735 473.366 M 137.807 473.963 L 99.9013 498.314 M 99.9013 498.314 L 131.115 501.572 M 108.24 453.141 L 152.551 444.999 M 152.418 449.047 L 108.945 460.873 M 129.724 415.637 L 174.083 423.519 M 174.708 427.221 L 129.821 423.359 M 195.294 383.772 L 160.365 395.293 M 174.083 423.519 L 201.061 414.622 M 232.027 381.897 L 195.294 383.772 M 201.061 414.622 L 229.432 413.173 M 267.948 389.799 L 232.027 381.897 M 229.432 413.173 L 257.177 419.276 M 300.501 406.917 L 267.948 389.799 M 303.074 451.896 L 327.371 432.032 M 328.091 432.858 L 305.115 454.236 M 349.33 462.887 L 332.414 504.644 M 331.207 504.134 L 349.33 462.887 M 364.598 497.543 L 339.591 535.019 M 335.52 532.881 L 362.874 497.082 M 367.498 570.388 L 370.95 533.77 M 339.591 535.019 L 336.925 563.301 M 354.489 604.79 L 367.498 570.388 M 336.925 563.301 L 326.877 589.873 M 332.846 634.528 L 354.489 604.79 M 326.877 589.873 L 310.161 612.842 M 304.112 657.487 L 332.846 634.528 M 310.161 612.842 L 287.967 630.574 M 261.875 641.808 L 270.33 672.032 M 287.967 630.574 L 261.875 641.808 M 580.726 910.942 L 608.494 896.318 M 587.168 866.352 L 564.254 887.797 M 630.307 973.781 L 656.934 957.169 M 633.477 928.84 L 612.19 951.9 M 695.124 1040.66 L 719.574 1020.98 M 692.9 995.662 L 674.521 1021.1 M 745.204 1086.57 L 769.164 1066.3 M 741.877 1041.64 L 724.128 1067.53 M 64.0522 478.828 L 108.24 453.141 M 108.945 460.873 L 67.9345 491.377 M 67.9345 491.377 L 98.9352 496.265 M 79.3415 424.232 L 129.724 415.637 M 129.821 423.359 L 80.8164 437.88 M 848.64 1120.59 L 833.208 1169.32 M 160.365 395.293 L 109.378 391.743 M 193.701 346.273 L 150.356 355.16 M 150.356 355.16 L 196.303 377.549 M 833.208 1169.32 L 837.262 1205.88 M 837.262 1205.88 L 863.767 1162.17 M 237.918 347.877 L 193.701 346.273 M 196.303 377.549 L 233.058 378.882 M 280.506 359.88 L 237.918 347.877 M 233.058 378.882 L 268.459 388.859 M 319.052 381.603 L 280.506 359.88 M 268.459 388.859 L 300.501 406.917 M 327.371 432.032 L 351.377 411.817 M 351.377 411.817 L 328.091 432.858 M 376.926 447.941 L 364.598 497.543 M 362.874 497.082 L 376.926 447.941 M 402.288 532.066 L 394.646 488.484 M 399.418 576.219 L 402.288 532.066 M 370.95 533.77 L 368.565 570.473 M 386.2 618.445 L 399.418 576.219 M 368.565 570.473 L 357.577 605.573 M 363.381 656.353 L 386.2 618.445 M 357.577 605.573 L 338.609 637.085 M 332.254 687.799 L 363.381 656.353 M 312.734 663.224 L 332.254 687.799 M 338.609 637.085 L 312.734 663.224 M 270.33 672.032 L 279.224 702.129 M 319.863 684.631 L 304.112 657.487 M 608.494 896.318 L 636.046 881.291 M 610.391 845.243 L 587.168 866.352 M 656.934 957.169 L 683.316 940.172 M 655.098 906.092 L 633.477 928.84 M 719.574 1020.98 L 743.736 1000.96 M 711.646 970.492 L 692.9 995.662 M 769.164 1066.3 L 792.827 1045.69 M 760 1016.02 L 741.877 1041.64 M 28.11 448.731 L 79.3415 424.232 M 80.8164 437.88 L 33.9506 469.949 M 33.9506 469.949 L 64.0522 478.828 M 850.323 1063.83 L 848.64 1120.59 M 109.378 391.743 L 54.2517 405.379 M 885.443 1105.82 L 879.622 1162.31 M 863.767 1162.17 L 876.89 1106.92 M 197.067 306.021 L 146.543 309.183 M 146.543 309.183 L 195.835 337.381 M 879.622 1162.31 L 891.674 1204.88 M 891.674 1204.88 L 908.794 1150.74 M 195.835 337.381 L 239.642 343.6 M 239.642 343.6 L 281.288 358.547 M 338.043 356.617 L 294.835 330.238 M 281.288 358.547 L 319.052 381.603 M 375.025 391.185 L 338.043 356.617 M 404.257 432.516 L 396.885 488.823 M 394.646 488.484 L 404.257 432.516 M 438.81 527.126 L 426.365 478.057 M 396.885 488.823 L 407.763 531.711 M 441.08 577.699 L 438.81 527.126 M 407.763 531.711 L 409.747 575.913 M 433.079 627.686 L 441.08 577.699 M 409.747 575.913 L 402.754 619.604 M 415.14 675.024 L 433.079 627.686 M 402.754 619.604 L 387.075 660.979 M 388.002 717.759 L 415.14 675.024 M 363.355 698.33 L 388.002 717.759 M 387.075 660.979 L 363.355 698.33 M 279.224 702.129 L 288.642 732.066 M 335.138 712.047 L 319.863 684.631 M 636.046 881.291 L 663.332 865.786 M 633.979 824.541 L 610.391 845.243 M 683.316 940.172 L 709.397 922.716 M 677.112 883.724 L 655.098 906.092 M 743.736 1000.96 L 767.544 980.508 M 730.83 945.654 L 711.646 970.492 M 792.827 1045.69 L 816.126 1024.66 M 778.568 990.719 L 760 1016.02 M 839.001 1003.18 L 850.323 1063.83 M 54.2517 405.379 L 0 434.775 M 0 434.775 L 28.11 448.731 M 878.579 1044.5 L 885.443 1105.82 M 876.89 1106.92 L 875.602 1045.23 M 921.297 1086.91 L 926.653 1148.38 M 908.794 1150.74 L 912.012 1089.12 M 198.924 274.693 L 143.185 275.954 M 143.185 275.954 L 197.067 306.021 M 926.653 1148.38 L 948.895 1193.86 M 948.895 1193.86 L 953.625 1132.33 M 200.496 272.799 L 247.188 313.137 M 247.188 313.137 L 198.924 274.693 M 264.928 273.649 L 298.483 325.432 M 294.835 330.238 L 255.339 282.831 M 298.483 325.432 L 339.45 355.17 M 339.45 355.17 L 375.025 391.185 M 455.623 466.705 L 431.275 416.549 M 471.474 520.158 L 455.623 466.705 M 426.365 478.057 L 440.757 526.591 M 478.404 575.48 L 471.474 520.158 M 440.757 526.591 L 447.049 576.822 M 476.228 631.191 L 478.404 575.48 M 447.049 576.822 L 445.073 627.407 M 465.004 685.803 L 476.228 631.191 M 445.073 627.407 L 434.882 676.993 M 445.032 737.857 L 465.004 685.803 M 416.748 724.257 L 445.032 737.857 M 434.882 676.993 L 416.748 724.257 M 298.655 761.809 L 349.864 739.761 M 288.642 732.066 L 298.655 761.809 M 349.864 739.761 L 335.138 712.047 M 663.332 865.786 L 690.303 849.74 M 657.975 804.315 L 633.979 824.541 M 709.397 922.716 L 735.125 904.744 M 699.568 861.8 L 677.112 883.724 M 767.544 980.508 L 790.939 959.59 M 750.505 921.204 L 730.83 945.654 M 816.126 1024.66 L 839.001 1003.18 M 797.637 965.793 L 778.568 990.719 M 861.4 981.193 L 878.579 1044.5 M 875.602 1045.23 L 861.4 981.193 M 905.676 1023.2 L 921.297 1086.91 M 912.012 1089.12 L 902.522 1024.21 M 964.546 1060.05 L 984.774 1122.45 M 953.625 1132.33 L 945.731 1067.21 M 204.285 241.644 L 144.884 238.009 M 144.884 238.009 L 200.496 272.799 M 984.774 1122.45 L 1020.33 1165.39 M 1020.33 1165.39 L 1007.71 1101.02 M 221.259 224.701 L 264.928 273.649 M 255.339 282.831 L 204.285 241.644 M 279.67 243.203 L 314.781 298.612 M 314.781 298.612 L 277.275 244.796 M 334.287 270.975 L 359.901 331.364 M 359.901 331.364 L 331.664 272.156 M 383.648 307.274 L 399.081 371.03 M 399.081 371.03 L 380.868 308.012 M 431.275 416.549 L 457.799 465.589 M 508.1 507.693 L 486.248 452.339 M 457.799 465.589 L 478.271 517.448 M 523.18 565.262 L 508.1 507.693 M 478.271 517.448 L 492.399 571.383 M 531.271 624.22 L 523.18 565.262 M 492.399 571.383 L 499.979 626.619 M 532.258 683.723 L 531.271 624.22 M 499.979 626.619 L 500.904 682.365 M 526.126 742.918 L 532.258 683.723 M 495.159 737.821 L 526.126 742.918 M 500.904 682.365 L 495.159 737.821 M 539.115 796.394 L 570.499 796.47 M 535.913 740.732 L 539.115 796.394 M 567.081 737.057 L 535.913 740.732 M 690.303 849.74 L 716.916 833.106 M 682.409 784.62 L 657.975 804.315 M 735.125 904.744 L 760.453 886.212 M 722.5 840.374 L 699.568 861.8 M 790.939 959.59 L 813.871 938.164 M 770.711 897.19 L 750.505 921.204 M 817.247 941.291 L 797.637 965.793 M 883.279 958.693 L 905.676 1023.2 M 902.522 1024.21 L 883.279 958.693 M 937.5 997.349 L 964.546 1060.05 M 945.731 1067.21 L 928.101 1001.24 M 1002.93 1027.34 L 1037.28 1086.36 M 1007.71 1101.02 L 985.308 1036.52 M 230.77 194.793 L 171.228 178.226 M 171.228 178.226 L 221.259 224.701 M 1037.28 1086.36 L 1085.03 1121.88 M 1085.03 1121.88 L 1055.08 1060.52 M 237.881 189.198 L 279.67 243.203 M 277.275 244.796 L 230.77 194.793 M 301.854 210.883 L 334.287 270.975 M 331.664 272.156 L 293.927 215.245 M 361.44 242.701 L 383.648 307.274 M 380.868 308.012 L 352.908 245.713 M 409.241 284.641 L 423.573 351.406 M 423.573 351.406 L 406.137 285.384 M 457.937 399.993 L 484.205 382.819 M 484.978 384.065 L 457.937 399.993 M 539.735 494.79 L 514.38 438.427 M 486.248 452.339 L 510.663 506.611 M 560.909 552.853 L 539.735 494.79 M 510.663 506.611 L 531.051 562.521 M 577.788 612.307 L 560.909 552.853 M 531.051 562.521 L 547.304 619.77 M 590.282 672.834 L 577.788 612.307 M 547.304 619.77 L 559.335 678.052 M 598.326 734.112 L 590.282 672.834 M 559.335 678.052 L 567.081 737.057 M 601.875 795.813 L 598.326 734.112 M 570.499 796.47 L 601.875 795.813 M 716.916 833.106 L 743.133 815.854 M 707.297 765.501 L 682.409 784.62 M 760.453 886.212 L 785.341 867.093 M 745.926 819.49 L 722.5 840.374 M 813.871 938.164 L 836.295 916.207 M 791.473 873.656 L 770.711 897.19 M 837.425 917.254 L 817.247 941.291 M 907.726 934.375 L 937.5 997.349 M 928.101 1001.24 L 904.605 935.669 M 965.844 968.38 L 1002.93 1027.34 M 985.308 1036.52 L 957.089 972.83 M 1035.05 990.333 L 1081.25 1042.47 M 1055.08 1060.52 L 1019.45 1000.66 M 250.757 160.577 L 193.381 135.607 M 193.381 135.607 L 237.881 189.198 M 1081.25 1042.47 L 1138.1 1066.7 M 1138.1 1066.7 L 1093.2 1013.45 M 266.681 150.757 L 301.854 210.883 M 293.927 215.245 L 250.757 160.577 M 336.533 177.648 L 361.44 242.701 M 352.908 245.713 L 319.222 184.742 M 392.287 217.078 L 409.241 284.641 M 406.137 285.384 L 382.834 219.74 M 448.517 332.36 L 472.991 312.715 M 484.205 382.819 L 510.048 365.012 M 473.915 313.925 L 448.517 332.36 M 512.398 368.797 L 484.978 384.065 M 514.38 438.427 L 542.438 493.494 M 597.605 536.025 L 570.574 479.59 M 542.438 493.494 L 569.136 549.233 M 623.242 593.105 L 597.605 536.025 M 569.136 549.233 L 594.458 605.611 M 647.471 650.798 L 623.242 593.105 M 594.458 605.611 L 618.389 662.593 M 670.277 709.068 L 647.471 650.798 M 618.389 662.593 L 640.914 720.146 M 691.645 767.88 L 670.277 709.068 M 662.019 778.234 L 691.645 767.88 M 640.914 720.146 L 662.019 778.234 M 743.133 815.854 L 768.924 797.972 M 732.641 746.991 L 707.297 765.501 M 785.341 867.093 L 809.758 847.376 M 769.851 799.179 L 745.926 819.49 M 836.295 916.207 L 858.18 893.714 M 812.799 850.632 L 791.473 873.656 M 858.18 893.714 L 837.425 917.254 M 957.089 972.83 L 927.315 909.856 M 930.216 908.524 L 965.844 968.38 M 1019.45 1000.66 L 982.363 941.696 M 990.145 937.081 L 1035.05 990.333 M 1093.2 1013.45 L 1047 961.314 M 1053.93 955.493 L 1106.91 1000.72 M 1106.91 1000.72 L 1168.04 1014.05 M 1168.04 1014.05 L 1113.97 970.139 M 284.048 124.617 L 232.994 89.7869 M 232.994 89.7869 L 266.681 150.757 M 319.222 184.742 L 284.048 124.617 M 313.23 112.004 L 336.533 177.648 M 382.834 219.74 L 357.927 154.687 M 376.997 149.119 L 392.287 217.078 M 433.226 264.401 L 416.272 196.838 M 419.608 196.088 L 433.226 264.401 M 472.991 312.715 L 496.976 292.475 M 499.758 296.119 L 473.915 313.925 M 510.048 365.012 L 535.446 346.577 M 540.184 354.207 L 512.398 368.797 M 542.166 423.837 L 569.585 408.569 M 570.302 409.933 L 542.166 423.837 M 570.574 479.59 L 600.342 534.63 M 627.761 519.362 L 598.36 465 M 600.342 534.63 L 631.451 588.922 M 658.488 572.986 L 627.761 519.362 M 631.451 588.922 L 663.884 642.435 M 690.522 625.84 L 658.488 572.986 M 663.884 642.435 L 697.621 695.135 M 723.843 677.891 L 690.522 625.84 M 697.621 695.135 L 732.641 746.991 M 758.432 729.109 L 723.843 677.891 M 768.924 797.972 L 794.268 779.463 M 794.268 779.463 L 769.851 799.179 M 809.758 847.376 L 833.683 827.066 M 834.685 828.138 L 812.799 850.632 M 904.605 935.669 L 879.507 870.689 M 879.507 870.689 L 907.726 934.375 M 982.363 941.696 L 948.016 882.676 M 950.6 881.412 L 990.145 937.081 M 1047 961.314 L 1003.5 908.679 M 1005.84 907.01 L 1053.93 955.493 M 1113.97 970.139 L 1062.47 925.295 M 1064.51 923.267 L 1119.86 963.267 M 1119.86 963.267 L 1181.48 967.934 M 1181.48 967.934 L 1123.37 932.08 M 335.718 90.1136 L 295.794 45.9819 M 295.794 45.9819 L 313.23 112.004 M 357.927 154.687 L 335.718 90.1136 M 367.577 81.4865 L 376.997 149.119 M 416.272 196.838 L 401.941 130.074 M 411.851 128.244 L 419.608 196.088 M 457.701 244.756 L 445.012 177.66 M 448.281 177.124 L 457.701 244.756 M 496.976 292.475 L 520.463 271.66 M 526.026 278.944 L 499.758 296.119 M 535.446 346.577 L 560.39 327.531 M 568.316 340.295 L 540.184 354.207 M 569.585 408.569 L 596.627 392.641 M 598.766 396.716 L 570.302 409.933 M 598.36 465 L 625.784 449.741 M 638.917 445.926 L 654.402 505.758 M 669.566 439.177 L 638.917 445.926 M 684.477 496.79 L 669.566 439.177 M 654.402 505.758 L 674.213 564.3 M 703.554 553.161 L 684.477 496.79 M 674.213 564.3 L 698.244 621.24 M 726.693 607.989 L 703.554 553.161 M 698.244 621.24 L 726.367 676.274 M 753.773 660.983 L 726.693 607.989 M 726.367 676.274 L 758.432 729.109 M 784.649 711.858 L 753.773 660.983 M 819.156 760.344 L 784.649 711.858 M 833.683 827.066 L 857.109 806.182 M 857.109 806.182 L 834.685 828.138 M 927.315 909.856 L 900.269 847.155 M 900.269 847.155 L 930.216 908.524 M 1003.5 908.679 L 966.624 854.427 M 966.624 854.427 L 1005.84 907.01 M 1062.47 925.295 L 1017.25 877.775 M 1017.25 877.775 L 1064.51 923.267 M 1123.37 932.08 L 1071.01 892.563 M 1078.63 881.691 L 1136.72 912.158 M 1136.72 912.158 L 1195.69 904.168 M 1195.69 904.168 L 1134.38 880.862 M 394.238 64.9307 L 367.715 15.8901 M 367.715 15.8901 L 367.577 81.4865 M 401.941 130.074 L 394.238 64.9307 M 413.599 62.6708 L 411.851 128.244 M 445.012 177.66 L 438.911 112.348 M 448.419 111.527 L 448.281 177.124 M 482.645 225.711 L 507.136 206.087 M 508.027 207.253 L 482.645 225.711 M 520.463 271.66 L 543.458 250.301 M 552.687 262.389 L 526.026 278.944 M 560.39 327.531 L 584.882 307.908 M 596.765 327.045 L 568.316 340.295 M 596.627 392.641 L 623.288 376.085 M 627.532 384.168 L 598.766 396.716 M 625.784 449.741 L 652.844 433.845 M 725.129 423.585 L 723.509 483.074 M 756.393 426.316 L 725.129 423.585 M 754.876 482.049 L 756.393 426.316 M 723.509 483.074 L 729.01 542.331 M 760.03 537.564 L 754.876 482.049 M 729.01 542.331 L 741.554 600.505 M 771.782 592.065 L 760.03 537.564 M 741.554 600.505 L 760.961 656.763 M 789.963 644.771 L 771.782 592.065 M 760.961 656.763 L 786.952 710.298 M 814.313 694.926 L 789.963 644.771 M 786.952 710.298 L 819.156 760.344 M 844.483 741.812 L 814.313 694.926 M 880.041 784.755 L 844.483 741.812 M 948.016 882.676 L 920.475 823.142 M 920.475 823.142 L 950.6 881.412 M 1028.02 848.298 L 982.052 827.098 M 1071.01 892.563 L 1028.02 848.298 M 1030.66 842.874 L 1078.63 881.691 M 1134.38 880.862 L 1080.73 850.378 M 1080.73 850.378 L 1135.55 878.699 M 1135.55 878.699 L 1189.98 866.618 M 1189.98 866.618 L 1131.28 847.607 M 442.633 50.7563 L 427.307 2.50884 M 427.307 2.50884 L 413.599 62.6708 M 438.911 112.348 L 442.633 50.7563 M 460.645 51.0468 L 448.419 111.527 M 474.942 160.568 L 477.151 98.9035 M 479.853 99.0596 L 474.942 160.568 M 507.136 206.087 L 531.192 185.931 M 533.807 189.356 L 508.027 207.253 M 543.458 250.301 L 565.978 228.443 M 579.705 246.421 L 552.687 262.389 M 584.882 307.908 L 608.937 287.752 M 625.498 314.421 L 596.765 327.045 M 623.288 376.085 L 649.58 358.949 M 656.566 372.253 L 627.532 384.168 M 652.844 433.845 L 679.549 417.359 M 822.328 419.594 L 804.038 472.262 M 851.034 432.277 L 822.328 419.594 M 834.428 480.1 L 851.034 432.277 M 804.038 472.262 L 794.575 527.207 M 825.835 529.988 L 834.428 480.1 M 794.575 527.207 L 794.19 582.959 M 825.485 580.61 L 825.835 529.988 M 794.19 582.959 L 802.894 638.029 M 833.388 630.613 L 825.485 580.61 M 802.894 638.029 L 820.453 690.946 M 849.332 678.66 L 833.388 630.613 M 820.453 690.946 L 846.4 740.294 M 872.891 723.467 L 849.332 678.66 M 846.4 740.294 L 880.041 784.755 M 982.052 827.098 L 940.15 798.691 M 983.151 825.404 L 1030.66 842.874 M 1038.45 812.47 L 996.918 797.201 M 1082.2 819.029 L 1038.45 812.47 M 1131.28 847.607 L 1082.2 819.029 M 1084.41 810.153 L 1136.98 831.619 M 1136.98 831.619 L 1183.65 811.998 M 1183.65 811.998 L 1127.82 801.602 M 491.2 43.881 L 485.526 0 M 485.526 0 L 460.645 51.0468 M 477.151 98.9035 L 491.2 43.881 M 498.455 45.4051 L 479.853 99.0596 M 501.96 144.601 L 509.332 88.2935 M 511.571 88.6322 L 501.96 144.601 M 531.192 185.931 L 529.291 129.175 M 1215.56 682.234 L 1252.9 639.447 M 1252.9 639.447 L 1221.53 638.393 M 559.94 171.977 L 533.807 189.356 M 565.978 228.443 L 588.058 206.14 M 607.037 230.996 L 579.705 246.421 M 608.937 287.752 L 632.586 267.12 M 654.476 302.373 L 625.498 314.421 M 649.58 358.949 L 675.526 341.292 M 685.832 360.92 L 656.566 372.253 M 679.549 417.359 L 705.919 400.344 M 891.357 438.359 L 863.889 480.882 M 915.853 457.978 L 891.357 438.359 M 891.844 495.144 L 915.853 457.978 M 863.889 480.882 L 845.583 528.079 M 875.845 536.397 L 891.844 495.144 M 845.583 528.079 L 837.196 578.003 M 868.514 580.031 L 875.845 536.397 M 837.196 578.003 L 839.073 628.591 M 870.155 624.247 L 868.514 580.031 M 839.073 628.591 L 851.138 677.756 M 880.7 667.219 L 870.155 624.247 M 851.138 677.756 L 872.891 723.467 M 903.436 763.837 L 899.713 707.171 M 901.975 707.068 L 903.436 763.837 M 940.15 798.691 L 983.151 825.404 M 996.918 797.201 L 959.333 773.853 M 997.71 795.874 L 1040.2 808.207 M 1045.3 777.241 L 1009.98 766.989 M 1040.2 808.207 L 1084.41 810.153 M 1082.05 778.858 L 1045.3 777.241 M 1118.13 771.751 L 1082.05 778.858 M 1127.82 801.602 L 1167.98 783.039 M 1167.98 783.039 L 1118.13 771.751 M 529.577 41.3631 L 529.212 4.58487 M 529.212 4.58487 L 498.455 45.4051 M 509.332 88.2935 L 529.577 41.3631 M 535.267 43.3463 L 511.571 88.6322 M 529.291 129.175 L 541.619 79.5737 M 1171.76 708.57 L 1215.56 682.234 M 1221.53 638.393 L 1185.19 674.33 M 1182.57 667.021 L 1214.63 627.216 M 1214.63 627.216 L 1183.39 630.251 M 586.372 155.057 L 559.94 171.977 M 588.058 206.14 L 609.745 183.455 M 634.633 216.051 L 607.037 230.996 M 632.586 267.12 L 655.871 246.079 M 683.661 290.832 L 654.476 302.373 M 675.526 341.292 L 701.158 323.184 M 715.291 350.099 L 685.832 360.92 M 705.919 400.344 L 731.989 382.871 M 936.656 466.002 L 906.555 498.432 M 956.955 489.938 L 936.656 466.002 M 931.933 516.895 L 956.955 489.938 M 906.555 498.432 L 884.966 537.054 M 913.987 548.999 L 931.933 516.895 M 884.966 537.054 L 873.111 579.683 M 904.133 584.435 L 913.987 548.999 M 873.111 579.683 L 871.662 623.905 M 902.928 621.195 L 904.133 584.435 M 871.662 623.905 L 880.7 667.219 M 910.441 657.199 L 902.928 621.195 M 899.713 707.171 L 910.441 657.199 M 916.408 658.038 L 901.975 707.068 M 927.244 743.389 L 929.687 692.337 M 931.468 692.453 L 927.244 743.389 M 959.333 773.853 L 997.71 795.874 M 1009.98 766.989 L 1045.59 776.209 M 1049.33 745.049 L 1021.83 737.928 M 1045.59 776.209 L 1082.36 775.687 M 1077.74 744.647 L 1049.33 745.049 M 1082.36 775.687 L 1117.69 765.461 M 1105.02 736.748 L 1077.74 744.647 M 1117.69 765.461 L 1149.06 746.259 M 1149.06 746.259 L 1105.02 736.748 M 566.626 42.0978 L 569.292 13.8152 M 569.292 13.8152 L 535.267 43.3463 M 541.619 79.5737 L 566.626 42.0978 M 1127.33 716.077 L 1171.76 708.57 M 1185.19 674.33 L 1144.33 693.315 M 1143.44 689.362 L 1182.57 667.021 M 1183.39 630.251 L 1151.57 662.14 M 1151.35 661.58 L 1181.94 628.51 M 1181.94 628.51 L 1150.91 633.176 M 613.047 138.524 L 586.372 155.057 M 609.745 183.455 L 631.1 160.458 M 662.444 201.508 L 634.633 216.051 M 655.871 246.079 L 678.848 224.701 M 713.011 279.718 L 683.661 290.832 M 701.158 323.184 L 726.525 304.705 M 744.905 339.709 L 715.291 350.099 M 731.989 382.871 L 757.802 365.02 M 988.208 502.843 L 957.902 523.681 M 1002.38 530.843 L 988.208 502.843 M 978.973 546.939 L 1002.38 530.843 M 957.902 523.681 L 934.182 551.791 M 960.653 568.65 L 978.973 546.939 M 934.182 551.791 L 918.739 585.172 M 948.725 594.433 L 960.653 568.65 M 918.739 585.172 L 912.67 621.448 M 944.038 622.451 L 948.725 594.433 M 912.67 621.448 L 916.408 658.038 M 946.925 650.712 L 944.038 622.451 M 929.687 692.337 L 946.925 650.712 M 951.334 652.017 L 931.468 692.453 M 951.406 723.361 L 959.874 679.111 M 961.158 679.376 L 951.406 723.361 M 978.08 748.684 L 996.459 723.244 M 997.191 723.79 L 978.08 748.684 M 1021.83 737.928 L 1049.48 744.429 M 1049.48 744.429 L 1077.84 742.748 M 1071.48 712.017 L 1052.18 713.161 M 1077.84 742.748 L 1104.54 733.027 M 1089.65 705.4 L 1071.48 712.017 M 1104.54 733.027 L 1127.33 716.077 M 1105.16 693.862 L 1089.65 705.4 M 1144.33 693.315 L 1105.16 693.862 M 1104.39 692.31 L 1143.44 689.362 M 1151.57 662.14 L 1114.98 676.137 M 1114.98 676.137 L 1151.35 661.58 M 1150.91 633.176 L 1120.23 657.525 M 1119.52 655.661 L 1148.83 629.686 M 1148.83 629.686 L 1118.17 636.372 M 631.1 160.458 L 639.907 122.291 M 639.907 122.291 L 613.047 138.524 M 1118.04 636.139 L 1137.93 602.395 M 1137.93 602.395 L 1110.82 618.203 M 690.417 187.279 L 662.444 201.508 M 678.848 224.701 L 701.582 203.066 M 742.484 268.934 L 713.011 279.718 M 726.525 304.705 L 751.683 285.943 M 774.634 329.652 L 744.905 339.709 M 757.802 365.02 L 783.412 346.881 M 1021.12 541.898 L 995.25 553.632 M 1029.82 572.053 L 1021.12 541.898 M 1012.21 580.039 L 1029.82 572.053 M 995.25 553.632 L 973.815 572.275 M 997.618 592.729 L 1012.21 580.039 M 973.815 572.275 L 958.609 596.27 M 987.267 609.062 L 997.618 592.729 M 958.609 596.27 L 950.9 623.612 M 982.02 627.673 L 987.267 609.062 M 950.9 623.612 L 951.334 652.017 M 982.316 647.007 L 982.02 627.673 M 959.874 679.111 L 982.316 647.007 M 985.225 648.472 L 961.158 679.376 M 975.856 703.685 L 1000.08 683.736 M 1000.53 684.287 L 975.856 703.685 M 996.459 723.244 L 1014.55 697.6 M 1016.58 699.112 L 997.191 723.79 M 1045.1 679.633 L 1033.35 708.736 M 1052.18 713.161 L 1071.46 711.721 M 1064.39 681.144 L 1054.63 681.873 M 1071.46 711.721 L 1089.42 704.549 M 1073.48 677.513 L 1064.39 681.144 M 1089.42 704.549 L 1104.39 692.31 M 1081.06 671.318 L 1073.48 677.513 M 1086.42 663.13 L 1081.06 671.318 M 1120.23 657.525 L 1086.42 663.13 M 1085.95 662.575 L 1119.52 655.661 M 1118.17 636.372 L 1088.24 653.058 M 1088.24 653.058 L 1118.04 636.139 M 1110.82 618.203 L 1087.48 643.298 M 1087.48 643.298 L 1110.62 618.022 M 1110.62 618.022 L 1083.76 634.247 M 718.498 173.266 L 690.417 187.279 M 701.582 203.066 L 724.15 181.258 M 772.038 258.377 L 742.484 268.934 M 751.683 285.943 L 776.695 266.987 M 804.438 319.823 L 774.634 329.652 M 783.412 346.881 L 808.882 328.545 M 1039.29 579.166 L 1020.8 584.834 M 1043.82 610.222 L 1039.29 579.166 M 1034.46 613.091 L 1043.82 610.222 M 1020.8 584.834 L 1004.88 595.799 M 1026.4 618.641 L 1034.46 613.091 M 1004.88 595.799 L 992.982 611.045 M 1020.38 626.36 L 1026.4 618.641 M 992.982 611.045 L 986.223 629.162 M 1016.95 635.531 L 1020.38 626.36 M 986.223 629.162 L 985.225 648.472 M 1016.45 645.307 L 1016.95 635.531 M 990.079 667.189 L 1016.45 645.307 M 852.592 335.599 L 884.753 347.424 M 884.753 347.424 L 859.554 328.718 M 1000.08 683.736 L 1019.09 655.225 M 1019.09 655.225 L 990.079 667.189 M 1020.6 656.515 L 1000.53 684.287 M 1014.55 697.6 L 1032.44 671.817 M 1036.16 674.584 L 1016.58 699.112 M 1033.35 708.736 L 1044.65 679.456 M 208.4 482.578 L 201.363 489.382 M 217.191 478.272 L 208.4 482.578 M 226.881 476.884 L 217.191 478.272 M 236.527 478.549 L 226.881 476.884 M 226.431 508.265 L 245.191 483.105 M 229.142 510.191 L 253.886 490.887 M 246.735 484.202 L 229.142 510.191 M 237.33 519.576 L 265.465 505.672 M 259.813 497.68 L 237.33 519.576 M 237.438 519.795 L 268.453 514.993 M 265.465 505.672 L 237.438 519.795 M 268.814 515.376 L 237.919 520.892 M 266.183 534.534 L 269.01 525.162 M 260.605 542.578 L 266.183 534.534 M 252.82 548.512 L 260.605 542.578 M 243.586 551.76 L 252.82 548.512 M 237.919 520.892 L 233.8 552.005 M 233.8 552.005 L 243.586 551.76 M 496.661 953.336 L 524.755 939.349 M 519.079 931.374 L 496.661 953.336 M 549.561 1022.2 L 576.559 1006.2 M 570.316 998.658 L 549.561 1022.2 M 200.657 526.17 L 226.431 508.265 M 1056.96 650.576 L 1045.1 679.633 M 1054.63 681.873 L 1064.38 681.068 M 1064.38 681.068 L 1073.41 677.297 M 1073.41 677.297 L 1080.85 670.926 M 1080.85 670.926 L 1085.95 662.575 M 1083.76 634.247 L 1056.96 650.576 M 724.15 181.258 L 746.633 159.361 M 746.633 159.361 L 718.498 173.266 M 776.695 266.987 L 801.634 247.935 M 801.634 247.935 L 772.038 258.377 M 834.281 310.11 L 804.438 319.823 M 808.882 328.545 L 815.797 335.473 M 815.797 335.473 L 824.51 339.934 M 824.51 339.934 L 834.174 341.494 M 834.174 341.494 L 843.848 340 M 843.848 340 L 852.592 335.599 M 859.554 328.718 L 834.281 310.11 M 1025.34 665.078 L 1050.09 645.772 M 1050.09 645.772 L 1020.6 656.515 M 1032.44 671.817 L 1050.24 645.965 M 1050.24 645.965 L 1025.34 665.078 M 1055.83 650.133 L 1036.16 674.584 M 1044.65 679.456 L 1055.83 650.133" />
<path fill="none" class="c" d=" M 570.574 479.59 L 598.36 465 M 598.36 465 L 570.302 409.933 M 600.342 534.63 L 627.761 519.362 M 631.451 588.922 L 658.488 572.986 M 663.884 642.435 L 690.522 625.84 M 697.621 695.135 L 723.843 677.891 M 732.641 746.991 L 758.432 729.109 M 732.641 746.991 L 768.924 797.972 M 794.268 779.463 L 758.432 729.109 M 625.784 449.741 L 598.766 396.716 M 784.649 711.858 L 758.432 729.109 M 794.268 779.463 L 819.156 760.344 M 794.268 779.463 L 833.683 827.066 M 857.109 806.182 L 819.156 760.344 M 652.844 433.845 L 627.532 384.168 M 844.483 741.812 L 819.156 760.344 M 857.109 806.182 L 880.041 784.755 M 857.109 806.182 L 900.269 847.155 M 900.269 847.155 L 920.475 823.142 M 920.475 823.142 L 880.041 784.755 M 900.269 847.155 L 948.016 882.676 M 679.549 417.359 L 656.566 372.253 M 903.436 763.837 L 880.041 784.755 M 920.475 823.142 L 940.15 798.691 M 940.15 798.691 L 903.436 763.837 M 920.475 823.142 L 966.624 854.427 M 966.624 854.427 L 982.052 827.098 M 705.919 400.344 L 685.832 360.92 M 927.244 743.389 L 903.436 763.837 M 940.15 798.691 L 959.333 773.853 M 959.333 773.853 L 927.244 743.389 M 983.151 825.404 L 996.918 797.201 M 731.989 382.871 L 715.291 350.099 M 951.406 723.361 L 927.244 743.389 M 959.333 773.853 L 978.08 748.684 M 978.08 748.684 L 951.406 723.361 M 997.71 795.874 L 1009.98 766.989 M 1009.98 766.989 L 978.08 748.684 M 757.802 365.02 L 744.905 339.709 M 975.856 703.685 L 951.406 723.361 M 996.459 723.244 L 975.856 703.685 M 1009.98 766.989 L 1021.83 737.928 M 1021.83 737.928 L 997.191 723.79 M 783.412 346.881 L 774.634 329.652 M 1014.55 697.6 L 1000.53 684.287 M 1021.83 737.928 L 1033.35 708.736 M 1033.35 708.736 L 1016.58 699.112 M 808.882 328.545 L 804.438 319.823 M 1025.34 665.078 L 1000.53 684.287 M 1032.44 671.817 L 1025.34 665.078 M 1044.65 679.456 L 1036.16 674.584 M 808.882 328.545 L 834.281 310.11 M 815.797 335.473 L 834.281 310.11 M 824.51 339.934 L 834.281 310.11 M 834.174 341.494 L 834.281 310.11 M 843.848 340 L 834.281 310.11 M 852.592 335.599 L 834.281 310.11 M 852.592 335.599 L 859.554 328.718 M 542.166 423.837 L 570.574 479.59 M 707.297 765.501 L 743.133 815.854 M 879.507 870.689 L 900.269 847.155 M 879.507 870.689 L 927.315 909.856 M 930.216 908.524 L 948.016 882.676 M 950.6 881.412 L 966.624 854.427 M 966.624 854.427 L 1017.25 877.775 M 1017.25 877.775 L 1028.02 848.298 M 1017.25 877.775 L 1071.01 892.563 M 903.436 763.837 L 872.891 723.467 M 1030.66 842.874 L 1038.45 812.47 M 1030.66 842.874 L 1080.73 850.378 M 1080.73 850.378 L 1082.2 819.029 M 1080.73 850.378 L 1131.28 847.607 M 899.713 707.171 L 872.891 723.467 M 927.244 743.389 L 901.975 707.068 M 1040.2 808.207 L 1045.3 777.241 M 1084.41 810.153 L 1082.05 778.858 M 1084.41 810.153 L 1127.82 801.602 M 1127.82 801.602 L 1118.13 771.751 M 929.687 692.337 L 901.975 707.068 M 951.406 723.361 L 931.468 692.453 M 1045.59 776.209 L 1049.33 745.049 M 1082.36 775.687 L 1077.74 744.647 M 1117.69 765.461 L 1105.02 736.748 M 959.874 679.111 L 931.468 692.453 M 975.856 703.685 L 961.158 679.376 M 1049.48 744.429 L 1052.18 713.161 M 1052.18 713.161 L 1033.35 708.736 M 1077.84 742.748 L 1071.48 712.017 M 1104.54 733.027 L 1089.65 705.4 M 1127.33 716.077 L 1105.16 693.862 M 1127.33 716.077 L 1144.33 693.315 M 990.079 667.189 L 961.158 679.376 M 1000.08 683.736 L 990.079 667.189 M 1052.18 713.161 L 1054.63 681.873 M 1054.63 681.873 L 1045.1 679.633 M 1071.46 711.721 L 1064.39 681.144 M 1089.42 704.549 L 1073.48 677.513 M 1104.39 692.31 L 1081.06 671.318 M 1104.39 692.31 L 1114.98 676.137 M 1114.98 676.137 L 1086.42 663.13 M 1114.98 676.137 L 1120.23 657.525 M 1025.34 665.078 L 1020.6 656.515 M 1054.63 681.873 L 1056.96 650.576 M 1064.38 681.068 L 1056.96 650.576 M 1073.41 677.297 L 1056.96 650.576 M 1080.85 670.926 L 1056.96 650.576 M 1085.95 662.575 L 1056.96 650.576 M 1085.95 662.575 L 1088.24 653.058 M 1088.24 653.058 L 1056.96 650.576 M 1088.24 653.058 L 1087.48 643.298 M 1087.48 643.298 L 1056.96 650.576 M 1087.48 643.298 L 1083.76 634.247 M 682.409 784.62 L 716.916 833.106 M 542.166 423.837 L 514.38 438.427 M 542.166 423.837 L 512.398 368.797 M 542.438 493.494 L 570.574 479.59 M 569.585 408.569 L 540.184 354.207 M 769.851 799.179 L 809.758 847.376 M 907.726 934.375 L 927.315 909.856 M 930.216 908.524 L 982.363 941.696 M 596.627 392.641 L 568.316 340.295 M 753.773 660.983 L 726.367 676.274 M 834.685 828.138 L 879.507 870.689 M 950.6 881.412 L 1003.5 908.679 M 1005.84 907.01 L 1017.25 877.775 M 1005.84 907.01 L 1062.47 925.295 M 1064.51 923.267 L 1071.01 892.563 M 1064.51 923.267 L 1123.37 932.08 M 623.288 376.085 L 596.765 327.045 M 814.313 694.926 L 786.952 710.298 M 1078.63 881.691 L 1080.73 850.378 M 1078.63 881.691 L 1134.38 880.862 M 1135.55 878.699 L 1131.28 847.607 M 649.58 358.949 L 625.498 314.421 M 872.891 723.467 L 846.4 740.294 M 1136.98 831.619 L 1127.82 801.602 M 675.526 341.292 L 654.476 302.373 M 899.713 707.171 L 880.7 667.219 M 701.158 323.184 L 683.661 290.832 M 910.441 657.199 L 880.7 667.219 M 929.687 692.337 L 916.408 658.038 M 1171.76 708.57 L 1144.33 693.315 M 1171.76 708.57 L 1185.19 674.33 M 726.525 304.705 L 713.011 279.718 M 946.925 650.712 L 916.408 658.038 M 959.874 679.111 L 951.334 652.017 M 1143.44 689.362 L 1114.98 676.137 M 1143.44 689.362 L 1151.57 662.14 M 1151.35 661.58 L 1120.23 657.525 M 1151.35 661.58 L 1150.91 633.176 M 751.683 285.943 L 742.484 268.934 M 982.316 647.007 L 951.334 652.017 M 990.079 667.189 L 985.225 648.472 M 1119.52 655.661 L 1088.24 653.058 M 1119.52 655.661 L 1118.17 636.372 M 1118.04 636.139 L 1087.48 643.298 M 1118.04 636.139 L 1110.82 618.203 M 776.695 266.987 L 772.038 258.377 M 1016.45 645.307 L 985.225 648.472 M 657.975 804.315 L 690.303 849.74 M 484.978 384.065 L 514.38 438.427 M 569.136 549.233 L 597.605 536.025 M 745.926 819.49 L 785.341 867.093 M 907.726 934.375 L 957.089 972.83 M 965.844 968.38 L 982.363 941.696 M 965.844 968.38 L 1019.45 1000.66 M 858.18 893.714 L 879.507 870.689 M 858.18 893.714 L 904.605 935.669 M 990.145 937.081 L 1003.5 908.679 M 990.145 937.081 L 1047 961.314 M 1053.93 955.493 L 1062.47 925.295 M 1053.93 955.493 L 1113.97 970.139 M 1119.86 963.267 L 1123.37 932.08 M 1136.72 912.158 L 1134.38 880.862 M 880.7 667.219 L 851.138 677.756 M 1215.56 682.234 L 1185.19 674.33 M 1215.56 682.234 L 1221.53 638.393 M 1182.57 667.021 L 1151.57 662.14 M 1182.57 667.021 L 1183.39 630.251 M 633.979 824.541 L 663.332 865.786 M 457.937 399.993 L 486.248 452.339 M 486.248 452.339 L 514.38 438.427 M 722.5 840.374 L 760.453 886.212 M 937.5 997.349 L 957.089 972.83 M 1002.93 1027.34 L 1019.45 1000.66 M 937.5 997.349 L 985.308 1036.52 M 1002.93 1027.34 L 1055.08 1060.52 M 594.458 605.611 L 623.242 593.105 M 883.279 958.693 L 904.605 935.669 M 837.425 917.254 L 883.279 958.693 M 1035.05 990.333 L 1047 961.314 M 1035.05 990.333 L 1093.2 1013.45 M 1106.91 1000.72 L 1113.97 970.139 M 812.799 850.632 L 858.18 893.714 M 726.693 607.989 L 698.244 621.24 M 789.963 644.771 L 760.961 656.763 M 849.332 678.66 L 820.453 690.946 M 902.928 621.195 L 871.662 623.905 M 944.038 622.451 L 912.67 621.448 M 982.02 627.673 L 950.9 623.612 M 1016.95 635.531 L 986.223 629.162 M 610.391 845.243 L 636.046 881.291 M 457.937 399.993 L 431.275 416.549 M 457.937 399.993 L 423.573 351.406 M 457.799 465.589 L 486.248 452.339 M 699.568 861.8 L 735.125 904.744 M 964.546 1060.05 L 985.308 1036.52 M 1037.28 1086.36 L 1055.08 1060.52 M 964.546 1060.05 L 1007.71 1101.02 M 448.517 332.36 L 423.573 351.406 M 510.663 506.611 L 539.735 494.79 M 861.4 981.193 L 883.279 958.693 M 817.247 941.291 L 861.4 981.193 M 883.279 958.693 L 928.101 1001.24 M 1081.25 1042.47 L 1093.2 1013.45 M 618.389 662.593 L 647.471 650.798 M 791.473 873.656 L 836.295 916.207 M 870.155 624.247 L 839.073 628.591 M 587.168 866.352 L 608.494 896.318 M 399.081 371.03 L 431.275 416.549 M 677.112 883.724 L 709.397 922.716 M 984.774 1122.45 L 1007.71 1101.02 M 423.573 351.406 L 399.081 371.03 M 478.271 517.448 L 508.1 507.693 M 839.001 1003.18 L 861.4 981.193 M 797.637 965.793 L 839.001 1003.18 M 905.676 1023.2 L 928.101 1001.24 M 861.4 981.193 L 902.522 1024.21 M 905.676 1023.2 L 945.731 1067.21 M 448.517 332.36 L 409.241 284.641 M 484.205 382.819 L 448.517 332.36 M 531.051 562.521 L 560.909 552.853 M 770.711 897.19 L 813.871 938.164 M 433.226 264.401 L 409.241 284.641 M 640.914 720.146 L 670.277 709.068 M 703.554 553.161 L 674.213 564.3 M 771.782 592.065 L 741.554 600.505 M 833.388 630.613 L 802.894 638.029 M 904.133 584.435 L 873.111 579.683 M 948.725 594.433 L 918.739 585.172 M 987.267 609.062 L 958.609 596.27 M 1020.38 626.36 L 992.982 611.045 M 564.254 887.797 L 580.726 910.942 M 375.025 391.185 L 404.257 432.516 M 655.098 906.092 L 683.316 940.172 M 404.257 432.516 L 431.275 416.549 M 399.081 371.03 L 375.025 391.185 M 404.257 432.516 L 426.365 478.057 M 778.568 990.719 L 816.126 1024.66 M 878.579 1044.5 L 902.522 1024.21 M 839.001 1003.18 L 875.602 1045.23 M 921.297 1086.91 L 945.731 1067.21 M 878.579 1044.5 L 912.012 1089.12 M 921.297 1086.91 L 953.625 1132.33 M 423.573 351.406 L 383.648 307.274 M 492.399 571.383 L 523.18 565.262 M 750.505 921.204 L 790.939 959.59 M 406.137 285.384 L 383.648 307.274 M 547.304 619.77 L 577.788 612.307 M 433.226 264.401 L 392.287 217.078 M 472.991 312.715 L 433.226 264.401 M 510.048 365.012 L 473.915 313.925 M 416.272 196.838 L 392.287 217.078 M 457.701 244.756 L 433.226 264.401 M 496.976 292.475 L 457.701 244.756 M 535.446 346.577 L 499.758 296.119 M 482.645 225.711 L 457.701 244.756 M 520.463 271.66 L 482.645 225.711 M 560.39 327.531 L 526.026 278.944 M 543.458 250.301 L 508.027 207.253 M 584.882 307.908 L 552.687 262.389 M 565.978 228.443 L 533.807 189.356 M 608.937 287.752 L 579.705 246.421 M 588.058 206.14 L 559.94 171.977 M 632.586 267.12 L 607.037 230.996 M 868.514 580.031 L 837.196 578.003 M 609.745 183.455 L 586.372 155.057 M 655.871 246.079 L 634.633 216.051 M 631.1 160.458 L 613.047 138.524 M 678.848 224.701 L 662.444 201.508 M 701.582 203.066 L 690.417 187.279 M 724.15 181.258 L 718.498 173.266 M 541.583 909.499 L 552.795 925.253 M 633.477 928.84 L 656.934 957.169 M 375.025 391.185 L 351.377 411.817 M 376.926 447.941 L 404.257 432.516 M 351.377 411.817 L 376.926 447.941 M 396.885 488.823 L 426.365 478.057 M 376.926 447.941 L 394.646 488.484 M 760 1016.02 L 792.827 1045.69 M 850.323 1063.83 L 875.602 1045.23 M 885.443 1105.82 L 912.012 1089.12 M 850.323 1063.83 L 876.89 1106.92 M 926.653 1148.38 L 953.625 1132.33 M 885.443 1105.82 L 908.794 1150.74 M 399.081 371.03 L 359.901 331.364 M 359.901 331.364 L 339.45 355.17 M 426.365 478.057 L 455.623 466.705 M 730.83 945.654 L 767.544 980.508 M 380.868 308.012 L 359.901 331.364 M 499.979 626.619 L 531.271 624.22 M 406.137 285.384 L 361.44 242.701 M 559.335 678.052 L 590.282 672.834 M 382.834 219.74 L 361.44 242.701 M 416.272 196.838 L 376.997 149.119 M 457.701 244.756 L 419.608 196.088 M 401.941 130.074 L 376.997 149.119 M 445.012 177.66 L 419.608 196.088 M 482.645 225.711 L 448.281 177.124 M 684.477 496.79 L 654.402 505.758 M 474.942 160.568 L 448.281 177.124 M 507.136 206.087 L 474.942 160.568 M 760.03 537.564 L 729.01 542.331 M 501.96 144.601 L 474.942 160.568 M 531.192 185.931 L 501.96 144.601 M 825.485 580.61 L 794.19 582.959 M 529.291 129.175 L 501.96 144.601 M 913.987 548.999 L 884.966 537.054 M 960.653 568.65 L 934.182 551.791 M 997.618 592.729 L 973.815 572.275 M 1026.4 618.641 L 1004.88 595.799 M 519.079 931.374 L 524.755 939.349 M 612.19 951.9 L 630.307 973.781 M 319.052 381.603 L 351.377 411.817 M 349.33 462.887 L 376.926 447.941 M 328.091 432.858 L 349.33 462.887 M 364.598 497.543 L 394.646 488.484 M 349.33 462.887 L 362.874 497.082 M 364.598 497.543 L 370.95 533.77 M 741.877 1041.64 L 769.164 1066.3 M 848.64 1120.59 L 876.89 1106.92 M 879.622 1162.31 L 908.794 1150.74 M 848.64 1120.59 L 863.767 1162.17 M 338.043 356.617 L 319.052 381.603 M 407.763 531.711 L 438.81 527.126 M 711.646 970.492 L 743.736 1000.96 M 359.901 331.364 L 314.781 298.612 M 314.781 298.612 L 298.483 325.432 M 440.757 526.591 L 471.474 520.158 M 380.868 308.012 L 334.287 270.975 M 331.664 272.156 L 314.781 298.612 M 500.904 682.365 L 532.258 683.723 M 352.908 245.713 L 334.287 270.975 M 567.081 737.057 L 598.326 734.112 M 567.081 737.057 L 570.499 796.47 M 382.834 219.74 L 336.533 177.648 M 357.927 154.687 L 336.533 177.648 M 401.941 130.074 L 367.577 81.4865 M 445.012 177.66 L 411.851 128.244 M 394.238 64.9307 L 367.577 81.4865 M 438.911 112.348 L 411.851 128.244 M 474.942 160.568 L 448.419 111.527 M 477.151 98.9035 L 448.419 111.527 M 501.96 144.601 L 479.853 99.0596 M 509.332 88.2935 L 479.853 99.0596 M 529.291 129.175 L 511.571 88.6322 M 875.845 536.397 L 845.583 528.079 M 541.619 79.5737 L 511.571 88.6322 M 591.163 975.199 L 603.495 990.092 M 300.501 406.917 L 327.371 432.032 M 321.519 477.429 L 349.33 462.887 M 305.115 454.236 L 321.519 477.429 M 332.414 504.644 L 362.874 497.082 M 321.519 477.429 L 331.207 504.134 M 339.591 535.019 L 370.95 533.77 M 332.414 504.644 L 335.52 532.881 M 724.128 1067.53 L 745.204 1086.57 M 833.208 1169.32 L 863.767 1162.17 M 319.052 381.603 L 300.501 406.917 M 370.95 533.77 L 402.288 532.066 M 692.9 995.662 L 719.574 1020.98 M 294.835 330.238 L 281.288 358.547 M 409.747 575.913 L 441.08 577.699 M 314.781 298.612 L 264.928 273.649 M 447.049 576.822 L 478.404 575.48 M 331.664 272.156 L 279.67 243.203 M 277.275 244.796 L 264.928 273.649 M 352.908 245.713 L 301.854 210.883 M 293.927 215.245 L 279.67 243.203 M 319.222 184.742 L 301.854 210.883 M 357.927 154.687 L 313.23 112.004 M 335.718 90.1136 L 313.23 112.004 M 438.911 112.348 L 413.599 62.6708 M 754.876 482.049 L 723.509 483.074 M 442.633 50.7563 L 413.599 62.6708 M 477.151 98.9035 L 460.645 51.0468 M 825.835 529.988 L 794.575 527.207 M 491.2 43.881 L 460.645 51.0468 M 509.332 88.2935 L 498.455 45.4051 M 529.577 41.3631 L 498.455 45.4051 M 541.619 79.5737 L 535.267 43.3463 M 931.933 516.895 L 906.555 498.432 M 566.626 42.0978 L 535.267 43.3463 M 978.973 546.939 L 957.902 523.681 M 1012.21 580.039 L 995.25 553.632 M 1034.46 613.091 L 1020.8 584.834 M 570.316 998.658 L 576.559 1006.2 M 293.546 491.658 L 321.519 477.429 M 282.38 475.871 L 293.546 491.658 M 300.468 510.461 L 331.207 504.134 M 293.546 491.658 L 299.73 509.979 M 304.157 531.768 L 335.52 532.881 M 300.468 510.461 L 301.588 529.765 M 300.501 406.917 L 282.32 432.498 M 282.32 432.498 L 303.074 451.896 M 336.925 563.301 L 367.498 570.388 M 674.521 1021.1 L 695.124 1040.66 M 280.506 359.88 L 268.459 388.859 M 368.565 570.473 L 399.418 576.219 M 294.835 330.238 L 247.188 313.137 M 247.188 313.137 L 239.642 343.6 M 402.754 619.604 L 433.079 627.686 M 255.339 282.831 L 247.188 313.137 M 445.073 627.407 L 476.228 631.191 M 277.275 244.796 L 221.259 224.701 M 293.927 215.245 L 237.881 189.198 M 230.77 194.793 L 221.259 224.701 M 319.222 184.742 L 266.681 150.757 M 250.757 160.577 L 237.881 189.198 M 284.048 124.617 L 266.681 150.757 M 891.844 495.144 L 863.889 480.882 M 265.465 505.672 L 293.546 491.658 M 259.813 497.68 L 265.465 505.672 M 268.814 515.376 L 299.73 509.979 M 265.465 505.672 L 268.453 514.993 M 270.345 526.796 L 301.588 529.765 M 268.814 515.376 L 269.01 525.162 M 257.177 419.276 L 282.32 432.498 M 264.428 458.282 L 278.555 471.486 M 300.685 550.79 L 330.42 560.828 M 656.43 1046.75 L 670.453 1060.06 M 267.948 389.799 L 257.177 419.276 M 326.877 589.873 L 354.489 604.79 M 237.918 347.877 L 233.058 378.882 M 357.577 605.573 L 386.2 618.445 M 247.188 313.137 L 197.067 306.021 M 197.067 306.021 L 195.835 337.381 M 387.075 660.979 L 415.14 675.024 M 255.339 282.831 L 200.496 272.799 M 198.924 274.693 L 197.067 306.021 M 434.882 676.993 L 465.004 685.803 M 204.285 241.644 L 200.496 272.799 M 834.428 480.1 L 804.038 472.262 M 237.919 520.892 L 269.01 525.162 M 237.919 520.892 L 266.183 534.534 M 237.919 520.892 L 260.605 542.578 M 237.919 520.892 L 252.82 548.512 M 237.919 520.892 L 243.586 551.76 M 246.738 448.873 L 263.853 457.873 M 246.735 484.202 L 253.886 490.887 M 267.947 536.287 L 296.852 548.512 M 257.177 419.276 L 246.738 448.873 M 291.918 568.025 L 317.54 586.148 M 232.027 381.897 L 229.432 413.173 M 310.161 612.842 L 332.846 634.528 M 193.701 346.273 L 196.303 377.549 M 338.609 637.085 L 363.381 656.353 M 236.527 478.549 L 245.191 483.105 M 246.738 448.873 L 236.527 478.549 M 262.807 544.617 L 286.698 564.968 M 229.302 413.799 L 227.765 445.145 M 278.587 582.032 L 297.956 606.726 M 195.294 383.772 L 201.061 414.622 M 287.967 630.574 L 304.112 657.487 M 236.527 478.549 L 226.431 508.265 M 227.71 445.436 L 226.894 476.809 M 255.4 551.016 L 272.066 577.609 M 201.025 416.523 L 208.517 446.999 M 261.808 591.641 L 273.304 620.843 M 160.365 395.293 L 174.083 423.519 M 270.33 672.032 L 304.112 657.487 M 226.881 476.884 L 226.431 508.265 M 208.528 447.88 L 217.184 478.046 M 246.411 554.892 L 254.31 585.266 M 174.708 427.221 L 190.604 454.281 M 160.365 395.293 L 129.724 415.637 M 109.378 391.743 L 129.724 415.637 M 279.224 702.129 L 319.863 684.631 M 217.191 478.272 L 226.431 508.265 M 190.969 455.978 L 208.295 482.146 M 174.708 427.221 L 152.551 444.999 M 129.821 423.359 L 152.551 444.999 M 109.378 391.743 L 79.3415 424.232 M 54.2517 405.379 L 79.3415 424.232 M 288.642 732.066 L 335.138 712.047 M 208.4 482.578 L 226.431 508.265 M 190.969 455.978 L 176.658 468.981 M 176.658 468.981 L 201.05 488.729 M 152.418 449.047 L 176.658 468.981 M 129.821 423.359 L 108.24 453.141 M 80.8164 437.88 L 108.24 453.141 M 54.2517 405.379 L 28.11 448.731 M 201.363 489.382 L 226.431 508.265 M 176.658 468.981 L 166.919 485.686 M 201.363 489.382 L 196.765 498.024 M 152.418 449.047 L 137.735 473.366 M 137.807 473.963 L 166.919 485.686 M 108.945 460.873 L 137.735 473.366 M 80.8164 437.88 L 64.0522 478.828 M 196.765 498.024 L 226.431 508.265 M 167.14 487.668 L 196.765 498.024 M 167.14 487.668 L 163.61 506.679 M 137.807 473.963 L 131.115 501.572 M 108.945 460.873 L 98.9352 496.265 M 196.765 498.024 L 195.053 507.662 M 195.053 507.662 L 226.431 508.265 M 195.053 507.662 L 196.394 517.358 M 196.394 517.358 L 226.431 508.265 M 163.678 506.937 L 195.053 507.662 M 163.678 506.937 L 166.177 526.111 M 196.394 517.358 L 200.657 526.17" />
</svg>
