<?xml version="1.0"?>
<svg width="911" height="1371" version="1.1" xmlns="http://www.w3.org/2000/svg" >
<defs>
<style type="text/css"><![CDATA[
.m {stroke:rgb(255,0,0);stroke-width:1.713750;}
.v {stroke:rgb(0,0,255);stroke-width:1.713750;}
.b {stroke:rgb(0,0,0);stroke-width:3.427500;fill:white}
.n {stroke:rgb(128,128,128);stroke-width:1.713750}
.t {stroke:rgb(0,128,0);stroke-width:1.713750;}
.c {stroke:rgb(128,128,128);stroke-width:1.713750;stroke-dasharray:9.110000, 9.110000;}
]]></style>
</defs>
<path fill="none" style="stroke:black;stroke-width:3.427500;" d=" M 300.397 550.919 L 302.828 541.437 M 302.828 541.437 L 307.997 533.124 M 298.854 500.1 L 284.178 512.69 M 307.997 533.124 L 315.427 526.751 M 316.636 492.506 L 298.854 500.1 M 334.17 521.946 L 335.88 490.609 M 335.88 490.609 L 334.651 521.969 M 354.861 494.296 L 353.389 528.531 M 352.864 528.505 L 354.861 494.296 M 385.642 516.958 L 371.995 503.258 M 394.537 534.126 L 385.642 516.958 M 360.297 535.467 L 364.8 544.158 M 397.859 553.175 L 394.537 534.126 M 364.8 544.158 L 366.482 553.801 M 395.3 572.341 L 397.859 553.175 M 366.482 553.801 L 365.186 563.504 M 361.033 572.367 L 387.096 589.851 M 365.186 563.504 L 361.033 572.367 M 353.415 579.203 L 372.047 604.457 M 385.679 590.744 L 360.316 572.261 M 291.076 711.265 L 256.908 708.665 M 256.908 708.665 L 281.554 728.094 M 344.71 583.681 L 371.85 604.601 M 371.85 604.601 L 353.415 579.203 M 335.05 585.26 L 335.341 616.642 M 354.424 613.524 L 344.71 583.681 M 320.198 582.375 L 308.405 611.459 M 327.221 615.914 L 329.723 584.631 M 307.915 611.337 L 311.831 577.295 M 311.831 577.295 L 308.18 611.366 M 308.18 611.366 L 320.198 582.375 M 291.223 601.064 L 305.436 569.884 M 305.436 569.884 L 291.465 601.173 M 278.507 586.147 L 301.635 560.863 M 301.635 560.863 L 278.704 586.326 M 270.218 567.149 L 300.397 550.919 M 300.799 551.11 L 271.138 568.27 M 237.725 543.97 L 273.967 529.11 M 273.967 529.11 L 237.957 544.524 M 244.57 514.036 L 283.684 511.96 M 284.178 512.69 L 245.2 516.563 M 283.684 511.96 L 298.739 499.826 M 298.739 499.826 L 316.636 492.506 M 390.407 477.843 L 365.235 464.677 M 410.762 497.66 L 390.407 477.843 M 371.995 503.258 L 385.85 516.747 M 424.599 522.47 L 410.762 497.66 M 385.85 516.747 L 395.269 533.634 M 430.762 550.201 L 424.599 522.47 M 395.269 533.634 L 399.463 552.51 M 398.084 571.797 L 428.735 578.537 M 399.463 552.51 L 398.084 571.797 M 387.096 589.851 L 413.291 607.134 M 425.345 581.41 L 395.3 572.341 M 372.047 604.457 L 390.872 629.568 M 410.9 609.421 L 385.679 590.744 M 281.554 728.094 L 306.349 747.334 M 320.338 722.609 L 291.076 711.265 M 262.923 855.711 L 226.97 871.255 M 226.97 871.255 L 255.968 883.255 M 335.341 616.642 L 363.909 643.44 M 363.909 643.44 L 354.424 613.524 M 243.05 1009.1 L 213.045 1034.28 M 213.045 1034.28 L 244.264 1037.49 M 308.405 611.459 L 324.48 647.178 M 324.48 647.178 L 327.221 615.914 M 291.465 601.173 L 271.284 625.207 M 295.451 640.139 L 307.915 611.337 M 269.411 624.246 L 278.507 586.147 M 278.704 586.326 L 270.491 624.625 M 270.491 624.625 L 291.223 601.064 M 249.052 600.107 L 270.218 567.149 M 271.138 568.27 L 251.525 602.175 M 239.069 572.91 L 269.165 547.841 M 269.165 547.841 L 239.457 573.369 M 204.484 534.599 L 244.57 514.036 M 245.2 516.563 L 206.616 539.823 M 216.372 498.867 L 260.666 490.628 M 260.666 490.628 L 216.569 499.862 M 237.985 468.028 L 282.784 472.801 M 282.784 472.801 L 237.888 469.037 M 267.515 444.658 L 309.077 462.046 M 309.077 462.046 L 267.134 445.598 M 302.495 430.711 L 337.348 459.26 M 337.348 459.26 L 301.861 431.503 M 365.235 464.677 L 390.697 477.274 M 390.697 477.274 L 411.924 496.154 M 411.924 496.154 L 427.403 519.974 M 436.034 547.039 L 466.938 541.577 M 427.403 519.974 L 436.034 547.039 M 428.735 578.537 L 459.461 584.931 M 462.084 548.245 L 430.762 550.201 M 413.291 607.134 L 439.68 624.121 M 455.285 590.816 L 425.345 581.41 M 390.872 629.568 L 409.979 654.464 M 435.91 628.38 L 410.9 609.421 M 306.349 747.334 L 331.358 766.293 M 349.47 734.282 L 320.338 722.609 M 255.968 883.255 L 285.1 894.928 M 294.104 859.267 L 262.923 855.711 M 244.264 1037.49 L 275.518 1040.34 M 273.946 1003.59 L 243.05 1009.1 M 289.924 1128.5 L 269.088 1168.44 M 269.088 1168.44 L 300.131 1163.83 M 271.284 625.207 L 282.663 668.799 M 282.663 668.799 L 295.451 640.139 M 251.525 602.175 L 224.725 618.506 M 247.882 647.081 L 269.411 624.246 M 219.257 613.373 L 239.069 572.91 M 239.457 573.369 L 221.191 614.553 M 221.191 614.553 L 249.052 600.107 M 206.664 576.603 L 237.725 543.97 M 237.957 544.524 L 208.153 578.31 M 172.241 524.65 L 216.372 498.867 M 216.569 499.862 L 173.826 527.886 M 188.323 480.111 L 237.985 468.028 M 237.888 469.037 L 188.916 483.666 M 216.471 442.033 L 267.515 444.658 M 267.134 445.598 L 216.023 445.609 M 254.335 413.596 L 302.495 430.711 M 301.861 431.503 L 252.883 416.894 M 339.17 427.929 L 340.535 396.575 M 375.275 434.942 L 384.881 405.065 M 341.447 396.628 L 339.17 427.929 M 408.241 451.251 L 425.405 424.977 M 385.746 405.357 L 375.275 434.942 M 435.723 475.696 L 459.222 454.894 M 426.162 425.487 L 408.241 451.251 M 455.764 506.536 L 483.927 492.687 M 459.817 455.586 L 435.723 475.696 M 466.938 541.577 L 497.761 535.667 M 484.318 493.512 L 455.764 506.536 M 459.461 584.931 L 490.276 590.878 M 493.432 546.744 L 462.084 548.245 M 439.68 624.121 L 466.313 640.723 M 485.086 600.657 L 455.285 590.816 M 409.979 654.464 L 429.446 679.081 M 460.641 647.702 L 435.91 628.38 M 331.358 766.293 L 356.641 784.887 M 378.429 746.377 L 349.47 734.282 M 285.1 894.928 L 314.399 906.176 M 325.231 863.276 L 294.104 859.267 M 275.518 1040.34 L 306.81 1042.74 M 304.919 998.531 L 273.946 1003.59 M 300.131 1163.83 L 331.104 1158.77 M 318.825 1116.26 L 289.924 1128.5 M 354.882 1217.79 L 346.19 1268.15 M 346.19 1268.15 L 375.501 1256.94 M 224.725 618.506 L 226.023 669.6 M 226.023 669.6 L 247.882 647.081 M 186.015 623.357 L 206.664 576.603 M 208.153 578.31 L 190.677 626.34 M 190.677 626.34 L 219.257 613.373 M 169.57 571.928 L 204.484 534.599 M 206.616 539.823 L 175.508 580.377 M 138.922 508.118 L 188.323 480.111 M 188.916 483.666 L 142.12 515.837 M 161.124 454.74 L 216.471 442.033 M 216.023 445.609 L 161.981 463.051 M 197.665 409.942 L 254.335 413.596 M 252.883 416.894 L 196.109 418.151 M 242.213 382.985 L 296.416 399.922 M 296.416 399.922 L 241.654 384.889 M 340.535 396.575 L 341.353 365.202 M 384.881 405.065 L 393.964 375.025 M 344.27 365.372 L 341.447 396.628 M 425.405 424.977 L 442.107 398.407 M 396.732 375.959 L 385.746 405.357 M 459.222 454.894 L 482.354 433.685 M 444.529 400.04 L 426.162 425.487 M 483.927 492.687 L 511.843 478.348 M 484.259 435.9 L 459.817 455.586 M 497.761 535.667 L 528.475 529.219 M 513.094 480.989 L 484.318 493.512 M 490.276 590.878 L 521.19 596.285 M 524.801 545.791 L 493.432 546.744 M 466.313 640.723 L 493.232 656.857 M 514.711 611.016 L 485.086 600.657 M 429.446 679.081 L 449.34 703.354 M 485.03 667.452 L 460.641 647.702 M 356.641 784.887 L 382.244 803.037 M 407.173 758.977 L 378.429 746.377 M 314.399 906.176 L 343.89 916.911 M 356.283 867.828 L 325.231 863.276 M 306.81 1042.74 L 338.139 1044.59 M 335.976 994.012 L 304.919 998.531 M 331.104 1158.77 L 361.984 1153.17 M 347.935 1104.53 L 318.825 1116.26 M 375.501 1256.94 L 404.611 1245.21 M 381.02 1200.42 L 354.882 1217.79 M 426.609 1279.79 L 430.371 1336.45 M 430.371 1336.45 L 457.181 1320.14 M 175.508 580.377 L 156.444 633.869 M 156.444 633.869 L 186.015 623.357 M 132.915 565.616 L 172.241 524.65 M 138.187 572.098 L 169.57 571.928 M 173.826 527.886 L 138.187 572.098 M 105.293 481.014 L 161.124 454.74 M 161.981 463.051 L 109.908 496.155 M 109.908 496.155 L 138.922 508.118 M 136.652 419.15 L 197.665 409.942 M 196.109 418.151 L 136.744 434.978 M 241.654 384.889 L 228.403 356.44 M 290.875 369.032 L 284.719 338.258 M 231.125 353.625 L 242.213 382.985 M 341.353 365.202 L 341.545 333.82 M 285.951 338.037 L 290.875 369.032 M 393.964 375.025 L 402.447 344.809 M 347.716 334.178 L 344.27 365.372 M 442.107 398.407 L 458.276 371.509 M 408.303 346.786 L 396.732 375.959 M 482.354 433.685 L 505.059 412.019 M 463.401 374.964 L 444.529 400.04 M 511.843 478.348 L 539.468 463.456 M 509.089 416.706 L 484.259 435.9 M 528.475 529.219 L 559.054 522.16 M 542.115 469.042 L 513.094 480.989 M 552.206 601.076 L 556.183 545.464 M 521.19 596.285 L 552.206 601.076 M 556.183 545.464 L 524.801 545.791 M 493.232 656.857 L 520.467 672.451 M 544.123 621.965 L 514.711 611.016 M 449.34 703.354 L 469.714 727.225 M 509.022 687.685 L 485.03 667.452 M 382.244 803.037 L 408.204 820.672 M 435.659 772.147 L 407.173 758.977 M 343.89 916.911 L 373.589 927.055 M 387.238 872.998 L 356.283 867.828 M 338.139 1044.59 L 369.499 1045.81 M 367.116 990.112 L 335.976 994.012 M 361.984 1153.17 L 392.746 1146.95 M 377.273 1093.39 L 347.935 1104.53 M 404.611 1245.21 L 433.481 1232.9 M 407.5 1183.57 L 381.02 1200.42 M 457.181 1320.14 L 483.661 1303.29 M 449.99 1258.85 L 426.609 1279.79 M 142.12 515.837 L 111.83 507.627 M 101.691 562.451 L 132.915 565.616 M 136.744 434.978 L 111.937 415.755 M 78.3661 464.893 L 105.293 481.014 M 179.956 384.032 L 161.683 358.517 M 115.461 396.001 L 136.652 419.15 M 228.403 356.44 L 214.532 328.288 M 162.82 357.74 L 179.956 384.032 M 284.719 338.258 L 277.89 307.626 M 220.684 324.03 L 231.125 353.625 M 341.545 333.82 L 341.049 302.44 M 281.708 306.941 L 285.951 338.037 M 402.447 344.809 L 410.264 314.415 M 351.845 303.067 L 347.716 334.178 M 458.276 371.509 L 473.851 344.263 M 420.51 317.874 L 408.303 346.786 M 505.059 412.019 L 527.284 389.86 M 482.817 350.308 L 463.401 374.964 M 539.468 463.456 L 566.76 447.961 M 534.333 398.061 L 509.089 416.706 M 559.054 522.16 L 589.471 514.432 M 571.391 457.734 L 542.115 469.042 M 654.305 604.349 L 660.335 635.148 M 708.281 590.381 L 654.305 604.349 M 717.948 620.238 L 708.281 590.381 M 520.467 672.451 L 548.038 687.444 M 573.288 633.555 L 544.123 621.965 M 469.714 727.225 L 490.607 750.644 M 532.563 708.439 L 509.022 687.685 M 408.204 820.672 L 434.545 837.734 M 463.85 785.938 L 435.659 772.147 M 373.589 927.055 L 403.503 936.546 M 418.072 878.845 L 387.238 872.998 M 369.499 1045.81 L 400.878 1046.35 M 398.334 986.896 L 367.116 990.112 M 392.746 1146.95 L 423.364 1140.06 M 406.848 1082.89 L 377.273 1093.39 M 433.481 1232.9 L 462.074 1219.97 M 434.342 1167.31 L 407.5 1183.57 M 483.661 1303.29 L 509.765 1285.87 M 473.824 1238.44 L 449.99 1258.85 M 574.594 1372.53 L 595.163 1348.83 M 547.961 1312.59 L 574.594 1372.53 M 70.5444 558.602 L 101.691 562.451 M 111.83 507.627 L 70.5444 558.602 M 111.937 415.755 L 86.6866 397.116 M 51.8232 448.148 L 78.3661 464.893 M 161.683 358.517 L 142.819 333.436 M 94.8163 372.364 L 115.461 396.001 M 214.532 328.288 L 200.006 300.468 M 146.302 331.055 L 162.82 357.74 M 277.89 307.626 L 270.347 277.162 M 210.938 294.198 L 220.684 324.03 M 341.049 302.44 L 339.819 271.08 M 278.193 275.755 L 281.708 306.941 M 410.264 314.415 L 417.369 283.846 M 356.7 272.061 L 351.845 303.067 M 473.851 344.263 L 488.785 316.66 M 433.39 289.255 L 420.51 317.874 M 527.284 389.86 L 548.984 367.188 M 502.805 326.112 L 482.817 350.308 M 566.76 447.961 L 593.683 431.833 M 560.006 380.01 L 534.333 398.061 M 589.471 514.432 L 619.7 505.995 M 600.923 447.113 L 571.391 457.734 M 660.335 635.148 L 667.082 665.797 M 726.915 650.314 L 717.948 620.238 M 548.038 687.444 L 575.952 701.789 M 602.174 645.824 L 573.288 633.555 M 490.607 750.644 L 512.041 773.568 M 555.613 729.737 L 532.563 708.439 M 434.545 837.734 L 461.277 854.175 M 491.711 800.384 L 463.85 785.938 M 403.503 936.546 L 433.631 945.335 M 448.761 885.412 L 418.072 878.845 M 400.878 1046.35 L 432.261 1046.16 M 429.62 984.411 L 398.334 986.896 M 423.364 1140.06 L 453.813 1132.46 M 436.661 1073.08 L 406.848 1082.89 M 462.074 1219.97 L 490.358 1206.36 M 461.557 1151.68 L 434.342 1167.31 M 509.765 1285.87 L 535.454 1267.84 M 498.129 1218.58 L 473.824 1238.44 M 595.163 1348.83 L 615.172 1324.65 M 566.152 1287.01 L 547.961 1312.59 M 86.6866 397.116 L 60.9924 379.096 M 25.6943 430.764 L 51.8232 448.148 M 142.819 333.436 L 123.352 308.819 M 74.7512 348.232 L 94.8163 372.364 M 200.006 300.468 L 184.81 273.009 M 130.437 303.977 L 146.302 331.055 M 270.347 277.162 L 262.067 246.89 M 201.918 264.138 L 210.938 294.198 M 339.819 271.08 L 337.83 239.76 M 275.435 244.493 L 278.193 275.755 M 417.369 283.846 L 423.731 253.114 M 362.305 241.182 L 356.7 272.061 M 488.785 316.66 L 503.045 288.703 M 446.96 260.957 L 433.39 289.255 M 548.984 367.188 L 570.128 343.996 M 523.374 302.409 L 502.805 326.112 M 593.683 431.833 L 620.206 415.056 M 586.11 362.588 L 560.006 380.01 M 619.7 505.995 L 649.715 496.828 M 630.703 437.212 L 600.923 447.113 M 667.082 665.797 L 674.571 696.274 M 735.15 680.598 L 726.915 650.314 M 604.205 715.452 L 630.754 658.79 M 575.952 701.789 L 604.205 715.452 M 630.754 658.79 L 602.174 645.824 M 512.041 773.568 L 534.025 795.965 M 578.14 751.588 L 555.613 729.737 M 461.277 854.175 L 488.4 869.964 M 519.213 815.502 L 491.711 800.384 M 433.631 945.335 L 463.963 953.391 M 479.281 892.721 L 448.761 885.412 M 432.261 1046.16 L 463.63 1045.2 M 460.956 982.685 L 429.62 984.411 M 453.813 1132.46 L 484.068 1124.12 M 466.702 1064 L 436.661 1073.08 M 490.358 1206.36 L 518.303 1192.08 M 489.144 1136.72 L 461.557 1151.68 M 535.454 1267.84 L 560.699 1249.2 M 522.909 1199.32 L 498.129 1218.58 M 615.172 1324.65 L 634.589 1300 M 584.958 1261.89 L 566.152 1287.01 M 60.9924 379.096 L 0 412.743 M 0 412.743 L 25.6943 430.764 M 679.36 1277.02 L 726.264 1328.52 M 726.264 1328.52 L 737.098 1299.07 M 55.2843 323.616 L 74.7512 348.232 M 123.352 308.819 L 103.287 284.688 M 115.241 276.518 L 130.437 303.977 M 184.81 273.009 L 168.944 245.931 M 193.638 233.867 L 201.918 264.138 M 262.067 246.89 L 253.047 216.831 M 273.446 213.172 L 275.435 244.493 M 337.83 239.76 L 335.072 208.497 M 368.667 210.451 L 362.305 241.182 M 423.731 253.114 L 429.337 222.235 M 461.22 233 L 446.96 260.957 M 503.045 288.703 L 516.615 260.405 M 544.518 279.217 L 523.374 302.409 M 570.128 343.996 L 590.697 320.292 M 612.633 345.811 L 586.11 362.588 M 620.206 415.056 L 646.309 397.634 M 660.718 428.045 L 630.703 437.212 M 649.715 496.828 L 679.495 486.927 M 742.639 711.075 L 735.15 680.598 M 674.571 696.274 L 682.806 726.558 M 651.868 705.527 L 597.59 736.662 M 667.148 732.94 L 651.868 705.527 M 597.59 736.662 L 613.538 763.691 M 600.124 773.986 L 578.14 751.588 M 534.025 795.965 L 556.552 817.816 M 546.336 831.291 L 519.213 815.502 M 488.4 869.964 L 515.902 885.081 M 509.613 900.777 L 479.281 892.721 M 463.963 953.391 L 494.483 960.7 M 492.325 981.729 L 460.956 982.685 M 463.63 1045.2 L 494.966 1043.48 M 496.958 1055.67 L 466.702 1064 M 484.068 1124.12 L 514.11 1115.04 M 517.089 1122.43 L 489.144 1136.72 M 518.303 1192.08 L 545.889 1177.12 M 548.153 1180.68 L 522.909 1199.32 M 560.699 1249.2 L 585.478 1229.94 M 604.375 1237.23 L 584.958 1261.89 M 634.589 1300 L 653.395 1274.87 M 691.618 1248.13 L 679.36 1277.02 M 737.098 1299.07 L 747.215 1269.36 M 36.42 298.534 L 55.2843 323.616 M 103.287 284.688 L 82.6425 261.05 M 100.715 248.698 L 115.241 276.518 M 168.944 245.931 L 152.427 219.246 M 186.095 203.403 L 193.638 233.867 M 253.047 216.831 L 243.301 186.999 M 272.216 181.813 L 273.446 213.172 M 335.072 208.497 L 331.557 177.311 M 375.772 179.882 L 368.667 210.451 M 429.337 222.235 L 434.192 191.229 M 476.154 205.398 L 461.22 233 M 516.615 260.405 L 529.495 231.786 M 566.218 256.545 L 544.518 279.217 M 590.697 320.292 L 610.684 296.097 M 639.555 329.683 L 612.633 345.811 M 646.309 397.634 L 671.983 379.584 M 690.947 419.608 L 660.718 428.045 M 679.495 486.927 L 709.027 476.306 M 749.386 741.724 L 742.639 711.075 M 682.806 726.558 L 691.773 756.634 M 681.759 760.715 L 667.148 732.94 M 613.538 763.691 L 630.137 790.326 M 621.558 796.91 L 600.124 773.986 M 556.552 817.816 L 579.602 839.115 M 573.069 847.732 L 546.336 831.291 M 515.902 885.081 L 543.763 899.528 M 539.741 909.566 L 509.613 900.777 M 494.483 960.7 L 525.172 967.267 M 523.708 981.534 L 492.325 981.729 M 494.966 1043.48 L 526.251 1040.99 M 527.407 1048.06 L 496.958 1055.67 M 514.11 1115.04 L 543.923 1105.24 M 545.372 1108.83 L 517.089 1122.43 M 545.889 1177.12 L 573.104 1161.49 M 573.843 1162.65 L 548.153 1180.68 M 585.478 1229.94 L 609.783 1210.08 M 624.385 1213.05 L 604.375 1237.23 M 653.395 1274.87 L 671.587 1249.3 M 704.548 1219.54 L 691.618 1248.13 M 747.215 1269.36 L 756.634 1239.42 M 82.6425 261.05 L 18.1471 273.019 M 18.1471 273.019 L 36.42 298.534 M 780.999 1226.88 L 840.174 1255.19 M 840.174 1255.19 L 836.678 1224 M 86.8433 220.546 L 100.715 248.698 M 152.427 219.246 L 135.29 192.953 M 179.266 172.771 L 186.095 203.403 M 243.301 186.999 L 232.86 157.403 M 271.72 150.433 L 272.216 181.813 M 331.557 177.311 L 327.314 146.216 M 383.59 149.487 L 375.772 179.882 M 434.192 191.229 L 438.321 160.118 M 491.729 178.152 L 476.154 205.398 M 529.495 231.786 L 541.702 202.874 M 588.442 234.386 L 566.218 256.545 M 610.684 296.097 L 630.101 271.44 M 666.847 314.188 L 639.555 329.683 M 671.983 379.584 L 697.227 360.938 M 721.364 411.88 L 690.947 419.608 M 709.027 476.306 L 738.303 464.998 M 755.416 772.523 L 749.386 741.724 M 691.773 756.634 L 701.44 786.491 M 695.716 788.824 L 681.759 760.715 M 630.137 790.326 L 647.354 816.565 M 642.451 820.328 L 621.558 796.91 M 579.602 839.115 L 603.143 859.869 M 599.409 864.794 L 573.069 847.732 M 543.763 899.528 L 571.954 913.319 M 569.655 919.057 L 539.741 909.566 M 525.172 967.267 L 556.006 973.114 M 555.087 982.072 L 523.708 981.534 M 526.251 1040.99 L 557.469 1037.77 M 558.025 1041.17 L 527.407 1048.06 M 543.923 1105.24 L 573.498 1094.74 M 573.966 1095.9 L 545.372 1108.83 M 573.104 1161.49 L 599.947 1145.23 M 599.947 1145.23 L 573.843 1162.65 M 609.783 1210.08 L 633.618 1189.67 M 644.954 1189.35 L 624.385 1213.05 M 671.587 1249.3 L 689.175 1223.3 M 756.634 1239.42 L 718.102 1191.23 M 725.987 1188.47 L 770.287 1231.42 M 770.287 1231.42 L 775.179 1200.42 M 781.943 1195.51 L 780.999 1226.88 M 836.678 1224 L 832.499 1192.89 M 73.5925 192.097 L 86.8433 220.546 M 135.29 192.953 L 117.581 167.044 M 173.11 141.997 L 179.266 172.771 M 232.86 157.403 L 221.772 128.043 M 271.912 119.05 L 271.72 150.433 M 327.314 146.216 L 322.39 115.221 M 392.072 119.272 L 383.59 149.487 M 438.321 160.118 L 441.767 128.924 M 507.898 151.254 L 491.729 178.152 M 541.702 202.874 L 553.272 173.701 M 611.147 212.72 L 588.442 234.386 M 630.101 271.44 L 648.972 246.364 M 694.472 299.296 L 666.847 314.188 M 697.227 360.938 L 722.057 341.744 M 751.943 404.821 L 721.364 411.88 M 738.303 464.998 L 767.324 453.051 M 760.769 803.447 L 755.416 772.523 M 701.44 786.491 L 711.76 816.13 M 709.055 817.232 L 695.716 788.824 M 647.354 816.565 L 665.142 842.421 M 662.825 844.2 L 642.451 820.328 M 603.143 859.869 L 627.135 880.101 M 625.369 882.429 L 599.409 864.794 M 571.954 913.319 L 600.441 926.489 M 599.354 929.201 L 569.655 919.057 M 556.006 973.114 L 586.961 978.284 M 586.446 983.298 L 555.087 982.072 M 557.469 1037.77 L 588.61 1033.88 M 588.787 1034.96 L 558.025 1041.17 M 573.498 1094.74 L 602.836 1083.59 M 602.836 1083.59 L 573.966 1095.9 M 633.618 1189.67 L 626.426 1128.38 M 631.445 1129.14 L 644.954 1189.35 M 689.175 1223.3 L 666.037 1166.1 M 674.384 1165.71 L 704.548 1219.54 M 775.179 1200.42 L 736.456 1158.88 M 739.775 1157.48 L 781.943 1195.51 M 832.499 1192.89 L 783.513 1164.17 M 786.292 1161.87 L 837.577 1186.26 M 837.577 1186.26 L 830.116 1155.78 M 117.581 167.044 L 60.9115 163.39 M 60.9115 163.39 L 73.5925 192.097 M 840.211 1145.4 L 896.951 1147.71 M 896.951 1147.71 L 878.132 1122.6 M 167.569 111.106 L 173.11 141.997 M 221.772 128.043 L 210.102 98.9104 M 272.73 87.6768 L 271.912 119.05 M 322.39 115.221 L 316.849 84.3301 M 401.155 89.2312 L 392.072 119.272 M 441.767 128.924 L 444.59 97.6679 M 524.6 124.683 L 507.898 151.254 M 553.272 173.701 L 564.259 144.303 M 634.28 191.511 L 611.147 212.72 M 648.972 246.364 L 667.34 220.917 M 722.389 284.957 L 694.472 299.296 M 722.057 341.744 L 746.499 322.058 M 782.658 398.373 L 751.943 404.821 M 767.324 453.051 L 796.1 440.528 M 765.504 834.471 L 760.769 803.447 M 711.76 816.13 L 722.669 845.556 M 721.823 845.901 L 709.055 817.232 M 665.142 842.421 L 683.443 867.917 M 682.719 868.472 L 662.825 844.2 M 627.135 880.101 L 651.524 899.851 M 650.973 900.579 L 625.369 882.429 M 600.441 926.489 L 629.184 939.089 M 628.845 939.936 L 599.354 929.201 M 586.961 978.284 L 618.013 982.836 M 617.775 985.149 L 586.446 983.298 M 588.61 1033.88 L 619.666 1029.36 M 619.666 1029.36 L 588.787 1034.96 M 626.426 1128.38 L 631.946 1071.86 M 633.337 1072.39 L 631.445 1129.14 M 666.037 1166.1 L 656.418 1110.14 M 659.964 1110.78 L 674.384 1165.71 M 718.102 1191.23 L 692.878 1140.35 M 696.46 1139.96 L 725.987 1188.47 M 783.513 1164.17 L 748.178 1127.24 M 749.1 1126.82 L 786.292 1161.87 M 830.116 1155.78 L 785.695 1130.5 M 790.28 1127.21 L 836.954 1148.04 M 836.954 1148.04 L 826.042 1118.61 M 827.355 1116.77 L 840.211 1145.4 M 878.132 1122.6 L 858.877 1097.82 M 210.102 98.9104 L 162.569 80.1237 M 162.569 80.1237 L 167.569 111.106 M 862.598 1091.3 L 911.991 1078.17 M 911.991 1078.17 L 885.007 1062.14 M 274.095 56.3228 L 272.73 87.6768 M 316.849 84.3301 L 310.77 53.5409 M 410.762 59.3539 L 401.155 89.2312 M 444.59 97.6679 L 446.867 66.3669 M 541.764 98.409 L 524.6 124.683 M 564.259 144.303 L 574.73 114.718 M 657.779 170.709 L 634.28 191.511 M 667.34 220.917 L 685.26 195.153 M 750.552 271.108 L 722.389 284.957 M 746.499 322.058 L 770.593 301.948 M 813.48 392.462 L 782.658 398.373 M 796.1 440.528 L 824.654 427.504 M 769.697 865.574 L 765.504 834.471 M 722.669 845.556 L 734.09 874.788 M 734.09 874.788 L 721.823 845.901 M 683.443 867.917 L 702.186 893.089 M 702.186 893.089 L 682.719 868.472 M 651.524 899.851 L 676.255 919.173 M 676.255 919.173 L 650.973 900.579 M 629.184 939.089 L 658.144 951.184 M 658.144 951.184 L 628.845 939.936 M 618.013 982.836 L 649.14 986.845 M 649.067 987.548 L 617.775 985.149 M 631.946 1071.86 L 650.639 1024.29 M 650.639 1024.29 L 633.337 1072.39 M 656.418 1110.14 L 661.87 1059.32 M 662.787 1059.75 L 659.964 1110.78 M 692.878 1140.35 L 683.566 1090.1 M 684.569 1090.25 L 696.46 1139.96 M 736.456 1158.88 L 713.16 1113.39 M 714.164 1113.25 L 739.775 1157.48 M 785.695 1130.5 L 756.377 1096.29 M 758.688 1095.09 L 790.28 1127.21 M 826.042 1118.61 L 787.082 1095.99 M 787.567 1095.63 L 827.355 1116.77 M 858.877 1097.82 L 814.917 1087.95 M 815.273 1087.47 L 859.575 1095.66 M 859.575 1095.66 L 839.048 1071.92 M 840.485 1069.03 L 862.598 1091.3 M 885.007 1062.14 L 857.794 1046.51 M 310.77 53.5409 L 275.917 24.9922 M 275.917 24.9922 L 274.095 56.3228 M 858.293 1044.46 L 898.046 1023.26 M 898.046 1023.26 L 867.199 1017.49 M 420.802 29.6195 L 410.762 59.3539 M 446.867 66.3669 L 448.688 35.0361 M 559.307 72.3868 L 541.764 98.409 M 574.73 114.718 L 584.77 84.9835 M 681.578 150.251 L 657.779 170.709 M 685.26 195.153 L 702.804 169.131 M 778.913 257.67 L 750.552 271.108 M 770.593 301.948 L 794.392 281.491 M 844.384 387 L 813.48 392.462 M 853.015 414.066 L 844.384 387 M 824.654 427.504 L 853.015 414.066 M 773.436 896.734 L 769.697 865.574 M 745.934 903.851 L 773.436 896.734 M 721.293 917.986 L 745.934 903.851 M 701.265 938.132 L 721.293 917.986 M 687.276 962.857 L 701.265 938.132 M 649.14 986.845 L 680.321 990.401 M 680.321 990.401 L 649.067 987.548 M 661.87 1059.32 L 681.535 1018.78 M 681.535 1018.78 L 662.787 1059.75 M 683.566 1090.1 L 690.816 1045.63 M 690.816 1045.63 L 684.569 1090.25 M 713.16 1113.39 L 707.389 1068.7 M 707.389 1068.7 L 714.164 1113.25 M 748.178 1127.24 L 729.868 1086.07 M 729.868 1086.07 L 749.1 1126.82 M 787.082 1095.99 L 764.205 1064.19 M 764.205 1064.19 L 787.567 1095.63 M 814.917 1087.95 L 783.539 1064.51 M 783.539 1064.51 L 815.273 1087.47 M 839.048 1071.92 L 802.073 1059 M 802.95 1057.84 L 840.485 1069.03 M 857.794 1046.51 L 818.624 1046.52 M 818.752 1046.28 L 857.911 1045.37 M 857.911 1045.37 L 830.176 1030.68 M 830.226 1030.42 L 858.293 1044.46 M 867.199 1017.49 L 836.288 1012.06 M 448.688 35.0361 L 431.175 0 M 431.175 0 L 420.802 29.6195 M 836.741 1003.66 L 865.699 977.282 M 865.699 977.282 L 835.131 984.388 M 577.143 46.5639 L 559.307 72.3868 M 584.77 84.9835 L 594.474 55.138 M 705.606 130.062 L 681.578 150.251 M 702.804 169.131 L 720.054 142.913 M 807.423 244.552 L 778.913 257.67 M 817.96 260.766 L 807.423 244.552 M 794.392 281.491 L 817.96 260.766 M 804.481 905.767 L 776.302 902.173 M 796.053 935.998 L 804.481 905.767 M 776.872 933.551 L 796.053 935.998 M 776.302 902.173 L 748.271 906.789 M 757.792 936.693 L 776.872 933.551 M 748.271 906.789 L 722.732 919.228 M 740.408 945.161 L 757.792 936.693 M 722.732 919.228 L 701.818 938.453 M 726.173 958.246 L 740.408 945.161 M 701.818 938.453 L 687.276 962.857 M 716.274 974.857 L 726.173 958.246 M 729.965 1046.9 L 718.684 1031.2 M 745.266 1058.73 L 729.965 1046.9 M 756.377 1096.29 L 745.266 1058.73 M 745.861 1058.08 L 758.688 1095.09 M 779.273 1033.42 L 769.485 1033.26 M 802.073 1059 L 779.273 1033.42 M 779.365 1032.98 L 802.95 1057.84 M 818.624 1046.52 L 788.656 1029.9 M 788.656 1029.9 L 818.752 1046.28 M 830.176 1030.68 L 796.546 1024.11 M 796.546 1024.11 L 830.226 1030.42 M 836.288 1012.06 L 802.268 1016.16 M 802.268 1016.16 L 836.255 1011.79 M 836.255 1011.79 L 805.264 1006.85 M 805.433 1001.48 L 836.741 1003.66 M 835.131 984.388 L 804.618 991.729 M 594.474 55.138 L 595.176 20.8785 M 595.176 20.8785 L 577.143 46.5639 M 804.618 991.729 L 827.604 966.316 M 827.604 966.316 L 800.837 982.701 M 720.054 142.913 L 729.788 110.058 M 729.788 110.058 L 705.606 130.062 M 800.837 982.701 L 814.875 951.441 M 814.875 951.441 L 794.458 975.276 M 814.689 951.283 L 798.183 941.212 M 794.458 975.276 L 814.689 951.283 M 798.183 941.212 L 786.102 970.177 M 796.985 940.042 L 778.048 936.133 M 786.039 969.455 L 796.985 940.042 M 776.452 967.476 L 786.039 969.455 M 778.048 936.133 L 758.812 938.099 M 766.714 968.471 L 776.452 967.476 M 758.812 938.099 L 741.057 945.757 M 757.726 972.348 L 766.714 968.471 M 741.057 945.757 L 726.426 958.4 M 750.32 978.748 L 757.726 972.348 M 726.426 958.4 L 716.274 974.857 M 711.541 993.605 L 745.18 987.079 M 745.277 987.596 L 711.541 993.605 M 712.367 1012.92 L 743.153 1006.83 M 743.243 1007.3 L 712.367 1012.92 M 718.684 1031.2 L 730.204 1046.73 M 730.204 1046.73 L 745.861 1058.08 M 760.199 1030.16 L 752.273 1024.42 M 769.485 1033.26 L 760.199 1030.16 M 303.008 541.574 L 300.799 551.11 M 308.047 533.182 L 303.008 541.574 M 315.427 526.751 L 308.047 533.182 M 332.103 553.337 L 324.429 522.906 M 332.34 553.277 L 334.17 521.946 M 324.429 522.906 L 332.34 553.277 M 333.545 553.333 L 344.261 523.836 M 334.651 521.969 L 333.545 553.333 M 333.775 553.416 L 352.864 528.505 M 344.261 523.836 L 333.775 553.416 M 353.389 528.531 L 334.881 553.877 M 364.733 544.193 L 360.297 535.467 M 366.264 553.861 L 364.733 544.193 M 364.742 563.53 L 366.264 553.861 M 360.316 572.261 L 364.742 563.53 M 334.881 553.877 L 335.05 585.26 M 329.723 584.631 L 332.103 553.337 M 769.577 1033.05 L 779.365 1032.98 M 805.264 1006.85 L 774.254 1002.02 M 774.134 999.189 L 805.433 1001.48 M 786.102 970.177 L 776.581 967.901 M 776.581 967.901 L 766.823 968.669 M 766.823 968.669 L 757.776 972.406 M 757.776 972.406 L 750.32 978.748 M 745.18 987.079 L 774.134 999.189 M 742.735 997.049 L 773.942 1000.37 M 773.942 1000.37 L 745.277 987.596 M 743.153 1006.83 L 773.915 1000.61 M 773.915 1000.61 L 742.735 997.049 M 746.441 1016.55 L 774.141 1001.8 M 774.141 1001.8 L 743.243 1007.3 M 774.254 1002.02 L 746.441 1016.55 M 752.273 1024.42 L 760.243 1030.1 M 760.243 1030.1 L 769.577 1033.05" />
<path fill="none" class="c" d=" M 364.733 544.193 L 334.881 553.877 M 334.881 553.877 L 366.264 553.861 M 334.881 553.877 L 364.742 563.53 M 334.881 553.877 L 360.316 572.261 M 353.415 579.203 L 360.316 572.261 M 334.881 553.877 L 353.415 579.203 M 344.71 583.681 L 353.415 579.203 M 334.881 553.877 L 344.71 583.681 M 335.05 585.26 L 344.71 583.681 M 360.297 535.467 L 334.881 553.877 M 360.297 535.467 L 353.389 528.531 M 372.047 604.457 L 385.679 590.744 M 335.341 616.642 L 354.424 613.524 M 371.995 503.258 L 353.389 528.531 M 371.995 503.258 L 354.861 494.296 M 390.872 629.568 L 410.9 609.421 M 360.297 535.467 L 385.642 516.958 M 365.235 464.677 L 354.861 494.296 M 365.235 464.677 L 337.348 459.26 M 371.995 503.258 L 390.407 477.843 M 339.17 427.929 L 337.348 459.26 M 409.979 654.464 L 435.91 628.38 M 364.8 544.158 L 394.537 534.126 M 337.348 459.26 L 335.88 490.609 M 337.348 459.26 L 309.077 462.046 M 335.88 490.609 L 354.861 494.296 M 385.85 516.747 L 410.762 497.66 M 339.17 427.929 L 302.495 430.711 M 301.861 431.503 L 309.077 462.046 M 365.235 464.677 L 375.275 434.942 M 375.275 434.942 L 339.17 427.929 M 296.416 399.922 L 302.495 430.711 M 429.446 679.081 L 460.641 647.702 M 316.636 492.506 L 335.88 490.609 M 324.429 522.906 L 334.17 521.946 M 344.261 523.836 L 354.861 494.296 M 334.651 521.969 L 344.261 523.836 M 344.261 523.836 L 352.864 528.505 M 366.482 553.801 L 397.859 553.175 M 309.077 462.046 L 316.636 492.506 M 395.269 533.634 L 424.599 522.47 M 301.861 431.503 L 267.515 444.658 M 390.697 477.274 L 408.241 451.251 M 408.241 451.251 L 375.275 434.942 M 296.416 399.922 L 254.335 413.596 M 252.883 416.894 L 267.515 444.658 M 340.535 396.575 L 296.416 399.922 M 384.881 405.065 L 341.447 396.628 M 241.654 384.889 L 254.335 413.596 M 290.875 369.032 L 296.416 399.922 M 449.34 703.354 L 485.03 667.452 M 316.636 492.506 L 324.429 522.906 M 315.427 526.751 L 324.429 522.906 M 365.186 563.504 L 395.3 572.341 M 309.077 462.046 L 282.784 472.801 M 282.784 472.801 L 298.739 499.826 M 399.463 552.51 L 430.762 550.201 M 267.134 445.598 L 282.784 472.801 M 411.924 496.154 L 435.723 475.696 M 435.723 475.696 L 408.241 451.251 M 252.883 416.894 L 216.471 442.033 M 425.405 424.977 L 385.746 405.357 M 241.654 384.889 L 197.665 409.942 M 196.109 418.151 L 216.471 442.033 M 290.875 369.032 L 242.213 382.985 M 341.353 365.202 L 290.875 369.032 M 393.964 375.025 L 344.27 365.372 M 179.956 384.032 L 197.665 409.942 M 469.714 727.225 L 509.022 687.685 M 315.427 526.751 L 332.103 553.337 M 298.854 500.1 L 315.427 526.751 M 387.096 589.851 L 395.3 572.341 M 282.784 472.801 L 260.666 490.628 M 260.666 490.628 L 283.684 511.96 M 428.735 578.537 L 430.762 550.201 M 267.134 445.598 L 237.985 468.028 M 237.888 469.037 L 260.666 490.628 M 427.403 519.974 L 455.764 506.536 M 455.764 506.536 L 435.723 475.696 M 216.023 445.609 L 237.985 468.028 M 459.222 454.894 L 426.162 425.487 M 196.109 418.151 L 161.124 454.74 M 442.107 398.407 L 396.732 375.959 M 179.956 384.032 L 136.652 419.15 M 136.744 434.978 L 161.124 454.74 M 228.403 356.44 L 179.956 384.032 M 284.719 338.258 L 231.125 353.625 M 341.545 333.82 L 285.951 338.037 M 402.447 344.809 L 347.716 334.178 M 490.607 750.644 L 532.563 708.439 M 308.047 533.182 L 332.103 553.337 M 284.178 512.69 L 307.997 533.124 M 284.178 512.69 L 273.967 529.11 M 260.666 490.628 L 244.57 514.036 M 245.2 516.563 L 273.967 529.11 M 413.291 607.134 L 425.345 581.41 M 237.888 469.037 L 216.372 498.867 M 216.569 499.862 L 244.57 514.036 M 466.938 541.577 L 455.764 506.536 M 459.461 584.931 L 462.084 548.245 M 216.023 445.609 L 188.323 480.111 M 188.916 483.666 L 216.372 498.867 M 483.927 492.687 L 459.817 455.586 M 161.981 463.051 L 188.323 480.111 M 482.354 433.685 L 444.529 400.04 M 136.744 434.978 L 105.293 481.014 M 458.276 371.509 L 408.303 346.786 M 161.683 358.517 L 115.461 396.001 M 214.532 328.288 L 162.82 357.74 M 277.89 307.626 L 220.684 324.03 M 341.049 302.44 L 281.708 306.941 M 410.264 314.415 L 351.845 303.067 M 512.041 773.568 L 555.613 729.737 M 303.008 541.574 L 332.103 553.337 M 273.967 529.11 L 302.828 541.437 M 273.967 529.11 L 269.165 547.841 M 245.2 516.563 L 237.725 543.97 M 237.957 544.524 L 269.165 547.841 M 237.957 544.524 L 239.069 572.91 M 216.569 499.862 L 204.484 534.599 M 206.616 539.823 L 237.725 543.97 M 439.68 624.121 L 455.285 590.816 M 206.616 539.823 L 206.664 576.603 M 208.153 578.31 L 239.069 572.91 M 188.916 483.666 L 172.241 524.65 M 173.826 527.886 L 204.484 534.599 M 497.761 535.667 L 484.318 493.512 M 490.276 590.878 L 493.432 546.744 M 173.826 527.886 L 169.57 571.928 M 175.508 580.377 L 206.664 576.603 M 161.981 463.051 L 138.922 508.118 M 142.12 515.837 L 172.241 524.65 M 511.843 478.348 L 484.259 435.9 M 142.12 515.837 L 132.915 565.616 M 505.059 412.019 L 463.401 374.964 M 111.937 415.755 L 78.3661 464.893 M 473.851 344.263 L 420.51 317.874 M 142.819 333.436 L 94.8163 372.364 M 200.006 300.468 L 146.302 331.055 M 270.347 277.162 L 210.938 294.198 M 339.819 271.08 L 278.193 275.755 M 417.369 283.846 L 356.7 272.061 M 534.025 795.965 L 578.14 751.588 M 556.552 817.816 L 600.124 773.986 M 579.602 839.115 L 621.558 796.91 M 603.143 859.869 L 642.451 820.328 M 627.135 880.101 L 662.825 844.2 M 651.524 899.851 L 682.719 868.472 M 676.255 919.173 L 702.186 893.089 M 721.293 917.986 L 702.186 893.089 M 676.255 919.173 L 701.265 938.132 M 676.255 919.173 L 658.144 951.184 M 658.144 951.184 L 687.276 962.857 M 658.144 951.184 L 649.14 986.845 M 680.321 990.401 L 687.276 962.857 M 716.274 974.857 L 687.276 962.857 M 680.321 990.401 L 711.541 993.605 M 711.541 993.605 L 716.274 974.857 M 680.321 990.401 L 681.535 1018.78 M 681.535 1018.78 L 712.367 1012.92 M 712.367 1012.92 L 711.541 993.605 M 681.535 1018.78 L 690.816 1045.63 M 690.816 1045.63 L 718.684 1031.2 M 718.684 1031.2 L 712.367 1012.92 M 690.816 1045.63 L 707.389 1068.7 M 707.389 1068.7 L 729.965 1046.9 M 707.389 1068.7 L 729.868 1086.07 M 729.868 1086.07 L 745.266 1058.73 M 729.868 1086.07 L 756.377 1096.29 M 745.18 987.079 L 716.274 974.857 M 742.735 997.049 L 711.541 993.605 M 743.153 1006.83 L 742.735 997.049 M 718.684 1031.2 L 746.441 1016.55 M 746.441 1016.55 L 743.243 1007.3 M 730.204 1046.73 L 752.273 1024.42 M 752.273 1024.42 L 746.441 1016.55 M 745.861 1058.08 L 760.199 1030.16 M 745.861 1058.08 L 764.205 1064.19 M 764.205 1064.19 L 769.485 1033.26 M 300.799 551.11 L 332.103 553.337 M 300.799 551.11 L 301.635 560.863 M 301.635 560.863 L 332.103 553.337 M 752.273 1024.42 L 774.254 1002.02 M 760.243 1030.1 L 774.254 1002.02 M 769.577 1033.05 L 774.254 1002.02 M 269.165 547.841 L 300.397 550.919 M 269.165 547.841 L 270.218 567.149 M 271.138 568.27 L 301.635 560.863 M 239.457 573.369 L 270.218 567.149 M 208.153 578.31 L 219.257 613.373 M 466.313 640.723 L 485.086 600.657 M 175.508 580.377 L 186.015 623.357 M 528.475 529.219 L 513.094 480.989 M 521.19 596.285 L 524.801 545.791 M 539.468 463.456 L 509.089 416.706 M 111.83 507.627 L 101.691 562.451 M 527.284 389.86 L 482.817 350.308 M 86.6866 397.116 L 51.8232 448.148 M 488.785 316.66 L 433.39 289.255 M 123.352 308.819 L 74.7512 348.232 M 184.81 273.009 L 130.437 303.977 M 262.067 246.89 L 201.918 264.138 M 337.83 239.76 L 275.435 244.493 M 423.731 253.114 L 362.305 241.182 M 103.287 284.688 L 55.2843 323.616 M 168.944 245.931 L 115.241 276.518 M 253.047 216.831 L 193.638 233.867 M 335.072 208.497 L 273.446 213.172 M 429.337 222.235 L 368.667 210.451 M 82.6425 261.05 L 36.42 298.534 M 152.427 219.246 L 100.715 248.698 M 243.301 186.999 L 186.095 203.403 M 331.557 177.311 L 272.216 181.813 M 434.192 191.229 L 375.772 179.882 M 135.29 192.953 L 86.8433 220.546 M 232.86 157.403 L 179.266 172.771 M 327.314 146.216 L 271.72 150.433 M 438.321 160.118 L 383.59 149.487 M 117.581 167.044 L 73.5925 192.097 M 221.772 128.043 L 173.11 141.997 M 322.39 115.221 L 271.912 119.05 M 441.767 128.924 L 392.072 119.272 M 210.102 98.9104 L 167.569 111.106 M 316.849 84.3301 L 272.73 87.6768 M 444.59 97.6679 L 401.155 89.2312 M 310.77 53.5409 L 274.095 56.3228 M 446.867 66.3669 L 410.762 59.3539 M 448.688 35.0361 L 420.802 29.6195 M 650.639 1024.29 L 681.535 1018.78 M 650.639 1024.29 L 661.87 1059.32 M 662.787 1059.75 L 690.816 1045.63 M 662.787 1059.75 L 683.566 1090.1 M 684.569 1090.25 L 707.389 1068.7 M 684.569 1090.25 L 713.16 1113.39 M 714.164 1113.25 L 729.868 1086.07 M 714.164 1113.25 L 748.178 1127.24 M 749.1 1126.82 L 756.377 1096.29 M 758.688 1095.09 L 764.205 1064.19 M 764.205 1064.19 L 783.539 1064.51 M 783.539 1064.51 L 779.273 1033.42 M 783.539 1064.51 L 802.073 1059 M 745.18 987.079 L 750.32 978.748 M 742.735 997.049 L 745.277 987.596 M 301.635 560.863 L 305.436 569.884 M 305.436 569.884 L 332.103 553.337 M 779.365 1032.98 L 774.254 1002.02 M 779.365 1032.98 L 788.656 1029.9 M 788.656 1029.9 L 774.254 1002.02 M 788.656 1029.9 L 796.546 1024.11 M 796.546 1024.11 L 774.254 1002.02 M 796.546 1024.11 L 802.268 1016.16 M 802.268 1016.16 L 774.254 1002.02 M 802.268 1016.16 L 805.264 1006.85 M 774.134 999.189 L 750.32 978.748 M 271.138 568.27 L 278.507 586.147 M 278.704 586.326 L 305.436 569.884 M 239.457 573.369 L 249.052 600.107 M 251.525 602.175 L 278.507 586.147 M 493.232 656.857 L 514.711 611.016 M 559.054 522.16 L 542.115 469.042 M 566.76 447.961 L 534.333 398.061 M 548.984 367.188 L 502.805 326.112 M 60.9924 379.096 L 25.6943 430.764 M 503.045 288.703 L 446.96 260.957 M 516.615 260.405 L 461.22 233 M 529.495 231.786 L 476.154 205.398 M 541.702 202.874 L 491.729 178.152 M 553.272 173.701 L 507.898 151.254 M 564.259 144.303 L 524.6 124.683 M 574.73 114.718 L 541.764 98.409 M 650.973 900.579 L 629.184 939.089 M 628.845 939.936 L 618.013 982.836 M 633.337 1072.39 L 661.87 1059.32 M 633.337 1072.39 L 656.418 1110.14 M 659.964 1110.78 L 683.566 1090.1 M 659.964 1110.78 L 692.878 1140.35 M 696.46 1139.96 L 713.16 1113.39 M 696.46 1139.96 L 736.456 1158.88 M 739.775 1157.48 L 748.178 1127.24 M 749.1 1126.82 L 785.695 1130.5 M 584.77 84.9835 L 559.307 72.3868 M 734.09 874.788 L 702.186 893.089 M 745.934 903.851 L 734.09 874.788 M 649.067 987.548 L 650.639 1024.29 M 758.688 1095.09 L 787.082 1095.99 M 787.567 1095.63 L 783.539 1064.51 M 787.567 1095.63 L 814.917 1087.95 M 815.273 1087.47 L 802.073 1059 M 815.273 1087.47 L 839.048 1071.92 M 594.474 55.138 L 577.143 46.5639 M 726.173 958.246 L 701.818 938.453 M 802.95 1057.84 L 788.656 1029.9 M 802.95 1057.84 L 818.624 1046.52 M 818.752 1046.28 L 796.546 1024.11 M 818.752 1046.28 L 830.176 1030.68 M 830.226 1030.42 L 802.268 1016.16 M 830.226 1030.42 L 836.288 1012.06 M 750.32 978.748 L 726.426 958.4 M 305.436 569.884 L 311.831 577.295 M 311.831 577.295 L 332.103 553.337 M 774.134 999.189 L 757.776 972.406 M 278.704 586.326 L 291.223 601.064 M 291.465 601.173 L 311.831 577.295 M 251.525 602.175 L 269.411 624.246 M 520.467 672.451 L 544.123 621.965 M 589.471 514.432 L 571.391 457.734 M 593.683 431.833 L 560.006 380.01 M 570.128 343.996 L 523.374 302.409 M 590.697 320.292 L 544.518 279.217 M 610.684 296.097 L 566.218 256.545 M 630.101 271.44 L 588.442 234.386 M 648.972 246.364 L 611.147 212.72 M 667.34 220.917 L 634.28 191.511 M 631.445 1129.14 L 656.418 1110.14 M 631.445 1129.14 L 666.037 1166.1 M 674.384 1165.71 L 692.878 1140.35 M 674.384 1165.71 L 718.102 1191.23 M 725.987 1188.47 L 736.456 1158.88 M 739.775 1157.48 L 783.513 1164.17 M 786.292 1161.87 L 785.695 1130.5 M 786.292 1161.87 L 830.116 1155.78 M 685.26 195.153 L 657.779 170.709 M 619.666 1029.36 L 650.639 1024.29 M 619.666 1029.36 L 631.946 1071.86 M 790.28 1127.21 L 787.082 1095.99 M 790.28 1127.21 L 826.042 1118.61 M 827.355 1116.77 L 814.917 1087.95 M 827.355 1116.77 L 858.877 1097.82 M 702.804 169.131 L 681.578 150.251 M 840.485 1069.03 L 818.624 1046.52 M 840.485 1069.03 L 857.794 1046.51 M 720.054 142.913 L 705.606 130.062 M 311.831 577.295 L 320.198 582.375 M 320.198 582.375 L 332.103 553.337 M 774.134 999.189 L 766.823 968.669 M 291.465 601.173 L 307.915 611.337 M 224.725 618.506 L 247.882 647.081 M 548.038 687.444 L 573.288 633.555 M 619.7 505.995 L 600.923 447.113 M 620.206 415.056 L 586.11 362.588 M 646.309 397.634 L 612.633 345.811 M 671.983 379.584 L 639.555 329.683 M 697.227 360.938 L 666.847 314.188 M 722.057 341.744 L 694.472 299.296 M 644.954 1189.35 L 666.037 1166.1 M 644.954 1189.35 L 689.175 1223.3 M 704.548 1219.54 L 718.102 1191.23 M 725.987 1188.47 L 775.179 1200.42 M 781.943 1195.51 L 783.513 1164.17 M 781.943 1195.51 L 832.499 1192.89 M 746.499 322.058 L 722.389 284.957 M 625.369 882.429 L 600.441 926.489 M 599.354 929.201 L 586.961 978.284 M 602.836 1083.59 L 631.946 1071.86 M 602.836 1083.59 L 626.426 1128.38 M 770.593 301.948 L 750.552 271.108 M 721.823 845.901 L 683.443 867.917 M 617.775 985.149 L 619.666 1029.36 M 794.392 281.491 L 778.913 257.67 M 769.697 865.574 L 734.09 874.788 M 858.293 1044.46 L 867.199 1017.49 M 740.408 945.161 L 722.732 919.228 M 757.726 972.348 L 741.057 945.757 M 320.198 582.375 L 329.723 584.631 M 774.134 999.189 L 776.581 967.901 M 271.284 625.207 L 295.451 640.139 M 575.952 701.789 L 602.174 645.824 M 649.715 496.828 L 630.703 437.212 M 679.495 486.927 L 660.718 428.045 M 709.027 476.306 L 690.947 419.608 M 738.303 464.998 L 721.364 411.88 M 704.548 1219.54 L 756.634 1239.42 M 767.324 453.051 L 751.943 404.821 M 599.947 1145.23 L 626.426 1128.38 M 599.947 1145.23 L 633.618 1189.67 M 796.1 440.528 L 782.658 398.373 M 588.787 1034.96 L 602.836 1083.59 M 840.211 1145.4 L 878.132 1122.6 M 824.654 427.504 L 813.48 392.462 M 862.598 1091.3 L 885.007 1062.14 M 774.134 999.189 L 786.102 970.177 M 308.405 611.459 L 327.221 615.914 M 624.385 1213.05 L 671.587 1249.3 M 780.999 1226.88 L 836.678 1224 M 599.409 864.794 L 571.954 913.319 M 569.655 919.057 L 556.006 973.114 M 573.966 1095.9 L 599.947 1145.23 M 709.055 817.232 L 665.142 842.421 M 586.446 983.298 L 588.61 1033.88 M 765.504 834.471 L 722.669 845.556 M 757.792 936.693 L 748.271 906.789 M 766.714 968.471 L 758.812 938.099 M 794.458 975.276 L 786.102 970.177 M 774.134 999.189 L 794.458 975.276 M 691.618 1248.13 L 747.215 1269.36 M 573.843 1162.65 L 609.783 1210.08 M 558.025 1041.17 L 573.498 1094.74 M 800.837 982.701 L 794.458 975.276 M 774.134 999.189 L 800.837 982.701 M 604.375 1237.23 L 653.395 1274.87 M 573.069 847.732 L 543.763 899.528 M 539.741 909.566 L 525.172 967.267 M 545.372 1108.83 L 573.104 1161.49 M 695.716 788.824 L 647.354 816.565 M 555.087 982.072 L 557.469 1037.77 M 760.769 803.447 L 711.76 816.13 M 776.872 933.551 L 776.302 902.173 M 776.452 967.476 L 778.048 936.133 M 804.618 991.729 L 800.837 982.701 M 774.134 999.189 L 804.618 991.729 M 679.36 1277.02 L 737.098 1299.07 M 548.153 1180.68 L 585.478 1229.94 M 527.407 1048.06 L 543.923 1105.24 M 805.433 1001.48 L 804.618 991.729 M 584.958 1261.89 L 634.589 1300 M 546.336 831.291 L 515.902 885.081 M 509.613 900.777 L 494.483 960.7 M 517.089 1122.43 L 545.889 1177.12 M 681.759 760.715 L 630.137 790.326 M 523.708 981.534 L 526.251 1040.99 M 755.416 772.523 L 701.44 786.491 M 566.152 1287.01 L 615.172 1324.65 M 522.909 1199.32 L 560.699 1249.2 M 496.958 1055.67 L 514.11 1115.04 M 836.741 1003.66 L 835.131 984.388 M 547.961 1312.59 L 595.163 1348.83 M 498.129 1218.58 L 535.454 1267.84 M 519.213 815.502 L 488.4 869.964 M 479.281 892.721 L 463.963 953.391 M 489.144 1136.72 L 518.303 1192.08 M 667.148 732.94 L 613.538 763.691 M 492.325 981.729 L 494.966 1043.48 M 749.386 741.724 L 691.773 756.634 M 473.824 1238.44 L 509.765 1285.87 M 491.711 800.384 L 461.277 854.175 M 448.761 885.412 L 433.631 945.335 M 461.557 1151.68 L 490.358 1206.36 M 466.702 1064 L 484.068 1124.12 M 449.99 1258.85 L 483.661 1303.29 M 463.85 785.938 L 434.545 837.734 M 418.072 878.845 L 403.503 936.546 M 434.342 1167.31 L 462.074 1219.97 M 436.661 1073.08 L 453.813 1132.46 M 460.956 982.685 L 463.63 1045.2 M 742.639 711.075 L 682.806 726.558 M 426.609 1279.79 L 457.181 1320.14 M 435.659 772.147 L 408.204 820.672 M 387.238 872.998 L 373.589 927.055 M 407.5 1183.57 L 433.481 1232.9 M 406.848 1082.89 L 423.364 1140.06 M 429.62 984.411 L 432.261 1046.16 M 407.173 758.977 L 382.244 803.037 M 356.283 867.828 L 343.89 916.911 M 381.02 1200.42 L 404.611 1245.21 M 377.273 1093.39 L 392.746 1146.95 M 398.334 986.896 L 400.878 1046.35 M 735.15 680.598 L 674.571 696.274 M 378.429 746.377 L 356.641 784.887 M 325.231 863.276 L 314.399 906.176 M 354.882 1217.79 L 375.501 1256.94 M 347.935 1104.53 L 361.984 1153.17 M 367.116 990.112 L 369.499 1045.81 M 726.915 650.314 L 667.082 665.797 M 349.47 734.282 L 331.358 766.293 M 294.104 859.267 L 285.1 894.928 M 318.825 1116.26 L 331.104 1158.77 M 335.976 994.012 L 338.139 1044.59 M 717.948 620.238 L 660.335 635.148 M 320.338 722.609 L 306.349 747.334 M 262.923 855.711 L 255.968 883.255 M 289.924 1128.5 L 300.131 1163.83 M 304.919 998.531 L 306.81 1042.74 M 291.076 711.265 L 281.554 728.094 M 273.946 1003.59 L 275.518 1040.34 M 243.05 1009.1 L 244.264 1037.49" />
</svg>
