<?xml version="1.0"?>
<svg width="1146" height="1231" version="1.1" xmlns="http://www.w3.org/2000/svg" >
<defs>
<style type="text/css"><![CDATA[
.m {stroke:rgb(255,0,0);stroke-width:1.538750;}
.v {stroke:rgb(0,0,255);stroke-width:1.538750;}
.b {stroke:rgb(0,0,0);stroke-width:3.077500;fill:white}
.n {stroke:rgb(128,128,128);stroke-width:1.538750}
.t {stroke:rgb(0,128,0);stroke-width:1.538750;}
.c {stroke:rgb(128,128,128);stroke-width:1.538750;stroke-dasharray:11.460000, 11.460000;}
]]></style>
</defs>
<path fill="none" style="stroke:black;stroke-width:3.077500;" d=" M 943.469 780.771 L 966.635 806.021 M 964.316 810.72 L 942.891 783.977 M 963.744 767.54 L 981.328 796.951 M 976.423 806.04 L 961.922 774.993 M 986.945 751.598 L 999.502 783.481 M 990.91 798.949 L 982.984 765.611 M 1024.28 759.806 L 1006.24 752.829 M 999.502 783.481 L 1008.63 787.013 M 1039.38 771.883 L 1024.28 759.806 M 1016.28 793.126 L 1039.38 771.883 M 1008.63 787.013 L 1016.28 793.126 M 1040.27 811.489 L 1032.28 793.879 M 1010.05 819.952 L 1040.27 811.489 M 1032.28 793.879 L 1006 811.037 M 1011.15 829.679 L 1042.51 830.938 M 1040.33 811.724 L 1010.05 819.952 M 1009.2 839.271 L 1038.64 850.13 M 1042.49 831.182 L 1011.15 829.679 M 946.153 987.751 L 924.952 960.831 M 924.952 960.831 L 946.362 987.585 M 946.362 987.585 L 934.469 958.542 M 927.069 992.218 L 915.192 960.075 M 915.192 960.075 L 927.318 992.125 M 907.536 990.588 L 906.14 956.35 M 906.14 956.35 L 907.802 990.577 M 889.456 983.02 L 898.676 950.017 M 898.676 950.017 L 889.712 983.091 M 864.541 953.728 L 874.586 970.25 M 874.586 970.25 L 893.526 941.693 M 893.526 941.693 L 874.809 970.396 M 859.929 934.949 L 864.541 953.728 M 891.822 922.418 L 861.177 915.653 M 895.387 911.308 L 867.621 896.681 M 861.316 914.961 L 892.196 920.561 M 906.185 888.719 L 881.173 869.764 M 871.974 886.772 L 901.529 897.329 M 904.123 826.055 L 933.928 835.884 M 912.902 808.826 L 945.404 819.683 M 945.233 820.18 L 912.902 808.826 M 926.325 793.95 L 954.8 813.013 M 953.975 814.955 L 926.242 794.828 M 929.858 747.893 L 963.744 767.54 M 961.922 774.993 L 929.86 752.491 M 956.713 726.692 L 986.945 751.598 M 982.984 765.611 L 956.133 737.093 M 985.953 701.203 L 1012.99 729.543 M 1006.24 752.829 L 984.396 720.318 M 1042.13 703.367 L 1014.2 698.182 M 1012.99 729.543 L 1032 733.072 M 1067.41 716.325 L 1042.13 703.367 M 1032 733.072 L 1049.21 741.892 M 1087.93 735.971 L 1067.41 716.325 M 1063.18 755.264 L 1087.93 735.971 M 1049.21 741.892 L 1063.18 755.264 M 1073.87 831.957 L 1070.68 803.729 M 1042.51 830.938 L 1073.87 831.957 M 1070.68 803.729 L 1040.33 811.724 M 1038.64 850.13 L 1068.17 860.763 M 1073.83 832.925 L 1042.49 831.182 M 956.765 1017.76 L 927.069 992.218 M 927.318 992.125 L 957.597 1016.97 M 957.597 1016.97 L 946.153 987.751 M 927.918 1024.04 L 907.536 990.588 M 907.802 990.577 L 928.952 1023.55 M 898.541 1021.12 L 889.456 983.02 M 889.712 983.091 L 899.676 1020.97 M 869.495 1009.55 L 873.786 970.619 M 874.809 970.396 L 872.617 1009.5 M 834.999 965.161 L 849.005 989.876 M 873.786 970.619 L 864.253 953.796 M 828.647 937.472 L 834.999 965.161 M 864.253 953.796 L 859.929 934.949 M 861.177 915.653 L 830.48 909.123 M 867.621 896.681 L 839.742 882.268 M 830.48 909.123 L 861.316 914.961 M 881.173 869.764 L 856.015 851.001 M 842.501 875.989 L 871.974 886.772 M 874.395 815.998 L 904.123 826.055 M 887.292 790.687 L 926.325 793.95 M 926.242 794.828 L 887.292 790.687 M 906.311 768.379 L 943.469 780.771 M 942.891 783.977 L 906.422 769.685 M 913.27 714.757 L 956.713 726.692 M 956.133 737.093 L 914.162 720.717 M 944.248 684.161 L 985.953 701.203 M 984.396 720.318 L 945.654 697.321 M 976.151 647.101 L 1016.5 667.141 M 1014.2 698.182 L 978.484 670.721 M 1006.55 598.846 L 1046.39 619.871 M 1016.5 667.141 L 1044.89 666.19 M 1044.89 666.19 L 1011.28 636.195 M 1078.71 588.478 L 1041.93 588.806 M 1046.39 619.871 L 1074.8 619.617 M 1114.27 597.885 L 1078.71 588.478 M 1074.8 619.617 L 1102.26 626.883 M 1146.07 616.357 L 1114.27 597.885 M 1126.83 641.151 L 1146.07 616.357 M 1102.26 626.883 L 1126.83 641.151 M 1068.17 860.763 L 1097.81 871.063 M 1105.14 835.021 L 1073.83 832.925 M 965.037 1049.57 L 927.918 1024.04 M 928.952 1023.55 L 967.197 1047.36 M 967.197 1047.36 L 956.765 1017.76 M 925.988 1056.85 L 898.541 1021.12 M 899.676 1020.97 L 928.724 1055.41 M 883.29 1052.44 L 869.495 1009.55 M 872.617 1009.5 L 889.642 1051.22 M 821.429 1008.45 L 846.178 1035.66 M 846.178 1035.66 L 847.254 990.617 M 849.005 989.876 L 850.97 1034.89 M 804.753 975.667 L 821.429 1008.45 M 847.254 990.617 L 834.374 965.297 M 797.339 939.642 L 804.753 975.667 M 834.374 965.297 L 828.647 937.472 M 799.712 902.939 L 797.339 939.642 M 839.742 882.268 L 811.704 868.169 M 856.015 851.001 L 830.648 832.523 M 813.152 864.874 L 842.501 875.989 M 844.781 805.608 L 874.395 815.998 M 861.479 772.836 L 906.311 768.379 M 906.422 769.685 L 861.479 772.836 M 885.051 743.196 L 929.858 747.893 M 929.86 752.491 L 885.445 744.937 M 893.184 681.959 L 944.248 684.161 M 945.654 697.321 L 895.211 689.09 M 925.384 641.178 L 976.151 647.101 M 978.484 670.721 L 929.386 656.519 M 955.942 591.679 L 1006.55 598.846 M 1011.28 636.195 L 963.346 618.448 M 980.823 528.99 L 1031.59 534.913 M 1041.93 588.806 L 994.45 569.888 M 994.239 449.831 L 1045.3 452.032 M 1031.59 534.913 L 1066.72 524.007 M 1066.72 524.007 L 1018.78 506.26 M 1071.63 408.222 L 1030.44 424.391 M 1045.3 452.032 L 1079.54 438.592 M 1115.47 402.24 L 1071.63 408.222 M 1115.98 433.619 L 1115.47 402.24 M 1079.54 438.592 L 1115.98 433.619 M 1127.61 880.931 L 1136.42 837.572 M 1097.81 871.063 L 1127.61 880.931 M 1136.42 837.572 L 1105.14 835.021 M 968.994 1084.47 L 925.988 1056.85 M 928.724 1055.41 L 973.671 1079.74 M 973.671 1079.74 L 965.037 1049.57 M 871.697 1081.61 L 914.467 1092.94 M 914.467 1092.94 L 883.29 1052.44 M 889.642 1051.22 L 924.906 1088.21 M 813.603 1061.15 L 847.142 1090.01 M 847.142 1090.01 L 836.758 1039.96 M 850.97 1034.89 L 871.697 1081.61 M 787.831 1025.18 L 813.603 1061.15 M 836.758 1039.96 L 815.335 1010.06 M 771.284 984.144 L 787.831 1025.18 M 815.335 1010.06 L 801.58 975.953 M 764.899 940.361 L 771.284 984.144 M 801.58 975.953 L 796.272 939.558 M 769.036 896.308 L 764.899 940.361 M 796.272 939.558 L 799.712 902.939 M 811.704 868.169 L 783.463 854.48 M 830.648 832.523 L 805.016 814.415 M 783.967 853.334 L 813.152 864.874 M 815.322 794.787 L 844.781 805.608 M 835.409 755.363 L 885.051 743.196 M 885.445 744.937 L 835.409 755.363 M 862.309 718.674 L 913.27 714.757 M 914.162 720.717 L 863.051 720.814 M 869.33 650.277 L 925.384 641.178 M 929.386 656.519 L 872.624 658.248 M 899.681 599.4 L 955.942 591.679 M 963.346 618.448 L 906.61 616.029 M 924.769 538.089 L 980.823 528.99 M 994.45 569.888 L 937.79 566.077 M 938.999 462.997 L 994.239 449.831 M 1018.78 506.26 L 962.049 503.841 M 935.138 373.136 L 988.409 353.462 M 1030.44 424.391 L 973.679 426.119 M 904.835 271.308 L 954.188 243.218 M 988.409 353.462 L 1021.31 323.878 M 1021.31 323.878 L 965.163 332.378 M 959.443 186.674 L 927.817 226.203 M 954.188 243.218 L 981.83 208.668 M 998.406 154.354 L 959.443 186.674 M 1015.88 180.419 L 998.406 154.354 M 981.83 208.668 L 1015.88 180.419 M 844.528 1154.44 L 889.474 1177.73 M 889.474 1177.73 L 861.724 1128.19 M 924.906 1088.21 L 974.813 1115.31 M 974.813 1115.31 L 968.994 1084.47 M 805.218 1122.54 L 844.528 1154.44 M 861.724 1128.19 L 827.366 1100.31 M 773.167 1083.36 L 805.218 1122.54 M 827.366 1100.31 L 799.352 1066.06 M 749.698 1038.5 L 773.167 1083.36 M 799.352 1066.06 L 778.84 1026.85 M 735.781 989.829 L 749.698 1038.5 M 778.84 1026.85 L 766.676 984.311 M 731.99 939.348 L 735.781 989.829 M 766.676 984.311 L 763.363 940.189 M 738.482 889.143 L 731.99 939.348 M 763.363 940.189 L 769.036 896.308 M 783.463 854.48 L 754.988 841.286 M 805.016 814.415 L 779.07 796.758 M 754.988 841.286 L 783.967 853.334 M 786.056 783.454 L 815.322 794.787 M 809.038 738.348 L 862.309 718.674 M 863.051 720.814 L 809.038 738.348 M 837.944 695.126 L 893.184 681.959 M 895.211 689.09 L 839.063 697.59 M 841.73 620.59 L 899.681 599.4 M 906.61 616.029 L 846.28 628.979 M 867.356 560.696 L 924.769 538.089 M 937.79 566.077 L 877.161 577.542 M 883.389 489.734 L 938.999 462.997 M 962.049 503.841 L 901.719 516.791 M 883.122 406.327 L 935.138 373.136 M 973.679 426.119 L 914.456 443.438 M 858.921 312.531 L 904.835 271.308 M 965.163 332.378 L 908.433 356.651 M 803.603 214.915 L 840.236 165.263 M 927.817 226.203 L 875.801 259.394 M 729.694 130.497 L 755.534 74.4639 M 840.236 165.263 L 853.626 116.442 M 853.626 116.442 L 809.393 159.463 M 622.471 60.5508 L 634.344 0 M 634.344 0 L 603.985 7.95108 M 755.534 74.4639 L 758.78 23.9449 M 758.78 23.9449 L 724.156 75.0188 M 784.732 1193.7 L 825.247 1232 M 844.871 1207.51 L 808.084 1172.73 M 825.247 1232 L 844.871 1207.51 M 750.999 1149.31 L 784.732 1193.7 M 808.084 1172.73 L 777.455 1132.43 M 724.949 1100.02 L 750.999 1149.31 M 777.455 1132.43 L 753.802 1087.67 M 707.278 1047.14 L 724.949 1100.02 M 753.802 1087.67 L 737.757 1039.66 M 698.459 992.086 L 707.278 1047.14 M 737.757 1039.66 L 729.75 989.672 M 698.728 936.333 L 698.459 992.086 M 729.75 989.672 L 729.994 939.049 M 708.076 881.369 L 698.728 936.333 M 729.994 939.049 L 738.482 889.143 M 726.255 828.662 L 708.076 881.369 M 779.07 796.758 L 752.778 779.622 M 757.022 771.539 L 786.056 783.454 M 782.334 721.862 L 837.944 695.126 M 839.063 697.59 L 782.334 721.862 M 811.917 672.884 L 869.33 650.277 M 872.624 658.248 L 813.401 675.567 M 810.712 593.778 L 867.356 560.696 M 877.161 577.542 L 816.348 602.133 M 829.311 526.863 L 883.389 489.734 M 901.719 516.791 L 841.528 542.867 M 833.869 449.653 L 883.122 406.327 M 914.456 443.438 L 856.329 473.838 M 817.386 363.302 L 858.921 312.531 M 908.433 356.651 L 854.356 393.779 M 773.187 273.034 L 803.603 214.915 M 875.801 259.394 L 828.495 304.837 M 711.655 193.564 L 729.694 130.497 M 809.393 159.463 L 772.249 213.53 M 619.84 126.095 L 622.471 60.5508 M 724.156 75.0188 L 698.708 135.478 M 514.683 82.2231 L 501.757 17.9128 M 501.757 17.9128 L 476.516 36.5632 M 603.985 7.95108 L 593.539 72.7106 M 0 545.199 L 30.9491 550.404 M 5.93833 489.762 L 0 545.199 M 37.2877 491.231 L 5.93833 489.762 M 671.09 1164.03 L 691.095 1220.08 M 719.968 1207.78 L 701.227 1155.27 M 691.095 1220.08 L 719.968 1207.78 M 657.928 1105.99 L 671.09 1164.03 M 701.227 1155.27 L 688.895 1100.89 M 651.796 1046.8 L 657.928 1105.99 M 688.895 1100.89 L 683.151 1045.44 M 652.783 987.293 L 651.796 1046.8 M 683.151 1045.44 L 684.075 989.691 M 660.874 928.335 L 652.783 987.293 M 684.075 989.691 L 691.655 934.455 M 675.954 870.766 L 660.874 928.335 M 691.655 934.455 L 705.783 880.521 M 697.806 815.412 L 675.954 870.766 M 705.783 880.521 L 726.255 828.662 M 752.778 779.622 L 726.116 763.066 M 728.256 758.991 L 757.022 771.539 M 755.274 705.966 L 811.917 672.884 M 813.401 675.567 L 755.274 705.966 M 784.292 652.273 L 841.73 620.59 M 846.28 628.979 L 786.089 655.055 M 776.882 570.614 L 829.311 526.863 M 841.528 542.867 L 783.288 578.519 M 787.045 499.356 L 833.869 449.653 M 856.329 473.838 L 800.846 513.645 M 779.286 419.971 L 817.386 363.302 M 854.356 393.779 L 804.029 439.932 M 747.329 336.234 L 773.187 273.034 M 828.495 304.837 L 786.36 358.574 M 699.105 260.687 L 711.655 193.564 M 772.249 213.53 L 741.847 274.675 M 623.501 194.282 L 619.84 126.095 M 698.708 135.478 L 681.293 201.506 M 534.348 147.616 L 514.683 82.2231 M 593.539 72.7106 L 592.213 140.983 M 412.204 129.899 L 374.283 73.1106 M 374.283 73.1106 L 358.11 100.007 M 476.516 36.5632 L 491.355 103.217 M 30.9491 550.404 L 62.0115 554.884 M 68.5942 493.432 L 37.2877 491.231 M 582.179 1158.89 L 583.143 1220.68 M 614.484 1219.05 L 613.556 1159.54 M 583.143 1220.68 L 614.484 1219.05 M 585.728 1097.18 L 582.179 1158.89 M 613.556 1159.54 L 616.973 1100.13 M 593.772 1035.91 L 585.728 1097.18 M 616.973 1100.13 L 624.719 1041.13 M 606.266 975.38 L 593.772 1035.91 M 624.719 1041.13 L 636.75 982.843 M 623.145 915.926 L 606.266 975.38 M 636.75 982.843 L 653.003 925.594 M 644.319 857.863 L 623.145 915.926 M 653.003 925.594 L 673.391 869.684 M 669.674 801.5 L 644.319 857.863 M 673.391 869.684 L 697.806 815.412 M 726.116 763.066 L 699.075 747.138 M 699.791 745.774 L 728.256 758.991 M 727.85 690.706 L 784.292 652.273 M 786.089 655.055 L 727.85 690.706 M 755.23 633.586 L 810.712 593.778 M 816.348 602.133 L 757.251 636.345 M 741.053 551.672 L 787.045 499.356 M 800.846 513.645 L 747.807 558.801 M 742.432 479.08 L 779.286 419.971 M 804.029 439.932 L 756.766 491.103 M 723.184 401.574 L 747.329 336.234 M 786.36 358.574 L 748.067 416.761 M 688.667 329.558 L 699.105 260.687 M 741.847 274.675 L 716.105 339.402 M 629.626 263.67 L 623.501 194.282 M 681.293 201.506 L 669.167 270.1 M 556.691 213.593 L 534.348 147.616 M 592.213 140.983 L 596.633 210.501 M 452.857 186.463 L 412.204 129.899 M 491.355 103.217 L 512.072 169.723 M 355.546 185.446 L 301.384 141.643 M 301.384 141.643 L 294.382 172.235 M 358.11 100.007 L 397.363 157.552 M 62.0115 554.884 L 93.1731 558.609 M 99.8379 496.391 L 68.5942 493.432 M 492.41 1130.95 L 472.491 1190.27 M 502.363 1199.9 L 522.036 1141.31 M 472.491 1190.27 L 502.363 1199.9 M 513.778 1072.14 L 492.41 1130.95 M 522.036 1141.31 L 543.141 1083.22 M 536.583 1013.87 L 513.778 1072.14 M 543.141 1083.22 L 565.666 1025.67 M 560.812 956.178 L 536.583 1013.87 M 565.666 1025.67 L 589.596 968.684 M 586.449 899.098 L 560.812 956.178 M 589.596 968.684 L 614.918 912.306 M 613.48 842.664 L 586.449 899.098 M 614.918 912.306 L 641.616 856.567 M 641.888 786.91 L 613.48 842.664 M 641.616 856.567 L 669.674 801.5 M 699.075 747.138 L 671.656 731.87 M 671.656 731.87 L 699.791 745.774 M 700.063 676.116 L 755.23 633.586 M 757.251 636.345 L 700.063 676.116 M 724.967 617.058 L 776.882 570.614 M 783.288 578.519 L 727.094 619.682 M 756.766 491.103 L 710.774 543.418 M 704.138 537.268 L 742.432 479.08 M 748.067 416.761 L 711.213 475.871 M 697.442 466.301 L 723.184 401.574 M 716.105 339.402 L 691.96 404.741 M 676.54 398.152 L 688.667 329.558 M 669.167 270.1 L 658.728 338.971 M 634.046 333.187 L 629.626 263.67 M 596.633 210.501 L 602.758 279.889 M 577.407 280.099 L 556.691 213.593 M 512.072 169.723 L 534.415 235.7 M 492.109 244.008 L 452.857 186.463 M 397.363 157.552 L 438.016 214.116 M 408.615 230.566 L 355.546 185.446 M 294.382 172.235 L 348.544 216.039 M 312.12 247.948 L 247.747 221.334 M 247.747 221.334 L 250.492 252.597 M 131 500.117 L 99.8379 496.391 M 93.1731 558.609 L 124.417 561.569 M 397.043 1149.47 L 435.784 1100.33 M 372.638 1129.74 L 397.043 1149.47 M 410.901 1081.2 L 372.638 1129.74 M 435.784 1100.33 L 473.306 1050.25 M 447.962 1031.74 L 410.901 1081.2 M 473.306 1050.25 L 509.588 999.271 M 483.798 981.389 L 447.962 1031.74 M 509.588 999.271 L 544.609 947.415 M 518.387 930.171 L 483.798 981.389 M 544.609 947.415 L 578.345 894.715 M 551.708 878.12 L 518.387 930.171 M 578.345 894.715 L 610.778 841.202 M 583.742 825.266 L 551.708 878.12 M 610.778 841.202 L 641.888 786.91 M 614.468 771.642 L 583.742 825.266 M 643.87 717.28 L 614.468 771.642 M 727.094 619.682 L 671.928 662.213 M 671.928 662.213 L 724.967 617.058 M 747.807 558.801 L 695.892 605.245 M 693.79 602.842 L 741.053 551.672 M 711.213 475.871 L 673.112 532.539 M 667.04 527.445 L 697.442 466.301 M 691.96 404.741 L 666.102 467.941 M 659.125 464.18 L 676.54 398.152 M 658.728 338.971 L 646.178 406.094 M 632.72 401.46 L 634.046 333.187 M 602.758 279.889 L 606.419 348.076 M 592.247 346.753 L 577.407 280.099 M 534.415 235.7 L 554.079 301.093 M 525.784 303.413 L 492.109 244.008 M 438.016 214.116 L 475.937 270.904 M 456.798 278.954 L 408.615 230.566 M 348.544 216.039 L 400.129 260.781 M 372.848 279.175 L 312.12 247.948 M 250.492 252.597 L 313.337 279.308 M 294.272 303.303 L 226.965 291.781 M 226.965 291.781 L 237.555 321.324 M 162.062 504.597 L 131 500.117 M 124.417 561.569 L 155.723 563.77 M 125.736 587.986 L 138.406 648.477 M 156.667 582.678 L 125.736 587.986 M 138.406 648.477 L 168.867 640.925 M 347.927 1026.5 L 399.345 992.213 M 331.479 999.776 L 347.927 1026.5 M 380.989 966.757 L 331.479 999.776 M 399.345 992.213 L 448.122 954.26 M 427.958 930.211 L 380.989 966.757 M 448.122 954.26 L 493.999 912.848 M 472.133 890.335 L 427.958 930.211 M 493.999 912.848 L 536.731 868.198 M 513.281 847.341 L 472.133 890.335 M 536.731 868.198 L 576.091 820.548 M 551.18 801.459 L 513.281 847.341 M 576.091 820.548 L 611.867 770.153 M 585.63 752.932 L 551.18 801.459 M 611.867 770.153 L 643.87 717.28 M 616.445 702.021 L 585.63 752.932 M 695.892 605.245 L 643.463 648.996 M 643.463 648.996 L 693.79 602.842 M 710.774 543.418 L 663.95 593.122 M 662.003 591.004 L 704.138 537.268 M 666.102 467.941 L 635.687 526.06 M 633.678 524.639 L 659.125 464.18 M 646.178 406.094 L 628.139 469.161 M 622.274 466.22 L 632.72 401.46 M 606.419 348.076 L 603.788 413.62 M 597.394 412.147 L 592.247 346.753 M 554.079 301.093 L 567.006 365.403 M 549.823 364.446 L 525.784 303.413 M 475.937 270.904 L 507.098 328.627 M 496.117 331.46 L 456.798 278.954 M 400.129 260.781 L 445.442 308.212 M 426.408 317.046 L 372.848 279.175 M 313.337 279.308 L 371.039 310.507 M 356.741 323.316 L 294.272 303.303 M 237.555 321.324 L 301.968 333.728 M 292.183 350.245 L 226.587 349.941 M 226.587 349.941 L 243.076 376.644 M 193.011 509.802 L 162.062 504.597 M 155.723 563.77 L 187.073 565.238 M 187.714 578.095 L 156.667 582.678 M 168.867 640.925 L 199.144 632.664 M 287.136 937.295 L 344.632 921.941 M 280.868 906.543 L 287.136 937.295 M 334.735 892.159 L 280.868 906.543 M 344.632 921.941 L 399.882 899.825 M 386.495 871.44 L 334.735 892.159 M 399.882 899.825 L 452.092 871.265 M 435.409 844.683 L 386.495 871.44 M 452.092 871.265 L 500.514 836.67 M 480.774 812.272 L 435.409 844.683 M 500.514 836.67 L 544.455 796.535 M 521.941 774.671 L 480.774 812.272 M 544.455 796.535 L 583.284 751.437 M 558.318 732.42 L 521.941 774.671 M 583.284 751.437 L 616.445 702.021 M 589.385 686.124 L 558.318 732.42 M 663.95 593.122 L 614.697 636.447 M 614.697 636.447 L 662.003 591.004 M 673.112 532.539 L 631.577 583.31 M 629.896 581.512 L 667.04 527.445 M 628.139 469.161 L 602.299 525.194 M 600.695 524.027 L 622.274 466.22 M 603.788 413.62 L 591.915 474.171 M 590.081 473.416 L 597.394 412.147 M 567.006 365.403 L 569.772 427.045 M 560.739 425.177 L 549.823 364.446 M 507.098 328.627 L 527.762 386.768 M 522.7 387.144 L 496.117 331.46 M 445.442 308.212 L 480.742 358.82 M 468.827 361.857 L 426.408 317.046 M 371.039 310.507 L 420.192 347.808 M 410.67 353.299 L 356.741 323.316 M 301.968 333.728 L 360.062 354.524 M 352.633 362.624 L 292.183 350.245 M 243.076 376.644 L 304.734 379.009 M 299.034 390.026 L 237.711 396.872 M 237.711 396.872 L 258.513 420.371 M 223.838 515.684 L 193.011 509.802 M 187.073 565.238 L 218.446 566.019 M 218.854 574.193 L 187.714 578.095 M 199.144 632.664 L 229.233 623.741 M 255.684 845.238 L 311.379 847.804 M 259.686 814.111 L 255.684 845.238 M 310.256 816.441 L 259.686 814.111 M 311.379 847.804 L 366.747 841.262 M 360.53 810.501 L 310.256 816.441 M 366.747 841.262 L 420.31 825.786 M 409.164 796.449 L 360.53 810.501 M 420.31 825.786 L 470.636 801.79 M 454.858 774.661 L 409.164 796.449 M 470.636 801.79 L 516.379 769.915 M 496.392 745.719 L 454.858 774.661 M 516.379 769.915 L 556.318 731.014 M 532.656 710.397 L 496.392 745.719 M 556.318 731.014 L 589.385 686.124 M 562.681 669.639 L 532.656 710.397 M 631.577 583.31 L 585.663 624.533 M 585.663 624.533 L 629.896 581.512 M 635.687 526.06 L 599.053 575.713 M 599.053 575.713 L 633.678 524.639 M 591.915 474.171 L 569.394 526.302 M 569.394 526.302 L 590.081 473.416 M 569.772 427.045 L 560.203 483.021 M 556.415 481.8 L 560.739 425.177 M 527.762 386.768 L 534.973 443.096 M 533.5 442.895 L 522.7 387.144 M 480.742 358.82 L 502.589 411.237 M 496.247 411.585 L 468.827 361.857 M 420.192 347.808 L 457.099 390.967 M 451.775 392.482 L 410.67 353.299 M 360.062 354.524 L 408.238 384.589 M 403.616 387.634 L 352.633 362.624 M 304.734 379.009 L 359.721 393.197 M 355.243 398.112 L 299.034 390.026 M 258.513 420.371 L 315.196 416.928 M 312.45 422.983 L 256.484 432.608 M 256.484 432.608 L 280.149 453.221 M 254.542 522.179 L 223.838 515.684 M 218.446 566.019 L 249.83 566.174 M 250.066 570.913 L 218.854 574.193 M 229.233 623.741 L 259.137 614.22 M 250.152 761.333 L 298.121 777.509 M 263.15 732.767 L 250.152 761.333 M 305.076 746.906 L 263.15 732.767 M 298.121 777.509 L 348.37 783.655 M 348.995 752.277 L 305.076 746.906 M 348.37 783.655 L 398.824 779.516 M 393.094 748.66 L 348.995 752.277 M 398.824 779.516 L 447.4 765.264 M 435.55 736.203 L 393.094 748.66 M 447.4 765.264 L 492.092 741.487 M 474.613 715.422 L 435.55 736.203 M 492.092 741.487 L 531.055 709.168 M 508.668 687.173 L 474.613 715.422 M 531.055 709.168 L 562.681 669.639 M 602.299 525.194 L 568.101 570.529 M 568.101 570.529 L 600.695 524.027 M 560.203 483.021 L 538.137 529.123 M 537.067 529.107 L 556.415 481.8 M 534.973 443.096 L 527.348 493.635 M 527.348 493.635 L 533.5 442.895 M 502.589 411.237 L 508.597 461.994 M 505.996 461.758 L 496.247 411.585 M 457.099 390.967 L 478.424 437.416 M 476.159 437.401 L 451.775 392.482 M 408.238 384.589 L 442.543 422.477 M 440.378 423.143 L 403.616 387.634 M 359.721 393.197 L 403.83 419.017 M 401.156 420.567 L 355.243 398.112 M 315.196 416.928 L 365.115 427.902 M 363.049 430.201 L 312.45 422.983 M 280.149 453.221 L 331.021 448.282 M 329.763 451.106 L 279.402 459.828 M 279.402 459.828 L 304.864 478.176 M 285.128 529.21 L 254.542 522.179 M 249.83 566.174 L 281.211 565.781 M 281.331 568.179 L 250.066 570.913 M 259.137 614.22 L 288.871 604.178 M 260.822 618.656 L 282.794 657.061 M 289.723 606.422 L 260.822 618.656 M 282.794 657.061 L 307.988 638.347 M 303.213 724.686 L 345.53 737.608 M 315.883 695.974 L 303.213 724.686 M 351.06 706.715 L 315.883 695.974 M 345.53 737.608 L 389.703 740.167 M 387.778 708.842 L 351.06 706.715 M 389.703 740.167 L 433.229 732.22 M 423.96 702.236 L 387.778 708.842 M 433.229 732.22 L 473.647 714.215 M 457.557 687.27 L 423.96 702.236 M 473.647 714.215 L 508.668 687.173 M 536.31 652.624 L 486.669 664.791 M 486.274 663.05 L 536.31 652.624 M 556.397 613.2 L 510.24 635.151 M 509.502 633.525 L 556.397 613.2 M 538.137 529.123 L 537.062 565.887 M 498.457 505.891 L 505.964 533.289 M 508.597 461.994 L 498.457 505.891 M 497.842 506.067 L 505.996 461.758 M 478.424 437.416 L 482.274 482.305 M 481.705 482.111 L 476.159 437.401 M 442.543 422.477 L 459.712 464.13 M 459.111 464.116 L 440.378 423.143 M 403.83 419.017 L 432.73 453.58 M 431.602 453.776 L 401.156 420.567 M 365.115 427.902 L 403.257 451.88 M 402.245 452.414 L 363.049 430.201 M 331.021 448.282 L 374.695 459.343 M 373.896 460.164 L 329.763 451.106 M 304.864 478.176 L 349.821 475.243 M 349.314 476.27 L 304.537 481.249 M 304.537 481.249 L 331.056 498.033 M 315.609 536.685 L 285.128 529.21 M 281.211 565.781 L 312.583 564.932 M 312.631 565.9 L 281.331 568.179 M 288.871 604.178 L 318.455 593.704 M 318.799 594.611 L 289.723 606.422 M 307.988 638.347 L 332.906 619.268 M 316.949 685.672 L 350.641 700.424 M 333.259 658.86 L 316.949 685.672 M 359.281 670.254 L 333.259 658.86 M 350.641 700.424 L 387.034 705.744 M 387.391 674.362 L 359.281 670.254 M 387.034 705.744 L 423.539 701.252 M 415.586 670.893 L 387.391 674.362 M 423.539 701.252 L 457.557 687.27 M 486.669 664.791 L 441.861 660.093 M 441.859 655.496 L 486.274 663.05 M 510.24 635.151 L 465.408 639.607 M 464.476 635.105 L 509.502 633.525 M 527.334 601.357 L 484.328 614.784 M 483.956 613.528 L 527.334 601.357 M 537.062 565.887 L 537.067 529.107 M 505.964 533.289 L 497.842 506.067 M 482.274 482.305 L 469.381 519.291 M 469.381 519.291 L 481.705 482.111 M 459.712 464.13 L 458.537 503.282 M 458.537 503.282 L 459.111 464.116 M 432.73 453.58 L 443.381 491.273 M 443.122 491.213 L 431.602 453.776 M 403.257 451.88 L 425.004 484.459 M 424.738 484.481 L 402.245 452.414 M 374.695 459.343 L 405.42 483.637 M 405.175 483.741 L 373.896 460.164 M 349.821 475.243 L 386.536 488.889 M 386.335 489.063 L 349.314 476.27 M 331.056 498.033 L 370.189 499.703 M 370.051 499.931 L 330.889 499.166 M 330.889 499.166 L 357.969 515.028 M 346.003 544.503 L 315.609 536.685 M 312.583 564.932 L 343.944 563.729 M 343.956 563.973 L 312.631 565.9 M 318.455 593.704 L 347.92 582.899 M 348.007 583.127 L 318.799 594.611 M 332.906 619.268 L 357.609 599.911 M 334.229 655.233 L 359.424 668.357 M 352.598 629.787 L 334.229 655.233 M 369.748 638.72 L 352.598 629.787 M 359.424 668.357 L 387.32 673.727 M 388.735 642.375 L 369.748 638.72 M 387.32 673.727 L 415.586 670.893 M 407.975 640.446 L 388.735 642.375 M 441.861 660.093 L 407.975 640.446 M 409.798 632.994 L 441.859 655.496 M 465.408 639.607 L 428.251 627.216 M 428.529 619.548 L 464.476 635.105 M 484.328 614.784 L 445.433 610.159 M 445.351 606.903 L 483.956 613.528 M 498.446 589.093 L 459.558 593.787 M 459.463 592.91 L 498.446 589.093 M 505.96 561.697 L 474.812 557.857 M 474.906 557.157 L 505.96 561.697 M 443.82 542.114 L 474.909 537.821 M 443.381 491.273 L 435.532 524.629 M 435.532 524.629 L 443.122 491.213 M 425.004 484.459 L 427.813 518.61 M 427.813 518.61 L 424.738 484.481 M 405.42 483.637 L 418.615 515.262 M 418.615 515.262 L 405.175 483.741 M 386.536 488.889 L 408.832 514.91 M 408.832 514.91 L 386.335 489.063 M 370.189 499.703 L 399.417 517.59 M 399.417 517.59 L 370.051 499.931 M 357.969 515.028 L 391.286 523.04 M 391.286 523.04 L 357.908 515.287 M 357.908 515.287 L 385.229 530.73 M 376.337 552.553 L 346.003 544.503 M 343.944 563.729 L 375.294 562.286 M 375.294 562.286 L 343.956 563.973 M 347.92 582.899 L 377.301 571.867 M 377.301 571.867 L 348.007 583.127 M 357.609 599.911 L 382.162 580.364 M 357.761 600.101 L 372.067 613.11 M 382.162 580.364 L 357.761 600.101 M 372.067 613.11 L 389.404 586.949 M 372.031 627.106 L 390.461 632.956 M 385.966 598.985 L 372.031 627.106 M 395.296 601.947 L 385.966 598.985 M 390.461 632.956 L 409.798 632.994 M 405.084 601.966 L 395.296 601.947 M 428.251 627.216 L 405.084 601.966 M 408.05 592.074 L 428.529 619.548 M 445.433 610.159 L 417.641 590.114 M 418.962 585.043 L 445.351 606.903 M 459.558 593.787 L 427.818 580.873 M 428.234 578.805 L 459.463 592.91 M 469.697 576.505 L 435.672 572.442 M 435.738 571.921 L 469.697 576.505 M 474.812 557.857 L 443.635 554.256 M 443.888 552.379 L 474.906 557.157 M 474.909 537.821 L 443.89 542.59 M 966.822 842.003 L 964.316 810.72 M 954.8 813.013 L 966.822 842.003 M 971.468 837.03 L 976.423 806.04 M 966.635 806.021 L 971.468 837.03 M 981.328 796.951 L 979.793 828.298 M 999.412 803.801 L 990.91 798.949 M 1006 811.037 L 999.412 803.801 M 979.793 828.298 L 1009.2 839.271 M 934.469 958.542 L 922.463 929.546 M 922.463 929.546 L 891.191 932.187 M 922.442 929.303 L 891.822 922.418 M 891.191 932.187 L 922.442 929.303 M 923.097 926.042 L 895.387 911.308 M 892.196 920.561 L 923.097 926.042 M 931.124 907.771 L 906.185 888.719 M 901.529 897.329 L 931.124 907.771 M 963.771 845.596 L 938.372 827.162 M 933.928 835.884 L 963.771 845.596 M 963.914 845.398 L 945.233 820.18 M 938.372 827.162 L 963.914 845.398 M 945.404 819.683 L 964.662 844.463 M 964.662 844.463 L 953.975 814.955 M 441.022 532.734 L 412.715 546.286 M 412.715 546.286 L 443.82 542.114 M 412.611 546.066 L 441.022 532.734 M 385.229 530.73 L 412.611 546.066 M 406.639 560.722 L 376.337 552.553 M 389.404 586.949 L 398.323 590.984 M 398.323 590.984 L 408.05 592.074 M 417.641 590.114 L 406.639 560.722 M 427.818 580.873 L 410.184 554.912 M 410.184 554.912 L 418.962 585.043 M 435.672 572.442 L 411.802 552.067 M 411.802 552.067 L 428.234 578.805 M 441.046 563.696 L 412.346 550.999 M 412.346 550.999 L 435.738 571.921 M 443.635 554.256 L 412.445 550.776 M 412.445 550.776 L 441.046 563.696 M 412.889 547.48 L 443.888 552.379 M 443.89 542.59 L 412.889 547.48" />
<path fill="none" class="c" d=" M 643.463 648.996 L 614.697 636.447 M 614.697 636.447 L 589.385 686.124 M 643.463 648.996 L 663.95 593.122 M 562.681 669.639 L 589.385 686.124 M 614.697 636.447 L 585.663 624.533 M 585.663 624.533 L 562.681 669.639 M 614.697 636.447 L 631.577 583.31 M 536.31 652.624 L 562.681 669.639 M 585.663 624.533 L 556.397 613.2 M 556.397 613.2 L 536.31 652.624 M 585.663 624.533 L 599.053 575.713 M 599.053 575.713 L 568.101 570.529 M 568.101 570.529 L 556.397 613.2 M 599.053 575.713 L 602.299 525.194 M 510.24 635.151 L 536.31 652.624 M 527.334 601.357 L 556.397 613.2 M 568.101 570.529 L 537.062 565.887 M 537.062 565.887 L 527.334 601.357 M 568.101 570.529 L 569.394 526.302 M 569.394 526.302 L 538.137 529.123 M 498.446 589.093 L 527.334 601.357 M 537.062 565.887 L 505.96 561.697 M 505.96 561.697 L 498.446 589.093 M 537.067 529.107 L 505.964 533.289 M 505.964 533.289 L 505.96 561.697 M 469.697 576.505 L 498.446 589.093 M 474.812 557.857 L 469.697 576.505 M 505.964 533.289 L 474.909 537.821 M 474.909 537.821 L 474.906 557.157 M 441.046 563.696 L 469.697 576.505 M 443.635 554.256 L 441.046 563.696 M 443.89 542.59 L 443.888 552.379 M 616.445 702.021 L 643.463 648.996 M 693.79 602.842 L 663.95 593.122 M 693.79 602.842 L 710.774 543.418 M 589.385 686.124 L 616.445 702.021 M 662.003 591.004 L 631.577 583.31 M 662.003 591.004 L 673.112 532.539 M 629.896 581.512 L 599.053 575.713 M 629.896 581.512 L 635.687 526.06 M 633.678 524.639 L 602.299 525.194 M 536.31 652.624 L 508.668 687.173 M 600.695 524.027 L 569.394 526.302 M 569.394 526.302 L 560.203 483.021 M 486.669 664.791 L 508.668 687.173 M 510.24 635.151 L 486.274 663.05 M 527.334 601.357 L 509.502 633.525 M 537.067 529.107 L 527.348 493.635 M 527.348 493.635 L 498.457 505.891 M 527.348 493.635 L 508.597 461.994 M 465.408 639.607 L 486.274 663.05 M 484.328 614.784 L 509.502 633.525 M 498.446 589.093 L 483.956 613.528 M 497.842 506.067 L 469.381 519.291 M 469.381 519.291 L 474.909 537.821 M 497.842 506.067 L 482.274 482.305 M 459.558 593.787 L 483.956 613.528 M 469.697 576.505 L 459.463 592.91 M 469.381 519.291 L 441.022 532.734 M 441.022 532.734 L 443.82 542.114 M 469.381 519.291 L 458.537 503.282 M 458.537 503.282 L 435.532 524.629 M 435.532 524.629 L 441.022 532.734 M 458.537 503.282 L 443.381 491.273 M 435.672 572.442 L 459.463 592.91 M 441.046 563.696 L 435.738 571.921 M 435.532 524.629 L 412.611 546.066 M 435.532 524.629 L 427.813 518.61 M 427.813 518.61 L 412.611 546.066 M 427.813 518.61 L 418.615 515.262 M 418.615 515.262 L 412.611 546.066 M 418.615 515.262 L 408.832 514.91 M 408.832 514.91 L 412.611 546.066 M 408.832 514.91 L 399.417 517.59 M 399.417 517.59 L 412.611 546.066 M 399.417 517.59 L 391.286 523.04 M 391.286 523.04 L 412.611 546.066 M 391.286 523.04 L 385.229 530.73 M 741.053 551.672 L 710.774 543.418 M 671.928 662.213 L 643.463 648.996 M 671.928 662.213 L 695.892 605.245 M 704.138 537.268 L 673.112 532.539 M 667.04 527.445 L 635.687 526.06 M 633.678 524.639 L 628.139 469.161 M 532.656 710.397 L 556.318 731.014 M 600.695 524.027 L 591.915 474.171 M 590.081 473.416 L 560.203 483.021 M 590.081 473.416 L 569.772 427.045 M 508.668 687.173 L 531.055 709.168 M 556.415 481.8 L 527.348 493.635 M 556.415 481.8 L 534.973 443.096 M 533.5 442.895 L 508.597 461.994 M 533.5 442.895 L 502.589 411.237 M 486.669 664.791 L 457.557 687.27 M 505.996 461.758 L 482.274 482.305 M 505.996 461.758 L 478.424 437.416 M 441.861 660.093 L 457.557 687.27 M 465.408 639.607 L 441.859 655.496 M 484.328 614.784 L 464.476 635.105 M 481.705 482.111 L 458.537 503.282 M 481.705 482.111 L 459.712 464.13 M 459.111 464.116 L 443.381 491.273 M 459.111 464.116 L 432.73 453.58 M 428.251 627.216 L 441.859 655.496 M 445.433 610.159 L 464.476 635.105 M 459.558 593.787 L 445.351 606.903 M 443.122 491.213 L 427.813 518.61 M 443.122 491.213 L 425.004 484.459 M 424.738 484.481 L 418.615 515.262 M 424.738 484.481 L 405.42 483.637 M 405.175 483.741 L 408.832 514.91 M 405.175 483.741 L 386.536 488.889 M 386.335 489.063 L 399.417 517.59 M 386.335 489.063 L 370.189 499.703 M 370.051 499.931 L 391.286 523.04 M 370.051 499.931 L 357.969 515.028 M 427.818 580.873 L 445.351 606.903 M 435.672 572.442 L 428.234 578.805 M 741.053 551.672 L 756.766 491.103 M 643.87 717.28 L 671.928 662.213 M 724.967 617.058 L 695.892 605.245 M 724.967 617.058 L 747.807 558.801 M 704.138 537.268 L 711.213 475.871 M 616.445 702.021 L 643.87 717.28 M 667.04 527.445 L 666.102 467.941 M 659.125 464.18 L 628.139 469.161 M 659.125 464.18 L 646.178 406.094 M 558.318 732.42 L 583.284 751.437 M 622.274 466.22 L 591.915 474.171 M 622.274 466.22 L 603.788 413.62 M 597.394 412.147 L 569.772 427.045 M 597.394 412.147 L 567.006 365.403 M 560.739 425.177 L 534.973 443.096 M 560.739 425.177 L 527.762 386.768 M 522.7 387.144 L 502.589 411.237 M 522.7 387.144 L 480.742 358.82 M 496.247 411.585 L 478.424 437.416 M 496.247 411.585 L 457.099 390.967 M 457.557 687.27 L 473.647 714.215 M 476.159 437.401 L 459.712 464.13 M 476.159 437.401 L 442.543 422.477 M 440.378 423.143 L 432.73 453.58 M 440.378 423.143 L 403.83 419.017 M 441.861 660.093 L 415.586 670.893 M 431.602 453.776 L 425.004 484.459 M 431.602 453.776 L 403.257 451.88 M 402.245 452.414 L 405.42 483.637 M 402.245 452.414 L 374.695 459.343 M 373.896 460.164 L 386.536 488.889 M 373.896 460.164 L 349.821 475.243 M 349.314 476.27 L 370.189 499.703 M 349.314 476.27 L 331.056 498.033 M 407.975 640.446 L 415.586 670.893 M 428.251 627.216 L 409.798 632.994 M 445.433 610.159 L 428.529 619.548 M 405.084 601.966 L 409.798 632.994 M 417.641 590.114 L 428.529 619.548 M 427.818 580.873 L 418.962 585.043 M 787.045 499.356 L 756.766 491.103 M 787.045 499.356 L 804.029 439.932 M 776.882 570.614 L 747.807 558.801 M 742.432 479.08 L 711.213 475.871 M 742.432 479.08 L 748.067 416.761 M 700.063 676.116 L 671.928 662.213 M 700.063 676.116 L 727.094 619.682 M 697.442 466.301 L 666.102 467.941 M 697.442 466.301 L 691.96 404.741 M 676.54 398.152 L 646.178 406.094 M 676.54 398.152 L 658.728 338.971 M 632.72 401.46 L 603.788 413.62 M 632.72 401.46 L 606.419 348.076 M 592.247 346.753 L 567.006 365.403 M 592.247 346.753 L 554.079 301.093 M 549.823 364.446 L 527.762 386.768 M 549.823 364.446 L 507.098 328.627 M 496.117 331.46 L 480.742 358.82 M 496.117 331.46 L 445.442 308.212 M 496.392 745.719 L 516.379 769.915 M 468.827 361.857 L 457.099 390.967 M 468.827 361.857 L 420.192 347.808 M 474.613 715.422 L 492.092 741.487 M 451.775 392.482 L 442.543 422.477 M 451.775 392.482 L 408.238 384.589 M 403.616 387.634 L 403.83 419.017 M 403.616 387.634 L 359.721 393.197 M 401.156 420.567 L 403.257 451.88 M 401.156 420.567 L 365.115 427.902 M 363.049 430.201 L 374.695 459.343 M 363.049 430.201 L 331.021 448.282 M 329.763 451.106 L 349.821 475.243 M 329.763 451.106 L 304.864 478.176 M 415.586 670.893 L 423.539 701.252 M 417.641 590.114 L 408.05 592.074 M 406.639 560.722 L 408.05 592.074 M 833.869 449.653 L 804.029 439.932 M 833.869 449.653 L 854.356 393.779 M 776.882 570.614 L 800.846 513.645 M 779.286 419.971 L 748.067 416.761 M 779.286 419.971 L 786.36 358.574 M 671.656 731.87 L 700.063 676.116 M 755.23 633.586 L 727.094 619.682 M 755.23 633.586 L 783.288 578.519 M 723.184 401.574 L 691.96 404.741 M 723.184 401.574 L 716.105 339.402 M 688.667 329.558 L 658.728 338.971 M 688.667 329.558 L 669.167 270.1 M 643.87 717.28 L 671.656 731.87 M 634.046 333.187 L 606.419 348.076 M 634.046 333.187 L 602.758 279.889 M 577.407 280.099 L 554.079 301.093 M 577.407 280.099 L 534.415 235.7 M 585.63 752.932 L 611.867 770.153 M 525.784 303.413 L 507.098 328.627 M 525.784 303.413 L 475.937 270.904 M 456.798 278.954 L 445.442 308.212 M 456.798 278.954 L 400.129 260.781 M 521.941 774.671 L 544.455 796.535 M 426.408 317.046 L 420.192 347.808 M 426.408 317.046 L 371.039 310.507 M 410.67 353.299 L 408.238 384.589 M 410.67 353.299 L 360.062 354.524 M 352.633 362.624 L 359.721 393.197 M 352.633 362.624 L 304.734 379.009 M 355.243 398.112 L 365.115 427.902 M 355.243 398.112 L 315.196 416.928 M 312.45 422.983 L 331.021 448.282 M 312.45 422.983 L 280.149 453.221 M 423.96 702.236 L 433.229 732.22 M 388.735 642.375 L 387.32 673.727 M 395.296 601.947 L 390.461 632.956 M 406.639 560.722 L 398.323 590.984 M 883.122 406.327 L 854.356 393.779 M 883.122 406.327 L 908.433 356.651 M 829.311 526.863 L 800.846 513.645 M 829.311 526.863 L 856.329 473.838 M 817.386 363.302 L 786.36 358.574 M 817.386 363.302 L 828.495 304.837 M 699.791 745.774 L 727.85 690.706 M 810.712 593.778 L 783.288 578.519 M 747.329 336.234 L 716.105 339.402 M 699.105 260.687 L 669.167 270.1 M 747.329 336.234 L 741.847 274.675 M 699.105 260.687 L 681.293 201.506 M 727.85 690.706 L 700.063 676.116 M 727.85 690.706 L 757.251 636.345 M 629.626 263.67 L 602.758 279.889 M 629.626 263.67 L 596.633 210.501 M 556.691 213.593 L 534.415 235.7 M 556.691 213.593 L 512.072 169.723 M 492.109 244.008 L 475.937 270.904 M 492.109 244.008 L 438.016 214.116 M 408.615 230.566 L 400.129 260.781 M 408.615 230.566 L 348.544 216.039 M 372.848 279.175 L 371.039 310.507 M 372.848 279.175 L 313.337 279.308 M 356.741 323.316 L 360.062 354.524 M 356.741 323.316 L 301.968 333.728 M 292.183 350.245 L 304.734 379.009 M 292.183 350.245 L 243.076 376.644 M 454.858 774.661 L 470.636 801.79 M 299.034 390.026 L 315.196 416.928 M 299.034 390.026 L 258.513 420.371 M 435.55 736.203 L 447.4 765.264 M 387.391 674.362 L 387.034 705.744 M 406.639 560.722 L 389.404 586.949 M 935.138 373.136 L 908.433 356.651 M 935.138 373.136 L 965.163 332.378 M 883.389 489.734 L 856.329 473.838 M 883.389 489.734 L 914.456 443.438 M 858.921 312.531 L 828.495 304.837 M 858.921 312.531 L 875.801 259.394 M 728.256 758.991 L 755.274 705.966 M 810.712 593.778 L 841.528 542.867 M 773.187 273.034 L 741.847 274.675 M 711.655 193.564 L 681.293 201.506 M 773.187 273.034 L 772.249 213.53 M 711.655 193.564 L 698.708 135.478 M 755.274 705.966 L 727.85 690.706 M 784.292 652.273 L 757.251 636.345 M 755.274 705.966 L 786.089 655.055 M 784.292 652.273 L 816.348 602.133 M 623.501 194.282 L 596.633 210.501 M 534.348 147.616 L 512.072 169.723 M 623.501 194.282 L 592.213 140.983 M 534.348 147.616 L 491.355 103.217 M 452.857 186.463 L 438.016 214.116 M 452.857 186.463 L 397.363 157.552 M 355.546 185.446 L 348.544 216.039 M 355.546 185.446 L 294.382 172.235 M 641.888 786.91 L 671.656 731.87 M 614.468 771.642 L 641.888 786.91 M 312.12 247.948 L 313.337 279.308 M 312.12 247.948 L 250.492 252.597 M 551.18 801.459 L 576.091 820.548 M 294.272 303.303 L 301.968 333.728 M 294.272 303.303 L 237.555 321.324 M 480.774 812.272 L 500.514 836.67 M 387.778 708.842 L 389.703 740.167 M 369.748 638.72 L 359.424 668.357 M 382.162 580.364 L 389.404 586.949 M 406.639 560.722 L 382.162 580.364 M 988.409 353.462 L 965.163 332.378 M 938.999 462.997 L 914.456 443.438 M 938.999 462.997 L 973.679 426.119 M 904.835 271.308 L 875.801 259.394 M 904.835 271.308 L 927.817 226.203 M 757.022 771.539 L 782.334 721.862 M 867.356 560.696 L 841.528 542.867 M 867.356 560.696 L 901.719 516.791 M 803.603 214.915 L 772.249 213.53 M 729.694 130.497 L 698.708 135.478 M 803.603 214.915 L 809.393 159.463 M 729.694 130.497 L 724.156 75.0188 M 782.334 721.862 L 755.274 705.966 M 811.917 672.884 L 786.089 655.055 M 782.334 721.862 L 813.401 675.567 M 841.73 620.59 L 816.348 602.133 M 811.917 672.884 L 846.28 628.979 M 619.84 126.095 L 592.213 140.983 M 514.683 82.2231 L 491.355 103.217 M 619.84 126.095 L 593.539 72.7106 M 514.683 82.2231 L 476.516 36.5632 M 412.204 129.899 L 397.363 157.552 M 412.204 129.899 L 358.11 100.007 M 669.674 801.5 L 699.075 747.138 M 641.888 786.91 L 669.674 801.5 M 409.164 796.449 L 420.31 825.786 M 393.094 748.66 L 398.824 779.516 M 359.281 670.254 L 350.641 700.424 M 377.301 571.867 L 382.162 580.364 M 406.639 560.722 L 377.301 571.867 M 994.239 449.831 L 973.679 426.119 M 994.239 449.831 L 1030.44 424.391 M 954.188 243.218 L 927.817 226.203 M 786.056 783.454 L 809.038 738.348 M 924.769 538.089 L 901.719 516.791 M 924.769 538.089 L 962.049 503.841 M 840.236 165.263 L 809.393 159.463 M 755.534 74.4639 L 724.156 75.0188 M 809.038 738.348 L 782.334 721.862 M 837.944 695.126 L 813.401 675.567 M 809.038 738.348 L 839.063 697.59 M 869.33 650.277 L 846.28 628.979 M 837.944 695.126 L 872.624 658.248 M 841.73 620.59 L 877.161 577.542 M 622.471 60.5508 L 593.539 72.7106 M 622.471 60.5508 L 603.985 7.95108 M 697.806 815.412 L 726.116 763.066 M 669.674 801.5 L 697.806 815.412 M 613.48 842.664 L 641.616 856.567 M 583.742 825.266 L 610.778 841.202 M 513.281 847.341 L 536.731 868.198 M 435.409 844.683 L 452.092 871.265 M 351.06 706.715 L 345.53 737.608 M 375.294 562.286 L 377.301 571.867 M 406.639 560.722 L 375.294 562.286 M 1045.3 452.032 L 1030.44 424.391 M 815.322 794.787 L 835.409 755.363 M 861.479 772.836 L 835.409 755.363 M 980.823 528.99 L 962.049 503.841 M 980.823 528.99 L 1018.78 506.26 M 981.83 208.668 L 959.443 186.674 M 835.409 755.363 L 809.038 738.348 M 862.309 718.674 L 839.063 697.59 M 835.409 755.363 L 863.051 720.814 M 893.184 681.959 L 872.624 658.248 M 862.309 718.674 L 895.211 689.09 M 899.681 599.4 L 877.161 577.542 M 869.33 650.277 L 906.61 616.029 M 899.681 599.4 L 937.79 566.077 M 726.255 828.662 L 752.778 779.622 M 697.806 815.412 L 726.255 828.662 M 644.319 857.863 L 673.391 869.684 M 586.449 899.098 L 614.918 912.306 M 360.53 810.501 L 366.747 841.262 M 348.995 752.277 L 348.37 783.655 M 348.007 583.127 L 357.609 599.911 M 376.337 552.553 L 375.294 562.286 M 861.479 772.836 L 885.445 744.937 M 906.311 768.379 L 885.445 744.937 M 1031.59 534.913 L 1018.78 506.26 M 1079.54 438.592 L 1071.63 408.222 M 844.781 805.608 L 861.479 772.836 M 885.051 743.196 L 863.051 720.814 M 913.27 714.757 L 895.211 689.09 M 885.051 743.196 L 914.162 720.717 M 925.384 641.178 L 906.61 616.029 M 893.184 681.959 L 929.386 656.519 M 955.942 591.679 L 937.79 566.077 M 925.384 641.178 L 963.346 618.448 M 955.942 591.679 L 994.45 569.888 M 754.988 841.286 L 779.07 796.758 M 726.255 828.662 L 754.988 841.286 M 675.954 870.766 L 705.783 880.521 M 623.145 915.926 L 653.003 925.594 M 560.812 956.178 L 589.596 968.684 M 551.708 878.12 L 578.345 894.715 M 472.133 890.335 L 493.999 912.848 M 386.495 871.44 L 399.882 899.825 M 343.956 563.973 L 347.92 582.899 M 906.311 768.379 L 929.86 752.491 M 887.292 790.687 L 861.479 772.836 M 874.395 815.998 L 887.292 790.687 M 887.292 790.687 L 906.422 769.685 M 929.858 747.893 L 914.162 720.717 M 944.248 684.161 L 929.386 656.519 M 913.27 714.757 L 945.654 697.321 M 976.151 647.101 L 963.346 618.448 M 944.248 684.161 L 978.484 670.721 M 1006.55 598.846 L 994.45 569.888 M 976.151 647.101 L 1011.28 636.195 M 1006.55 598.846 L 1041.93 588.806 M 783.967 853.334 L 805.016 814.415 M 738.482 889.143 L 754.988 841.286 M 708.076 881.369 L 738.482 889.143 M 660.874 928.335 L 691.655 934.455 M 606.266 975.38 L 636.75 982.843 M 536.583 1013.87 L 565.666 1025.67 M 310.256 816.441 L 311.379 847.804 M 305.076 746.906 L 298.121 777.509 M 318.799 594.611 L 332.906 619.268 M 346.003 544.503 L 343.944 563.729 M 943.469 780.771 L 929.86 752.491 M 912.902 808.826 L 887.292 790.687 M 904.123 826.055 L 912.902 808.826 M 926.325 793.95 L 906.422 769.685 M 912.902 808.826 L 926.242 794.828 M 926.325 793.95 L 942.891 783.977 M 956.713 726.692 L 945.654 697.321 M 929.858 747.893 L 956.133 737.093 M 985.953 701.203 L 978.484 670.721 M 956.713 726.692 L 984.396 720.318 M 1016.5 667.141 L 1011.28 636.195 M 985.953 701.203 L 1014.2 698.182 M 1046.39 619.871 L 1041.93 588.806 M 813.152 864.874 L 830.648 832.523 M 769.036 896.308 L 783.463 854.48 M 738.482 889.143 L 769.036 896.308 M 698.728 936.333 L 729.994 939.049 M 652.783 987.293 L 684.075 989.691 M 593.772 1035.91 L 624.719 1041.13 M 513.778 1072.14 L 543.141 1083.22 M 518.387 930.171 L 544.609 947.415 M 427.958 930.211 L 448.122 954.26 M 334.735 892.159 L 344.632 921.941 M 312.631 565.9 L 318.455 593.704 M 943.469 780.771 L 961.922 774.993 M 938.372 827.162 L 912.902 808.826 M 933.928 835.884 L 938.372 827.162 M 945.404 819.683 L 926.242 794.828 M 938.372 827.162 L 945.233 820.18 M 954.8 813.013 L 942.891 783.977 M 945.404 819.683 L 953.975 814.955 M 963.744 767.54 L 956.133 737.093 M 986.945 751.598 L 984.396 720.318 M 963.744 767.54 L 982.984 765.611 M 1012.99 729.543 L 1014.2 698.182 M 986.945 751.598 L 1006.24 752.829 M 1074.8 619.617 L 1078.71 588.478 M 842.501 875.989 L 856.015 851.001 M 799.712 902.939 L 811.704 868.169 M 769.036 896.308 L 799.712 902.939 M 731.99 939.348 L 763.363 940.189 M 698.459 992.086 L 729.75 989.672 M 651.796 1046.8 L 683.151 1045.44 M 585.728 1097.18 L 616.973 1100.13 M 492.41 1130.95 L 522.036 1141.31 M 289.723 606.422 L 307.988 638.347 M 315.609 536.685 L 312.583 564.932 M 966.635 806.021 L 961.922 774.993 M 954.8 813.013 L 964.316 810.72 M 981.328 796.951 L 982.984 765.611 M 966.635 806.021 L 976.423 806.04 M 999.502 783.481 L 1006.24 752.829 M 981.328 796.951 L 990.91 798.949 M 1032 733.072 L 1042.13 703.367 M 871.974 886.772 L 881.173 869.764 M 1102.26 626.883 L 1114.27 597.885 M 830.48 909.123 L 839.742 882.268 M 799.712 902.939 L 830.48 909.123 M 764.899 940.361 L 796.272 939.558 M 735.781 989.829 L 766.676 984.311 M 707.278 1047.14 L 737.757 1039.66 M 657.928 1105.99 L 688.895 1100.89 M 582.179 1158.89 L 613.556 1159.54 M 483.798 981.389 L 509.588 999.271 M 380.989 966.757 L 399.345 992.213 M 281.331 568.179 L 288.871 604.178 M 979.793 828.298 L 990.91 798.949 M 979.793 828.298 L 999.412 803.801 M 979.793 828.298 L 1006 811.037 M 1010.05 819.952 L 1006 811.037 M 979.793 828.298 L 1010.05 819.952 M 1011.15 829.679 L 1010.05 819.952 M 979.793 828.298 L 1011.15 829.679 M 1009.2 839.271 L 1011.15 829.679 M 1008.63 787.013 L 1024.28 759.806 M 901.529 897.329 L 906.185 888.719 M 1049.21 741.892 L 1067.41 716.325 M 861.316 914.961 L 867.621 896.681 M 828.647 937.472 L 830.48 909.123 M 797.339 939.642 L 828.647 937.472 M 771.284 984.144 L 801.58 975.953 M 749.698 1038.5 L 778.84 1026.85 M 724.949 1100.02 L 753.802 1087.67 M 671.09 1164.03 L 701.227 1155.27 M 285.128 529.21 L 281.211 565.781 M 1042.51 830.938 L 1040.33 811.724 M 1038.64 850.13 L 1042.49 831.182 M 892.196 920.561 L 895.387 911.308 M 859.929 934.949 L 861.177 915.653 M 828.647 937.472 L 859.929 934.949 M 804.753 975.667 L 834.374 965.297 M 787.831 1025.18 L 815.335 1010.06 M 773.167 1083.36 L 799.352 1066.06 M 750.999 1149.31 L 777.455 1132.43 M 447.962 1031.74 L 473.306 1050.25 M 250.066 570.913 L 259.137 614.22 M 859.929 934.949 L 891.191 932.187 M 891.191 932.187 L 891.822 922.418 M 1068.17 860.763 L 1073.83 832.925 M 834.999 965.161 L 864.253 953.796 M 821.429 1008.45 L 847.254 990.617 M 813.603 1061.15 L 836.758 1039.96 M 805.218 1122.54 L 827.366 1100.31 M 784.732 1193.7 L 808.084 1172.73 M 254.542 522.179 L 249.83 566.174 M 864.541 953.728 L 893.526 941.693 M 893.526 941.693 L 891.191 932.187 M 849.005 989.876 L 873.786 970.619 M 1097.81 871.063 L 1105.14 835.021 M 844.528 1154.44 L 861.724 1128.19 M 410.901 1081.2 L 435.784 1100.33 M 218.854 574.193 L 229.233 623.741 M 893.526 941.693 L 922.463 929.546 M 849.005 989.876 L 869.495 1009.55 M 850.97 1034.89 L 869.495 1009.55 M 223.838 515.684 L 218.446 566.019 M 893.526 941.693 L 898.676 950.017 M 898.676 950.017 L 922.463 929.546 M 874.809 970.396 L 898.676 950.017 M 850.97 1034.89 L 883.29 1052.44 M 871.697 1081.61 L 883.29 1052.44 M 187.714 578.095 L 199.144 632.664 M 898.676 950.017 L 906.14 956.35 M 906.14 956.35 L 922.463 929.546 M 874.809 970.396 L 889.456 983.02 M 889.712 983.091 L 906.14 956.35 M 872.617 1009.5 L 889.456 983.02 M 193.011 509.802 L 187.073 565.238 M 906.14 956.35 L 915.192 960.075 M 915.192 960.075 L 922.463 929.546 M 889.712 983.091 L 907.536 990.588 M 907.802 990.577 L 915.192 960.075 M 872.617 1009.5 L 898.541 1021.12 M 899.676 1020.97 L 907.536 990.588 M 889.642 1051.22 L 898.541 1021.12 M 156.667 582.678 L 168.867 640.925 M 915.192 960.075 L 924.952 960.831 M 924.952 960.831 L 922.463 929.546 M 907.802 990.577 L 927.069 992.218 M 927.318 992.125 L 924.952 960.831 M 899.676 1020.97 L 927.918 1024.04 M 928.952 1023.55 L 927.069 992.218 M 889.642 1051.22 L 925.988 1056.85 M 928.724 1055.41 L 927.918 1024.04 M 924.906 1088.21 L 925.988 1056.85 M 162.062 504.597 L 155.723 563.77 M 924.952 960.831 L 934.469 958.542 M 927.318 992.125 L 946.153 987.751 M 928.952 1023.55 L 956.765 1017.76 M 928.724 1055.41 L 965.037 1049.57 M 924.906 1088.21 L 968.994 1084.47 M 131 500.117 L 124.417 561.569 M 99.8379 496.391 L 93.1731 558.609 M 68.5942 493.432 L 62.0115 554.884 M 37.2877 491.231 L 30.9491 550.404" />
</svg>
