<?xml version="1.0"?>
<svg width="1266" height="1193" version="1.1" xmlns="http://www.w3.org/2000/svg" >
<defs>
<style type="text/css"><![CDATA[
.m {stroke:rgb(255,0,0);stroke-width:1.582500;}
.v {stroke:rgb(0,0,255);stroke-width:1.582500;}
.b {stroke:rgb(0,0,0);stroke-width:3.165000;fill:white}
.n {stroke:rgb(128,128,128);stroke-width:1.582500}
.t {stroke:rgb(0,128,0);stroke-width:1.582500;}
.c {stroke:rgb(128,128,128);stroke-width:1.582500;stroke-dasharray:12.660000, 12.660000;}
]]></style>
</defs>
<path fill="none" style="stroke:black;stroke-width:3.165000;" d=" M 1067.12 785.364 L 1090.28 810.613 M 1087.97 815.312 L 1066.54 788.569 M 1087.39 772.133 L 1104.98 801.544 M 1100.07 810.633 L 1085.57 779.586 M 1110.59 756.19 L 1123.15 788.073 M 1114.56 803.541 L 1106.63 770.204 M 1136.64 734.135 L 1145.3 767.291 M 1123.15 788.073 L 1132.28 791.605 M 1132.28 791.605 L 1129.89 757.422 M 1172.72 746.747 L 1155.65 737.665 M 1145.3 767.291 L 1153.94 771.889 M 1186.27 760.542 L 1172.72 746.747 M 1160.8 778.872 L 1186.27 760.542 M 1153.94 771.889 L 1160.8 778.872 M 1166.15 835.531 L 1163.98 816.317 M 1134.8 834.271 L 1166.15 835.531 M 1163.98 816.317 L 1133.7 824.545 M 1162.29 854.723 L 1166.14 835.774 M 1132.85 843.864 L 1162.29 854.723 M 1166.14 835.774 L 1134.8 834.271 M 409.792 1193.44 L 442.156 1182.17 M 442.156 1182.17 L 409.881 1193.69 M 409.881 1193.69 L 441.215 1191.92 M 419.63 1156.26 L 411.794 1173.94 M 411.794 1173.94 L 446.053 1173.19 M 446.053 1173.19 L 411.801 1174.2 M 432.893 1141.09 L 419.77 1155.29 M 419.77 1155.29 L 452.434 1165.65 M 452.527 1165.85 L 419.63 1156.26 M 449.679 1131.49 L 432.893 1141.09 M 452.434 1165.65 L 460.931 1160.79 M 468.574 1127.38 L 449.679 1131.49 M 460.931 1160.79 L 470.497 1158.71 M 480.245 1159.6 L 487.83 1129.15 M 690.579 1140.68 L 686.77 1109.53 M 668.157 1114.77 L 681.156 1143.34 M 838.266 1075.4 L 826.356 1046.36 M 809.791 1056.33 L 829.879 1080.45 M 963.436 973.389 L 944.274 948.534 M 930.935 962.532 L 956.683 980.475 M 1027.77 830.648 L 1057.58 840.476 M 1036.55 813.419 L 1069.05 824.275 M 1068.88 824.773 L 1036.55 813.419 M 1049.97 798.543 L 1078.45 817.606 M 1077.62 819.547 L 1049.89 799.421 M 1053.51 752.486 L 1087.39 772.133 M 1085.57 779.586 L 1053.51 757.084 M 1080.36 731.285 L 1110.59 756.19 M 1106.63 770.204 L 1079.78 741.686 M 1109.6 705.795 L 1136.64 734.135 M 1129.89 757.422 L 1108.05 724.91 M 1140.15 671.733 L 1165.05 701.971 M 1155.65 737.665 L 1137.85 702.775 M 1170.04 624.463 L 1194.19 655.303 M 1165.05 701.971 L 1183.75 706.879 M 1183.75 706.879 L 1168.54 670.783 M 1195.59 559.546 L 1220.49 589.784 M 1194.19 655.303 L 1212.77 660.668 M 1212.77 660.668 L 1198.45 624.21 M 1210.66 473.667 L 1237.7 502.007 M 1220.49 589.784 L 1239.19 594.691 M 1239.19 594.691 L 1223.98 558.595 M 1266.84 475.831 L 1238.91 470.646 M 1256.71 505.536 L 1266.84 475.831 M 1237.7 502.007 L 1256.71 505.536 M 222.316 1063.2 L 201.49 1082.52 M 201.49 1082.52 L 240.111 1089.05 M 411.801 1174.2 L 378.435 1194.72 M 378.435 1194.72 L 409.792 1193.44 M 247.798 1050.64 L 222.316 1063.2 M 240.111 1089.05 L 257.456 1080.5 M 275.807 1045.9 L 247.798 1050.64 M 257.456 1080.5 L 276.521 1077.27 M 304.003 1049.36 L 275.807 1045.9 M 276.521 1077.27 L 295.713 1079.63 M 313.429 1087.38 L 330.03 1060.75 M 295.713 1079.63 L 313.429 1087.38 M 487.83 1129.15 L 495.181 1098.64 M 466.892 1096.04 L 468.574 1127.38 M 686.77 1109.53 L 682.722 1078.41 M 655.377 1086.11 L 668.157 1114.77 M 826.356 1046.36 L 814.225 1017.42 M 789.887 1032.07 L 809.791 1056.33 M 944.274 948.534 L 924.922 923.827 M 905.324 944.393 L 930.935 962.532 M 998.045 820.591 L 1027.77 830.648 M 1010.94 795.279 L 1049.97 798.543 M 1049.89 799.421 L 1010.94 795.279 M 1029.96 772.972 L 1067.12 785.364 M 1066.54 788.569 L 1030.07 774.278 M 1036.92 719.349 L 1080.36 731.285 M 1079.78 741.686 L 1037.81 725.309 M 1067.9 688.754 L 1109.6 705.795 M 1108.05 724.91 L 1069.3 701.914 M 1099.8 651.693 L 1140.15 671.733 M 1137.85 702.775 L 1102.13 675.314 M 1130.2 603.439 L 1170.04 624.463 M 1168.54 670.783 L 1134.93 640.788 M 1155.24 539.505 L 1195.59 559.546 M 1198.45 624.21 L 1165.58 593.399 M 1168.95 456.625 L 1210.66 473.667 M 1223.98 558.595 L 1190.37 528.6 M 1163.02 354.138 L 1206.46 366.074 M 1238.91 470.646 L 1203.19 443.185 M 1127.48 235.643 L 1172.29 240.34 M 1172.29 240.34 L 1156.59 213.164 M 1206.46 366.074 L 1234.15 359.699 M 1234.15 359.699 L 1195.4 336.703 M 0 532.969 L 30.5709 540.065 M 2.67462 504.688 L 0 532.969 M 34.0338 503.449 L 2.67462 504.688 M 14.7282 697.913 L 45.9982 695.245 M 8.55949 670.183 L 14.7282 697.913 M 38.0115 659.343 L 8.55949 670.183 M 276.238 1013.88 L 239.735 1018.38 M 247.698 1048.74 L 275.893 1045.26 M 239.735 1018.38 L 247.698 1048.74 M 312.633 1019.19 L 276.238 1013.88 M 275.893 1045.26 L 304.003 1049.36 M 330.03 1060.75 L 346.33 1033.93 M 495.181 1098.64 L 502.188 1068.05 M 465.562 1064.69 L 466.892 1096.04 M 682.722 1078.41 L 678.325 1047.34 M 642.921 1057.3 L 655.377 1086.11 M 814.225 1017.42 L 801.768 988.611 M 770.258 1007.58 L 789.887 1032.07 M 924.922 923.827 L 905.293 899.34 M 879.92 925.966 L 905.324 944.393 M 968.431 810.2 L 998.045 820.591 M 985.129 777.429 L 1029.96 772.972 M 1030.07 774.278 L 985.129 777.429 M 1008.7 747.788 L 1053.51 752.486 M 1053.51 757.084 L 1009.1 749.529 M 1016.83 686.552 L 1067.9 688.754 M 1069.3 701.914 L 1018.86 693.682 M 1049.03 645.77 L 1099.8 651.693 M 1102.13 675.314 L 1053.04 661.112 M 1079.59 596.271 L 1130.2 603.439 M 1134.93 640.788 L 1087 623.04 M 1104.47 533.582 L 1155.24 539.505 M 1165.58 593.399 L 1118.1 574.48 M 1117.89 454.423 L 1168.95 456.625 M 1190.37 528.6 L 1142.43 510.853 M 1112.06 358.055 L 1163.02 354.138 M 1203.19 443.185 L 1154.09 428.983 M 1077.84 247.81 L 1127.48 235.643 M 1195.4 336.703 L 1144.96 328.471 M 1006.54 132.368 L 1052.7 110.417 M 1052.7 110.417 L 1026.63 92.9442 M 1156.59 213.164 L 1105.48 213.261 M 30.5709 540.065 L 61.2418 546.716 M 65.4077 502.666 L 34.0338 503.449 M 45.9982 695.245 L 77.2262 692.123 M 67.6182 648.932 L 38.0115 659.343 M 108.485 838.125 L 137.232 825.533 M 89.8253 806.429 L 108.485 838.125 M 114.784 787.404 L 89.8253 806.429 M 211.95 954.802 L 235.42 933.967 M 184.434 930.398 L 211.95 954.802 M 202.317 904.608 L 184.434 930.398 M 346.33 1033.93 L 362.239 1006.88 M 321.701 989.143 L 312.633 1019.19 M 502.188 1068.05 L 508.75 1037.36 M 464.688 1033.32 L 465.562 1064.69 M 678.325 1047.34 L 673.476 1016.33 M 630.884 1028.32 L 642.921 1057.3 M 801.768 988.611 L 788.894 959.99 M 750.988 982.811 L 770.258 1007.58 M 905.293 899.34 L 885.31 875.14 M 854.786 907.172 L 879.92 925.966 M 938.972 799.379 L 968.431 810.2 M 959.059 759.956 L 1008.7 747.788 M 1009.1 749.529 L 959.059 759.956 M 985.959 723.266 L 1036.92 719.349 M 1037.81 725.309 L 986.701 725.406 M 992.98 654.87 L 1049.03 645.77 M 1053.04 661.112 L 996.274 662.84 M 1023.33 603.992 L 1079.59 596.271 M 1087 623.04 L 1030.26 620.621 M 1048.42 542.682 L 1104.47 533.582 M 1118.1 574.48 L 1061.44 570.669 M 1062.65 467.59 L 1117.89 454.423 M 1142.43 510.853 L 1085.7 508.434 M 1058.79 377.729 L 1112.06 358.055 M 1154.09 428.983 L 1097.33 430.712 M 1028.49 275.901 L 1077.84 247.81 M 1144.96 328.471 L 1088.81 336.971 M 963.886 169.855 L 1006.54 132.368 M 1105.48 213.261 L 1051.47 230.795 M 860.249 72.4302 L 892.843 25.9279 M 892.843 25.9279 L 861.728 21.8286 M 1026.63 92.9442 L 977.277 121.035 M 61.2418 546.716 L 92.0242 552.829 M 96.7905 502.431 L 65.4077 502.666 M 77.2262 692.123 L 108.395 688.456 M 97.4021 639.04 L 67.6182 648.932 M 137.232 825.533 L 165.754 812.442 M 140.072 768.817 L 114.784 787.404 M 235.42 933.967 L 258.522 912.725 M 220.648 879.134 L 202.317 904.608 M 362.239 1006.88 L 377.673 979.549 M 331.293 959.261 L 321.701 989.143 M 508.75 1037.36 L 514.775 1006.56 M 464.363 1001.94 L 464.688 1033.32 M 673.476 1016.33 L 668.086 985.412 M 619.356 999.128 L 630.884 1028.32 M 788.894 959.99 L 775.522 931.597 M 732.153 957.708 L 750.988 982.811 M 885.31 875.14 L 864.908 851.293 M 829.984 887.941 L 854.786 907.172 M 909.706 788.046 L 938.972 799.379 M 932.688 742.94 L 985.959 723.266 M 986.701 725.406 L 932.688 742.94 M 961.594 699.718 L 1016.83 686.552 M 1018.86 693.682 L 962.713 702.182 M 965.38 625.183 L 1023.33 603.992 M 1030.26 620.621 L 969.93 633.571 M 991.006 565.288 L 1048.42 542.682 M 1061.44 570.669 L 1000.81 582.135 M 1007.04 494.326 L 1062.65 467.59 M 1085.7 508.434 L 1025.37 521.383 M 1006.77 410.92 L 1058.79 377.729 M 1097.33 430.712 L 1038.11 448.031 M 982.572 317.123 L 1028.49 275.901 M 1088.81 336.971 L 1032.08 361.243 M 927.253 219.508 L 963.886 169.855 M 1051.47 230.795 L 999.451 263.986 M 836.382 129.331 L 860.249 72.4302 M 977.277 121.035 L 933.043 164.055 M 710.933 61.1863 L 718.908 0 M 718.908 0 L 689.119 9.87703 M 861.728 21.8286 L 828.909 74.0805 M 92.0242 552.829 L 122.922 558.328 M 128.172 502.822 L 96.7905 502.431 M 108.395 688.456 L 139.484 684.168 M 127.377 629.744 L 97.4021 639.04 M 165.754 812.442 L 194.01 798.784 M 165.725 750.738 L 140.072 768.817 M 258.522 912.725 L 281.196 891.026 M 239.484 854.031 L 220.648 879.134 M 377.673 979.549 L 392.558 951.92 M 341.478 929.576 L 331.293 959.261 M 514.775 1006.56 L 520.184 975.642 M 464.663 970.554 L 464.363 1001.94 M 668.086 985.412 L 662.081 954.609 M 608.413 969.714 L 619.356 999.128 M 775.522 931.597 L 761.587 903.477 M 713.822 932.235 L 732.153 957.708 M 864.908 851.293 L 844.034 827.858 M 805.571 868.22 L 829.984 887.941 M 880.672 776.132 L 909.706 788.046 M 905.983 726.455 L 961.594 699.718 M 962.713 702.182 L 905.983 726.455 M 935.567 677.476 L 992.98 654.87 M 996.274 662.84 L 937.051 680.159 M 934.362 598.37 L 991.006 565.288 M 1000.81 582.135 L 939.998 606.725 M 952.961 531.455 L 1007.04 494.326 M 1025.37 521.383 L 965.178 547.459 M 957.519 454.245 L 1006.77 410.92 M 1038.11 448.031 L 979.979 478.43 M 941.036 367.895 L 982.572 317.123 M 1032.08 361.243 L 978.006 398.371 M 896.838 277.626 L 927.253 219.508 M 999.451 263.986 L 952.146 309.429 M 820.556 192.99 L 836.382 129.331 M 933.043 164.055 L 895.9 218.123 M 712.5 126.764 L 710.933 61.1863 M 828.909 74.0805 L 805.589 135.392 M 579.417 92.2706 L 559.159 29.8807 M 559.159 29.8807 L 536.238 51.3182 M 689.119 9.87703 L 682.838 75.1722 M 122.922 558.328 L 153.934 563.148 M 159.537 503.901 L 128.172 502.822 M 139.484 684.168 L 170.472 679.199 M 157.549 621.108 L 127.377 629.744 M 194.01 798.784 L 221.96 784.51 M 191.768 733.226 L 165.725 750.738 M 281.196 891.026 L 303.388 868.835 M 258.865 829.347 L 239.484 854.031 M 392.558 951.92 L 406.835 923.972 M 352.312 900.121 L 341.478 929.576 M 520.184 975.642 L 524.915 944.617 M 465.652 939.185 L 464.663 970.554 M 662.081 954.609 L 655.402 923.944 M 598.116 940.068 L 608.413 969.714 M 761.587 903.477 L 747.038 875.67 M 696.054 906.365 L 713.822 932.235 M 844.034 827.858 L 822.651 804.886 M 781.596 847.969 L 805.571 868.22 M 851.906 763.583 L 880.672 776.132 M 878.923 710.558 L 935.567 677.476 M 937.051 680.159 L 878.923 710.558 M 907.942 656.865 L 965.38 625.183 M 969.93 633.571 L 909.739 659.647 M 900.532 575.206 L 952.961 531.455 M 965.178 547.459 L 906.938 583.111 M 910.695 503.949 L 957.519 454.245 M 979.979 478.43 L 924.496 518.238 M 902.936 424.563 L 941.036 367.895 M 978.006 398.371 L 927.679 444.525 M 870.979 340.827 L 896.838 277.626 M 952.146 309.429 L 910.011 363.166 M 810.358 260.51 L 820.556 192.99 M 895.9 218.123 L 865.497 279.267 M 720.515 194.578 L 712.5 126.764 M 805.589 135.392 L 790.49 201.987 M 606.494 154.958 L 579.417 92.2706 M 682.838 75.1722 L 685.882 143.39 M 485.906 149.606 L 442.031 97.2813 M 442.031 97.2813 L 428.881 125.777 M 536.238 51.3182 L 558.667 115.815 M 153.934 563.148 L 185.049 567.242 M 190.868 505.713 L 159.537 503.901 M 170.472 679.199 L 201.335 673.507 M 187.915 613.179 L 157.549 621.108 M 221.96 784.51 L 249.568 769.586 M 218.214 716.327 L 191.768 733.226 M 303.388 868.835 L 325.056 846.132 M 278.818 805.123 L 258.865 829.347 M 406.835 923.972 L 420.454 895.697 M 363.831 870.928 L 352.312 900.121 M 524.915 944.617 L 528.918 913.49 M 467.373 907.849 L 465.652 939.185 M 655.402 923.944 L 648.008 893.444 M 588.516 910.188 L 598.116 940.068 M 747.038 875.67 L 731.843 848.209 M 678.895 880.087 L 696.054 906.365 M 822.651 804.886 L 800.737 782.421 M 758.101 827.162 L 781.596 847.969 M 823.441 750.366 L 851.906 763.583 M 851.499 695.299 L 907.942 656.865 M 909.739 659.647 L 851.499 695.299 M 878.88 638.178 L 934.362 598.37 M 939.998 606.725 L 880.901 640.937 M 864.703 556.264 L 910.695 503.949 M 924.496 518.238 L 871.457 563.393 M 866.082 483.673 L 902.936 424.563 M 927.679 444.525 L 880.416 495.695 M 846.834 406.166 L 870.979 340.827 M 910.011 363.166 L 871.717 421.353 M 802.331 329.704 L 810.358 260.51 M 865.497 279.267 L 839.756 343.994 M 731.067 263.432 L 720.515 194.578 M 790.49 201.987 L 780.766 270.963 M 636.299 217.918 L 606.494 154.958 M 685.882 143.39 L 694.74 212.482 M 532.473 201.411 L 485.906 149.606 M 558.667 115.815 L 586.917 179.487 M 422.879 217.884 L 362.891 182.479 M 362.891 182.479 L 360.441 213.767 M 428.881 125.777 L 474.162 178.709 M 185.049 567.242 L 216.255 570.58 M 222.146 508.284 L 190.868 505.713 M 201.335 673.507 L 232.051 667.069 M 218.464 605.988 L 187.915 613.179 M 249.568 769.586 L 276.807 753.998 M 245.062 700.075 L 218.214 716.327 M 325.056 846.132 L 346.167 822.91 M 299.353 781.39 L 278.818 805.123 M 420.454 895.697 L 433.384 867.101 M 376.055 842.023 L 363.831 870.928 M 528.918 913.49 L 532.166 882.275 M 469.854 876.564 L 467.373 907.849 M 648.008 893.444 L 639.876 863.132 M 579.643 880.085 L 588.516 910.188 M 731.843 848.209 L 715.987 821.126 M 662.379 853.401 L 678.895 880.087 M 800.737 782.421 L 778.285 760.493 M 735.117 805.792 L 758.101 827.162 M 795.305 736.462 L 823.441 750.366 M 823.713 680.709 L 878.88 638.178 M 880.901 640.937 L 823.713 680.709 M 848.617 621.65 L 900.532 575.206 M 906.938 583.111 L 850.744 624.274 M 880.416 495.695 L 834.424 548.01 M 827.788 541.86 L 866.082 483.673 M 871.717 421.353 L 834.863 480.463 M 821.093 470.893 L 846.834 406.166 M 839.756 343.994 L 815.611 409.333 M 792.607 398.679 L 802.331 329.704 M 780.766 270.963 L 772.739 340.157 M 739.925 332.524 L 731.067 263.432 M 694.74 212.482 L 705.292 281.336 M 664.549 281.59 L 636.299 217.918 M 586.917 179.487 L 616.722 242.447 M 577.754 254.343 L 532.473 201.411 M 474.162 178.709 L 520.729 230.514 M 481.981 254.751 L 422.879 217.884 M 360.441 213.767 L 420.43 249.172 M 390.763 283.939 L 323.311 266.549 M 323.311 266.549 L 330.383 297.125 M 253.352 511.622 L 222.146 508.284 M 216.255 570.58 L 247.533 573.151 M 249.18 599.55 L 218.464 605.988 M 232.051 667.069 L 262.6 659.879 M 272.3 684.486 L 245.062 700.075 M 276.807 753.998 L 303.654 737.746 M 320.463 758.168 L 299.353 781.39 M 346.167 822.91 L 366.701 799.177 M 388.984 813.426 L 376.055 842.023 M 433.384 867.101 L 445.607 838.195 M 473.101 845.349 L 469.854 876.564 M 532.166 882.275 L 534.647 850.99 M 571.511 849.773 L 579.643 880.085 M 639.876 863.132 L 631.003 833.029 M 646.523 826.317 L 662.379 853.401 M 715.987 821.126 L 699.471 794.44 M 712.665 783.864 L 735.117 805.792 M 778.285 760.493 L 755.301 739.123 M 767.519 721.872 L 795.305 736.462 M 850.744 624.274 L 795.578 666.805 M 795.578 666.805 L 848.617 621.65 M 871.457 563.393 L 819.542 609.837 M 817.44 607.435 L 864.703 556.264 M 834.863 480.463 L 796.762 537.131 M 790.69 532.037 L 821.093 470.893 M 815.611 409.333 L 789.752 472.533 M 777.508 465.275 L 792.607 398.679 M 772.739 340.157 L 762.541 407.677 M 742.97 400.742 L 739.925 332.524 M 705.292 281.336 L 713.307 349.15 M 686.978 346.087 L 664.549 281.59 M 616.722 242.447 L 643.799 305.135 M 617.694 309.73 L 577.754 254.343 M 520.729 230.514 L 564.605 282.839 M 536.727 295.567 L 481.981 254.751 M 420.43 249.172 L 478.009 285.883 M 455.247 306.404 L 390.763 283.939 M 330.383 297.125 L 396.335 314.824 M 380.797 341.24 L 312.542 339.203 M 312.542 339.203 L 327.143 366.984 M 284.467 515.716 L 253.352 511.622 M 247.533 573.151 L 278.864 574.963 M 280.043 593.858 L 249.18 599.55 M 262.6 659.879 L 292.966 651.95 M 299.909 669.563 L 272.3 684.486 M 303.654 737.746 L 330.1 720.847 M 342.131 735.464 L 320.463 758.168 M 366.701 799.177 L 386.654 774.952 M 402.604 785.152 L 388.984 813.426 M 445.607 838.195 L 457.127 809.002 M 477.105 814.221 L 473.101 845.349 M 534.647 850.99 L 536.368 819.653 M 564.117 819.273 L 571.511 849.773 M 631.003 833.029 L 621.403 803.15 M 631.329 798.857 L 646.523 826.317 M 699.471 794.44 L 682.313 768.162 M 690.751 761.398 L 712.665 783.864 M 755.301 739.123 L 731.806 718.316 M 740.095 706.613 L 767.519 721.872 M 819.542 609.837 L 767.113 653.588 M 767.113 653.588 L 817.44 607.435 M 834.424 548.01 L 787.6 597.714 M 785.653 595.596 L 827.788 541.86 M 789.752 472.533 L 759.337 530.652 M 754.188 526.586 L 777.508 465.275 M 762.541 407.677 L 746.715 471.335 M 736.689 466.037 L 742.97 400.742 M 713.307 349.15 L 714.875 414.728 M 699.635 410.451 L 686.978 346.087 M 643.799 305.135 L 664.057 367.524 M 648.231 367.785 L 617.694 309.73 M 564.605 282.839 L 601.862 336.828 M 583.307 341.753 L 536.727 295.567 M 478.009 285.883 L 529.775 326.171 M 513.56 336.447 L 455.247 306.404 M 396.335 314.824 L 457.82 337.682 M 445.445 352.359 L 380.797 341.24 M 327.143 366.984 L 392.656 370.297 M 384.028 389.363 L 319.1 398.702 M 319.1 398.702 L 339.333 422.692 M 315.479 520.536 L 284.467 515.716 M 278.864 574.963 L 310.229 576.042 M 311.031 588.89 L 280.043 593.858 M 292.966 651.95 L 323.138 643.313 M 327.858 655.289 L 299.909 669.563 M 330.1 720.847 L 356.143 703.335 M 364.324 713.274 L 342.131 735.464 M 386.654 774.952 L 406.036 750.268 M 416.88 757.203 L 402.604 785.152 M 457.127 809.002 L 467.961 779.548 M 481.836 783.196 L 477.105 814.221 M 536.368 819.653 L 537.357 788.285 M 557.438 788.608 L 564.117 819.273 M 621.403 803.15 L 611.106 773.503 M 616.78 771.05 L 631.329 798.857 M 682.313 768.162 L 664.545 742.292 M 669.368 738.426 L 690.751 761.398 M 731.806 718.316 L 707.831 698.064 M 713.035 690.716 L 740.095 706.613 M 787.6 597.714 L 738.347 641.039 M 738.347 641.039 L 785.653 595.596 M 796.762 537.131 L 755.227 587.902 M 753.547 586.104 L 790.69 532.037 M 746.715 471.335 L 722.848 528.236 M 718.852 525.106 L 736.689 466.037 M 714.875 414.728 L 706.9 475.914 M 699.438 472.154 L 699.635 410.451 M 664.057 367.524 L 673.916 428.435 M 665.691 426.967 L 648.231 367.785 M 601.862 336.828 L 628.73 392.375 M 617.754 392.947 L 583.307 341.753 M 529.775 326.171 L 572.102 371.068 M 561.805 374.914 L 513.56 336.447 M 457.82 337.682 L 511.688 367.775 M 503.024 374.539 L 445.445 352.359 M 392.656 370.297 L 453.08 382.799 M 445.64 392.725 L 384.028 389.363 M 339.333 422.692 L 400.67 415.971 M 396.65 427.706 L 336.999 443.489 M 336.999 443.489 L 361.029 463.676 M 346.377 526.035 L 315.479 520.536 M 310.229 576.042 L 341.611 576.433 M 342.12 584.602 L 311.031 588.89 M 323.138 643.313 L 353.113 634.017 M 356.114 641.631 L 327.858 655.289 M 356.143 703.335 L 381.796 685.256 M 386.997 691.575 L 364.324 713.274 M 406.036 750.268 L 424.871 725.166 M 431.766 729.575 L 416.88 757.203 M 467.961 779.548 L 478.146 749.863 M 487.245 752.282 L 481.836 783.196 M 537.357 788.285 L 537.657 756.903 M 551.433 757.805 L 557.438 788.608 M 611.106 773.503 L 600.163 744.089 M 602.845 742.93 L 616.78 771.05 M 664.545 742.292 L 646.214 716.819 M 648.494 714.991 L 669.368 738.426 M 707.831 698.064 L 683.417 678.343 M 686.331 674.23 L 713.035 690.716 M 755.227 587.902 L 709.313 629.125 M 709.313 629.125 L 753.547 586.104 M 759.337 530.652 L 722.704 580.305 M 721.368 578.838 L 754.188 526.586 M 706.9 475.914 L 687.76 529.379 M 684.99 527.073 L 699.438 472.154 M 673.916 428.435 L 670.868 485.141 M 667.554 483.724 L 665.691 426.967 M 628.73 392.375 L 642.028 447.583 M 636.597 446.517 L 617.754 392.947 M 572.102 371.068 L 601.385 419.724 M 595.884 420.339 L 561.805 374.914 M 511.688 367.775 L 554.246 405.374 M 549.185 407.615 L 503.024 374.539 M 453.08 382.799 L 504.973 405.862 M 499.746 409.971 L 445.64 392.725 M 400.67 415.971 L 457.145 421.924 M 453.437 427.443 L 396.65 427.706 M 361.029 463.676 L 416.591 451.94 M 414.764 458.333 L 360.82 476.078 M 360.82 476.078 L 387.257 492.99 M 377.159 532.149 L 346.377 526.035 M 341.611 576.433 L 372.993 576.198 M 373.289 580.934 L 342.12 584.602 M 353.113 634.017 L 382.897 624.125 M 384.637 628.539 L 356.114 641.631 M 381.796 685.256 L 407.084 666.669 M 410.099 670.333 L 386.997 691.575 M 424.871 725.166 L 443.202 699.692 M 447.2 702.248 L 431.766 729.575 M 478.146 749.863 L 487.737 719.981 M 493.27 721.482 L 487.245 752.282 M 537.657 756.903 L 537.332 725.521 M 546.043 726.887 L 551.433 757.805 M 600.163 744.089 L 588.635 714.9 M 589.473 714.537 L 602.845 742.93 M 646.214 716.819 L 627.379 691.715 M 628.091 691.144 L 648.494 714.991 M 683.417 678.343 L 658.616 659.113 M 659.96 657.215 L 686.331 674.23 M 722.704 580.305 L 680.047 617.792 M 680.047 617.792 L 721.368 578.838 M 722.848 528.236 L 690.254 574.738 M 689.299 573.598 L 718.852 525.106 M 670.868 485.141 L 654.268 533.481 M 653.469 532.856 L 667.554 483.724 M 642.028 447.583 L 639.948 498.652 M 637.937 497.61 L 636.597 446.517 M 601.385 419.724 L 614.757 469.054 M 612.526 468.665 L 595.884 420.339 M 554.246 405.374 L 581.831 448.401 M 579.587 448.701 L 549.185 407.615 M 504.973 405.862 L 544.22 438.604 M 541.327 439.692 L 499.746 409.971 M 457.145 421.924 L 504.569 440.981 M 502.152 442.908 L 453.437 427.443 M 416.591 451.94 L 467.58 455.459 M 465.874 458.037 L 414.764 458.333 M 387.257 492.99 L 436.851 480.629 M 436.022 483.606 L 387.489 499.635 M 387.489 499.635 L 415.371 514.042 M 407.83 538.799 L 377.159 532.149 M 372.993 576.198 L 404.367 575.416 M 404.517 577.812 L 373.289 580.934 M 382.897 624.125 L 412.503 613.714 M 413.384 615.948 L 384.637 628.539 M 407.084 666.669 L 432.043 647.643 M 433.569 649.497 L 410.099 670.333 M 443.202 699.692 L 461.085 673.902 M 463.108 675.195 L 447.2 702.248 M 487.737 719.981 L 496.805 689.936 M 499.832 690.792 L 493.27 721.482 M 537.332 725.521 L 536.458 694.149 M 541.194 695.881 L 546.043 726.887 M 588.635 714.9 L 576.599 685.916 M 576.599 685.916 L 589.473 714.537 M 627.379 691.715 L 608.109 666.945 M 608.109 666.945 L 628.091 691.144 M 658.616 659.113 L 633.482 640.319 M 633.89 639.742 L 659.96 657.215 M 690.254 574.738 L 650.588 606.971 M 650.588 606.971 L 689.299 573.598 M 687.76 529.379 L 658.027 570.951 M 657.441 570.124 L 684.99 527.073 M 639.948 498.652 L 623.005 540.398 M 622.586 539.967 L 637.937 497.61 M 614.757 469.054 L 611.15 513.963 M 610.621 513.678 L 612.526 468.665 M 581.831 448.401 L 591.895 492.316 M 591.305 492.203 L 579.587 448.701 M 544.22 438.604 L 567.023 477.46 M 565.878 477.467 L 541.327 439.692 M 504.569 440.981 L 538.234 470.922 M 537.147 471.282 L 502.152 442.908 M 467.58 455.459 L 508.832 473.572 M 507.909 474.249 L 465.874 458.037 M 436.851 480.629 L 481.676 485.152 M 481.007 486.08 L 436.022 483.606 M 415.371 514.042 L 459.409 504.534 M 459.058 505.624 L 415.499 517.13 M 415.499 517.13 L 444.197 529.834 M 438.401 545.895 L 407.83 538.799 M 404.367 575.416 L 435.726 574.177 M 435.787 575.144 L 404.517 577.812 M 412.503 613.714 L 441.955 602.874 M 442.311 603.776 L 413.384 615.948 M 432.043 647.643 L 456.723 628.257 M 457.339 629.005 L 433.569 649.497 M 461.085 673.902 L 478.592 647.855 M 479.409 648.377 L 463.108 675.195 M 496.805 689.936 L 505.435 659.762 M 506.839 660.201 L 499.832 690.792 M 536.458 694.149 L 535.129 662.794 M 536.797 664.807 L 541.194 695.881 M 564.142 657.11 L 536.797 664.807 M 588.48 642.457 L 564.142 657.11 M 633.482 640.319 L 608.077 621.892 M 608.077 621.892 L 633.89 639.742 M 658.027 570.951 L 620.974 596.58 M 620.974 596.58 L 657.441 570.124 M 654.268 533.481 L 626.093 568.637 M 626.093 568.637 L 653.469 532.856 M 611.15 513.963 L 592.334 548.316 M 592.334 548.316 L 610.621 513.678 M 591.895 492.316 L 584.279 530.737 M 584.279 530.737 L 591.305 492.203 M 567.023 477.46 L 571.311 516.394 M 571.065 516.292 L 565.878 477.467 M 538.234 470.922 L 554.309 506.641 M 554.044 506.62 L 537.147 471.282 M 508.832 473.572 L 535.13 502.601 M 534.871 502.663 L 507.909 474.249 M 481.676 485.152 L 515.638 504.666 M 515.411 504.805 L 481.007 486.08 M 459.409 504.534 L 497.731 512.636 M 497.558 512.838 L 459.058 505.624 M 444.197 529.834 L 483.151 525.735 M 483.048 525.981 L 444.198 530.979 M 444.198 530.979 L 473.315 542.69 M 468.89 553.334 L 438.401 545.895 M 435.726 574.177 L 467.07 572.585 M 467.085 572.828 L 435.787 575.144 M 441.955 602.874 L 471.284 591.703 M 471.373 591.93 L 442.311 603.776 M 456.723 628.257 L 481.183 608.594 M 481.338 608.782 L 457.339 629.005 M 478.592 647.855 L 495.804 621.612 M 496.01 621.744 L 479.409 648.377 M 505.435 659.762 L 513.725 629.493 M 514.19 629.69 L 506.839 660.201 M 535.129 662.794 L 533.446 631.455 M 536.154 663.017 L 563.818 656.558 M 533.511 631.745 L 536.154 663.017 M 552.342 627.349 L 533.511 631.745 M 563.818 656.558 L 588.48 642.457 M 623.005 540.398 L 594.73 567.504 M 594.73 567.504 L 622.586 539.967 M 571.311 516.394 L 558.068 547.998 M 558.068 547.998 L 571.065 516.292 M 554.309 506.641 L 551.447 540.788 M 551.447 540.788 L 554.044 506.62 M 535.13 502.601 L 542.927 535.969 M 542.927 535.969 L 534.871 502.663 M 515.638 504.666 L 533.337 534.009 M 533.337 534.009 L 515.411 504.805 M 497.731 512.636 L 523.609 535.099 M 523.609 535.099 L 497.558 512.838 M 483.151 525.735 L 514.69 539.133 M 514.69 539.133 L 483.048 525.981 M 473.315 542.69 L 507.448 545.718 M 507.448 545.718 L 473.293 542.955 M 473.293 542.955 L 502.587 554.215 M 499.321 561.007 L 468.89 553.334 M 467.07 572.585 L 498.4 570.753 M 498.4 570.753 L 467.085 572.828 M 471.284 591.703 L 500.525 580.308 M 500.525 580.308 L 471.373 591.93 M 481.183 608.594 L 505.491 588.743 M 505.491 588.743 L 481.338 608.782 M 495.804 621.612 L 512.815 595.238 M 512.815 595.238 L 496.01 621.744 M 513.725 629.493 L 521.783 599.161 M 521.776 599.237 L 514.19 629.69 M 531.523 600.131 L 521.776 599.237 M 533.446 631.455 L 552.342 627.349 M 569.128 617.751 L 541.089 598.052 M 541.394 597.624 L 569.128 617.751 M 582.467 603.752 L 549.966 592.896 M 550.136 592.399 L 582.467 603.752 M 591.246 586.524 L 556.997 585.417 M 557.018 584.891 L 591.246 586.524 M 1090.47 846.596 L 1087.97 815.312 M 1078.45 817.606 L 1090.47 846.596 M 1095.12 841.623 L 1100.07 810.633 M 1090.28 810.613 L 1095.12 841.623 M 1104.98 801.544 L 1103.44 832.89 M 1123.06 808.394 L 1114.56 803.541 M 1129.65 815.63 L 1123.06 808.394 M 1133.7 824.545 L 1129.65 815.63 M 1103.44 832.89 L 1132.85 843.864 M 441.215 1191.92 L 472.541 1190.02 M 460.948 1160.86 L 452.527 1165.85 M 470.497 1158.71 L 460.948 1160.86 M 472.541 1190.02 L 480.245 1159.6 M 694.266 1171.85 L 690.579 1140.68 M 681.156 1143.34 L 694.266 1171.85 M 850.062 1104.48 L 838.266 1075.4 M 829.879 1080.45 L 850.062 1104.48 M 982.501 998.318 L 963.436 973.389 M 956.683 980.475 L 982.501 998.318 M 1087.42 850.189 L 1062.02 831.754 M 1057.58 840.476 L 1087.42 850.189 M 1087.56 849.991 L 1068.88 824.773 M 1062.02 831.754 L 1087.56 849.991 M 1069.05 824.275 L 1088.31 849.055 M 1088.31 849.055 L 1077.62 819.547 M 531.925 565.361 L 562.146 556.897 M 502.587 554.215 L 531.925 565.361 M 529.723 568.799 L 499.321 561.007 M 521.783 599.161 L 531.523 600.131 M 541.089 598.052 L 529.723 568.799 M 549.966 592.896 L 530.707 568.116 M 530.707 568.116 L 541.394 597.624 M 556.997 585.417 L 531.455 567.18 M 531.455 567.18 L 550.136 592.399 M 561.595 576.239 L 531.905 566.069 M 531.905 566.069 L 557.018 584.891 M 563.359 566.61 L 531.985 565.839 M 531.985 565.839 L 561.595 576.239 M 531.992 565.595 L 563.359 566.61 M 562.146 556.897 L 531.992 565.595" />
<path fill="none" class="c" d=" M 608.077 621.892 L 620.974 596.58 M 582.467 603.752 L 608.077 621.892 M 620.974 596.58 L 591.246 586.524 M 591.246 586.524 L 582.467 603.752 M 620.974 596.58 L 626.093 568.637 M 626.093 568.637 L 594.73 567.504 M 594.73 567.504 L 591.246 586.524 M 626.093 568.637 L 623.005 540.398 M 556.997 585.417 L 582.467 603.752 M 561.595 576.239 L 591.246 586.524 M 594.73 567.504 L 563.359 566.61 M 563.359 566.61 L 561.595 576.239 M 594.73 567.504 L 592.334 548.316 M 592.334 548.316 L 562.146 556.897 M 562.146 556.897 L 563.359 566.61 M 650.588 606.971 L 620.974 596.58 M 650.588 606.971 L 658.027 570.951 M 657.441 570.124 L 626.093 568.637 M 657.441 570.124 L 654.268 533.481 M 653.469 532.856 L 623.005 540.398 M 582.467 603.752 L 569.128 617.751 M 622.586 539.967 L 592.334 548.316 M 592.334 548.316 L 584.279 530.737 M 584.279 530.737 L 558.068 547.998 M 558.068 547.998 L 562.146 556.897 M 584.279 530.737 L 571.311 516.394 M 549.966 592.896 L 569.128 617.751 M 556.997 585.417 L 550.136 592.399 M 561.595 576.239 L 557.018 584.891 M 558.068 547.998 L 531.925 565.361 M 558.068 547.998 L 551.447 540.788 M 551.447 540.788 L 531.925 565.361 M 551.447 540.788 L 542.927 535.969 M 542.927 535.969 L 531.925 565.361 M 542.927 535.969 L 533.337 534.009 M 533.337 534.009 L 531.925 565.361 M 533.337 534.009 L 523.609 535.099 M 523.609 535.099 L 531.925 565.361 M 523.609 535.099 L 514.69 539.133 M 514.69 539.133 L 531.925 565.361 M 514.69 539.133 L 507.448 545.718 M 507.448 545.718 L 531.925 565.361 M 507.448 545.718 L 502.587 554.215 M 633.89 639.742 L 650.588 606.971 M 689.299 573.598 L 658.027 570.951 M 689.299 573.598 L 687.76 529.379 M 684.99 527.073 L 654.268 533.481 M 653.469 532.856 L 639.948 498.652 M 622.586 539.967 L 611.15 513.963 M 610.621 513.678 L 584.279 530.737 M 610.621 513.678 L 591.895 492.316 M 591.305 492.203 L 571.311 516.394 M 591.305 492.203 L 567.023 477.46 M 588.48 642.457 L 608.077 621.892 M 569.128 617.751 L 588.48 642.457 M 571.065 516.292 L 551.447 540.788 M 571.065 516.292 L 554.309 506.641 M 554.044 506.62 L 542.927 535.969 M 554.044 506.62 L 535.13 502.601 M 534.871 502.663 L 533.337 534.009 M 534.871 502.663 L 515.638 504.666 M 515.411 504.805 L 523.609 535.099 M 515.411 504.805 L 497.731 512.636 M 497.558 512.838 L 514.69 539.133 M 497.558 512.838 L 483.151 525.735 M 483.048 525.981 L 507.448 545.718 M 483.048 525.981 L 473.315 542.69 M 549.966 592.896 L 541.394 597.624 M 718.852 525.106 L 687.76 529.379 M 684.99 527.073 L 670.868 485.141 M 667.554 483.724 L 639.948 498.652 M 667.554 483.724 L 642.028 447.583 M 680.047 617.792 L 650.588 606.971 M 680.047 617.792 L 690.254 574.738 M 637.937 497.61 L 611.15 513.963 M 637.937 497.61 L 614.757 469.054 M 612.526 468.665 L 591.895 492.316 M 612.526 468.665 L 581.831 448.401 M 579.587 448.701 L 567.023 477.46 M 579.587 448.701 L 544.22 438.604 M 565.878 477.467 L 554.309 506.641 M 565.878 477.467 L 538.234 470.922 M 537.147 471.282 L 535.13 502.601 M 537.147 471.282 L 508.832 473.572 M 507.909 474.249 L 515.638 504.666 M 507.909 474.249 L 481.676 485.152 M 481.007 486.08 L 497.731 512.636 M 481.007 486.08 L 459.409 504.534 M 459.058 505.624 L 483.151 525.735 M 459.058 505.624 L 444.197 529.834 M 569.128 617.751 L 552.342 627.349 M 541.089 598.052 L 552.342 627.349 M 718.852 525.106 L 706.9 475.914 M 699.438 472.154 L 670.868 485.141 M 699.438 472.154 L 673.916 428.435 M 665.691 426.967 L 642.028 447.583 M 665.691 426.967 L 628.73 392.375 M 659.96 657.215 L 680.047 617.792 M 721.368 578.838 L 690.254 574.738 M 721.368 578.838 L 722.848 528.236 M 636.597 446.517 L 614.757 469.054 M 636.597 446.517 L 601.385 419.724 M 595.884 420.339 L 581.831 448.401 M 595.884 420.339 L 554.246 405.374 M 549.185 407.615 L 544.22 438.604 M 549.185 407.615 L 504.973 405.862 M 541.327 439.692 L 538.234 470.922 M 541.327 439.692 L 504.569 440.981 M 502.152 442.908 L 508.832 473.572 M 502.152 442.908 L 467.58 455.459 M 465.874 458.037 L 481.676 485.152 M 465.874 458.037 L 436.851 480.629 M 436.022 483.606 L 459.409 504.534 M 436.022 483.606 L 415.371 514.042 M 608.109 666.945 L 633.482 640.319 M 588.48 642.457 L 608.109 666.945 M 552.342 627.349 L 563.818 656.558 M 541.089 598.052 L 531.523 600.131 M 529.723 568.799 L 531.523 600.131 M 736.689 466.037 L 706.9 475.914 M 736.689 466.037 L 714.875 414.728 M 699.635 410.451 L 673.916 428.435 M 699.635 410.451 L 664.057 367.524 M 648.231 367.785 L 628.73 392.375 M 648.231 367.785 L 601.862 336.828 M 754.188 526.586 L 722.848 528.236 M 617.754 392.947 L 601.385 419.724 M 617.754 392.947 L 572.102 371.068 M 561.805 374.914 L 554.246 405.374 M 561.805 374.914 L 511.688 367.775 M 503.024 374.539 L 504.973 405.862 M 503.024 374.539 L 453.08 382.799 M 709.313 629.125 L 680.047 617.792 M 709.313 629.125 L 722.704 580.305 M 499.746 409.971 L 504.569 440.981 M 499.746 409.971 L 457.145 421.924 M 453.437 427.443 L 467.58 455.459 M 453.437 427.443 L 416.591 451.94 M 414.764 458.333 L 436.851 480.629 M 414.764 458.333 L 387.257 492.99 M 531.523 600.131 L 533.446 631.455 M 529.723 568.799 L 521.783 599.161 M 742.97 400.742 L 714.875 414.728 M 742.97 400.742 L 713.307 349.15 M 686.978 346.087 L 664.057 367.524 M 686.978 346.087 L 643.799 305.135 M 617.694 309.73 L 601.862 336.828 M 617.694 309.73 L 564.605 282.839 M 754.188 526.586 L 746.715 471.335 M 583.307 341.753 L 572.102 371.068 M 583.307 341.753 L 529.775 326.171 M 513.56 336.447 L 511.688 367.775 M 513.56 336.447 L 457.82 337.682 M 445.445 352.359 L 453.08 382.799 M 445.445 352.359 L 392.656 370.297 M 686.331 674.23 L 709.313 629.125 M 753.547 586.104 L 722.704 580.305 M 753.547 586.104 L 759.337 530.652 M 445.64 392.725 L 457.145 421.924 M 445.64 392.725 L 400.67 415.971 M 396.65 427.706 L 416.591 451.94 M 396.65 427.706 L 361.029 463.676 M 628.091 691.144 L 658.616 659.113 M 576.599 685.916 L 608.109 666.945 M 564.142 657.11 L 576.599 685.916 M 512.815 595.238 L 521.783 599.161 M 529.723 568.799 L 512.815 595.238 M 739.925 332.524 L 713.307 349.15 M 739.925 332.524 L 705.292 281.336 M 664.549 281.59 L 643.799 305.135 M 664.549 281.59 L 616.722 242.447 M 577.754 254.343 L 564.605 282.839 M 577.754 254.343 L 520.729 230.514 M 777.508 465.275 L 746.715 471.335 M 777.508 465.275 L 762.541 407.677 M 536.727 295.567 L 529.775 326.171 M 536.727 295.567 L 478.009 285.883 M 455.247 306.404 L 457.82 337.682 M 455.247 306.404 L 396.335 314.824 M 380.797 341.24 L 392.656 370.297 M 380.797 341.24 L 327.143 366.984 M 790.69 532.037 L 759.337 530.652 M 384.028 389.363 L 400.67 415.971 M 384.028 389.363 L 339.333 422.692 M 738.347 641.039 L 709.313 629.125 M 738.347 641.039 L 755.227 587.902 M 514.19 629.69 L 533.446 631.455 M 505.491 588.743 L 512.815 595.238 M 529.723 568.799 L 505.491 588.743 M 731.067 263.432 L 705.292 281.336 M 731.067 263.432 L 694.74 212.482 M 636.299 217.918 L 616.722 242.447 M 636.299 217.918 L 586.917 179.487 M 532.473 201.411 L 520.729 230.514 M 532.473 201.411 L 474.162 178.709 M 792.607 398.679 L 762.541 407.677 M 792.607 398.679 L 772.739 340.157 M 481.981 254.751 L 478.009 285.883 M 481.981 254.751 L 420.43 249.172 M 390.763 283.939 L 396.335 314.824 M 390.763 283.939 L 330.383 297.125 M 790.69 532.037 L 789.752 472.533 M 713.035 690.716 L 738.347 641.039 M 785.653 595.596 L 755.227 587.902 M 785.653 595.596 L 796.762 537.131 M 648.494 714.991 L 683.417 678.343 M 589.473 714.537 L 627.379 691.715 M 541.194 695.881 L 576.599 685.916 M 496.01 621.744 L 513.725 629.493 M 500.525 580.308 L 505.491 588.743 M 529.723 568.799 L 500.525 580.308 M 720.515 194.578 L 694.74 212.482 M 606.494 154.958 L 586.917 179.487 M 720.515 194.578 L 685.882 143.39 M 485.906 149.606 L 474.162 178.709 M 606.494 154.958 L 558.667 115.815 M 485.906 149.606 L 428.881 125.777 M 802.331 329.704 L 772.739 340.157 M 802.331 329.704 L 780.766 270.963 M 422.879 217.884 L 420.43 249.172 M 422.879 217.884 L 360.441 213.767 M 821.093 470.893 L 789.752 472.533 M 821.093 470.893 L 815.611 409.333 M 827.788 541.86 L 796.762 537.131 M 767.113 653.588 L 738.347 641.039 M 767.113 653.588 L 787.6 597.714 M 506.839 660.201 L 535.129 662.794 M 481.338 608.782 L 495.804 621.612 M 498.4 570.753 L 500.525 580.308 M 529.723 568.799 L 498.4 570.753 M 712.5 126.764 L 685.882 143.39 M 579.417 92.2706 L 558.667 115.815 M 712.5 126.764 L 682.838 75.1722 M 579.417 92.2706 L 536.238 51.3182 M 810.358 260.51 L 780.766 270.963 M 810.358 260.51 L 790.49 201.987 M 846.834 406.166 L 815.611 409.333 M 846.834 406.166 L 839.756 343.994 M 827.788 541.86 L 834.863 480.463 M 740.095 706.613 L 767.113 653.588 M 817.44 607.435 L 787.6 597.714 M 817.44 607.435 L 834.424 548.01 M 669.368 738.426 L 707.831 698.064 M 602.845 742.93 L 646.214 716.819 M 546.043 726.887 L 588.635 714.9 M 479.409 648.377 L 505.435 659.762 M 471.373 591.93 L 481.183 608.594 M 499.321 561.007 L 498.4 570.753 M 710.933 61.1863 L 682.838 75.1722 M 710.933 61.1863 L 689.119 9.87703 M 820.556 192.99 L 790.49 201.987 M 820.556 192.99 L 805.589 135.392 M 870.979 340.827 L 839.756 343.994 M 870.979 340.827 L 865.497 279.267 M 866.082 483.673 L 834.863 480.463 M 866.082 483.673 L 871.717 421.353 M 864.703 556.264 L 834.424 548.01 M 795.578 666.805 L 767.113 653.588 M 795.578 666.805 L 819.542 609.837 M 499.832 690.792 L 536.458 694.149 M 457.339 629.005 L 478.592 647.855 M 467.085 572.828 L 471.284 591.703 M 836.382 129.331 L 805.589 135.392 M 836.382 129.331 L 828.909 74.0805 M 896.838 277.626 L 865.497 279.267 M 896.838 277.626 L 895.9 218.123 M 902.936 424.563 L 871.717 421.353 M 902.936 424.563 L 910.011 363.166 M 864.703 556.264 L 880.416 495.695 M 767.519 721.872 L 795.578 666.805 M 848.617 621.65 L 819.542 609.837 M 848.617 621.65 L 871.457 563.393 M 690.751 761.398 L 731.806 718.316 M 616.78 771.05 L 664.545 742.292 M 551.433 757.805 L 600.163 744.089 M 463.108 675.195 L 496.805 689.936 M 442.311 603.776 L 456.723 628.257 M 468.89 553.334 L 467.07 572.585 M 860.249 72.4302 L 828.909 74.0805 M 860.249 72.4302 L 861.728 21.8286 M 927.253 219.508 L 895.9 218.123 M 927.253 219.508 L 933.043 164.055 M 941.036 367.895 L 910.011 363.166 M 941.036 367.895 L 952.146 309.429 M 910.695 503.949 L 880.416 495.695 M 910.695 503.949 L 927.679 444.525 M 900.532 575.206 L 871.457 563.393 M 823.713 680.709 L 795.578 666.805 M 823.713 680.709 L 850.744 624.274 M 493.27 721.482 L 537.332 725.521 M 433.569 649.497 L 461.085 673.902 M 435.787 575.144 L 441.955 602.874 M 963.886 169.855 L 933.043 164.055 M 963.886 169.855 L 977.277 121.035 M 982.572 317.123 L 952.146 309.429 M 982.572 317.123 L 999.451 263.986 M 957.519 454.245 L 927.679 444.525 M 957.519 454.245 L 978.006 398.371 M 900.532 575.206 L 924.496 518.238 M 795.305 736.462 L 823.713 680.709 M 878.88 638.178 L 850.744 624.274 M 878.88 638.178 L 906.938 583.111 M 712.665 783.864 L 755.301 739.123 M 631.329 798.857 L 682.313 768.162 M 557.438 788.608 L 611.106 773.503 M 447.2 702.248 L 487.737 719.981 M 413.384 615.948 L 432.043 647.643 M 438.401 545.895 L 435.726 574.177 M 1006.54 132.368 L 977.277 121.035 M 1006.54 132.368 L 1026.63 92.9442 M 1028.49 275.901 L 999.451 263.986 M 1028.49 275.901 L 1051.47 230.795 M 1006.77 410.92 L 978.006 398.371 M 1006.77 410.92 L 1032.08 361.243 M 952.961 531.455 L 924.496 518.238 M 952.961 531.455 L 979.979 478.43 M 823.441 750.366 L 851.499 695.299 M 934.362 598.37 L 906.938 583.111 M 851.499 695.299 L 823.713 680.709 M 851.499 695.299 L 880.901 640.937 M 487.245 752.282 L 537.657 756.903 M 410.099 670.333 L 443.202 699.692 M 404.517 577.812 L 412.503 613.714 M 1077.84 247.81 L 1051.47 230.795 M 1077.84 247.81 L 1105.48 213.261 M 1058.79 377.729 L 1032.08 361.243 M 1058.79 377.729 L 1088.81 336.971 M 1007.04 494.326 L 979.979 478.43 M 1007.04 494.326 L 1038.11 448.031 M 851.906 763.583 L 878.923 710.558 M 934.362 598.37 L 965.178 547.459 M 878.923 710.558 L 851.499 695.299 M 907.942 656.865 L 880.901 640.937 M 878.923 710.558 L 909.739 659.647 M 907.942 656.865 L 939.998 606.725 M 735.117 805.792 L 778.285 760.493 M 646.523 826.317 L 699.471 794.44 M 564.117 819.273 L 621.403 803.15 M 431.766 729.575 L 478.146 749.863 M 384.637 628.539 L 407.084 666.669 M 407.83 538.799 L 404.367 575.416 M 1127.48 235.643 L 1105.48 213.261 M 1127.48 235.643 L 1156.59 213.164 M 1112.06 358.055 L 1088.81 336.971 M 1112.06 358.055 L 1144.96 328.471 M 1062.65 467.59 L 1038.11 448.031 M 1062.65 467.59 L 1097.33 430.712 M 880.672 776.132 L 905.983 726.455 M 991.006 565.288 L 965.178 547.459 M 991.006 565.288 L 1025.37 521.383 M 905.983 726.455 L 878.923 710.558 M 935.567 677.476 L 909.739 659.647 M 905.983 726.455 L 937.051 680.159 M 965.38 625.183 L 939.998 606.725 M 935.567 677.476 L 969.93 633.571 M 758.101 827.162 L 800.737 782.421 M 481.836 783.196 L 537.357 788.285 M 386.997 691.575 L 424.871 725.166 M 373.289 580.934 L 382.897 624.125 M 1163.02 354.138 L 1144.96 328.471 M 1163.02 354.138 L 1195.4 336.703 M 1117.89 454.423 L 1097.33 430.712 M 1117.89 454.423 L 1154.09 428.983 M 909.706 788.046 L 932.688 742.94 M 1048.42 542.682 L 1025.37 521.383 M 1048.42 542.682 L 1085.7 508.434 M 932.688 742.94 L 905.983 726.455 M 961.594 699.718 L 937.051 680.159 M 932.688 742.94 L 962.713 702.182 M 992.98 654.87 L 969.93 633.571 M 961.594 699.718 L 996.274 662.84 M 965.38 625.183 L 1000.81 582.135 M 781.596 847.969 L 822.651 804.886 M 662.379 853.401 L 715.987 821.126 M 571.511 849.773 L 631.003 833.029 M 416.88 757.203 L 467.961 779.548 M 356.114 641.631 L 381.796 685.256 M 377.159 532.149 L 372.993 576.198 M 1206.46 366.074 L 1195.4 336.703 M 1168.95 456.625 L 1154.09 428.983 M 1168.95 456.625 L 1203.19 443.185 M 938.972 799.379 L 959.059 759.956 M 985.129 777.429 L 959.059 759.956 M 1104.47 533.582 L 1085.7 508.434 M 1104.47 533.582 L 1142.43 510.853 M 959.059 759.956 L 932.688 742.94 M 985.959 723.266 L 962.713 702.182 M 959.059 759.956 L 986.701 725.406 M 1016.83 686.552 L 996.274 662.84 M 985.959 723.266 L 1018.86 693.682 M 1023.33 603.992 L 1000.81 582.135 M 992.98 654.87 L 1030.26 620.621 M 1023.33 603.992 L 1061.44 570.669 M 805.571 868.22 L 844.034 827.858 M 678.895 880.087 L 731.843 848.209 M 477.105 814.221 L 536.368 819.653 M 364.324 713.274 L 406.036 750.268 M 342.12 584.602 L 353.113 634.017 M 1210.66 473.667 L 1203.19 443.185 M 1210.66 473.667 L 1238.91 470.646 M 985.129 777.429 L 1009.1 749.529 M 1029.96 772.972 L 1009.1 749.529 M 1155.24 539.505 L 1142.43 510.853 M 1155.24 539.505 L 1190.37 528.6 M 968.431 810.2 L 985.129 777.429 M 1008.7 747.788 L 986.701 725.406 M 1036.92 719.349 L 1018.86 693.682 M 1008.7 747.788 L 1037.81 725.309 M 1049.03 645.77 L 1030.26 620.621 M 1016.83 686.552 L 1053.04 661.112 M 1079.59 596.271 L 1061.44 570.669 M 1049.03 645.77 L 1087 623.04 M 1079.59 596.271 L 1118.1 574.48 M 829.984 887.941 L 864.908 851.293 M 696.054 906.365 L 747.038 875.67 M 579.643 880.085 L 639.876 863.132 M 402.604 785.152 L 457.127 809.002 M 327.858 655.289 L 356.143 703.335 M 346.377 526.035 L 341.611 576.433 M 1237.7 502.007 L 1238.91 470.646 M 1029.96 772.972 L 1053.51 757.084 M 1195.59 559.546 L 1190.37 528.6 M 1195.59 559.546 L 1223.98 558.595 M 1010.94 795.279 L 985.129 777.429 M 998.045 820.591 L 1010.94 795.279 M 1010.94 795.279 L 1030.07 774.278 M 1053.51 752.486 L 1037.81 725.309 M 1067.9 688.754 L 1053.04 661.112 M 1036.92 719.349 L 1069.3 701.914 M 1099.8 651.693 L 1087 623.04 M 1067.9 688.754 L 1102.13 675.314 M 1130.2 603.439 L 1118.1 574.48 M 1099.8 651.693 L 1134.93 640.788 M 1130.2 603.439 L 1165.58 593.399 M 854.786 907.172 L 885.31 875.14 M 713.822 932.235 L 761.587 903.477 M 588.516 910.188 L 648.008 893.444 M 473.101 845.349 L 534.647 850.99 M 342.131 735.464 L 386.654 774.952 M 311.031 588.89 L 323.138 643.313 M 1067.12 785.364 L 1053.51 757.084 M 1220.49 589.784 L 1223.98 558.595 M 1036.55 813.419 L 1010.94 795.279 M 1027.77 830.648 L 1036.55 813.419 M 1049.97 798.543 L 1030.07 774.278 M 1036.55 813.419 L 1049.89 799.421 M 1049.97 798.543 L 1066.54 788.569 M 1080.36 731.285 L 1069.3 701.914 M 1053.51 752.486 L 1079.78 741.686 M 1109.6 705.795 L 1102.13 675.314 M 1080.36 731.285 L 1108.05 724.91 M 1140.15 671.733 L 1134.93 640.788 M 1109.6 705.795 L 1137.85 702.775 M 1170.04 624.463 L 1165.58 593.399 M 1140.15 671.733 L 1168.54 670.783 M 1170.04 624.463 L 1198.45 624.21 M 879.92 925.966 L 905.293 899.34 M 732.153 957.708 L 775.522 931.597 M 598.116 940.068 L 655.402 923.944 M 388.984 813.426 L 445.607 838.195 M 299.909 669.563 L 330.1 720.847 M 315.479 520.536 L 310.229 576.042 M 1067.12 785.364 L 1085.57 779.586 M 1062.02 831.754 L 1036.55 813.419 M 1057.58 840.476 L 1062.02 831.754 M 1069.05 824.275 L 1049.89 799.421 M 1062.02 831.754 L 1068.88 824.773 M 1078.45 817.606 L 1066.54 788.569 M 1069.05 824.275 L 1077.62 819.547 M 1087.39 772.133 L 1079.78 741.686 M 1110.59 756.19 L 1108.05 724.91 M 1087.39 772.133 L 1106.63 770.204 M 1136.64 734.135 L 1137.85 702.775 M 1110.59 756.19 L 1129.89 757.422 M 1165.05 701.971 L 1168.54 670.783 M 1136.64 734.135 L 1155.65 737.665 M 1194.19 655.303 L 1198.45 624.21 M 905.324 944.393 L 924.922 923.827 M 750.988 982.811 L 788.894 959.99 M 608.413 969.714 L 662.081 954.609 M 469.854 876.564 L 532.166 882.275 M 320.463 758.168 L 366.701 799.177 M 280.043 593.858 L 292.966 651.95 M 1090.28 810.613 L 1085.57 779.586 M 1078.45 817.606 L 1087.97 815.312 M 1104.98 801.544 L 1106.63 770.204 M 1090.28 810.613 L 1100.07 810.633 M 1123.15 788.073 L 1129.89 757.422 M 1104.98 801.544 L 1114.56 803.541 M 1145.3 767.291 L 1155.65 737.665 M 930.935 962.532 L 944.274 948.534 M 770.258 1007.58 L 801.768 988.611 M 619.356 999.128 L 668.086 985.412 M 467.373 907.849 L 528.918 913.49 M 376.055 842.023 L 433.384 867.101 M 272.3 684.486 L 303.654 737.746 M 284.467 515.716 L 278.864 574.963 M 1103.44 832.89 L 1114.56 803.541 M 1103.44 832.89 L 1123.06 808.394 M 1103.44 832.89 L 1129.65 815.63 M 1103.44 832.89 L 1133.7 824.545 M 1134.8 834.271 L 1133.7 824.545 M 1103.44 832.89 L 1134.8 834.271 M 1132.85 843.864 L 1134.8 834.271 M 1153.94 771.889 L 1172.72 746.747 M 956.683 980.475 L 963.436 973.389 M 789.887 1032.07 L 814.225 1017.42 M 630.884 1028.32 L 673.476 1016.33 M 465.652 939.185 L 524.915 944.617 M 363.831 870.928 L 420.454 895.697 M 299.353 781.39 L 346.167 822.91 M 249.18 599.55 L 262.6 659.879 M 809.791 1056.33 L 826.356 1046.36 M 642.921 1057.3 L 678.325 1047.34 M 464.663 970.554 L 520.184 975.642 M 352.312 900.121 L 406.835 923.972 M 278.818 805.123 L 325.056 846.132 M 245.062 700.075 L 276.807 753.998 M 253.352 511.622 L 247.533 573.151 M 829.879 1080.45 L 838.266 1075.4 M 655.377 1086.11 L 682.722 1078.41 M 464.363 1001.94 L 514.775 1006.56 M 341.478 929.576 L 392.558 951.92 M 258.865 829.347 L 303.388 868.835 M 218.214 716.327 L 249.568 769.586 M 218.464 605.988 L 232.051 667.069 M 668.157 1114.77 L 686.77 1109.53 M 464.688 1033.32 L 508.75 1037.36 M 331.293 959.261 L 377.673 979.549 M 239.484 854.031 L 281.196 891.026 M 191.768 733.226 L 221.96 784.51 M 187.915 613.179 L 201.335 673.507 M 222.146 508.284 L 216.255 570.58 M 681.156 1143.34 L 690.579 1140.68 M 465.562 1064.69 L 502.188 1068.05 M 321.701 989.143 L 362.239 1006.88 M 220.648 879.134 L 258.522 912.725 M 165.725 750.738 L 194.01 798.784 M 157.549 621.108 L 170.472 679.199 M 190.868 505.713 L 185.049 567.242 M 466.892 1096.04 L 495.181 1098.64 M 312.633 1019.19 L 346.33 1033.93 M 202.317 904.608 L 235.42 933.967 M 140.072 768.817 L 165.754 812.442 M 127.377 629.744 L 139.484 684.168 M 159.537 503.901 L 153.934 563.148 M 468.574 1127.38 L 487.83 1129.15 M 304.003 1049.36 L 330.03 1060.75 M 312.633 1019.19 L 304.003 1049.36 M 114.784 787.404 L 137.232 825.533 M 97.4021 639.04 L 108.395 688.456 M 128.172 502.822 L 122.922 558.328 M 468.574 1127.38 L 470.497 1158.71 M 470.497 1158.71 L 480.245 1159.6 M 304.003 1049.36 L 295.713 1079.63 M 276.238 1013.88 L 275.893 1045.26 M 67.6182 648.932 L 77.2262 692.123 M 96.7905 502.431 L 92.0242 552.829 M 470.497 1158.71 L 472.541 1190.02 M 449.679 1131.49 L 460.931 1160.79 M 275.807 1045.9 L 276.521 1077.27 M 38.0115 659.343 L 45.9982 695.245 M 65.4077 502.666 L 61.2418 546.716 M 460.948 1160.86 L 472.541 1190.02 M 432.893 1141.09 L 452.434 1165.65 M 247.798 1050.64 L 257.456 1080.5 M 34.0338 503.449 L 30.5709 540.065 M 452.527 1165.85 L 472.541 1190.02 M 222.316 1063.2 L 240.111 1089.05 M 452.527 1165.85 L 446.053 1173.19 M 446.053 1173.19 L 472.541 1190.02 M 419.63 1156.26 L 446.053 1173.19 M 446.053 1173.19 L 442.156 1182.17 M 442.156 1182.17 L 472.541 1190.02 M 411.801 1174.2 L 442.156 1182.17 M 442.156 1182.17 L 441.215 1191.92 M 411.801 1174.2 L 409.792 1193.44" />
</svg>
