<?xml version="1.0"?>
<svg width="1215" height="1238" version="1.1" xmlns="http://www.w3.org/2000/svg" >
<defs>
<style type="text/css"><![CDATA[
.m {stroke:rgb(255,0,0);stroke-width:1.547500;}
.v {stroke:rgb(0,0,255);stroke-width:1.547500;}
.b {stroke:rgb(0,0,0);stroke-width:3.095000;fill:white}
.n {stroke:rgb(128,128,128);stroke-width:1.547500}
.t {stroke:rgb(0,128,0);stroke-width:1.547500;}
.c {stroke:rgb(128,128,128);stroke-width:1.547500;stroke-dasharray:12.150000, 12.150000;}
]]></style>
</defs>
<path fill="none" style="stroke:black;stroke-width:3.095000;" d=" M 874.095 620.518 L 908.343 621.64 M 908.322 622.166 L 874.095 620.518 M 882.711 602.428 L 915.444 612.565 M 915.207 614.661 L 882.881 603.293 M 912.459 578.429 L 895.738 588.139 M 915.444 612.565 L 923.908 607.649 M 931.327 574.195 L 912.459 578.429 M 923.908 607.649 L 933.46 605.506 M 950.594 575.831 L 931.327 574.195 M 933.46 605.506 L 943.213 606.334 M 968.478 583.184 L 950.594 575.831 M 943.213 606.334 L 952.267 610.057 M 983.323 595.575 L 968.478 583.184 M 959.782 616.329 L 983.323 595.575 M 952.267 610.057 L 959.782 616.329 M 963.579 629.754 L 993.242 619.505 M 984.22 602.402 L 959.012 621.096 M 965.256 639.398 L 996.634 638.786 M 993.321 619.736 L 963.579 629.754 M 968.244 788.258 L 936.664 774.957 M 936.664 774.957 L 968.346 788.012 M 968.346 788.012 L 943.886 768.349 M 953.703 801.402 L 927.757 779.018 M 927.757 779.018 L 953.877 801.199 M 934.541 810.594 L 917.672 780.767 M 918.033 780.138 L 936.048 809.287 M 896.432 807.657 L 915.261 812.058 M 917.672 780.767 L 908.141 778.539 M 879.798 797.797 L 896.432 807.657 M 908.141 778.539 L 899.72 773.548 M 866.898 783.393 L 879.798 797.797 M 899.72 773.548 L 893.19 766.256 M 858.926 765.776 L 866.898 783.393 M 893.19 766.256 L 889.154 757.338 M 887.987 747.619 L 856.621 746.578 M 888.649 728.851 L 858.14 721.491 M 856.517 740.759 L 887.827 738.605 M 894.239 685.672 L 864.349 676.105 M 861.325 695.203 L 892.708 695.341 M 870.602 639.536 L 901.973 640.444 M 844.371 610.447 L 882.711 602.428 M 882.881 603.293 L 844.371 610.447 M 856.228 583.638 L 895.377 584.902 M 895.738 588.139 L 856.707 584.858 M 897.816 545.809 L 874.259 561.686 M 895.377 584.902 L 911.411 574.095 M 924.93 537.332 L 897.816 545.809 M 911.411 574.095 L 929.866 568.325 M 953.335 536.965 L 924.93 537.332 M 929.866 568.325 L 949.201 568.075 M 980.659 544.738 L 953.335 536.965 M 949.201 568.075 L 967.8 573.366 M 1004.62 560.001 L 980.659 544.738 M 984.108 583.755 L 1004.62 560.001 M 967.8 573.366 L 984.108 583.755 M 993.242 619.505 L 1022.83 609.028 M 1009.57 583.902 L 984.22 602.402 M 996.634 638.786 L 1028.01 637.934 M 1023.14 609.946 L 993.321 619.736 M 953.877 801.199 L 971.29 827.309 M 992.398 808.296 L 968.244 788.258 M 967.943 831.053 L 934.541 810.594 M 936.048 809.287 L 970.509 827.906 M 970.509 827.906 L 953.703 801.402 M 937.608 845.545 L 913.765 814.468 M 915.261 812.058 L 941.415 841.216 M 881.986 837.368 L 909.2 845.518 M 913.765 814.468 L 895.241 808.921 M 858.241 821.774 L 881.986 837.368 M 895.241 808.921 L 879.078 798.306 M 839.947 800.04 L 858.241 821.774 M 879.078 798.306 L 866.627 783.513 M 828.635 773.982 L 839.947 800.04 M 866.627 783.513 L 858.926 765.776 M 856.621 746.578 L 825.247 745.777 M 858.14 721.491 L 827.576 714.365 M 825.192 742.672 L 856.517 740.759 M 864.349 676.105 L 834.387 666.767 M 829.943 694.825 L 861.325 695.203 M 839.24 638.388 L 870.602 639.536 M 814.535 600.712 L 856.228 583.638 M 856.707 584.858 L 814.535 600.712 M 828.661 565.574 L 872.944 557.28 M 874.259 561.686 L 829.536 567.13 M 847.583 530.261 L 892.625 529.293 M 872.944 557.28 L 895.04 539.426 M 895.04 539.426 L 850.14 535.718 M 905.632 486.158 L 873.64 504.303 M 892.625 529.293 L 917.336 515.278 M 941.283 477.116 L 905.632 486.158 M 917.336 515.278 L 944.872 508.294 M 978.057 477.822 L 941.283 477.116 M 944.872 508.294 L 973.275 508.839 M 1013.33 488.225 L 978.057 477.822 M 1000.52 516.874 L 1013.33 488.225 M 973.275 508.839 L 1000.52 516.874 M 1022.83 609.028 L 1052.29 598.22 M 1035.13 565.688 L 1009.57 583.902 M 1028.01 637.934 L 1059.37 636.728 M 1053.06 600.492 L 1023.14 609.946 M 971.29 827.309 L 988.996 853.22 M 1016.32 828.605 L 992.398 808.296 M 977.245 866.961 L 937.608 845.545 M 941.415 841.216 L 982.979 858.6 M 982.979 858.6 L 967.943 831.053 M 934.527 885.141 L 905.665 850.548 M 909.2 845.518 L 941.765 876.652 M 863.842 867.299 L 897.984 880.977 M 905.665 850.548 L 879.294 839.984 M 834.531 845.082 L 863.842 867.299 M 879.294 839.984 L 856.655 822.823 M 812.136 815.906 L 834.531 845.082 M 856.655 822.823 L 839.358 800.288 M 798.252 781.847 L 812.136 815.906 M 839.358 800.288 L 828.635 773.982 M 825.247 745.777 L 793.867 745.329 M 827.576 714.365 L 796.934 707.583 M 793.847 744.234 L 825.192 742.672 M 834.387 666.767 L 804.322 657.767 M 798.568 694.094 L 829.943 694.825 M 807.892 636.887 L 839.24 638.388 M 784.561 591.412 L 828.661 565.574 M 829.536 567.13 L 784.561 591.412 M 799.863 548.568 L 847.583 530.261 M 850.14 535.718 L 801.186 550.407 M 818.968 504.565 L 868.533 492.093 M 873.64 504.303 L 822.946 510.82 M 881.25 442.589 L 846.396 469.846 M 868.533 492.093 L 897.506 469.435 M 921.556 424.336 L 881.25 442.589 M 897.506 469.435 L 931.01 454.262 M 965.033 416.121 L 921.556 424.336 M 931.01 454.262 L 967.151 447.433 M 1009.22 418.409 L 965.033 416.121 M 1003.88 449.335 L 1009.22 418.409 M 967.151 447.433 L 1003.88 449.335 M 1052.29 598.22 L 1081.59 586.983 M 1060.95 547.848 L 1035.13 565.688 M 1059.37 636.728 L 1090.71 635.066 M 1083.12 591.474 L 1053.06 600.492 M 988.996 853.22 L 1007.08 878.872 M 1039.95 849.259 L 1016.32 828.605 M 978.61 911.008 L 934.527 885.141 M 941.765 876.652 L 989.057 896.037 M 989.057 896.037 L 977.245 866.961 M 922.571 929.455 L 891.387 888.961 M 897.984 880.977 L 934.709 916.525 M 840.915 897.016 L 879.8 918.127 M 891.387 888.961 L 859.063 871.412 M 808.117 867.316 L 840.915 897.016 M 859.063 871.412 L 831.8 846.724 M 783.263 830.71 L 808.117 867.316 M 831.8 846.724 L 811.14 816.295 M 767.759 789.269 L 783.263 830.71 M 811.14 816.295 L 798.252 781.847 M 793.867 745.329 L 762.483 745.338 M 796.934 707.583 L 766.196 701.248 M 762.483 745.338 L 793.847 744.234 M 804.322 657.767 L 774.128 649.206 M 767.207 692.907 L 798.568 694.094 M 776.569 634.93 L 807.892 636.887 M 754.43 582.636 L 799.863 548.568 M 801.186 550.407 L 754.43 582.636 M 769.788 532.959 L 818.968 504.565 M 822.946 510.82 L 771.564 535.001 M 787.059 481.015 L 838.18 456.286 M 846.396 469.846 L 792.493 487.713 M 847.203 400.22 L 813.006 437.546 M 838.18 456.286 L 868.07 423.662 M 888.24 370.577 L 847.203 400.22 M 868.07 423.662 L 903.937 397.753 M 934.421 349.841 L 888.24 370.577 M 903.937 397.753 L 944.301 379.629 M 983.841 338.868 L 934.421 349.841 M 987.496 370.038 L 983.841 338.868 M 944.301 379.629 L 987.496 370.038 M 1110.69 575.237 L 1087.08 530.461 M 1081.59 586.983 L 1110.69 575.237 M 1087.08 530.461 L 1060.95 547.848 M 1090.71 635.066 L 1122.01 632.858 M 1113.34 582.983 L 1083.12 591.474 M 1007.08 878.872 L 1025.6 904.204 M 1063.22 870.323 L 1039.95 849.259 M 968.206 963.254 L 922.571 929.455 M 934.709 916.525 L 985.666 941.588 M 985.666 941.588 L 978.61 911.008 M 899.052 977.026 L 869.122 928.766 M 879.8 918.127 L 917.66 960.452 M 812.42 925.645 L 853.112 955.759 M 869.122 928.766 L 833.556 902.445 M 778.655 887.926 L 812.42 925.645 M 833.556 902.445 L 804.044 869.478 M 753.212 844.162 L 778.655 887.926 M 804.044 869.478 L 781.806 831.226 M 737.141 796.157 L 753.212 844.162 M 781.806 831.226 L 767.759 789.269 M 731.104 745.895 L 737.141 796.157 M 766.196 701.248 L 735.353 695.451 M 774.128 649.206 L 743.79 641.172 M 735.871 691.172 L 767.207 692.907 M 745.286 632.427 L 776.569 634.93 M 724.129 574.463 L 769.788 532.959 M 771.564 535.001 L 724.129 574.463 M 738.493 519.076 L 787.059 481.015 M 792.493 487.713 L 740.681 521.223 M 744.355 454.194 L 791.973 414.952 M 813.006 437.546 L 758.887 467.186 M 790.861 353.258 L 763.469 401.819 M 791.973 414.952 L 816.844 370.86 M 825.799 309.809 L 790.861 353.258 M 816.844 370.86 L 848.567 331.409 M 867.349 272.633 L 825.799 309.809 M 848.567 331.409 L 886.294 297.654 M 914.401 242.724 L 867.349 272.633 M 886.294 297.654 L 929.016 270.496 M 965.698 220.88 L 914.401 242.724 M 975.592 250.663 L 965.698 220.88 M 929.016 270.496 L 975.592 250.663 M 1122.01 632.858 L 1153.27 630.025 M 1143.71 575.096 L 1113.34 582.983 M 1024.46 988.601 L 968.206 963.254 M 1025.6 904.204 L 1086.06 891.847 M 1086.06 891.847 L 1063.22 870.323 M 941.974 1021.35 L 899.052 977.026 M 917.66 960.452 L 969.036 994.627 M 807.127 995.024 L 850.728 1029.77 M 850.728 1029.77 L 828.627 972.162 M 853.112 955.759 L 888.239 1006.49 M 769.77 953.636 L 807.127 995.024 M 828.627 972.162 L 794.708 934.583 M 739.655 906.716 L 769.77 953.636 M 794.708 934.583 L 767.364 891.979 M 717.587 855.515 L 739.655 906.716 M 767.364 891.979 L 747.327 845.491 M 704.156 801.403 L 717.587 855.515 M 747.327 845.491 L 735.132 796.358 M 699.721 745.826 L 704.156 801.403 M 735.132 796.358 L 731.104 745.895 M 735.353 695.451 L 704.4 690.269 M 743.79 641.172 L 713.298 633.746 M 704.576 688.813 L 735.871 691.172 M 714.058 629.3 L 745.286 632.427 M 693.656 566.957 L 738.493 519.076 M 740.681 521.223 L 693.656 566.957 M 700.707 503.161 L 744.355 454.194 M 758.887 467.186 L 708.649 509.365 M 697.718 433.774 L 737.676 381.751 M 763.469 401.819 L 714.282 445.219 M 723.296 317.75 L 707.028 374.995 M 737.676 381.751 L 752.916 328.121 M 746.289 262.86 L 723.296 317.75 M 752.916 328.121 L 774.458 276.697 M 775.677 211.112 L 746.289 262.86 M 774.458 276.697 L 801.99 228.216 M 811.039 163.246 L 775.677 211.112 M 801.99 228.216 L 835.12 183.373 M 851.868 119.95 L 811.039 163.246 M 873.371 142.81 L 851.868 119.95 M 835.12 183.373 L 873.371 142.81 M 1153.27 630.025 L 1184.45 626.508 M 1174.26 567.877 L 1143.71 575.096 M 994.274 1060.95 L 941.974 1021.35 M 969.036 994.627 L 1029.72 1019.54 M 1029.72 1019.54 L 1024.46 988.601 M 783.389 1075.24 L 824.153 1118.6 M 824.153 1118.6 L 807.5 1055.15 M 888.239 1006.49 L 935.432 1052.05 M 748.099 1027.32 L 783.389 1075.24 M 807.5 1055.15 L 774.438 1010.26 M 718.788 975.529 L 748.099 1027.32 M 774.438 1010.26 L 746.978 961.734 M 695.878 920.604 L 718.788 975.529 M 746.978 961.734 L 725.514 910.278 M 679.696 863.335 L 695.878 920.604 M 725.514 910.278 L 710.354 856.625 M 670.475 804.543 L 679.696 863.335 M 710.354 856.625 L 701.715 801.544 M 668.346 745.069 L 670.475 804.543 M 701.715 801.544 L 699.721 745.826 M 704.4 690.269 L 673.341 685.768 M 713.298 633.746 L 682.65 626.99 M 673.341 685.768 L 704.576 688.813 M 682.907 625.489 L 714.058 629.3 M 660.242 558.165 L 700.707 503.161 M 708.649 509.365 L 663.016 560.165 M 661.375 491.585 L 697.718 433.774 M 714.282 445.219 L 669.91 497.123 M 676.231 368.957 L 666.562 429.999 M 690.328 308.783 L 676.231 368.957 M 707.028 374.995 L 720.603 317.053 M 708.781 249.798 L 690.328 308.783 M 720.603 317.053 L 738.371 260.256 M 731.489 192.318 L 708.781 249.798 M 738.371 260.256 L 760.237 204.907 M 758.332 136.648 L 731.489 192.318 M 760.237 204.907 L 786.085 151.302 M 789.167 83.0864 L 758.332 136.648 M 815.776 99.7272 L 789.167 83.0864 M 786.085 151.302 L 815.776 99.7272 M 1215.55 622.263 L 1204.96 561.373 M 1184.45 626.508 L 1215.55 622.263 M 1204.96 561.373 L 1174.26 567.877 M 725.467 1162.36 L 755.119 1216.58 M 755.119 1216.58 L 753.534 1148.32 M 935.432 1052.05 L 990.717 1092.13 M 990.717 1092.13 L 994.274 1060.95 M 699.851 1106.11 L 725.467 1162.36 M 753.534 1148.32 L 728.869 1094.16 M 678.41 1048.15 L 699.851 1106.11 M 728.869 1094.16 L 708.222 1038.34 M 661.256 988.772 L 678.41 1048.15 M 708.222 1038.34 L 691.704 981.168 M 648.482 928.303 L 661.256 988.772 M 691.704 981.168 L 679.404 922.942 M 640.155 867.063 L 648.482 928.303 M 679.404 922.942 L 671.386 863.974 M 636.32 805.379 L 640.155 867.063 M 671.386 863.974 L 667.694 804.577 M 636.998 743.579 L 636.32 805.379 M 667.694 804.577 L 668.346 745.069 M 642.185 681.994 L 636.998 743.579 M 682.65 626.99 L 651.853 620.951 M 651.853 620.951 L 682.907 625.489 M 626.353 551.798 L 661.375 491.585 M 669.91 497.123 L 629.187 553.637 M 630.073 489.335 L 663.606 428.28 M 666.562 429.999 L 630.073 489.335 M 635.977 364.336 L 632.258 426.799 M 663.606 428.28 L 667.28 366.586 M 641.229 301.983 L 635.977 364.336 M 667.28 366.586 L 672.467 305 M 648.009 239.778 L 641.229 301.983 M 672.467 305 L 679.164 243.561 M 656.314 177.757 L 648.009 239.778 M 679.164 243.561 L 687.367 182.304 M 666.139 115.96 L 656.314 177.757 M 687.367 182.304 L 697.071 121.267 M 677.478 54.4218 L 666.139 115.96 M 697.071 121.267 L 708.27 60.4872 M 58.3012 360.86 L 0 398.981 M 0 398.981 L 26.9717 415.026 M 708.27 60.4872 L 720.957 0 M 720.957 0 L 677.478 54.4218 M 587.841 1176.72 L 591.834 1239.17 M 623.126 1236.78 L 619.183 1175.1 M 591.834 1239.17 L 623.126 1236.78 M 585.382 1114.2 L 587.841 1176.72 M 619.183 1175.1 L 616.754 1113.35 M 584.459 1051.63 L 585.382 1114.2 M 616.754 1113.35 L 615.843 1051.55 M 585.072 989.058 L 584.459 1051.63 M 615.843 1051.55 L 616.448 989.751 M 587.22 926.521 L 585.072 989.058 M 616.448 989.751 L 618.569 927.984 M 590.903 864.056 L 587.22 926.521 M 618.569 927.984 L 622.207 866.287 M 596.117 801.7 L 590.903 864.056 M 622.207 866.287 L 627.357 804.699 M 602.861 739.49 L 596.117 801.7 M 627.357 804.699 L 634.018 743.255 M 611.13 677.465 L 602.861 739.49 M 634.018 743.255 L 642.185 681.994 M 620.918 615.662 L 660.242 558.165 M 663.016 560.165 L 620.918 615.662 M 598.724 487.854 L 595.05 549.548 M 600.882 426.088 L 598.724 487.854 M 632.258 426.799 L 632.908 364.229 M 601.524 364.288 L 600.882 426.088 M 632.908 364.229 L 632.021 301.661 M 600.649 302.491 L 601.524 364.288 M 632.021 301.661 L 629.6 239.134 M 598.257 240.734 L 600.649 302.491 M 629.6 239.134 L 625.644 176.686 M 594.35 179.054 L 598.257 240.734 M 625.644 176.686 L 620.157 114.353 M 620.157 114.353 L 594.35 179.054 M 473.233 198.366 L 456.642 130.713 M 456.642 130.713 L 414.802 84.1845 M 414.802 84.1845 L 433.05 151.41 M 364.237 179.135 L 323.569 122.581 M 323.569 122.581 L 309.418 150.594 M 85.2729 376.906 L 58.3012 360.86 M 26.9717 415.026 L 54.3291 430.405 M 455.909 1217.64 L 479.002 1159.48 M 426.885 1205.7 L 455.909 1217.64 M 449.695 1148.26 L 426.885 1205.7 M 479.002 1159.48 L 500.662 1100.78 M 471.087 1090.28 L 449.695 1148.26 M 500.662 1100.78 L 520.874 1041.56 M 491.051 1031.79 L 471.087 1090.28 M 520.874 1041.56 L 539.626 981.86 M 509.572 972.824 L 491.051 1031.79 M 539.626 981.86 L 556.908 921.72 M 526.641 913.424 L 509.572 972.824 M 556.908 921.72 L 572.708 861.174 M 542.247 853.623 L 526.641 913.424 M 572.708 861.174 L 587.017 800.259 M 556.38 793.457 L 542.247 853.623 M 587.017 800.259 L 599.827 739.01 M 569.032 732.963 L 556.38 793.457 M 599.827 739.01 L 611.13 677.465 M 580.195 672.176 L 569.032 732.963 M 629.187 553.637 L 589.863 611.133 M 589.863 611.133 L 626.353 551.798 M 595.05 549.548 L 595.728 487.748 M 564.355 488.55 L 563.702 548.058 M 595.728 487.748 L 591.894 426.064 M 560.662 429.154 L 564.355 488.55 M 591.894 426.064 L 583.567 364.824 M 552.645 370.185 L 560.662 429.154 M 583.567 364.824 L 570.793 304.355 M 540.344 311.959 L 552.645 370.185 M 570.793 304.355 L 553.639 244.98 M 523.827 254.786 L 540.344 311.959 M 553.639 244.98 L 532.197 187.015 M 532.197 187.015 L 523.827 254.786 M 483.95 265.806 L 473.233 198.366 M 433.05 151.41 L 448.66 217.887 M 399.376 237.685 L 364.237 179.135 M 309.418 150.594 L 348.737 206.424 M 296.617 241.078 L 241.332 200.997 M 241.332 200.997 L 237.775 232.178 M 111.848 393.601 L 85.2729 376.906 M 54.3291 430.405 L 82.0515 445.115 M 26.3049 623.659 L 38.3868 684.27 M 57.2866 618.652 L 26.3049 623.659 M 38.3868 684.27 L 68.9204 677.015 M 352.551 1103.29 L 394.293 1057.72 M 330.197 1081.27 L 352.551 1103.29 M 370.391 1037.38 L 330.197 1081.27 M 394.293 1057.72 L 432.598 1009.22 M 407.274 990.677 L 370.391 1037.38 M 432.598 1009.22 L 467.259 958.047 M 440.651 941.406 L 407.274 990.677 M 467.259 958.047 L 498.094 904.485 M 470.342 889.831 L 440.651 941.406 M 498.094 904.485 L 524.937 848.815 M 496.189 836.226 L 470.342 889.831 M 524.937 848.815 L 547.645 791.335 M 518.055 780.877 L 496.189 836.226 M 547.645 791.335 L 566.097 732.35 M 535.823 724.08 L 518.055 780.877 M 566.097 732.35 L 580.195 672.176 M 563.702 548.058 L 561.573 488.585 M 530.333 491.583 L 532.327 547.301 M 561.573 488.585 L 552.352 429.792 M 521.694 436.503 L 530.333 491.583 M 552.352 429.792 L 536.17 372.523 M 506.534 382.849 L 521.694 436.503 M 536.17 372.523 L 513.26 317.599 M 485.07 331.393 L 506.534 382.849 M 513.26 317.599 L 483.95 265.806 M 457.611 282.87 L 485.07 331.393 M 448.66 217.887 L 457.611 282.87 M 424.922 298.103 L 399.376 237.685 M 348.737 206.424 L 381.321 263.355 M 343.81 286.638 L 296.617 241.078 M 237.775 232.178 L 290.075 271.772 M 263.013 298.5 L 202.332 273.585 M 202.332 273.585 L 207.586 304.526 M 138.025 410.912 L 111.848 393.601 M 82.0515 445.115 L 110.11 459.174 M 88.3769 614.37 L 57.2866 618.652 M 68.9204 677.015 L 99.2761 669.048 M 272.217 1031.18 L 324.384 1002.54 M 258.788 1002.82 L 272.217 1031.18 M 307.662 975.985 L 258.788 1002.82 M 324.384 1002.54 L 372.755 967.874 M 352.978 943.505 L 307.662 975.985 M 372.755 967.874 L 416.635 927.673 M 394.088 905.843 L 352.978 943.505 M 416.635 927.673 L 455.396 882.516 M 430.402 863.537 L 394.088 905.843 M 455.396 882.516 L 488.483 833.05 M 461.399 817.195 L 430.402 863.537 M 488.483 833.05 L 515.421 779.985 M 486.636 767.48 L 461.399 817.195 M 515.421 779.985 L 535.823 724.08 M 549.398 666.138 L 505.75 715.105 M 503.509 713.012 L 549.398 666.138 M 558.707 607.359 L 527.472 604.314 M 527.648 602.858 L 558.707 607.359 M 532.327 547.301 L 527.892 491.724 M 496.917 496.769 L 500.944 547.232 M 527.892 491.724 L 514.461 437.612 M 484.722 447.636 L 496.917 496.769 M 514.461 437.612 L 492.394 386.412 M 464.685 401.148 L 484.722 447.636 M 492.394 386.412 L 462.279 339.491 M 437.341 358.544 L 464.685 401.148 M 462.279 339.491 L 424.922 298.103 M 403.422 320.965 L 437.341 358.544 M 381.321 263.355 L 403.422 320.965 M 378.937 337.368 L 343.81 286.638 M 290.075 271.772 L 332.997 316.101 M 314.389 332.674 L 263.013 298.5 M 207.586 304.526 L 263.843 329.873 M 246.383 351.538 L 185.947 339.095 M 185.947 339.095 L 198.467 367.873 M 163.816 428.793 L 138.025 410.912 M 110.11 459.174 L 138.47 472.614 M 119.553 610.771 L 88.3769 614.37 M 99.2761 669.048 L 129.45 660.418 M 103.731 681.126 L 130.945 729.786 M 132.282 668.097 L 103.731 681.126 M 130.945 729.786 L 156.992 712.279 M 284.407 948.419 L 335.704 926.575 M 274.512 918.636 L 284.407 948.419 M 321.089 898.802 L 274.512 918.636 M 335.704 926.575 L 382.756 896.665 M 363.811 871.645 L 321.089 898.802 M 382.756 896.665 L 424.306 859.489 M 401.538 837.89 L 363.811 871.645 M 424.306 859.489 L 459.244 816.041 M 433.261 798.439 L 401.538 837.89 M 459.244 816.041 L 486.636 767.48 M 458.132 754.347 L 433.261 798.439 M 505.75 715.105 L 458.132 754.347 M 452.536 747.784 L 503.509 713.012 M 518.75 659.381 L 474.123 701.994 M 472.298 699.996 L 518.75 659.381 M 527.472 604.314 L 496.177 601.955 M 496.695 597.677 L 527.648 602.858 M 500.944 547.232 L 494.908 496.97 M 494.908 496.97 L 478.836 448.965 M 450.242 461.901 L 464.289 503.858 M 478.836 448.965 L 453.393 405.201 M 428.004 423.649 L 450.242 461.901 M 453.393 405.201 L 419.629 367.482 M 398.493 390.682 L 428.004 423.649 M 419.629 367.482 L 378.937 337.368 M 362.927 364.361 L 398.493 390.682 M 332.997 316.101 L 362.927 364.361 M 352.249 375 L 314.389 332.674 M 263.843 329.873 L 309.477 363.671 M 297.34 376.602 L 246.383 351.538 M 198.467 367.873 L 253.439 382.118 M 242.992 397.089 L 186.372 392.72 M 186.372 392.72 L 204.271 418.5 M 189.246 447.185 L 163.816 428.793 M 138.47 472.614 L 167.093 485.486 M 150.796 607.795 L 119.553 610.771 M 129.45 660.418 L 159.445 651.188 M 161.087 655.64 L 132.282 668.097 M 156.992 712.279 L 182.685 694.257 M 241.827 868.325 L 292.13 862.64 M 241.489 836.943 L 241.827 868.325 M 285.455 831.974 L 241.489 836.943 M 292.13 862.64 L 340.245 846.903 M 327.509 818.22 L 285.455 831.974 M 340.245 846.903 L 384.186 821.766 M 365.915 796.249 L 327.509 818.22 M 384.186 821.766 L 422.139 788.265 M 399.087 766.968 L 365.915 796.249 M 422.139 788.265 L 452.536 747.784 M 474.123 701.994 L 425.656 731.586 M 421.525 725.431 L 472.298 699.996 M 488.258 651.955 L 443.674 687.128 M 442.307 685.322 L 488.258 651.955 M 496.177 601.955 L 464.841 600.22 M 465.852 591.879 L 496.695 597.677 M 438.181 547.798 L 469.565 547.789 M 464.289 503.858 L 448.786 462.417 M 420.909 476.832 L 433.796 511.28 M 448.786 462.417 L 423.932 425.811 M 400.249 446.403 L 420.909 476.832 M 423.932 425.811 L 391.134 396.111 M 372.985 421.715 L 400.249 446.403 M 391.134 396.111 L 352.249 375 M 340.662 404.166 L 372.985 421.715 M 309.477 363.671 L 340.662 404.166 M 334.064 412.15 L 297.34 376.602 M 253.439 382.118 L 297.521 407.985 M 290.283 416.475 L 242.992 397.089 M 204.271 418.5 L 254.803 426.165 M 249.07 434.526 L 197.972 433.389 M 197.972 433.389 L 219.425 456.296 M 214.351 466.018 L 189.246 447.185 M 167.093 485.486 L 195.936 497.856 M 182.085 605.365 L 150.796 607.795 M 159.445 651.188 L 189.275 641.435 M 190.106 643.688 L 161.087 655.64 M 182.685 694.257 L 208.059 675.788 M 237.575 822.387 L 281.805 823.589 M 242.153 791.339 L 237.575 822.387 M 278.919 792.338 L 242.153 791.339 M 281.805 823.589 L 325.067 814.309 M 314.881 784.624 L 278.919 792.338 M 325.067 814.309 L 364.913 795.073 M 348.004 768.634 L 314.881 784.624 M 364.913 795.073 L 399.087 766.968 M 376.411 745.272 L 348.004 768.634 M 425.656 731.586 L 376.411 745.272 M 371.007 733.19 L 421.525 725.431 M 443.674 687.128 L 396.418 706.601 M 393.728 701.208 L 442.307 685.322 M 457.92 643.922 L 414.468 670.834 M 413.554 669.3 L 457.92 643.922 M 464.841 600.22 L 433.48 599.033 M 435.114 585.544 L 465.852 591.879 M 469.565 547.789 L 438.201 548.894 M 406.801 547.35 L 438.181 547.798 M 433.796 511.28 L 419.912 477.221 M 392.69 492.839 L 403.414 519.145 M 419.912 477.221 L 397.518 448.045 M 375.393 470.304 L 392.69 492.839 M 397.518 448.045 L 368.207 425.827 M 352.754 453.143 L 375.393 470.304 M 368.207 425.827 L 334.064 412.15 M 326.384 442.579 L 352.754 453.143 M 297.521 407.985 L 326.384 442.579 M 322.848 447.608 L 290.283 416.475 M 254.803 426.165 L 294.441 447.582 M 290.633 451.911 L 249.07 434.526 M 219.425 456.296 L 264.106 462.073 M 263.796 462.588 L 218.928 458.505 M 218.928 458.505 L 241.551 480.257 M 239.179 485.215 L 214.351 466.018 M 195.936 497.856 L 224.955 509.805 M 213.406 603.389 L 182.085 605.365 M 189.275 641.435 L 218.96 631.249 M 219.295 632.159 L 190.106 643.688 M 208.059 675.788 L 233.162 656.952 M 231.748 752.693 L 267.271 762.227 M 243.853 723.738 L 231.748 752.693 M 271.29 731.101 L 243.853 723.738 M 267.271 762.227 L 304.05 762.029 M 299.698 730.949 L 271.29 731.101 M 304.05 762.029 L 339.469 752.115 M 327.054 723.292 L 299.698 730.949 M 339.469 752.115 L 371.007 733.19 M 351.413 708.674 L 327.054 723.292 M 396.418 706.601 L 351.413 708.674 M 370.402 680.212 L 348.75 698.603 M 348.75 698.603 L 393.728 701.208 M 414.468 670.834 L 370.402 680.212 M 368.979 675.84 L 413.554 669.3 M 427.726 635.36 L 386.466 653.452 M 385.957 652.245 L 427.726 635.36 M 433.48 599.033 L 402.105 598.302 M 404.472 578.762 L 435.114 585.544 M 438.201 548.894 L 406.856 550.455 M 375.428 546.549 L 406.801 547.35 M 403.414 519.145 L 392.101 493.087 M 365.422 509.614 L 373.122 527.351 M 392.101 493.087 L 373.808 471.353 M 352.97 494.82 L 365.422 509.614 M 373.808 471.353 L 350.062 455.759 M 336.807 484.206 L 352.97 494.82 M 350.062 455.759 L 322.848 447.608 M 318.284 478.658 L 336.807 484.206 M 294.441 447.582 L 318.284 478.658 M 316.788 481.069 L 290.633 451.911 M 264.106 462.073 L 297.507 482.532 M 297.507 482.532 L 263.796 462.588 M 241.551 480.257 L 279.559 489.726 M 278.515 491.425 L 240.05 484.029 M 240.05 484.029 L 264.047 504.255 M 263.789 504.689 L 239.179 485.215 M 224.955 509.805 L 254.108 521.427 M 244.748 601.767 L 213.406 603.389 M 218.96 631.249 L 248.528 620.73 M 248.613 620.959 L 219.295 632.159 M 233.162 656.952 L 258.051 637.835 M 238.7 680.725 L 263.027 695.395 M 258.621 656.475 L 238.7 680.725 M 275.179 666.46 L 258.621 656.475 M 263.027 695.395 L 290.533 702.495 M 293.902 671.293 L 275.179 666.46 M 290.533 702.495 L 318.921 701.43 M 313.225 670.568 L 293.902 671.293 M 318.921 701.43 L 345.819 692.291 M 331.534 664.347 L 313.225 670.568 M 345.819 692.291 L 368.979 675.84 M 347.298 653.15 L 331.534 664.347 M 386.466 653.452 L 347.298 653.15 M 346.857 649.922 L 385.957 652.245 M 397.661 626.36 L 359.53 635.318 M 359.338 634.457 L 397.661 626.36 M 402.105 598.302 L 370.723 597.924 M 373.908 571.636 L 404.472 578.762 M 406.856 550.455 L 375.531 552.368 M 344.061 545.508 L 375.428 546.549 M 373.122 527.351 L 365.15 509.734 M 365.15 509.734 L 352.251 495.329 M 332.328 519.579 L 338.859 526.871 M 352.251 495.329 L 335.617 485.47 M 323.908 514.588 L 332.328 519.579 M 335.617 485.47 L 316.788 481.069 M 314.376 512.36 L 323.908 514.588 M 304.615 513.101 L 314.376 512.36 M 279.559 489.726 L 304.615 513.101 M 304.461 513.809 L 278.515 491.425 M 264.047 504.255 L 295.523 517.801 M 295.523 517.801 L 263.943 504.5 M 263.943 504.5 L 288.25 524.352 M 288.25 524.352 L 263.789 504.689 M 254.108 521.427 L 283.349 532.825 M 276.101 600.385 L 244.748 601.767 M 248.528 620.73 L 278.015 609.985 M 278.015 609.985 L 248.613 620.959 M 258.051 637.835 L 282.793 618.528 M 259.116 644.639 L 274.261 656.661 M 282.141 623.313 L 259.116 644.639 M 289.807 629.399 L 282.141 623.313 M 274.261 656.661 L 292.32 663.573 M 298.949 632.898 L 289.807 629.399 M 292.32 663.573 L 311.621 664.735 M 308.72 633.486 L 298.949 632.898 M 311.621 664.735 L 330.379 660.04 M 318.216 631.109 L 308.72 633.486 M 330.379 660.04 L 346.857 649.922 M 326.558 625.987 L 318.216 631.109 M 359.53 635.318 L 326.558 625.987 M 326.742 623.886 L 359.338 634.457 M 367.699 617.022 L 333.433 616.741 M 333.441 616.215 L 367.699 617.022 M 370.723 597.924 L 339.34 597.786 M 343.399 564.276 L 373.908 571.636 M 375.531 552.368 L 344.221 554.522 M 933.427 640.999 L 908.322 622.166 M 903.741 630.816 L 933.427 640.999 M 908.343 621.64 L 933.876 639.888 M 923.888 610.137 L 915.207 614.661 M 933.54 608.506 L 923.888 610.137 M 943.224 609.929 L 933.54 608.506 M 952 614.267 L 943.224 609.929 M 959.012 621.096 L 952 614.267 M 933.876 639.888 L 965.256 639.398 M 943.886 768.349 L 919.349 748.782 M 908.436 778.207 L 918.033 780.138 M 899.902 773.414 L 908.436 778.207 M 893.259 766.224 L 899.902 773.414 M 889.154 757.338 L 893.259 766.224 M 919.349 748.782 L 887.987 747.619 M 919.128 736.33 L 888.649 728.851 M 887.827 738.605 L 919.128 736.33 M 924.092 695.356 L 894.239 685.672 M 892.708 695.341 L 924.092 695.356 M 901.973 640.444 L 933.347 641.229 M 933.347 641.229 L 903.741 630.816 M 342.894 535.789 L 312.699 544.345 M 312.699 544.345 L 344.061 545.508 M 312.633 544.11 L 342.894 535.789 M 338.859 526.871 L 332.272 519.63 M 332.272 519.63 L 323.775 514.77 M 323.775 514.77 L 314.193 512.765 M 314.193 512.765 L 304.461 513.809 M 283.349 532.825 L 312.633 544.11 M 307.46 599.125 L 276.101 600.385 M 282.793 618.528 L 289.971 625.184 M 289.971 625.184 L 298.85 629.304 M 298.85 629.304 L 308.567 630.489 M 308.567 630.489 L 318.176 628.622 M 318.176 628.622 L 326.742 623.886 M 333.433 616.741 L 307.46 599.125 M 337.809 607.455 L 307.882 598.003 M 307.882 598.003 L 333.441 616.215 M 339.34 597.786 L 307.956 597.771 M 307.956 597.771 L 337.809 607.455 M 312.92 556.797 L 343.399 564.276 M 344.221 554.522 L 312.92 556.797" />
<path fill="none" class="c" d=" M 580.195 672.176 L 589.863 611.133 M 549.398 666.138 L 580.195 672.176 M 589.863 611.133 L 558.707 607.359 M 558.707 607.359 L 549.398 666.138 M 589.863 611.133 L 595.05 549.548 M 595.05 549.548 L 563.702 548.058 M 563.702 548.058 L 558.707 607.359 M 518.75 659.381 L 549.398 666.138 M 527.472 604.314 L 518.75 659.381 M 563.702 548.058 L 532.327 547.301 M 532.327 547.301 L 527.648 602.858 M 488.258 651.955 L 518.75 659.381 M 496.177 601.955 L 488.258 651.955 M 532.327 547.301 L 500.944 547.232 M 500.944 547.232 L 496.695 597.677 M 457.92 643.922 L 488.258 651.955 M 464.841 600.22 L 457.92 643.922 M 500.944 547.232 L 469.565 547.789 M 469.565 547.789 L 465.852 591.879 M 427.726 635.36 L 457.92 643.922 M 433.48 599.033 L 427.726 635.36 M 438.201 548.894 L 435.114 585.544 M 397.661 626.36 L 427.726 635.36 M 402.105 598.302 L 397.661 626.36 M 406.856 550.455 L 404.472 578.762 M 367.699 617.022 L 397.661 626.36 M 370.723 597.924 L 367.699 617.022 M 375.531 552.368 L 373.908 571.636 M 337.809 607.455 L 367.699 617.022 M 339.34 597.786 L 337.809 607.455 M 344.221 554.522 L 343.399 564.276 M 620.918 615.662 L 589.863 611.133 M 620.918 615.662 L 629.187 553.637 M 626.353 551.798 L 595.05 549.548 M 595.728 487.748 L 564.355 488.55 M 591.894 426.064 L 560.662 429.154 M 583.567 364.824 L 552.645 370.185 M 570.793 304.355 L 540.344 311.959 M 553.639 244.98 L 523.827 254.786 M 549.398 666.138 L 535.823 724.08 M 561.573 488.585 L 530.333 491.583 M 552.352 429.792 L 521.694 436.503 M 536.17 372.523 L 506.534 382.849 M 513.26 317.599 L 485.07 331.393 M 483.95 265.806 L 457.611 282.87 M 483.95 265.806 L 448.66 217.887 M 505.75 715.105 L 535.823 724.08 M 518.75 659.381 L 503.509 713.012 M 527.892 491.724 L 496.917 496.769 M 514.461 437.612 L 484.722 447.636 M 492.394 386.412 L 464.685 401.148 M 462.279 339.491 L 437.341 358.544 M 424.922 298.103 L 403.422 320.965 M 424.922 298.103 L 381.321 263.355 M 474.123 701.994 L 503.509 713.012 M 488.258 651.955 L 472.298 699.996 M 494.908 496.97 L 464.289 503.858 M 464.289 503.858 L 469.565 547.789 M 478.836 448.965 L 450.242 461.901 M 453.393 405.201 L 428.004 423.649 M 419.629 367.482 L 398.493 390.682 M 378.937 337.368 L 362.927 364.361 M 378.937 337.368 L 332.997 316.101 M 443.674 687.128 L 472.298 699.996 M 457.92 643.922 L 442.307 685.322 M 464.289 503.858 L 433.796 511.28 M 433.796 511.28 L 438.181 547.798 M 448.786 462.417 L 420.909 476.832 M 423.932 425.811 L 400.249 446.403 M 391.134 396.111 L 372.985 421.715 M 352.249 375 L 340.662 404.166 M 352.249 375 L 309.477 363.671 M 414.468 670.834 L 442.307 685.322 M 427.726 635.36 L 413.554 669.3 M 433.796 511.28 L 403.414 519.145 M 403.414 519.145 L 406.801 547.35 M 419.912 477.221 L 392.69 492.839 M 397.518 448.045 L 375.393 470.304 M 368.207 425.827 L 352.754 453.143 M 334.064 412.15 L 326.384 442.579 M 334.064 412.15 L 297.521 407.985 M 386.466 653.452 L 413.554 669.3 M 397.661 626.36 L 385.957 652.245 M 403.414 519.145 L 373.122 527.351 M 373.122 527.351 L 375.428 546.549 M 392.101 493.087 L 365.422 509.614 M 373.808 471.353 L 352.97 494.82 M 350.062 455.759 L 336.807 484.206 M 322.848 447.608 L 318.284 478.658 M 322.848 447.608 L 294.441 447.582 M 359.53 635.318 L 385.957 652.245 M 367.699 617.022 L 359.338 634.457 M 373.122 527.351 L 342.894 535.789 M 342.894 535.789 L 344.061 545.508 M 365.15 509.734 L 338.859 526.871 M 338.859 526.871 L 342.894 535.789 M 352.251 495.329 L 332.328 519.579 M 335.617 485.47 L 323.908 514.588 M 316.788 481.069 L 314.376 512.36 M 316.788 481.069 L 297.507 482.532 M 297.507 482.532 L 304.615 513.101 M 297.507 482.532 L 279.559 489.726 M 333.433 616.741 L 359.338 634.457 M 337.809 607.455 L 333.441 616.215 M 338.859 526.871 L 312.633 544.11 M 332.272 519.63 L 312.633 544.11 M 323.775 514.77 L 312.633 544.11 M 314.193 512.765 L 312.633 544.11 M 304.461 513.809 L 312.633 544.11 M 304.461 513.809 L 295.523 517.801 M 295.523 517.801 L 312.633 544.11 M 295.523 517.801 L 288.25 524.352 M 288.25 524.352 L 312.633 544.11 M 288.25 524.352 L 283.349 532.825 M 611.13 677.465 L 620.918 615.662 M 660.242 558.165 L 629.187 553.637 M 651.853 620.951 L 620.918 615.662 M 626.353 551.798 L 630.073 489.335 M 630.073 489.335 L 598.724 487.854 M 630.073 489.335 L 632.258 426.799 M 632.258 426.799 L 600.882 426.088 M 632.908 364.229 L 601.524 364.288 M 632.021 301.661 L 600.649 302.491 M 629.6 239.134 L 598.257 240.734 M 625.644 176.686 L 594.35 179.054 M 580.195 672.176 L 611.13 677.465 M 473.233 198.366 L 448.66 217.887 M 473.233 198.366 L 433.05 151.41 M 535.823 724.08 L 566.097 732.35 M 399.376 237.685 L 381.321 263.355 M 399.376 237.685 L 348.737 206.424 M 505.75 715.105 L 486.636 767.48 M 343.81 286.638 L 332.997 316.101 M 343.81 286.638 L 290.075 271.772 M 458.132 754.347 L 486.636 767.48 M 474.123 701.994 L 452.536 747.784 M 314.389 332.674 L 309.477 363.671 M 314.389 332.674 L 263.843 329.873 M 425.656 731.586 L 452.536 747.784 M 443.674 687.128 L 421.525 725.431 M 297.34 376.602 L 297.521 407.985 M 297.34 376.602 L 253.439 382.118 M 396.418 706.601 L 421.525 725.431 M 414.468 670.834 L 393.728 701.208 M 290.283 416.475 L 294.441 447.582 M 290.283 416.475 L 254.803 426.165 M 370.402 680.212 L 393.728 701.208 M 386.466 653.452 L 368.979 675.84 M 290.633 451.911 L 297.507 482.532 M 290.633 451.911 L 264.106 462.073 M 263.796 462.588 L 279.559 489.726 M 263.796 462.588 L 241.551 480.257 M 347.298 653.15 L 368.979 675.84 M 359.53 635.318 L 346.857 649.922 M 278.515 491.425 L 295.523 517.801 M 278.515 491.425 L 264.047 504.255 M 326.558 625.987 L 346.857 649.922 M 333.433 616.741 L 326.742 623.886 M 307.46 599.125 L 326.742 623.886 M 651.853 620.951 L 663.016 560.165 M 661.375 491.585 L 630.073 489.335 M 660.242 558.165 L 669.91 497.123 M 663.606 428.28 L 632.258 426.799 M 661.375 491.585 L 666.562 429.999 M 642.185 681.994 L 651.853 620.951 M 611.13 677.465 L 642.185 681.994 M 456.642 130.713 L 433.05 151.41 M 364.237 179.135 L 348.737 206.424 M 364.237 179.135 L 309.418 150.594 M 296.617 241.078 L 290.075 271.772 M 296.617 241.078 L 237.775 232.178 M 486.636 767.48 L 515.421 779.985 M 263.013 298.5 L 263.843 329.873 M 263.013 298.5 L 207.586 304.526 M 246.383 351.538 L 253.439 382.118 M 246.383 351.538 L 198.467 367.873 M 425.656 731.586 L 399.087 766.968 M 242.992 397.089 L 254.803 426.165 M 242.992 397.089 L 204.271 418.5 M 376.411 745.272 L 399.087 766.968 M 396.418 706.601 L 371.007 733.19 M 249.07 434.526 L 264.106 462.073 M 249.07 434.526 L 219.425 456.296 M 351.413 708.674 L 371.007 733.19 M 263.789 504.689 L 254.108 521.427 M 307.46 599.125 L 318.176 628.622 M 682.907 625.489 L 693.656 566.957 M 700.707 503.161 L 669.91 497.123 M 697.718 433.774 L 666.562 429.999 M 700.707 503.161 L 714.282 445.219 M 697.718 433.774 L 707.028 374.995 M 673.341 685.768 L 682.65 626.99 M 642.185 681.994 L 673.341 685.768 M 693.656 566.957 L 663.016 560.165 M 667.28 366.586 L 635.977 364.336 M 602.861 739.49 L 634.018 743.255 M 569.032 732.963 L 599.827 739.01 M 518.055 780.877 L 547.645 791.335 M 433.261 798.439 L 459.244 816.041 M 399.087 766.968 L 422.139 788.265 M 331.534 664.347 L 345.819 692.291 M 318.216 631.109 L 330.379 660.04 M 307.46 599.125 L 308.567 630.489 M 714.058 629.3 L 724.129 574.463 M 744.355 454.194 L 714.282 445.219 M 737.676 381.751 L 707.028 374.995 M 744.355 454.194 L 763.469 401.819 M 704.576 688.813 L 713.298 633.746 M 724.129 574.463 L 693.656 566.957 M 693.656 566.957 L 708.649 509.365 M 707.028 374.995 L 676.231 368.957 M 668.346 745.069 L 673.341 685.768 M 636.998 743.579 L 668.346 745.069 M 672.467 305 L 641.229 301.983 M 596.117 801.7 L 627.357 804.699 M 461.399 817.195 L 488.483 833.05 M 348.004 768.634 L 364.913 795.073 M 327.054 723.292 L 339.469 752.115 M 239.179 485.215 L 224.955 509.805 M 307.46 599.125 L 298.85 629.304 M 745.286 632.427 L 754.43 582.636 M 791.973 414.952 L 763.469 401.819 M 735.871 691.172 L 743.79 641.172 M 754.43 582.636 L 724.129 574.463 M 738.493 519.076 L 708.649 509.365 M 724.129 574.463 L 740.681 521.223 M 738.493 519.076 L 758.887 467.186 M 752.916 328.121 L 723.296 317.75 M 699.721 745.826 L 704.4 690.269 M 668.346 745.069 L 699.721 745.826 M 720.603 317.053 L 690.328 308.783 M 636.32 805.379 L 667.694 804.577 M 679.164 243.561 L 648.009 239.778 M 590.903 864.056 L 622.207 866.287 M 556.38 793.457 L 587.017 800.259 M 496.189 836.226 L 524.937 848.815 M 401.538 837.89 L 424.306 859.489 M 365.915 796.249 L 384.186 821.766 M 313.225 670.568 L 318.921 701.43 M 308.72 633.486 L 311.621 664.735 M 307.46 599.125 L 289.971 625.184 M 776.569 634.93 L 784.561 591.412 M 767.207 692.907 L 774.128 649.206 M 784.561 591.412 L 754.43 582.636 M 769.788 532.959 L 740.681 521.223 M 754.43 582.636 L 771.564 535.001 M 787.059 481.015 L 758.887 467.186 M 769.788 532.959 L 792.493 487.713 M 787.059 481.015 L 813.006 437.546 M 816.844 370.86 L 790.861 353.258 M 731.104 745.895 L 735.353 695.451 M 699.721 745.826 L 731.104 745.895 M 774.458 276.697 L 746.289 262.86 M 670.475 804.543 L 701.715 801.544 M 738.371 260.256 L 708.781 249.798 M 640.155 867.063 L 671.386 863.974 M 687.367 182.304 L 656.314 177.757 M 587.22 926.521 L 618.569 927.984 M 430.402 863.537 L 455.396 882.516 M 314.881 784.624 L 325.067 814.309 M 214.351 466.018 L 195.936 497.856 M 299.698 730.949 L 304.05 762.029 M 307.46 599.125 L 282.793 618.528 M 807.892 636.887 L 814.535 600.712 M 798.568 694.094 L 804.322 657.767 M 814.535 600.712 L 784.561 591.412 M 799.863 548.568 L 771.564 535.001 M 784.561 591.412 L 801.186 550.407 M 818.968 504.565 L 792.493 487.713 M 799.863 548.568 L 822.946 510.82 M 838.18 456.286 L 813.006 437.546 M 818.968 504.565 L 846.396 469.846 M 762.483 745.338 L 766.196 701.248 M 731.104 745.895 L 762.483 745.338 M 848.567 331.409 L 825.799 309.809 M 704.156 801.403 L 735.132 796.358 M 801.99 228.216 L 775.677 211.112 M 679.696 863.335 L 710.354 856.625 M 760.237 204.907 L 731.489 192.318 M 648.482 928.303 L 679.404 922.942 M 697.071 121.267 L 666.139 115.96 M 585.072 989.058 L 616.448 989.751 M 542.247 853.623 L 572.708 861.174 M 470.342 889.831 L 498.094 904.485 M 363.811 871.645 L 382.756 896.665 M 327.509 818.22 L 340.245 846.903 M 293.902 671.293 L 290.533 702.495 M 298.949 632.898 L 292.32 663.573 M 278.015 609.985 L 282.793 618.528 M 307.46 599.125 L 278.015 609.985 M 839.24 638.388 L 844.371 610.447 M 829.943 694.825 L 834.387 666.767 M 844.371 610.447 L 814.535 600.712 M 828.661 565.574 L 801.186 550.407 M 814.535 600.712 L 829.536 567.13 M 847.583 530.261 L 822.946 510.82 M 828.661 565.574 L 850.14 535.718 M 868.533 492.093 L 846.396 469.846 M 847.583 530.261 L 873.64 504.303 M 793.847 744.234 L 796.934 707.583 M 868.07 423.662 L 847.203 400.22 M 767.759 789.269 L 762.483 745.338 M 737.141 796.157 L 767.759 789.269 M 886.294 297.654 L 867.349 272.633 M 717.587 855.515 L 747.327 845.491 M 835.12 183.373 L 811.039 163.246 M 695.878 920.604 L 725.514 910.278 M 786.085 151.302 L 758.332 136.648 M 661.256 988.772 L 691.704 981.168 M 708.27 60.4872 L 677.478 54.4218 M 584.459 1051.63 L 615.843 1051.55 M 394.088 905.843 L 416.635 927.673 M 189.246 447.185 L 167.093 485.486 M 278.919 792.338 L 281.805 823.589 M 271.29 731.101 L 267.271 762.227 M 276.101 600.385 L 278.015 609.985 M 874.095 620.518 L 844.371 610.447 M 861.325 695.203 L 864.349 676.105 M 870.602 639.536 L 874.095 620.518 M 856.228 583.638 L 829.536 567.13 M 844.371 610.447 L 856.707 584.858 M 872.944 557.28 L 850.14 535.718 M 856.228 583.638 L 874.259 561.686 M 892.625 529.293 L 873.64 504.303 M 825.192 742.672 L 827.576 714.365 M 897.506 469.435 L 881.25 442.589 M 798.252 781.847 L 793.867 745.329 M 767.759 789.269 L 798.252 781.847 M 903.937 397.753 L 888.24 370.577 M 753.212 844.162 L 781.806 831.226 M 929.016 270.496 L 914.401 242.724 M 739.655 906.716 L 767.364 891.979 M 718.788 975.529 L 746.978 961.734 M 678.41 1048.15 L 708.222 1038.34 M 585.382 1114.2 L 616.754 1113.35 M 526.641 913.424 L 556.908 921.72 M 440.651 941.406 L 467.259 958.047 M 321.089 898.802 L 335.704 926.575 M 285.455 831.974 L 292.13 862.64 M 275.179 666.46 L 263.027 695.395 M 248.613 620.959 L 258.051 637.835 M 289.807 629.399 L 274.261 656.661 M 874.095 620.518 L 882.881 603.293 M 892.708 695.341 L 894.239 685.672 M 903.741 630.816 L 874.095 620.518 M 901.973 640.444 L 903.741 630.816 M 882.711 602.428 L 856.707 584.858 M 895.377 584.902 L 874.259 561.686 M 882.711 602.428 L 895.738 588.139 M 856.517 740.759 L 858.14 721.491 M 917.336 515.278 L 905.632 486.158 M 828.635 773.982 L 825.247 745.777 M 798.252 781.847 L 828.635 773.982 M 931.01 454.262 L 921.556 424.336 M 783.263 830.71 L 811.14 816.295 M 944.301 379.629 L 934.421 349.841 M 778.655 887.926 L 804.044 869.478 M 769.77 953.636 L 794.708 934.583 M 748.099 1027.32 L 774.438 1010.26 M 699.851 1106.11 L 728.869 1094.16 M 587.841 1176.72 L 619.183 1175.1 M 352.978 943.505 L 372.755 967.874 M 163.816 428.793 L 138.47 472.614 M 244.748 601.767 L 248.528 620.73 M 908.343 621.64 L 882.881 603.293 M 903.741 630.816 L 908.322 622.166 M 915.444 612.565 L 895.738 588.139 M 908.343 621.64 L 915.207 614.661 M 887.827 738.605 L 888.649 728.851 M 911.411 574.095 L 897.816 545.809 M 858.926 765.776 L 856.621 746.578 M 828.635 773.982 L 858.926 765.776 M 944.872 508.294 L 941.283 477.116 M 812.136 815.906 L 839.358 800.288 M 967.151 447.433 L 965.033 416.121 M 808.117 867.316 L 831.8 846.724 M 812.42 925.645 L 833.556 902.445 M 807.127 995.024 L 828.627 972.162 M 783.389 1075.24 L 807.5 1055.15 M 725.467 1162.36 L 753.534 1148.32 M 509.572 972.824 L 539.626 981.86 M 407.274 990.677 L 432.598 1009.22 M 219.295 632.159 L 233.162 656.952 M 933.876 639.888 L 915.207 614.661 M 933.876 639.888 L 923.888 610.137 M 933.876 639.888 L 933.54 608.506 M 933.876 639.888 L 943.224 609.929 M 933.876 639.888 L 952 614.267 M 933.876 639.888 L 959.012 621.096 M 963.579 629.754 L 959.012 621.096 M 933.876 639.888 L 963.579 629.754 M 965.256 639.398 L 963.579 629.754 M 923.908 607.649 L 912.459 578.429 M 858.926 765.776 L 889.154 757.338 M 889.154 757.338 L 887.987 747.619 M 929.866 568.325 L 924.93 537.332 M 839.947 800.04 L 866.627 783.513 M 973.275 508.839 L 978.057 477.822 M 834.531 845.082 L 856.655 822.823 M 840.915 897.016 L 859.063 871.412 M 853.112 955.759 L 869.122 928.766 M 307.662 975.985 L 324.384 1002.54 M 138.025 410.912 L 110.11 459.174 M 213.406 603.389 L 218.96 631.249 M 889.154 757.338 L 919.349 748.782 M 933.46 605.506 L 931.327 574.195 M 993.242 619.505 L 984.22 602.402 M 996.634 638.786 L 993.321 619.736 M 866.898 783.393 L 893.19 766.256 M 949.201 568.075 L 953.335 536.965 M 858.241 821.774 L 879.078 798.306 M 863.842 867.299 L 879.294 839.984 M 879.8 918.127 L 891.387 888.961 M 853.112 955.759 L 899.052 977.026 M 888.239 1006.49 L 899.052 977.026 M 491.051 1031.79 L 520.874 1041.56 M 370.391 1037.38 L 394.293 1057.72 M 190.106 643.688 L 208.059 675.788 M 893.259 766.224 L 919.349 748.782 M 943.213 606.334 L 950.594 575.831 M 879.798 797.797 L 899.72 773.548 M 967.8 573.366 L 980.659 544.738 M 1022.83 609.028 L 1009.57 583.902 M 1028.01 637.934 L 1023.14 609.946 M 881.986 837.368 L 895.241 808.921 M 897.984 880.977 L 905.665 850.548 M 879.8 918.127 L 922.571 929.455 M 917.66 960.452 L 922.571 929.455 M 888.239 1006.49 L 941.974 1021.35 M 935.432 1052.05 L 941.974 1021.35 M 111.848 393.601 L 82.0515 445.115 M 182.085 605.365 L 189.275 641.435 M 899.902 773.414 L 919.349 748.782 M 952.267 610.057 L 968.478 583.184 M 896.432 807.657 L 908.141 778.539 M 909.2 845.518 L 913.765 814.468 M 1052.29 598.22 L 1035.13 565.688 M 1059.37 636.728 L 1053.06 600.492 M 897.984 880.977 L 934.527 885.141 M 934.709 916.525 L 934.527 885.141 M 917.66 960.452 L 968.206 963.254 M 969.036 994.627 L 968.206 963.254 M 935.432 1052.05 L 994.274 1060.95 M 471.087 1090.28 L 500.662 1100.78 M 161.087 655.64 L 182.685 694.257 M 908.436 778.207 L 919.349 748.782 M 915.261 812.058 L 917.672 780.767 M 909.2 845.518 L 937.608 845.545 M 941.765 876.652 L 937.608 845.545 M 1081.59 586.983 L 1060.95 547.848 M 1090.71 635.066 L 1083.12 591.474 M 934.709 916.525 L 978.61 911.008 M 969.036 994.627 L 1024.46 988.601 M 85.2729 376.906 L 54.3291 430.405 M 150.796 607.795 L 159.445 651.188 M 918.033 780.138 L 919.349 748.782 M 915.261 812.058 L 934.541 810.594 M 941.415 841.216 L 934.541 810.594 M 941.765 876.652 L 977.245 866.961 M 1122.01 632.858 L 1113.34 582.983 M 449.695 1148.26 L 479.002 1159.48 M 132.282 668.097 L 156.992 712.279 M 918.033 780.138 L 927.757 779.018 M 927.757 779.018 L 919.349 748.782 M 936.048 809.287 L 927.757 779.018 M 941.415 841.216 L 967.943 831.053 M 1153.27 630.025 L 1143.71 575.096 M 58.3012 360.86 L 26.9717 415.026 M 119.553 610.771 L 129.45 660.418 M 927.757 779.018 L 936.664 774.957 M 936.664 774.957 L 919.349 748.782 M 936.048 809.287 L 953.703 801.402 M 953.877 801.199 L 936.664 774.957 M 1184.45 626.508 L 1174.26 567.877 M 936.664 774.957 L 943.886 768.349 M 953.877 801.199 L 968.244 788.258 M 88.3769 614.37 L 99.2761 669.048 M 971.29 827.309 L 992.398 808.296 M 988.996 853.22 L 1016.32 828.605 M 57.2866 618.652 L 68.9204 677.015 M 1007.08 878.872 L 1039.95 849.259 M 1025.6 904.204 L 1063.22 870.323" />
</svg>
