<?xml version="1.0"?>
<svg width="1139" height="1169" version="1.1" xmlns="http://www.w3.org/2000/svg" >
<defs>
<style type="text/css"><![CDATA[
.m {stroke:rgb(255,0,0);stroke-width:1.461250;}
.v {stroke:rgb(0,0,255);stroke-width:1.461250;}
.b {stroke:rgb(0,0,0);stroke-width:2.922500;fill:white}
.n {stroke:rgb(128,128,128);stroke-width:1.461250}
.t {stroke:rgb(0,128,0);stroke-width:1.461250;}
.c {stroke:rgb(128,128,128);stroke-width:1.461250;stroke-dasharray:11.390000, 11.390000;}
]]></style>
</defs>
<path fill="none" style="stroke:black;stroke-width:2.922500;" d=" M 825.42 640.007 L 852.427 661.097 M 842.569 667.063 L 851.463 662.974 M 851.463 662.974 L 825.273 640.876 M 861.748 628.123 L 842.67 631.269 M 852.427 661.097 L 862.086 659.504 M 880.89 630.858 L 861.748 628.123 M 862.086 659.504 L 871.776 660.889 M 898.323 639.223 L 880.89 630.858 M 871.776 660.889 L 880.601 665.124 M 912.435 652.442 L 898.323 639.223 M 880.601 665.124 L 887.745 671.816 M 921.919 669.293 L 912.435 652.442 M 892.546 680.346 L 921.919 669.293 M 887.745 671.816 L 892.546 680.346 M 890.486 695.849 L 921.825 697.514 M 919.903 678.274 L 889.513 686.109 M 888.411 705.415 L 917.713 716.655 M 921.812 697.758 L 890.486 695.849 M 852.211 832.313 L 826.287 809.904 M 826.287 809.904 L 852.385 832.111 M 852.385 832.111 L 835.198 805.852 M 834.321 840.32 L 816.562 811.015 M 816.562 811.015 L 834.548 840.181 M 813.256 843.141 L 806.43 809.561 M 806.967 809.074 L 815.093 842.364 M 777.919 828.571 L 794.466 838.575 M 806.43 809.561 L 798.053 804.497 M 765.146 814.054 L 777.919 828.571 M 798.053 804.497 L 791.587 797.148 M 757.329 796.368 L 765.146 814.054 M 791.587 797.148 L 787.63 788.195 M 755.191 777.15 L 757.329 796.368 M 787.63 788.195 L 786.548 778.466 M 788.441 768.862 L 758.932 758.179 M 794.87 751.217 L 768.129 734.79 M 760.631 752.613 L 791.074 760.24 M 813.53 711.88 L 788.059 693.544 M 779.281 710.773 L 809.086 720.602 M 800.934 670.406 L 829.942 682.384 M 810.947 653.864 L 842.569 667.063 M 842.363 667.547 L 810.947 653.864 M 807.326 613.044 L 843.48 628.114 M 842.67 631.269 L 807.341 614.354 M 859.629 592.429 L 831.972 598.917 M 843.48 628.114 L 862.305 623.699 M 887.987 594.123 L 859.629 592.429 M 862.305 623.699 L 881.607 624.852 M 914.675 603.857 L 887.987 594.123 M 881.607 624.852 L 899.773 631.477 M 937.464 620.818 L 914.675 603.857 M 899.773 631.477 L 915.285 643.022 M 954.45 643.588 L 937.464 620.818 M 926.847 658.521 L 954.45 643.588 M 915.285 643.022 L 926.847 658.521 M 921.825 697.514 L 953.177 698.939 M 950.352 670.672 L 919.903 678.274 M 917.713 716.655 L 947.1 727.67 M 953.121 699.907 L 921.812 697.758 M 868.323 859.764 L 834.321 840.32 M 834.548 840.181 L 868.991 858.834 M 868.991 858.834 L 852.211 832.313 M 838.7 872.921 L 813.256 843.141 M 815.093 842.364 L 842.113 870.721 M 805.372 877.329 L 792.299 840.405 M 794.466 838.575 L 810.33 874.388 M 755 852.364 L 778.363 868.525 M 792.299 840.405 L 776.397 829.405 M 737.235 830.196 L 755 852.364 M 776.397 829.405 L 764.305 814.316 M 726.553 803.873 L 737.235 830.196 M 764.305 814.316 L 757.034 796.399 M 723.846 775.594 L 726.553 803.873 M 757.034 796.399 L 755.191 777.15 M 758.932 758.179 L 729.341 747.722 M 768.129 734.79 L 741.263 718.568 M 730.248 744.753 L 760.631 752.613 M 788.059 693.544 L 762.449 675.405 M 749.552 700.716 L 779.281 710.773 M 772.019 658.206 L 800.934 670.406 M 786.729 633.903 L 825.42 640.007 M 825.273 640.876 L 786.729 633.903 M 787.96 586.375 L 832.305 594.331 M 831.972 598.917 L 788.227 588.14 M 853.583 554.619 L 818.635 566.081 M 832.305 594.331 L 859.299 585.478 M 890.318 552.804 L 853.583 554.619 M 859.299 585.478 L 887.672 584.076 M 926.226 560.766 L 890.318 552.804 M 887.672 584.076 L 915.406 590.225 M 958.751 577.938 L 926.226 560.766 M 915.406 590.225 L 940.528 603.488 M 985.579 603.097 L 958.751 577.938 M 961.249 622.921 L 985.579 603.097 M 940.528 603.488 L 961.249 622.921 M 953.177 698.939 L 984.542 700.012 M 980.884 663.414 L 950.352 670.672 M 947.1 727.67 L 976.61 738.353 M 984.405 702.409 L 953.121 699.907 M 842.113 870.721 L 850.247 901.032 M 884.182 886.847 L 868.323 859.764 M 836.451 909.946 L 805.372 877.329 M 810.33 874.388 L 844.488 903.766 M 844.488 903.766 L 838.7 872.921 M 790.206 914.036 L 773.446 872.216 M 778.363 868.525 L 799.713 908.198 M 728.494 875.224 L 756.738 898.782 M 773.446 872.216 L 751.631 854.02 M 707.483 845.036 L 728.494 875.224 M 751.631 854.02 L 735.403 830.704 M 695.201 810.367 L 707.483 845.036 M 735.403 830.704 L 725.916 803.926 M 692.521 773.685 L 695.201 810.367 M 725.916 803.926 L 723.846 775.594 M 729.341 747.722 L 699.635 737.6 M 741.263 718.568 L 714.216 702.649 M 699.955 736.551 L 730.248 744.753 M 762.449 675.405 L 736.636 657.554 M 719.938 690.325 L 749.552 700.716 M 743.243 645.681 L 772.019 658.206 M 762.288 614.216 L 807.326 613.044 M 807.341 614.354 L 762.288 614.216 M 767.069 560.259 L 818.18 560.072 M 818.635 566.081 L 767.653 562.447 M 842.428 515.08 L 802.042 533.155 M 818.18 560.072 L 851.751 545.047 M 885.941 507.056 L 842.428 515.08 M 851.751 545.047 L 887.921 538.377 M 930.118 509.537 L 885.941 507.056 M 887.921 538.377 L 924.643 540.44 M 972.458 522.384 L 930.118 509.537 M 924.643 540.44 L 959.838 551.119 M 1010.57 544.869 L 972.458 522.384 M 991.515 569.809 L 1010.57 544.869 M 959.838 551.119 L 991.515 569.809 M 984.542 700.012 L 1015.92 700.628 M 1011.52 656.6 L 980.884 663.414 M 976.61 738.353 L 1006.27 748.606 M 1015.65 705.365 L 984.405 702.409 M 850.247 901.032 L 858.821 931.222 M 899.644 914.157 L 884.182 886.847 M 824.137 952.258 L 790.206 914.036 M 799.713 908.198 L 838.7 941.249 M 838.7 941.249 L 836.451 909.946 M 765.141 952.486 L 747.997 904.336 M 756.738 898.782 L 780.68 943.939 M 697.506 896.4 L 727.964 928.495 M 747.997 904.336 L 722.678 877.658 M 675.491 858.02 L 697.506 896.4 M 722.678 877.658 L 704.378 845.754 M 663.165 815.525 L 675.491 858.02 M 704.378 845.754 L 694.133 810.43 M 661.226 771.321 L 663.165 815.525 M 694.133 810.43 L 692.521 773.685 M 699.635 737.6 L 669.785 727.91 M 714.216 702.649 L 686.941 687.125 M 669.785 727.91 L 699.955 736.551 M 736.636 657.554 L 710.567 640.081 M 690.479 679.505 L 719.938 690.325 M 714.652 632.739 L 743.243 645.681 M 737.563 594.887 L 787.96 586.375 M 788.227 588.14 L 737.563 594.887 M 744.488 534.995 L 800.542 525.896 M 802.042 533.155 L 745.424 537.534 M 774.839 484.118 L 831.1 476.397 M 800.542 525.896 L 838.504 503.166 M 838.504 503.166 L 781.768 500.747 M 857.006 425.863 L 812.948 450.795 M 831.1 476.397 L 869.608 454.606 M 905.195 410.352 L 857.006 425.863 M 869.608 454.606 L 911.726 441.049 M 955.524 404.902 L 905.195 410.352 M 911.726 441.049 L 955.715 436.285 M 1005.92 409.738 L 955.524 404.902 M 999.759 440.512 L 1005.92 409.738 M 955.715 436.285 L 999.759 440.512 M 1015.92 700.628 L 1047.3 700.696 M 1042.27 650.323 L 1011.52 656.6 M 1006.27 748.606 L 1036.11 758.339 M 1046.84 708.866 L 1015.65 705.365 M 858.821 931.222 L 867.921 961.257 M 914.628 941.732 L 899.644 914.157 M 798.098 998.732 L 765.141 952.486 M 780.68 943.939 L 821.398 983.522 M 821.398 983.522 L 824.137 952.258 M 728.072 990.46 L 714.521 935.313 M 727.964 928.495 L 750.892 980.448 M 661.559 914.823 L 690.953 956.038 M 714.521 935.313 L 688.829 899.29 M 641.102 868.517 L 661.559 914.823 M 688.829 899.29 L 670.949 858.817 M 630.429 819.032 L 641.102 868.517 M 670.949 858.817 L 661.62 815.565 M 629.978 768.41 L 630.429 819.032 M 661.62 815.565 L 661.226 771.321 M 639.769 718.743 L 629.978 768.41 M 686.941 687.125 L 659.398 672.08 M 710.567 640.081 L 684.196 623.066 M 661.213 668.172 L 690.479 679.505 M 686.291 619.3 L 714.652 632.739 M 712.505 575.992 L 767.069 560.259 M 767.653 562.447 L 712.505 575.992 M 716.888 505.308 L 774.839 484.118 M 781.768 500.747 L 721.438 513.697 M 794.29 425.56 L 752.319 462.26 M 841.68 396.189 L 794.29 425.56 M 812.948 450.795 L 855.977 424.126 M 893.222 374.931 L 841.68 396.189 M 855.977 424.126 L 902.776 404.825 M 947.539 362.355 L 893.222 374.931 M 902.776 404.825 L 952.095 393.406 M 1003.18 358.796 L 947.539 362.355 M 1002.61 390.175 L 1003.18 358.796 M 952.095 393.406 L 1002.61 390.175 M 1078.68 700.137 L 1073.14 644.66 M 1047.3 700.696 L 1078.68 700.137 M 1073.14 644.66 L 1042.27 650.323 M 1036.11 758.339 L 1066.13 767.476 M 1077.95 712.989 L 1046.84 708.866 M 843.769 1040.22 L 798.098 998.732 M 867.921 961.257 L 929.058 969.602 M 929.058 969.602 L 914.628 941.732 M 755.196 1045.88 L 728.072 990.46 M 750.892 980.448 L 789.192 1028.83 M 635.085 979.171 L 665.815 1025.69 M 665.815 1025.69 L 662.598 964.071 M 690.953 956.038 L 708.685 1015.14 M 612.346 928.265 L 635.085 979.171 M 662.598 964.071 L 641.951 917.85 M 598.205 874.334 L 612.346 928.265 M 641.951 917.85 L 629.111 868.882 M 593.039 818.82 L 598.205 874.334 M 629.111 868.882 L 624.421 818.477 M 596.987 763.207 L 593.039 818.82 M 624.421 818.477 L 628.005 767.98 M 609.943 708.979 L 596.987 763.207 M 628.005 767.98 L 639.769 718.743 M 659.398 672.08 L 631.562 657.588 M 684.196 623.066 L 657.491 606.58 M 632.179 656.257 L 661.213 668.172 M 658.204 605.298 L 686.291 619.3 M 687.074 557.601 L 744.488 534.995 M 745.424 537.534 L 687.074 557.601 M 685.87 478.496 L 742.513 445.414 M 752.319 462.26 L 691.506 486.851 M 753.365 380.721 L 716.686 427.585 M 742.513 445.414 L 776.877 401.509 M 795.383 338.577 L 753.365 380.721 M 776.877 401.509 L 816.242 362.026 M 842.136 301.757 L 795.383 338.577 M 816.242 362.026 L 860.043 327.531 M 892.955 270.788 L 842.136 301.757 M 860.043 327.531 L 907.653 298.517 M 947.11 246.115 L 892.955 270.788 M 907.653 298.517 L 958.389 275.402 M 1003.83 228.091 L 947.11 246.115 M 1011.52 258.516 L 1003.83 228.091 M 958.389 275.402 L 1011.52 258.516 M 1066.13 767.476 L 1096.35 775.952 M 1108.96 717.793 L 1077.95 712.989 M 792.7 1099.7 L 755.196 1045.88 M 789.192 1028.83 L 839.204 1071.27 M 839.204 1071.27 L 843.769 1040.22 M 613.091 1101.96 L 616.86 1036.47 M 708.685 1015.14 L 739.488 1073.05 M 568.966 991.646 L 587.721 1048.12 M 616.86 1036.47 L 599.289 983.556 M 557.095 933.331 L 568.966 991.646 M 599.289 983.556 L 588.167 928.923 M 552.279 874.015 L 557.095 933.331 M 588.167 928.923 L 583.655 873.352 M 554.586 814.549 L 552.279 874.015 M 583.655 873.352 L 585.817 817.641 M 563.984 755.784 L 554.586 814.549 M 585.817 817.641 L 594.622 762.587 M 580.338 698.564 L 563.984 755.784 M 594.622 762.587 L 609.943 708.979 M 631.562 657.588 L 603.414 643.709 M 657.491 606.58 L 630.431 590.684 M 603.414 643.709 L 632.179 656.257 M 630.431 590.684 L 658.204 605.298 M 659.45 536.99 L 716.888 505.308 M 721.438 513.697 L 661.247 539.772 M 658.446 463.236 L 714.889 424.803 M 716.686 427.585 L 658.446 463.236 M 721.138 356.804 L 687.847 408.874 M 714.889 424.803 L 746.945 374.663 M 758.141 307.301 L 721.138 356.804 M 746.945 374.663 L 782.575 326.997 M 798.658 260.632 L 758.141 307.301 M 782.575 326.997 L 821.59 282.058 M 842.474 217.044 L 798.658 260.632 M 821.59 282.058 L 863.78 240.087 M 889.354 176.771 L 842.474 217.044 M 863.78 240.087 L 908.921 201.308 M 939.048 140.027 L 889.354 176.771 M 956.773 165.927 L 939.048 140.027 M 908.921 201.308 L 956.773 165.927 M 1126.76 783.719 L 1139.86 723.32 M 1096.35 775.952 L 1126.76 783.719 M 1139.86 723.32 L 1108.96 717.793 M 585.21 1116.36 L 615.568 1170.2 M 615.568 1170.2 L 613.091 1101.96 M 739.488 1073.05 L 779.682 1128.26 M 779.682 1128.26 L 792.7 1099.7 M 498.731 1051.67 L 505.712 1113.08 M 505.712 1113.08 L 530.023 1049.27 M 587.721 1048.12 L 585.21 1116.36 M 496.251 989.918 L 498.731 1051.67 M 530.023 1049.27 L 527.635 989.804 M 498.285 928.148 L 496.251 989.918 M 527.635 989.804 L 529.593 930.325 M 504.822 866.691 L 498.285 928.148 M 529.593 930.325 L 535.888 871.148 M 515.828 805.875 L 504.822 866.691 M 535.888 871.148 L 546.485 812.588 M 531.243 746.025 L 515.828 805.875 M 546.485 812.588 L 561.328 754.957 M 550.985 687.46 L 531.243 746.025 M 561.328 754.957 L 580.338 698.564 M 574.949 630.491 L 550.985 687.46 M 603.007 575.424 L 659.45 536.99 M 661.247 539.772 L 603.007 575.424 M 630.388 518.304 L 685.87 478.496 M 691.506 486.851 L 632.408 521.062 M 660.428 393.607 L 630.66 448.646 M 691.538 339.315 L 660.428 393.607 M 687.847 408.874 L 718.574 355.251 M 723.971 285.802 L 691.538 339.315 M 718.574 355.251 L 750.608 302.397 M 757.708 233.102 L 723.971 285.802 M 750.608 302.397 L 783.93 250.346 M 792.728 181.246 L 757.708 233.102 M 783.93 250.346 L 818.519 199.128 M 829.01 130.265 L 792.728 181.246 M 818.519 199.128 L 854.354 148.774 M 866.533 80.1897 L 829.01 130.265 M 854.354 148.774 L 891.415 99.3159 M 905.274 31.0506 L 866.533 80.1897 M 929.679 50.7818 L 905.274 31.0506 M 891.415 99.3159 L 929.679 50.7818 M 370.383 1084.21 L 354.883 1144.83 M 385.382 1152.23 L 400.691 1092.36 M 354.883 1144.83 L 385.382 1152.23 M 387.366 1023.99 L 370.383 1084.21 M 400.691 1092.36 L 417.465 1032.87 M 405.823 964.196 L 387.366 1023.99 M 417.465 1032.87 L 435.694 973.82 M 425.741 904.877 L 405.823 964.196 M 435.694 973.82 L 455.368 915.231 M 447.11 846.065 L 425.741 904.877 M 455.368 915.231 L 476.473 857.143 M 469.915 787.795 L 447.11 846.065 M 476.473 857.143 L 498.998 799.591 M 494.144 730.102 L 469.915 787.795 M 498.998 799.591 L 522.928 742.608 M 519.782 673.022 L 494.144 730.102 M 522.928 742.608 L 548.251 686.231 M 546.813 616.588 L 519.782 673.022 M 548.251 686.231 L 574.949 630.491 M 575.221 560.834 L 630.388 518.304 M 632.408 521.062 L 575.221 560.834 M 630.66 448.646 L 602.252 504.4 M 627.89 447.319 L 652.118 389.627 M 623.036 377.831 L 599.105 434.813 M 652.118 389.627 L 674.924 331.357 M 645.56 320.278 L 623.036 377.831 M 674.924 331.357 L 696.292 272.544 M 666.666 262.19 L 645.56 320.278 M 696.292 272.544 L 716.21 213.225 M 686.339 203.601 L 666.666 262.19 M 716.21 213.225 L 734.667 153.435 M 704.568 144.547 L 686.339 203.601 M 734.667 153.435 L 751.65 93.2105 M 721.342 85.0639 L 704.568 144.547 M 751.65 93.2105 L 767.15 32.5867 M 767.15 32.5867 L 721.342 85.0639 M 465.998 66.3527 L 444.796 0 M 444.796 0 L 422.682 22.2688 M 129.654 132.015 L 81.8008 172.333 M 149.579 156.263 L 129.654 132.015 M 81.8008 172.333 L 102.315 196.084 M 232.265 1082.36 L 272.2 1034.18 M 208.351 1062.03 L 232.265 1082.36 M 247.794 1014.45 L 208.351 1062.03 M 272.2 1034.18 L 310.94 985.045 M 286.058 965.918 L 247.794 1014.45 M 310.94 985.045 L 348.463 934.969 M 323.119 916.46 L 286.058 965.918 M 348.463 934.969 L 384.745 883.988 M 358.955 866.106 L 323.119 916.46 M 384.745 883.988 L 419.766 832.132 M 393.544 814.889 L 358.955 866.106 M 419.766 832.132 L 453.502 779.432 M 426.865 762.837 L 393.544 814.889 M 453.502 779.432 L 485.935 725.92 M 458.899 709.984 L 426.865 762.837 M 485.935 725.92 L 517.045 671.627 M 489.626 656.36 L 458.899 709.984 M 517.045 671.627 L 546.813 616.588 M 573.783 491.191 L 547.085 546.93 M 602.252 504.4 L 627.89 447.319 M 599.105 434.813 L 573.783 491.191 M 590.792 431.397 L 606.207 371.547 M 575.549 364.834 L 560.706 422.464 M 606.207 371.547 L 617.212 310.731 M 586.147 306.274 L 575.549 364.834 M 617.212 310.731 L 623.749 249.274 M 592.441 247.097 L 586.147 306.274 M 623.749 249.274 L 625.783 187.504 M 594.4 187.618 L 592.441 247.097 M 625.783 187.504 L 623.304 125.751 M 592.012 128.154 L 594.4 187.618 M 623.304 125.751 L 616.323 64.3428 M 616.323 64.3428 L 592.012 128.154 M 481.324 132.896 L 465.998 66.3527 M 422.682 22.2688 L 442.824 87.5164 M 396.754 100.674 L 358.794 43.9116 M 358.794 43.9116 L 344.647 71.926 M 168.911 180.986 L 149.579 156.263 M 102.315 196.084 L 123.399 219.33 M 7.23943 384.692 L 0 446.07 M 38.2521 389.504 L 7.23943 384.692 M 0 446.07 L 31.2811 448.606 M 186.182 958.227 L 238.426 925.207 M 170.395 931.103 L 186.182 958.227 M 220.701 899.308 L 170.395 931.103 M 238.426 925.207 L 288.12 888.463 M 268.552 863.927 L 220.701 899.308 M 288.12 888.463 L 335 848.19 M 313.694 825.147 L 268.552 863.927 M 335 848.19 L 378.815 804.602 M 355.884 783.176 L 313.694 825.147 M 378.815 804.602 L 419.332 757.933 M 394.898 738.238 L 355.884 783.176 M 419.332 757.933 L 456.335 708.431 M 430.528 690.571 L 394.898 738.238 M 456.335 708.431 L 489.626 656.36 M 519.027 601.998 L 462.584 640.432 M 460.787 637.649 L 519.027 601.998 M 547.085 546.93 L 571.049 489.962 M 571.049 489.962 L 590.792 431.397 M 560.706 422.464 L 541.696 478.858 M 558.05 421.638 L 567.448 362.873 M 536.217 359.781 L 527.412 414.835 M 567.448 362.873 L 569.756 303.407 M 538.379 304.069 L 536.217 359.781 M 569.756 303.407 L 564.94 244.091 M 533.867 248.499 L 538.379 304.069 M 564.94 244.091 L 553.069 185.775 M 522.746 193.865 L 533.867 248.499 M 553.069 185.775 L 534.314 129.297 M 534.314 129.297 L 522.746 193.865 M 486.949 198.251 L 481.324 132.896 M 442.824 87.5164 L 456.22 151.731 M 425.224 159.77 L 396.754 100.674 M 344.647 71.926 L 379.976 127.196 M 345.326 142.884 L 297.047 98.4763 M 297.047 98.4763 L 291.247 129.32 M 187.659 206.154 L 168.911 180.986 M 123.399 219.33 L 145.021 242.078 M 69.1438 395.04 L 38.2521 389.504 M 31.2811 448.606 L 62.613 450.41 M 138.577 882.956 L 195.719 866.33 M 131.629 852.351 L 138.577 882.956 M 185.163 836.775 L 131.629 852.351 M 195.719 866.33 L 250.464 842.994 M 236.451 814.912 L 185.163 836.775 M 250.464 842.994 L 302.027 813.282 M 284.759 787.076 L 236.451 814.912 M 302.027 813.282 L 349.67 777.62 M 329.393 753.666 L 284.759 787.076 M 349.67 777.62 L 392.709 736.52 M 369.715 715.161 L 329.393 753.666 M 392.709 736.52 L 430.528 690.571 M 462.584 640.432 L 405.146 672.114 M 400.596 663.725 L 460.787 637.649 M 491.603 586.738 L 434.96 619.82 M 433.476 617.137 L 491.603 586.738 M 518.621 533.713 L 489.855 521.165 M 490.473 519.834 L 518.621 533.713 M 541.696 478.858 L 558.05 421.638 M 527.412 414.835 L 512.091 468.442 M 525.047 414.215 L 528.995 358.601 M 497.614 358.945 L 494.029 409.441 M 528.995 358.601 L 523.83 303.088 M 492.923 308.54 L 497.614 358.945 M 523.83 303.088 L 509.688 249.157 M 480.083 259.572 L 492.923 308.54 M 509.688 249.157 L 486.949 198.251 M 459.437 213.35 L 480.083 259.572 M 456.22 151.731 L 459.437 213.35 M 440.584 219.532 L 425.224 159.77 M 379.976 127.196 L 404.867 183.656 M 381.667 192.751 L 345.326 142.884 M 291.247 129.32 L 335.228 172.599 M 311.339 186.867 L 258.965 154.243 M 258.965 154.243 L 260.732 185.576 M 205.85 231.727 L 187.659 206.154 M 145.021 242.078 L 167.136 264.345 M 99.9065 401.251 L 69.1438 395.04 M 62.613 450.41 L 93.9767 451.526 M 118.855 818.625 L 174.495 815.067 M 119.419 787.247 L 118.855 818.625 M 169.939 784.016 L 119.419 787.247 M 174.495 815.067 L 228.812 802.491 M 219.258 772.597 L 169.939 784.016 M 228.812 802.491 L 280.354 781.233 M 266.057 753.295 L 219.258 772.597 M 280.354 781.233 L 327.744 751.861 M 309.086 726.627 L 266.057 753.295 M 327.744 751.861 L 369.715 715.161 M 347.195 693.304 L 309.086 726.627 M 405.146 672.114 L 347.195 693.304 M 340.266 676.675 L 400.596 663.725 M 434.96 619.82 L 377.546 642.427 M 374.252 634.456 L 433.476 617.137 M 464.543 570.842 L 408.933 597.578 M 407.814 595.114 L 464.543 570.842 M 489.855 521.165 L 460.821 509.25 M 462.636 505.342 L 490.473 519.834 M 512.091 468.442 L 525.047 414.215 M 494.029 409.441 L 495.597 358.842 M 464.292 361.062 L 462.921 405.287 M 495.597 358.842 L 486.905 308.971 M 456.695 317.473 L 464.292 361.062 M 486.905 308.971 L 468.312 261.886 M 440.444 276.319 L 456.695 317.473 M 468.312 261.886 L 440.584 219.532 M 416.209 239.3 L 440.444 276.319 M 404.867 183.656 L 416.209 239.3 M 402.505 245.577 L 381.667 192.751 M 335.228 172.599 L 366.313 220.122 M 350.446 228.043 L 311.339 186.867 M 260.732 185.576 L 307.355 217.997 M 292.366 228.417 L 240.773 204.69 M 240.773 204.69 L 248.623 235.076 M 223.529 257.658 L 205.85 231.727 M 167.136 264.345 L 189.691 286.167 M 130.539 408.075 L 99.9065 401.251 M 93.9767 451.526 L 125.357 452.017 M 99.6393 708.725 L 148.365 722.456 M 111.176 679.539 L 99.6393 708.725 M 153.764 691.54 L 111.176 679.539 M 148.365 722.456 L 198.86 726.053 M 197.899 694.685 L 153.764 691.54 M 198.86 726.053 L 249.04 719.37 M 241.758 688.843 L 197.899 694.685 M 249.04 719.37 L 296.833 702.68 M 283.53 674.256 L 241.758 688.843 M 296.833 702.68 L 340.266 676.675 M 321.492 651.526 L 283.53 674.256 M 377.546 642.427 L 321.492 651.526 M 317.491 636.185 L 374.252 634.456 M 408.933 597.578 L 353.692 610.745 M 351.666 603.614 L 407.814 595.114 M 437.838 554.356 L 384.568 574.03 M 383.825 571.89 L 437.838 554.356 M 460.821 509.25 L 431.555 497.917 M 435.093 490.297 L 462.636 505.342 M 482.265 458.679 L 452.25 449.512 M 452.639 448.322 L 482.265 458.679 M 462.921 405.287 L 462.747 361.041 M 431.601 364.897 L 431.746 401.677 M 462.747 361.041 L 452.126 318.088 M 422.772 329.193 L 431.601 364.897 M 452.126 318.088 L 431.659 278.86 M 405.759 296.584 L 422.772 329.193 M 431.659 278.86 L 402.505 245.577 M 381.524 268.917 L 405.759 296.584 M 366.313 220.122 L 381.524 268.917 M 372.568 274.118 L 350.446 228.043 M 307.355 217.997 L 339.735 257.543 M 330.003 262.996 L 292.366 228.417 M 248.623 235.076 L 293.364 259.785 M 285.087 265.639 L 237.553 246.858 M 237.553 246.858 L 249.733 275.781 M 240.751 283.894 L 223.529 257.658 M 189.691 286.167 L 212.624 307.592 M 161.048 415.432 L 130.539 408.075 M 125.357 452.017 L 156.74 451.959 M 125.542 456.758 L 134.15 500.159 M 156.834 454.358 L 125.542 456.758 M 134.15 500.159 L 163.989 490.436 M 146.758 638.981 L 188.452 653.792 M 160.707 610.867 L 146.758 638.981 M 195.365 623.179 L 160.707 610.867 M 188.452 653.792 L 232.464 658.335 M 231.95 626.956 L 195.365 623.179 M 232.464 658.335 L 276.305 652.353 M 268.393 621.983 L 231.95 626.956 M 276.305 652.353 L 317.491 636.185 M 302.629 608.543 L 268.393 621.983 M 353.692 610.745 L 302.629 608.543 M 301.222 595.382 L 351.666 603.614 M 384.568 574.03 L 333.607 577.947 M 332.715 571.987 L 383.825 571.89 M 411.467 537.341 L 384.803 520.789 M 385.398 519.868 L 411.467 537.341 M 431.555 497.917 L 402.096 487.097 M 407.818 474.773 L 435.093 490.297 M 452.25 449.512 L 422.079 440.87 M 423.199 437.45 L 452.639 448.322 M 431.746 401.677 L 430.531 364.917 M 399.583 370.128 L 400.522 398.52 M 430.531 364.917 L 419.641 329.786 M 391.172 342.994 L 399.583 370.128 M 419.641 329.786 L 399.851 298.785 M 375.887 319.049 L 391.172 342.994 M 399.851 298.785 L 372.568 274.118 M 354.814 299.997 L 375.887 319.049 M 339.735 257.543 L 354.814 299.997 M 349.755 303.489 L 330.003 262.996 M 293.364 259.785 L 323.118 293.615 M 318.046 296.356 L 285.087 265.639 M 249.733 275.781 L 289.64 296.691 M 289.171 297.067 L 248.502 277.681 M 248.502 277.681 L 262.18 305.927 M 257.591 310.378 L 240.751 283.894 M 212.624 307.592 L 235.865 328.681 M 191.447 423.233 L 161.048 415.432 M 156.74 451.959 L 188.12 451.445 M 188.158 452.414 L 156.834 454.358 M 163.989 490.436 L 193.684 480.279 M 162.753 570.897 L 193.592 590.941 M 183.214 547.099 L 162.753 570.897 M 207.032 562.581 L 183.214 547.099 M 193.592 590.941 L 228.632 602.119 M 234.097 571.215 L 207.032 562.581 M 228.632 602.119 L 265.38 603.635 M 262.48 572.386 L 234.097 571.215 M 265.38 603.635 L 301.222 595.382 M 290.164 566.011 L 262.48 572.386 M 333.607 577.947 L 290.164 566.011 M 290.744 555.61 L 332.715 571.987 M 361.826 549.508 L 317.019 544.81 M 317.174 543.509 L 361.826 549.508 M 384.803 520.789 L 357.902 504.626 M 359.585 502.017 L 385.398 519.868 M 402.096 487.097 L 372.482 476.706 M 380.771 458.854 L 407.818 474.773 M 422.079 440.87 L 391.786 432.669 M 393.92 426.151 L 423.199 437.45 M 400.522 398.52 L 398.945 370.156 M 368.19 376.409 L 369.264 395.715 M 398.945 370.156 L 389.321 343.428 M 361.64 358.216 L 368.19 376.409 M 389.321 343.428 L 372.455 320.569 M 350.159 342.657 L 361.64 358.216 M 372.455 320.569 L 349.755 303.489 M 334.708 331.031 L 350.159 342.657 M 323.118 293.615 L 334.708 331.031 M 332.469 332.773 L 318.046 296.356 M 289.64 296.691 L 313.877 327.461 M 313.877 327.461 L 289.171 297.067 M 262.18 305.927 L 294.547 327.986 M 292.484 329.57 L 258.812 309.558 M 258.812 309.558 L 274.521 336.728 M 274.131 337.049 L 257.591 310.378 M 235.865 328.681 L 259.343 349.508 M 221.756 431.375 L 191.447 423.233 M 188.12 451.445 L 219.491 450.578 M 219.501 450.822 L 188.158 452.414 M 193.684 480.279 L 223.262 469.789 M 188.998 520.168 L 209.387 539.95 M 213.878 501.039 L 188.998 520.168 M 227.756 514.504 L 213.878 501.039 M 209.387 539.95 L 234.582 553.074 M 244.905 523.437 L 227.756 514.504 M 234.582 553.074 L 262.477 558.444 M 263.893 527.092 L 244.905 523.437 M 262.477 558.444 L 290.744 555.61 M 283.133 525.163 L 263.893 527.092 M 317.019 544.81 L 283.133 525.163 M 302.587 515.722 L 284.347 522.141 M 284.347 522.141 L 317.174 543.509 M 340.154 526.808 L 302.587 515.722 M 302.846 514.879 L 340.154 526.808 M 357.902 504.626 L 318.74 503.866 M 320.635 497.876 L 359.585 502.017 M 372.482 476.706 L 342.753 466.649 M 353.905 442.632 L 380.771 458.854 M 391.786 432.669 L 361.403 424.808 M 364.77 414.522 L 393.92 426.151 M 369.264 395.715 L 367.894 376.428 M 337.292 383.386 L 337.985 393.15 M 367.894 376.428 L 360.789 358.444 M 333.695 374.282 L 337.292 383.386 M 360.789 358.444 L 348.604 343.429 M 327.527 366.682 L 333.695 374.282 M 348.604 343.429 L 332.469 332.773 M 319.359 361.287 L 327.527 366.682 M 309.946 358.598 L 319.359 361.287 M 294.547 327.986 L 309.946 358.598 M 309.293 359.431 L 292.484 329.57 M 274.521 336.728 L 299.531 360.152 M 299.531 360.152 L 274.339 336.923 M 274.339 336.923 L 290.466 363.846 M 290.466 363.846 L 274.131 337.049 M 259.343 349.508 L 282.98 370.153 M 252.002 439.749 L 221.756 431.375 M 219.491 450.578 L 250.855 449.471 M 250.855 449.471 L 219.501 450.822 M 223.262 469.789 L 252.76 459.072 M 219.144 488.041 L 230.841 503.437 M 246.731 473.077 L 219.144 488.041 M 252.653 480.872 L 246.731 473.077 M 230.841 503.437 L 246.627 514.605 M 260.644 486.525 L 252.653 480.872 M 246.627 514.605 L 265.04 520.509 M 269.965 489.514 L 260.644 486.525 M 265.04 520.509 L 284.376 520.603 M 279.754 489.562 L 269.965 489.514 M 284.376 520.603 L 302.846 514.879 M 289.104 486.664 L 279.754 489.562 M 318.74 503.866 L 289.104 486.664 M 292.902 477.749 L 320.635 497.876 M 333.975 483.878 L 301.473 473.021 M 301.644 472.524 L 333.975 483.878 M 342.753 466.649 L 312.948 456.82 M 327.165 426.204 L 353.905 442.632 M 361.403 424.808 L 330.96 417.181 M 335.71 402.671 L 364.77 414.522 M 851.349 663.664 L 842.363 667.547 M 861.094 662.738 L 851.349 663.664 M 870.65 664.859 L 861.094 662.738 M 879.087 669.822 L 870.65 664.859 M 885.586 677.142 L 879.087 669.822 M 889.513 686.109 L 885.586 677.142 M 859.153 694.061 L 888.411 705.415 M 835.198 805.852 L 817.909 779.66 M 798.437 804.273 L 806.967 809.074 M 791.801 797.076 L 798.437 804.273 M 787.705 788.186 L 791.801 797.076 M 786.548 778.466 L 787.705 788.186 M 817.909 779.66 L 788.441 768.862 M 821.546 767.749 L 794.87 751.217 M 791.074 760.24 L 821.546 767.749 M 838.928 730.315 L 813.53 711.88 M 809.086 720.602 L 838.928 730.315 M 858.997 694.248 L 835.011 674.009 M 829.942 682.384 L 858.997 694.248 M 835.011 674.009 L 859.153 694.061 M 337.985 393.15 L 337.216 383.392 M 337.216 383.392 L 333.478 374.345 M 333.478 374.345 L 327.134 366.89 M 327.134 366.89 L 318.802 361.752 M 318.802 361.752 L 309.293 359.431 M 282.98 370.153 L 306.697 390.707 M 282.215 448.241 L 252.002 439.749 M 252.76 459.072 L 257.529 467.62 M 257.529 467.62 L 264.7 474.283 M 264.7 474.283 L 273.576 478.412 M 273.576 478.412 L 283.291 479.606 M 283.291 479.606 L 292.902 477.749 M 301.473 473.021 L 282.215 448.241 M 308.504 465.542 L 282.963 447.305 M 282.963 447.305 L 301.644 472.524 M 312.948 456.82 L 283.106 447.108 M 283.106 447.108 L 308.504 465.542 M 330.96 417.181 L 300.488 409.673 M 300.488 409.673 L 327.165 426.204 M 306.697 390.707 L 335.71 402.671" />
<path fill="none" class="c" d=" M 546.813 616.588 L 575.221 560.834 M 519.027 601.998 L 546.813 616.588 M 575.221 560.834 L 547.085 546.93 M 547.085 546.93 L 519.027 601.998 M 575.221 560.834 L 602.252 504.4 M 602.252 504.4 L 573.783 491.191 M 627.89 447.319 L 599.105 434.813 M 491.603 586.738 L 519.027 601.998 M 547.085 546.93 L 518.621 533.713 M 518.621 533.713 L 491.603 586.738 M 571.049 489.962 L 541.696 478.858 M 541.696 478.858 L 518.621 533.713 M 590.792 431.397 L 560.706 422.464 M 464.543 570.842 L 491.603 586.738 M 489.855 521.165 L 464.543 570.842 M 541.696 478.858 L 512.091 468.442 M 512.091 468.442 L 490.473 519.834 M 558.05 421.638 L 527.412 414.835 M 437.838 554.356 L 464.543 570.842 M 460.821 509.25 L 437.838 554.356 M 512.091 468.442 L 482.265 458.679 M 482.265 458.679 L 462.636 505.342 M 525.047 414.215 L 494.029 409.441 M 494.029 409.441 L 482.265 458.679 M 411.467 537.341 L 437.838 554.356 M 431.555 497.917 L 411.467 537.341 M 452.25 449.512 L 435.093 490.297 M 494.029 409.441 L 462.921 405.287 M 462.921 405.287 L 452.639 448.322 M 402.096 487.097 L 385.398 519.868 M 422.079 440.87 L 407.818 474.773 M 462.921 405.287 L 431.746 401.677 M 431.746 401.677 L 423.199 437.45 M 372.482 476.706 L 359.585 502.017 M 391.786 432.669 L 380.771 458.854 M 431.746 401.677 L 400.522 398.52 M 400.522 398.52 L 393.92 426.151 M 333.975 483.878 L 359.585 502.017 M 342.753 466.649 L 333.975 483.878 M 361.403 424.808 L 353.905 442.632 M 400.522 398.52 L 369.264 395.715 M 369.264 395.715 L 364.77 414.522 M 308.504 465.542 L 333.975 483.878 M 312.948 456.82 L 308.504 465.542 M 330.96 417.181 L 327.165 426.204 M 369.264 395.715 L 337.985 393.15 M 337.985 393.15 L 335.71 402.671 M 337.985 393.15 L 306.697 390.707 M 574.949 630.491 L 603.007 575.424 M 630.431 590.684 L 603.007 575.424 M 603.007 575.424 L 575.221 560.834 M 546.813 616.588 L 574.949 630.491 M 630.388 518.304 L 602.252 504.4 M 603.007 575.424 L 632.408 521.062 M 630.388 518.304 L 658.446 463.236 M 652.118 389.627 L 623.036 377.831 M 674.924 331.357 L 645.56 320.278 M 696.292 272.544 L 666.666 262.19 M 716.21 213.225 L 686.339 203.601 M 734.667 153.435 L 704.568 144.547 M 751.65 93.2105 L 721.342 85.0639 M 519.027 601.998 L 489.626 656.36 M 606.207 371.547 L 575.549 364.834 M 617.212 310.731 L 586.147 306.274 M 623.749 249.274 L 592.441 247.097 M 625.783 187.504 L 594.4 187.618 M 623.304 125.751 L 592.012 128.154 M 462.584 640.432 L 489.626 656.36 M 491.603 586.738 L 460.787 637.649 M 567.448 362.873 L 536.217 359.781 M 569.756 303.407 L 538.379 304.069 M 564.94 244.091 L 533.867 248.499 M 553.069 185.775 L 522.746 193.865 M 434.96 619.82 L 460.787 637.649 M 464.543 570.842 L 433.476 617.137 M 528.995 358.601 L 497.614 358.945 M 523.83 303.088 L 492.923 308.54 M 509.688 249.157 L 480.083 259.572 M 486.949 198.251 L 459.437 213.35 M 486.949 198.251 L 456.22 151.731 M 408.933 597.578 L 433.476 617.137 M 437.838 554.356 L 407.814 595.114 M 495.597 358.842 L 464.292 361.062 M 486.905 308.971 L 456.695 317.473 M 468.312 261.886 L 440.444 276.319 M 440.584 219.532 L 416.209 239.3 M 440.584 219.532 L 404.867 183.656 M 384.568 574.03 L 407.814 595.114 M 411.467 537.341 L 383.825 571.89 M 462.747 361.041 L 431.601 364.897 M 452.126 318.088 L 422.772 329.193 M 431.659 278.86 L 405.759 296.584 M 402.505 245.577 L 381.524 268.917 M 402.505 245.577 L 366.313 220.122 M 361.826 549.508 L 383.825 571.89 M 384.803 520.789 L 361.826 549.508 M 430.531 364.917 L 399.583 370.128 M 419.641 329.786 L 391.172 342.994 M 399.851 298.785 L 375.887 319.049 M 372.568 274.118 L 354.814 299.997 M 372.568 274.118 L 339.735 257.543 M 340.154 526.808 L 361.826 549.508 M 357.902 504.626 L 340.154 526.808 M 398.945 370.156 L 368.19 376.409 M 389.321 343.428 L 361.64 358.216 M 372.455 320.569 L 350.159 342.657 M 349.755 303.489 L 334.708 331.031 M 349.755 303.489 L 323.118 293.615 M 318.74 503.866 L 340.154 526.808 M 333.975 483.878 L 320.635 497.876 M 367.894 376.428 L 337.292 383.386 M 360.789 358.444 L 333.695 374.282 M 348.604 343.429 L 327.527 366.682 M 332.469 332.773 L 319.359 361.287 M 332.469 332.773 L 313.877 327.461 M 313.877 327.461 L 309.946 358.598 M 313.877 327.461 L 294.547 327.986 M 301.473 473.021 L 320.635 497.876 M 308.504 465.542 L 301.644 472.524 M 337.216 383.392 L 306.697 390.707 M 333.478 374.345 L 306.697 390.707 M 327.134 366.89 L 306.697 390.707 M 318.802 361.752 L 306.697 390.707 M 309.293 359.431 L 306.697 390.707 M 309.293 359.431 L 299.531 360.152 M 299.531 360.152 L 306.697 390.707 M 299.531 360.152 L 290.466 363.846 M 290.466 363.846 L 306.697 390.707 M 290.466 363.846 L 282.98 370.153 M 630.431 590.684 L 661.247 539.772 M 603.414 643.709 L 630.431 590.684 M 574.949 630.491 L 603.414 643.709 M 659.45 536.99 L 632.408 521.062 M 685.87 478.496 L 658.446 463.236 M 659.45 536.99 L 691.506 486.851 M 519.782 673.022 L 548.251 686.231 M 658.446 463.236 L 630.66 448.646 M 489.626 656.36 L 517.045 671.627 M 462.584 640.432 L 430.528 690.571 M 481.324 132.896 L 456.22 151.731 M 481.324 132.896 L 442.824 87.5164 M 405.146 672.114 L 430.528 690.571 M 434.96 619.82 L 400.596 663.725 M 425.224 159.77 L 404.867 183.656 M 425.224 159.77 L 379.976 127.196 M 377.546 642.427 L 400.596 663.725 M 408.933 597.578 L 374.252 634.456 M 381.667 192.751 L 366.313 220.122 M 381.667 192.751 L 335.228 172.599 M 353.692 610.745 L 374.252 634.456 M 384.568 574.03 L 351.666 603.614 M 350.446 228.043 L 339.735 257.543 M 350.446 228.043 L 307.355 217.997 M 333.607 577.947 L 351.666 603.614 M 361.826 549.508 L 332.715 571.987 M 330.003 262.996 L 323.118 293.615 M 330.003 262.996 L 293.364 259.785 M 317.019 544.81 L 332.715 571.987 M 340.154 526.808 L 317.174 543.509 M 318.046 296.356 L 313.877 327.461 M 318.046 296.356 L 289.64 296.691 M 289.171 297.067 L 294.547 327.986 M 289.171 297.067 L 262.18 305.927 M 302.587 515.722 L 317.174 543.509 M 318.74 503.866 L 302.846 514.879 M 292.484 329.57 L 299.531 360.152 M 292.484 329.57 L 274.521 336.728 M 289.104 486.664 L 302.846 514.879 M 301.473 473.021 L 292.902 477.749 M 282.215 448.241 L 292.902 477.749 M 658.204 605.298 L 687.074 557.601 M 632.179 656.257 L 657.491 606.58 M 687.074 557.601 L 661.247 539.772 M 716.888 505.308 L 691.506 486.851 M 687.074 557.601 L 721.438 513.697 M 685.87 478.496 L 716.686 427.585 M 580.338 698.564 L 603.414 643.709 M 550.985 687.46 L 580.338 698.564 M 658.446 463.236 L 687.847 408.874 M 494.144 730.102 L 522.928 742.608 M 465.998 66.3527 L 442.824 87.5164 M 465.998 66.3527 L 422.682 22.2688 M 430.528 690.571 L 456.335 708.431 M 396.754 100.674 L 379.976 127.196 M 396.754 100.674 L 344.647 71.926 M 405.146 672.114 L 369.715 715.161 M 345.326 142.884 L 335.228 172.599 M 345.326 142.884 L 291.247 129.32 M 347.195 693.304 L 369.715 715.161 M 377.546 642.427 L 340.266 676.675 M 311.339 186.867 L 307.355 217.997 M 311.339 186.867 L 260.732 185.576 M 321.492 651.526 L 340.266 676.675 M 353.692 610.745 L 317.491 636.185 M 292.366 228.417 L 293.364 259.785 M 292.366 228.417 L 248.623 235.076 M 302.629 608.543 L 317.491 636.185 M 333.607 577.947 L 301.222 595.382 M 285.087 265.639 L 289.64 296.691 M 285.087 265.639 L 249.733 275.781 M 290.164 566.011 L 301.222 595.382 M 317.019 544.81 L 290.744 555.61 M 283.133 525.163 L 290.744 555.61 M 274.131 337.049 L 259.343 349.508 M 282.215 448.241 L 283.291 479.606 M 686.291 619.3 L 712.505 575.992 M 661.213 668.172 L 684.196 623.066 M 712.505 575.992 L 687.074 557.601 M 744.488 534.995 L 721.438 513.697 M 712.505 575.992 L 745.424 537.534 M 742.513 445.414 L 716.686 427.585 M 716.888 505.308 L 752.319 462.26 M 609.943 708.979 L 631.562 657.588 M 580.338 698.564 L 609.943 708.979 M 714.889 424.803 L 687.847 408.874 M 531.243 746.025 L 561.328 754.957 M 687.847 408.874 L 660.428 393.607 M 469.915 787.795 L 498.998 799.591 M 458.899 709.984 L 485.935 725.92 M 369.715 715.161 L 392.709 736.52 M 279.754 489.562 L 284.376 520.603 M 282.215 448.241 L 273.576 478.412 M 714.652 632.739 L 737.563 594.887 M 690.479 679.505 L 710.567 640.081 M 737.563 594.887 L 712.505 575.992 M 767.069 560.259 L 745.424 537.534 M 737.563 594.887 L 767.653 562.447 M 774.839 484.118 L 752.319 462.26 M 744.488 534.995 L 781.768 500.747 M 774.839 484.118 L 812.948 450.795 M 639.769 718.743 L 659.398 672.08 M 609.943 708.979 L 639.769 718.743 M 776.877 401.509 L 753.365 380.721 M 563.984 755.784 L 594.622 762.587 M 746.945 374.663 L 721.138 356.804 M 515.828 805.875 L 546.485 812.588 M 718.574 355.251 L 691.538 339.315 M 447.11 846.065 L 476.473 857.143 M 394.898 738.238 L 419.332 757.933 M 309.086 726.627 L 327.744 751.861 M 283.53 674.256 L 296.833 702.68 M 268.393 621.983 L 276.305 652.353 M 262.48 572.386 L 265.38 603.635 M 257.591 310.378 L 235.865 328.681 M 263.893 527.092 L 262.477 558.444 M 282.215 448.241 L 264.7 474.283 M 743.243 645.681 L 762.288 614.216 M 786.729 633.903 L 762.288 614.216 M 719.938 690.325 L 736.636 657.554 M 762.288 614.216 L 737.563 594.887 M 787.96 586.375 L 767.653 562.447 M 762.288 614.216 L 788.227 588.14 M 800.542 525.896 L 781.768 500.747 M 767.069 560.259 L 802.042 533.155 M 831.1 476.397 L 812.948 450.795 M 669.785 727.91 L 686.941 687.125 M 639.769 718.743 L 669.785 727.91 M 812.948 450.795 L 794.29 425.56 M 596.987 763.207 L 628.005 767.98 M 816.242 362.026 L 795.383 338.577 M 554.586 814.549 L 585.817 817.641 M 782.575 326.997 L 758.141 307.301 M 504.822 866.691 L 535.888 871.148 M 750.608 302.397 L 723.971 285.802 M 425.741 904.877 L 455.368 915.231 M 426.865 762.837 L 453.502 779.432 M 329.393 753.666 L 349.67 777.62 M 269.965 489.514 L 265.04 520.509 M 282.215 448.241 L 257.529 467.62 M 786.729 633.903 L 807.341 614.354 M 749.552 700.716 L 762.449 675.405 M 772.019 658.206 L 786.729 633.903 M 807.326 613.044 L 788.227 588.14 M 818.18 560.072 L 802.042 533.155 M 787.96 586.375 L 818.635 566.081 M 699.955 736.551 L 714.216 702.649 M 869.608 454.606 L 857.006 425.863 M 661.226 771.321 L 669.785 727.91 M 629.978 768.41 L 661.226 771.321 M 855.977 424.126 L 841.68 396.189 M 593.039 818.82 L 624.421 818.477 M 860.043 327.531 L 842.136 301.757 M 552.279 874.015 L 583.655 873.352 M 821.59 282.058 L 798.658 260.632 M 498.285 928.148 L 529.593 930.325 M 783.93 250.346 L 757.708 233.102 M 405.823 964.196 L 435.694 973.82 M 355.884 783.176 L 378.815 804.602 M 266.057 753.295 L 280.354 781.233 M 241.758 688.843 L 249.04 719.37 M 231.95 626.956 L 232.464 658.335 M 240.751 283.894 L 212.624 307.592 M 234.097 571.215 L 228.632 602.119 M 244.905 523.437 L 234.582 553.074 M 282.215 448.241 L 252.76 459.072 M 825.42 640.007 L 807.341 614.354 M 779.281 710.773 L 788.059 693.544 M 810.947 653.864 L 786.729 633.903 M 800.934 670.406 L 810.947 653.864 M 810.947 653.864 L 825.273 640.876 M 832.305 594.331 L 818.635 566.081 M 807.326 613.044 L 831.972 598.917 M 730.248 744.753 L 741.263 718.568 M 851.751 545.047 L 842.428 515.08 M 692.521 773.685 L 699.635 737.6 M 661.226 771.321 L 692.521 773.685 M 911.726 441.049 L 905.195 410.352 M 630.429 819.032 L 661.62 815.565 M 902.776 404.825 L 893.222 374.931 M 598.205 874.334 L 629.111 868.882 M 907.653 298.517 L 892.955 270.788 M 557.095 933.331 L 588.167 928.923 M 863.78 240.087 L 842.474 217.044 M 496.251 989.918 L 527.635 989.804 M 818.519 199.128 L 792.728 181.246 M 387.366 1023.99 L 417.465 1032.87 M 393.544 814.889 L 419.766 832.132 M 284.759 787.076 L 302.027 813.282 M 260.644 486.525 L 246.627 514.605 M 250.855 449.471 L 252.76 459.072 M 282.215 448.241 L 250.855 449.471 M 825.42 640.007 L 842.67 631.269 M 809.086 720.602 L 813.53 711.88 M 835.011 674.009 L 810.947 653.864 M 829.942 682.384 L 835.011 674.009 M 842.569 667.063 L 825.273 640.876 M 835.011 674.009 L 842.363 667.547 M 843.48 628.114 L 831.972 598.917 M 760.631 752.613 L 768.129 734.79 M 859.299 585.478 L 853.583 554.619 M 723.846 775.594 L 729.341 747.722 M 692.521 773.685 L 723.846 775.594 M 887.921 538.377 L 885.941 507.056 M 663.165 815.525 L 694.133 810.43 M 955.715 436.285 L 955.524 404.902 M 641.102 868.517 L 670.949 858.817 M 952.095 393.406 L 947.539 362.355 M 612.346 928.265 L 641.951 917.85 M 958.389 275.402 L 947.11 246.115 M 568.966 991.646 L 599.289 983.556 M 908.921 201.308 L 889.354 176.771 M 498.731 1051.67 L 530.023 1049.27 M 854.354 148.774 L 829.01 130.265 M 370.383 1084.21 L 400.691 1092.36 M 313.694 825.147 L 335 848.19 M 219.258 772.597 L 228.812 802.491 M 197.899 694.685 L 198.86 726.053 M 223.529 257.658 L 189.691 286.167 M 195.365 623.179 L 188.452 653.792 M 207.032 562.581 L 193.592 590.941 M 227.756 514.504 L 209.387 539.95 M 859.153 694.061 L 842.363 667.547 M 252.002 439.749 L 250.855 449.471 M 852.427 661.097 L 842.67 631.269 M 791.074 760.24 L 794.87 751.217 M 862.305 623.699 L 859.629 592.429 M 755.191 777.15 L 758.932 758.179 M 723.846 775.594 L 755.191 777.15 M 887.672 584.076 L 890.318 552.804 M 695.201 810.367 L 725.916 803.926 M 924.643 540.44 L 930.118 509.537 M 675.491 858.02 L 704.378 845.754 M 661.559 914.823 L 688.829 899.29 M 635.085 979.171 L 662.598 964.071 M 587.721 1048.12 L 616.86 1036.47 M 891.415 99.3159 L 866.533 80.1897 M 358.955 866.106 L 384.745 883.988 M 236.451 814.912 L 250.464 842.994 M 219.501 450.822 L 223.262 469.789 M 252.653 480.872 L 230.841 503.437 M 859.153 694.061 L 851.349 663.664 M 859.153 694.061 L 861.094 662.738 M 859.153 694.061 L 870.65 664.859 M 859.153 694.061 L 879.087 669.822 M 859.153 694.061 L 885.586 677.142 M 859.153 694.061 L 889.513 686.109 M 890.486 695.849 L 889.513 686.109 M 859.153 694.061 L 890.486 695.849 M 888.411 705.415 L 890.486 695.849 M 862.086 659.504 L 861.748 628.123 M 755.191 777.15 L 786.548 778.466 M 786.548 778.466 L 788.441 768.862 M 881.607 624.852 L 887.987 594.123 M 726.553 803.873 L 757.034 796.399 M 915.406 590.225 L 926.226 560.766 M 707.483 845.036 L 735.403 830.704 M 959.838 551.119 L 972.458 522.384 M 697.506 896.4 L 722.678 877.658 M 690.953 956.038 L 714.521 935.313 M 587.721 1048.12 L 613.091 1101.96 M 585.21 1116.36 L 613.091 1101.96 M 268.552 863.927 L 288.12 888.463 M 169.939 784.016 L 174.495 815.067 M 205.85 231.727 L 167.136 264.345 M 153.764 691.54 L 148.365 722.456 M 221.756 431.375 L 219.491 450.578 M 786.548 778.466 L 817.909 779.66 M 871.776 660.889 L 880.89 630.858 M 921.825 697.514 L 919.903 678.274 M 917.713 716.655 L 921.812 697.758 M 757.329 796.368 L 787.63 788.195 M 899.773 631.477 L 914.675 603.857 M 737.235 830.196 L 764.305 814.316 M 940.528 603.488 L 958.751 577.938 M 728.494 875.224 L 751.631 854.02 M 727.964 928.495 L 747.997 904.336 M 690.953 956.038 L 728.072 990.46 M 708.685 1015.14 L 728.072 990.46 M 323.119 916.46 L 348.463 934.969 M 185.163 836.775 L 195.719 866.33 M 188.158 452.414 L 193.684 480.279 M 787.705 788.186 L 817.909 779.66 M 880.601 665.124 L 898.323 639.223 M 765.146 814.054 L 791.587 797.148 M 915.285 643.022 L 937.464 620.818 M 953.177 698.939 L 950.352 670.672 M 947.1 727.67 L 953.121 699.907 M 755 852.364 L 776.397 829.405 M 756.738 898.782 L 773.446 872.216 M 727.964 928.495 L 765.141 952.486 M 750.892 980.448 L 765.141 952.486 M 708.685 1015.14 L 755.196 1045.88 M 739.488 1073.05 L 755.196 1045.88 M 220.701 899.308 L 238.426 925.207 M 187.659 206.154 L 145.021 242.078 M 191.447 423.233 L 188.12 451.445 M 791.801 797.076 L 817.909 779.66 M 887.745 671.816 L 912.435 652.442 M 777.919 828.571 L 798.053 804.497 M 778.363 868.525 L 792.299 840.405 M 984.542 700.012 L 980.884 663.414 M 976.61 738.353 L 984.405 702.409 M 756.738 898.782 L 790.206 914.036 M 780.68 943.939 L 790.206 914.036 M 750.892 980.448 L 798.098 998.732 M 789.192 1028.83 L 798.098 998.732 M 739.488 1073.05 L 792.7 1099.7 M 286.058 965.918 L 310.94 985.045 M 156.834 454.358 L 163.989 490.436 M 798.437 804.273 L 817.909 779.66 M 794.466 838.575 L 806.43 809.561 M 778.363 868.525 L 805.372 877.329 M 799.713 908.198 L 805.372 877.329 M 1015.92 700.628 L 1011.52 656.6 M 1006.27 748.606 L 1015.65 705.365 M 780.68 943.939 L 824.137 952.258 M 789.192 1028.83 L 843.769 1040.22 M 168.911 180.986 L 123.399 219.33 M 161.048 415.432 L 156.74 451.959 M 806.967 809.074 L 817.909 779.66 M 794.466 838.575 L 813.256 843.141 M 810.33 874.388 L 813.256 843.141 M 799.713 908.198 L 836.451 909.946 M 1047.3 700.696 L 1042.27 650.323 M 1036.11 758.339 L 1046.84 708.866 M 247.794 1014.45 L 272.2 1034.18 M 806.967 809.074 L 816.562 811.015 M 816.562 811.015 L 817.909 779.66 M 815.093 842.364 L 816.562 811.015 M 810.33 874.388 L 838.7 872.921 M 1066.13 767.476 L 1077.95 712.989 M 149.579 156.263 L 102.315 196.084 M 130.539 408.075 L 125.357 452.017 M 816.562 811.015 L 826.287 809.904 M 826.287 809.904 L 817.909 779.66 M 815.093 842.364 L 834.321 840.32 M 834.548 840.181 L 826.287 809.904 M 842.113 870.721 L 834.321 840.32 M 1096.35 775.952 L 1108.96 717.793 M 826.287 809.904 L 835.198 805.852 M 834.548 840.181 L 852.211 832.313 M 842.113 870.721 L 868.323 859.764 M 99.9065 401.251 L 93.9767 451.526 M 850.247 901.032 L 884.182 886.847 M 858.821 931.222 L 899.644 914.157 M 69.1438 395.04 L 62.613 450.41 M 867.921 961.257 L 914.628 941.732 M 38.2521 389.504 L 31.2811 448.606" />
</svg>
