<?xml version="1.0"?>
<svg width="912" height="1006" version="1.1" xmlns="http://www.w3.org/2000/svg" >
<defs>
<style type="text/css"><![CDATA[
.m {stroke:rgb(255,0,0);stroke-width:1.257500;}
.v {stroke:rgb(0,0,255);stroke-width:1.257500;}
.b {stroke:rgb(0,0,0);stroke-width:2.515000;fill:white}
.n {stroke:rgb(128,128,128);stroke-width:1.257500}
.t {stroke:rgb(0,128,0);stroke-width:1.257500;}
.c {stroke:rgb(128,128,128);stroke-width:1.257500;stroke-dasharray:9.120000, 9.120000;}
]]></style>
</defs>
<path fill="none" style="stroke:black;stroke-width:2.515000;" d=" M 420.174 635.436 L 451.522 689.591 M 451.522 689.591 L 437.979 661.28 M 404.225 608.407 L 438.514 695.262 M 438.514 695.262 L 420.174 635.436 M 390.211 580.326 L 418.063 700.754 M 418.063 700.754 L 404.225 608.407 M 390.211 703.933 L 390.211 580.326 M 361.803 524.572 L 341.421 500.708 M 341.421 500.708 L 317.557 480.326 M 317.557 480.326 L 290.798 463.928 M 290.798 463.928 L 261.803 451.918 M 261.803 451.918 L 231.287 444.592 M 231.287 444.592 L 200 442.129 M 200 442.129 L 168.713 444.592 M 168.713 444.592 L 138.197 451.918 M 138.197 451.918 L 109.202 463.928 M 109.202 463.928 L 82.443 480.326 M 82.443 480.326 L 58.5786 500.708 M 58.5786 500.708 L 38.1966 524.572 M 38.1966 524.572 L 21.7986 551.331 M 21.7986 551.331 L 9.7886 580.326 M 9.7886 580.326 L 2.4622 610.842 M 2.4622 610.842 L 0 642.129 M 0 642.129 L 2.4622 673.416 M 2.4622 673.416 L 9.7886 703.933 M 9.7886 703.933 L 21.7986 732.927 M 21.7986 732.927 L 38.1966 759.686 M 38.1966 759.686 L 58.5786 783.551 M 58.5786 783.551 L 82.443 803.933 M 82.443 803.933 L 390.211 703.933 M 418.72 1007.08 L 444.858 989.709 M 457.553 685.811 L 418.72 1007.08 M 444.858 989.709 L 467.956 968.463 M 467.956 968.463 L 487.447 943.865 M 487.447 943.865 L 502.849 916.521 M 502.849 916.521 L 513.785 887.104 M 513.785 887.104 L 519.984 856.339 M 519.984 856.339 L 521.294 824.983 M 521.294 824.983 L 517.682 793.807 M 517.682 793.807 L 509.238 763.581 M 509.238 763.581 L 496.17 735.048 M 496.17 735.048 L 478.799 708.91 M 437.979 661.28 L 457.553 685.811 M 478.799 708.91 L 501.613 730.461 M 501.613 730.461 L 525.882 750.36 M 525.882 750.36 L 551.486 768.507 M 551.486 768.507 L 578.301 784.814 M 578.301 784.814 L 606.193 799.201 M 606.193 799.201 L 635.025 811.595 M 635.025 811.595 L 664.656 821.938 M 664.656 821.938 L 694.939 830.176 M 694.939 830.176 L 725.725 836.271 M 725.725 836.271 L 756.863 840.191 M 756.863 840.191 L 788.199 841.918 M 788.199 841.918 L 819.579 841.443 M 819.579 841.443 L 850.848 838.768 M 850.848 838.768 L 881.853 833.907 M 881.853 833.907 L 912.441 826.883 M 912.441 826.883 L 797.124 394.793 M 423.472 0 L 402.928 23.7254 M 751.078 304.424 L 423.472 0 M 402.928 23.7254 L 384.1 48.8334 M 384.1 48.8334 L 367.078 75.1999 M 367.078 75.1999 L 351.947 102.695 M 351.947 102.695 L 338.782 131.184 M 338.782 131.184 L 327.648 160.526 M 327.648 160.526 L 318.598 190.577 M 318.598 190.577 L 311.679 221.188 M 311.679 221.188 L 306.923 252.21 M 306.923 252.21 L 304.355 283.488 M 304.355 283.488 L 303.987 314.869 M 303.987 314.869 L 305.82 346.199 M 305.82 346.199 L 309.846 377.324 M 309.846 377.324 L 316.045 408.089 M 316.045 408.089 L 324.387 438.344 M 324.387 438.344 L 334.83 467.939 M 334.83 467.939 L 347.322 496.729 M 347.322 496.729 L 361.803 524.572 M 378.201 551.331 L 751.078 304.424 M 797.124 394.793 L 378.201 551.331" />
<path fill="none" class="c" d=" M 378.201 551.331 L 361.803 524.572 M 751.078 304.424 L 361.803 524.572 M 390.211 580.326 L 378.201 551.331 M 390.211 580.326 L 797.124 394.793 M 404.225 608.407 L 797.124 394.793 M 420.174 635.436 L 797.124 394.793 M 420.174 635.436 L 437.979 661.28 M 751.078 304.424 L 347.322 496.729 M 390.211 580.326 L 404.225 608.407 M 404.225 608.407 L 420.174 635.436 M 437.979 661.28 L 797.124 394.793 M 457.553 685.811 L 797.124 394.793 M 457.553 685.811 L 478.799 708.91 M 478.799 708.91 L 797.124 394.793 M 501.613 730.461 L 797.124 394.793 M 525.882 750.36 L 797.124 394.793 M 551.486 768.507 L 797.124 394.793 M 578.301 784.814 L 797.124 394.793 M 606.193 799.201 L 797.124 394.793 M 635.025 811.595 L 797.124 394.793 M 664.656 821.938 L 797.124 394.793 M 694.939 830.176 L 797.124 394.793 M 725.725 836.271 L 797.124 394.793 M 756.863 840.191 L 797.124 394.793 M 788.199 841.918 L 797.124 394.793 M 819.579 841.443 L 797.124 394.793 M 850.848 838.768 L 797.124 394.793 M 881.853 833.907 L 797.124 394.793 M 751.078 304.424 L 334.83 467.939 M 751.078 304.424 L 324.387 438.344 M 751.078 304.424 L 316.045 408.089 M 751.078 304.424 L 309.846 377.324 M 751.078 304.424 L 305.82 346.199 M 751.078 304.424 L 303.987 314.869 M 751.078 304.424 L 304.355 283.488 M 751.078 304.424 L 306.923 252.21 M 751.078 304.424 L 311.679 221.188 M 751.078 304.424 L 318.598 190.577 M 751.078 304.424 L 327.648 160.526 M 751.078 304.424 L 338.782 131.184 M 751.078 304.424 L 351.947 102.695 M 751.078 304.424 L 367.078 75.1999 M 751.078 304.424 L 384.1 48.8334 M 751.078 304.424 L 402.928 23.7254" />
<line x1="386.208067" y1="611.863116" x2="376.738733" y2="593.278582" class="t" />
<line x1="364.478733" y1="576.404182" x2="376.738733" y2="593.278582" class="t" />
<line x1="497.027660" y1="460.109122" x2="376.738733" y2="593.278582" class="t" />
<line x1="349.729933" y1="561.655382" x2="364.478733" y2="576.404182" class="t" />
<line x1="332.855467" y1="549.395382" x2="349.729933" y2="561.655382" class="t" />
<line x1="314.270933" y1="539.926049" x2="332.855467" y2="549.395382" class="t" />
<line x1="294.433867" y1="533.480649" x2="314.270933" y2="539.926049" class="t" />
<line x1="273.832733" y1="530.217782" x2="294.433867" y2="533.480649" class="t" />
<line x1="252.974800" y1="530.217782" x2="273.832733" y2="530.217782" class="t" />
<line x1="232.373667" y1="533.480649" x2="252.974800" y2="530.217782" class="t" />
<line x1="212.536600" y1="539.926049" x2="232.373667" y2="533.480649" class="t" />
<line x1="193.952067" y1="549.395382" x2="212.536600" y2="539.926049" class="t" />
<line x1="177.077667" y1="561.655382" x2="193.952067" y2="549.395382" class="t" />
<line x1="162.328867" y1="576.404182" x2="177.077667" y2="561.655382" class="t" />
<line x1="150.068867" y1="593.278582" x2="162.328867" y2="576.404182" class="t" />
<line x1="140.599533" y1="611.863116" x2="150.068867" y2="593.278582" class="t" />
<line x1="134.154067" y1="631.700249" x2="140.599533" y2="611.863116" class="t" />
<line x1="130.891200" y1="652.301382" x2="134.154067" y2="631.700249" class="t" />
<line x1="130.891200" y1="673.159316" x2="130.891200" y2="652.301382" class="t" />
<line x1="134.154067" y1="693.760449" x2="130.891200" y2="673.159316" class="t" />
<line x1="140.599533" y1="713.597516" x2="134.154067" y2="693.760449" class="t" />
<line x1="150.068867" y1="732.182116" x2="140.599533" y2="713.597516" class="t" />
<line x1="162.328867" y1="749.056516" x2="150.068867" y2="732.182116" class="t" />
<line x1="177.077667" y1="763.805316" x2="162.328867" y2="749.056516" class="t" />
<line x1="486.734623" y1="441.908521" x2="497.027660" y2="460.109122" class="t" />
<line x1="521.845534" y1="508.816660" x2="386.208067" y2="611.863116" class="t" />
<line x1="530.520186" y1="527.841942" x2="521.845534" y2="508.816660" class="t" />
<line x1="540.507729" y1="546.211959" x2="530.520186" y2="527.841942" class="t" />
<line x1="551.758953" y1="563.836268" x2="540.507729" y2="546.211959" class="t" />
<line x1="436.558318" y1="662.102214" x2="551.758953" y2="563.836268" class="t" />
<line x1="477.743362" y1="423.030826" x2="486.734623" y2="441.908521" class="t" />
<line x1="404.166624" y1="629.828825" x2="530.520186" y2="527.841942" class="t" />
<line x1="420.971045" y1="646.368112" x2="540.507729" y2="546.211959" class="t" />
<line x1="564.218563" y1="580.628140" x2="551.758953" y2="563.836268" class="t" />
<line x1="577.825205" y1="596.504882" x2="564.218563" y2="580.628140" class="t" />
<line x1="477.507234" y1="709.922988" x2="577.825205" y2="596.504882" class="t" />
<line x1="592.511752" y1="611.388195" x2="577.825205" y2="596.504882" class="t" />
<line x1="608.205978" y1="625.204855" x2="592.511752" y2="611.388195" class="t" />
<line x1="624.830573" y1="637.886838" x2="608.205978" y2="625.204855" class="t" />
<line x1="642.303627" y1="649.371659" x2="624.830573" y2="637.886838" class="t" />
<line x1="660.539180" y1="659.602792" x2="642.303627" y2="649.371659" class="t" />
<line x1="679.447312" y1="668.529800" x2="660.539180" y2="659.602792" class="t" />
<line x1="698.934965" y1="676.108758" x2="679.447312" y2="668.529800" class="t" />
<line x1="718.906171" y1="682.302316" x2="698.934965" y2="676.108758" class="t" />
<line x1="739.262574" y1="687.079972" x2="718.906171" y2="682.302316" class="t" />
<line x1="759.903979" y1="690.418242" x2="739.262574" y2="687.079972" class="t" />
<line x1="780.728585" y1="692.300650" x2="759.903979" y2="690.418242" class="t" />
<line x1="801.633959" y1="692.717915" x2="780.728585" y2="692.300650" class="t" />
<line x1="822.517148" y1="691.668011" x2="801.633959" y2="692.717915" class="t" />
<line x1="843.275257" y1="689.156111" x2="822.517148" y2="691.668011" class="t" />
<line x1="863.806149" y1="685.194552" x2="843.275257" y2="689.156111" class="t" />
<line x1="470.098185" y1="403.569014" x2="477.743362" y2="423.030826" class="t" />
<line x1="487.653661" y1="728.146681" x2="477.507234" y2="709.922988" class="t" />
<line x1="463.836735" y1="383.618997" x2="470.098185" y2="403.569014" class="t" />
<line x1="494.824388" y1="747.733281" x2="487.653661" y2="728.146681" class="t" />
<line x1="458.989893" y1="363.278976" x2="463.836735" y2="383.618997" class="t" />
<line x1="498.842832" y1="768.200452" x2="494.824388" y2="747.733281" class="t" />
<line x1="455.581478" y1="342.649113" x2="458.989893" y2="363.278976" class="t" />
<line x1="499.610014" y1="789.044325" x2="498.842832" y2="768.200452" class="t" />
<line x1="453.628269" y1="321.830990" x2="455.581478" y2="342.649113" class="t" />
<line x1="497.107063" y1="809.751534" x2="499.610014" y2="789.044325" class="t" />
<line x1="453.139887" y1="300.927161" x2="453.628269" y2="321.830990" class="t" />
<line x1="491.395627" y1="829.812265" x2="497.107063" y2="809.751534" class="t" />
<line x1="454.118741" y1="280.040561" x2="453.139887" y2="300.927161" class="t" />
<line x1="482.616288" y1="848.732534" x2="491.395627" y2="829.812265" class="t" />
<line x1="456.560062" y1="259.274024" x2="454.118741" y2="280.040561" class="t" />
<line x1="470.985226" y1="866.046454" x2="482.616288" y2="848.732534" class="t" />
<line x1="460.451777" y1="238.729851" x2="456.560062" y2="259.274024" class="t" />
<line x1="456.788859" y1="881.327784" x2="470.985226" y2="866.046454" class="t" />
<line x1="465.774729" y1="218.509160" x2="460.451777" y2="238.729851" class="t" />
<line x1="440.376830" y1="894.200127" x2="456.788859" y2="881.327784" class="t" />
<line x1="472.502683" y1="198.711606" x2="465.774729" y2="218.509160" class="t" />
<line x1="480.602528" y1="179.434635" x2="472.502683" y2="198.711606" class="t" />
<line x1="490.034421" y1="160.773150" x2="480.602528" y2="179.434635" class="t" />
<line x1="500.751846" y1="142.819163" x2="490.034421" y2="160.773150" class="t" />
<line x1="512.702033" y1="125.661018" x2="500.751846" y2="142.819163" class="t" />
<line x1="525.826132" y1="109.383212" x2="512.702033" y2="125.661018" class="t" />
</svg>
