<?xml version="1.0"?>
<svg width="828" height="1171" version="1.1" xmlns="http://www.w3.org/2000/svg" >
<defs>
<style type="text/css"><![CDATA[
.m {stroke:rgb(255,0,0);stroke-width:1.463750;}
.v {stroke:rgb(0,0,255);stroke-width:1.463750;}
.b {stroke:rgb(0,0,0);stroke-width:2.927500;fill:white}
.n {stroke:rgb(128,128,128);stroke-width:1.463750}
.t {stroke:rgb(0,128,0);stroke-width:1.463750;}
.c {stroke:rgb(128,128,128);stroke-width:1.463750;stroke-dasharray:8.280000, 8.280000;}
]]></style>
</defs>
<path fill="none" style="stroke:black;stroke-width:2.927500;" d=" M 446.792 419.425 L 446.792 356.851 M 446.792 356.851 L 444.329 388.138 M 447.054 450.808 L 460.891 358.46 M 460.891 358.46 L 446.792 419.425 M 445.114 482.131 L 481.342 363.953 M 481.342 363.953 L 447.054 450.808 M 440.982 513.242 L 507.039 375.155 M 507.039 375.155 L 445.114 482.131 M 434.679 543.986 L 536.455 393.59 M 536.455 393.59 L 440.982 513.242 M 426.235 574.212 L 567.723 420.388 M 567.723 420.388 L 434.679 543.986 M 415.692 603.772 L 598.745 456.225 M 598.745 456.225 L 426.235 574.212 M 403.102 632.52 L 627.282 501.263 M 627.282 501.263 L 415.692 603.772 M 388.526 660.313 L 651.092 555.15 M 651.092 555.15 L 403.102 632.52 M 372.038 687.016 L 668.036 617.018 M 668.036 617.018 L 388.526 660.313 M 353.717 712.497 L 676.196 685.509 M 676.196 685.509 L 372.038 687.016 M 333.654 736.631 L 673.984 758.865 M 673.984 758.865 L 353.717 712.497 M 311.948 759.297 L 660.224 834.973 M 660.224 834.973 L 333.654 736.631 M 288.706 780.386 L 634.216 911.502 M 634.216 911.502 L 311.948 759.297 M 264.042 799.793 L 595.787 985.983 M 595.787 985.983 L 288.706 780.386 M 238.078 817.422 L 545.307 1055.94 M 545.307 1055.94 L 264.042 799.793 M 210.941 833.187 L 483.661 1119.03 M 483.661 1119.03 L 238.078 817.422 M 182.765 847.01 L 412.246 1173.13 M 412.246 1173.13 L 210.941 833.187 M 828.929 270.5 L 822.113 239.865 M 439.679 357.101 L 828.929 270.5 M 822.113 239.865 L 810.589 210.674 M 810.589 210.674 L 794.64 183.645 M 794.64 183.645 L 774.66 159.443 M 774.66 159.443 L 751.139 138.666 M 751.139 138.666 L 724.658 121.823 M 724.658 121.823 L 695.868 109.33 M 695.868 109.33 L 665.478 101.495 M 665.478 101.495 L 634.236 98.5109 M 634.236 98.5109 L 602.913 100.45 M 602.913 100.45 L 572.278 107.266 M 572.278 107.266 L 543.087 118.79 M 543.087 118.79 L 516.058 134.739 M 516.058 134.739 L 491.856 154.719 M 491.856 154.719 L 471.079 178.24 M 471.079 178.24 L 454.236 204.721 M 454.236 204.721 L 441.743 233.512 M 441.743 233.512 L 433.908 263.901 M 433.908 263.901 L 430.924 295.143 M 430.924 295.143 L 432.863 326.466 M 444.329 388.138 L 439.679 357.101 M 432.863 326.466 L 423.916 296.385 M 423.916 296.385 L 412.881 267.006 M 412.881 267.006 L 399.812 238.472 M 399.812 238.472 L 384.775 210.926 M 384.775 210.926 L 367.843 184.502 M 367.843 184.502 L 349.099 159.33 M 349.099 159.33 L 328.636 135.535 M 328.636 135.535 L 306.555 113.234 M 306.555 113.234 L 282.964 92.5359 M 282.964 92.5359 L 257.979 73.5435 M 257.979 73.5435 L 231.725 56.3503 M 231.725 56.3503 L 204.328 41.0406 M 204.328 41.0406 L 175.926 27.6901 M 175.926 27.6901 L 146.657 16.3643 M 146.657 16.3643 L 116.666 7.11906 M 116.666 7.11906 L 86.1007 0 M 86.1007 0 L 0 438.847 M 62.5123 881.67 L 93.4148 876.195 M 0 438.847 L 62.5123 881.67 M 93.4148 876.195 L 123.857 868.567 M 123.857 868.567 L 153.69 858.823 M 153.69 858.823 L 182.765 847.01" />
<path fill="none" class="c" d=" M 446.792 419.425 L 444.329 388.138 M 444.329 388.138 L 0 438.847 M 0 438.847 L 446.792 419.425 M 439.679 357.101 L 0 438.847 M 439.679 357.101 L 432.863 326.466 M 432.863 326.466 L 0 438.847 M 423.916 296.385 L 0 438.847 M 412.881 267.006 L 0 438.847 M 399.812 238.472 L 0 438.847 M 384.775 210.926 L 0 438.847 M 367.843 184.502 L 0 438.847 M 349.099 159.33 L 0 438.847 M 328.636 135.535 L 0 438.847 M 306.555 113.234 L 0 438.847 M 282.964 92.5359 L 0 438.847 M 257.979 73.5435 L 0 438.847 M 231.725 56.3503 L 0 438.847 M 204.328 41.0406 L 0 438.847 M 175.926 27.6901 L 0 438.847 M 146.657 16.3643 L 0 438.847 M 116.666 7.11906 L 0 438.847 M 447.054 450.808 L 446.792 419.425 M 0 438.847 L 447.054 450.808 M 445.114 482.131 L 447.054 450.808 M 0 438.847 L 445.114 482.131 M 440.982 513.242 L 445.114 482.131 M 0 438.847 L 440.982 513.242 M 434.679 543.986 L 440.982 513.242 M 0 438.847 L 434.679 543.986 M 426.235 574.212 L 434.679 543.986 M 0 438.847 L 426.235 574.212 M 415.692 603.772 L 426.235 574.212 M 0 438.847 L 415.692 603.772 M 403.102 632.52 L 415.692 603.772 M 0 438.847 L 403.102 632.52 M 388.526 660.313 L 403.102 632.52 M 0 438.847 L 388.526 660.313 M 372.038 687.016 L 388.526 660.313 M 0 438.847 L 372.038 687.016 M 353.717 712.497 L 372.038 687.016 M 0 438.847 L 353.717 712.497 M 333.654 736.631 L 353.717 712.497 M 0 438.847 L 333.654 736.631 M 311.948 759.297 L 333.654 736.631 M 0 438.847 L 311.948 759.297 M 288.706 780.386 L 311.948 759.297 M 0 438.847 L 288.706 780.386 M 264.042 799.793 L 288.706 780.386 M 0 438.847 L 264.042 799.793 M 238.078 817.422 L 264.042 799.793 M 0 438.847 L 238.078 817.422 M 210.941 833.187 L 238.078 817.422 M 0 438.847 L 210.941 833.187 M 182.765 847.01 L 210.941 833.187 M 0 438.847 L 182.765 847.01 M 0 438.847 L 153.69 858.823 M 0 438.847 L 123.857 868.567 M 0 438.847 L 93.4148 876.195" />
</svg>
