<?xml version="1.0"?>
<svg width="828" height="1171" version="1.1" xmlns="http://www.w3.org/2000/svg" >
<defs>
<style type="text/css"><![CDATA[
.m {stroke:rgb(255,0,0);stroke-width:1.463750;}
.v {stroke:rgb(0,0,255);stroke-width:1.463750;}
.b {stroke:rgb(0,0,0);stroke-width:2.927500;fill:white}
.n {stroke:rgb(128,128,128);stroke-width:1.463750}
.t {stroke:rgb(0,128,0);stroke-width:1.463750;}
.c {stroke:rgb(128,128,128);stroke-width:1.463750;stroke-dasharray:8.280000, 8.280000;}
]]></style>
</defs>
<path fill="none" style="stroke:black;stroke-width:2.927500;" d=" M 446.792 419.425 L 446.792 356.851 M 446.792 356.851 L 444.329 388.138 M 447.054 450.808 L 460.891 358.46 M 460.891 358.46 L 446.792 419.425 M 445.114 482.131 L 481.342 363.953 M 481.342 363.953 L 447.054 450.808 M 440.982 513.242 L 507.039 375.155 M 507.039 375.155 L 445.114 482.131 M 434.679 543.986 L 536.455 393.59 M 536.455 393.59 L 440.982 513.242 M 426.235 574.212 L 567.723 420.388 M 567.723 420.388 L 434.679 543.986 M 415.692 603.772 L 598.745 456.225 M 598.745 456.225 L 426.235 574.212 M 403.102 632.52 L 627.282 501.263 M 627.282 501.263 L 415.692 603.772 M 388.526 660.313 L 651.092 555.15 M 651.092 555.15 L 403.102 632.52 M 372.038 687.016 L 668.036 617.018 M 668.036 617.018 L 388.526 660.313 M 353.717 712.497 L 676.196 685.509 M 676.196 685.509 L 372.038 687.016 M 333.654 736.631 L 673.984 758.865 M 673.984 758.865 L 353.717 712.497 M 311.948 759.297 L 660.224 834.973 M 660.224 834.973 L 333.654 736.631 M 288.706 780.386 L 634.216 911.502 M 634.216 911.502 L 311.948 759.297 M 264.042 799.793 L 595.787 985.983 M 595.787 985.983 L 288.706 780.386 M 238.078 817.422 L 545.307 1055.94 M 545.307 1055.94 L 264.042 799.793 M 210.941 833.187 L 483.661 1119.03 M 483.661 1119.03 L 238.078 817.422 M 182.765 847.01 L 412.246 1173.13 M 412.246 1173.13 L 210.941 833.187 M 828.929 270.5 L 822.113 239.865 M 439.679 357.101 L 828.929 270.5 M 822.113 239.865 L 810.589 210.674 M 810.589 210.674 L 794.64 183.645 M 794.64 183.645 L 774.66 159.443 M 774.66 159.443 L 751.139 138.666 M 751.139 138.666 L 724.658 121.823 M 724.658 121.823 L 695.868 109.33 M 695.868 109.33 L 665.478 101.495 M 665.478 101.495 L 634.236 98.5109 M 634.236 98.5109 L 602.913 100.45 M 602.913 100.45 L 572.278 107.266 M 572.278 107.266 L 543.087 118.79 M 543.087 118.79 L 516.058 134.739 M 516.058 134.739 L 491.856 154.719 M 491.856 154.719 L 471.079 178.24 M 471.079 178.24 L 454.236 204.721 M 454.236 204.721 L 441.743 233.512 M 441.743 233.512 L 433.908 263.901 M 433.908 263.901 L 430.924 295.143 M 430.924 295.143 L 432.863 326.466 M 444.329 388.138 L 439.679 357.101 M 432.863 326.466 L 423.916 296.385 M 423.916 296.385 L 412.881 267.006 M 412.881 267.006 L 399.812 238.472 M 399.812 238.472 L 384.775 210.926 M 384.775 210.926 L 367.843 184.502 M 367.843 184.502 L 349.099 159.33 M 349.099 159.33 L 328.636 135.535 M 328.636 135.535 L 306.555 113.234 M 306.555 113.234 L 282.964 92.5359 M 282.964 92.5359 L 257.979 73.5435 M 257.979 73.5435 L 231.725 56.3503 M 231.725 56.3503 L 204.328 41.0406 M 204.328 41.0406 L 175.926 27.6901 M 175.926 27.6901 L 146.657 16.3643 M 146.657 16.3643 L 116.666 7.11906 M 116.666 7.11906 L 86.1007 0 M 86.1007 0 L 0 438.847 M 62.5123 881.67 L 93.4148 876.195 M 0 438.847 L 62.5123 881.67 M 93.4148 876.195 L 123.857 868.567 M 123.857 868.567 L 153.69 858.823 M 153.69 858.823 L 182.765 847.01" />
<path fill="none" class="c" d=" M 446.792 419.425 L 444.329 388.138 M 444.329 388.138 L 0 438.847 M 0 438.847 L 446.792 419.425 M 439.679 357.101 L 0 438.847 M 439.679 357.101 L 432.863 326.466 M 432.863 326.466 L 0 438.847 M 423.916 296.385 L 0 438.847 M 412.881 267.006 L 0 438.847 M 399.812 238.472 L 0 438.847 M 384.775 210.926 L 0 438.847 M 367.843 184.502 L 0 438.847 M 349.099 159.33 L 0 438.847 M 328.636 135.535 L 0 438.847 M 306.555 113.234 L 0 438.847 M 282.964 92.5359 L 0 438.847 M 257.979 73.5435 L 0 438.847 M 231.725 56.3503 L 0 438.847 M 204.328 41.0406 L 0 438.847 M 175.926 27.6901 L 0 438.847 M 146.657 16.3643 L 0 438.847 M 116.666 7.11906 L 0 438.847 M 447.054 450.808 L 446.792 419.425 M 0 438.847 L 447.054 450.808 M 445.114 482.131 L 447.054 450.808 M 0 438.847 L 445.114 482.131 M 440.982 513.242 L 445.114 482.131 M 0 438.847 L 440.982 513.242 M 434.679 543.986 L 440.982 513.242 M 0 438.847 L 434.679 543.986 M 426.235 574.212 L 434.679 543.986 M 0 438.847 L 426.235 574.212 M 415.692 603.772 L 426.235 574.212 M 0 438.847 L 415.692 603.772 M 403.102 632.52 L 415.692 603.772 M 0 438.847 L 403.102 632.52 M 388.526 660.313 L 403.102 632.52 M 0 438.847 L 388.526 660.313 M 372.038 687.016 L 388.526 660.313 M 0 438.847 L 372.038 687.016 M 353.717 712.497 L 372.038 687.016 M 0 438.847 L 353.717 712.497 M 333.654 736.631 L 353.717 712.497 M 0 438.847 L 333.654 736.631 M 311.948 759.297 L 333.654 736.631 M 0 438.847 L 311.948 759.297 M 288.706 780.386 L 311.948 759.297 M 0 438.847 L 288.706 780.386 M 264.042 799.793 L 288.706 780.386 M 0 438.847 L 264.042 799.793 M 238.078 817.422 L 264.042 799.793 M 0 438.847 L 238.078 817.422 M 210.941 833.187 L 238.078 817.422 M 0 438.847 L 210.941 833.187 M 182.765 847.01 L 210.941 833.187 M 0 438.847 L 182.765 847.01 M 0 438.847 L 153.69 858.823 M 0 438.847 L 123.857 868.567 M 0 438.847 L 93.4148 876.195" />
<line x1="445.971061" y1="388.138241" x2="297.040374" y2="415.470146" class="t" />
<line x1="294.669488" y1="394.695455" x2="297.040374" y2="415.470146" class="t" />
<line x1="297.948417" y1="436.359898" x2="297.040374" y2="415.470146" class="t" />
<line x1="290.847431" y1="374.138132" x2="294.669488" y2="394.695455" class="t" />
<line x1="434.488716" y1="326.236739" x2="290.847431" y2="374.138132" class="t" />
<line x1="285.593074" y1="353.899570" x2="290.847431" y2="374.138132" class="t" />
<line x1="278.932239" y1="334.079326" x2="285.593074" y2="353.899570" class="t" />
<line x1="270.897757" y1="314.775001" x2="278.932239" y2="334.079326" class="t" />
<line x1="261.529216" y1="296.081709" x2="270.897757" y2="314.775001" class="t" />
<line x1="250.872690" y1="278.091436" x2="261.529216" y2="296.081709" class="t" />
<line x1="238.980733" y1="260.892881" x2="250.872690" y2="278.091436" class="t" />
<line x1="225.911880" y1="244.570679" x2="238.980733" y2="260.892881" class="t" />
<line x1="211.730472" y1="229.205233" x2="225.911880" y2="244.570679" class="t" />
<line x1="196.506355" y1="214.872216" x2="211.730472" y2="229.205233" class="t" />
<line x1="180.314476" y1="201.642148" x2="196.506355" y2="214.872216" class="t" />
<line x1="163.234686" y1="189.580288" x2="180.314476" y2="201.642148" class="t" />
<line x1="145.350987" y1="178.745986" x2="163.234686" y2="189.580288" class="t" />
<line x1="126.751466" y1="169.192573" x2="145.350987" y2="178.745986" class="t" />
<line x1="107.527766" y1="160.967120" x2="126.751466" y2="169.192573" class="t" />
<line x1="87.774462" y1="154.110119" x2="107.527766" y2="160.967120" class="t" />
<line x1="67.588957" y1="148.655368" x2="87.774462" y2="154.110119" class="t" />
<line x1="451.578732" y1="409.564371" x2="297.948417" y2="436.359898" class="t" />
<line x1="297.389212" y1="457.261951" x2="297.948417" y2="436.359898" class="t" />
<line x1="434.837109" y1="305.381725" x2="434.488716" y2="326.236739" class="t" />
<line x1="457.836413" y1="432.297123" x2="297.389212" y2="457.261951" class="t" />
<line x1="295.365478" y1="478.073377" x2="297.389212" y2="457.261951" class="t" />
<line x1="438.443636" y1="284.837939" x2="434.837109" y2="305.381725" class="t" />
<line x1="464.378342" y1="456.842584" x2="295.365478" y2="478.073377" class="t" />
<line x1="291.887124" y1="498.691576" x2="295.365478" y2="478.073377" class="t" />
<line x1="445.219484" y1="265.111285" x2="438.443636" y2="284.837939" class="t" />
<line x1="470.705340" y1="483.605931" x2="291.887124" y2="498.691576" class="t" />
<line x1="286.971332" y1="519.015048" x2="291.887124" y2="498.691576" class="t" />
<line x1="454.997885" y1="246.687428" x2="445.219484" y2="265.111285" class="t" />
<line x1="476.212337" y1="512.862003" x2="286.971332" y2="519.015048" class="t" />
<line x1="280.642302" y1="538.943759" x2="286.971332" y2="519.015048" class="t" />
<line x1="467.537985" y1="230.020120" x2="454.997885" y2="246.687428" class="t" />
<line x1="480.224026" y1="544.736359" x2="280.642302" y2="538.943759" class="t" />
<line x1="272.931189" y1="558.379540" x2="280.642302" y2="538.943759" class="t" />
<line x1="482.531024" y1="215.519700" x2="467.537985" y2="230.020120" class="t" />
<line x1="482.025320" y1="579.184810" x2="272.931189" y2="558.379540" class="t" />
<line x1="263.876019" y1="577.226631" x2="272.931189" y2="558.379540" class="t" />
<line x1="499.607859" y1="203.543260" x2="482.531024" y2="215.519700" class="t" />
<line x1="480.906769" y1="615.994397" x2="263.876019" y2="577.226631" class="t" />
<line x1="253.521320" y1="595.392218" x2="263.876019" y2="577.226631" class="t" />
<line x1="518.347993" y1="194.385706" x2="499.607859" y2="203.543260" class="t" />
<line x1="476.199990" y1="654.782679" x2="253.521320" y2="595.392218" class="t" />
<line x1="241.918121" y1="612.786881" x2="253.521320" y2="595.392218" class="t" />
<line x1="538.290006" y1="188.272441" x2="518.347993" y2="194.385706" class="t" />
<line x1="467.316877" y1="695.007445" x2="241.918121" y2="612.786881" class="t" />
<line x1="229.123558" y1="629.324971" x2="241.918121" y2="612.786881" class="t" />
<line x1="558.942728" y1="185.354058" x2="538.290006" y2="188.272441" class="t" />
<line x1="453.785052" y1="735.997737" x2="229.123558" y2="629.324971" class="t" />
<line x1="215.200659" y1="644.925018" x2="229.123558" y2="629.324971" class="t" />
<line x1="579.797742" y1="185.702451" x2="558.942728" y2="185.354058" class="t" />
<line x1="435.275300" y1="776.967150" x2="215.200659" y2="644.925018" class="t" />
<line x1="200.217981" y1="659.510202" x2="215.200659" y2="644.925018" class="t" />
<line x1="600.341529" y1="189.308978" x2="579.797742" y2="185.702451" class="t" />
<line x1="411.623362" y1="817.061831" x2="200.217981" y2="659.510202" class="t" />
<line x1="184.249256" y1="673.008680" x2="200.217981" y2="659.510202" class="t" />
<line x1="620.068182" y1="196.084826" x2="600.341529" y2="189.308978" class="t" />
<line x1="382.844832" y1="855.387319" x2="184.249256" y2="673.008680" class="t" />
<line x1="167.373179" y1="685.353985" x2="184.249256" y2="673.008680" class="t" />
<line x1="638.492039" y1="205.863227" x2="620.068182" y2="196.084826" class="t" />
<line x1="349.142129" y1="891.051669" x2="167.373179" y2="685.353985" class="t" />
<line x1="149.672820" y1="696.485356" x2="167.373179" y2="685.353985" class="t" />
<line x1="655.159347" y1="218.403327" x2="638.492039" y2="205.863227" class="t" />
<line x1="310.893272" y1="923.214078" x2="149.672820" y2="696.485356" class="t" />
<line x1="131.235411" y1="706.347935" x2="149.672820" y2="696.485356" class="t" />
<line x1="669.659713" y1="233.396405" x2="655.159347" y2="218.403327" class="t" />
<line x1="268.650702" y1="951.108709" x2="131.235411" y2="706.347935" class="t" />
<line x1="112.151701" y1="714.893173" x2="131.235411" y2="706.347935" class="t" />
<line x1="681.636152" y1="250.473239" x2="669.659713" y2="233.396405" class="t" />
<line x1="92.515616" y1="722.078978" x2="112.151701" y2="714.893173" class="t" />
<line x1="690.793761" y1="269.213335" x2="681.636152" y2="250.473239" class="t" />
<line x1="72.423982" y1="727.869929" x2="92.515616" y2="722.078978" class="t" />
<line x1="696.907026" y1="289.155348" x2="690.793761" y2="269.213335" class="t" />
<line x1="51.975687" y1="732.237552" x2="72.423982" y2="727.869929" class="t" />
</svg>
