<?xml version="1.0"?>
<svg width="821" height="935" version="1.1" xmlns="http://www.w3.org/2000/svg" >
<defs>
<style type="text/css"><![CDATA[
.m {stroke:rgb(255,0,0);stroke-width:1.168750;}
.v {stroke:rgb(0,0,255);stroke-width:1.168750;}
.b {stroke:rgb(0,0,0);stroke-width:2.337500;fill:white}
.n {stroke:rgb(128,128,128);stroke-width:1.168750}
.t {stroke:rgb(0,128,0);stroke-width:1.168750;}
.c {stroke:rgb(128,128,128);stroke-width:1.168750;stroke-dasharray:8.210000, 8.210000;}
]]></style>
</defs>
<path fill="none" style="stroke:black;stroke-width:2.337500;" d=" M 705.234 409.161 L 749.33 364.765 M 749.33 364.765 L 725.535 385.228 M 683.304 431.611 L 758.199 375.842 M 758.199 375.842 L 705.234 409.161 M 659.854 452.469 L 768.839 394.15 M 768.839 394.15 L 683.304 431.611 M 634.999 471.63 L 779.177 420.207 M 779.177 420.207 L 659.854 452.469 M 608.861 489.001 L 787.056 454.017 M 787.056 454.017 L 634.999 471.63 M 581.57 504.496 L 790.356 495.065 M 790.356 495.065 L 608.861 489.001 M 553.259 518.039 L 787.112 542.352 M 787.112 542.352 L 581.57 504.496 M 524.067 529.563 L 775.621 594.417 M 775.621 594.417 L 553.259 518.039 M 494.14 539.012 L 754.539 649.429 M 754.539 649.429 L 524.067 529.563 M 722.962 705.265 L 494.14 539.012 M 463.623 546.338 L 434.628 558.348 M 434.628 558.348 L 407.869 574.745 M 407.869 574.745 L 384.005 595.127 M 384.005 595.127 L 363.622 618.991 M 363.622 618.991 L 347.224 645.75 M 347.224 645.75 L 335.214 674.744 M 335.214 674.744 L 327.887 705.261 M 327.887 705.261 L 325.424 736.548 M 325.424 736.548 L 327.886 767.835 M 327.886 767.835 L 335.212 798.351 M 335.212 798.351 L 347.222 827.346 M 347.222 827.346 L 363.62 854.105 M 363.62 854.105 L 384.001 877.97 M 384.001 877.97 L 407.865 898.352 M 407.865 898.352 L 434.624 914.75 M 434.624 914.75 L 463.619 926.761 M 463.619 926.761 L 494.135 934.087 M 494.135 934.087 L 525.422 936.55 M 525.422 936.55 L 556.709 934.088 M 556.709 934.088 L 587.226 926.762 M 587.226 926.762 L 616.22 914.753 M 616.22 914.753 L 642.98 898.355 M 642.98 898.355 L 666.844 877.973 M 666.844 877.973 L 687.227 854.109 M 687.227 854.109 L 703.625 827.35 M 703.625 827.35 L 715.635 798.356 M 715.635 798.356 L 722.962 705.265 M 805.691 289.737 L 781.558 309.8 M 744.107 359.929 L 805.691 289.737 M 781.558 309.8 L 760.86 333.391 M 725.535 385.228 L 744.107 359.929 M 760.86 333.391 L 775.71 305.743 M 775.71 305.743 L 788.584 277.122 M 788.584 277.122 L 799.42 247.668 M 799.42 247.668 L 808.163 217.527 M 808.163 217.527 L 814.771 186.847 M 814.771 186.847 L 819.21 155.779 M 819.21 155.779 L 821.46 124.476 M 821.46 124.476 L 821.509 93.0922 M 821.509 93.0922 L 819.357 61.7823 M 819.357 61.7823 L 815.015 30.7005 M 815.015 30.7005 L 808.503 0 M 808.503 0 L 374.547 108.085 M 0 352.451 L 18.0604 378.117 M 374.547 108.085 L 0 352.451 M 18.0604 378.117 L 37.8762 402.454 M 37.8762 402.454 L 59.3501 425.34 M 59.3501 425.34 L 82.3762 446.665 M 82.3762 446.665 L 106.841 466.322 M 106.841 466.322 L 132.624 484.215 M 132.624 484.215 L 159.599 500.255 M 159.599 500.255 L 187.632 514.365 M 187.632 514.365 L 216.586 526.473 M 216.586 526.473 L 246.318 536.521 M 246.318 536.521 L 276.681 544.459 M 276.681 544.459 L 307.526 550.248 M 307.526 550.248 L 338.701 553.86 M 338.701 553.86 L 370.053 555.276 M 370.053 555.276 L 401.426 554.49 M 401.426 554.49 L 432.668 551.506 M 432.668 551.506 L 463.623 546.338" />
<path fill="none" class="c" d=" M 463.623 546.338 L 494.14 539.012 M 374.547 108.085 L 463.623 546.338 M 494.14 539.012 L 374.547 108.085 M 524.067 529.563 L 374.547 108.085 M 553.259 518.039 L 374.547 108.085 M 581.57 504.496 L 374.547 108.085 M 608.861 489.001 L 374.547 108.085 M 634.999 471.63 L 374.547 108.085 M 659.854 452.469 L 374.547 108.085 M 683.304 431.611 L 374.547 108.085 M 705.234 409.161 L 374.547 108.085 M 705.234 409.161 L 725.535 385.228 M 374.547 108.085 L 432.668 551.506 M 494.14 539.012 L 524.067 529.563 M 524.067 529.563 L 553.259 518.039 M 553.259 518.039 L 581.57 504.496 M 581.57 504.496 L 608.861 489.001 M 608.861 489.001 L 634.999 471.63 M 634.999 471.63 L 659.854 452.469 M 659.854 452.469 L 683.304 431.611 M 683.304 431.611 L 705.234 409.161 M 725.535 385.228 L 374.547 108.085 M 744.107 359.929 L 374.547 108.085 M 744.107 359.929 L 760.86 333.391 M 760.86 333.391 L 374.547 108.085 M 775.71 305.743 L 374.547 108.085 M 788.584 277.122 L 374.547 108.085 M 799.42 247.668 L 374.547 108.085 M 808.163 217.527 L 374.547 108.085 M 814.771 186.847 L 374.547 108.085 M 819.21 155.779 L 374.547 108.085 M 821.46 124.476 L 374.547 108.085 M 821.509 93.0922 L 374.547 108.085 M 819.357 61.7823 L 374.547 108.085 M 815.015 30.7005 L 374.547 108.085 M 374.547 108.085 L 401.426 554.49 M 374.547 108.085 L 370.053 555.276 M 374.547 108.085 L 338.701 553.86 M 374.547 108.085 L 307.526 550.248 M 374.547 108.085 L 276.681 544.459 M 374.547 108.085 L 246.318 536.521 M 374.547 108.085 L 216.586 526.473 M 374.547 108.085 L 187.632 514.365 M 374.547 108.085 L 159.599 500.255 M 374.547 108.085 L 132.624 484.215 M 374.547 108.085 L 106.841 466.322 M 374.547 108.085 L 82.3762 446.665 M 374.547 108.085 L 59.3501 425.34 M 374.547 108.085 L 37.8762 402.454 M 374.547 108.085 L 18.0604 378.117" />
</svg>
