<?xml version="1.0"?>
<svg width="912" height="1006" version="1.1" xmlns="http://www.w3.org/2000/svg" >
<defs>
<style type="text/css"><![CDATA[
.m {stroke:rgb(255,0,0);stroke-width:1.257500;}
.v {stroke:rgb(0,0,255);stroke-width:1.257500;}
.b {stroke:rgb(0,0,0);stroke-width:2.515000;fill:white}
.n {stroke:rgb(128,128,128);stroke-width:1.257500}
.t {stroke:rgb(0,128,0);stroke-width:1.257500;}
.c {stroke:rgb(128,128,128);stroke-width:1.257500;stroke-dasharray:9.120000, 9.120000;}
]]></style>
</defs>
<path fill="none" style="stroke:black;stroke-width:2.515000;" d=" M 420.174 635.436 L 451.522 689.591 M 451.522 689.591 L 437.979 661.28 M 404.225 608.407 L 438.514 695.262 M 438.514 695.262 L 420.174 635.436 M 390.211 580.326 L 418.063 700.754 M 418.063 700.754 L 404.225 608.407 M 390.211 703.933 L 390.211 580.326 M 361.803 524.572 L 341.421 500.708 M 341.421 500.708 L 317.557 480.326 M 317.557 480.326 L 290.798 463.928 M 290.798 463.928 L 261.803 451.918 M 261.803 451.918 L 231.287 444.592 M 231.287 444.592 L 200 442.129 M 200 442.129 L 168.713 444.592 M 168.713 444.592 L 138.197 451.918 M 138.197 451.918 L 109.202 463.928 M 109.202 463.928 L 82.443 480.326 M 82.443 480.326 L 58.5786 500.708 M 58.5786 500.708 L 38.1966 524.572 M 38.1966 524.572 L 21.7986 551.331 M 21.7986 551.331 L 9.7886 580.326 M 9.7886 580.326 L 2.4622 610.842 M 2.4622 610.842 L 0 642.129 M 0 642.129 L 2.4622 673.416 M 2.4622 673.416 L 9.7886 703.933 M 9.7886 703.933 L 21.7986 732.927 M 21.7986 732.927 L 38.1966 759.686 M 38.1966 759.686 L 58.5786 783.551 M 58.5786 783.551 L 82.443 803.933 M 82.443 803.933 L 390.211 703.933 M 418.72 1007.08 L 444.858 989.709 M 457.553 685.811 L 418.72 1007.08 M 444.858 989.709 L 467.956 968.463 M 467.956 968.463 L 487.447 943.865 M 487.447 943.865 L 502.849 916.521 M 502.849 916.521 L 513.785 887.104 M 513.785 887.104 L 519.984 856.339 M 519.984 856.339 L 521.294 824.983 M 521.294 824.983 L 517.682 793.807 M 517.682 793.807 L 509.238 763.581 M 509.238 763.581 L 496.17 735.048 M 496.17 735.048 L 478.799 708.91 M 437.979 661.28 L 457.553 685.811 M 478.799 708.91 L 501.613 730.461 M 501.613 730.461 L 525.882 750.36 M 525.882 750.36 L 551.486 768.507 M 551.486 768.507 L 578.301 784.814 M 578.301 784.814 L 606.193 799.201 M 606.193 799.201 L 635.025 811.595 M 635.025 811.595 L 664.656 821.938 M 664.656 821.938 L 694.939 830.176 M 694.939 830.176 L 725.725 836.271 M 725.725 836.271 L 756.863 840.191 M 756.863 840.191 L 788.199 841.918 M 788.199 841.918 L 819.579 841.443 M 819.579 841.443 L 850.848 838.768 M 850.848 838.768 L 881.853 833.907 M 881.853 833.907 L 912.441 826.883 M 912.441 826.883 L 797.124 394.793 M 423.472 0 L 402.928 23.7254 M 751.078 304.424 L 423.472 0 M 402.928 23.7254 L 384.1 48.8334 M 384.1 48.8334 L 367.078 75.1999 M 367.078 75.1999 L 351.947 102.695 M 351.947 102.695 L 338.782 131.184 M 338.782 131.184 L 327.648 160.526 M 327.648 160.526 L 318.598 190.577 M 318.598 190.577 L 311.679 221.188 M 311.679 221.188 L 306.923 252.21 M 306.923 252.21 L 304.355 283.488 M 304.355 283.488 L 303.987 314.869 M 303.987 314.869 L 305.82 346.199 M 305.82 346.199 L 309.846 377.324 M 309.846 377.324 L 316.045 408.089 M 316.045 408.089 L 324.387 438.344 M 324.387 438.344 L 334.83 467.939 M 334.83 467.939 L 347.322 496.729 M 347.322 496.729 L 361.803 524.572 M 378.201 551.331 L 751.078 304.424 M 797.124 394.793 L 378.201 551.331" />
<path fill="none" class="c" d=" M 378.201 551.331 L 361.803 524.572 M 751.078 304.424 L 361.803 524.572 M 390.211 580.326 L 378.201 551.331 M 390.211 580.326 L 797.124 394.793 M 404.225 608.407 L 797.124 394.793 M 420.174 635.436 L 797.124 394.793 M 420.174 635.436 L 437.979 661.28 M 751.078 304.424 L 347.322 496.729 M 390.211 580.326 L 404.225 608.407 M 404.225 608.407 L 420.174 635.436 M 437.979 661.28 L 797.124 394.793 M 457.553 685.811 L 797.124 394.793 M 457.553 685.811 L 478.799 708.91 M 478.799 708.91 L 797.124 394.793 M 501.613 730.461 L 797.124 394.793 M 525.882 750.36 L 797.124 394.793 M 551.486 768.507 L 797.124 394.793 M 578.301 784.814 L 797.124 394.793 M 606.193 799.201 L 797.124 394.793 M 635.025 811.595 L 797.124 394.793 M 664.656 821.938 L 797.124 394.793 M 694.939 830.176 L 797.124 394.793 M 725.725 836.271 L 797.124 394.793 M 756.863 840.191 L 797.124 394.793 M 788.199 841.918 L 797.124 394.793 M 819.579 841.443 L 797.124 394.793 M 850.848 838.768 L 797.124 394.793 M 881.853 833.907 L 797.124 394.793 M 751.078 304.424 L 334.83 467.939 M 751.078 304.424 L 324.387 438.344 M 751.078 304.424 L 316.045 408.089 M 751.078 304.424 L 309.846 377.324 M 751.078 304.424 L 305.82 346.199 M 751.078 304.424 L 303.987 314.869 M 751.078 304.424 L 304.355 283.488 M 751.078 304.424 L 306.923 252.21 M 751.078 304.424 L 311.679 221.188 M 751.078 304.424 L 318.598 190.577 M 751.078 304.424 L 327.648 160.526 M 751.078 304.424 L 338.782 131.184 M 751.078 304.424 L 351.947 102.695 M 751.078 304.424 L 367.078 75.1999 M 751.078 304.424 L 384.1 48.8334 M 751.078 304.424 L 402.928 23.7254" />
</svg>
