<?xml version="1.0"?>
<svg width="912" height="1006" version="1.1" xmlns="http://www.w3.org/2000/svg" >
<defs>
<style type="text/css"><![CDATA[
.m {stroke:rgb(255,0,0);stroke-width:1.257500;}
.v {stroke:rgb(0,0,255);stroke-width:1.257500;}
.b {stroke:rgb(0,0,0);stroke-width:2.515000;fill:white}
.n {stroke:rgb(128,128,128);stroke-width:1.257500}
.t {stroke:rgb(0,128,0);stroke-width:1.257500;}
.c {stroke:rgb(128,128,128);stroke-width:1.257500;stroke-dasharray:9.120000, 9.120000;}
]]></style>
</defs>
<line x1="420.174030" y1="635.435832" x2="451.521898" y2="689.591054" class="n" style="stroke-width:0.251500;" />
<line x1="451.521898" y1="689.591054" x2="437.979026" y2="661.279755" class="m" style="stroke-width:2.530259;" />
<line x1="437.979026" y1="661.279755" x2="420.174030" y2="635.435832" class="m" style="stroke-width:2.530259;" />
<line x1="420.174030" y1="635.435832" x2="404.225354" y2="608.406829" class="m" style="stroke-width:2.530259;" />
<line x1="404.225354" y1="608.406829" x2="438.513751" y2="695.261676" class="n" style="stroke-width:0.251500;" />
<line x1="438.513751" y1="695.261676" x2="420.174030" y2="635.435832" class="n" style="stroke-width:0.251500;" />
<line x1="404.225354" y1="608.406829" x2="390.211400" y2="580.325782" class="m" style="stroke-width:2.530259;" />
<line x1="390.211400" y1="580.325782" x2="418.063118" y2="700.753864" class="n" style="stroke-width:0.251500;" />
<line x1="418.063118" y1="700.753864" x2="404.225354" y2="608.406829" class="n" style="stroke-width:0.251500;" />
<line x1="390.211400" y1="580.325782" x2="378.201400" y2="551.330982" class="m" style="stroke-width:2.530259;" />
<line x1="378.201400" y1="551.330982" x2="390.211400" y2="703.932582" class="n" style="stroke-width:0.251500;" />
<line x1="390.211400" y1="703.932582" x2="390.211400" y2="580.325782" class="n" style="stroke-width:0.251500;" />
<line x1="378.201400" y1="551.330982" x2="361.803400" y2="524.572182" class="m" style="stroke-width:2.530259;" />
<line x1="361.803400" y1="524.572182" x2="390.211400" y2="703.932582" class="n" style="stroke-width:0.251500;" />
<line x1="361.803400" y1="524.572182" x2="341.421400" y2="500.707782" class="m" style="stroke-width:2.530259;" />
<line x1="341.421400" y1="500.707782" x2="390.211400" y2="703.932582" class="n" style="stroke-width:0.251500;" />
<line x1="341.421400" y1="500.707782" x2="317.557000" y2="480.325782" class="m" style="stroke-width:2.530259;" />
<line x1="317.557000" y1="480.325782" x2="390.211400" y2="703.932582" class="n" style="stroke-width:0.251500;" />
<line x1="317.557000" y1="480.325782" x2="290.798000" y2="463.927782" class="m" style="stroke-width:2.530259;" />
<line x1="290.798000" y1="463.927782" x2="390.211400" y2="703.932582" class="n" style="stroke-width:0.251500;" />
<line x1="290.798000" y1="463.927782" x2="261.803400" y2="451.917782" class="m" style="stroke-width:2.530259;" />
<line x1="261.803400" y1="451.917782" x2="390.211400" y2="703.932582" class="n" style="stroke-width:0.251500;" />
<line x1="261.803400" y1="451.917782" x2="231.286800" y2="444.591582" class="m" style="stroke-width:2.530259;" />
<line x1="231.286800" y1="444.591582" x2="390.211400" y2="703.932582" class="n" style="stroke-width:0.251500;" />
<line x1="231.286800" y1="444.591582" x2="200.000000" y2="442.129182" class="m" style="stroke-width:2.530259;" />
<line x1="200.000000" y1="442.129182" x2="390.211400" y2="703.932582" class="n" style="stroke-width:0.251500;" />
<line x1="200.000000" y1="442.129182" x2="168.713000" y2="444.591582" class="m" style="stroke-width:2.530259;" />
<line x1="168.713000" y1="444.591582" x2="390.211400" y2="703.932582" class="n" style="stroke-width:0.251500;" />
<line x1="168.713000" y1="444.591582" x2="138.196600" y2="451.917782" class="m" style="stroke-width:2.530259;" />
<line x1="138.196600" y1="451.917782" x2="390.211400" y2="703.932582" class="n" style="stroke-width:0.251500;" />
<line x1="138.196600" y1="451.917782" x2="109.201800" y2="463.927782" class="m" style="stroke-width:2.530259;" />
<line x1="109.201800" y1="463.927782" x2="390.211400" y2="703.932582" class="n" style="stroke-width:0.251500;" />
<line x1="109.201800" y1="463.927782" x2="82.443000" y2="480.325782" class="m" style="stroke-width:2.530259;" />
<line x1="82.443000" y1="480.325782" x2="390.211400" y2="703.932582" class="n" style="stroke-width:0.251500;" />
<line x1="82.443000" y1="480.325782" x2="58.578600" y2="500.707782" class="m" style="stroke-width:2.530259;" />
<line x1="58.578600" y1="500.707782" x2="390.211400" y2="703.932582" class="n" style="stroke-width:0.251500;" />
<line x1="58.578600" y1="500.707782" x2="38.196600" y2="524.572182" class="m" style="stroke-width:2.530259;" />
<line x1="38.196600" y1="524.572182" x2="390.211400" y2="703.932582" class="n" style="stroke-width:0.251500;" />
<line x1="38.196600" y1="524.572182" x2="21.798600" y2="551.330982" class="m" style="stroke-width:2.530259;" />
<line x1="21.798600" y1="551.330982" x2="390.211400" y2="703.932582" class="n" style="stroke-width:0.251500;" />
<line x1="21.798600" y1="551.330982" x2="9.788600" y2="580.325782" class="m" style="stroke-width:2.530259;" />
<line x1="9.788600" y1="580.325782" x2="390.211400" y2="703.932582" class="n" style="stroke-width:0.251500;" />
<line x1="9.788600" y1="580.325782" x2="2.462200" y2="610.842382" class="m" style="stroke-width:2.530259;" />
<line x1="2.462200" y1="610.842382" x2="390.211400" y2="703.932582" class="n" style="stroke-width:0.251500;" />
<line x1="2.462200" y1="610.842382" x2="0.000000" y2="642.129182" class="m" style="stroke-width:2.530259;" />
<line x1="0.000000" y1="642.129182" x2="390.211400" y2="703.932582" class="n" style="stroke-width:0.251500;" />
<line x1="0.000000" y1="642.129182" x2="2.462200" y2="673.416182" class="m" style="stroke-width:2.530259;" />
<line x1="2.462200" y1="673.416182" x2="390.211400" y2="703.932582" class="n" style="stroke-width:0.251500;" />
<line x1="2.462200" y1="673.416182" x2="9.788600" y2="703.932582" class="m" style="stroke-width:2.530259;" />
<line x1="9.788600" y1="703.932582" x2="390.211400" y2="703.932582" class="n" style="stroke-width:0.251500;" />
<line x1="9.788600" y1="703.932582" x2="21.798600" y2="732.927382" class="m" style="stroke-width:2.530259;" />
<line x1="21.798600" y1="732.927382" x2="390.211400" y2="703.932582" class="n" style="stroke-width:0.251500;" />
<line x1="21.798600" y1="732.927382" x2="38.196600" y2="759.686382" class="m" style="stroke-width:2.530259;" />
<line x1="38.196600" y1="759.686382" x2="390.211400" y2="703.932582" class="n" style="stroke-width:0.251500;" />
<line x1="38.196600" y1="759.686382" x2="58.578600" y2="783.550582" class="m" style="stroke-width:2.530259;" />
<line x1="58.578600" y1="783.550582" x2="390.211400" y2="703.932582" class="n" style="stroke-width:0.251500;" />
<line x1="58.578600" y1="783.550582" x2="82.443000" y2="803.932782" class="m" style="stroke-width:2.530259;" />
<line x1="82.443000" y1="803.932782" x2="390.211400" y2="703.932582" class="n" style="stroke-width:0.251500;" />
<line x1="418.720038" y1="1007.079935" x2="444.857592" y2="989.708998" class="m" style="stroke-width:2.530259;" />
<line x1="444.857592" y1="989.708998" x2="457.552861" y2="685.811449" class="n" style="stroke-width:0.251500;" />
<line x1="457.552861" y1="685.811449" x2="418.720038" y2="1007.079935" class="n" style="stroke-width:0.251500;" />
<line x1="444.857592" y1="989.708998" x2="467.956123" y2="968.462906" class="m" style="stroke-width:2.530259;" />
<line x1="467.956123" y1="968.462906" x2="457.552861" y2="685.811449" class="n" style="stroke-width:0.251500;" />
<line x1="467.956123" y1="968.462906" x2="487.446694" y2="943.865007" class="m" style="stroke-width:2.530259;" />
<line x1="487.446694" y1="943.865007" x2="457.552861" y2="685.811449" class="n" style="stroke-width:0.251500;" />
<line x1="487.446694" y1="943.865007" x2="502.849309" y2="916.521146" class="m" style="stroke-width:2.530259;" />
<line x1="502.849309" y1="916.521146" x2="457.552861" y2="685.811449" class="n" style="stroke-width:0.251500;" />
<line x1="502.849309" y1="916.521146" x2="513.784712" y2="887.104199" class="m" style="stroke-width:2.530259;" />
<line x1="513.784712" y1="887.104199" x2="457.552861" y2="685.811449" class="n" style="stroke-width:0.251500;" />
<line x1="513.784712" y1="887.104199" x2="519.983618" y2="856.338953" class="m" style="stroke-width:2.530259;" />
<line x1="519.983618" y1="856.338953" x2="457.552861" y2="685.811449" class="n" style="stroke-width:0.251500;" />
<line x1="519.983618" y1="856.338953" x2="521.293563" y2="824.982573" class="m" style="stroke-width:2.530259;" />
<line x1="521.293563" y1="824.982573" x2="457.552861" y2="685.811449" class="n" style="stroke-width:0.251500;" />
<line x1="521.293563" y1="824.982573" x2="517.682072" y2="793.807333" class="m" style="stroke-width:2.530259;" />
<line x1="517.682072" y1="793.807333" x2="457.552861" y2="685.811449" class="n" style="stroke-width:0.251500;" />
<line x1="517.682072" y1="793.807333" x2="509.238233" y2="763.581060" class="m" style="stroke-width:2.530259;" />
<line x1="509.238233" y1="763.581060" x2="457.552861" y2="685.811449" class="n" style="stroke-width:0.251500;" />
<line x1="509.238233" y1="763.581060" x2="496.169890" y2="735.047535" class="m" style="stroke-width:2.530259;" />
<line x1="496.169890" y1="735.047535" x2="457.552861" y2="685.811449" class="n" style="stroke-width:0.251500;" />
<line x1="496.169890" y1="735.047535" x2="478.798952" y2="708.909980" class="m" style="stroke-width:2.530259;" />
<line x1="478.798952" y1="708.909980" x2="457.552861" y2="685.811449" class="m" style="stroke-width:2.530259;" />
<line x1="437.979026" y1="661.279755" x2="457.552861" y2="685.811449" class="m" style="stroke-width:2.530259;" />
<line x1="457.552861" y1="685.811449" x2="797.123803" y2="394.793216" class="m" style="stroke-width:0.409027;" />
<line x1="797.123803" y1="394.793216" x2="437.979026" y2="661.279755" class="m" style="stroke-width:0.409033;" />
<line x1="478.798952" y1="708.909980" x2="797.123803" y2="394.793216" class="m" style="stroke-width:0.409029;" />
<line x1="478.798952" y1="708.909980" x2="501.612500" y2="730.461390" class="m" style="stroke-width:2.530259;" />
<line x1="501.612500" y1="730.461390" x2="797.123803" y2="394.793216" class="m" style="stroke-width:0.409031;" />
<line x1="501.612500" y1="730.461390" x2="525.881630" y2="750.359958" class="m" style="stroke-width:2.530259;" />
<line x1="525.881630" y1="750.359958" x2="797.123803" y2="394.793216" class="m" style="stroke-width:0.409026;" />
<line x1="525.881630" y1="750.359958" x2="551.486287" y2="768.507340" class="m" style="stroke-width:2.530259;" />
<line x1="551.486287" y1="768.507340" x2="797.123803" y2="394.793216" class="m" style="stroke-width:0.409028;" />
<line x1="551.486287" y1="768.507340" x2="578.300790" y2="784.814422" class="m" style="stroke-width:2.530259;" />
<line x1="578.300790" y1="784.814422" x2="797.123803" y2="394.793216" class="m" style="stroke-width:0.409032;" />
<line x1="578.300790" y1="784.814422" x2="606.192947" y2="799.200739" class="m" style="stroke-width:2.530259;" />
<line x1="606.192947" y1="799.200739" x2="797.123803" y2="394.793216" class="m" style="stroke-width:0.409026;" />
<line x1="606.192947" y1="799.200739" x2="635.025187" y2="811.595444" class="m" style="stroke-width:2.530259;" />
<line x1="635.025187" y1="811.595444" x2="797.123803" y2="394.793216" class="m" style="stroke-width:0.409029;" />
<line x1="635.025187" y1="811.595444" x2="664.655903" y2="821.937613" class="m" style="stroke-width:2.530259;" />
<line x1="664.655903" y1="821.937613" x2="797.123803" y2="394.793216" class="m" style="stroke-width:0.409033;" />
<line x1="664.655903" y1="821.937613" x2="694.938807" y2="830.176120" class="m" style="stroke-width:2.530259;" />
<line x1="694.938807" y1="830.176120" x2="797.123803" y2="394.793216" class="m" style="stroke-width:0.409027;" />
<line x1="694.938807" y1="830.176120" x2="725.725112" y2="836.270581" class="m" style="stroke-width:2.530259;" />
<line x1="725.725112" y1="836.270581" x2="797.123803" y2="394.793216" class="m" style="stroke-width:0.409027;" />
<line x1="725.725112" y1="836.270581" x2="756.863022" y2="840.190928" class="m" style="stroke-width:2.530259;" />
<line x1="756.863022" y1="840.190928" x2="797.123803" y2="394.793216" class="m" style="stroke-width:0.409029;" />
<line x1="756.863022" y1="840.190928" x2="788.198929" y2="841.917807" class="m" style="stroke-width:2.530259;" />
<line x1="788.198929" y1="841.917807" x2="797.123803" y2="394.793216" class="m" style="stroke-width:0.409031;" />
<line x1="788.198929" y1="841.917807" x2="819.579145" y2="841.442723" class="m" style="stroke-width:2.530259;" />
<line x1="819.579145" y1="841.442723" x2="797.123803" y2="394.793216" class="m" style="stroke-width:0.409026;" />
<line x1="819.579145" y1="841.442723" x2="850.848497" y2="838.768095" class="m" style="stroke-width:2.530259;" />
<line x1="850.848497" y1="838.768095" x2="797.123803" y2="394.793216" class="m" style="stroke-width:0.409028;" />
<line x1="850.848497" y1="838.768095" x2="881.853471" y2="833.907023" class="m" style="stroke-width:2.530259;" />
<line x1="881.853471" y1="833.907023" x2="797.123803" y2="394.793216" class="m" style="stroke-width:0.409032;" />
<line x1="881.853471" y1="833.907023" x2="912.441173" y2="826.883416" class="m" style="stroke-width:2.530259;" />
<line x1="912.441173" y1="826.883416" x2="797.123803" y2="394.793216" class="m" style="stroke-width:0.409026;" />
<line x1="423.471799" y1="0.000000" x2="402.928415" y2="23.725433" class="m" style="stroke-width:2.530259;" />
<line x1="402.928415" y1="23.725433" x2="751.078181" y2="304.424202" class="m" style="stroke-width:0.409035;" />
<line x1="751.078181" y1="304.424202" x2="423.471799" y2="0.000000" class="m" style="stroke-width:0.409026;" />
<line x1="402.928415" y1="23.725433" x2="384.099503" y2="48.833417" class="m" style="stroke-width:2.530259;" />
<line x1="384.099503" y1="48.833417" x2="751.078181" y2="304.424202" class="m" style="stroke-width:0.409020;" />
<line x1="384.099503" y1="48.833417" x2="367.077854" y2="75.199869" class="m" style="stroke-width:2.530259;" />
<line x1="367.077854" y1="75.199869" x2="751.078181" y2="304.424202" class="m" style="stroke-width:0.409033;" />
<line x1="367.077854" y1="75.199869" x2="351.947227" y2="102.695380" class="m" style="stroke-width:2.530259;" />
<line x1="351.947227" y1="102.695380" x2="751.078181" y2="304.424202" class="m" style="stroke-width:0.409027;" />
<line x1="351.947227" y1="102.695380" x2="338.782175" y2="131.184324" class="m" style="stroke-width:2.530259;" />
<line x1="338.782175" y1="131.184324" x2="751.078181" y2="304.424202" class="m" style="stroke-width:0.409035;" />
<line x1="338.782175" y1="131.184324" x2="327.647691" y2="160.526292" class="m" style="stroke-width:2.530259;" />
<line x1="327.647691" y1="160.526292" x2="751.078181" y2="304.424202" class="m" style="stroke-width:0.409021;" />
<line x1="327.647691" y1="160.526292" x2="318.598313" y2="190.576987" class="m" style="stroke-width:2.530259;" />
<line x1="318.598313" y1="190.576987" x2="751.078181" y2="304.424202" class="m" style="stroke-width:0.409035;" />
<line x1="318.598313" y1="190.576987" x2="311.678837" y2="221.188363" class="m" style="stroke-width:2.530259;" />
<line x1="311.678837" y1="221.188363" x2="751.078181" y2="304.424202" class="m" style="stroke-width:0.409021;" />
<line x1="311.678837" y1="221.188363" x2="306.923166" y2="252.209507" class="m" style="stroke-width:2.530259;" />
<line x1="306.923166" y1="252.209507" x2="751.078181" y2="304.424202" class="m" style="stroke-width:0.409035;" />
<line x1="306.923166" y1="252.209507" x2="304.354876" y2="283.487973" class="m" style="stroke-width:2.530259;" />
<line x1="304.354876" y1="283.487973" x2="751.078181" y2="304.424202" class="m" style="stroke-width:0.409032;" />
<line x1="304.354876" y1="283.487973" x2="303.986603" y2="314.869309" class="m" style="stroke-width:2.530259;" />
<line x1="303.986603" y1="314.869309" x2="751.078181" y2="304.424202" class="m" style="stroke-width:0.409022;" />
<line x1="303.986603" y1="314.869309" x2="305.820023" y2="346.199459" class="m" style="stroke-width:2.530259;" />
<line x1="305.820023" y1="346.199459" x2="751.078181" y2="304.424202" class="m" style="stroke-width:0.409033;" />
<line x1="305.820023" y1="346.199459" x2="309.846231" y2="377.323677" class="m" style="stroke-width:2.530259;" />
<line x1="309.846231" y1="377.323677" x2="751.078181" y2="304.424202" class="m" style="stroke-width:0.409020;" />
<line x1="309.846231" y1="377.323677" x2="316.045267" y2="408.089048" class="m" style="stroke-width:2.530259;" />
<line x1="316.045267" y1="408.089048" x2="751.078181" y2="304.424202" class="m" style="stroke-width:0.409036;" />
<line x1="316.045267" y1="408.089048" x2="324.386756" y2="438.343741" class="m" style="stroke-width:2.530259;" />
<line x1="324.386756" y1="438.343741" x2="751.078181" y2="304.424202" class="m" style="stroke-width:0.409029;" />
<line x1="324.386756" y1="438.343741" x2="334.829617" y2="467.939098" class="m" style="stroke-width:2.530259;" />
<line x1="334.829617" y1="467.939098" x2="751.078181" y2="304.424202" class="m" style="stroke-width:0.409024;" />
<line x1="334.829617" y1="467.939098" x2="347.322288" y2="496.729178" class="m" style="stroke-width:2.530259;" />
<line x1="347.322288" y1="496.729178" x2="751.078181" y2="304.424202" class="m" style="stroke-width:0.409035;" />
<line x1="347.322288" y1="496.729178" x2="361.803400" y2="524.572182" class="m" style="stroke-width:2.530259;" />
<line x1="361.803400" y1="524.572182" x2="751.078181" y2="304.424202" class="m" style="stroke-width:0.409021;" />
<line x1="378.201400" y1="551.330982" x2="751.078181" y2="304.424202" class="m" style="stroke-width:0.409035;" />
<line x1="390.211400" y1="580.325782" x2="797.123803" y2="394.793216" class="m" style="stroke-width:0.409033;" />
<line x1="797.123803" y1="394.793216" x2="378.201400" y2="551.330982" class="m" style="stroke-width:0.409035;" />
<line x1="404.225354" y1="608.406829" x2="797.123803" y2="394.793216" class="m" style="stroke-width:0.409020;" />
<line x1="420.174030" y1="635.435832" x2="797.123803" y2="394.793216" class="m" style="stroke-width:0.409027;" />
<text x="430.413081" y="668.836552" transform="rotate(-107.043010 430.413081 668.836552)" fill="darkgreen" font-weight="bold" font-size="18.240000">1</text>
<text x="434.020409" y="659.356238" transform="rotate(59.935499 434.020409 659.356238)" fill="darkgreen" font-weight="bold" font-size="18.240000">1</text>
<text x="445.490710" y="670.694074" transform="rotate(51.413637 445.490710 670.694074)" fill="darkgreen" font-weight="bold" font-size="18.240000">2</text>
<text x="446.324666" y="678.726269" transform="rotate(-115.564381 446.324666 678.726269)" fill="darkgreen" font-weight="bold" font-size="18.240000">2</text>
<text x="411.684836" y="658.188068" transform="rotate(-98.522089 411.684836 658.188068)" fill="darkgreen" font-weight="bold" font-size="18.240000">4</text>
<text x="420.030007" y="648.441094" transform="rotate(68.456972 420.030007 648.441094)" fill="darkgreen" font-weight="bold" font-size="18.240000">4</text>
<text x="390.211400" y="645.777182" transform="rotate(-89.999995 390.211400 645.777182)" fill="darkgreen" font-weight="bold" font-size="18.240000">6</text>
<text x="403.315273" y="636.985636" transform="rotate(76.977998 403.315273 636.985636)" fill="darkgreen" font-weight="bold" font-size="18.240000">6</text>
<text x="351.196311" y="504.177808" transform="rotate(62.521112 351.196311 504.177808)" fill="darkgreen" font-weight="bold" font-size="18.240000">11</text>
<text x="356.350756" y="518.187918" transform="rotate(-130.499822 356.350756 518.187918)" fill="darkgreen" font-weight="bold" font-size="18.240000">11</text>
<text x="338.171688" y="475.641092" transform="rotate(66.542876 338.171688 475.641092)" fill="darkgreen" font-weight="bold" font-size="18.240000">13</text>
<text x="335.037136" y="495.255139" transform="rotate(-139.500163 335.037136 495.255139)" fill="darkgreen" font-weight="bold" font-size="18.240000">13</text>
<text x="327.180460" y="446.261176" transform="rotate(70.564366 327.180460 446.261176)" fill="darkgreen" font-weight="bold" font-size="18.240000">15</text>
<text x="310.398356" y="475.938943" transform="rotate(-148.499893 310.398356 475.938943)" fill="darkgreen" font-weight="bold" font-size="18.240000">15</text>
<text x="318.276794" y="416.182828" transform="rotate(74.585989 318.276794 416.182828)" fill="darkgreen" font-weight="bold" font-size="18.240000">17</text>
<text x="283.041321" y="460.714849" transform="rotate(-157.499918 283.041321 460.714849)" fill="darkgreen" font-weight="bold" font-size="18.240000">17</text>
<text x="311.504613" y="385.554108" transform="rotate(78.607783 311.504613 385.554108)" fill="darkgreen" font-weight="bold" font-size="18.240000">19</text>
<text x="253.639521" y="449.957858" transform="rotate(-166.500324 253.639521 449.957858)" fill="darkgreen" font-weight="bold" font-size="18.240000">19</text>
<text x="306.897120" y="354.525858" transform="rotate(82.629183 306.897120 354.525858)" fill="darkgreen" font-weight="bold" font-size="18.240000">21</text>
<text x="222.916907" y="443.932837" transform="rotate(-175.499853 222.916907 443.932837)" fill="darkgreen" font-weight="bold" font-size="18.240000">21</text>
<text x="304.477085" y="323.250845" transform="rotate(86.650904 304.477085 323.250845)" fill="darkgreen" font-weight="bold" font-size="18.240000">23</text>
<text x="191.630008" y="442.787931" transform="rotate(175.499882 191.630008 442.787931)" fill="darkgreen" font-weight="bold" font-size="18.240000">23</text>
<text x="304.256355" y="291.883143" transform="rotate(90.672355 304.256355 291.883143)" fill="darkgreen" font-weight="bold" font-size="18.240000">25</text>
<text x="160.549218" y="446.551496" transform="rotate(166.500238 160.549218 446.551496)" fill="darkgreen" font-weight="bold" font-size="18.240000">25</text>
<text x="306.236090" y="260.577211" transform="rotate(94.694048 306.236090 260.577211)" fill="darkgreen" font-weight="bold" font-size="18.240000">27</text>
<text x="130.439828" y="455.130732" transform="rotate(157.500058 130.439828 455.130732)" fill="darkgreen" font-weight="bold" font-size="18.240000">27</text>
<text x="310.406593" y="229.487189" transform="rotate(98.715820 310.406593 229.487189)" fill="darkgreen" font-weight="bold" font-size="18.240000">29</text>
<text x="102.043243" y="468.314601" transform="rotate(148.499702 102.043243 468.314601)" fill="darkgreen" font-weight="bold" font-size="18.240000">29</text>
<text x="316.747198" y="198.766219" transform="rotate(102.737225 316.747198 198.766219)" fill="darkgreen" font-weight="bold" font-size="18.240000">31</text>
<text x="76.058736" y="485.778426" transform="rotate(139.500163 76.058736 485.778426)" fill="darkgreen" font-weight="bold" font-size="18.240000">31</text>
<text x="325.226779" y="168.565529" transform="rotate(106.758989 325.226779 168.565529)" fill="darkgreen" font-weight="bold" font-size="18.240000">33</text>
<text x="53.125956" y="507.092046" transform="rotate(130.499822 53.125956 507.092046)" fill="darkgreen" font-weight="bold" font-size="18.240000">33</text>
<text x="335.803460" y="139.033934" transform="rotate(110.780394 335.803460 139.033934)" fill="darkgreen" font-weight="bold" font-size="18.240000">35</text>
<text x="33.809781" y="531.730739" transform="rotate(121.500283 33.809781 531.730739)" fill="darkgreen" font-weight="bold" font-size="18.240000">35</text>
<text x="348.425274" y="110.316824" transform="rotate(114.802166 348.425274 110.316824)" fill="darkgreen" font-weight="bold" font-size="18.240000">37</text>
<text x="18.585651" y="559.087754" transform="rotate(112.499927 18.585651 559.087754)" fill="darkgreen" font-weight="bold" font-size="18.240000">37</text>
<text x="363.030065" y="82.555548" transform="rotate(118.823739 363.030065 82.555548)" fill="darkgreen" font-weight="bold" font-size="18.240000">39</text>
<text x="7.828620" y="588.489672" transform="rotate(103.500017 7.828620 588.489672)" fill="darkgreen" font-weight="bold" font-size="18.240000">39</text>
<text x="379.545847" y="55.887008" transform="rotate(122.845463 379.545847 55.887008)" fill="darkgreen" font-weight="bold" font-size="18.240000">41</text>
<text x="1.803509" y="619.212271" transform="rotate(94.499768 1.803509 619.212271)" fill="darkgreen" font-weight="bold" font-size="18.240000">41</text>
<text x="397.891250" y="30.442394" transform="rotate(126.866859 397.891250 30.442394)" fill="darkgreen" font-weight="bold" font-size="18.240000">43</text>
<text x="0.658695" y="650.499171" transform="rotate(85.500251 0.658695 650.499171)" fill="darkgreen" font-weight="bold" font-size="18.240000">43</text>
<text x="417.976002" y="6.347063" transform="rotate(130.888634 417.976002 6.347063)" fill="darkgreen" font-weight="bold" font-size="18.240000">45</text>
<text x="4.422169" y="681.579975" transform="rotate(76.499888 4.422169 681.579975)" fill="darkgreen" font-weight="bold" font-size="18.240000">45</text>
<text x="890.036381" y="832.028048" transform="rotate(-12.932188 890.036381 832.028048)" fill="darkgreen" font-weight="bold" font-size="18.240000">47</text>
<text x="13.001549" y="711.689354" transform="rotate(67.500063 13.001549 711.689354)" fill="darkgreen" font-weight="bold" font-size="18.240000">47</text>
<text x="859.143036" y="837.467647" transform="rotate(-8.910501 859.143036 837.467647)" fill="darkgreen" font-weight="bold" font-size="18.240000">49</text>
<text x="26.185440" y="740.086026" transform="rotate(58.499898 26.185440 740.086026)" fill="darkgreen" font-weight="bold" font-size="18.240000">49</text>
<text x="827.944365" y="840.727203" transform="rotate(-4.888903 827.944365 840.727203)" fill="darkgreen" font-weight="bold" font-size="18.240000">51</text>
<text x="43.649221" y="766.070566" transform="rotate(49.499931 43.649221 766.070566)" fill="darkgreen" font-weight="bold" font-size="18.240000">51</text>
<text x="796.593873" y="841.790711" transform="rotate(-0.867368 796.593873 841.790711)" fill="darkgreen" font-weight="bold" font-size="18.240000">53</text>
<text x="64.962887" y="789.003299" transform="rotate(40.500105 64.962887 789.003299)" fill="darkgreen" font-weight="bold" font-size="18.240000">53</text>
<text x="439.011969" y="839.202414" transform="rotate(96.892096 439.011969 839.202414)" fill="darkgreen" font-weight="bold" font-size="18.240000">54</text>
<text x="229.388293" y="756.187274" transform="rotate(-18.000030 229.388293 756.187274)" fill="darkgreen" font-weight="bold" font-size="18.240000">54</text>
<text x="765.246029" y="840.652904" transform="rotate(3.154302 765.246029 840.652904)" fill="darkgreen" font-weight="bold" font-size="18.240000">55</text>
<text x="425.712378" y="1002.432848" transform="rotate(-33.607887 425.712378 1002.432848)" fill="darkgreen" font-weight="bold" font-size="18.240000">55</text>
<text x="734.055214" y="837.319363" transform="rotate(7.175935 734.055214 837.319363)" fill="darkgreen" font-weight="bold" font-size="18.240000">57</text>
<text x="451.036977" y="984.025183" transform="rotate(-42.607931 451.036977 984.025183)" fill="darkgreen" font-weight="bold" font-size="18.240000">57</text>
<text x="703.174849" y="831.806528" transform="rotate(11.197508 703.174849 831.806528)" fill="darkgreen" font-weight="bold" font-size="18.240000">59</text>
<text x="473.170297" y="961.882405" transform="rotate(-51.607842 473.170297 961.882405)" fill="darkgreen" font-weight="bold" font-size="18.240000">59</text>
<text x="672.757232" y="824.141591" transform="rotate(15.219069 672.757232 824.141591)" fill="darkgreen" font-weight="bold" font-size="18.240000">61</text>
<text x="491.567225" y="936.549936" transform="rotate(-60.607727 491.567225 936.549936)" fill="darkgreen" font-weight="bold" font-size="18.240000">61</text>
<text x="642.952086" y="814.362212" transform="rotate(19.240793 642.952086 814.362212)" fill="darkgreen" font-weight="bold" font-size="18.240000">63</text>
<text x="505.774780" y="908.651436" transform="rotate(-69.607972 505.774780 908.651436)" fill="darkgreen" font-weight="bold" font-size="18.240000">63</text>
<text x="613.906190" y="802.516589" transform="rotate(23.262406 613.906190 802.516589)" fill="darkgreen" font-weight="bold" font-size="18.240000">65</text>
<text x="515.443052" y="878.873835" transform="rotate(-78.607970 515.443052 878.873835)" fill="darkgreen" font-weight="bold" font-size="18.240000">65</text>
<text x="585.762580" y="788.663091" transform="rotate(27.283941 585.762580 788.663091)" fill="darkgreen" font-weight="bold" font-size="18.240000">67</text>
<text x="520.334058" y="847.950405" transform="rotate(-87.607796 520.334058 847.950405)" fill="darkgreen" font-weight="bold" font-size="18.240000">67</text>
<text x="558.659780" y="772.869857" transform="rotate(31.305628 558.659780 772.869857)" fill="darkgreen" font-weight="bold" font-size="18.240000">69</text>
<text x="520.327406" y="816.642484" transform="rotate(-96.607961 520.327406 816.642484)" fill="darkgreen" font-weight="bold" font-size="18.240000">69</text>
<text x="532.731423" y="755.214771" transform="rotate(35.327226 532.731423 755.214771)" fill="darkgreen" font-weight="bold" font-size="18.240000">71</text>
<text x="515.423164" y="785.721159" transform="rotate(-105.607928 515.423164 785.721159)" fill="darkgreen" font-weight="bold" font-size="18.240000">71</text>
<text x="508.105062" y="735.784724" transform="rotate(39.348760 508.105062 735.784724)" fill="darkgreen" font-weight="bold" font-size="18.240000">73</text>
<text x="505.742144" y="755.947673" transform="rotate(-114.607754 505.742144 755.947673)" fill="darkgreen" font-weight="bold" font-size="18.240000">73</text>
<text x="484.902051" y="714.675431" transform="rotate(43.370431 484.902051 714.675431)" fill="darkgreen" font-weight="bold" font-size="18.240000">75</text>
<text x="491.522803" y="728.055195" transform="rotate(-123.607882 491.522803 728.055195)" fill="darkgreen" font-weight="bold" font-size="18.240000">75</text>
<text x="856.663816" y="617.887587" transform="rotate(-104.942963 856.663816 617.887587)" fill="darkgreen" font-weight="bold" font-size="18.240000">94</text>
<text x="592.619675" y="157.178584" transform="rotate(-137.100596 592.619675 157.178584)" fill="darkgreen" font-weight="bold" font-size="18.240000">94</text>
<text x="555.514927" y="433.919778" transform="rotate(-33.511218 555.514927 433.919778)" fill="darkgreen" font-weight="bold" font-size="18.240000">113</text>
<text x="597.914272" y="469.231381" transform="rotate(159.510900 597.914272 469.231381)" fill="darkgreen" font-weight="bold" font-size="18.240000">113</text>
</svg>
