<?xml version="1.0"?>
<svg width="1125" height="814" version="1.1" xmlns="http://www.w3.org/2000/svg" >
<defs>
<style type="text/css"><![CDATA[
.m {stroke:rgb(255,0,0);stroke-width:1.406250;}
.v {stroke:rgb(0,0,255);stroke-width:1.406250;}
.b {stroke:rgb(0,0,0);stroke-width:2.812500;fill:white}
.n {stroke:rgb(128,128,128);stroke-width:1.406250}
.t {stroke:rgb(0,128,0);stroke-width:1.406250;}
.c {stroke:rgb(128,128,128);stroke-width:1.406250;stroke-dasharray:11.250000, 11.250000;}
]]></style>
</defs>
<path fill="none" style="stroke:black;stroke-width:2.812500;" d=" M 833.339 328.635 L 881.121 288.233 M 881.121 288.233 L 855.64 306.554 M 809.544 349.098 L 888.996 300.038 M 888.996 300.038 L 833.339 328.635 M 784.372 367.842 L 898.006 319.201 M 898.006 319.201 L 809.544 349.098 M 757.948 384.774 L 906.044 346.056 M 906.044 346.056 L 784.372 367.842 M 730.402 399.812 L 910.96 380.422 M 910.96 380.422 L 757.948 384.774 M 701.869 412.88 L 910.686 421.602 M 910.686 421.602 L 730.402 399.812 M 672.489 423.915 L 903.351 468.43 M 903.351 468.43 L 701.869 412.88 M 642.408 432.863 L 887.385 519.301 M 887.385 519.301 L 672.489 423.915 M 611.773 439.679 L 861.609 572.276 M 861.609 572.276 L 642.408 432.863 M 580.736 444.329 L 825.306 625.161 M 825.306 625.161 L 611.773 439.679 M 549.449 446.792 L 778.275 675.615 M 778.275 675.615 L 580.736 444.329 M 518.067 447.054 L 720.831 721.291 M 720.831 721.291 L 549.449 446.792 M 486.743 445.114 L 653.829 759.924 M 653.829 759.924 L 518.067 447.054 M 455.633 440.983 L 578.598 789.477 M 578.598 789.477 L 486.743 445.114 M 424.888 434.679 L 496.911 808.222 M 496.911 808.222 L 455.633 440.983 M 394.662 426.235 L 410.897 814.845 M 410.897 814.845 L 424.888 434.679 M 365.102 415.692 L 322.915 808.509 M 322.915 808.509 L 394.662 426.235 M 336.355 403.102 L 235.496 788.904 M 235.496 788.904 L 365.102 415.692 M 308.561 388.527 L 151.158 756.256 M 151.158 756.256 L 336.355 403.102 M 281.858 372.038 L 72.3501 711.335 M 72.3501 711.335 L 308.561 388.527 M 1.28608 655.402 L 281.858 372.038 M 256.377 353.718 L 228.344 339.608 M 228.344 339.608 L 198.448 330.058 M 198.448 330.058 L 167.427 325.302 M 167.427 325.302 L 136.044 325.458 M 136.044 325.458 L 105.071 330.52 M 105.071 330.52 L 75.2718 340.366 M 75.2718 340.366 L 47.3799 354.752 M 47.3799 354.752 L 22.0815 373.325 M 22.0815 373.325 L 0 395.626 M 0 395.626 L 1.28608 655.402 M 1125.08 208.055 L 1095.45 197.713 M 876.338 282.963 L 1125.08 208.055 M 1095.45 197.713 L 1064.57 192.133 M 1064.57 192.133 L 1033.19 191.454 M 1033.19 191.454 L 1002.1 195.691 M 1002.1 195.691 L 972.045 204.741 M 972.045 204.741 L 943.78 218.38 M 943.78 218.38 L 917.997 236.272 M 917.997 236.272 L 895.33 257.978 M 855.64 306.554 L 876.338 282.963 M 895.33 257.978 L 912.523 231.723 M 912.523 231.723 L 927.833 204.327 M 927.833 204.327 L 941.183 175.925 M 941.183 175.925 L 952.509 146.656 M 952.509 146.656 L 961.754 116.665 M 961.754 116.665 L 968.873 86.0993 M 968.873 86.0993 L 973.831 55.1096 M 973.831 55.1096 L 976.603 23.8487 M 976.603 23.8487 L 530.026 0 M 100.306 123.859 L 110.051 153.691 M 530.026 0 L 100.306 123.859 M 110.051 153.691 L 121.864 182.767 M 121.864 182.767 L 135.686 210.942 M 135.686 210.942 L 151.451 238.079 M 151.451 238.079 L 169.081 264.043 M 169.081 264.043 L 188.488 288.707 M 188.488 288.707 L 209.576 311.949 M 209.576 311.949 L 232.243 333.655 M 232.243 333.655 L 256.377 353.718" />
<path fill="none" class="c" d=" M 549.449 446.792 L 580.736 444.329 M 530.026 0 L 549.449 446.792 M 580.736 444.329 L 530.026 0 M 611.773 439.679 L 530.026 0 M 642.408 432.863 L 530.026 0 M 672.489 423.915 L 530.026 0 M 701.869 412.88 L 530.026 0 M 730.402 399.812 L 530.026 0 M 757.948 384.774 L 530.026 0 M 784.372 367.842 L 530.026 0 M 809.544 349.098 L 530.026 0 M 833.339 328.635 L 530.026 0 M 833.339 328.635 L 855.64 306.554 M 518.067 447.054 L 549.449 446.792 M 530.026 0 L 518.067 447.054 M 580.736 444.329 L 611.773 439.679 M 611.773 439.679 L 642.408 432.863 M 642.408 432.863 L 672.489 423.915 M 672.489 423.915 L 701.869 412.88 M 701.869 412.88 L 730.402 399.812 M 730.402 399.812 L 757.948 384.774 M 757.948 384.774 L 784.372 367.842 M 784.372 367.842 L 809.544 349.098 M 809.544 349.098 L 833.339 328.635 M 855.64 306.554 L 530.026 0 M 876.338 282.963 L 530.026 0 M 876.338 282.963 L 895.33 257.978 M 895.33 257.978 L 530.026 0 M 912.523 231.723 L 530.026 0 M 927.833 204.327 L 530.026 0 M 941.183 175.925 L 530.026 0 M 952.509 146.656 L 530.026 0 M 961.754 116.665 L 530.026 0 M 968.873 86.0993 L 530.026 0 M 973.831 55.1096 L 530.026 0 M 486.743 445.114 L 518.067 447.054 M 530.026 0 L 486.743 445.114 M 455.633 440.983 L 486.743 445.114 M 530.026 0 L 455.633 440.983 M 424.888 434.679 L 455.633 440.983 M 530.026 0 L 424.888 434.679 M 394.662 426.235 L 424.888 434.679 M 530.026 0 L 394.662 426.235 M 365.102 415.692 L 394.662 426.235 M 530.026 0 L 365.102 415.692 M 336.355 403.102 L 365.102 415.692 M 530.026 0 L 336.355 403.102 M 308.561 388.527 L 336.355 403.102 M 530.026 0 L 308.561 388.527 M 281.858 372.038 L 308.561 388.527 M 530.026 0 L 281.858 372.038 M 256.377 353.718 L 281.858 372.038 M 530.026 0 L 256.377 353.718 M 530.026 0 L 232.243 333.655 M 530.026 0 L 209.576 311.949 M 530.026 0 L 188.488 288.707 M 530.026 0 L 169.081 264.043 M 530.026 0 L 151.451 238.079 M 530.026 0 L 135.686 210.942 M 530.026 0 L 121.864 182.767 M 530.026 0 L 110.051 153.691" />
</svg>
