<?xml version="1.0"?>
<svg width="939" height="599" version="1.1" xmlns="http://www.w3.org/2000/svg" >
<defs>
<style type="text/css"><![CDATA[
.m {stroke:rgb(255,0,0);stroke-width:1.173750;}
.v {stroke:rgb(0,0,255);stroke-width:1.173750;}
.b {stroke:rgb(0,0,0);stroke-width:2.347500;fill:white}
.n {stroke:rgb(128,128,128);stroke-width:1.173750}
.t {stroke:rgb(0,128,0);stroke-width:1.173750;}
.c {stroke:rgb(128,128,128);stroke-width:1.173750;stroke-dasharray:9.390000, 9.390000;}
]]></style>
</defs>
<path fill="none" style="stroke:black;stroke-width:2.347500;" d=" M 360 420 L 360 400 M 340 400 L 340 420 M 340 420 L 340 400 M 320 400 L 320 420 M 320 420 L 320 400 M 300 400 L 300 420 M 300 420 L 300 400 M 280 400 L 280 420 M 280 420 L 280 400 M 260 400 L 260 420 M 260 420 L 260 400 M 240 400 L 240 420 M 240 420 L 240 400 M 220 400 L 220 420 M 220 420 L 220 400 M 200 400 L 200 420 M 200 420 L 200 400 M 180 400 L 180 420 M 180 420 L 180 400 M 160 400 L 160 420 M 360 440 L 360 420 M 340 420 L 340 440 M 320 420 L 340 440 M 340 440 L 340 420 M 580 560 L 600 580 M 600 580 L 600 560 M 320 440 L 320 420 M 300 420 L 300 440 M 300 440 L 300 420 M 280 420 L 280 440 M 280 440 L 280 420 M 260 420 L 260 440 M 260 440 L 260 420 M 240 420 L 240 440 M 240 440 L 240 420 M 220 420 L 220 440 M 200 420 L 220 440 M 220 440 L 220 420 M 700 560 L 720 580 M 720 580 L 720 560 M 200 440 L 200 420 M 180 420 L 180 440 M 180 440 L 180 420 M 160 420 L 160 440 M 360 460 L 360 440 M 340 440 L 340 460 M 580 540 L 580 560 M 600 560 L 600 540 M 320 460 L 320 440 M 300 440 L 300 460 M 300 460 L 300 440 M 280 440 L 280 460 M 260 440 L 280 460 M 280 460 L 280 440 M 640 540 L 660 560 M 660 560 L 660 540 M 260 460 L 260 440 M 240 440 L 240 460 M 240 460 L 240 440 M 220 440 L 220 460 M 700 540 L 700 560 M 720 560 L 720 540 M 200 460 L 200 440 M 180 440 L 180 460 M 180 460 L 180 440 M 360 480 L 360 460 M 340 460 L 340 480 M 580 520 L 580 540 M 600 540 L 600 520 M 320 480 L 320 460 M 300 460 L 300 480 M 300 480 L 300 460 M 280 460 L 280 480 M 640 520 L 640 540 M 660 540 L 660 520 M 260 480 L 260 460 M 240 460 L 240 480 M 220 460 L 240 480 M 240 480 L 240 460 M 680 520 L 700 540 M 700 540 L 700 520 M 700 520 L 700 540 M 720 540 L 720 520 M 200 480 L 200 460 M 180 460 L 180 480 M 180 480 L 180 460 M 160 460 L 160 480 M 360 500 L 360 480 M 340 480 L 340 500 M 580 500 L 580 520 M 600 520 L 600 500 M 320 500 L 320 480 M 300 480 L 300 500 M 300 500 L 300 480 M 280 480 L 280 500 M 640 500 L 640 520 M 660 520 L 660 500 M 260 500 L 260 480 M 240 480 L 240 500 M 680 500 L 680 520 M 700 520 L 700 500 M 700 500 L 700 520 M 720 520 L 720 500 M 180 480 L 200 500 M 200 500 L 200 480 M 720 500 L 740 520 M 740 520 L 740 500 M 160 480 L 180 500 M 180 500 L 180 480 M 740 500 L 760 520 M 360 520 L 360 500 M 340 500 L 340 520 M 580 480 L 580 500 M 600 500 L 600 480 M 320 520 L 320 500 M 300 500 L 300 520 M 300 520 L 300 500 M 280 500 L 280 520 M 640 480 L 640 500 M 660 500 L 660 480 M 260 520 L 260 500 M 240 500 L 240 520 M 680 480 L 680 500 M 700 500 L 700 480 M 700 480 L 700 500 M 720 500 L 720 480 M 720 480 L 720 500 M 740 500 L 740 480 M 740 480 L 740 500 M 360 540 L 360 520 M 340 520 L 340 540 M 580 460 L 580 480 M 600 480 L 600 460 M 320 540 L 320 520 M 300 520 L 300 540 M 300 540 L 300 520 M 280 520 L 280 540 M 640 460 L 640 480 M 660 480 L 660 460 M 240 520 L 260 540 M 260 540 L 260 520 M 660 460 L 680 480 M 680 480 L 680 460 M 680 460 L 680 480 M 700 480 L 700 460 M 700 460 L 700 480 M 720 480 L 720 460 M 720 460 L 720 480 M 740 480 L 740 460 M 740 460 L 740 480 M 360 560 L 360 540 M 340 540 L 340 560 M 580 440 L 580 460 M 600 460 L 600 440 M 320 560 L 320 540 M 300 540 L 300 560 M 280 540 L 300 560 M 300 560 L 300 540 M 620 440 L 640 460 M 640 460 L 640 440 M 640 440 L 640 460 M 660 460 L 660 440 M 660 440 L 660 460 M 680 460 L 680 440 M 680 440 L 680 460 M 700 460 L 700 440 M 700 440 L 700 460 M 720 460 L 720 440 M 720 440 L 720 460 M 740 460 L 740 440 M 740 440 L 740 460 M 340 560 L 360 580 M 360 580 L 360 560 M 560 420 L 580 440 M 580 440 L 580 420 M 580 420 L 580 440 M 600 440 L 600 420 M 320 580 L 320 560 M 300 560 L 300 580 M 620 420 L 620 440 M 640 440 L 640 420 M 640 420 L 640 440 M 660 440 L 660 420 M 660 420 L 660 440 M 680 440 L 680 420 M 680 420 L 680 440 M 700 440 L 700 420 M 700 420 L 700 440 M 720 440 L 720 420 M 720 420 L 720 440 M 740 440 L 740 420 M 740 420 L 740 440 M 560 400 L 560 420 M 580 420 L 580 400 M 580 400 L 580 420 M 600 420 L 600 400 M 300 580 L 320 600 M 320 600 L 320 580 M 600 400 L 620 420 M 620 420 L 620 400 M 620 400 L 620 420 M 640 420 L 640 400 M 640 400 L 640 420 M 660 420 L 660 400 M 660 400 L 660 420 M 680 420 L 680 400 M 680 400 L 680 420 M 700 420 L 700 400 M 700 400 L 700 420 M 720 420 L 720 400 M 720 400 L 720 420 M 740 420 L 740 400 M 740 400 L 740 420 M 580 400 L 580 380 M 580 380 L 580 400 M 600 400 L 600 380 M 600 380 L 600 400 M 620 400 L 620 380 M 620 380 L 620 400 M 640 400 L 640 380 M 640 380 L 640 400 M 660 400 L 660 380 M 660 380 L 660 400 M 680 400 L 680 380 M 680 380 L 680 400 M 700 400 L 700 380 M 700 380 L 700 400 M 720 400 L 720 380 M 720 380 L 720 400 M 740 400 L 740 380 M 740 380 L 740 400 M 580 380 L 580 360 M 580 360 L 580 380 M 600 380 L 600 360 M 600 360 L 600 380 M 620 380 L 620 360 M 620 360 L 620 380 M 640 380 L 640 360 M 640 360 L 640 380 M 660 380 L 660 360 M 660 360 L 660 380 M 680 380 L 680 360 M 680 360 L 680 380 M 700 380 L 700 360 M 700 360 L 700 380 M 720 380 L 720 360 M 720 360 L 720 380 M 740 380 L 740 360 M 740 360 L 740 380 M 580 360 L 580 340 M 580 340 L 580 360 M 620 360 L 620 340 M 620 340 L 620 360 M 640 360 L 640 340 M 640 340 L 640 360 M 660 360 L 660 340 M 660 340 L 660 360 M 700 360 L 700 340 M 700 340 L 700 360 M 720 360 L 720 340 M 720 340 L 720 360 M 740 360 L 740 340 M 740 340 L 740 360 M 580 340 L 580 320 M 580 320 L 580 340 M 600 340 L 600 320 M 600 320 L 600 340 M 620 340 L 620 320 M 620 320 L 620 340 M 640 340 L 640 320 M 640 320 L 640 340 M 660 340 L 660 320 M 660 320 L 660 340 M 680 340 L 680 320 M 680 320 L 680 340 M 700 340 L 700 320 M 700 320 L 700 340 M 720 340 L 720 320 M 720 320 L 720 340 M 740 340 L 740 320 M 740 320 L 740 340 M 580 320 L 580 300 M 580 300 L 580 320 M 600 320 L 600 300 M 600 300 L 600 320 M 620 320 L 620 300 M 620 300 L 620 320 M 640 320 L 640 300 M 640 300 L 640 320 M 660 320 L 660 300 M 660 300 L 660 320 M 680 320 L 680 300 M 680 300 L 680 320 M 700 320 L 700 300 M 700 300 L 700 320 M 720 320 L 720 300 M 720 300 L 720 320 M 580 300 L 580 280 M 580 280 L 580 300 M 600 300 L 600 280 M 600 280 L 600 300 M 620 300 L 620 280 M 620 280 L 620 300 M 640 300 L 640 280 M 640 280 L 640 300 M 680 300 L 680 280 M 680 280 L 680 300 M 700 300 L 700 280 M 700 280 L 700 300 M 720 300 L 720 280 M 720 280 L 720 300 M 740 300 L 740 280 M 740 280 L 740 300 M 600 280 L 600 260 M 600 260 L 600 280 M 620 280 L 620 260 M 620 260 L 620 280 M 660 280 L 660 260 M 660 260 L 660 280 M 680 280 L 680 260 M 680 260 L 680 280 M 700 280 L 700 260 M 700 260 L 700 280 M 740 280 L 740 260 M 740 260 L 740 280 M 560 240 L 560 260 M 580 260 L 580 240 M 580 240 L 580 260 M 600 260 L 600 240 M 600 240 L 600 260 M 640 260 L 640 240 M 640 240 L 640 260 M 660 260 L 660 240 M 660 240 L 660 260 M 680 260 L 680 240 M 680 240 L 680 260 M 720 260 L 720 240 M 720 240 L 720 260 M 740 260 L 740 240 M 740 240 L 740 260 M 580 240 L 580 220 M 580 220 L 580 240 M 600 240 L 600 220 M 600 220 L 600 240 M 620 240 L 620 220 M 620 220 L 620 240 M 640 240 L 640 220 M 640 220 L 640 240 M 660 240 L 660 220 M 660 220 L 660 240 M 680 240 L 680 220 M 680 220 L 680 240 M 700 240 L 700 220 M 700 220 L 700 240 M 720 240 L 720 220 M 720 220 L 720 240 M 740 240 L 740 220 M 740 220 L 740 240 M 580 220 L 580 200 M 580 200 L 580 220 M 600 220 L 600 200 M 600 200 L 600 220 M 620 220 L 620 200 M 620 200 L 620 220 M 640 220 L 640 200 M 640 200 L 640 220 M 660 220 L 660 200 M 660 200 L 660 220 M 680 220 L 680 200 M 680 200 L 680 220 M 700 220 L 700 200 M 700 200 L 700 220 M 720 220 L 720 200 M 720 200 L 720 220 M 740 220 L 740 200 M 740 200 L 740 220 M 560 180 L 560 200 M 580 200 L 580 180 M 600 200 L 580 180 M 580 180 L 580 200 M 340 20 L 320 8.88178e-014 M 320 8.88178e-014 L 320 20 M 600 180 L 600 200 M 620 200 L 620 180 M 620 180 L 620 200 M 640 200 L 640 180 M 640 180 L 640 200 M 660 200 L 660 180 M 660 180 L 660 200 M 680 200 L 680 180 M 700 200 L 680 180 M 680 180 L 680 200 M 240 20 L 220 8.88178e-014 M 220 8.88178e-014 L 220 20 M 700 180 L 700 200 M 720 200 L 720 180 M 720 180 L 720 200 M 740 200 L 740 180 M 760 200 L 740 180 M 740 180 L 740 200 M 180 20 L 160 1.77636e-013 M 160 1.77636e-013 L 160 20 M 560 160 L 560 180 M 580 180 L 580 160 M 340 40 L 340 20 M 320 20 L 320 40 M 600 160 L 600 180 M 620 180 L 620 160 M 620 160 L 620 180 M 640 180 L 640 160 M 640 160 L 640 180 M 660 180 L 660 160 M 660 160 L 660 180 M 680 180 L 680 160 M 240 40 L 240 20 M 220 20 L 220 40 M 700 160 L 700 180 M 720 180 L 720 160 M 720 160 L 720 180 M 740 180 L 740 160 M 180 40 L 180 20 M 160 20 L 160 40 M 560 140 L 560 160 M 580 160 L 580 140 M 340 60 L 340 40 M 320 40 L 320 60 M 600 140 L 600 160 M 620 160 L 620 140 M 620 140 L 620 160 M 640 160 L 640 140 M 640 140 L 640 160 M 660 160 L 660 140 M 660 140 L 660 160 M 680 160 L 680 140 M 240 60 L 240 40 M 220 40 L 220 60 M 720 160 L 700 140 M 700 140 L 700 160 M 220 60 L 200 40 M 200 40 L 200 60 M 720 140 L 720 160 M 740 160 L 740 140 M 180 60 L 180 40 M 160 40 L 160 60 M 560 120 L 560 140 M 580 140 L 580 120 M 340 80 L 340 60 M 320 60 L 320 80 M 600 120 L 600 140 M 620 140 L 620 120 M 620 120 L 620 140 M 640 140 L 640 120 M 640 120 L 640 140 M 660 140 L 660 120 M 660 120 L 660 140 M 680 140 L 680 120 M 240 80 L 240 60 M 220 60 L 220 80 M 220 80 L 220 60 M 200 60 L 200 80 M 740 140 L 720 120 M 720 120 L 720 140 M 200 80 L 180 60 M 180 60 L 180 80 M 180 80 L 180 60 M 560 100 L 560 120 M 580 120 L 580 100 M 340 100 L 340 80 M 320 80 L 320 100 M 600 100 L 600 120 M 620 120 L 620 100 M 620 100 L 620 120 M 640 120 L 640 100 M 640 100 L 640 120 M 660 120 L 660 100 M 660 100 L 660 120 M 680 120 L 680 100 M 240 100 L 240 80 M 220 80 L 220 100 M 220 100 L 220 80 M 200 80 L 200 100 M 200 100 L 200 80 M 180 80 L 180 100 M 180 100 L 180 80 M 580 100 L 560 80 M 560 80 L 560 100 M 360 120 L 340 100 M 340 100 L 340 120 M 340 120 L 340 100 M 320 100 L 320 120 M 620 100 L 600 80 M 600 80 L 600 100 M 320 120 L 300 100 M 300 100 L 300 120 M 620 80 L 620 100 M 640 100 L 640 80 M 640 80 L 640 100 M 660 100 L 660 80 M 660 80 L 660 100 M 680 100 L 680 80 M 240 120 L 240 100 M 220 100 L 220 120 M 220 120 L 220 100 M 200 100 L 200 120 M 200 120 L 200 100 M 180 100 L 180 120 M 180 120 L 180 100 M 360 140 L 360 120 M 340 120 L 340 140 M 340 140 L 340 120 M 320 120 L 320 140 M 320 140 L 320 120 M 300 120 L 300 140 M 620 60 L 620 80 M 640 80 L 640 60 M 640 60 L 640 80 M 660 80 L 660 60 M 660 60 L 660 80 M 680 80 L 680 60 M 240 140 L 240 120 M 220 120 L 220 140 M 220 140 L 220 120 M 200 120 L 200 140 M 200 140 L 200 120 M 180 120 L 180 140 M 180 140 L 180 120 M 360 160 L 360 140 M 340 140 L 340 160 M 340 160 L 340 140 M 320 140 L 320 160 M 320 160 L 320 140 M 300 140 L 300 160 M 620 40 L 620 60 M 640 60 L 640 40 M 640 40 L 640 60 M 660 60 L 660 40 M 660 40 L 660 60 M 680 60 L 680 40 M 240 160 L 240 140 M 220 140 L 220 160 M 220 160 L 220 140 M 200 140 L 200 160 M 200 160 L 200 140 M 180 140 L 180 160 M 180 160 L 180 140 M 360 180 L 360 160 M 340 160 L 340 180 M 340 180 L 340 160 M 320 160 L 320 180 M 320 180 L 320 160 M 300 160 L 300 180 M 620 20 L 620 40 M 640 40 L 640 20 M 660 40 L 640 20 M 640 20 L 640 40 M 280 180 L 260 160 M 260 160 L 260 180 M 660 20 L 660 40 M 680 40 L 680 20 M 240 180 L 240 160 M 220 160 L 220 180 M 220 180 L 220 160 M 200 160 L 200 180 M 200 180 L 200 160 M 180 160 L 180 180 M 180 180 L 180 160 M 360 200 L 360 180 M 340 180 L 340 200 M 340 200 L 340 180 M 320 180 L 320 200 M 320 200 L 320 180 M 300 180 L 300 200 M 640 20 L 620 0 M 620 0 L 620 20 M 300 200 L 280 180 M 280 180 L 280 200 M 280 200 L 280 180 M 260 180 L 260 200 M 680 20 L 660 4.44089e-014 M 660 4.44089e-014 L 660 20 M 260 200 L 240 180 M 240 180 L 240 200 M 240 200 L 240 180 M 220 180 L 220 200 M 220 200 L 220 180 M 200 180 L 200 200 M 200 200 L 200 180 M 180 180 L 180 200 M 180 200 L 180 180 M 340 200 L 340 220 M 340 220 L 340 200 M 320 200 L 320 220 M 320 220 L 320 200 M 300 200 L 300 220 M 300 220 L 300 200 M 280 200 L 280 220 M 280 220 L 280 200 M 260 200 L 260 220 M 260 220 L 260 200 M 240 200 L 240 220 M 240 220 L 240 200 M 220 200 L 220 220 M 220 220 L 220 200 M 200 200 L 200 220 M 200 220 L 200 200 M 180 200 L 180 220 M 180 220 L 180 200 M 320 220 L 320 240 M 320 240 L 320 220 M 300 220 L 300 240 M 300 240 L 300 220 M 280 220 L 280 240 M 280 240 L 280 220 M 240 220 L 240 240 M 240 240 L 240 220 M 220 220 L 220 240 M 220 240 L 220 220 M 200 220 L 200 240 M 200 240 L 200 220 M 180 220 L 180 240 M 180 240 L 180 220 M 340 240 L 340 260 M 340 260 L 340 240 M 300 240 L 300 260 M 300 260 L 300 240 M 280 240 L 280 260 M 280 260 L 280 240 M 260 240 L 260 260 M 260 260 L 260 240 M 240 240 L 240 260 M 240 260 L 240 240 M 200 240 L 200 260 M 200 260 L 200 240 M 180 240 L 180 260 M 180 260 L 180 240 M 340 260 L 340 280 M 340 280 L 340 260 M 320 260 L 320 280 M 320 280 L 320 260 M 300 260 L 300 280 M 300 280 L 300 260 M 280 260 L 280 280 M 280 280 L 280 260 M 260 260 L 260 280 M 260 280 L 260 260 M 240 260 L 240 280 M 240 280 L 240 260 M 220 260 L 220 280 M 220 280 L 220 260 M 200 260 L 200 280 M 200 280 L 200 260 M 180 260 L 180 280 M 180 280 L 180 260 M 340 280 L 340 300 M 340 300 L 340 280 M 320 280 L 320 300 M 320 300 L 320 280 M 300 280 L 300 300 M 300 300 L 300 280 M 260 280 L 260 300 M 260 300 L 260 280 M 240 280 L 240 300 M 240 300 L 240 280 M 220 280 L 220 300 M 220 300 L 220 280 M 200 280 L 200 300 M 200 300 L 200 280 M 180 280 L 180 300 M 180 300 L 180 280 M 340 300 L 340 320 M 340 320 L 340 300 M 320 300 L 320 320 M 320 320 L 320 300 M 300 300 L 300 320 M 300 320 L 300 300 M 280 300 L 280 320 M 280 320 L 280 300 M 260 300 L 260 320 M 260 320 L 260 300 M 240 300 L 240 320 M 240 320 L 240 300 M 220 300 L 220 320 M 220 320 L 220 300 M 200 300 L 200 320 M 200 320 L 200 300 M 180 300 L 180 320 M 180 320 L 180 300 M 340 320 L 340 340 M 340 340 L 340 320 M 320 320 L 320 340 M 320 340 L 320 320 M 300 320 L 300 340 M 300 340 L 300 320 M 280 320 L 280 340 M 280 340 L 280 320 M 260 320 L 260 340 M 260 340 L 260 320 M 240 320 L 240 340 M 240 340 L 240 320 M 220 320 L 220 340 M 220 340 L 220 320 M 200 320 L 200 340 M 200 340 L 200 320 M 180 320 L 180 340 M 180 340 L 180 320 M 340 340 L 340 360 M 340 360 L 340 340 M 320 340 L 320 360 M 320 360 L 320 340 M 300 340 L 300 360 M 300 360 L 300 340 M 280 340 L 280 360 M 280 360 L 280 340 M 260 340 L 260 360 M 260 360 L 260 340 M 240 340 L 240 360 M 240 360 L 240 340 M 220 340 L 220 360 M 220 360 L 220 340 M 180 340 L 180 360 M 180 360 L 180 340 M 340 360 L 340 380 M 340 380 L 340 360 M 320 360 L 320 380 M 320 380 L 320 360 M 300 360 L 300 380 M 300 380 L 300 360 M 280 360 L 280 380 M 280 380 L 280 360 M 260 360 L 260 380 M 260 380 L 260 360 M 240 360 L 240 380 M 240 380 L 240 360 M 220 360 L 220 380 M 220 380 L 220 360 M 200 360 L 200 380 M 200 380 L 200 360 M 180 360 L 180 380 M 180 380 L 180 360 M 340 380 L 340 400 M 340 400 L 340 380 M 320 380 L 320 400 M 320 400 L 320 380 M 280 380 L 280 400 M 280 400 L 280 380 M 260 380 L 260 400 M 260 400 L 260 380 M 220 380 L 220 400 M 220 400 L 220 380 M 200 380 L 200 400 M 200 400 L 200 380 M 140 220 L 160 220 M 160 200 L 140 220 M 140 180 L 160 200 M 160 220 L 140 240 M 940 600 L 940 580 M 920 580 L 940 600 M 140 260 L 160 260 M 160 240 L 140 260 M 140 260 L 160 240 M 160 260 L 140 280 M 900 600 L 900 580 M 880 580 L 900 600 M 140 300 L 160 300 M 160 280 L 140 300 M 140 300 L 160 280 M 160 300 L 140 320 M 860 600 L 860 580 M 840 580 L 860 600 M 160 320 L 140 340 M 140 340 L 160 320 M 160 340 L 140 360 M 140 360 L 160 340 M 160 360 L 140 380 M 140 380 L 160 360 M 160 380 L 140 400 M 140 400 L 160 400 M 140 400 L 160 380 M 160 180 L 140 160 M 140 160 L 160 180 M 940 580 L 920 560 M 120 160 L 140 180 M 140 240 L 120 260 M 900 560 L 920 580 M 900 580 L 880 560 M 120 280 L 140 260 M 140 280 L 120 300 M 860 560 L 880 580 M 860 580 L 840 560 M 120 320 L 140 300 M 120 340 L 140 340 M 140 320 L 120 340 M 820 560 L 840 580 M 140 340 L 120 360 M 820 580 L 820 560 M 800 560 L 820 580 M 120 380 L 140 380 M 140 360 L 120 380 M 120 380 L 140 360 M 140 380 L 120 400 M 120 400 L 140 400 M 160 440 L 140 420 M 140 420 L 140 440 M 160 160 L 140 140 M 140 140 L 160 160 M 140 160 L 120 140 M 120 140 L 140 160 M 920 560 L 900 540 M 100 140 L 120 160 M 120 260 L 100 280 M 880 540 L 900 560 M 880 560 L 860 540 M 100 300 L 120 280 M 120 300 L 100 320 M 840 540 L 860 560 M 840 560 L 820 540 M 100 340 L 120 320 M 820 560 L 800 540 M 800 540 L 820 560 M 120 360 L 100 380 M 780 540 L 800 560 M 140 440 L 160 460 M 100 400 L 120 380 M 160 140 L 140 120 M 140 120 L 160 140 M 140 140 L 120 120 M 120 120 L 140 140 M 120 140 L 100 120 M 100 120 L 120 140 M 900 540 L 880 520 M 80 120 L 100 140 M 100 280 L 80 300 M 860 520 L 880 540 M 860 540 L 840 520 M 80 320 L 100 300 M 80 340 L 100 340 M 100 320 L 80 340 M 820 520 L 840 540 M 820 540 L 800 520 M 820 540 L 820 520 M 800 520 L 820 540 M 800 540 L 780 520 M 780 520 L 800 540 M 100 380 L 80 400 M 80 400 L 100 400 M 760 520 L 780 540 M 160 120 L 140 100 M 140 100 L 160 120 M 140 120 L 120 100 M 120 100 L 140 120 M 120 120 L 100 100 M 100 100 L 120 120 M 80 100 L 80 120 M 100 120 L 80 100 M 80 100 L 100 120 M 880 520 L 860 500 M 880 280 L 860 280 M 860 300 L 880 280 M 80 300 L 60 320 M 840 500 L 860 520 M 840 520 L 820 500 M 60 340 L 80 320 M 820 520 L 800 500 M 800 500 L 820 520 M 800 520 L 780 500 M 780 500 L 800 520 M 780 520 L 760 500 M 760 500 L 780 520 M 160 100 L 140 80 M 140 80 L 160 100 M 140 100 L 120 80 M 120 80 L 140 100 M 120 100 L 100 80 M 100 80 L 120 100 M 100 100 L 80 80 M 80 80 L 100 100 M 860 280 L 840 300 M 60 80 L 80 100 M 860 500 L 840 480 M 840 320 L 860 300 M 60 320 L 40 340 M 820 480 L 840 500 M 820 500 L 800 480 M 40 360 L 60 340 M 800 500 L 780 480 M 780 480 L 800 500 M 780 500 L 760 480 M 760 480 L 780 500 M 160 80 L 140 60 M 140 60 L 160 80 M 140 80 L 120 60 M 120 60 L 140 80 M 120 80 L 100 60 M 100 60 L 120 80 M 100 80 L 80 60 M 80 60 L 100 80 M 80 80 L 60 60 M 60 60 L 80 80 M 840 300 L 820 320 M 40 60 L 60 80 M 840 480 L 820 460 M 820 340 L 840 320 M 20 360 L 40 360 M 40 340 L 20 360 M 800 460 L 820 480 M 800 480 L 780 460 M 800 480 L 800 460 M 780 460 L 800 480 M 780 480 L 760 460 M 760 460 L 780 480 M 160 60 L 140 40 M 800 220 L 820 200 M 820 200 L 800 200 M 140 60 L 120 40 M 120 40 L 140 60 M 100 40 L 100 60 M 120 60 L 100 40 M 100 40 L 120 60 M 100 60 L 80 40 M 820 260 L 800 260 M 800 280 L 820 260 M 80 60 L 60 40 M 60 40 L 80 60 M 60 60 L 40 40 M 40 40 L 60 60 M 820 320 L 800 340 M 20 40 L 40 60 M 820 460 L 800 440 M 800 360 L 820 340 M 800 460 L 780 440 M 780 440 L 800 460 M 780 460 L 760 440 M 760 440 L 780 460 M 800 200 L 780 220 M 780 220 L 800 200 M 800 200 L 780 200 M 120 20 L 120 40 M 140 40 L 120 20 M 780 240 L 800 220 M 120 40 L 100 20 M 800 240 L 780 240 M 780 260 L 800 240 M 800 260 L 780 280 M 80 20 L 100 40 M 80 40 L 60 20 M 780 300 L 800 280 M 60 40 L 40 20 M 40 20 L 60 40 M 40 40 L 20 20 M 20 20 L 40 40 M 800 340 L 780 360 M 0 20 L 20 40 M 800 440 L 780 420 M 780 380 L 800 360 M 780 440 L 760 420 M 760 420 L 780 440 M 780 200 L 760 220 M 780 200 L 760 200 M 760 220 L 780 200 M 780 220 L 760 240 M 760 240 L 780 220 M 780 240 L 760 260 M 760 260 L 780 240 M 100 20 L 80 1.77636e-013 M 80 1.77636e-013 L 80 20 M 760 280 L 780 260 M 780 280 L 760 300 M 780 280 L 760 280 M 760 300 L 780 280 M 60 20 L 40 8.88178e-014 M 40 8.88178e-014 L 40 20 M 760 320 L 780 300 M 40 20 L 20 2.22045e-013 M 20 2.22045e-013 L 20 20 M 780 320 L 760 320 M 760 340 L 780 320 M 20 20 L 0 8.88178e-014 M 0 8.88178e-014 L 0 20 M 780 340 L 760 340 M 760 360 L 780 340 M 780 360 L 760 380 M 780 360 L 760 360 M 760 380 L 780 360 M 780 420 L 760 400 M 760 400 L 780 380 M 380 200 L 360 200 M 360 220 L 380 220 M 380 220 L 360 220 M 360 240 L 380 240 M 380 240 L 360 240 M 360 260 L 380 260 M 380 260 L 360 260 M 380 280 L 380 260 M 360 280 L 380 280 M 380 280 L 360 280 M 360 300 L 380 300 M 380 300 L 360 300 M 380 320 L 380 300 M 360 320 L 380 320 M 380 320 L 360 320 M 380 340 L 380 320 M 360 340 L 380 340 M 380 340 L 360 340 M 360 360 L 380 360 M 380 360 L 360 360 M 380 380 L 380 360 M 360 380 L 380 380 M 380 380 L 360 380 M 360 400 L 380 400 M 380 400 L 380 380 M 400 200 L 380 200 M 380 220 L 400 220 M 400 220 L 380 220 M 380 240 L 400 240 M 400 240 L 380 240 M 380 260 L 400 260 M 380 260 L 380 280 M 400 260 L 380 260 M 380 280 L 400 280 M 400 280 L 380 280 M 380 300 L 400 300 M 380 300 L 380 320 M 400 300 L 380 300 M 380 320 L 400 320 M 380 320 L 380 340 M 400 320 L 380 320 M 380 340 L 400 340 M 400 340 L 380 340 M 380 360 L 400 360 M 380 360 L 380 380 M 400 360 L 380 360 M 380 380 L 400 380 M 400 380 L 380 380 M 380 380 L 380 400 M 380 400 L 400 400 M 420 200 L 400 200 M 400 220 L 420 220 M 420 220 L 400 220 M 400 240 L 420 240 M 420 240 L 400 240 M 400 260 L 420 260 M 420 260 L 400 260 M 400 280 L 420 280 M 420 280 L 400 280 M 400 300 L 420 300 M 420 300 L 400 300 M 400 320 L 420 320 M 420 320 L 400 320 M 400 340 L 420 340 M 420 340 L 400 340 M 400 360 L 420 360 M 420 360 L 400 360 M 400 380 L 420 380 M 420 380 L 400 380 M 400 400 L 420 400 M 440 200 L 420 200 M 420 220 L 440 220 M 440 220 L 420 220 M 420 240 L 440 240 M 440 240 L 420 240 M 420 260 L 440 260 M 440 260 L 420 260 M 420 280 L 440 280 M 440 280 L 420 280 M 420 300 L 440 300 M 440 300 L 420 300 M 420 320 L 440 320 M 440 320 L 420 320 M 420 340 L 440 340 M 440 340 L 420 340 M 420 360 L 440 360 M 440 360 L 420 360 M 420 380 L 440 380 M 440 380 L 420 380 M 420 400 L 440 400 M 460 200 L 440 200 M 440 220 L 460 220 M 460 220 L 440 220 M 440 240 L 460 240 M 460 240 L 440 240 M 440 260 L 460 260 M 460 260 L 440 260 M 440 280 L 460 280 M 460 280 L 440 280 M 440 300 L 460 300 M 460 300 L 440 300 M 440 320 L 460 320 M 460 320 L 440 320 M 440 340 L 460 340 M 460 340 L 440 340 M 440 360 L 460 360 M 460 360 L 440 360 M 440 380 L 460 380 M 460 380 L 440 380 M 440 400 L 460 400 M 480 200 L 460 200 M 460 220 L 480 220 M 480 220 L 460 220 M 460 240 L 480 240 M 480 240 L 460 240 M 460 260 L 480 260 M 480 260 L 460 260 M 460 280 L 480 280 M 480 280 L 460 280 M 460 300 L 480 300 M 480 300 L 460 300 M 460 320 L 480 320 M 480 320 L 460 320 M 460 340 L 480 340 M 480 340 L 460 340 M 460 360 L 480 360 M 480 360 L 460 360 M 460 380 L 480 380 M 480 380 L 460 380 M 460 400 L 480 400 M 500 200 L 480 200 M 480 220 L 500 220 M 500 220 L 480 220 M 480 240 L 500 240 M 500 240 L 480 240 M 480 260 L 500 260 M 500 260 L 480 260 M 480 280 L 500 280 M 500 280 L 480 280 M 500 300 L 500 280 M 480 300 L 500 300 M 500 300 L 480 300 M 480 320 L 500 320 M 500 320 L 480 320 M 480 340 L 500 340 M 500 340 L 480 340 M 480 360 L 500 360 M 500 360 L 480 360 M 480 380 L 500 380 M 500 380 L 480 380 M 480 400 L 500 400 M 520 200 L 500 200 M 500 220 L 520 220 M 520 220 L 500 220 M 500 240 L 520 240 M 520 240 L 500 240 M 500 260 L 520 260 M 520 260 L 500 260 M 500 280 L 520 280 M 500 280 L 500 300 M 520 280 L 500 280 M 500 300 L 520 300 M 520 300 L 500 300 M 500 320 L 520 320 M 520 320 L 500 320 M 500 340 L 520 340 M 520 340 L 500 340 M 500 360 L 520 360 M 520 360 L 500 360 M 500 380 L 520 380 M 520 380 L 500 380 M 500 400 L 520 400 M 540 200 L 520 200 M 520 220 L 540 220 M 540 220 L 520 220 M 540 240 L 540 220 M 520 240 L 540 240 M 540 240 L 520 240 M 520 260 L 540 260 M 540 260 L 520 260 M 520 280 L 540 280 M 540 280 L 520 280 M 520 300 L 540 300 M 540 300 L 520 300 M 520 320 L 540 320 M 540 320 L 520 320 M 520 340 L 540 340 M 540 340 L 520 340 M 540 360 L 540 340 M 520 360 L 540 360 M 540 360 L 520 360 M 520 380 L 540 380 M 540 380 L 520 380 M 520 400 L 540 400 M 560 200 L 540 200 M 540 220 L 560 220 M 560 220 L 540 220 M 540 220 L 540 240 M 540 240 L 560 240 M 560 240 L 540 240 M 560 260 L 560 240 M 540 260 L 560 260 M 560 260 L 540 260 M 540 280 L 560 280 M 560 280 L 540 280 M 540 300 L 560 300 M 560 300 L 540 300 M 540 320 L 560 320 M 560 320 L 540 320 M 540 340 L 560 340 M 560 340 L 540 340 M 540 340 L 540 360 M 540 360 L 560 360 M 560 360 L 540 360 M 540 380 L 560 380 M 560 380 L 540 380 M 540 400 L 560 400" />
<path fill="none" class="c" d=" M 560 220 L 560 200 M 580 200 L 560 200 M 360 200 L 360 220 M 360 240 L 360 220 M 360 260 L 360 240 M 360 280 L 360 260 M 360 300 L 360 280 M 360 320 L 360 300 M 360 340 L 360 320 M 360 360 L 360 340 M 360 380 L 360 360 M 360 400 L 360 380 M 320 400 L 340 400 M 300 400 L 320 400 M 280 400 L 300 400 M 340 400 L 360 400 M 360 200 L 340 200 M 560 220 L 560 240 M 340 200 L 320 200 M 320 200 L 300 200 M 600 200 L 580 200 M 560 260 L 560 280 M 560 280 L 560 300 M 260 400 L 280 400 M 560 300 L 560 320 M 560 320 L 560 340 M 620 200 L 600 200 M 640 200 L 620 200 M 660 200 L 640 200 M 560 340 L 560 360 M 680 200 L 660 200 M 240 400 L 260 400 M 220 400 L 240 400 M 600 400 L 620 400 M 560 360 L 560 380 M 260 200 L 240 200 M 580 400 L 600 400 M 280 200 L 260 200 M 560 400 L 580 400 M 560 380 L 560 400 M 300 200 L 280 200 M 700 200 L 680 200 M 720 200 L 700 200 M 740 200 L 720 200 M 680 400 L 700 400 M 760 320 L 760 300 M 760 300 L 760 280 M 760 280 L 760 260 M 760 260 L 760 240 M 760 240 L 760 220 M 760 200 L 740 200 M 760 220 L 760 200 M 660 400 L 680 400 M 760 340 L 760 320 M 640 400 L 660 400 M 620 400 L 640 400 M 760 360 L 760 340 M 200 400 L 220 400 M 180 400 L 200 400 M 160 400 L 180 400 M 160 380 L 160 400 M 160 440 L 160 460 M 760 380 L 760 360 M 160 360 L 160 380 M 760 400 L 760 380 M 160 340 L 160 360 M 740 400 L 760 400 M 220 200 L 200 200 M 760 420 L 760 400 M 720 400 L 740 400 M 240 200 L 220 200 M 160 320 L 160 340 M 700 400 L 720 400 M 760 440 L 760 420 M 160 300 L 160 320 M 760 460 L 760 440 M 160 280 L 160 300 M 760 480 L 760 460 M 160 260 L 160 280 M 760 500 L 760 480 M 160 240 L 160 260 M 200 200 L 180 200 M 760 520 L 760 500 M 160 220 L 160 240 M 160 200 L 160 220 M 180 200 L 160 200 M 160 180 L 160 200 M 160 160 L 160 180 M 160 140 L 160 160 M 160 120 L 160 140 M 160 100 L 160 120 M 160 80 L 160 100 M 160 60 L 160 80" />
</svg>
