<?xml version="1.0"?>
<svg width="1158" height="1149" version="1.1" xmlns="http://www.w3.org/2000/svg" >
<defs>
<style type="text/css"><![CDATA[
.m {stroke:rgb(255,0,0);stroke-width:1.447500;}
.v {stroke:rgb(0,0,255);stroke-width:1.447500;}
.b {stroke:rgb(0,0,0);stroke-width:2.895000;fill:white}
.n {stroke:rgb(128,128,128);stroke-width:1.447500}
.t {stroke:rgb(0,128,0);stroke-width:1.447500;}
.c {stroke:rgb(128,128,128);stroke-width:1.447500;stroke-dasharray:11.580000, 11.580000;}
]]></style>
</defs>
<path fill="none" style="stroke:black;stroke-width:2.895000;" d=" M 549.791 551.847 L 559.95 659.608 M 830.415 668.085 L 697.425 592.289 M 697.425 592.289 L 850.477 594.847 M 813.907 492.973 L 719.095 440.757 M 613.449 464.306 L 549.791 551.847 M 363.516 622.007 L 439.944 754.635 M 559.95 659.608 L 505.907 565.826 M 551.521 859.431 L 638.847 733.71 M 747.033 737.101 L 685.172 927.293 M 685.172 927.293 L 826.314 868.043 M 611.697 884.356 L 747.033 737.101 M 638.847 733.71 L 611.697 884.356 M 850.477 594.847 L 1008.33 717.661 M 826.314 868.043 L 830.415 668.085 M 827.033 448.827 L 1003.47 354.647 M 1000.57 564.785 L 813.907 492.973 M 719.095 440.757 L 827.033 448.827 M 481.354 460.408 L 338.755 320.175 M 338.755 320.175 L 328.793 472.924 M 708.03 288.084 L 613.449 464.306 M 328.793 472.924 L 363.516 622.007 M 505.907 565.826 L 481.354 460.408 M 439.944 754.635 L 302.79 686.663 M 255.636 832.293 L 352.619 880.356 M 485.559 1048.24 L 627.949 992.059 M 627.949 992.059 L 551.521 859.431 M 431.516 954.458 L 485.559 1048.24 M 1152.93 579.499 L 1000.57 564.785 M 1008.33 717.661 L 1158.42 687.599 M 1158.42 687.599 L 1152.93 579.499 M 936.145 166.319 L 860.678 299.496 M 1003.47 354.647 L 1037.12 205.317 M 860.678 299.496 L 849.612 146.823 M 151.825 661.344 L 0 680.852 M 0 680.852 L 148.888 814.39 M 741.675 138.754 L 640.704 99.7563 M 640.704 99.7563 L 708.03 288.084 M 302.79 686.663 L 151.825 661.344 M 148.888 814.39 L 255.636 832.293 M 352.619 880.356 L 244.433 876.966 M 441.675 1062.22 L 431.516 954.458 M 294.04 1021.78 L 378.017 1149.76 M 378.017 1149.76 L 441.675 1062.22 M 1038.22 52.2474 L 936.145 166.319 M 1037.12 205.317 L 1038.22 52.2474 M 806.319 0 L 741.675 138.754 M 849.612 146.823 L 806.319 0 M 161.05 945.981 L 144.163 1052.89 M 144.163 1052.89 L 294.04 1021.78 M 244.433 876.966 L 161.05 945.981" />
<path fill="none" class="c" d=" M 697.425 592.289 L 559.95 659.608 M 697.425 592.289 L 549.791 551.847 M 638.847 733.71 L 697.425 592.289 M 559.95 659.608 L 638.847 733.71 M 747.033 737.101 L 697.425 592.289 M 638.847 733.71 L 747.033 737.101 M 747.033 737.101 L 830.415 668.085 M 697.425 592.289 L 613.449 464.306 M 559.95 659.608 L 439.944 754.635 M 747.033 737.101 L 826.314 868.043 M 697.425 592.289 L 719.095 440.757 M 719.095 440.757 L 613.449 464.306 M 505.907 565.826 L 363.516 622.007 M 439.944 754.635 L 551.521 859.431 M 719.095 440.757 L 708.03 288.084 M 481.354 460.408 L 328.793 472.924 M 431.516 954.458 L 551.521 859.431 M 439.944 754.635 L 352.619 880.356 M 352.619 880.356 L 431.516 954.458 M 352.619 880.356 L 294.04 1021.78 M 294.04 1021.78 L 431.516 954.458 M 294.04 1021.78 L 441.675 1062.22 M 697.425 592.289 L 813.907 492.973 M 860.678 299.496 L 708.03 288.084 M 827.033 448.827 L 860.678 299.496 M 302.79 686.663 L 255.636 832.293 M 741.675 138.754 L 708.03 288.084 M 849.612 146.823 L 741.675 138.754 M 151.825 661.344 L 148.888 814.39 M 244.433 876.966 L 294.04 1021.78 M 161.05 945.981 L 294.04 1021.78 M 850.477 594.847 L 813.907 492.973 M 1003.47 354.647 L 860.678 299.496 M 850.477 594.847 L 1000.57 564.785 M 1037.12 205.317 L 936.145 166.319 M 1008.33 717.661 L 1000.57 564.785" />
<line x1="602.388618" y1="601.247982" x2="632.073922" y2="661.868951" class="t" />
<line x1="620.221644" y1="536.147291" x2="602.388618" y2="601.247982" class="t" />
<line x1="694.434889" y1="687.699682" x2="632.073922" y2="661.868951" class="t" />
<line x1="546.246939" y1="715.984608" x2="632.073922" y2="661.868951" class="t" />
<line x1="758.291051" y1="665.824816" x2="694.434889" y2="687.699682" class="t" />
<line x1="665.858834" y1="785.055646" x2="694.434889" y2="687.699682" class="t" />
<line x1="801.253910" y1="757.743085" x2="758.291051" y2="665.824816" class="t" />
<line x1="676.656492" y1="499.117207" x2="620.221644" y2="536.147291" class="t" />
<line x1="454.470132" y1="678.750429" x2="546.246939" y2="715.984608" class="t" />
<line x1="543.437393" y1="782.592057" x2="546.246939" y2="715.984608" class="t" />
<line x1="752.839684" y1="844.145799" x2="801.253910" y2="757.743085" class="t" />
<line x1="743.475707" y1="508.672790" x2="676.656492" y2="499.117207" class="t" />
<line x1="680.191492" y1="397.715636" x2="676.656492" y2="499.117207" class="t" />
<line x1="476.457711" y1="615.814004" x2="454.470132" y2="678.750429" class="t" />
<line x1="399.405552" y1="553.585932" x2="476.457711" y2="615.814004" class="t" />
<line x1="474.327090" y1="856.174708" x2="543.437393" y2="782.592057" class="t" />
<line x1="762.601046" y1="342.779005" x2="680.191492" y2="397.715636" class="t" />
<line x1="438.684910" y1="499.719636" x2="399.405552" y2="553.585932" class="t" />
<line x1="382.967452" y1="417.835992" x2="438.684910" y2="499.719636" class="t" />
<line x1="408.026319" y1="863.149923" x2="474.327090" y2="856.174708" class="t" />
<line x1="489.531862" y1="954.042900" x2="474.327090" y2="856.174708" class="t" />
<line x1="365.117847" y1="773.884985" x2="408.026319" y2="863.149923" class="t" />
<line x1="359.391656" y1="952.197355" x2="408.026319" y2="863.149923" class="t" />
<line x1="555.009758" y1="966.576548" x2="489.531862" y2="954.042900" class="t" />
<line x1="297.030678" y1="926.366607" x2="359.391656" y2="952.197355" class="t" />
<line x1="389.076942" y1="1012.818313" x2="359.391656" y2="952.197355" class="t" />
<line x1="371.243901" y1="1077.919018" x2="389.076942" y2="1012.818313" class="t" />
<line x1="787.269701" y1="560.036253" x2="743.475707" y2="508.672790" class="t" />
<line x1="802.268717" y1="396.359988" x2="762.601046" y2="342.779005" class="t" />
<line x1="770.127457" y1="242.111266" x2="762.601046" y2="342.779005" class="t" />
<line x1="897.060540" y1="367.656740" x2="802.268717" y2="396.359988" class="t" />
<line x1="303.681889" y1="799.770699" x2="365.117847" y2="773.884985" class="t" />
<line x1="236.750689" y1="726.766709" x2="303.681889" y2="799.770699" class="t" />
<line x1="817.321540" y1="195.024491" x2="770.127457" y2="242.111266" class="t" />
<line x1="696.803083" y1="175.531206" x2="770.127457" y2="242.111266" class="t" />
<line x1="799.202034" y1="95.192337" x2="817.321540" y2="195.024491" class="t" />
<line x1="185.449927" y1="769.342261" x2="236.750689" y2="726.766709" class="t" />
<line x1="100.237786" y1="718.861996" x2="185.449927" y2="769.342261" class="t" />
<line x1="233.174529" y1="948.241457" x2="297.030678" y2="926.366607" class="t" />
<line x1="199.751268" y1="1006.884485" x2="233.174529" y2="948.241457" class="t" />
<line x1="888.317830" y1="550.868351" x2="787.269701" y2="560.036253" class="t" />
<line x1="933.431178" y1="273.487631" x2="897.060540" y2="367.656740" class="t" />
<line x1="953.124758" y1="625.764480" x2="888.317830" y2="550.868351" class="t" />
<line x1="992.243697" y1="242.094402" x2="933.431178" y2="273.487631" class="t" />
<line x1="1003.826365" y1="141.294518" x2="992.243697" y2="242.094402" class="t" />
<line x1="1053.943736" y1="620.648412" x2="953.124758" y2="625.764480" class="t" />
<line x1="1106.560450" y1="661.586503" x2="1053.943736" y2="620.648412" class="t" />
</svg>
