<?xml version="1.0"?>
<svg width="982" height="1172" version="1.1" xmlns="http://www.w3.org/2000/svg" >
<defs>
<style type="text/css"><![CDATA[
.m {stroke:rgb(255,0,0);stroke-width:1.465000;}
.v {stroke:rgb(0,0,255);stroke-width:1.465000;}
.b {stroke:rgb(0,0,0);stroke-width:2.930000;fill:white}
.n {stroke:rgb(128,128,128);stroke-width:1.465000}
.t {stroke:rgb(0,128,0);stroke-width:1.465000;}
.c {stroke:rgb(128,128,128);stroke-width:1.465000;stroke-dasharray:9.820000, 9.820000;}
]]></style>
</defs>
<line x1="617.115630" y1="370.443466" x2="476.704044" y2="309.484041" class="m" style="stroke-width:0.703527;" />
<line x1="476.704044" y1="309.484041" x2="471.486115" y2="417.597433" class="m" style="stroke-width:1.316457;" />
<line x1="471.486115" y1="417.597433" x2="617.115630" y2="370.443466" class="m" style="stroke-width:0.703526;" />
<line x1="623.537070" y1="435.259804" x2="471.486115" y2="417.597433" class="m" style="stroke-width:0.703526;" />
<line x1="471.486115" y1="417.597433" x2="497.816269" y2="522.585315" class="m" style="stroke-width:1.316456;" />
<line x1="497.816269" y1="522.585315" x2="623.537070" y2="435.259804" class="m" style="stroke-width:0.703527;" />
<line x1="743.869474" y1="582.056894" x2="624.772671" y2="485.893406" class="m" style="stroke-width:0.703527;" />
<line x1="624.772671" y1="485.893406" x2="590.940744" y2="588.709422" class="m" style="stroke-width:1.316457;" />
<line x1="590.940744" y1="588.709422" x2="743.869474" y2="582.056894" class="m" style="stroke-width:0.703526;" />
<line x1="590.940744" y1="588.709422" x2="633.573142" y2="688.199175" class="m" style="stroke-width:1.316456;" />
<line x1="633.573142" y1="688.199175" x2="743.869474" y2="582.056894" class="m" style="stroke-width:0.703527;" />
<line x1="633.573142" y1="688.199175" x2="731.353763" y2="734.617732" class="m" style="stroke-width:1.316457;" />
<line x1="731.353763" y1="734.617732" x2="743.869474" y2="582.056894" class="m" style="stroke-width:0.703526;" />
<line x1="806.165850" y1="601.071470" x2="731.353763" y2="734.617732" class="m" style="stroke-width:0.703526;" />
<line x1="731.353763" y1="734.617732" x2="838.389358" y2="750.714747" class="m" style="stroke-width:1.316456;" />
<line x1="838.389358" y1="750.714747" x2="806.165850" y2="601.071470" class="m" style="stroke-width:0.703527;" />
<line x1="617.115630" y1="370.443466" x2="660.045515" y2="223.513245" class="m" style="stroke-width:0.703527;" />
<line x1="660.045515" y1="223.513245" x2="552.127841" y2="231.850393" class="m" style="stroke-width:1.316457;" />
<line x1="552.127841" y1="231.850393" x2="617.115630" y2="370.443466" class="m" style="stroke-width:0.703526;" />
<line x1="552.127841" y1="231.850393" x2="476.704044" y2="309.484041" class="m" style="stroke-width:1.316456;" />
<line x1="326.537718" y1="279.793317" x2="319.158410" y2="432.688740" class="m" style="stroke-width:1.247446;" />
<line x1="319.158410" y1="432.688740" x2="471.486115" y2="417.597433" class="m" style="stroke-width:1.247445;" />
<line x1="471.486115" y1="417.597433" x2="326.537718" y2="279.793317" class="n" style="stroke-width:0.293000;" />
<line x1="476.704044" y1="309.484041" x2="326.537718" y2="279.793317" class="m" style="stroke-width:1.247445;" />
<line x1="497.816269" y1="522.585315" x2="319.158410" y2="432.688740" class="n" style="stroke-width:0.293000;" />
<line x1="319.158410" y1="432.688740" x2="356.394911" y2="581.164017" class="m" style="stroke-width:1.247444;" />
<line x1="356.394911" y1="581.164017" x2="497.816269" y2="522.585315" class="m" style="stroke-width:1.247445;" />
<line x1="553.435745" y1="615.441151" x2="356.394911" y2="581.164017" class="n" style="stroke-width:0.293000;" />
<line x1="356.394911" y1="581.164017" x2="435.052694" y2="712.482020" class="m" style="stroke-width:1.247446;" />
<line x1="435.052694" y1="712.482020" x2="553.435745" y2="615.441151" class="m" style="stroke-width:1.247445;" />
<line x1="553.435745" y1="615.441151" x2="497.816269" y2="522.585315" class="m" style="stroke-width:1.316457;" />
<line x1="633.573142" y1="688.199175" x2="435.052694" y2="712.482020" class="n" style="stroke-width:0.293000;" />
<line x1="435.052694" y1="712.482020" x2="548.384114" y2="815.377374" class="m" style="stroke-width:1.247444;" />
<line x1="548.384114" y1="815.377374" x2="633.573142" y2="688.199175" class="m" style="stroke-width:1.247445;" />
<line x1="633.573142" y1="688.199175" x2="553.435745" y2="615.441151" class="m" style="stroke-width:1.316456;" />
<line x1="731.353763" y1="734.617732" x2="548.384114" y2="815.377374" class="n" style="stroke-width:0.293000;" />
<line x1="548.384114" y1="815.377374" x2="686.666778" y2="881.023164" class="m" style="stroke-width:1.247446;" />
<line x1="686.666778" y1="881.023164" x2="731.353763" y2="734.617732" class="m" style="stroke-width:1.247445;" />
<line x1="885.187249" y1="856.740516" x2="686.666778" y2="881.023164" class="n" style="stroke-width:0.293000;" />
<line x1="686.666778" y1="881.023164" x2="799.998096" y2="983.918631" class="m" style="stroke-width:1.247444;" />
<line x1="799.998096" y1="983.918631" x2="885.187249" y2="856.740516" class="m" style="stroke-width:1.247445;" />
<line x1="686.666778" y1="881.023164" x2="838.389358" y2="750.714747" class="n" style="stroke-width:0.293000;" />
<line x1="513.022439" y1="207.519799" x2="468.838173" y2="12.461441" class="n" style="stroke-width:0.293000;" />
<line x1="468.838173" y1="12.461441" x2="377.899645" y2="135.594089" class="m" style="stroke-width:1.247446;" />
<line x1="377.899645" y1="135.594089" x2="513.022439" y2="207.519799" class="m" style="stroke-width:1.247445;" />
<line x1="799.998096" y1="983.918631" x2="982.967825" y2="903.159169" class="n" style="stroke-width:0.293000;" />
<line x1="982.967825" y1="903.159169" x2="885.187249" y2="856.740516" class="m" style="stroke-width:1.316457;" />
<line x1="377.899645" y1="135.594089" x2="326.537718" y2="279.793317" class="m" style="stroke-width:1.247444;" />
<line x1="476.704044" y1="309.484041" x2="377.899645" y2="135.594089" class="n" style="stroke-width:0.293000;" />
<line x1="476.704044" y1="309.484041" x2="513.022439" y2="207.519799" class="m" style="stroke-width:1.316456;" />
<line x1="326.537718" y1="279.793317" x2="168.992059" y2="402.997933" class="n" style="stroke-width:0.293000;" />
<line x1="168.992059" y1="402.997933" x2="319.158410" y2="432.688740" class="m" style="stroke-width:1.247445;" />
<line x1="174.210046" y1="294.884544" x2="168.992059" y2="402.997933" class="m" style="stroke-width:1.316457;" />
<line x1="326.537718" y1="279.793317" x2="174.210046" y2="294.884544" class="m" style="stroke-width:1.247445;" />
<line x1="204.067254" y1="596.255395" x2="356.394911" y2="581.164017" class="m" style="stroke-width:1.247445;" />
<line x1="319.158410" y1="432.688740" x2="204.067254" y2="596.255395" class="n" style="stroke-width:0.293000;" />
<line x1="168.992059" y1="402.997933" x2="132.673618" y2="504.962159" class="m" style="stroke-width:1.316456;" />
<line x1="132.673618" y1="504.962159" x2="319.158410" y2="432.688740" class="n" style="stroke-width:0.293000;" />
<line x1="396.661481" y1="945.685681" x2="397.012941" y2="792.612648" class="m" style="stroke-width:1.247445;" />
<line x1="397.012941" y1="792.612648" x2="245.538828" y2="814.682032" class="m" style="stroke-width:1.247446;" />
<line x1="245.538828" y1="814.682032" x2="396.661481" y2="945.685681" class="n" style="stroke-width:0.293000;" />
<line x1="204.067254" y1="596.255395" x2="198.849374" y2="704.368790" class="m" style="stroke-width:1.316457;" />
<line x1="198.849374" y1="704.368790" x2="356.394911" y2="581.164017" class="n" style="stroke-width:0.293000;" />
<line x1="503.697068" y1="961.782745" x2="548.384114" y2="815.377374" class="m" style="stroke-width:1.247445;" />
<line x1="548.384114" y1="815.377374" x2="397.012941" y2="792.612648" class="m" style="stroke-width:1.247444;" />
<line x1="397.012941" y1="792.612648" x2="503.697068" y2="961.782745" class="n" style="stroke-width:0.293000;" />
<line x1="396.661481" y1="945.685681" x2="503.697068" y2="961.782745" class="m" style="stroke-width:1.316456;" />
<line x1="601.477664" y1="1008.201354" x2="686.666778" y2="881.023164" class="m" style="stroke-width:1.247445;" />
<line x1="548.384114" y1="815.377374" x2="601.477664" y2="1008.201354" class="n" style="stroke-width:0.293000;" />
<line x1="503.697068" y1="961.782745" x2="601.477664" y2="1008.201354" class="m" style="stroke-width:1.316457;" />
<line x1="681.615028" y1="1080.959415" x2="799.998096" y2="983.918631" class="m" style="stroke-width:1.247445;" />
<line x1="686.666778" y1="881.023164" x2="681.615028" y2="1080.959415" class="n" style="stroke-width:0.293000;" />
<line x1="601.477664" y1="1008.201354" x2="681.615028" y2="1080.959415" class="m" style="stroke-width:1.316456;" />
<line x1="147.879940" y1="189.896650" x2="289.301364" y2="131.318003" class="m" style="stroke-width:1.247445;" />
<line x1="289.301364" y1="131.318003" x2="210.643581" y2="0.000000" class="m" style="stroke-width:1.247446;" />
<line x1="210.643581" y1="0.000000" x2="147.879940" y2="189.896650" class="n" style="stroke-width:0.293000;" />
<line x1="681.615028" y1="1080.959415" x2="737.234454" y2="1173.815281" class="m" style="stroke-width:1.316457;" />
<line x1="737.234454" y1="1173.815281" x2="799.998096" y2="983.918631" class="n" style="stroke-width:0.293000;" />
<line x1="326.537718" y1="279.793317" x2="289.301364" y2="131.318003" class="m" style="stroke-width:1.247444;" />
<line x1="289.301364" y1="131.318003" x2="174.210046" y2="294.884544" class="n" style="stroke-width:0.293000;" />
<line x1="147.879940" y1="189.896650" x2="174.210046" y2="294.884544" class="m" style="stroke-width:1.316456;" />
<line x1="174.210046" y1="294.884544" x2="28.580500" y2="342.038548" class="m" style="stroke-width:0.703527;" />
<line x1="28.580500" y1="342.038548" x2="168.992059" y2="402.997933" class="m" style="stroke-width:0.703526;" />
<line x1="15.946886" y1="405.935218" x2="132.673618" y2="504.962159" class="m" style="stroke-width:0.703527;" />
<line x1="168.992059" y1="402.997933" x2="15.946886" y2="405.935218" class="m" style="stroke-width:0.703526;" />
<line x1="491.181379" y1="1114.343626" x2="399.658620" y2="991.644657" class="m" style="stroke-width:0.703526;" />
<line x1="399.658620" y1="991.644657" x2="341.381528" y2="1082.856021" class="m" style="stroke-width:1.316457;" />
<line x1="341.381528" y1="1082.856021" x2="491.181379" y2="1114.343626" class="m" style="stroke-width:0.703527;" />
<line x1="491.181379" y1="1114.343626" x2="503.697068" y2="961.782745" class="m" style="stroke-width:0.703527;" />
<line x1="503.697068" y1="961.782745" x2="399.658620" y2="991.644657" class="m" style="stroke-width:1.316456;" />
<line x1="491.181379" y1="1114.343626" x2="601.477664" y2="1008.201354" class="m" style="stroke-width:0.703526;" />
<line x1="545.296451" y1="1150.592097" x2="681.615028" y2="1080.959415" class="m" style="stroke-width:0.703527;" />
<line x1="601.477664" y1="1008.201354" x2="545.296451" y2="1150.592097" class="m" style="stroke-width:0.703526;" />
<line x1="28.580500" y1="342.038548" x2="106.613184" y2="210.348182" class="m" style="stroke-width:0.703526;" />
<line x1="106.613184" y1="210.348182" x2="0.000000" y2="191.656968" class="m" style="stroke-width:1.316457;" />
<line x1="0.000000" y1="191.656968" x2="28.580500" y2="342.038548" class="m" style="stroke-width:0.703527;" />
<line x1="174.210046" y1="294.884544" x2="106.613184" y2="210.348182" class="m" style="stroke-width:1.316456;" />
<text x="551.413357" y="426.881851" transform="rotate(-173.374158 551.413357 426.881851)" fill="darkgreen" font-weight="bold" font-size="19.640000">2</text>
<text x="540.563888" y="395.230463" transform="rotate(-17.941643 540.563888 395.230463)" fill="darkgreen" font-weight="bold" font-size="19.640000">2</text>
<text x="687.377203" y="536.442791" transform="rotate(-141.081208 687.377203 536.442791)" fill="darkgreen" font-weight="bold" font-size="19.640000">4</text>
<text x="557.450561" y="481.163410" transform="rotate(-34.783794 557.450561 481.163410)" fill="darkgreen" font-weight="bold" font-size="19.640000">4</text>
<text x="609.084468" y="533.570222" transform="rotate(108.213944 609.084468 533.570222)" fill="darkgreen" font-weight="bold" font-size="19.640000">5</text>
<text x="527.644437" y="572.382970" transform="rotate(-120.921071 527.644437 572.382970)" fill="darkgreen" font-weight="bold" font-size="19.640000">5</text>
<text x="610.709814" y="634.843817" transform="rotate(66.804358 610.709814 634.843817)" fill="darkgreen" font-weight="bold" font-size="19.640000">7</text>
<text x="596.412628" y="654.460551" transform="rotate(-137.763182 596.412628 654.460551)" fill="darkgreen" font-weight="bold" font-size="19.640000">7</text>
<text x="772.599298" y="660.990767" transform="rotate(119.257370 772.599298 660.990767)" fill="darkgreen" font-weight="bold" font-size="19.640000">10</text>
<text x="736.969290" y="666.167010" transform="rotate(-85.310095 736.969290 666.167010)" fill="darkgreen" font-weight="bold" font-size="19.640000">10</text>
<text x="636.377334" y="304.519077" transform="rotate(-73.712756 636.377334 304.519077)" fill="darkgreen" font-weight="bold" font-size="19.640000">12</text>
<text x="823.931372" y="683.573069" transform="rotate(-102.152246 823.931372 683.573069)" fill="darkgreen" font-weight="bold" font-size="19.640000">12</text>
<text x="613.919339" y="227.076709" transform="rotate(175.582396 613.919339 227.076709)" fill="darkgreen" font-weight="bold" font-size="19.640000">13</text>
<text x="941.174448" y="883.318907" transform="rotate(-154.605241 941.174448 883.318907)" fill="darkgreen" font-weight="bold" font-size="19.640000">13</text>
<text x="492.227254" y="265.902481" transform="rotate(-70.394730 492.227254 265.902481)" fill="darkgreen" font-weight="bold" font-size="19.640000">15</text>
<text x="519.890199" y="265.032570" transform="rotate(134.172811 519.890199 265.032570)" fill="darkgreen" font-weight="bold" font-size="19.640000">15</text>
<text x="391.686944" y="640.083544" transform="rotate(59.078934 391.686944 640.083544)" fill="darkgreen" font-weight="bold" font-size="19.640000">25</text>
<text x="329.049806" y="802.514700" transform="rotate(171.710472 329.049806 802.514700)" fill="darkgreen" font-weight="bold" font-size="19.640000">25</text>
<text x="485.902033" y="758.648924" transform="rotate(42.236793 485.902033 758.648924)" fill="darkgreen" font-weight="bold" font-size="19.640000">28</text>
<text x="480.467166" y="805.163338" transform="rotate(-171.447367 480.467166 805.163338)" fill="darkgreen" font-weight="bold" font-size="19.640000">28</text>
<text x="793.724895" y="867.928018" transform="rotate(173.026321 793.724895 867.928018)" fill="darkgreen" font-weight="bold" font-size="19.640000">33</text>
<text x="756.568407" y="820.987469" transform="rotate(-40.657952 756.568407 820.987469)" fill="darkgreen" font-weight="bold" font-size="19.640000">33</text>
<text x="492.665863" y="117.652511" transform="rotate(-102.763145 492.665863 117.652511)" fill="darkgreen" font-weight="bold" font-size="19.640000">36</text>
<text x="884.295911" y="946.711131" transform="rotate(-23.815777 884.295911 946.711131)" fill="darkgreen" font-weight="bold" font-size="19.640000">36</text>
<text x="428.036036" y="67.708378" transform="rotate(126.447387 428.036036 67.708378)" fill="darkgreen" font-weight="bold" font-size="19.640000">37</text>
<text x="254.009330" y="72.398476" transform="rotate(-120.921056 254.009330 72.398476)" fill="darkgreen" font-weight="bold" font-size="19.640000">37</text>
<text x="309.830577" y="213.175678" transform="rotate(-104.078914 309.830577 213.175678)" fill="darkgreen" font-weight="bold" font-size="19.640000">39</text>
<text x="354.854667" y="200.293141" transform="rotate(109.605245 354.854667 200.293141)" fill="darkgreen" font-weight="bold" font-size="19.640000">39</text>
<text x="266.133611" y="508.047171" transform="rotate(125.131538 266.133611 508.047171)" fill="darkgreen" font-weight="bold" font-size="19.640000">44</text>
<text x="218.590894" y="471.664349" transform="rotate(-21.184170 218.590894 471.664349)" fill="darkgreen" font-weight="bold" font-size="19.640000">44</text>
<text x="315.164057" y="875.038034" transform="rotate(40.921024 315.164057 875.038034)" fill="darkgreen" font-weight="bold" font-size="19.640000">47</text>
<text x="271.433754" y="647.605886" transform="rotate(-38.026345 271.433754 647.605886)" fill="darkgreen" font-weight="bold" font-size="19.640000">47</text>
<text x="201.837027" y="642.465226" transform="rotate(92.763119 201.837027 642.465226)" fill="darkgreen" font-weight="bold" font-size="19.640000">49</text>
<text x="374.749823" y="1030.630222" transform="rotate(122.575462 374.749823 1030.630222)" fill="darkgreen" font-weight="bold" font-size="19.640000">49</text>
<text x="442.410635" y="952.565889" transform="rotate(8.552608 442.410635 952.565889)" fill="darkgreen" font-weight="bold" font-size="19.640000">52</text>
<text x="459.228951" y="974.546325" transform="rotate(163.985048 459.228951 974.546325)" fill="darkgreen" font-weight="bold" font-size="19.640000">52</text>
<text x="181.727116" y="87.489186" transform="rotate(108.289476 181.727116 87.489186)" fill="darkgreen" font-weight="bold" font-size="19.640000">59</text>
<text x="766.150920" y="1086.326095" transform="rotate(-71.710514 766.150920 1086.326095)" fill="darkgreen" font-weight="bold" font-size="19.640000">59</text>
<text x="705.387885" y="1120.647872" transform="rotate(59.078950 705.387885 1120.647872)" fill="darkgreen" font-weight="bold" font-size="19.640000">61</text>
<text x="61.044573" y="202.359182" transform="rotate(-170.056066 61.044573 202.359182)" fill="darkgreen" font-weight="bold" font-size="19.640000">61</text>
<text x="145.317793" y="258.752009" transform="rotate(-128.646480 145.317793 258.752009)" fill="darkgreen" font-weight="bold" font-size="19.640000">63</text>
<text x="159.133955" y="234.770579" transform="rotate(75.921060 159.133955 234.770579)" fill="darkgreen" font-weight="bold" font-size="19.640000">63</text>
<text x="100.324026" y="404.315829" transform="rotate(178.900489 100.324026 404.315829)" fill="darkgreen" font-weight="bold" font-size="19.640000">64</text>
<text x="91.580106" y="369.389696" transform="rotate(23.467973 91.580106 369.389696)" fill="darkgreen" font-weight="bold" font-size="19.640000">64</text>
<text x="408.593458" y="1096.983823" transform="rotate(11.870635 408.593458 1096.983823)" fill="darkgreen" font-weight="bold" font-size="19.640000">66</text>
<text x="68.319628" y="450.366449" transform="rotate(40.310124 68.319628 450.366449)" fill="darkgreen" font-weight="bold" font-size="19.640000">66</text>
<text x="576.270379" y="1072.088977" transform="rotate(111.532037 576.270379 1072.088977)" fill="darkgreen" font-weight="bold" font-size="19.640000">69</text>
<text x="540.668918" y="1066.719903" transform="rotate(-43.900479 540.668918 1066.719903)" fill="darkgreen" font-weight="bold" font-size="19.640000">69</text>
<text x="12.823448" y="259.129907" transform="rotate(79.239087 12.823448 259.129907)" fill="darkgreen" font-weight="bold" font-size="19.640000">70</text>
<text x="606.459626" y="1119.349430" transform="rotate(-27.058328 606.459626 1119.349430)" fill="darkgreen" font-weight="bold" font-size="19.640000">70</text>
</svg>
