<?xml version="1.0"?>
<svg width="982" height="1172" version="1.1" xmlns="http://www.w3.org/2000/svg" >
<defs>
<style type="text/css"><![CDATA[
.m {stroke:rgb(255,0,0);stroke-width:1.465000;}
.v {stroke:rgb(0,0,255);stroke-width:1.465000;}
.b {stroke:rgb(0,0,0);stroke-width:2.930000;fill:white}
.n {stroke:rgb(128,128,128);stroke-width:1.465000}
.t {stroke:rgb(0,128,0);stroke-width:1.465000;}
.c {stroke:rgb(128,128,128);stroke-width:1.465000;stroke-dasharray:9.820000, 9.820000;}
]]></style>
</defs>
<path fill="none" style="stroke:black;stroke-width:2.930000;" d=" M 471.486 417.597 L 617.116 370.443 M 623.537 435.26 L 471.486 417.597 M 497.816 522.585 L 623.537 435.26 M 743.869 582.057 L 624.773 485.893 M 624.773 485.893 L 590.941 588.709 M 590.941 588.709 L 633.573 688.199 M 731.354 734.618 L 743.869 582.057 M 806.166 601.071 L 731.354 734.618 M 838.389 750.715 L 806.166 601.071 M 617.116 370.443 L 660.046 223.513 M 660.046 223.513 L 552.128 231.85 M 552.128 231.85 L 476.704 309.484 M 356.395 581.164 L 435.053 712.482 M 553.436 615.441 L 497.816 522.585 M 435.053 712.482 L 548.384 815.377 M 633.573 688.199 L 553.436 615.441 M 885.187 856.741 L 686.667 881.023 M 686.667 881.023 L 838.389 750.715 M 513.022 207.52 L 468.838 12.4614 M 468.838 12.4614 L 377.9 135.594 M 799.998 983.919 L 982.968 903.159 M 982.968 903.159 L 885.187 856.741 M 377.9 135.594 L 326.538 279.793 M 476.704 309.484 L 513.022 207.52 M 319.158 432.689 L 204.067 596.255 M 132.674 504.962 L 319.158 432.689 M 397.013 792.613 L 245.539 814.682 M 245.539 814.682 L 396.661 945.686 M 204.067 596.255 L 198.849 704.369 M 198.849 704.369 L 356.395 581.164 M 548.384 815.377 L 397.013 792.613 M 396.661 945.686 L 503.697 961.783 M 289.301 131.318 L 210.644 0 M 210.644 0 L 147.88 189.897 M 681.615 1080.96 L 737.234 1173.82 M 737.234 1173.82 L 799.998 983.919 M 326.538 279.793 L 289.301 131.318 M 147.88 189.897 L 174.21 294.885 M 28.5805 342.039 L 168.992 402.998 M 15.9469 405.935 L 132.674 504.962 M 168.992 402.998 L 15.9469 405.935 M 399.659 991.645 L 341.382 1082.86 M 341.382 1082.86 L 491.181 1114.34 M 503.697 961.783 L 399.659 991.645 M 491.181 1114.34 L 601.478 1008.2 M 545.296 1150.59 L 681.615 1080.96 M 601.478 1008.2 L 545.296 1150.59 M 106.613 210.348 L 0 191.657 M 0 191.657 L 28.5805 342.039 M 174.21 294.885 L 106.613 210.348" />
<path fill="none" class="c" d=" M 435.053 712.482 L 553.436 615.441 M 497.816 522.585 L 356.395 581.164 M 319.158 432.689 L 356.395 581.164 M 548.384 815.377 L 633.573 688.199 M 731.354 734.618 L 633.573 688.199 M 204.067 596.255 L 356.395 581.164 M 743.869 582.057 L 633.573 688.199 M 471.486 417.597 L 319.158 432.689 M 326.538 279.793 L 319.158 432.689 M 476.704 309.484 L 326.538 279.793 M 497.816 522.585 L 471.486 417.597 M 686.667 881.023 L 731.354 734.618 M 548.384 815.377 L 686.667 881.023 M 838.389 750.715 L 731.354 734.618 M 513.022 207.52 L 377.9 135.594 M 168.992 402.998 L 319.158 432.689 M 326.538 279.793 L 174.21 294.885 M 174.21 294.885 L 168.992 402.998 M 168.992 402.998 L 132.674 504.962 M 601.478 1008.2 L 686.667 881.023 M 548.384 815.377 L 503.697 961.783 M 503.697 961.783 L 601.478 1008.2 M 601.478 1008.2 L 681.615 1080.96 M 289.301 131.318 L 147.88 189.897 M 174.21 294.885 L 28.5805 342.039 M 503.697 961.783 L 491.181 1114.34 M 106.613 210.348 L 28.5805 342.039 M 471.486 417.597 L 476.704 309.484 M 743.869 582.057 L 590.941 588.709 M 397.013 792.613 L 396.661 945.686 M 799.998 983.919 L 686.667 881.023 M 681.615 1080.96 L 799.998 983.919 M 399.659 991.645 L 491.181 1114.34 M 617.116 370.443 L 476.704 309.484 M 617.116 370.443 L 552.128 231.85 M 799.998 983.919 L 885.187 856.741" />
<line x1="540.687194" y1="672.040782" x2="448.294450" y2="636.362396" class="t" />
<line x1="469.215642" y1="573.063494" x2="448.294450" y2="636.362396" class="t" />
<line x1="539.003316" y1="738.686190" x2="540.687194" y2="672.040782" class="t" />
<line x1="391.123197" y1="512.146024" x2="469.215642" y2="573.063494" class="t" />
<line x1="293.206858" y1="536.702717" x2="391.123197" y2="512.146024" class="t" />
<line x1="429.486931" y1="457.623830" x2="391.123197" y2="512.146024" class="t" />
<line x1="637.770340" y1="746.064761" x2="539.003316" y2="738.686190" class="t" />
<line x1="702.932126" y1="668.291267" x2="637.770340" y2="746.064761" class="t" />
<line x1="655.468218" y1="810.339424" x2="637.770340" y2="746.064761" class="t" />
<line x1="253.103846" y1="627.262734" x2="293.206858" y2="536.702717" class="t" />
<line x1="656.127787" y1="619.655164" x2="702.932126" y2="668.291267" class="t" />
<line x1="372.394081" y1="376.693163" x2="429.486931" y2="457.623830" class="t" />
<line x1="271.562729" y1="371.826663" x2="372.394081" y2="376.693163" class="t" />
<line x1="424.909292" y1="335.624930" x2="372.394081" y2="376.693163" class="t" />
<line x1="393.713802" y1="241.623816" x2="424.909292" y2="335.624930" class="t" />
<line x1="530.946485" y1="458.480851" x2="429.486931" y2="457.623830" class="t" />
<line x1="752.136633" y1="788.785214" x2="655.468218" y2="810.339424" class="t" />
<line x1="612.176185" y1="901.533964" x2="655.468218" y2="810.339424" class="t" />
<line x1="791.969657" y1="695.467983" x2="752.136633" y2="788.785214" class="t" />
<line x1="455.875376" y1="217.532643" x2="393.713802" y2="241.623816" class="t" />
<line x1="453.253419" y1="118.525110" x2="455.875376" y2="217.532643" class="t" />
<line x1="223.246607" y1="325.891931" x2="271.562729" y2="371.826663" class="t" />
<line x1="206.941362" y1="446.882944" x2="271.562729" y2="371.826663" class="t" />
<line x1="263.349709" y1="235.331955" x2="223.246607" y2="325.891931" class="t" />
<line x1="123.927535" y1="346.640342" x2="223.246607" y2="325.891931" class="t" />
<line x1="105.870854" y1="437.965104" x2="206.941362" y2="446.882944" class="t" />
<line x1="551.186282" y1="928.453825" x2="612.176185" y2="901.533964" class="t" />
<line x1="656.586490" y1="990.061311" x2="612.176185" y2="901.533964" class="t" />
<line x1="483.031374" y1="856.590923" x2="551.186282" y2="928.453825" class="t" />
<line x1="532.118704" y1="1028.109242" x2="551.186282" y2="928.453825" class="t" />
<line x1="722.759967" y1="981.967070" x2="656.586490" y2="990.061311" class="t" />
<line x1="609.463048" y1="1079.917622" x2="656.586490" y2="990.061311" class="t" />
<line x1="203.797117" y1="205.366399" x2="263.349709" y2="235.331955" class="t" />
<line x1="215.941628" y1="107.071551" x2="203.797117" y2="205.366399" class="t" />
<line x1="103.134577" y1="282.423758" x2="123.927535" y2="346.640342" class="t" />
<line x1="464.845689" y1="1022.590343" x2="532.118704" y2="1028.109242" class="t" />
<line x1="45.064561" y1="248.014566" x2="103.134577" y2="282.423758" class="t" />
<line x1="521.768596" y1="365.841647" x2="424.909292" y2="335.624930" class="t" />
<line x1="653.194296" y1="552.219907" x2="656.127787" y2="619.655164" class="t" />
<line x1="432.457163" y1="900.027025" x2="483.031374" y2="856.590923" class="t" />
<line x1="346.404416" y1="850.993454" x2="432.457163" y2="900.027025" class="t" />
<line x1="790.617374" y1="907.227437" x2="722.759967" y2="981.967070" class="t" />
<line x1="739.615859" y1="1079.564442" x2="722.759967" y2="981.967070" class="t" />
<line x1="410.740509" y1="1062.948101" x2="464.845689" y2="1022.590343" class="t" />
<line x1="548.649172" y1="303.925967" x2="521.768596" y2="365.841647" class="t" />
<line x1="609.762995" y1="275.269035" x2="548.649172" y2="303.925967" class="t" />
<line x1="889.384390" y1="914.606105" x2="790.617374" y2="907.227437" class="t" />
</svg>
