<?xml version="1.0"?>
<svg width="1158" height="1149" version="1.1" xmlns="http://www.w3.org/2000/svg" >
<defs>
<style type="text/css"><![CDATA[
.m {stroke:rgb(255,0,0);stroke-width:1.447500;}
.v {stroke:rgb(0,0,255);stroke-width:1.447500;}
.b {stroke:rgb(0,0,0);stroke-width:2.895000;fill:white}
.n {stroke:rgb(128,128,128);stroke-width:1.447500}
.t {stroke:rgb(0,128,0);stroke-width:1.447500;}
.c {stroke:rgb(128,128,128);stroke-width:1.447500;stroke-dasharray:11.580000, 11.580000;}
]]></style>
</defs>
<path fill="none" style="stroke:black;stroke-width:2.895000;" d=" M 549.791 551.847 L 559.95 659.608 M 830.415 668.085 L 697.425 592.289 M 697.425 592.289 L 850.477 594.847 M 813.907 492.973 L 719.095 440.757 M 613.449 464.306 L 549.791 551.847 M 363.516 622.007 L 439.944 754.635 M 559.95 659.608 L 505.907 565.826 M 551.521 859.431 L 638.847 733.71 M 747.033 737.101 L 685.172 927.293 M 685.172 927.293 L 826.314 868.043 M 611.697 884.356 L 747.033 737.101 M 638.847 733.71 L 611.697 884.356 M 850.477 594.847 L 1008.33 717.661 M 826.314 868.043 L 830.415 668.085 M 827.033 448.827 L 1003.47 354.647 M 1000.57 564.785 L 813.907 492.973 M 719.095 440.757 L 827.033 448.827 M 481.354 460.408 L 338.755 320.175 M 338.755 320.175 L 328.793 472.924 M 708.03 288.084 L 613.449 464.306 M 328.793 472.924 L 363.516 622.007 M 505.907 565.826 L 481.354 460.408 M 439.944 754.635 L 302.79 686.663 M 255.636 832.293 L 352.619 880.356 M 485.559 1048.24 L 627.949 992.059 M 627.949 992.059 L 551.521 859.431 M 431.516 954.458 L 485.559 1048.24 M 1152.93 579.499 L 1000.57 564.785 M 1008.33 717.661 L 1158.42 687.599 M 1158.42 687.599 L 1152.93 579.499 M 936.145 166.319 L 860.678 299.496 M 1003.47 354.647 L 1037.12 205.317 M 860.678 299.496 L 849.612 146.823 M 151.825 661.344 L 0 680.852 M 0 680.852 L 148.888 814.39 M 741.675 138.754 L 640.704 99.7563 M 640.704 99.7563 L 708.03 288.084 M 302.79 686.663 L 151.825 661.344 M 148.888 814.39 L 255.636 832.293 M 352.619 880.356 L 244.433 876.966 M 441.675 1062.22 L 431.516 954.458 M 294.04 1021.78 L 378.017 1149.76 M 378.017 1149.76 L 441.675 1062.22 M 1038.22 52.2474 L 936.145 166.319 M 1037.12 205.317 L 1038.22 52.2474 M 806.319 0 L 741.675 138.754 M 849.612 146.823 L 806.319 0 M 161.05 945.981 L 144.163 1052.89 M 144.163 1052.89 L 294.04 1021.78 M 244.433 876.966 L 161.05 945.981" />
<path fill="none" class="c" d=" M 697.425 592.289 L 559.95 659.608 M 697.425 592.289 L 549.791 551.847 M 638.847 733.71 L 697.425 592.289 M 559.95 659.608 L 638.847 733.71 M 747.033 737.101 L 697.425 592.289 M 638.847 733.71 L 747.033 737.101 M 747.033 737.101 L 830.415 668.085 M 697.425 592.289 L 613.449 464.306 M 559.95 659.608 L 439.944 754.635 M 747.033 737.101 L 826.314 868.043 M 697.425 592.289 L 719.095 440.757 M 719.095 440.757 L 613.449 464.306 M 505.907 565.826 L 363.516 622.007 M 439.944 754.635 L 551.521 859.431 M 719.095 440.757 L 708.03 288.084 M 481.354 460.408 L 328.793 472.924 M 431.516 954.458 L 551.521 859.431 M 439.944 754.635 L 352.619 880.356 M 352.619 880.356 L 431.516 954.458 M 352.619 880.356 L 294.04 1021.78 M 294.04 1021.78 L 431.516 954.458 M 294.04 1021.78 L 441.675 1062.22 M 697.425 592.289 L 813.907 492.973 M 860.678 299.496 L 708.03 288.084 M 827.033 448.827 L 860.678 299.496 M 302.79 686.663 L 255.636 832.293 M 741.675 138.754 L 708.03 288.084 M 849.612 146.823 L 741.675 138.754 M 151.825 661.344 L 148.888 814.39 M 244.433 876.966 L 294.04 1021.78 M 161.05 945.981 L 294.04 1021.78 M 850.477 594.847 L 813.907 492.973 M 1003.47 354.647 L 860.678 299.496 M 850.477 594.847 L 1000.57 564.785 M 1037.12 205.317 L 936.145 166.319 M 1008.33 717.661 L 1000.57 564.785" />
</svg>
