<?xml version="1.0"?>
<svg width="1298" height="1073" version="1.1" xmlns="http://www.w3.org/2000/svg" >
<defs>
<style type="text/css"><![CDATA[
.m {stroke:rgb(255,0,0);stroke-width:1.622500;}
.v {stroke:rgb(0,0,255);stroke-width:1.622500;}
.b {stroke:rgb(0,0,0);stroke-width:3.245000;fill:white}
.n {stroke:rgb(128,128,128);stroke-width:1.622500}
.t {stroke:rgb(0,128,0);stroke-width:1.622500;}
.c {stroke:rgb(128,128,128);stroke-width:1.622500;stroke-dasharray:12.980000, 12.980000;}
]]></style>
</defs>
<path fill="none" style="stroke:black;stroke-width:3.245000;" d=" M 347.841 658.277 L 407.915 517.484 M 461.013 555.207 L 347.841 658.277 M 444.308 707.366 L 549.128 680.375 M 549.128 680.375 L 609.891 590.801 M 596.214 483.429 L 461.013 555.207 M 407.915 517.484 L 431.19 366.191 M 260.718 475.48 L 269.734 583.343 M 550.861 726.399 L 444.308 707.366 M 546.301 879.405 L 698.325 861.508 M 698.325 861.508 L 658.358 713.744 M 658.358 713.744 L 550.861 726.399 M 743.591 442.059 L 596.214 483.429 M 609.891 590.801 L 762.933 593.905 M 616.033 288.017 L 743.591 442.059 M 769.075 291.121 L 616.033 288.017 M 421.744 213.409 L 325.3 388.619 M 431.19 366.191 L 421.744 213.409 M 691.62 106.729 L 769.075 291.121 M 217.16 280.281 L 260.718 475.48 M 325.3 388.619 L 217.16 280.281 M 73.7097 543.662 L 148.728 677.093 M 269.734 583.343 L 73.7097 543.662 M 709.64 0 L 691.62 106.729 M 837.198 154.042 L 709.64 0 M 138.181 876.814 L 259.187 783.065 M 148.728 677.093 L 60.0744 801.881 M 306.96 977.276 L 395.613 852.487 M 259.187 783.065 L 306.96 977.276 M 1298.01 650.746 L 1180.91 552.166 M 1099.83 623.87 L 1298.01 650.746 M 395.613 852.487 L 497.606 1024.53 M 1122.45 775.263 L 1099.83 623.87 M 991.587 624.018 L 1122.45 775.263 M 762.933 593.905 L 825.44 733.635 M 825.44 733.635 L 910.31 552.535 M 497.606 1024.53 L 594.074 1073.62 M 594.074 1073.62 L 546.301 879.405 M 914.653 338.435 L 962.823 241.505 M 942.115 42.5798 L 837.198 154.042 M 1037.01 162.689 L 942.115 42.5798 M 962.823 241.505 L 1037.01 162.689 M 60.0744 801.881 L 0 942.673 M 0 942.673 L 138.181 876.814 M 1180.91 552.166 L 1045.51 480.757 M 910.31 552.535 L 991.587 624.018 M 1045.51 480.757 L 896.633 445.163 M 896.633 445.163 L 1046.83 415.637 M 998.762 270.307 L 914.653 338.435 M 1106.91 274.844 L 998.762 270.307 M 1046.83 415.637 L 1106.91 274.844" />
<path fill="none" class="c" d=" M 461.013 555.207 L 549.128 680.375 M 609.891 590.801 L 461.013 555.207 M 609.891 590.801 L 596.214 483.429 M 461.013 555.207 L 444.308 707.366 M 347.841 658.277 L 444.308 707.366 M 762.933 593.905 L 743.591 442.059 M 896.633 445.163 L 743.591 442.059 M 762.933 593.905 L 910.31 552.535 M 910.31 552.535 L 896.633 445.163 M 896.633 445.163 L 914.653 338.435 M 910.31 552.535 L 1045.51 480.757 M 1046.83 415.637 L 914.653 338.435 M 1046.83 415.637 L 998.762 270.307 M 347.841 658.277 L 259.187 783.065 M 148.728 677.093 L 259.187 783.065 M 269.734 583.343 L 148.728 677.093 M 395.613 852.487 L 444.308 707.366 M 259.187 783.065 L 395.613 852.487 M 60.0744 801.881 L 138.181 876.814 M 769.075 291.121 L 743.591 442.059 M 914.653 338.435 L 769.075 291.121 M 991.587 624.018 L 1045.51 480.757 M 347.841 658.277 L 269.734 583.343 M 546.301 879.405 L 550.861 726.399 M 395.613 852.487 L 546.301 879.405 M 497.606 1024.53 L 546.301 879.405 M 837.198 154.042 L 769.075 291.121 M 962.823 241.505 L 837.198 154.042 M 991.587 624.018 L 1099.83 623.87 M 1099.83 623.87 L 1045.51 480.757 M 407.915 517.484 L 269.734 583.343 M 407.915 517.484 L 260.718 475.48 M 837.198 154.042 L 691.62 106.729 M 1099.83 623.87 L 1180.91 552.166 M 407.915 517.484 L 325.3 388.619 M 325.3 388.619 L 260.718 475.48 M 431.19 366.191 L 325.3 388.619" />
<line x1="484.816519" y1="647.649256" x2="540.010727" y2="608.794158" class="t" />
<line x1="555.706141" y1="543.145314" x2="540.010727" y2="608.794158" class="t" />
<line x1="656.345979" y1="556.044834" x2="555.706141" y2="543.145314" class="t" />
<line x1="700.912882" y1="506.464210" x2="656.345979" y2="556.044834" class="t" />
<line x1="417.720650" y1="640.283037" x2="484.816519" y2="647.649256" class="t" />
<line x1="350.445405" y1="716.235765" x2="417.720650" y2="640.283037" class="t" />
<line x1="366.369589" y1="780.972664" x2="350.445405" y2="716.235765" class="t" />
<line x1="801.052542" y1="493.709092" x2="700.912882" y2="506.464210" class="t" />
<line x1="856.625278" y1="530.534602" x2="801.052542" y2="493.709092" class="t" />
<line x1="851.626040" y1="408.552251" x2="801.052542" y2="493.709092" class="t" />
<line x1="832.893978" y1="626.691731" x2="856.625278" y2="530.534602" class="t" />
<line x1="950.818053" y1="492.818611" x2="856.625278" y2="530.534602" class="t" />
<line x1="809.106660" y1="357.204922" x2="851.626040" y2="408.552251" class="t" />
<line x1="952.706247" y1="399.745035" x2="851.626040" y2="408.552251" class="t" />
<line x1="982.469137" y1="552.436776" x2="950.818053" y2="492.818611" class="t" />
<line x1="986.749256" y1="341.459614" x2="952.706247" y2="399.745035" class="t" />
<line x1="1050.833714" y1="320.262882" x2="986.749256" y2="341.459614" class="t" />
<line x1="251.918570" y1="706.144717" x2="350.445405" y2="716.235765" class="t" />
<line x1="182.032126" y1="778.990645" x2="251.918570" y2="706.144717" class="t" />
<line x1="255.434003" y1="639.570781" x2="251.918570" y2="706.144717" class="t" />
<line x1="164.057021" y1="601.365867" x2="255.434003" y2="639.570781" class="t" />
<line x1="463.594032" y1="762.084154" x2="366.369589" y2="780.972664" class="t" />
<line x1="320.586894" y1="870.942578" x2="366.369589" y2="780.972664" class="t" />
<line x1="497.591746" y1="819.430493" x2="463.594032" y2="762.084154" class="t" />
<line x1="115.661127" y1="785.262624" x2="182.032126" y2="778.990645" class="t" />
<line x1="66.085242" y1="873.789492" x2="115.661127" y2="785.262624" class="t" />
<line x1="709.566731" y1="340.398884" x2="809.106660" y2="357.204922" class="t" />
<line x1="882.183861" y1="290.353663" x2="809.106660" y2="357.204922" class="t" />
<line x1="856.365402" y1="228.889411" x2="882.183861" y2="290.353663" class="t" />
<line x1="1045.641179" y1="576.215175" x2="982.469137" y2="552.436776" class="t" />
<line x1="341.829805" y1="586.367962" x2="255.434003" y2="639.570781" class="t" />
<line x1="585.173248" y1="773.182824" x2="497.591746" y2="819.430493" class="t" />
<line x1="479.840232" y1="918.806185" x2="497.591746" y2="819.430493" class="t" />
<line x1="634.327951" y1="818.219042" x2="585.173248" y2="773.182824" class="t" />
<line x1="545.993759" y1="992.515595" x2="479.840232" y2="918.806185" class="t" />
<line x1="765.964324" y1="183.964035" x2="856.365402" y2="228.889411" class="t" />
<line x1="945.677250" y1="186.078662" x2="856.365402" y2="228.889411" class="t" />
<line x1="938.774603" y1="119.770297" x2="945.677250" y2="186.078662" class="t" />
<line x1="1071.287277" y1="674.383665" x2="1045.641179" y2="576.215175" class="t" />
<line x1="1108.748125" y1="552.264597" x2="1045.641179" y2="576.215175" class="t" />
<line x1="312.788798" y1="525.435732" x2="341.829805" y2="586.367962" class="t" />
<line x1="331.310935" y1="460.527723" x2="312.788798" y2="525.435732" class="t" />
<line x1="746.152409" y1="86.923557" x2="765.964324" y2="183.964035" class="t" />
<line x1="1192.915076" y1="608.927633" x2="1108.748125" y2="552.264597" class="t" />
<line x1="388.135139" y1="424.097974" x2="331.310935" y2="460.527723" class="t" />
<line x1="267.725939" y1="381.459885" x2="331.310935" y2="460.527723" class="t" />
<line x1="392.744892" y1="322.739572" x2="388.135139" y2="424.097974" class="t" />
</svg>
