<?xml version="1.0"?>
<svg width="1156" height="959" version="1.1" xmlns="http://www.w3.org/2000/svg" >
<defs>
<style type="text/css"><![CDATA[
.m {stroke:rgb(255,0,0);stroke-width:1.445000;}
.v {stroke:rgb(0,0,255);stroke-width:1.445000;}
.b {stroke:rgb(0,0,0);stroke-width:2.890000;fill:white}
.n {stroke:rgb(128,128,128);stroke-width:1.445000}
.t {stroke:rgb(0,128,0);stroke-width:1.445000;}
.c {stroke:rgb(128,128,128);stroke-width:1.445000;stroke-dasharray:11.560000, 11.560000;}
]]></style>
</defs>
<path fill="none" style="stroke:black;stroke-width:2.890000;" d=" M 577.912 401.429 L 703.632 314.103 M 728.558 374.279 L 577.912 401.429 M 633.531 494.284 L 736.664 527.138 M 736.664 527.138 L 835.744 483.561 M 881.231 385.344 L 728.558 374.279 M 703.632 314.103 L 803.764 198.323 M 406.633 158.636 L 399.254 311.532 M 551.582 296.441 L 406.633 158.636 M 477.049 110.847 L 551.582 296.441 M 713.668 567.042 L 633.531 494.284 M 766.762 759.867 L 811.449 613.461 M 811.449 613.461 L 713.668 567.042 M 1028.05 428.637 L 881.231 385.344 M 835.744 483.561 L 963.726 567.538 M 702.15 161.037 L 820.755 0 M 820.755 0 L 668.136 11.7904 M 876.971 63.89 L 702.15 161.037 M 803.764 198.323 L 876.971 63.89 M 583.714 1.0565 L 477.049 110.847 M 601.277 200.284 L 583.714 1.0565 M 668.136 11.7904 L 601.277 200.284 M 399.254 311.532 L 320.596 180.214 M 436.49 460.007 L 373.726 649.904 M 278.945 583.212 L 436.49 460.007 M 515.148 591.325 L 510.096 791.261 M 373.726 649.904 L 400.056 754.892 M 400.056 754.892 L 515.148 591.325 M 628.479 694.221 L 681.573 887.045 M 510.096 791.261 L 565.716 884.117 M 565.716 884.117 L 628.479 694.221 M 1156.04 512.614 L 1028.05 428.637 M 963.726 567.538 L 1156.04 512.614 M 681.573 887.045 L 761.71 959.803 M 761.71 959.803 L 766.762 759.867 M 207.265 77.3184 L 68.982 11.6727 M 68.982 11.6727 L 24.295 158.078 M 24.295 158.078 L 122.076 204.497 M 320.596 180.214 L 207.265 77.3184 M 122.076 204.497 L 202.213 277.255 M 107.186 397.26 L 257.832 370.111 M 132.112 457.436 L 284.163 475.098 M 257.832 370.111 L 132.112 457.436 M 284.163 475.098 L 138.533 522.252 M 203.521 660.846 L 278.945 583.212 M 95.6032 669.183 L 203.521 660.846 M 138.533 522.252 L 9.15043 604.055 M 9.15043 604.055 L 95.6032 669.183 M 99.08 244.402 L 0 287.978 M 0 287.978 L 107.186 397.26 M 202.213 277.255 L 99.08 244.402" />
<path fill="none" class="c" d=" M 436.49 460.007 L 577.912 401.429 M 399.254 311.532 L 436.49 460.007 M 633.531 494.284 L 577.912 401.429 M 284.163 475.098 L 436.49 460.007 M 399.254 311.532 L 257.832 370.111 M 257.832 370.111 L 284.163 475.098 M 284.163 475.098 L 278.945 583.212 M 138.533 522.252 L 278.945 583.212 M 138.533 522.252 L 203.521 660.846 M 138.533 522.252 L 95.6032 669.183 M 577.912 401.429 L 551.582 296.441 M 633.531 494.284 L 728.558 374.279 M 736.664 527.138 L 728.558 374.279 M 835.744 483.561 L 728.558 374.279 M 835.744 483.561 L 881.231 385.344 M 551.582 296.441 L 399.254 311.532 M 515.148 591.325 L 633.531 494.284 M 436.49 460.007 L 515.148 591.325 M 320.596 180.214 L 202.213 277.255 M 202.213 277.255 L 257.832 370.111 M 373.726 649.904 L 515.148 591.325 M 207.265 77.3184 L 122.076 204.497 M 202.213 277.255 L 107.186 397.26 M 99.08 244.402 L 107.186 397.26 M 703.632 314.103 L 551.582 296.441 M 703.632 314.103 L 601.277 200.284 M 601.277 200.284 L 551.582 296.441 M 703.632 314.103 L 702.15 161.037 M 702.15 161.037 L 601.277 200.284 M 601.277 200.284 L 477.049 110.847 M 628.479 694.221 L 713.668 567.042 M 515.148 591.325 L 628.479 694.221 M 963.726 567.538 L 1028.05 428.637 M 702.15 161.037 L 668.136 11.7904 M 510.096 791.261 L 628.479 694.221 M 803.764 198.323 L 702.15 161.037 M 628.479 694.221 L 766.762 759.867 M 681.573 887.045 L 766.762 759.867" />
<line x1="549.310959" y1="451.906693" x2="471.218558" y2="390.989166" class="t" />
<line x1="373.302202" y1="415.545789" x2="471.218558" y2="390.989166" class="t" />
<line x1="509.582332" y1="336.467000" x2="471.218558" y2="390.989166" class="t" />
<line x1="646.666924" y1="423.330638" x2="549.310959" y2="451.906693" class="t" />
<line x1="528.389722" y1="515.205579" x2="549.310959" y2="451.906693" class="t" />
<line x1="313.749601" y1="385.580250" x2="373.302202" y2="415.545789" class="t" />
<line x1="333.199125" y1="506.105777" x2="373.302202" y2="415.545789" class="t" />
<line x1="325.894086" y1="287.285399" x2="313.749601" y2="385.580250" class="t" />
<line x1="224.702183" y1="434.214938" x2="313.749601" y2="385.580250" class="t" />
<line x1="233.880058" y1="526.854215" x2="333.199125" y2="506.105777" class="t" />
<line x1="206.999503" y1="588.769923" x2="233.880058" y2="526.854215" class="t" />
<line x1="145.885708" y1="617.426874" x2="206.999503" y2="588.769923" class="t" />
<line x1="81.095555" y1="598.496601" x2="145.885708" y2="617.426874" class="t" />
<line x1="611.041884" y1="337.324094" x2="509.582332" y2="336.467000" class="t" />
<line x1="699.584369" y1="465.233658" x2="646.666924" y2="423.330638" class="t" />
<line x1="766.988678" y1="461.659318" x2="699.584369" y2="465.233658" class="t" />
<line x1="815.177714" y1="414.394786" x2="766.988678" y2="461.659318" class="t" />
<line x1="893.567051" y1="478.814404" x2="815.177714" y2="414.394786" class="t" />
<line x1="452.489539" y1="255.536292" x2="509.582332" y2="336.467000" class="t" />
<line x1="620.782440" y1="550.884032" x2="528.389722" y2="515.205579" class="t" />
<line x1="441.788193" y1="567.078689" x2="528.389722" y2="515.205579" class="t" />
<line x1="619.098515" y1="617.529438" x2="620.782440" y2="550.884032" class="t" />
<line x1="957.670590" y1="460.506422" x2="893.567051" y2="478.814404" class="t" />
<line x1="260.213799" y1="275.859677" x2="325.894086" y2="287.285399" class="t" />
<line x1="243.357880" y1="178.262310" x2="260.213799" y2="275.859677" class="t" />
<line x1="189.077129" y1="348.208477" x2="260.213799" y2="275.859677" class="t" />
<line x1="429.643611" y1="665.373528" x2="441.788193" y2="567.078689" class="t" />
<line x1="177.184405" y1="186.356569" x2="243.357880" y2="178.262310" class="t" />
<line x1="132.774077" y1="97.829234" x2="177.184405" y2="186.356569" class="t" />
<line x1="136.159649" y1="306.305528" x2="189.077129" y2="348.208477" class="t" />
<line x1="68.755326" y1="309.879948" x2="136.159649" y2="306.305528" class="t" />
<line x1="618.830309" y1="270.275905" x2="611.041884" y2="337.324094" class="t" />
<line x1="669.019827" y1="225.141339" x2="618.830309" y2="270.275905" class="t" />
<line x1="543.302548" y1="202.523916" x2="618.830309" y2="270.275905" class="t" />
<line x1="736.515693" y1="224.487666" x2="669.019827" y2="225.141339" class="t" />
<line x1="657.187774" y1="124.370420" x2="669.019827" y2="225.141339" class="t" />
<line x1="554.013521" y1="104.062536" x2="543.302548" y2="202.523916" class="t" />
<line x1="717.865533" y1="624.908080" x2="619.098515" y2="617.529438" class="t" />
<line x1="551.241128" y1="692.269090" x2="619.098515" y2="617.529438" class="t" />
<line x1="735.563366" y1="689.182755" x2="717.865533" y2="624.908080" class="t" />
<line x1="1049.272484" y1="502.929687" x2="957.670590" y2="460.506422" class="t" />
<line x1="730.347136" y1="57.609098" x2="657.187774" y2="124.370420" class="t" />
<line x1="568.097047" y1="789.866458" x2="551.241128" y2="692.269090" class="t" />
<line x1="71.784181" y1="124.749111" x2="132.774077" y2="97.829234" class="t" />
<line x1="794.295332" y1="141.083302" x2="736.515693" y2="224.487666" class="t" />
<line x1="692.271267" y1="780.377265" x2="735.563366" y2="689.182755" class="t" />
<line x1="736.681509" y1="868.904644" x2="692.271267" y2="780.377265" class="t" />
</svg>
