<?xml version="1.0"?>
<svg width="1298" height="1073" version="1.1" xmlns="http://www.w3.org/2000/svg" >
<defs>
<style type="text/css"><![CDATA[
.m {stroke:rgb(255,0,0);stroke-width:1.622500;}
.v {stroke:rgb(0,0,255);stroke-width:1.622500;}
.b {stroke:rgb(0,0,0);stroke-width:3.245000;fill:white}
.n {stroke:rgb(128,128,128);stroke-width:1.622500}
.t {stroke:rgb(0,128,0);stroke-width:1.622500;}
.c {stroke:rgb(128,128,128);stroke-width:1.622500;stroke-dasharray:12.980000, 12.980000;}
]]></style>
</defs>
<path fill="none" style="stroke:black;stroke-width:3.245000;" d=" M 347.841 658.277 L 407.915 517.484 M 461.013 555.207 L 347.841 658.277 M 444.308 707.366 L 549.128 680.375 M 549.128 680.375 L 609.891 590.801 M 596.214 483.429 L 461.013 555.207 M 407.915 517.484 L 431.19 366.191 M 260.718 475.48 L 269.734 583.343 M 550.861 726.399 L 444.308 707.366 M 546.301 879.405 L 698.325 861.508 M 698.325 861.508 L 658.358 713.744 M 658.358 713.744 L 550.861 726.399 M 743.591 442.059 L 596.214 483.429 M 609.891 590.801 L 762.933 593.905 M 616.033 288.017 L 743.591 442.059 M 769.075 291.121 L 616.033 288.017 M 421.744 213.409 L 325.3 388.619 M 431.19 366.191 L 421.744 213.409 M 691.62 106.729 L 769.075 291.121 M 217.16 280.281 L 260.718 475.48 M 325.3 388.619 L 217.16 280.281 M 73.7097 543.662 L 148.728 677.093 M 269.734 583.343 L 73.7097 543.662 M 709.64 0 L 691.62 106.729 M 837.198 154.042 L 709.64 0 M 138.181 876.814 L 259.187 783.065 M 148.728 677.093 L 60.0744 801.881 M 306.96 977.276 L 395.613 852.487 M 259.187 783.065 L 306.96 977.276 M 1298.01 650.746 L 1180.91 552.166 M 1099.83 623.87 L 1298.01 650.746 M 395.613 852.487 L 497.606 1024.53 M 1122.45 775.263 L 1099.83 623.87 M 991.587 624.018 L 1122.45 775.263 M 762.933 593.905 L 825.44 733.635 M 825.44 733.635 L 910.31 552.535 M 497.606 1024.53 L 594.074 1073.62 M 594.074 1073.62 L 546.301 879.405 M 914.653 338.435 L 962.823 241.505 M 942.115 42.5798 L 837.198 154.042 M 1037.01 162.689 L 942.115 42.5798 M 962.823 241.505 L 1037.01 162.689 M 60.0744 801.881 L 0 942.673 M 0 942.673 L 138.181 876.814 M 1180.91 552.166 L 1045.51 480.757 M 910.31 552.535 L 991.587 624.018 M 1045.51 480.757 L 896.633 445.163 M 896.633 445.163 L 1046.83 415.637 M 998.762 270.307 L 914.653 338.435 M 1106.91 274.844 L 998.762 270.307 M 1046.83 415.637 L 1106.91 274.844" />
<path fill="none" class="c" d=" M 461.013 555.207 L 549.128 680.375 M 609.891 590.801 L 461.013 555.207 M 609.891 590.801 L 596.214 483.429 M 461.013 555.207 L 444.308 707.366 M 347.841 658.277 L 444.308 707.366 M 762.933 593.905 L 743.591 442.059 M 896.633 445.163 L 743.591 442.059 M 762.933 593.905 L 910.31 552.535 M 910.31 552.535 L 896.633 445.163 M 896.633 445.163 L 914.653 338.435 M 910.31 552.535 L 1045.51 480.757 M 1046.83 415.637 L 914.653 338.435 M 1046.83 415.637 L 998.762 270.307 M 347.841 658.277 L 259.187 783.065 M 148.728 677.093 L 259.187 783.065 M 269.734 583.343 L 148.728 677.093 M 395.613 852.487 L 444.308 707.366 M 259.187 783.065 L 395.613 852.487 M 60.0744 801.881 L 138.181 876.814 M 769.075 291.121 L 743.591 442.059 M 914.653 338.435 L 769.075 291.121 M 991.587 624.018 L 1045.51 480.757 M 347.841 658.277 L 269.734 583.343 M 546.301 879.405 L 550.861 726.399 M 395.613 852.487 L 546.301 879.405 M 497.606 1024.53 L 546.301 879.405 M 837.198 154.042 L 769.075 291.121 M 962.823 241.505 L 837.198 154.042 M 991.587 624.018 L 1099.83 623.87 M 1099.83 623.87 L 1045.51 480.757 M 407.915 517.484 L 269.734 583.343 M 407.915 517.484 L 260.718 475.48 M 837.198 154.042 L 691.62 106.729 M 1099.83 623.87 L 1180.91 552.166 M 407.915 517.484 L 325.3 388.619 M 325.3 388.619 L 260.718 475.48 M 431.19 366.191 L 325.3 388.619" />
</svg>
