<?xml version="1.0"?>
<svg width="1028" height="1061" version="1.1" xmlns="http://www.w3.org/2000/svg" >
<defs>
<style type="text/css"><![CDATA[
.m {stroke:rgb(255,0,0);stroke-width:1.326250;}
.v {stroke:rgb(0,0,255);stroke-width:1.326250;}
.b {stroke:rgb(0,0,0);stroke-width:2.652500;fill:white}
.n {stroke:rgb(128,128,128);stroke-width:1.326250}
.t {stroke:rgb(0,128,0);stroke-width:1.326250;}
.c {stroke:rgb(128,128,128);stroke-width:1.326250;stroke-dasharray:10.280000, 10.280000;}
]]></style>
</defs>
<path fill="none" style="stroke:black;stroke-width:2.652500;" d=" M 520.975 576.183 L 629.161 579.573 M 729.431 403.644 L 579.554 434.761 M 579.554 434.761 L 696.035 335.446 M 442.079 502.081 L 245.645 464.48 M 279.061 386.214 L 442.079 502.081 M 570.804 769.876 L 617.958 624.246 M 617.958 624.246 L 520.975 576.183 M 826.363 612.914 L 712.544 510.558 M 629.161 579.573 L 708.442 710.516 M 882.497 405.127 L 729.431 403.644 M 712.544 510.558 L 858.615 556.325 M 654.637 139.777 L 601.224 283.229 M 696.035 335.446 L 788.72 213.622 M 495.578 306.779 L 508.33 107.186 M 590.159 130.557 L 495.578 306.779 M 601.224 283.229 L 590.159 130.557 M 431.919 394.32 L 309.465 236.19 M 386.295 199.593 L 431.919 394.32 M 179.682 653.289 L 322.073 597.108 M 245.645 464.48 L 125.639 559.507 M 322.073 597.108 L 234.748 722.829 M 433.65 701.904 L 483.478 895.597 M 367.687 890.713 L 433.65 701.904 M 708.442 710.516 L 905.644 743.856 M 483.478 895.597 L 562.375 969.698 M 562.375 969.698 L 570.804 769.876 M 1028.57 450.894 L 882.497 405.127 M 858.615 556.325 L 1028.57 450.894 M 905.644 743.856 L 1005.45 701.96 M 1005.45 701.96 L 826.363 612.914 M 747.322 17.9538 L 654.637 139.777 M 788.72 213.622 L 842.133 70.1701 M 842.133 70.1701 L 747.322 17.9538 M 312.756 65.3417 L 386.295 199.593 M 508.33 107.186 L 399.047 0 M 399.047 0 L 312.756 65.3417 M 135.107 334.167 L 279.061 386.214 M 309.465 236.19 L 156.606 228.085 M 125.639 559.507 L 28.5985 677.89 M 28.5985 677.89 L 179.682 653.289 M 176.169 864.251 L 313.644 796.931 M 234.748 722.829 L 176.169 864.251 M 313.644 796.931 L 216.604 915.314 M 346.188 996.795 L 367.687 890.713 M 216.604 915.314 L 259.897 1062.14 M 259.897 1062.14 L 346.188 996.795 M 102.563 134.302 L 0 99.7118 M 0 99.7118 L 5.52257 252.686 M 156.606 228.085 L 102.563 134.302 M 5.52257 252.686 L 135.107 334.167" />
<path fill="none" class="c" d=" M 579.554 434.761 L 442.079 502.081 M 579.554 434.761 L 431.919 394.32 M 431.919 394.32 L 442.079 502.081 M 520.975 576.183 L 579.554 434.761 M 442.079 502.081 L 520.975 576.183 M 629.161 579.573 L 579.554 434.761 M 712.544 510.558 L 579.554 434.761 M 629.161 579.573 L 712.544 510.558 M 712.544 510.558 L 729.431 403.644 M 579.554 434.761 L 495.578 306.779 M 495.578 306.779 L 431.919 394.32 M 431.919 394.32 L 279.061 386.214 M 442.079 502.081 L 322.073 597.108 M 309.465 236.19 L 279.061 386.214 M 495.578 306.779 L 386.295 199.593 M 156.606 228.085 L 135.107 334.167 M 156.606 228.085 L 5.52257 252.686 M 579.554 434.761 L 601.224 283.229 M 601.224 283.229 L 495.578 306.779 M 245.645 464.48 L 322.073 597.108 M 433.65 701.904 L 520.975 576.183 M 322.073 597.108 L 433.65 701.904 M 708.442 710.516 L 826.363 612.914 M 858.615 556.325 L 882.497 405.127 M 508.33 107.186 L 386.295 199.593 M 125.639 559.507 L 179.682 653.289 M 313.644 796.931 L 433.65 701.904 M 234.748 722.829 L 313.644 796.931 M 313.644 796.931 L 367.687 890.713 M 905.644 743.856 L 826.363 612.914 M 216.604 915.314 L 367.687 890.713 M 216.604 915.314 L 346.188 996.795 M 102.563 134.302 L 5.52257 252.686 M 696.035 335.446 L 601.224 283.229 M 433.65 701.904 L 570.804 769.876 M 483.478 895.597 L 570.804 769.876 M 788.72 213.622 L 654.637 139.777" />
</svg>
