<?xml version="1.0"?>
<svg width="982" height="1172" version="1.1" xmlns="http://www.w3.org/2000/svg" >
<defs>
<style type="text/css"><![CDATA[
.m {stroke:rgb(255,0,0);stroke-width:1.465000;}
.v {stroke:rgb(0,0,255);stroke-width:1.465000;}
.b {stroke:rgb(0,0,0);stroke-width:2.930000;fill:white}
.n {stroke:rgb(128,128,128);stroke-width:1.465000}
.t {stroke:rgb(0,128,0);stroke-width:1.465000;}
.c {stroke:rgb(128,128,128);stroke-width:1.465000;stroke-dasharray:9.820000, 9.820000;}
]]></style>
</defs>
<path fill="none" style="stroke:black;stroke-width:2.930000;" d=" M 471.486 417.597 L 617.116 370.443 M 623.537 435.26 L 471.486 417.597 M 497.816 522.585 L 623.537 435.26 M 743.869 582.057 L 624.773 485.893 M 624.773 485.893 L 590.941 588.709 M 590.941 588.709 L 633.573 688.199 M 731.354 734.618 L 743.869 582.057 M 806.166 601.071 L 731.354 734.618 M 838.389 750.715 L 806.166 601.071 M 617.116 370.443 L 660.046 223.513 M 660.046 223.513 L 552.128 231.85 M 552.128 231.85 L 476.704 309.484 M 356.395 581.164 L 435.053 712.482 M 553.436 615.441 L 497.816 522.585 M 435.053 712.482 L 548.384 815.377 M 633.573 688.199 L 553.436 615.441 M 885.187 856.741 L 686.667 881.023 M 686.667 881.023 L 838.389 750.715 M 513.022 207.52 L 468.838 12.4614 M 468.838 12.4614 L 377.9 135.594 M 799.998 983.919 L 982.968 903.159 M 982.968 903.159 L 885.187 856.741 M 377.9 135.594 L 326.538 279.793 M 476.704 309.484 L 513.022 207.52 M 319.158 432.689 L 204.067 596.255 M 132.674 504.962 L 319.158 432.689 M 397.013 792.613 L 245.539 814.682 M 245.539 814.682 L 396.661 945.686 M 204.067 596.255 L 198.849 704.369 M 198.849 704.369 L 356.395 581.164 M 548.384 815.377 L 397.013 792.613 M 396.661 945.686 L 503.697 961.783 M 289.301 131.318 L 210.644 0 M 210.644 0 L 147.88 189.897 M 681.615 1080.96 L 737.234 1173.82 M 737.234 1173.82 L 799.998 983.919 M 326.538 279.793 L 289.301 131.318 M 147.88 189.897 L 174.21 294.885 M 28.5805 342.039 L 168.992 402.998 M 15.9469 405.935 L 132.674 504.962 M 168.992 402.998 L 15.9469 405.935 M 399.659 991.645 L 341.382 1082.86 M 341.382 1082.86 L 491.181 1114.34 M 503.697 961.783 L 399.659 991.645 M 491.181 1114.34 L 601.478 1008.2 M 545.296 1150.59 L 681.615 1080.96 M 601.478 1008.2 L 545.296 1150.59 M 106.613 210.348 L 0 191.657 M 0 191.657 L 28.5805 342.039 M 174.21 294.885 L 106.613 210.348" />
<path fill="none" class="c" d=" M 435.053 712.482 L 553.436 615.441 M 497.816 522.585 L 356.395 581.164 M 319.158 432.689 L 356.395 581.164 M 548.384 815.377 L 633.573 688.199 M 731.354 734.618 L 633.573 688.199 M 204.067 596.255 L 356.395 581.164 M 743.869 582.057 L 633.573 688.199 M 471.486 417.597 L 319.158 432.689 M 326.538 279.793 L 319.158 432.689 M 476.704 309.484 L 326.538 279.793 M 497.816 522.585 L 471.486 417.597 M 686.667 881.023 L 731.354 734.618 M 548.384 815.377 L 686.667 881.023 M 838.389 750.715 L 731.354 734.618 M 513.022 207.52 L 377.9 135.594 M 168.992 402.998 L 319.158 432.689 M 326.538 279.793 L 174.21 294.885 M 174.21 294.885 L 168.992 402.998 M 168.992 402.998 L 132.674 504.962 M 601.478 1008.2 L 686.667 881.023 M 548.384 815.377 L 503.697 961.783 M 503.697 961.783 L 601.478 1008.2 M 601.478 1008.2 L 681.615 1080.96 M 289.301 131.318 L 147.88 189.897 M 174.21 294.885 L 28.5805 342.039 M 503.697 961.783 L 491.181 1114.34 M 106.613 210.348 L 28.5805 342.039 M 471.486 417.597 L 476.704 309.484 M 743.869 582.057 L 590.941 588.709 M 397.013 792.613 L 396.661 945.686 M 799.998 983.919 L 686.667 881.023 M 681.615 1080.96 L 799.998 983.919 M 399.659 991.645 L 491.181 1114.34 M 617.116 370.443 L 476.704 309.484 M 617.116 370.443 L 552.128 231.85 M 799.998 983.919 L 885.187 856.741" />
</svg>
