<?xml version="1.0"?>
<svg width="1156" height="959" version="1.1" xmlns="http://www.w3.org/2000/svg" >
<defs>
<style type="text/css"><![CDATA[
.m {stroke:rgb(255,0,0);stroke-width:1.445000;}
.v {stroke:rgb(0,0,255);stroke-width:1.445000;}
.b {stroke:rgb(0,0,0);stroke-width:2.890000;fill:white}
.n {stroke:rgb(128,128,128);stroke-width:1.445000}
.t {stroke:rgb(0,128,0);stroke-width:1.445000;}
.c {stroke:rgb(128,128,128);stroke-width:1.445000;stroke-dasharray:11.560000, 11.560000;}
]]></style>
</defs>
<path fill="none" style="stroke:black;stroke-width:2.890000;" d=" M 577.912 401.429 L 703.632 314.103 M 728.558 374.279 L 577.912 401.429 M 633.531 494.284 L 736.664 527.138 M 736.664 527.138 L 835.744 483.561 M 881.231 385.344 L 728.558 374.279 M 703.632 314.103 L 803.764 198.323 M 406.633 158.636 L 399.254 311.532 M 551.582 296.441 L 406.633 158.636 M 477.049 110.847 L 551.582 296.441 M 713.668 567.042 L 633.531 494.284 M 766.762 759.867 L 811.449 613.461 M 811.449 613.461 L 713.668 567.042 M 1028.05 428.637 L 881.231 385.344 M 835.744 483.561 L 963.726 567.538 M 702.15 161.037 L 820.755 0 M 820.755 0 L 668.136 11.7904 M 876.971 63.89 L 702.15 161.037 M 803.764 198.323 L 876.971 63.89 M 583.714 1.0565 L 477.049 110.847 M 601.277 200.284 L 583.714 1.0565 M 668.136 11.7904 L 601.277 200.284 M 399.254 311.532 L 320.596 180.214 M 436.49 460.007 L 373.726 649.904 M 278.945 583.212 L 436.49 460.007 M 515.148 591.325 L 510.096 791.261 M 373.726 649.904 L 400.056 754.892 M 400.056 754.892 L 515.148 591.325 M 628.479 694.221 L 681.573 887.045 M 510.096 791.261 L 565.716 884.117 M 565.716 884.117 L 628.479 694.221 M 1156.04 512.614 L 1028.05 428.637 M 963.726 567.538 L 1156.04 512.614 M 681.573 887.045 L 761.71 959.803 M 761.71 959.803 L 766.762 759.867 M 207.265 77.3184 L 68.982 11.6727 M 68.982 11.6727 L 24.295 158.078 M 24.295 158.078 L 122.076 204.497 M 320.596 180.214 L 207.265 77.3184 M 122.076 204.497 L 202.213 277.255 M 107.186 397.26 L 257.832 370.111 M 132.112 457.436 L 284.163 475.098 M 257.832 370.111 L 132.112 457.436 M 284.163 475.098 L 138.533 522.252 M 203.521 660.846 L 278.945 583.212 M 95.6032 669.183 L 203.521 660.846 M 138.533 522.252 L 9.15043 604.055 M 9.15043 604.055 L 95.6032 669.183 M 99.08 244.402 L 0 287.978 M 0 287.978 L 107.186 397.26 M 202.213 277.255 L 99.08 244.402" />
<path fill="none" class="c" d=" M 436.49 460.007 L 577.912 401.429 M 399.254 311.532 L 436.49 460.007 M 633.531 494.284 L 577.912 401.429 M 284.163 475.098 L 436.49 460.007 M 399.254 311.532 L 257.832 370.111 M 257.832 370.111 L 284.163 475.098 M 284.163 475.098 L 278.945 583.212 M 138.533 522.252 L 278.945 583.212 M 138.533 522.252 L 203.521 660.846 M 138.533 522.252 L 95.6032 669.183 M 577.912 401.429 L 551.582 296.441 M 633.531 494.284 L 728.558 374.279 M 736.664 527.138 L 728.558 374.279 M 835.744 483.561 L 728.558 374.279 M 835.744 483.561 L 881.231 385.344 M 551.582 296.441 L 399.254 311.532 M 515.148 591.325 L 633.531 494.284 M 436.49 460.007 L 515.148 591.325 M 320.596 180.214 L 202.213 277.255 M 202.213 277.255 L 257.832 370.111 M 373.726 649.904 L 515.148 591.325 M 207.265 77.3184 L 122.076 204.497 M 202.213 277.255 L 107.186 397.26 M 99.08 244.402 L 107.186 397.26 M 703.632 314.103 L 551.582 296.441 M 703.632 314.103 L 601.277 200.284 M 601.277 200.284 L 551.582 296.441 M 703.632 314.103 L 702.15 161.037 M 702.15 161.037 L 601.277 200.284 M 601.277 200.284 L 477.049 110.847 M 628.479 694.221 L 713.668 567.042 M 515.148 591.325 L 628.479 694.221 M 963.726 567.538 L 1028.05 428.637 M 702.15 161.037 L 668.136 11.7904 M 510.096 791.261 L 628.479 694.221 M 803.764 198.323 L 702.15 161.037 M 628.479 694.221 L 766.762 759.867 M 681.573 887.045 L 766.762 759.867" />
</svg>
