<?xml version="1.0"?>
<svg width="1028" height="1061" version="1.1" xmlns="http://www.w3.org/2000/svg" >
<defs>
<style type="text/css"><![CDATA[
.m {stroke:rgb(255,0,0);stroke-width:1.326250;}
.v {stroke:rgb(0,0,255);stroke-width:1.326250;}
.b {stroke:rgb(0,0,0);stroke-width:2.652500;fill:white}
.n {stroke:rgb(128,128,128);stroke-width:1.326250}
.t {stroke:rgb(0,128,0);stroke-width:1.326250;}
.c {stroke:rgb(128,128,128);stroke-width:1.326250;stroke-dasharray:10.280000, 10.280000;}
]]></style>
</defs>
<path fill="none" style="stroke:black;stroke-width:2.652500;" d=" M 520.975 576.183 L 629.161 579.573 M 729.431 403.644 L 579.554 434.761 M 579.554 434.761 L 696.035 335.446 M 442.079 502.081 L 245.645 464.48 M 279.061 386.214 L 442.079 502.081 M 570.804 769.876 L 617.958 624.246 M 617.958 624.246 L 520.975 576.183 M 826.363 612.914 L 712.544 510.558 M 629.161 579.573 L 708.442 710.516 M 882.497 405.127 L 729.431 403.644 M 712.544 510.558 L 858.615 556.325 M 654.637 139.777 L 601.224 283.229 M 696.035 335.446 L 788.72 213.622 M 495.578 306.779 L 508.33 107.186 M 590.159 130.557 L 495.578 306.779 M 601.224 283.229 L 590.159 130.557 M 431.919 394.32 L 309.465 236.19 M 386.295 199.593 L 431.919 394.32 M 179.682 653.289 L 322.073 597.108 M 245.645 464.48 L 125.639 559.507 M 322.073 597.108 L 234.748 722.829 M 433.65 701.904 L 483.478 895.597 M 367.687 890.713 L 433.65 701.904 M 708.442 710.516 L 905.644 743.856 M 483.478 895.597 L 562.375 969.698 M 562.375 969.698 L 570.804 769.876 M 1028.57 450.894 L 882.497 405.127 M 858.615 556.325 L 1028.57 450.894 M 905.644 743.856 L 1005.45 701.96 M 1005.45 701.96 L 826.363 612.914 M 747.322 17.9538 L 654.637 139.777 M 788.72 213.622 L 842.133 70.1701 M 842.133 70.1701 L 747.322 17.9538 M 312.756 65.3417 L 386.295 199.593 M 508.33 107.186 L 399.047 0 M 399.047 0 L 312.756 65.3417 M 135.107 334.167 L 279.061 386.214 M 309.465 236.19 L 156.606 228.085 M 125.639 559.507 L 28.5985 677.89 M 28.5985 677.89 L 179.682 653.289 M 176.169 864.251 L 313.644 796.931 M 234.748 722.829 L 176.169 864.251 M 313.644 796.931 L 216.604 915.314 M 346.188 996.795 L 367.687 890.713 M 216.604 915.314 L 259.897 1062.14 M 259.897 1062.14 L 346.188 996.795 M 102.563 134.302 L 0 99.7118 M 0 99.7118 L 5.52257 252.686 M 156.606 228.085 L 102.563 134.302 M 5.52257 252.686 L 135.107 334.167" />
<path fill="none" class="c" d=" M 579.554 434.761 L 442.079 502.081 M 579.554 434.761 L 431.919 394.32 M 431.919 394.32 L 442.079 502.081 M 520.975 576.183 L 579.554 434.761 M 442.079 502.081 L 520.975 576.183 M 629.161 579.573 L 579.554 434.761 M 712.544 510.558 L 579.554 434.761 M 629.161 579.573 L 712.544 510.558 M 712.544 510.558 L 729.431 403.644 M 579.554 434.761 L 495.578 306.779 M 495.578 306.779 L 431.919 394.32 M 431.919 394.32 L 279.061 386.214 M 442.079 502.081 L 322.073 597.108 M 309.465 236.19 L 279.061 386.214 M 495.578 306.779 L 386.295 199.593 M 156.606 228.085 L 135.107 334.167 M 156.606 228.085 L 5.52257 252.686 M 579.554 434.761 L 601.224 283.229 M 601.224 283.229 L 495.578 306.779 M 245.645 464.48 L 322.073 597.108 M 433.65 701.904 L 520.975 576.183 M 322.073 597.108 L 433.65 701.904 M 708.442 710.516 L 826.363 612.914 M 858.615 556.325 L 882.497 405.127 M 508.33 107.186 L 386.295 199.593 M 125.639 559.507 L 179.682 653.289 M 313.644 796.931 L 433.65 701.904 M 234.748 722.829 L 313.644 796.931 M 313.644 796.931 L 367.687 890.713 M 905.644 743.856 L 826.363 612.914 M 216.604 915.314 L 367.687 890.713 M 216.604 915.314 L 346.188 996.795 M 102.563 134.302 L 5.52257 252.686 M 696.035 335.446 L 601.224 283.229 M 433.65 701.904 L 570.804 769.876 M 483.478 895.597 L 570.804 769.876 M 788.72 213.622 L 654.637 139.777" />
<line x1="484.517289" y1="443.720709" x2="514.202593" y2="504.341678" class="t" />
<line x1="502.350315" y1="378.620018" x2="484.517289" y2="443.720709" class="t" />
<line x1="384.352909" y1="427.538259" x2="484.517289" y2="443.720709" class="t" />
<line x1="576.563560" y1="530.172409" x2="514.202593" y2="504.341678" class="t" />
<line x1="428.375610" y1="558.457335" x2="514.202593" y2="504.341678" class="t" />
<line x1="640.419721" y1="508.297543" x2="576.563560" y2="530.172409" class="t" />
<line x1="673.842964" y1="449.654524" x2="640.419721" y2="508.297543" class="t" />
<line x1="683.382581" y1="600.215812" x2="640.419721" y2="508.297543" class="t" />
<line x1="766.863342" y1="490.175927" x2="673.842964" y2="449.654524" class="t" />
<line x1="558.785163" y1="341.589934" x2="502.350315" y2="378.620018" class="t" />
<line x1="437.930744" y1="300.230642" x2="502.350315" y2="378.620018" class="t" />
<line x1="340.148337" y1="338.907993" x2="384.352909" y2="427.538259" class="t" />
<line x1="336.598803" y1="521.223156" x2="428.375610" y2="558.457335" class="t" />
<line x1="425.566064" y1="625.064784" x2="428.375610" y2="558.457335" class="t" />
<line x1="749.116419" y1="611.329239" x2="683.382581" y2="600.215812" class="t" />
<line x1="823.514548" y1="455.032107" x2="766.863342" y2="490.175927" class="t" />
<line x1="241.210958" y1="318.857166" x2="340.148337" y2="338.907993" class="t" />
<line x1="463.400804" y1="204.519397" x2="437.930744" y2="300.230642" class="t" />
<line x1="200.392747" y1="266.147400" x2="241.210958" y2="318.857166" class="t" />
<line x1="99.078665" y1="271.645791" x2="200.392747" y2="266.147400" class="t" />
<line x1="88.230665" y1="205.024172" x2="99.078665" y2="271.645791" class="t" />
<line x1="625.604378" y1="351.145517" x2="558.785163" y2="341.589934" class="t" />
<line x1="562.320162" y1="240.188363" x2="558.785163" y2="341.589934" class="t" />
<line x1="249.133324" y1="571.625877" x2="336.598803" y2="521.223156" class="t" />
<line x1="524.194338" y1="634.110874" x2="425.566064" y2="625.064784" class="t" />
<line x1="356.455761" y1="698.647435" x2="425.566064" y2="625.064784" class="t" />
<line x1="540.803833" y1="698.675352" x2="524.194338" y2="634.110874" class="t" />
<line x1="813.483170" y1="689.095311" x2="749.116419" y2="611.329239" class="t" />
<line x1="923.227055" y1="470.782034" x2="823.514548" y2="455.032107" class="t" />
<line x1="402.460235" y1="124.040261" x2="463.400804" y2="204.519397" class="t" />
<line x1="183.655440" y1="559.092164" x2="249.133324" y2="571.625877" class="t" />
<line x1="111.306641" y1="630.228835" x2="183.655440" y2="559.092164" class="t" />
<line x1="290.154990" y1="705.622651" x2="356.455761" y2="698.647435" class="t" />
<line x1="371.660532" y1="796.515627" x2="356.455761" y2="698.647435" class="t" />
<line x1="241.520327" y1="794.670082" x2="290.154990" y2="705.622651" class="t" />
<line x1="299.311803" y1="867.652369" x2="371.660532" y2="796.515627" class="t" />
<line x1="912.484353" y1="686.243299" x2="813.483170" y2="689.095311" class="t" />
<line x1="406.710921" y1="57.509224" x2="402.460235" y2="124.040261" class="t" />
<line x1="310.159803" y1="934.273988" x2="299.311803" y2="867.652369" class="t" />
<line x1="274.229748" y1="991.415461" x2="310.159803" y2="934.273988" class="t" />
<line x1="36.028616" y1="162.233252" x2="88.230665" y2="205.024172" class="t" />
<line x1="695.326495" y1="277.432547" x2="625.604378" y2="351.145517" class="t" />
<line x1="495.977336" y1="789.125502" x2="540.803833" y2="698.675352" class="t" />
<line x1="681.527011" y1="212.209698" x2="695.326495" y2="277.432547" class="t" />
<line x1="538.885720" y1="878.390483" x2="495.977336" y2="789.125502" class="t" />
<line x1="730.226271" y1="123.784461" x2="681.527011" y2="212.209698" class="t" />
<line x1="792.725025" y1="100.582057" x2="730.226271" y2="123.784461" class="t" />
</svg>
