<?xml version="1.0"?>
<svg width="200" height="1719" version="1.1" xmlns="http://www.w3.org/2000/svg" >
<defs>
<style type="text/css"><![CDATA[
.m {stroke:rgb(255,0,0);stroke-width:2.148750;}
.v {stroke:rgb(0,0,255);stroke-width:2.148750;}
.b {stroke:rgb(0,0,0);stroke-width:4.297500;fill:white}
.n {stroke:rgb(128,128,128);stroke-width:2.148750}
.t {stroke:rgb(0,128,0);stroke-width:2.148750;}
.c {stroke:rgb(128,128,128);stroke-width:2.148750;stroke-dasharray:2.000000, 2.000000;}
]]></style>
</defs>
<path fill="none" style="stroke:black;stroke-width:4.297500;" d=" M 160 40 L 120 0 M 120 0 L 120 40 M 80 40 L 40 0 M 40 0 L 40 40 M 40 40 L 80 80 M 80 80 L 40 40 M 40 80 L 80 120 M 80 120 L 40 80 M 40 120 L 80 160 M 80 160 L 40 120 M 40 160 L 80 200 M 80 200 L 40 160 M 40 200 L 80 240 M 80 240 L 40 200 M 40 240 L 80 280 M 80 280 L 40 240 M 40 280 L 80 320 M 80 320 L 40 280 M 40 320 L 80 360 M 80 360 L 40 320 M 40 360 L 80 400 M 80 400 L 40 360 M 40 400 L 80 440 M 80 440 L 40 400 M 40 440 L 80 480 M 80 480 L 40 440 M 40 480 L 80 520 M 80 520 L 40 480 M 40 520 L 80 560 M 80 560 L 40 520 M 40 560 L 80 600 M 80 600 L 40 560 M 40 600 L 80 640 M 80 640 L 40 600 M 40 640 L 80 680 M 80 680 L 40 640 M 40 680 L 80 720 M 80 720 L 40 680 M 40 720 L 80 760 M 80 760 L 40 720 M 40 760 L 80 800 M 80 800 L 40 760 M 40 800 L 80 840 M 80 840 L 40 800 M 40 840 L 80 880 M 80 880 L 40 840 M 40 880 L 80 920 M 80 920 L 40 880 M 40 920 L 80 960 M 80 960 L 40 920 M 40 960 L 80 1000 M 80 1000 L 40 960 M 40 1000 L 80 1040 M 80 1040 L 40 1000 M 40 1040 L 80 1080 M 80 1080 L 40 1040 M 40 1080 L 80 1120 M 80 1120 L 40 1080 M 40 1120 L 80 1160 M 80 1160 L 40 1120 M 40 1160 L 80 1200 M 80 1200 L 40 1160 M 40 1200 L 80 1240 M 80 1240 L 40 1200 M 40 1240 L 80 1280 M 80 1280 L 40 1240 M 40 1280 L 80 1320 M 80 1320 L 40 1280 M 40 1320 L 80 1360 M 80 1360 L 40 1320 M 40 1360 L 80 1400 M 80 1400 L 40 1360 M 40 1400 L 80 1440 M 80 1440 L 40 1400 M 40 1440 L 80 1480 M 80 1480 L 40 1440 M 40 1480 L 80 1520 M 80 1520 L 40 1480 M 40 1520 L 80 1560 M 80 1560 L 40 1520 M 40 1560 L 80 1600 M 80 1600 L 40 1560 M 40 1600 L 80 1640 M 120 1680 L 160 1720 M 120 1640 L 120 1680 M 160 1680 L 160 1640 M 200 1640 L 160 1600 M 160 1640 L 200 1640 M 160 1720 L 200 1720 M 200 1720 L 160 1680 M 200 1600 L 160 1560 M 160 1600 L 200 1600 M 40 1560 L 1.77636e-013 1560 M 1.77636e-013 1560 L 40 1600 M 200 1560 L 160 1520 M 160 1560 L 200 1560 M 40 1520 L 1.55431e-013 1520 M 1.55431e-013 1520 L 40 1560 M 200 1520 L 160 1480 M 160 1520 L 200 1520 M 40 1480 L 1.9984e-013 1480 M 1.9984e-013 1480 L 40 1520 M 200 1480 L 160 1440 M 160 1480 L 200 1480 M 40 1440 L 1.77636e-013 1440 M 1.77636e-013 1440 L 40 1480 M 200 1440 L 160 1400 M 160 1440 L 200 1440 M 40 1400 L 1.55431e-013 1400 M 1.55431e-013 1400 L 40 1440 M 200 1400 L 160 1360 M 160 1400 L 200 1400 M 40 1360 L 8.88178e-014 1360 M 8.88178e-014 1360 L 40 1400 M 200 1360 L 160 1320 M 160 1360 L 200 1360 M 40 1320 L 8.88178e-014 1320 M 8.88178e-014 1320 L 40 1360 M 200 1320 L 160 1280 M 160 1320 L 200 1320 M 40 1280 L 1.11022e-013 1280 M 1.11022e-013 1280 L 40 1320 M 200 1280 L 160 1240 M 160 1280 L 200 1280 M 40 1240 L 1.11022e-013 1240 M 1.11022e-013 1240 L 40 1280 M 200 1240 L 160 1200 M 160 1240 L 200 1240 M 40 1200 L 8.88178e-014 1200 M 8.88178e-014 1200 L 40 1240 M 200 1200 L 160 1160 M 160 1200 L 200 1200 M 40 1160 L 1.11022e-013 1160 M 1.11022e-013 1160 L 40 1200 M 200 1160 L 160 1120 M 160 1160 L 200 1160 M 40 1120 L 8.88178e-014 1120 M 8.88178e-014 1120 L 40 1160 M 200 1120 L 160 1080 M 160 1120 L 200 1120 M 40 1080 L 8.88178e-014 1080 M 8.88178e-014 1080 L 40 1120 M 200 1080 L 160 1040 M 160 1080 L 200 1080 M 40 1040 L 8.88178e-014 1040 M 8.88178e-014 1040 L 40 1080 M 200 1040 L 160 1000 M 160 1040 L 200 1040 M 40 1000 L 8.88178e-014 1000 M 8.88178e-014 1000 L 40 1040 M 200 1000 L 160 960 M 160 1000 L 200 1000 M 40 960 L 4.44089e-014 960 M 4.44089e-014 960 L 40 1000 M 200 960 L 160 920 M 160 960 L 200 960 M 40 920 L 4.44089e-014 920 M 4.44089e-014 920 L 40 960 M 200 920 L 160 880 M 160 920 L 200 920 M 40 880 L 4.44089e-014 880 M 4.44089e-014 880 L 40 920 M 200 880 L 160 840 M 160 880 L 200 880 M 40 840 L 2.22045e-014 840 M 2.22045e-014 840 L 40 880 M 200 840 L 160 800 M 160 840 L 200 840 M 40 800 L 0 800 M 0 800 L 40 840 M 200 800 L 160 760 M 160 800 L 200 800 M 40 760 L 0 760 M 0 760 L 40 800 M 200 760 L 160 720 M 160 760 L 200 760 M 40 720 L 4.44089e-014 720 M 4.44089e-014 720 L 40 760 M 200 720 L 160 680 M 160 720 L 200 720 M 40 680 L 8.88178e-014 680 M 8.88178e-014 680 L 40 720 M 200 680 L 160 640 M 160 680 L 200 680 M 40 640 L 6.66134e-014 640 M 6.66134e-014 640 L 40 680 M 200 640 L 160 600 M 160 640 L 200 640 M 40 600 L 1.33227e-013 600 M 1.33227e-013 600 L 40 640 M 200 600 L 160 560 M 160 600 L 200 600 M 40 560 L 1.33227e-013 560 M 1.33227e-013 560 L 40 600 M 200 560 L 160 520 M 160 560 L 200 560 M 40 520 L 1.33227e-013 520 M 1.33227e-013 520 L 40 560 M 200 520 L 160 480 M 160 520 L 200 520 M 40 480 L 1.33227e-013 480 M 1.33227e-013 480 L 40 520 M 200 480 L 160 440 M 160 480 L 200 480 M 40 440 L 1.11022e-013 440 M 1.11022e-013 440 L 40 480 M 200 440 L 160 400 M 160 440 L 200 440 M 40 400 L 1.11022e-013 400 M 1.11022e-013 400 L 40 440 M 200 400 L 160 360 M 160 400 L 200 400 M 40 360 L 8.88178e-014 360 M 8.88178e-014 360 L 40 400 M 200 360 L 160 320 M 160 360 L 200 360 M 40 320 L 1.11022e-013 320 M 1.11022e-013 320 L 40 360 M 200 320 L 160 280 M 160 320 L 200 320 M 40 280 L 1.11022e-013 280 M 1.11022e-013 280 L 40 320 M 200 280 L 160 240 M 160 280 L 200 280 M 40 240 L 1.11022e-013 240 M 1.11022e-013 240 L 40 280 M 200 240 L 160 200 M 160 240 L 200 240 M 40 200 L 1.11022e-013 200 M 1.11022e-013 200 L 40 240 M 200 200 L 160 160 M 160 200 L 200 200 M 40 160 L 1.33227e-013 160 M 1.33227e-013 160 L 40 200 M 200 160 L 160 120 M 160 160 L 200 160 M 40 120 L 8.88178e-014 120 M 8.88178e-014 120 L 40 160 M 200 120 L 160 79.9998 M 160 120 L 200 120 M 40 80 L 1.11022e-013 79.9998 M 1.11022e-013 79.9998 L 40 120 M 200 80 L 160 40 M 160 79.9998 L 200 80 M 40 40 L 1.33227e-013 40 M 1.33227e-013 40 L 40 80 M 80 1640 L 120 1640 M 120 1600 L 80 1600 M 80 1600 L 120 1600 M 120 1560 L 80 1560 M 80 1560 L 120 1560 M 120 1520 L 80 1520 M 80 1520 L 120 1520 M 120 1480 L 80 1480 M 80 1480 L 120 1480 M 120 1440 L 80 1440 M 80 1440 L 120 1440 M 120 1400 L 80 1400 M 80 1400 L 120 1400 M 120 1360 L 80 1360 M 80 1360 L 120 1360 M 120 1320 L 80 1320 M 80 1320 L 120 1320 M 120 1280 L 80 1280 M 80 1280 L 120 1280 M 120 1240 L 80 1240 M 80 1240 L 120 1240 M 120 1200 L 80 1200 M 80 1200 L 120 1200 M 120 1160 L 80 1160 M 80 1160 L 120 1160 M 120 1120 L 80 1120 M 80 1120 L 120 1120 M 120 1080 L 80 1080 M 80 1080 L 120 1080 M 120 1040 L 80 1040 M 80 1040 L 120 1040 M 120 1000 L 80 1000 M 80 1000 L 120 1000 M 120 960 L 80 960 M 80 960 L 120 960 M 120 920 L 80 920 M 80 920 L 120 920 M 120 880 L 80 880 M 80 880 L 120 880 M 120 840 L 80 840 M 80 840 L 120 840 M 120 800 L 80 800 M 80 800 L 120 800 M 120 760 L 80 760 M 80 760 L 120 760 M 120 720 L 80 720 M 80 720 L 120 720 M 120 680 L 80 680 M 80 680 L 120 680 M 120 640 L 80 640 M 80 640 L 120 640 M 120 600 L 80 600 M 80 600 L 120 600 M 120 560 L 80 560 M 80 560 L 120 560 M 120 520 L 80 520 M 80 520 L 120 520 M 120 480 L 80 480 M 80 480 L 120 480 M 120 440 L 80 440 M 80 440 L 120 440 M 120 400 L 80 400 M 80 400 L 120 400 M 120 360 L 80 360 M 80 360 L 120 360 M 120 320 L 80 320 M 80 320 L 120 320 M 120 280 L 80 280 M 80 280 L 120 280 M 120 240 L 80 240 M 80 240 L 120 240 M 120 200 L 80 200 M 80 200 L 120 200 M 120 160 L 80 160 M 80 160 L 120 160 M 120 120 L 80 120 M 80 120 L 120 120 M 120 79.9998 L 80 80 M 80 80 L 120 79.9998 M 120 40 L 80 40" />
<path fill="none" class="c" d=" M 160 920 L 160 880 M 120 840 L 120 880 M 160 880 L 160 840 M 120 800 L 120 840 M 160 840 L 160 800 M 120 760 L 120 800 M 160 800 L 160 760 M 120 720 L 120 760 M 160 760 L 160 720 M 120 680 L 120 720 M 160 720 L 160 680 M 120 640 L 120 680 M 160 680 L 160 640 M 120 600 L 120 640 M 160 640 L 160 600 M 120 560 L 120 600 M 160 600 L 160 560 M 120 520 L 120 560 M 160 560 L 160 520 M 120 480 L 120 520 M 160 520 L 160 480 M 120 440 L 120 480 M 160 480 L 160 440 M 120 400 L 120 440 M 160 440 L 160 400 M 120 360 L 120 400 M 160 400 L 160 360 M 120 320 L 120 360 M 160 360 L 160 320 M 120 280 L 120 320 M 160 320 L 160 280 M 120 240 L 120 280 M 160 280 L 160 240 M 120 200 L 120 240 M 160 240 L 160 200 M 120 160 L 120 200 M 160 200 L 160 160 M 120 120 L 120 160 M 160 160 L 160 120 M 120 79.9998 L 120 120 M 160 120 L 160 79.9998 M 120 40 L 120 79.9998 M 160 40 L 120 40 M 160 79.9998 L 160 40 M 120 880 L 120 920 M 80 840 L 80 880 M 80 800 L 80 840 M 80 760 L 80 800 M 80 720 L 80 760 M 80 680 L 80 720 M 80 640 L 80 680 M 80 600 L 80 640 M 80 560 L 80 600 M 80 520 L 80 560 M 80 480 L 80 520 M 80 440 L 80 480 M 80 400 L 80 440 M 80 360 L 80 400 M 80 320 L 80 360 M 80 280 L 80 320 M 80 240 L 80 280 M 80 200 L 80 240 M 80 160 L 80 200 M 80 120 L 80 160 M 80 80 L 80 120 M 80 40 L 80 80 M 160 960 L 160 920 M 80 40 L 40 40 M 80 880 L 80 920 M 120 920 L 120 960 M 40 40 L 40 80 M 40 80 L 40 120 M 40 120 L 40 160 M 40 160 L 40 200 M 40 200 L 40 240 M 40 240 L 40 280 M 40 280 L 40 320 M 40 320 L 40 360 M 40 360 L 40 400 M 40 400 L 40 440 M 40 440 L 40 480 M 40 480 L 40 520 M 40 520 L 40 560 M 40 560 L 40 600 M 40 600 L 40 640 M 40 640 L 40 680 M 40 680 L 40 720 M 40 720 L 40 760 M 40 760 L 40 800 M 40 800 L 40 840 M 160 1000 L 160 960 M 40 840 L 40 880 M 80 920 L 80 960 M 120 960 L 120 1000 M 160 1040 L 160 1000 M 40 880 L 40 920 M 80 960 L 80 1000 M 120 1000 L 120 1040 M 160 1080 L 160 1040 M 40 920 L 40 960 M 80 1000 L 80 1040 M 120 1040 L 120 1080 M 160 1120 L 160 1080 M 40 960 L 40 1000 M 80 1040 L 80 1080 M 120 1080 L 120 1120 M 160 1160 L 160 1120 M 40 1000 L 40 1040 M 80 1080 L 80 1120 M 120 1120 L 120 1160 M 160 1200 L 160 1160 M 40 1040 L 40 1080 M 80 1120 L 80 1160 M 120 1160 L 120 1200 M 160 1240 L 160 1200 M 40 1080 L 40 1120 M 80 1160 L 80 1200 M 120 1200 L 120 1240 M 160 1280 L 160 1240 M 40 1120 L 40 1160 M 80 1200 L 80 1240 M 120 1240 L 120 1280 M 160 1320 L 160 1280 M 40 1160 L 40 1200 M 80 1240 L 80 1280 M 120 1280 L 120 1320 M 160 1360 L 160 1320 M 40 1200 L 40 1240 M 80 1280 L 80 1320 M 120 1320 L 120 1360 M 160 1400 L 160 1360 M 40 1240 L 40 1280 M 80 1320 L 80 1360 M 120 1360 L 120 1400 M 160 1440 L 160 1400 M 40 1280 L 40 1320 M 80 1360 L 80 1400 M 120 1400 L 120 1440 M 160 1480 L 160 1440 M 40 1320 L 40 1360 M 80 1400 L 80 1440 M 120 1440 L 120 1480 M 160 1520 L 160 1480 M 40 1360 L 40 1400 M 80 1440 L 80 1480 M 120 1480 L 120 1520 M 160 1560 L 160 1520 M 40 1400 L 40 1440 M 80 1480 L 80 1520 M 120 1520 L 120 1560 M 160 1600 L 160 1560 M 40 1440 L 40 1480 M 80 1520 L 80 1560 M 120 1560 L 120 1600 M 160 1640 L 160 1600 M 40 1480 L 40 1520 M 80 1560 L 80 1600 M 120 1640 L 160 1640 M 120 1600 L 120 1640 M 40 1520 L 40 1560 M 120 1680 L 160 1680 M 80 1600 L 80 1640 M 160 1720 L 160 1680 M 40 1560 L 40 1600" />
</svg>
