<?xml version="1.0"?>
<svg width="1680" height="160" version="1.1" xmlns="http://www.w3.org/2000/svg" >
<defs>
<style type="text/css"><![CDATA[
.m {stroke:rgb(255,0,0);stroke-width:2.100000;}
.v {stroke:rgb(0,0,255);stroke-width:2.100000;}
.b {stroke:rgb(0,0,0);stroke-width:4.200000;fill:white}
.n {stroke:rgb(128,128,128);stroke-width:2.100000}
.t {stroke:rgb(0,128,0);stroke-width:2.100000;}
.c {stroke:rgb(128,128,128);stroke-width:2.100000;stroke-dasharray:16.800000, 16.800000;}
]]></style>
</defs>
<path fill="none" style="stroke:black;stroke-width:4.200000;" d=" M 1640 120 L 1640 80 M 1600 80 L 1600 120 M 1600 120 L 1600 80 M 1560 80 L 1560 120 M 1560 120 L 1560 80 M 1520 80 L 1520 120 M 1520 120 L 1520 80 M 1480 80 L 1480 120 M 1480 120 L 1480 80 M 1440 80 L 1440 120 M 1440 120 L 1440 80 M 1400 80 L 1400 120 M 1400 120 L 1400 80 M 1360 80 L 1360 120 M 1360 120 L 1360 80 M 1320 80 L 1320 120 M 1320 120 L 1320 80 M 1280 80 L 1280 120 M 1280 120 L 1280 80 M 1240 80 L 1240 120 M 1240 120 L 1240 80 M 1200 80 L 1200 120 M 1200 120 L 1200 80 M 1160 80 L 1160 120 M 1160 120 L 1160 80 M 1120 80 L 1120 120 M 1120 120 L 1120 80 M 1080 80 L 1080 120 M 1080 120 L 1080 80 M 1040 80 L 1040 120 M 1040 120 L 1040 80 M 1000 80 L 1000 120 M 1000 120 L 1000 80 M 960 80 L 960 120 M 960 120 L 960 80 M 920 80 L 920 120 M 920 120 L 920 80 M 880 80 L 880 120 M 880 120 L 880 80 M 840 80 L 840 120 M 840 120 L 840 80 M 800 80 L 800 120 M 800 120 L 800 80 M 760 80 L 760 120 M 760 120 L 760 80 M 720 80 L 720 120 M 720 120 L 720 80 M 680 80 L 680 120 M 680 120 L 680 80 M 640 80 L 640 120 M 640 120 L 640 80 M 600 80 L 600 120 M 600 120 L 600 80 M 560 80 L 560 120 M 560 120 L 560 80 M 520 80 L 520 120 M 520 120 L 520 80 M 480 80 L 480 120 M 480 120 L 480 80 M 440 80 L 440 120 M 440 120 L 440 80 M 400 80 L 400 120 M 400 120 L 400 80 M 360 80 L 360 120 M 360 120 L 360 80 M 320 80 L 320 120 M 320 120 L 320 80 M 280 80 L 280 120 M 280 120 L 280 80 M 240 80 L 240 120 M 240 120 L 240 80 M 200 80 L 200 120 M 200 120 L 200 80 M 160 80 L 160 120 M 160 120 L 160 80 M 120 80 L 120 120 M 120 120 L 120 80 M 79.9998 80 L 79.9998 120 M 79.9998 120 L 79.9998 80 M 40 80 L 40 120 M 0 80 L 40 80 M 0 40 L 0 80 M 40 40 L 0 40 M 40 0 L 40 40 M 80 0 L 40 0 M 80 40 L 80 0 M 80 0 L 80 40 M 120 5.55112e-015 L 80 0 M 120 40 L 120 5.55112e-015 M 120 5.55112e-015 L 120 40 M 160 0 L 120 5.55112e-015 M 160 40 L 160 0 M 160 0 L 160 40 M 200 1.11022e-014 L 160 0 M 200 40 L 200 1.11022e-014 M 200 1.11022e-014 L 200 40 M 240 0 L 200 1.11022e-014 M 240 40 L 240 0 M 240 0 L 240 40 M 280 5.55112e-015 L 240 0 M 280 40 L 280 5.55112e-015 M 280 5.55112e-015 L 280 40 M 320 1.11022e-014 L 280 5.55112e-015 M 320 40 L 320 1.11022e-014 M 320 1.11022e-014 L 320 40 M 360 0 L 320 1.11022e-014 M 360 40 L 360 0 M 360 0 L 360 40 M 400 0 L 360 0 M 400 40 L 400 0 M 400 0 L 400 40 M 440 0 L 400 0 M 440 40 L 440 0 M 440 0 L 440 40 M 480 1.66533e-014 L 440 0 M 480 40 L 480 1.66533e-014 M 480 1.66533e-014 L 480 40 M 520 3.33067e-014 L 480 1.66533e-014 M 520 40 L 520 3.33067e-014 M 520 3.33067e-014 L 520 40 M 560 3.33067e-014 L 520 3.33067e-014 M 560 40 L 560 3.33067e-014 M 560 3.33067e-014 L 560 40 M 600 2.22045e-014 L 560 3.33067e-014 M 600 40 L 600 2.22045e-014 M 600 2.22045e-014 L 600 40 M 640 5.55112e-015 L 600 2.22045e-014 M 640 40 L 640 5.55112e-015 M 640 5.55112e-015 L 640 40 M 680 1.66533e-014 L 640 5.55112e-015 M 680 40 L 680 1.66533e-014 M 680 1.66533e-014 L 680 40 M 720 1.11022e-014 L 680 1.66533e-014 M 720 40 L 720 1.11022e-014 M 720 1.11022e-014 L 720 40 M 760 2.22045e-014 L 720 1.11022e-014 M 760 40 L 760 2.22045e-014 M 760 2.22045e-014 L 760 40 M 800 1.66533e-014 L 760 2.22045e-014 M 800 40 L 800 1.66533e-014 M 800 1.66533e-014 L 800 40 M 840 2.22045e-014 L 800 1.66533e-014 M 840 40 L 840 2.22045e-014 M 840 2.22045e-014 L 840 40 M 880 2.22045e-014 L 840 2.22045e-014 M 880 40 L 880 2.22045e-014 M 880 2.22045e-014 L 880 40 M 920 1.11022e-014 L 880 2.22045e-014 M 920 40 L 920 1.11022e-014 M 920 1.11022e-014 L 920 40 M 960 2.22045e-014 L 920 1.11022e-014 M 960 40 L 960 2.22045e-014 M 960 2.22045e-014 L 960 40 M 1000 1.66533e-014 L 960 2.22045e-014 M 1000 40 L 1000 1.66533e-014 M 1000 1.66533e-014 L 1000 40 M 1040 1.66533e-014 L 1000 1.66533e-014 M 1040 40 L 1040 1.66533e-014 M 1040 1.66533e-014 L 1040 40 M 1080 2.77556e-014 L 1040 1.66533e-014 M 1080 40 L 1080 2.77556e-014 M 1080 2.77556e-014 L 1080 40 M 1120 2.77556e-014 L 1080 2.77556e-014 M 1120 40 L 1120 2.77556e-014 M 1120 2.77556e-014 L 1120 40 M 1160 3.33067e-014 L 1120 2.77556e-014 M 1160 40 L 1160 3.33067e-014 M 1160 3.33067e-014 L 1160 40 M 1200 3.33067e-014 L 1160 3.33067e-014 M 1200 40 L 1200 3.33067e-014 M 1200 3.33067e-014 L 1200 40 M 1240 1.66533e-014 L 1200 3.33067e-014 M 1240 40 L 1240 1.66533e-014 M 1240 1.66533e-014 L 1240 40 M 1280 2.22045e-014 L 1240 1.66533e-014 M 1280 40 L 1280 2.22045e-014 M 1280 2.22045e-014 L 1280 40 M 1320 1.11022e-014 L 1280 2.22045e-014 M 1320 40 L 1320 1.11022e-014 M 1320 1.11022e-014 L 1320 40 M 1360 1.11022e-014 L 1320 1.11022e-014 M 1360 40 L 1360 1.11022e-014 M 1360 1.11022e-014 L 1360 40 M 1400 5.55112e-015 L 1360 1.11022e-014 M 1400 40 L 1400 5.55112e-015 M 1400 5.55112e-015 L 1400 40 M 1440 0 L 1400 5.55112e-015 M 1440 40 L 1440 0 M 1440 0 L 1440 40 M 1480 2.77556e-014 L 1440 0 M 1480 40 L 1480 2.77556e-014 M 1480 2.77556e-014 L 1480 40 M 1520 0 L 1480 2.77556e-014 M 1520 40 L 1520 0 M 1520 0 L 1520 40 M 1560 1.11022e-014 L 1520 0 M 1560 40 L 1560 1.11022e-014 M 1560 1.11022e-014 L 1560 40 M 1600 0 L 1560 1.11022e-014 M 1600 40 L 1600 0 M 1600 0 L 1600 40 M 1640 2.22045e-014 L 1600 0 M 1640 40 L 1640 2.22045e-014 M 1680 80 L 1680 40 M 1680 40 L 1640 40 M 1640 80 L 1680 80 M 1600 160 L 1640 160 M 1640 160 L 1640 120 M 1600 120 L 1600 160 M 1560 160 L 1600 160 M 1600 160 L 1600 120 M 1560 120 L 1560 160 M 1520 160 L 1560 160 M 1560 160 L 1560 120 M 1520 120 L 1520 160 M 1480 160 L 1520 160 M 1520 160 L 1520 120 M 1480 120 L 1480 160 M 1440 160 L 1480 160 M 1480 160 L 1480 120 M 1440 120 L 1440 160 M 1400 160 L 1440 160 M 1440 160 L 1440 120 M 1400 120 L 1400 160 M 1360 160 L 1400 160 M 1400 160 L 1400 120 M 1360 120 L 1360 160 M 1320 160 L 1360 160 M 1360 160 L 1360 120 M 1320 120 L 1320 160 M 1280 160 L 1320 160 M 1320 160 L 1320 120 M 1280 120 L 1280 160 M 1240 160 L 1280 160 M 1280 160 L 1280 120 M 1240 120 L 1240 160 M 1200 160 L 1240 160 M 1240 160 L 1240 120 M 1200 120 L 1200 160 M 1160 160 L 1200 160 M 1200 160 L 1200 120 M 1160 120 L 1160 160 M 1120 160 L 1160 160 M 1160 160 L 1160 120 M 1120 120 L 1120 160 M 1080 160 L 1120 160 M 1120 160 L 1120 120 M 1080 120 L 1080 160 M 1040 160 L 1080 160 M 1080 160 L 1080 120 M 1040 120 L 1040 160 M 1000 160 L 1040 160 M 1040 160 L 1040 120 M 1000 120 L 1000 160 M 960 160 L 1000 160 M 1000 160 L 1000 120 M 960 120 L 960 160 M 920 160 L 960 160 M 960 160 L 960 120 M 920 120 L 920 160 M 880 160 L 920 160 M 920 160 L 920 120 M 880 120 L 880 160 M 840 160 L 880 160 M 880 160 L 880 120 M 840 120 L 840 160 M 800 160 L 840 160 M 840 160 L 840 120 M 800 120 L 800 160 M 760 160 L 800 160 M 800 160 L 800 120 M 760 120 L 760 160 M 720 160 L 760 160 M 760 160 L 760 120 M 720 120 L 720 160 M 680 160 L 720 160 M 720 160 L 720 120 M 680 120 L 680 160 M 640 160 L 680 160 M 680 160 L 680 120 M 640 120 L 640 160 M 600 160 L 640 160 M 640 160 L 640 120 M 600 120 L 600 160 M 560 160 L 600 160 M 600 160 L 600 120 M 560 120 L 560 160 M 520 160 L 560 160 M 560 160 L 560 120 M 520 120 L 520 160 M 480 160 L 520 160 M 520 160 L 520 120 M 480 120 L 480 160 M 440 160 L 480 160 M 480 160 L 480 120 M 440 120 L 440 160 M 400 160 L 440 160 M 440 160 L 440 120 M 400 120 L 400 160 M 360 160 L 400 160 M 400 160 L 400 120 M 360 120 L 360 160 M 320 160 L 360 160 M 360 160 L 360 120 M 320 120 L 320 160 M 280 160 L 320 160 M 320 160 L 320 120 M 280 120 L 280 160 M 240 160 L 280 160 M 280 160 L 280 120 M 240 120 L 240 160 M 200 160 L 240 160 M 240 160 L 240 120 M 200 120 L 200 160 M 160 160 L 200 160 M 200 160 L 200 120 M 160 120 L 160 160 M 120 160 L 160 160 M 160 160 L 160 120 M 120 120 L 120 160 M 80 160 L 120 160 M 120 160 L 120 120 M 79.9998 120 L 80 160 M 40 160 L 80 160 M 80 160 L 79.9998 120 M 40 120 L 40 160" />
<path fill="none" class="c" d=" M 880 40 L 840 40 M 800 80 L 840 80 M 840 40 L 800 40 M 760 80 L 800 80 M 800 40 L 760 40 M 720 80 L 760 80 M 760 40 L 720 40 M 680 80 L 720 80 M 720 40 L 680 40 M 640 80 L 680 80 M 680 40 L 640 40 M 600 80 L 640 80 M 640 40 L 600 40 M 560 80 L 600 80 M 600 40 L 560 40 M 520 80 L 560 80 M 560 40 L 520 40 M 480 80 L 520 80 M 520 40 L 480 40 M 440 80 L 480 80 M 480 40 L 440 40 M 400 80 L 440 80 M 440 40 L 400 40 M 360 80 L 400 80 M 400 40 L 360 40 M 320 80 L 360 80 M 360 40 L 320 40 M 280 80 L 320 80 M 320 40 L 280 40 M 240 80 L 280 80 M 280 40 L 240 40 M 200 80 L 240 80 M 240 40 L 200 40 M 160 80 L 200 80 M 200 40 L 160 40 M 120 80 L 160 80 M 160 40 L 120 40 M 79.9998 80 L 120 80 M 120 40 L 80 40 M 40 80 L 79.9998 80 M 40 40 L 40 80 M 80 40 L 40 40 M 840 80 L 880 80 M 800 120 L 840 120 M 760 120 L 800 120 M 720 120 L 760 120 M 680 120 L 720 120 M 640 120 L 680 120 M 600 120 L 640 120 M 560 120 L 600 120 M 520 120 L 560 120 M 480 120 L 520 120 M 440 120 L 480 120 M 400 120 L 440 120 M 360 120 L 400 120 M 320 120 L 360 120 M 280 120 L 320 120 M 240 120 L 280 120 M 200 120 L 240 120 M 160 120 L 200 120 M 120 120 L 160 120 M 79.9998 120 L 120 120 M 40 120 L 79.9998 120 M 920 40 L 880 40 M 840 120 L 880 120 M 880 80 L 920 80 M 960 40 L 920 40 M 880 120 L 920 120 M 920 80 L 960 80 M 1000 40 L 960 40 M 920 120 L 960 120 M 960 80 L 1000 80 M 1040 40 L 1000 40 M 960 120 L 1000 120 M 1000 80 L 1040 80 M 1080 40 L 1040 40 M 1000 120 L 1040 120 M 1040 80 L 1080 80 M 1120 40 L 1080 40 M 1040 120 L 1080 120 M 1080 80 L 1120 80 M 1160 40 L 1120 40 M 1080 120 L 1120 120 M 1120 80 L 1160 80 M 1200 40 L 1160 40 M 1120 120 L 1160 120 M 1160 80 L 1200 80 M 1240 40 L 1200 40 M 1160 120 L 1200 120 M 1200 80 L 1240 80 M 1280 40 L 1240 40 M 1200 120 L 1240 120 M 1240 80 L 1280 80 M 1320 40 L 1280 40 M 1240 120 L 1280 120 M 1280 80 L 1320 80 M 1360 40 L 1320 40 M 1280 120 L 1320 120 M 1320 80 L 1360 80 M 1400 40 L 1360 40 M 1320 120 L 1360 120 M 1360 80 L 1400 80 M 1440 40 L 1400 40 M 1360 120 L 1400 120 M 1400 80 L 1440 80 M 1480 40 L 1440 40 M 1400 120 L 1440 120 M 1440 80 L 1480 80 M 1520 40 L 1480 40 M 1440 120 L 1480 120 M 1480 80 L 1520 80 M 1560 40 L 1520 40 M 1480 120 L 1520 120 M 1520 80 L 1560 80 M 1600 40 L 1560 40 M 1520 120 L 1560 120 M 1560 80 L 1600 80 M 1640 40 L 1600 40 M 1600 80 L 1640 80 M 1560 120 L 1600 120 M 1640 80 L 1640 40 M 1600 120 L 1640 120" />
</svg>
